<svg id="图层_1" data-name="图层 1" xmlns="http://www.w3.org/2000/svg" viewBox="0 0 513.5 619.46"><defs><style>.cls-1{fill:none;stroke:#3ea69f;stroke-miterlimit:10;}.cls-2{fill:#3ea69f;}</style></defs><circle class="cls-1" cx="48.5" cy="323.81" r="18"/><path class="cls-2" d="M363.53,418.82h3.86V409h-3v-1.14a9.5,9.5,0,0,0,3.44-1h1.3v11.95h3.49v1.45h-9.09Z" transform="translate(-325.59 -90.46)"/><path class="cls-2" d="M375.27,418.7l.86-1.16a5.31,5.31,0,0,0,3.78,1.53,3.11,3.11,0,0,0,3.38-3c0-1.85-1.31-2.92-3.28-2.92a5,5,0,0,0-2.73.8l-.92-.59.44-6.45h7.58v1.52h-6.05l-.36,3.94a5.84,5.84,0,0,1,2.48-.54c2.56,0,4.6,1.3,4.6,4.2s-2.39,4.53-4.95,4.53A6.72,6.72,0,0,1,375.27,418.7Z" transform="translate(-325.59 -90.46)"/><circle class="cls-1" cx="18.5" cy="400.81" r="18"/><path class="cls-2" d="M333.53,495.82h3.86V486h-3v-1.14a9.73,9.73,0,0,0,3.44-1h1.3v11.94h3.49v1.45h-9.09Z" transform="translate(-325.59 -90.46)"/><path class="cls-2" d="M351.82,488.05c0-.73.06-1.63.1-2.37h-.1c-.44.65-.93,1.3-1.37,1.95l-3.61,4.54h8.69v1.41H344.91v-1.16l6.68-8.54h1.86v13.39h-1.63Z" transform="translate(-325.59 -90.46)"/><circle class="cls-1" cx="73.5" cy="400.81" r="18"/><path class="cls-2" d="M388.53,495.82h3.86V486h-3v-1.14a9.73,9.73,0,0,0,3.44-1h1.3v11.94h3.49v1.45h-9.09Z" transform="translate(-325.59 -90.46)"/><path class="cls-2" d="M400.58,490.53c0-4.49,1.83-6.91,4.81-6.91s4.81,2.42,4.81,6.91-1.83,7-4.81,7S400.58,495,400.58,490.53Zm8,0c0-3.84-1.32-5.5-3.19-5.5s-3.19,1.66-3.19,5.5,1.32,5.59,3.19,5.59S408.58,494.37,408.58,490.53Zm-4.49-.15a1.3,1.3,0,1,1,1.3,1.41A1.3,1.3,0,0,1,404.09,490.38Z" transform="translate(-325.59 -90.46)"/><circle class="cls-1" cx="107.59" cy="250.5" r="18"/><path class="cls-2" d="M422.11,345.94c4.54-4,7-6.37,7-8.59,0-1.54-.93-2.61-2.9-2.61a4.62,4.62,0,0,0-3.21,1.6l-1-1a6,6,0,0,1,4.43-2c2.69,0,4.37,1.57,4.37,3.94s-2.52,5-6.16,8.32c.84-.06,1.7-.11,2.5-.11h4.39V347h-9.43Z" transform="translate(-325.59 -90.46)"/><path class="cls-2" d="M434.67,340.22c0-4.49,1.83-6.9,4.81-6.9s4.81,2.41,4.81,6.9-1.83,7-4.81,7S434.67,344.68,434.67,340.22Zm8,0c0-3.84-1.32-5.5-3.19-5.5s-3.19,1.66-3.19,5.5,1.32,5.59,3.19,5.59S442.67,344.07,442.67,340.22Zm-4.49-.14a1.3,1.3,0,1,1,1.3,1.4A1.31,1.31,0,0,1,438.18,340.08Z" transform="translate(-325.59 -90.46)"/><line class="cls-1" x1="41.44" y1="340.37" x2="24.63" y2="383.88"/><line class="cls-1" x1="55.73" y1="340.37" x2="67.37" y2="383.88"/><circle class="cls-1" cx="157.5" cy="323.81" r="18"/><path class="cls-2" d="M478.32,419.24c4.54-4,7-6.36,7-8.59,0-1.53-.93-2.6-2.9-2.6a4.58,4.58,0,0,0-3.21,1.6l-1-1a6,6,0,0,1,4.43-2c2.69,0,4.37,1.58,4.37,3.95s-2.52,5-6.16,8.31c.84-.06,1.7-.1,2.5-.1h4.39v1.49h-9.43Z" transform="translate(-325.59 -90.46)"/><line class="cls-1" x1="93.32" y1="261.46" x2="55.5" y2="307.22"/><line class="cls-1" x1="121.86" y1="261.46" x2="150.5" y2="307.22"/><circle class="cls-1" cx="386.5" cy="327.81" r="18"/><path class="cls-2" d="M701.53,422.82h3.86V413h-3v-1.14a9.5,9.5,0,0,0,3.44-1h1.3v11.95h3.49v1.45h-9.09Z" transform="translate(-325.59 -90.46)"/><path class="cls-2" d="M713.27,422.7l.86-1.16a5.31,5.31,0,0,0,3.78,1.53,3.11,3.11,0,0,0,3.38-3c0-1.85-1.31-2.92-3.28-2.92a5,5,0,0,0-2.73.8l-.92-.59.44-6.45h7.58v1.52h-6l-.36,3.94a5.84,5.84,0,0,1,2.48-.54c2.56,0,4.6,1.3,4.6,4.2s-2.39,4.53-5,4.53A6.71,6.71,0,0,1,713.27,422.7Z" transform="translate(-325.59 -90.46)"/><circle class="cls-1" cx="356.5" cy="404.81" r="18"/><path class="cls-2" d="M671.53,499.82h3.86V490h-3v-1.14a9.73,9.73,0,0,0,3.44-1h1.3v11.94h3.49v1.45h-9.09Z" transform="translate(-325.59 -90.46)"/><path class="cls-2" d="M689.82,492.05c0-.73.06-1.63.1-2.37h-.1c-.44.65-.93,1.3-1.37,1.95l-3.61,4.54h8.69v1.41H682.91v-1.16l6.68-8.54h1.86v13.39h-1.63Z" transform="translate(-325.59 -90.46)"/><circle class="cls-1" cx="411.5" cy="404.81" r="18"/><path class="cls-2" d="M726.53,499.82h3.86V490h-3v-1.14a9.73,9.73,0,0,0,3.44-1h1.3v11.94h3.49v1.45h-9.09Z" transform="translate(-325.59 -90.46)"/><path class="cls-2" d="M738.58,494.53c0-4.49,1.83-6.91,4.81-6.91s4.81,2.42,4.81,6.91-1.83,7-4.81,7S738.58,499,738.58,494.53Zm8,0c0-3.84-1.32-5.5-3.19-5.5s-3.19,1.66-3.19,5.5,1.32,5.59,3.19,5.59S746.58,498.37,746.58,494.53Zm-4.49-.15a1.3,1.3,0,1,1,1.3,1.41A1.3,1.3,0,0,1,742.09,494.38Z" transform="translate(-325.59 -90.46)"/><circle class="cls-1" cx="445.59" cy="254.5" r="18"/><path class="cls-2" d="M760.11,349.94c4.54-4,7-6.37,7-8.59,0-1.54-.93-2.61-2.9-2.61a4.62,4.62,0,0,0-3.21,1.6l-1-1a6,6,0,0,1,4.43-2c2.69,0,4.37,1.57,4.37,3.94s-2.52,5-6.16,8.32c.84-.06,1.7-.11,2.5-.11h4.39V351h-9.43Z" transform="translate(-325.59 -90.46)"/><path class="cls-2" d="M772.67,344.22c0-4.49,1.83-6.9,4.81-6.9s4.81,2.41,4.81,6.9-1.83,7-4.81,7S772.67,348.68,772.67,344.22Zm8,0c0-3.84-1.32-5.5-3.19-5.5s-3.19,1.66-3.19,5.5,1.32,5.59,3.19,5.59S780.67,348.07,780.67,344.22Zm-4.49-.14a1.3,1.3,0,1,1,1.3,1.4A1.31,1.31,0,0,1,776.18,344.08Z" transform="translate(-325.59 -90.46)"/><line class="cls-1" x1="379.44" y1="344.37" x2="362.63" y2="387.88"/><circle class="cls-1" cx="463.91" cy="404.96" r="18"/><path class="cls-2" d="M784.73,500.39c4.54-4,7-6.36,7-8.58,0-1.54-.93-2.61-2.9-2.61a4.62,4.62,0,0,0-3.21,1.6l-1-1a6,6,0,0,1,4.43-2c2.69,0,4.37,1.57,4.37,3.94s-2.52,5-6.16,8.32c.84-.07,1.7-.11,2.5-.11h4.39v1.49h-9.43Z" transform="translate(-325.59 -90.46)"/><line class="cls-1" x1="486.41" y1="343.54" x2="470.04" y2="388.03"/><line class="cls-1" x1="393.73" y1="344.37" x2="405.37" y2="387.88"/><path class="cls-2" d="M839.09,418.27a18,18,0,1,1-18-18A18,18,0,0,1,839.09,418.27Zm-18.29,6.25c2.56,0,5-1.64,5-4.53s-2-4.2-4.6-4.2a5.84,5.84,0,0,0-2.48.54l.36-3.94h6.05v-1.51H817.5l-.44,6.44.92.59a5,5,0,0,1,2.73-.8c2,0,3.28,1.07,3.28,2.92a3.1,3.1,0,0,1-3.38,3,5.31,5.31,0,0,1-3.78-1.53L816,422.7A6.74,6.74,0,0,0,820.8,424.52Z" transform="translate(-325.59 -90.46)"/><line class="cls-1" x1="431.32" y1="265.46" x2="393.5" y2="311.22"/><line class="cls-1" x1="459.86" y1="265.46" x2="488.5" y2="311.22"/><circle class="cls-1" cx="169.5" cy="523.81" r="18"/><path class="cls-2" d="M484.53,618.82h3.86V609h-3v-1.14a9.73,9.73,0,0,0,3.44-1h1.3v11.94h3.49v1.45h-9.09Z" transform="translate(-325.59 -90.46)"/><path class="cls-2" d="M496.27,618.7l.86-1.16a5.31,5.31,0,0,0,3.78,1.53,3.11,3.11,0,0,0,3.38-3c0-1.85-1.31-2.92-3.28-2.92a5,5,0,0,0-2.73.8l-.92-.59.44-6.44h7.58v1.51h-6.05l-.36,3.94a5.84,5.84,0,0,1,2.48-.54c2.56,0,4.6,1.3,4.6,4.2s-2.39,4.53-4.95,4.53A6.72,6.72,0,0,1,496.27,618.7Z" transform="translate(-325.59 -90.46)"/><circle class="cls-1" cx="139.5" cy="600.81" r="18"/><path class="cls-2" d="M454.53,695.82h3.86V686h-3v-1.14a9.73,9.73,0,0,0,3.44-1h1.3v11.94h3.49v1.45h-9.09Z" transform="translate(-325.59 -90.46)"/><path class="cls-2" d="M472.82,688.05c0-.73.06-1.63.1-2.37h-.1c-.44.65-.93,1.3-1.37,2l-3.61,4.54h8.69v1.41H465.91v-1.16l6.68-8.54h1.86v13.39h-1.63Z" transform="translate(-325.59 -90.46)"/><circle class="cls-1" cx="194.5" cy="600.81" r="18"/><path class="cls-2" d="M509.53,695.82h3.86V686h-3v-1.14a9.73,9.73,0,0,0,3.44-1h1.3v11.94h3.49v1.45h-9.09Z" transform="translate(-325.59 -90.46)"/><path class="cls-2" d="M521.58,690.53c0-4.49,1.83-6.91,4.81-6.91s4.81,2.42,4.81,6.91-1.83,7-4.81,7S521.58,695,521.58,690.53Zm8,0c0-3.84-1.32-5.5-3.19-5.5s-3.19,1.66-3.19,5.5,1.32,5.59,3.19,5.59S529.58,694.37,529.58,690.53Zm-4.49-.15a1.3,1.3,0,1,1,1.3,1.41A1.3,1.3,0,0,1,525.09,690.38Z" transform="translate(-325.59 -90.46)"/><path class="cls-2" d="M572.18,541a18,18,0,1,1-18-18A18,18,0,0,1,572.18,541Zm-29.07,6h9.43v-1.49h-4.39c-.8,0-1.66,0-2.5.11,3.64-3.3,6.16-5.8,6.16-8.32s-1.68-3.94-4.37-3.94a6,6,0,0,0-4.43,2l1,1a4.62,4.62,0,0,1,3.21-1.6c2,0,2.9,1.07,2.9,2.61,0,2.22-2.48,4.57-7,8.58Zm13.11,0h9.09v-1.45h-3.49V533.57h-1.3a9.73,9.73,0,0,1-3.44,1v1.14h3v9.82h-3.86Z" transform="translate(-325.59 -90.46)"/><line class="cls-1" x1="162.44" y1="540.37" x2="145.63" y2="583.88"/><circle class="cls-1" cx="246.91" cy="600.96" r="18"/><path class="cls-2" d="M567.73,696.39c4.54-4,7-6.36,7-8.58,0-1.54-.93-2.61-2.9-2.61a4.62,4.62,0,0,0-3.21,1.6l-1-1a6,6,0,0,1,4.43-2c2.69,0,4.37,1.57,4.37,3.94s-2.52,5-6.16,8.32c.84-.07,1.7-.11,2.5-.11h4.39v1.49h-9.43Z" transform="translate(-325.59 -90.46)"/><line class="cls-1" x1="269.85" y1="540.52" x2="253.04" y2="584.03"/><line class="cls-1" x1="176.73" y1="540.37" x2="188.37" y2="583.88"/><circle class="cls-1" cx="278.5" cy="523.81" r="18"/><path class="cls-2" d="M593,619.24c4.54-4,7-6.36,7-8.59,0-1.53-.93-2.6-2.9-2.6a4.58,4.58,0,0,0-3.21,1.6l-1-1a6,6,0,0,1,4.43-2c2.69,0,4.37,1.58,4.37,4s-2.52,5-6.16,8.31c.84-.06,1.7-.1,2.5-.1h4.39v1.49H593Z" transform="translate(-325.59 -90.46)"/><path class="cls-2" d="M605.58,613.53c0-4.49,1.83-6.91,4.81-6.91s4.81,2.42,4.81,6.91-1.83,7-4.81,7S605.58,618,605.58,613.53Zm8,0c0-3.84-1.32-5.5-3.19-5.5s-3.19,1.66-3.19,5.5,1.32,5.59,3.19,5.59S613.58,617.37,613.58,613.53Zm-4.49-.15a1.3,1.3,0,1,1,1.3,1.41A1.3,1.3,0,0,1,609.09,613.38Z" transform="translate(-325.59 -90.46)"/><line class="cls-1" x1="214.32" y1="461.46" x2="176.5" y2="507.22"/><line class="cls-1" x1="242.86" y1="461.46" x2="271.5" y2="507.22"/><circle class="cls-1" cx="279.5" cy="91.81" r="18"/><path class="cls-2" d="M594.53,186.82h3.86V177h-3v-1.14a9.5,9.5,0,0,0,3.44-1h1.3v11.95h3.49v1.45h-9.09Z" transform="translate(-325.59 -90.46)"/><path class="cls-2" d="M606.27,186.7l.86-1.16a5.31,5.31,0,0,0,3.78,1.53,3.11,3.11,0,0,0,3.38-3c0-1.85-1.31-2.92-3.28-2.92a5,5,0,0,0-2.73.8l-.92-.59.44-6.45h7.58v1.52h-6l-.36,3.94a5.84,5.84,0,0,1,2.48-.54c2.56,0,4.6,1.3,4.6,4.2s-2.39,4.53-5,4.53A6.71,6.71,0,0,1,606.27,186.7Z" transform="translate(-325.59 -90.46)"/><circle class="cls-1" cx="249.5" cy="168.81" r="18"/><path class="cls-2" d="M564.53,263.82h3.86V254h-3v-1.14a9.5,9.5,0,0,0,3.44-1h1.3v11.95h3.49v1.45h-9.09Z" transform="translate(-325.59 -90.46)"/><path class="cls-2" d="M582.82,256.05c0-.73.06-1.63.1-2.37h-.1c-.44.65-.93,1.3-1.37,1.95l-3.61,4.54h8.69v1.4H575.91v-1.15l6.68-8.55h1.86v13.4h-1.63Z" transform="translate(-325.59 -90.46)"/><circle class="cls-1" cx="304.5" cy="168.81" r="18"/><path class="cls-2" d="M619.53,263.82h3.86V254h-3v-1.14a9.5,9.5,0,0,0,3.44-1h1.3v11.95h3.49v1.45h-9.09Z" transform="translate(-325.59 -90.46)"/><path class="cls-2" d="M631.58,258.53c0-4.49,1.83-6.91,4.81-6.91s4.81,2.42,4.81,6.91-1.83,7-4.81,7S631.58,263,631.58,258.53Zm8,0c0-3.84-1.32-5.5-3.19-5.5s-3.19,1.66-3.19,5.5,1.32,5.59,3.19,5.59S639.58,262.37,639.58,258.53Zm-4.49-.15a1.3,1.3,0,1,1,1.3,1.41A1.3,1.3,0,0,1,635.09,258.38Z" transform="translate(-325.59 -90.46)"/><circle class="cls-1" cx="338.59" cy="18.5" r="18"/><path class="cls-2" d="M653.11,113.94c4.54-4,7-6.37,7-8.59,0-1.54-.93-2.61-2.9-2.61a4.62,4.62,0,0,0-3.21,1.6l-1-1a6,6,0,0,1,4.43-2c2.69,0,4.37,1.57,4.37,3.94s-2.52,5-6.16,8.32c.84-.06,1.7-.11,2.5-.11h4.39V115h-9.43Z" transform="translate(-325.59 -90.46)"/><path class="cls-2" d="M665.67,108.22c0-4.49,1.83-6.9,4.81-6.9s4.81,2.41,4.81,6.9-1.83,7-4.81,7S665.67,112.68,665.67,108.22Zm8,0c0-3.84-1.32-5.5-3.19-5.5s-3.19,1.66-3.19,5.5,1.32,5.59,3.19,5.59S673.67,112.07,673.67,108.22Zm-4.49-.14a1.3,1.3,0,1,1,1.3,1.4A1.31,1.31,0,0,1,669.18,108.08Z" transform="translate(-325.59 -90.46)"/><line class="cls-1" x1="272.44" y1="108.37" x2="255.63" y2="151.88"/><path class="cls-2" d="M700.5,259.42a18,18,0,1,1-18-18A18,18,0,0,1,700.5,259.42Zm-22.26,6h9.09V264h-3.49V252h-1.3a9.73,9.73,0,0,1-3.44,1v1.14h3V264h-3.86Z" transform="translate(-325.59 -90.46)"/><line class="cls-1" x1="379.85" y1="108.52" x2="363.04" y2="152.03"/><line class="cls-1" x1="286.73" y1="108.37" x2="298.37" y2="151.88"/><circle class="cls-1" cx="388.5" cy="91.81" r="18"/><path class="cls-2" d="M709.32,187.24c4.54-4,7-6.36,7-8.59,0-1.53-.93-2.6-2.9-2.6a4.58,4.58,0,0,0-3.21,1.6l-1-1a6,6,0,0,1,4.43-2c2.69,0,4.37,1.58,4.37,3.95,0,2.52-2.52,5-6.16,8.31.84-.06,1.7-.1,2.5-.1h4.39v1.49h-9.43Z" transform="translate(-325.59 -90.46)"/><line class="cls-1" x1="324.32" y1="29.46" x2="286.5" y2="75.22"/><line class="cls-1" x1="352.86" y1="29.46" x2="381.5" y2="75.22"/><line class="cls-1" x1="223.41" y1="320.04" x2="292.37" y2="320.04"/><path class="cls-2" d="M624,410.5a30.1,30.1,0,0,0-8.55,4.76l1.72-4.76-1.72-4.75A30.31,30.31,0,0,0,624,410.5Z" transform="translate(-325.59 -90.46)"/><path class="cls-2" d="M569.42,382.54h.34c.1,0,.29.19.56.56v.45a8.91,8.91,0,0,0-1.24,2c-.17,0-.58.64-1.23,1.81-.26,0-.82.37-1.69,1.12v2.59c0,.15.1.23.22.23,1-.14,1.57-.59,1.57-1.35q.12,0,.12-.24c-1,0-1.47-.37-1.47-1.12,2-.57,3-1,3.16-1.23v-.22c-.08-.4-.12-.63-.12-.68a.11.11,0,0,1,.12-.12l-.12-.56v-.33l.12-.56h.44c.2,0,.42.71.68,2.13l2.81-.9H574c.15,0,.23.09.23.22v.46L571,388.61a1.15,1.15,0,0,0-.11.56c0,.07,0,.37.11.9h.11a22.07,22.07,0,0,1,3.72-1.34H575a1.59,1.59,0,0,1,1.35,1l-.11.24.11.22-.79,7.2.12.22v.23l-.12.67a1.06,1.06,0,0,1,.12.56,1.88,1.88,0,0,1-.79.34,10.75,10.75,0,0,1-2.36-1.68,14.13,14.13,0,0,1-3.38,1.34c-.19,1.21-.6,1.81-1.24,1.81-.44-.3-.67-.56-.67-.79a37.78,37.78,0,0,0-.79-7.09h-.33v1l.11.68-.11.22c.09,1.45.16,2.39.22,2.82a.1.1,0,0,1-.11.11l.11,1.13v1.23c0,.11-.11.22-.34.34h-.11a10.46,10.46,0,0,1-1.8-2l.22-.1.45.32h.46l.22-2.81a19.35,19.35,0,0,1-.12-2.25c-.07,0-.1,0-.1-.1a11.68,11.68,0,0,1-4.16,1.57c-.31,0-.61-.23-.91-.67v-.34c0-.2.79-.42,2.36-.68a14.56,14.56,0,0,0,2.81-1.69v-2.59q0-.15-.33-.33h-.11a19.34,19.34,0,0,0-2.25.23,1,1,0,0,1-.9-.57v-.34c0-.22,1.05-.37,3.15-.44l.44-.46v-2.69l-.1-1.13a1.06,1.06,0,0,0,.34-.22c.1,0,.29.19.56.56v.45c0,.07,0,.11-.12.11l.12.23v2.13a.11.11,0,0,1-.12.12.73.73,0,0,1,.12.34h.33c.3,0,.86-1,1.69-2.93C568.8,383.16,569.21,382.6,569.42,382.54Zm-.34,6.87.45.78a11.12,11.12,0,0,1-1.68,2.36v.34a1.64,1.64,0,0,0,.33,1c1.28-.25,1.92-.51,1.92-.8v-.22a10.21,10.21,0,0,0-.34-1.47l.34-.67c-.16-1.05-.31-1.58-.46-1.58h-.34C569.15,389.2,569.08,389.27,569.08,389.41Zm-.9,6.18c.14,1.65.29,2.48.45,2.48,1.13-.51,1.69-.85,1.69-1v-.11c0-1.43-.19-2.14-.56-2.14A4,4,0,0,0,568.18,395.59Zm2.92-3.49V394l.12.68a4.93,4.93,0,0,0-.34,1.35v.68l.11.22a20.23,20.23,0,0,0,3.61-1.24,33.08,33.08,0,0,0,.56-5.63h-.46A8.34,8.34,0,0,0,571.1,392.1Zm2.82.45.56.56v.23c0,.28-.52.5-1.57.67h-.56c-.12,0-.27-.15-.46-.44v-.23A2.72,2.72,0,0,1,573.92,392.55Zm.11,4.27a.78.78,0,0,1-.23.46v.33h.46a.19.19,0,0,0,.22-.22v-.34c0-.15-.07-.23-.22-.23Z" transform="translate(-325.59 -90.46)"/><path class="cls-2" d="M584.15,383.62a24.28,24.28,0,0,1,6,6.3q5.83,6.61,7.21,7.08c.37.2.55.36.56.46V398c0,.12-.15.27-.45.44h-.11q-1.47,0-8.22-8l-.45-.34h-.11l-3.6,6.53c-1.52,2.1-2.64,3.14-3.37,3.14-.38,0-.6-.37-.68-1.12a2.07,2.07,0,0,0,1.46-1,33.59,33.59,0,0,0,4.73-7.65,3,3,0,0,0,.68-1.23c0-.35-1.32-1.75-3.94-4.18a1.2,1.2,0,0,1-.23-.66C583.59,383.79,583.77,383.67,584.15,383.62Z" transform="translate(-325.59 -90.46)"/><path class="cls-2" d="M608.64,398.55h-.1a1.56,1.56,0,0,1-1.4-.95c.07-.63.2-.94.38-.94h.17a3.29,3.29,0,0,1,.58.57h.08q1.1,0,3.19-2.82a4.59,4.59,0,0,0,.65-1.5V392h-.08a1.23,1.23,0,0,1-.57-.09q-3,.24-3,.66a.6.6,0,0,0-.27.09,1,1,0,0,1-.85-1v-.11a10.39,10.39,0,0,0,.56-3.36,1,1,0,0,0-.46-.75.71.71,0,0,1-.1-.37c0-.11.25-.27.75-.47q0-.75.66-.75l.65.65h.1c.3,0,.77,0,1.4-.09l.46.75v.09c0,.36-.72.64-2.15.85v.09l-.37,2.52.56-.09a6.16,6.16,0,0,1,3.1.48,3.42,3.42,0,0,1,.75,1.5,9.66,9.66,0,0,1-2.72,4.86A4.66,4.66,0,0,1,608.64,398.55Z" transform="translate(-325.59 -90.46)"/><line class="cls-1" x1="122.37" y1="406.35" x2="171.57" y2="454.67"/><path class="cls-2" d="M501.46,549.37a30,30,0,0,0-9.43-2.6l4.56-2.19,2.11-4.6A30.34,30.34,0,0,0,501.46,549.37Z" transform="translate(-325.59 -90.46)"/><path class="cls-2" d="M481.55,490.62l.25.23c.07.07.07.34,0,.8l-.31.32a9,9,0,0,0-2.3.57A5.63,5.63,0,0,0,477,493a4.26,4.26,0,0,0-2-.38l-1.81,1.85a.21.21,0,0,0,0,.31c.84.64,1.53.69,2.06.14.06.05.14,0,.25-.09-.7-.68-.78-1.29-.26-1.83,1.8,1,2.84,1.42,3.12,1.34l.15-.16.39-.57a.1.1,0,0,1,.17,0l.31-.48.23-.24.48-.32.32.31c.14.14-.2.81-1,2l2.63,1.33.25.24a.21.21,0,0,1,0,.31l-.32.33-3.59-1a1.26,1.26,0,0,0-.47.32c-.05.05-.23.29-.56.72l.09.08a23,23,0,0,1,3.59,1.64l.16.16a1.61,1.61,0,0,1,.26,1.66l-.24.1-.08.23-5.61,4.58-.07.25-.16.16-.55.4a1.17,1.17,0,0,1-.32.48,1.89,1.89,0,0,1-.8-.32,10.74,10.74,0,0,1-.5-2.85,14.51,14.51,0,0,1-3.35-1.4c-1,.72-1.7.86-2.15.41-.11-.52-.09-.86.07-1a37.61,37.61,0,0,0,4.4-5.61l-.23-.23-.71.72-.4.56-.23.08c-.95,1.09-1.56,1.81-1.81,2.16a.1.1,0,0,1-.17,0l-.7.89-.87.88q-.11.12-.48,0l-.08-.08a10.53,10.53,0,0,1,.14-2.7l.23.08.09.54.33.32,2.13-1.85a19.6,19.6,0,0,1,1.49-1.68.09.09,0,0,1,0-.15,11.41,11.41,0,0,1-4.07-1.8,1.19,1.19,0,0,1-.17-1.11l.23-.24q.21-.21,2.16,1.17a14.42,14.42,0,0,0,3.19.76l1.81-1.84c.07-.08.07-.23,0-.47l-.08-.08a22.3,22.3,0,0,0-1.76-1.42,1,1,0,0,1-.25-1l.23-.24c.16-.17,1,.46,2.56,1.89l.64,0,1.89-1.92.71-.88a1,1,0,0,0,.4.08c.08.07.08.34,0,.8l-.31.32a.12.12,0,0,1-.17,0l-.07.24-1.5,1.52c-.05.06-.1.06-.16,0a.68.68,0,0,1-.16.33l.24.23c.22.2,1.31-.1,3.26-.91A4.92,4.92,0,0,1,481.55,490.62Zm-10,8.44c-1,1.27-1.52,2-1.41,2.08,1.16.43,1.8.58,1.92.46l.08-.08c1-1,1.37-1.66,1.1-1.92A4.22,4.22,0,0,0,471.52,499.06Zm4.54-.44L474.72,500l-.39.57a4.68,4.68,0,0,0-1.19.72l-.48.49-.08.23a18.43,18.43,0,0,0,3.45,1.64,32.76,32.76,0,0,0,4.34-3.61l-.33-.32A8.18,8.18,0,0,0,476.06,498.62Zm.44-3.34-.22.88a11.39,11.39,0,0,1-2.86.49l-.24.25a1.67,1.67,0,0,0-.48,1c1.09.73,1.73,1,1.93.78l.16-.16a9.21,9.21,0,0,0,.78-1.28l.71-.24c.63-.86.89-1.34.79-1.45l-.25-.23A.21.21,0,0,0,476.5,495.28ZM474.84,504a.82.82,0,0,1-.49.16l-.23.24.33.32a.2.2,0,0,0,.31,0l.24-.25a.2.2,0,0,0,0-.31Zm2.91-3.13v.79l-.17.17c-.19.2-.72,0-1.58-.62l-.41-.4c-.08-.08-.08-.29,0-.64l.16-.15A2.69,2.69,0,0,1,477.75,500.91Z" transform="translate(-325.59 -90.46)"/><path class="cls-2" d="M491.31,501.71a24.6,24.6,0,0,1-.16,8.67q-.48,8.8.18,10.1c.12.41.14.65.08.73l-.4.4c-.08.08-.29.08-.63,0l-.08-.07q-1.05-1-.27-11.45l-.09-.56-.07-.08-7.14,2.14c-2.56.42-4.09.38-4.61-.13-.27-.26-.17-.68.3-1.27a2.06,2.06,0,0,0,1.75.3,33.21,33.21,0,0,0,8.74-2.15,3,3,0,0,0,1.34-.4q.38-.37.12-5.73a1.31,1.31,0,0,1,.3-.65C490.79,501.43,491,501.48,491.31,501.71Z" transform="translate(-325.59 -90.46)"/><path class="cls-2" d="M499.16,527.7l-.13-.12a.94.94,0,0,1,.12-1.07c1.89-.1,3.54-.25,5-.46a5.68,5.68,0,0,0,2.47-.66c.29-.3,0-1-.76-2.06l-1.07-.79c-.19-.18-.12-.51.2-1q.31-.31,1.32.51c1.48,1.44,1.84,2.76,1.1,4l-.06.06-.2.07-.07.2a6.07,6.07,0,0,1-2,.62c-.12-.11-.41-.09-.87.07a24,24,0,0,0-3,.36l2.66,1.44c.31.31.38.54.21.72l-.26.4-.59.08-.06-.07a.65.65,0,0,1-.21-.34A25.73,25.73,0,0,1,499.16,527.7Z" transform="translate(-325.59 -90.46)"/><path class="cls-2" d="M503.24,532.89l-.54-.52a3.42,3.42,0,0,1,.46-1.28c.17.12.41,0,.74-.33l.91-.92.45-.35.07-.19.33-.21a1,1,0,0,0,.2-.32c.93-.78,2.06-1.85,3.41-3.23l.26-.26a1.07,1.07,0,0,1,.94-.27l.19.19s0,.3-.05.74l-.53.4c-3.28,3.25-5.43,5.38-6.45,6.42C503.54,532.67,503.41,532.71,503.24,532.89Z" transform="translate(-325.59 -90.46)"/><line class="cls-1" x1="174.77" y1="258.82" x2="229.2" y2="216.47"/><path class="cls-2" d="M559.55,303.22a30.52,30.52,0,0,0-3.83,9l-1.56-4.81-4.28-2.7A30.06,30.06,0,0,0,559.55,303.22Z" transform="translate(-325.59 -90.46)"/><path class="cls-2" d="M501.06,313.31l.27-.21c.08-.06.34,0,.79.1l.27.35a9,9,0,0,0,.27,2.36,5.49,5.49,0,0,0,.14,2.18,4.19,4.19,0,0,0-.64,1.93l1.59,2c.11.1.21.12.31,0,.74-.75.88-1.42.41-2,.06-.05,0-.13-.05-.26-.77.61-1.39.61-1.85,0,1.2-1.66,1.78-2.63,1.73-2.91l-.13-.18a5.53,5.53,0,0,1-.51-.46.1.1,0,0,1,0-.16l-.44-.38-.2-.26-.25-.51.35-.27c.15-.12.77.3,1.84,1.26l1.67-2.44.27-.21a.22.22,0,0,1,.31,0l.28.36L506,317.14a1.14,1.14,0,0,0,.26.5c0,.06.26.28.64.65l.09-.07a21.69,21.69,0,0,1,2.11-3.35l.17-.13a1.58,1.58,0,0,1,1.68,0l.07.24.22.12,3.8,6.16.22.1.15.18.32.6a1.1,1.1,0,0,1,.43.38,1.69,1.69,0,0,1-.42.75,11,11,0,0,1-2.89.12,14.4,14.4,0,0,1-1.84,3.13c.59,1.07.63,1.8.13,2.19-.53,0-.87,0-1-.21a37.67,37.67,0,0,0-5-5.1l-.26.2.62.79.5.48,0,.24c1,1.08,1.59,1.78,1.91,2.08a.11.11,0,0,1,0,.16l.78.82.75,1c.07.09.05.24-.05.48l-.1.07a10.61,10.61,0,0,1-2.66-.5l.11-.22h.56l.36-.28-1.55-2.36a20.75,20.75,0,0,1-1.48-1.71c-.05.05-.1,0-.15,0a11.32,11.32,0,0,1-2.32,3.79,1.18,1.18,0,0,1-1.12,0l-.21-.27c-.12-.15.36-.82,1.44-2a14.48,14.48,0,0,0,1.19-3.06L501.94,321c-.06-.08-.22-.1-.46,0l-.1.07a17.55,17.55,0,0,0-1.63,1.56,1,1,0,0,1-1.06.11l-.21-.27c-.14-.18.6-.94,2.21-2.29l.07-.63-1.65-2.13-.78-.82a1,1,0,0,0,.14-.39c.08-.06.34,0,.79.1l.27.35a.11.11,0,0,1,0,.17l.23.1,1.31,1.68a.11.11,0,0,1,0,.17.86.86,0,0,1,.3.19l.26-.2c.23-.19.08-1.31-.47-3.35A5.06,5.06,0,0,1,501.06,313.31Zm3.95,5.63.85.34a11.13,11.13,0,0,1,.11,2.89l.21.27a1.6,1.6,0,0,0,.88.6c.87-1,1.21-1.58,1-1.81l-.13-.17a9.48,9.48,0,0,0-1.17-.95l-.15-.74c-.77-.73-1.21-1.05-1.33-1l-.27.21A.23.23,0,0,0,505,318.94Zm3.09,5.43c1.12,1.22,1.75,1.78,1.88,1.67.58-1.09.81-1.7.71-1.84l-.07-.08c-.88-1.13-1.46-1.58-1.76-1.35A4.24,4.24,0,0,0,508.1,324.37Zm.17-4.55,1.17,1.51.51.46a4.8,4.8,0,0,0,.56,1.27l.42.54.22.11a18.5,18.5,0,0,0,2.08-3.2,32.33,32.33,0,0,0-3-4.78l-.36.28A8.19,8.19,0,0,0,508.27,319.82Zm2.49-1.38.79.1.14.19c.17.21-.1.71-.82,1.49l-.45.34c-.09.08-.3.05-.63-.07l-.14-.17A2.76,2.76,0,0,1,510.76,318.44Zm2.72,3.31a.87.87,0,0,1,.1.5l.2.26.36-.28a.19.19,0,0,0,0-.31l-.21-.27a.19.19,0,0,0-.31,0Z" transform="translate(-325.59 -90.46)"/><path class="cls-2" d="M513.35,305.11a24.73,24.73,0,0,1,8.58,1.31q8.66,1.65,10,1.16c.42-.06.66-.06.73,0l.35.44c.07.1,0,.31-.09.64l-.09.06q-1.15.9-11.38-1.25h-.57l-.08.06,1.17,7.37c.08,2.58-.16,4.1-.74,4.55-.29.23-.7.07-1.22-.47a2.07,2.07,0,0,0,.53-1.7,33.58,33.58,0,0,0-1-8.94,3,3,0,0,0-.22-1.39c-.22-.27-2.11-.57-5.67-.87a1.26,1.26,0,0,1-.59-.38C513,305.59,513.09,305.39,513.35,305.11Z" transform="translate(-325.59 -90.46)"/><path class="cls-2" d="M541.07,301.14l-.59.46a3.16,3.16,0,0,1-1.2-.63c.13-.14.06-.4-.23-.77l-.8-1-.28-.49-.18-.1-.17-.34a.69.69,0,0,0-.29-.25q-1-1.53-2.74-3.81l-.23-.29a1.07,1.07,0,0,1-.14-1l.21-.17c.06,0,.3,0,.73.15l.32.57q4.18,5.53,5.51,7.25C540.89,300.8,540.92,300.94,541.07,301.14Z" transform="translate(-325.59 -90.46)"/></svg>