<svg id="图层_1" data-name="图层 1" xmlns="http://www.w3.org/2000/svg" viewBox="0 0 255 232.49"><defs><style>.cls-1{fill:none;stroke:#3ea69f;stroke-miterlimit:10;}.cls-2{fill:#3ea69f;}</style></defs><circle class="cls-1" cx="68.5" cy="57.77" r="18"/><path class="cls-2" d="M431.69,136.76c0-4.49,1.83-6.91,4.81-6.91s4.81,2.42,4.81,6.91-1.83,7-4.81,7S431.69,141.21,431.69,136.76Zm8,0c0-3.84-1.32-5.5-3.19-5.5s-3.19,1.66-3.19,5.5,1.32,5.59,3.19,5.59S439.69,140.6,439.69,136.76Zm-4.49-.15a1.3,1.3,0,1,1,1.3,1.41A1.3,1.3,0,0,1,435.2,136.61Z" transform="translate(-368 -79.73)"/><circle class="cls-1" cx="68.5" cy="157.77" r="18"/><path class="cls-2" d="M431.4,241.86l.88-1.13a5.41,5.41,0,0,0,3.84,1.57c1.83,0,3.19-.94,3.19-2.43s-1.34-2.67-4.85-2.67v-1.32c3.17,0,4.39-1.09,4.39-2.5s-1.11-2.1-2.73-2.1a5.12,5.12,0,0,0-3.3,1.34l-.92-1.09a6.51,6.51,0,0,1,4.28-1.68c2.52,0,4.43,1.24,4.43,3.4,0,1.62-1.19,2.65-2.85,3.2v.08c1.78.38,3.32,1.55,3.32,3.4,0,2.37-2.19,3.82-4.85,3.82A6.54,6.54,0,0,1,431.4,241.86Z" transform="translate(-368 -79.73)"/><circle class="cls-1" cx="118.5" cy="107.77" r="18"/><path class="cls-2" d="M481.73,192.47c4.54-4,7-6.36,7-8.59,0-1.53-.93-2.6-2.9-2.6a4.58,4.58,0,0,0-3.21,1.6l-1-1a6,6,0,0,1,4.43-2c2.69,0,4.37,1.58,4.37,4s-2.52,5-6.16,8.31c.84-.06,1.7-.1,2.5-.1h4.39v1.49h-9.43Z" transform="translate(-368 -79.73)"/><circle class="cls-1" cx="18.5" cy="107.77" r="18"/><path class="cls-2" d="M382.24,192.05h3.86v-9.82h-3v-1.14a9.5,9.5,0,0,0,3.44-1h1.3v12h3.49v1.45h-9.09Z" transform="translate(-368 -79.73)"/><line class="cls-1" x1="55.16" y1="69.86" x2="30.58" y2="94.43"/><line class="cls-1" x1="30.58" y1="121.11" x2="55.16" y2="145.69"/><line class="cls-1" x1="81.84" y1="145.69" x2="106.42" y2="121.11"/><line class="cls-1" x1="106.42" y1="94.43" x2="81.84" y2="69.86"/><circle class="cls-1" cx="236.5" cy="31.77" r="18"/><path class="cls-2" d="M599.69,110.76c0-4.49,1.83-6.91,4.81-6.91s4.81,2.42,4.81,6.91-1.83,7-4.81,7S599.69,115.21,599.69,110.76Zm8,0c0-3.84-1.32-5.5-3.19-5.5s-3.19,1.66-3.19,5.5,1.32,5.59,3.19,5.59S607.69,114.6,607.69,110.76Zm-4.49-.15a1.3,1.3,0,1,1,1.3,1.41A1.3,1.3,0,0,1,603.2,110.61Z" transform="translate(-368 -79.73)"/><circle class="cls-1" cx="185.5" cy="182.77" r="18"/><path class="cls-2" d="M548.4,266.86l.88-1.13a5.41,5.41,0,0,0,3.84,1.57c1.83,0,3.19-.94,3.19-2.43s-1.34-2.67-4.85-2.67v-1.32c3.17,0,4.39-1.09,4.39-2.5s-1.11-2.1-2.73-2.1a5.12,5.12,0,0,0-3.3,1.34l-.92-1.09a6.51,6.51,0,0,1,4.28-1.68c2.52,0,4.43,1.24,4.43,3.4,0,1.62-1.19,2.65-2.85,3.2v.08c1.78.38,3.32,1.55,3.32,3.4,0,2.37-2.19,3.82-4.85,3.82A6.54,6.54,0,0,1,548.4,266.86Z" transform="translate(-368 -79.73)"/><circle class="cls-1" cx="235.5" cy="132.77" r="18"/><path class="cls-2" d="M598.73,217.47c4.54-4,7-6.36,7-8.59,0-1.53-.93-2.6-2.9-2.6a4.58,4.58,0,0,0-3.21,1.6l-1-1a6,6,0,0,1,4.43-2c2.69,0,4.37,1.58,4.37,4s-2.52,5-6.16,8.31c.84-.06,1.7-.1,2.5-.1h4.39v1.49h-9.43Z" transform="translate(-368 -79.73)"/><circle class="cls-1" cx="186.5" cy="81.77" r="18"/><path class="cls-2" d="M550.24,166.05h3.86v-9.82h-3v-1.14a9.5,9.5,0,0,0,3.44-1h1.3v12h3.49v1.45h-9.09Z" transform="translate(-368 -79.73)"/><line class="cls-1" x1="223.16" y1="43.86" x2="198.58" y2="68.43"/><line class="cls-1" x1="198.58" y1="95.11" x2="223.16" y2="119.69"/><line class="cls-1" x1="198.84" y1="170.69" x2="223.42" y2="146.11"/><path class="cls-2" d="M425.56,79.73h1.78v5.75h5.71V79.73h1.79V93.5h-1.79V87h-5.71V93.5h-1.78Z" transform="translate(-368 -79.73)"/><path class="cls-2" d="M440.17,96.06h6.32v1.16h-6.32Zm2.59-5.29h-2.21v-.88A4.94,4.94,0,0,0,443,89h1.11v8.19h-1.36Z" transform="translate(-368 -79.73)"/><path class="cls-2" d="M493,301.61c0-4.45,2.54-7.14,6.11-7.14a5.08,5.08,0,0,1,3.8,1.68l-1,1.12a3.58,3.58,0,0,0-2.8-1.24c-2.58,0-4.26,2.12-4.26,5.54s1.53,5.63,4.22,5.63a3.44,3.44,0,0,0,2.37-.8v-3.59h-2.73v-1.45h4.37v5.8a5.79,5.79,0,0,1-4.11,1.59C495.51,308.75,493,306.11,493,301.61Z" transform="translate(-368 -79.73)"/><path class="cls-2" d="M507.61,309.34l3.21-5.56,1,.54-2.75,4.75h5.12v1h-6.59Zm4.15-2.71H513v5.59h-1.22Z" transform="translate(-368 -79.73)"/><path class="cls-2" d="M542.56,79.73h1.78v5.75h5.71V79.73h1.79V93.5h-1.79V87h-5.71V93.5h-1.78Z" transform="translate(-368 -79.73)"/><path class="cls-2" d="M556.82,96.44c2.81-2.39,4.3-3.57,4.3-4.81a1.62,1.62,0,0,0-1.78-1.7,2.5,2.5,0,0,0-2,1.18l-.79-.74a3.58,3.58,0,0,1,3-1.59c1.74,0,2.94.92,2.94,2.66,0,1.58-1.47,2.75-3.47,4.62h3.86v1.16h-6Z" transform="translate(-368 -79.73)"/></svg>