<svg id="图层_1" data-name="图层 1" xmlns="http://www.w3.org/2000/svg" viewBox="0 0 958.27 299.96"><defs><style>.cls-1{fill:none;}.cls-1,.cls-3{stroke:#3ea69f;stroke-miterlimit:10;}.cls-2,.cls-3{fill:#3ea69f;}</style></defs><circle class="cls-1" cx="48.5" cy="125.38" r="18"/><path class="cls-2" d="M178,169.38h3.86v-9.83h-3v-1.13a9.71,9.71,0,0,0,3.44-1h1.3v11.95h3.49v1.44H178Z" transform="translate(-133.76 -39.44)"/><circle class="cls-1" cx="18.5" cy="202.38" r="18"/><path class="cls-2" d="M147.16,246.19l.88-1.14a5.41,5.41,0,0,0,3.84,1.58c1.83,0,3.19-.95,3.19-2.44s-1.34-2.66-4.85-2.66V240.2c3.17,0,4.39-1.09,4.39-2.5s-1.11-2.1-2.73-2.1a5.08,5.08,0,0,0-3.3,1.35l-.92-1.09a6.46,6.46,0,0,1,4.28-1.68c2.52,0,4.43,1.24,4.43,3.4,0,1.61-1.19,2.64-2.85,3.19v.08c1.78.38,3.32,1.56,3.32,3.4,0,2.38-2.19,3.83-4.85,3.83A6.58,6.58,0,0,1,147.16,246.19Z" transform="translate(-133.76 -39.44)"/><circle class="cls-1" cx="73.5" cy="202.38" r="18"/><path class="cls-2" d="M208.69,238.61c0-.74.06-1.64.1-2.38h-.1c-.44.65-.93,1.31-1.37,2l-3.61,4.53h8.69v1.41H201.78V243l6.68-8.54h1.86v13.39h-1.63Z" transform="translate(-133.76 -39.44)"/><circle class="cls-1" cx="107.59" cy="52.08" r="18"/><path class="cls-2" d="M236.54,90.78c0-4.5,1.83-6.91,4.81-6.91s4.81,2.41,4.81,6.91-1.83,7-4.81,7S236.54,95.23,236.54,90.78Zm8,0c0-3.84-1.32-5.5-3.19-5.5s-3.19,1.66-3.19,5.5,1.32,5.58,3.19,5.58S244.54,94.62,244.54,90.78Zm-4.49-.15a1.3,1.3,0,1,1,2.6,0,1.3,1.3,0,1,1-2.6,0Z" transform="translate(-133.76 -39.44)"/><line class="cls-1" x1="41.44" y1="141.94" x2="24.63" y2="185.45"/><line class="cls-1" x1="55.73" y1="141.94" x2="67.37" y2="185.45"/><circle class="cls-1" cx="157.5" cy="125.38" r="18"/><path class="cls-2" d="M286.49,169.8c4.54-4,7-6.37,7-8.59,0-1.53-.92-2.61-2.89-2.61a4.62,4.62,0,0,0-3.21,1.6l-1-1a6,6,0,0,1,4.43-2c2.68,0,4.36,1.57,4.36,3.94s-2.51,5-6.15,8.32c.84-.06,1.7-.11,2.5-.11h4.39v1.49h-9.43Z" transform="translate(-133.76 -39.44)"/><circle class="cls-1" cx="127.5" cy="202.38" r="18"/><path class="cls-2" d="M256.14,246.25l.86-1.16a5.32,5.32,0,0,0,3.78,1.54,3.12,3.12,0,0,0,3.38-3c0-1.84-1.31-2.92-3.28-2.92a5.06,5.06,0,0,0-2.73.8l-.92-.59.44-6.44h7.58v1.51H259.2l-.36,3.95a5.7,5.7,0,0,1,2.48-.55c2.56,0,4.6,1.3,4.6,4.2s-2.39,4.54-5,4.54A6.72,6.72,0,0,1,256.14,246.25Z" transform="translate(-133.76 -39.44)"/><circle class="cls-1" cx="182.5" cy="202.38" r="18"/><path class="cls-2" d="M311.58,241.63c0-5.38,2.68-7.45,5.6-7.45a5.36,5.36,0,0,1,3.74,1.42l-1,1.1a3.91,3.91,0,0,0-2.66-1.08c-2.19,0-4.08,1.54-4.08,6,0,3.3,1.26,5.08,3.49,5.08a2.78,2.78,0,0,0,2.81-2.94,2.54,2.54,0,0,0-2.83-2.83,4.69,4.69,0,0,0-3.51,1.89l-.06-1.37a5.67,5.67,0,0,1,3.88-1.82c2.48,0,4.18,1.38,4.18,4.13a4.33,4.33,0,0,1-4.47,4.31C313.78,248.08,311.58,245.93,311.58,241.63Z" transform="translate(-133.76 -39.44)"/><circle class="cls-1" cx="100.74" cy="268.06" r="18"/><path class="cls-2" d="M237.38,301.62h-7.71V300.1h9.7v1.08c-3.55,4.05-4.41,7.07-4.62,12.32h-1.83A17.9,17.9,0,0,1,237.38,301.62Z" transform="translate(-133.76 -39.44)"/><line class="cls-1" x1="150.44" y1="141.94" x2="133.63" y2="185.45"/><line class="cls-1" x1="164.73" y1="141.94" x2="176.37" y2="185.45"/><line class="cls-1" x1="93.32" y1="63.04" x2="55.5" y2="108.79"/><line class="cls-1" x1="121.86" y1="63.04" x2="150.5" y2="108.79"/><line class="cls-1" x1="30.5" y1="215.8" x2="86.45" y2="257.11"/><line class="cls-1" x1="82.74" y1="217.83" x2="93.32" y2="251.66"/><line class="cls-1" x1="118.74" y1="217.83" x2="109.5" y2="251.66"/><line class="cls-1" x1="173.26" y1="217.83" x2="115.03" y2="257.11"/><rect class="cls-1" x="368.76" y="0.5" width="88.47" height="32.96"/><line class="cls-1" x1="424.86" y1="0.5" x2="424.86" y2="33.46"/><path class="cls-2" d="M525.51,61.54h4V51.37H526.4V50.19a9.79,9.79,0,0,0,3.56-1h1.35V61.54h3.61V63h-9.41Z" transform="translate(-133.76 -39.44)"/><rect class="cls-1" x="521.41" y="0.5" width="128.36" height="32.96"/><line class="cls-1" x1="577.51" y1="0.5" x2="577.51" y2="33.46"/><path class="cls-2" d="M677.63,62c4.7-4.15,7.26-6.58,7.26-8.89,0-1.58-.95-2.69-3-2.69A4.78,4.78,0,0,0,678.57,52l-1-1a6.18,6.18,0,0,1,4.58-2.11c2.78,0,4.52,1.63,4.52,4.09s-2.61,5.19-6.37,8.6c.87-.06,1.76-.11,2.59-.11h4.54V63h-9.76Z" transform="translate(-133.76 -39.44)"/><path class="cls-2" d="M723.41,49H726l3.6,7.65,1.23,2.9h.06c-.1-1.39-.33-3.11-.33-4.63V49h2.31V62.64h-2.54L726.68,55l-1.24-2.9h-.05c.1,1.45.32,3.09.32,4.6v6h-2.3Z" transform="translate(-133.76 -39.44)"/><path class="cls-2" d="M735.84,57.45V49h2.44v8.6c0,2.2.9,3.16,2.35,3.16s2.4-1,2.4-3.16V49h2.33v8.42c0,3.71-1.74,5.44-4.73,5.44S735.84,61.16,735.84,57.45Z" transform="translate(-133.76 -39.44)"/><path class="cls-2" d="M749.35,49h2.4V60.61h6.39v2h-8.79Z" transform="translate(-133.76 -39.44)"/><path class="cls-2" d="M761.84,49h2.4V60.61h6.39v2h-8.79Z" transform="translate(-133.76 -39.44)"/><rect class="cls-3" x="268.05" y="0.5" width="34.18" height="32.96"/><path class="cls-2" d="M378.94,56.06c0-4.65,1.89-7.15,5-7.15s5,2.5,5,7.15-1.9,7.24-5,7.24S378.94,60.67,378.94,56.06Zm8.28,0c0-4-1.37-5.69-3.3-5.69s-3.3,1.71-3.3,5.69,1.37,5.78,3.3,5.78S387.22,60,387.22,56.06Zm-4.65-.15a1.35,1.35,0,1,1,1.35,1.45A1.36,1.36,0,0,1,382.57,55.91Z" transform="translate(-133.76 -39.44)"/><line class="cls-1" x1="284.88" y1="17.85" x2="344.76" y2="17.85"/><path class="cls-2" d="M484.56,57.29A30.31,30.31,0,0,0,476,62l1.72-4.75L476,52.53A30.1,30.1,0,0,0,484.56,57.29Z" transform="translate(-133.76 -39.44)"/><line class="cls-1" x1="439.88" y1="17.85" x2="499.76" y2="17.85"/><path class="cls-2" d="M639.56,57.29A30.31,30.31,0,0,0,631,62l1.72-4.75L631,52.53A30.1,30.1,0,0,0,639.56,57.29Z" transform="translate(-133.76 -39.44)"/><rect class="cls-1" x="368.76" y="38.5" width="88.47" height="32.96"/><line class="cls-1" x1="424.86" y1="38.5" x2="424.86" y2="71.46"/><path class="cls-2" d="M524.94,94.06c0-4.65,1.89-7.15,5-7.15s5,2.5,5,7.15-1.9,7.24-5,7.24S524.94,98.67,524.94,94.06Zm8.28,0c0-4-1.37-5.69-3.3-5.69s-3.3,1.71-3.3,5.69,1.37,5.78,3.3,5.78S533.22,98,533.22,94.06Zm-4.65-.15a1.35,1.35,0,1,1,1.35,1.45A1.36,1.36,0,0,1,528.57,93.91Z" transform="translate(-133.76 -39.44)"/><rect class="cls-1" x="676.41" y="38.5" width="128.36" height="32.96"/><line class="cls-1" x1="732.51" y1="38.5" x2="732.51" y2="71.46"/><path class="cls-2" d="M839,91.5c0-.76.07-1.7.11-2.46H839c-.45.67-.95,1.35-1.41,2l-3.73,4.7h9v1.45h-11V96l6.91-8.85h1.93V101H839Z" transform="translate(-133.76 -39.44)"/><path class="cls-2" d="M878.41,87H881l3.6,7.65,1.23,2.9h.06c-.1-1.39-.33-3.11-.33-4.63V87h2.31v13.61h-2.54L881.68,93l-1.24-2.9h-.05c.1,1.45.32,3.09.32,4.6v6h-2.3Z" transform="translate(-133.76 -39.44)"/><path class="cls-2" d="M890.84,95.45V87h2.44v8.6c0,2.2.9,3.16,2.35,3.16s2.4-1,2.4-3.16V87h2.33v8.42c0,3.71-1.74,5.44-4.73,5.44S890.84,99.16,890.84,95.45Z" transform="translate(-133.76 -39.44)"/><path class="cls-2" d="M904.35,87h2.4V98.61h6.39v2h-8.79Z" transform="translate(-133.76 -39.44)"/><path class="cls-2" d="M916.84,87h2.4V98.61h6.39v2h-8.79Z" transform="translate(-133.76 -39.44)"/><rect class="cls-1" x="521.76" y="38.5" width="88.47" height="32.96"/><line class="cls-1" x1="577.86" y1="38.5" x2="577.86" y2="71.46"/><path class="cls-2" d="M677.64,99.34l.91-1.17a5.61,5.61,0,0,0,4,1.63c1.89,0,3.3-1,3.3-2.52s-1.39-2.76-5-2.76V93.15c3.28,0,4.54-1.13,4.54-2.59s-1.15-2.17-2.82-2.17a5.26,5.26,0,0,0-3.41,1.39l-1-1.13a6.71,6.71,0,0,1,4.43-1.74c2.61,0,4.59,1.28,4.59,3.52,0,1.68-1.24,2.74-3,3.3v.09c1.85.39,3.44,1.61,3.44,3.52,0,2.46-2.26,4-5,4A6.81,6.81,0,0,1,677.64,99.34Z" transform="translate(-133.76 -39.44)"/><rect class="cls-3" x="268.05" y="38.5" width="34.18" height="32.96"/><path class="cls-2" d="M379.51,99.54h4V89.37H380.4V88.19a9.79,9.79,0,0,0,3.56-1h1.35V99.54h3.61V101h-9.41Z" transform="translate(-133.76 -39.44)"/><line class="cls-1" x1="284.88" y1="55.85" x2="344.76" y2="55.85"/><path class="cls-2" d="M484.56,95.29A30.31,30.31,0,0,0,476,100l1.72-4.75L476,90.53A30.1,30.1,0,0,0,484.56,95.29Z" transform="translate(-133.76 -39.44)"/><line class="cls-1" x1="592.88" y1="55.85" x2="652.76" y2="55.85"/><path class="cls-2" d="M792.56,95.29A30.31,30.31,0,0,0,784,100l1.72-4.75L784,90.53A30.1,30.1,0,0,0,792.56,95.29Z" transform="translate(-133.76 -39.44)"/><line class="cls-1" x1="439.88" y1="55.85" x2="499.76" y2="55.85"/><path class="cls-2" d="M639.56,95.29A30.31,30.31,0,0,0,631,100l1.72-4.75L631,90.53A30.1,30.1,0,0,0,639.56,95.29Z" transform="translate(-133.76 -39.44)"/><rect class="cls-1" x="368.76" y="76.5" width="88.47" height="32.96"/><line class="cls-1" x1="424.86" y1="76.5" x2="424.86" y2="109.46"/><path class="cls-2" d="M524.94,132.06c0-4.65,1.89-7.15,5-7.15s5,2.5,5,7.15-1.9,7.24-5,7.24S524.94,136.67,524.94,132.06Zm8.28,0c0-4-1.37-5.69-3.3-5.69s-3.3,1.71-3.3,5.69,1.37,5.78,3.3,5.78S533.22,136,533.22,132.06Zm-4.65-.15a1.35,1.35,0,1,1,1.35,1.45A1.36,1.36,0,0,1,528.57,131.91Z" transform="translate(-133.76 -39.44)"/><rect class="cls-1" x="676.41" y="76.5" width="128.36" height="32.96"/><line class="cls-1" x1="732.51" y1="76.5" x2="732.51" y2="109.46"/><path class="cls-2" d="M832.72,132.63c0-5.57,2.78-7.72,5.8-7.72a5.49,5.49,0,0,1,3.87,1.48l-1,1.13a4.12,4.12,0,0,0-2.76-1.11c-2.26,0-4.21,1.59-4.21,6.22,0,3.41,1.3,5.25,3.6,5.25a2.88,2.88,0,0,0,2.92-3,2.64,2.64,0,0,0-2.94-2.93,4.86,4.86,0,0,0-3.63,2l-.06-1.41a5.86,5.86,0,0,1,4-1.89c2.56,0,4.32,1.44,4.32,4.28A4.48,4.48,0,0,1,838,139.3C835,139.3,832.72,137.08,832.72,132.63Z" transform="translate(-133.76 -39.44)"/><path class="cls-2" d="M878.41,125H881l3.6,7.65,1.23,2.9h.06c-.1-1.39-.33-3.11-.33-4.63V125h2.31v13.61h-2.54l-3.6-7.65-1.24-2.9h-.05c.1,1.45.32,3.09.32,4.6v5.95h-2.3Z" transform="translate(-133.76 -39.44)"/><path class="cls-2" d="M890.84,133.45V125h2.44v8.6c0,2.2.9,3.16,2.35,3.16s2.4-1,2.4-3.16V125h2.33v8.42c0,3.71-1.74,5.44-4.73,5.44S890.84,137.16,890.84,133.45Z" transform="translate(-133.76 -39.44)"/><path class="cls-2" d="M904.35,125h2.4v11.58h6.39v2h-8.79Z" transform="translate(-133.76 -39.44)"/><path class="cls-2" d="M916.84,125h2.4v11.58h6.39v2h-8.79Z" transform="translate(-133.76 -39.44)"/><rect class="cls-1" x="521.76" y="76.5" width="88.47" height="32.96"/><line class="cls-1" x1="577.86" y1="76.5" x2="577.86" y2="109.46"/><path class="cls-2" d="M677.62,137.41l.89-1.2a5.49,5.49,0,0,0,3.91,1.59,3.22,3.22,0,0,0,3.5-3.15c0-1.92-1.35-3-3.39-3a5.22,5.22,0,0,0-2.83.82l-1-.61.45-6.67h7.85v1.57h-6.26l-.37,4.08a5.93,5.93,0,0,1,2.57-.56c2.65,0,4.75,1.34,4.75,4.34s-2.47,4.7-5.12,4.7A7,7,0,0,1,677.62,137.41Z" transform="translate(-133.76 -39.44)"/><rect class="cls-3" x="268.05" y="76.5" width="34.18" height="32.96"/><path class="cls-2" d="M379,138c4.69-4.15,7.26-6.58,7.26-8.89,0-1.58-1-2.69-3-2.69a4.78,4.78,0,0,0-3.33,1.65l-1-1a6.18,6.18,0,0,1,4.58-2.11c2.79,0,4.52,1.63,4.52,4.09s-2.6,5.19-6.36,8.6c.87-.06,1.76-.11,2.58-.11h4.54V139H379Z" transform="translate(-133.76 -39.44)"/><line class="cls-1" x1="284.88" y1="93.85" x2="344.76" y2="93.85"/><path class="cls-2" d="M484.56,133.29A30.31,30.31,0,0,0,476,138l1.72-4.75L476,128.53A30.1,30.1,0,0,0,484.56,133.29Z" transform="translate(-133.76 -39.44)"/><line class="cls-1" x1="592.88" y1="93.85" x2="652.76" y2="93.85"/><path class="cls-2" d="M792.56,133.29A30.31,30.31,0,0,0,784,138l1.72-4.75L784,128.53A30.1,30.1,0,0,0,792.56,133.29Z" transform="translate(-133.76 -39.44)"/><line class="cls-1" x1="439.88" y1="93.85" x2="499.76" y2="93.85"/><path class="cls-2" d="M639.56,133.29A30.31,30.31,0,0,0,631,138l1.72-4.75L631,128.53A30.1,30.1,0,0,0,639.56,133.29Z" transform="translate(-133.76 -39.44)"/><rect class="cls-1" x="368.76" y="266.5" width="88.47" height="32.96"/><line class="cls-1" x1="424.86" y1="266.5" x2="424.86" y2="299.46"/><path class="cls-2" d="M524.64,327.34l.91-1.17a5.61,5.61,0,0,0,4,1.63c1.89,0,3.3-1,3.3-2.52s-1.39-2.76-5-2.76v-1.37c3.28,0,4.54-1.13,4.54-2.59s-1.15-2.17-2.82-2.17a5.26,5.26,0,0,0-3.41,1.39l-1-1.13a6.71,6.71,0,0,1,4.43-1.74c2.61,0,4.59,1.28,4.59,3.52,0,1.68-1.24,2.74-3,3.31v.08c1.85.39,3.44,1.61,3.44,3.52,0,2.46-2.26,4-5,4A6.81,6.81,0,0,1,524.64,327.34Z" transform="translate(-133.76 -39.44)"/><rect class="cls-1" x="829.41" y="266.5" width="128.36" height="32.96"/><line class="cls-1" x1="885.51" y1="266.5" x2="885.51" y2="299.46"/><path class="cls-2" d="M985.72,322.63c0-5.57,2.78-7.72,5.8-7.72a5.49,5.49,0,0,1,3.87,1.48l-1,1.13a4.12,4.12,0,0,0-2.76-1.11c-2.26,0-4.21,1.59-4.21,6.22,0,3.41,1.3,5.25,3.6,5.25a2.88,2.88,0,0,0,2.92-3,2.64,2.64,0,0,0-2.94-2.93,4.86,4.86,0,0,0-3.63,1.95l-.06-1.41a5.86,5.86,0,0,1,4-1.89c2.56,0,4.32,1.44,4.32,4.28A4.48,4.48,0,0,1,991,329.3C988,329.3,985.72,327.08,985.72,322.63Z" transform="translate(-133.76 -39.44)"/><path class="cls-2" d="M1031.41,315H1034l3.6,7.65,1.23,2.9h.06c-.1-1.39-.33-3.11-.33-4.63V315h2.31v13.61h-2.54l-3.6-7.65-1.24-2.9h0c.1,1.45.32,3.09.32,4.6v5.95h-2.3Z" transform="translate(-133.76 -39.44)"/><path class="cls-2" d="M1043.84,323.45V315h2.44v8.6c0,2.2.9,3.16,2.35,3.16s2.4-1,2.4-3.16V315h2.33v8.42c0,3.71-1.74,5.44-4.73,5.44S1043.84,327.16,1043.84,323.45Z" transform="translate(-133.76 -39.44)"/><path class="cls-2" d="M1057.35,315h2.4v11.58h6.39v2h-8.79Z" transform="translate(-133.76 -39.44)"/><path class="cls-2" d="M1069.84,315h2.4v11.58h6.39v2h-8.79Z" transform="translate(-133.76 -39.44)"/><rect class="cls-1" x="521.76" y="266.5" width="88.47" height="32.96"/><line class="cls-1" x1="577.86" y1="266.5" x2="577.86" y2="299.46"/><path class="cls-2" d="M684.4,319.5c0-.76.06-1.7.11-2.46h-.11c-.46.67-1,1.35-1.41,2l-3.74,4.7h9v1.45h-11V324l6.91-8.85h1.93V329H684.4Z" transform="translate(-133.76 -39.44)"/><rect class="cls-3" x="268.05" y="266.5" width="34.18" height="32.96"/><path class="cls-2" d="M386.9,316.74h-8v-1.57h10v1.11c-3.67,4.19-4.56,7.32-4.78,12.76h-1.89A18.54,18.54,0,0,1,386.9,316.74Z" transform="translate(-133.76 -39.44)"/><line class="cls-1" x1="284.88" y1="283.85" x2="344.76" y2="283.85"/><path class="cls-2" d="M484.56,323.29A30.31,30.31,0,0,0,476,328l1.72-4.75L476,318.53A30.1,30.1,0,0,0,484.56,323.29Z" transform="translate(-133.76 -39.44)"/><line class="cls-1" x1="592.88" y1="283.85" x2="652.76" y2="283.85"/><path class="cls-2" d="M792.56,323.29A30.31,30.31,0,0,0,784,328l1.72-4.75L784,318.53A30.1,30.1,0,0,0,792.56,323.29Z" transform="translate(-133.76 -39.44)"/><rect class="cls-1" x="676.76" y="266.5" width="88.47" height="32.96"/><line class="cls-1" x1="732.86" y1="266.5" x2="732.86" y2="299.46"/><path class="cls-2" d="M832.62,327.41l.89-1.2a5.49,5.49,0,0,0,3.91,1.59,3.22,3.22,0,0,0,3.5-3.15c0-1.92-1.35-3-3.39-3a5.22,5.22,0,0,0-2.83.82l-1-.61.45-6.67h7.85v1.57h-6.26l-.37,4.08a5.93,5.93,0,0,1,2.57-.56c2.65,0,4.75,1.34,4.75,4.34s-2.47,4.7-5.12,4.7A7,7,0,0,1,832.62,327.41Z" transform="translate(-133.76 -39.44)"/><line class="cls-1" x1="747.88" y1="283.85" x2="807.76" y2="283.85"/><path class="cls-2" d="M947.56,323.29A30.31,30.31,0,0,0,939,328l1.72-4.75L939,318.53A30.1,30.1,0,0,0,947.56,323.29Z" transform="translate(-133.76 -39.44)"/><line class="cls-1" x1="439.88" y1="283.85" x2="499.76" y2="283.85"/><path class="cls-2" d="M639.56,323.29A30.31,30.31,0,0,0,631,328l1.72-4.75L631,318.53A30.1,30.1,0,0,0,639.56,323.29Z" transform="translate(-133.76 -39.44)"/><rect class="cls-1" x="368.76" y="114.5" width="88.47" height="32.96"/><line class="cls-1" x1="424.86" y1="114.5" x2="424.86" y2="147.46"/><path class="cls-2" d="M525.51,175.54h4V165.37H526.4v-1.18a9.79,9.79,0,0,0,3.56-1h1.35v12.37h3.61V177h-9.41Z" transform="translate(-133.76 -39.44)"/><rect class="cls-1" x="521.41" y="114.5" width="128.36" height="32.96"/><line class="cls-1" x1="577.51" y1="114.5" x2="577.51" y2="147.46"/><path class="cls-2" d="M685.54,164.74h-8v-1.57h10v1.11c-3.67,4.19-4.56,7.32-4.78,12.76h-1.89A18.51,18.51,0,0,1,685.54,164.74Z" transform="translate(-133.76 -39.44)"/><path class="cls-2" d="M723.41,163H726l3.6,7.65,1.23,2.9h.06c-.1-1.39-.33-3.11-.33-4.63V163h2.31v13.61h-2.54l-3.6-7.65-1.24-2.9h-.05c.1,1.45.32,3.09.32,4.6v5.95h-2.3Z" transform="translate(-133.76 -39.44)"/><path class="cls-2" d="M735.84,171.45V163h2.44v8.6c0,2.2.9,3.16,2.35,3.16s2.4-1,2.4-3.16V163h2.33v8.42c0,3.71-1.74,5.44-4.73,5.44S735.84,175.16,735.84,171.45Z" transform="translate(-133.76 -39.44)"/><path class="cls-2" d="M749.35,163h2.4v11.58h6.39v2h-8.79Z" transform="translate(-133.76 -39.44)"/><path class="cls-2" d="M761.84,163h2.4v11.58h6.39v2h-8.79Z" transform="translate(-133.76 -39.44)"/><rect class="cls-3" x="268.05" y="114.5" width="34.18" height="32.96"/><path class="cls-2" d="M378.64,175.34l.91-1.17a5.61,5.61,0,0,0,4,1.63c1.89,0,3.3-1,3.3-2.52s-1.39-2.76-5-2.76v-1.37c3.28,0,4.54-1.13,4.54-2.59s-1.15-2.17-2.82-2.17a5.26,5.26,0,0,0-3.41,1.39l-1-1.13a6.71,6.71,0,0,1,4.43-1.74c2.61,0,4.59,1.28,4.59,3.52,0,1.68-1.24,2.74-3,3.3v.09c1.85.39,3.44,1.61,3.44,3.52,0,2.46-2.26,4-5,4A6.81,6.81,0,0,1,378.64,175.34Z" transform="translate(-133.76 -39.44)"/><line class="cls-1" x1="284.88" y1="131.85" x2="344.76" y2="131.85"/><path class="cls-2" d="M484.56,171.29A30.31,30.31,0,0,0,476,176l1.72-4.75L476,166.53A30.1,30.1,0,0,0,484.56,171.29Z" transform="translate(-133.76 -39.44)"/><line class="cls-1" x1="439.88" y1="131.85" x2="499.76" y2="131.85"/><path class="cls-2" d="M639.56,171.29A30.31,30.31,0,0,0,631,176l1.72-4.75L631,166.53A30.1,30.1,0,0,0,639.56,171.29Z" transform="translate(-133.76 -39.44)"/><rect class="cls-1" x="368.76" y="152.5" width="88.47" height="32.96"/><line class="cls-1" x1="424.86" y1="152.5" x2="424.86" y2="185.46"/><path class="cls-2" d="M525.51,213.54h4V203.37H526.4v-1.18a9.79,9.79,0,0,0,3.56-1h1.35v12.37h3.61V215h-9.41Z" transform="translate(-133.76 -39.44)"/><rect class="cls-1" x="521.41" y="152.5" width="128.36" height="32.96"/><line class="cls-1" x1="577.51" y1="152.5" x2="577.51" y2="185.46"/><path class="cls-2" d="M685.54,202.74h-8v-1.57h10v1.11c-3.67,4.19-4.56,7.32-4.78,12.76h-1.89A18.53,18.53,0,0,1,685.54,202.74Z" transform="translate(-133.76 -39.44)"/><path class="cls-2" d="M723.41,201H726l3.6,7.65,1.23,2.9h.06c-.1-1.39-.33-3.11-.33-4.63V201h2.31v13.61h-2.54l-3.6-7.65-1.24-2.9h-.05c.1,1.45.32,3.09.32,4.6v5.95h-2.3Z" transform="translate(-133.76 -39.44)"/><path class="cls-2" d="M735.84,209.45V201h2.44v8.6c0,2.2.9,3.16,2.35,3.16s2.4-1,2.4-3.16V201h2.33v8.42c0,3.71-1.74,5.44-4.73,5.44S735.84,213.16,735.84,209.45Z" transform="translate(-133.76 -39.44)"/><path class="cls-2" d="M749.35,201h2.4v11.58h6.39v2h-8.79Z" transform="translate(-133.76 -39.44)"/><path class="cls-2" d="M761.84,201h2.4v11.58h6.39v2h-8.79Z" transform="translate(-133.76 -39.44)"/><rect class="cls-3" x="268.05" y="152.5" width="34.18" height="32.96"/><path class="cls-2" d="M385.4,205.5c0-.76.06-1.7.11-2.46h-.11c-.46.67-1,1.35-1.41,2l-3.74,4.7h9v1.45h-11V210l6.91-8.85h1.93V215H385.4Z" transform="translate(-133.76 -39.44)"/><line class="cls-1" x1="284.88" y1="169.85" x2="344.76" y2="169.85"/><path class="cls-2" d="M484.56,209.29A30.31,30.31,0,0,0,476,214l1.72-4.75L476,204.53A30.1,30.1,0,0,0,484.56,209.29Z" transform="translate(-133.76 -39.44)"/><line class="cls-1" x1="439.88" y1="169.85" x2="499.76" y2="169.85"/><path class="cls-2" d="M639.56,209.29A30.31,30.31,0,0,0,631,214l1.72-4.75L631,204.53A30.1,30.1,0,0,0,639.56,209.29Z" transform="translate(-133.76 -39.44)"/><rect class="cls-1" x="368.76" y="190.5" width="88.47" height="32.96"/><line class="cls-1" x1="424.86" y1="190.5" x2="424.86" y2="223.46"/><path class="cls-2" d="M525,252c4.69-4.15,7.26-6.58,7.26-8.89,0-1.58-1-2.69-3-2.69a4.78,4.78,0,0,0-3.33,1.65l-1-1a6.18,6.18,0,0,1,4.58-2.11c2.79,0,4.52,1.63,4.52,4.09s-2.6,5.19-6.36,8.6c.87-.06,1.76-.11,2.58-.11h4.54V253H525Z" transform="translate(-133.76 -39.44)"/><rect class="cls-1" x="521.41" y="190.5" width="128.36" height="32.96"/><line class="cls-1" x1="577.51" y1="190.5" x2="577.51" y2="223.46"/><path class="cls-2" d="M685.54,240.74h-8v-1.57h10v1.11c-3.67,4.19-4.56,7.32-4.78,12.76h-1.89A18.53,18.53,0,0,1,685.54,240.74Z" transform="translate(-133.76 -39.44)"/><path class="cls-2" d="M723.41,239H726l3.6,7.65,1.23,2.9h.06c-.1-1.39-.33-3.11-.33-4.63V239h2.31v13.61h-2.54l-3.6-7.65-1.24-2.9h-.05c.1,1.45.32,3.09.32,4.6v5.95h-2.3Z" transform="translate(-133.76 -39.44)"/><path class="cls-2" d="M735.84,247.45V239h2.44v8.6c0,2.2.9,3.16,2.35,3.16s2.4-1,2.4-3.16V239h2.33v8.42c0,3.71-1.74,5.44-4.73,5.44S735.84,251.16,735.84,247.45Z" transform="translate(-133.76 -39.44)"/><path class="cls-2" d="M749.35,239h2.4v11.58h6.39v2h-8.79Z" transform="translate(-133.76 -39.44)"/><path class="cls-2" d="M761.84,239h2.4v11.58h6.39v2h-8.79Z" transform="translate(-133.76 -39.44)"/><rect class="cls-3" x="268.05" y="190.5" width="34.18" height="32.96"/><path class="cls-2" d="M378.62,251.41l.89-1.2a5.49,5.49,0,0,0,3.91,1.59,3.22,3.22,0,0,0,3.5-3.15c0-1.92-1.35-3-3.39-3a5.22,5.22,0,0,0-2.83.82l-.95-.61.45-6.67h7.85v1.57h-6.26l-.37,4.08a5.93,5.93,0,0,1,2.57-.56c2.65,0,4.75,1.34,4.75,4.34s-2.47,4.7-5.12,4.7A7,7,0,0,1,378.62,251.41Z" transform="translate(-133.76 -39.44)"/><line class="cls-1" x1="284.88" y1="207.85" x2="344.76" y2="207.85"/><path class="cls-2" d="M484.56,247.29A30.31,30.31,0,0,0,476,252l1.72-4.75L476,242.53A30.1,30.1,0,0,0,484.56,247.29Z" transform="translate(-133.76 -39.44)"/><line class="cls-1" x1="439.88" y1="207.85" x2="499.76" y2="207.85"/><path class="cls-2" d="M639.56,247.29A30.31,30.31,0,0,0,631,252l1.72-4.75L631,242.53A30.1,30.1,0,0,0,639.56,247.29Z" transform="translate(-133.76 -39.44)"/><rect class="cls-1" x="368.76" y="228.5" width="88.47" height="32.96"/><line class="cls-1" x1="424.86" y1="228.5" x2="424.86" y2="261.46"/><path class="cls-2" d="M525,290c4.69-4.15,7.26-6.58,7.26-8.89,0-1.58-1-2.69-3-2.69a4.78,4.78,0,0,0-3.33,1.65l-1-1a6.18,6.18,0,0,1,4.58-2.11c2.79,0,4.52,1.63,4.52,4.09s-2.6,5.19-6.36,8.6c.87-.06,1.76-.11,2.58-.11h4.54V291H525Z" transform="translate(-133.76 -39.44)"/><rect class="cls-1" x="521.41" y="228.5" width="128.36" height="32.96"/><line class="cls-1" x1="577.51" y1="228.5" x2="577.51" y2="261.46"/><path class="cls-2" d="M685.54,278.74h-8v-1.57h10v1.11c-3.67,4.19-4.56,7.32-4.78,12.76h-1.89A18.53,18.53,0,0,1,685.54,278.74Z" transform="translate(-133.76 -39.44)"/><path class="cls-2" d="M723.41,277H726l3.6,7.65,1.23,2.9h.06c-.1-1.39-.33-3.11-.33-4.63V277h2.31v13.61h-2.54l-3.6-7.65-1.24-2.9h-.05c.1,1.45.32,3.09.32,4.6v5.95h-2.3Z" transform="translate(-133.76 -39.44)"/><path class="cls-2" d="M735.84,285.45V277h2.44v8.6c0,2.2.9,3.16,2.35,3.16s2.4-1,2.4-3.16V277h2.33v8.42c0,3.71-1.74,5.44-4.73,5.44S735.84,289.16,735.84,285.45Z" transform="translate(-133.76 -39.44)"/><path class="cls-2" d="M749.35,277h2.4v11.58h6.39v2h-8.79Z" transform="translate(-133.76 -39.44)"/><path class="cls-2" d="M761.84,277h2.4v11.58h6.39v2h-8.79Z" transform="translate(-133.76 -39.44)"/><rect class="cls-3" x="268.05" y="228.5" width="34.18" height="32.96"/><path class="cls-2" d="M379.07,284.63c0-5.57,2.79-7.72,5.81-7.72a5.48,5.48,0,0,1,3.86,1.48l-1,1.13a4.08,4.08,0,0,0-2.76-1.11c-2.26,0-4.21,1.59-4.21,6.22,0,3.41,1.3,5.25,3.61,5.25a2.87,2.87,0,0,0,2.91-3,2.64,2.64,0,0,0-2.94-2.93,4.85,4.85,0,0,0-3.62,1.95l-.07-1.41a5.88,5.88,0,0,1,4-1.89c2.56,0,4.32,1.44,4.32,4.28a4.47,4.47,0,0,1-4.62,4.46C381.36,291.3,379.07,289.08,379.07,284.63Z" transform="translate(-133.76 -39.44)"/><line class="cls-1" x1="284.88" y1="245.85" x2="344.76" y2="245.85"/><path class="cls-2" d="M484.56,285.29A30.31,30.31,0,0,0,476,290l1.72-4.75L476,280.53A30.1,30.1,0,0,0,484.56,285.29Z" transform="translate(-133.76 -39.44)"/><line class="cls-1" x1="439.88" y1="245.85" x2="499.76" y2="245.85"/><path class="cls-2" d="M639.56,285.29A30.31,30.31,0,0,0,631,290l1.72-4.75L631,280.53A30.1,30.1,0,0,0,639.56,285.29Z" transform="translate(-133.76 -39.44)"/></svg>