<svg id="图层_1" data-name="图层 1" xmlns="http://www.w3.org/2000/svg" viewBox="0 0 643.41 186.57"><defs><style>.cls-1{fill:none;stroke:#3ea69f;stroke-miterlimit:10;}.cls-2{fill:#3ea69f;}</style></defs><circle class="cls-1" cx="18.5" cy="94.04" r="18"/><path class="cls-2" d="M245.41,238.27c0-5.38,2.68-7.46,5.6-7.46a5.32,5.32,0,0,1,3.74,1.43l-1,1.09a3.93,3.93,0,0,0-2.66-1.07c-2.19,0-4.08,1.54-4.08,6,0,3.29,1.26,5.08,3.49,5.08a2.78,2.78,0,0,0,2.81-2.94,2.54,2.54,0,0,0-2.83-2.83,4.71,4.71,0,0,0-3.51,1.88l-.06-1.36a5.68,5.68,0,0,1,3.88-1.83,3.81,3.81,0,0,1,4.18,4.14,4.32,4.32,0,0,1-4.47,4.3C247.61,244.71,245.41,242.57,245.41,238.27Z" transform="translate(-231.59 -144.43)"/><circle class="cls-1" cx="95.18" cy="20.5" r="18"/><path class="cls-2" d="M322,164.19c0-4.5,1.83-6.91,4.81-6.91s4.81,2.41,4.81,6.91-1.83,7-4.81,7S322,168.64,322,164.19Zm8,0c0-3.85-1.32-5.51-3.19-5.51s-3.19,1.66-3.19,5.51,1.32,5.58,3.19,5.58S330,168,330,164.19Zm-4.49-.15a1.3,1.3,0,1,1,1.3,1.41A1.31,1.31,0,0,1,325.47,164Z" transform="translate(-231.59 -144.43)"/><circle class="cls-1" cx="169.5" cy="93.04" r="18"/><path class="cls-2" d="M396.22,240c0-1.85,1.43-2.9,2.87-3.57v-.08a3.78,3.78,0,0,1-2-3.13c0-2.06,1.74-3.45,4.13-3.45,2.63,0,4.16,1.49,4.16,3.57a4.21,4.21,0,0,1-2,3.2v.08c1.47.73,2.63,1.57,2.63,3.48s-1.74,3.57-4.81,3.57S396.22,242.16,396.22,240Zm8.06,0c0-1.85-1.87-2.33-4.2-3.11-1.3.7-2.29,1.56-2.29,2.9s1.33,2.54,3.38,2.54S404.28,241.47,404.28,240.08Zm-.44-6.61a2.38,2.38,0,0,0-2.69-2.35,2.22,2.22,0,0,0-2.5,2.14c0,1.59,1.54,2.27,3.53,2.9A3.42,3.42,0,0,0,403.84,233.47Z" transform="translate(-231.59 -144.43)"/><line class="cls-1" x1="70.67" y1="42.31" x2="26" y2="77.54"/><path class="cls-2" d="M307,183a30.32,30.32,0,0,1-9.66,1.56l4.3,2.67,1.59,4.8A30.31,30.31,0,0,1,307,183Z" transform="translate(-231.59 -144.43)"/><line class="cls-1" x1="121.91" y1="42.6" x2="161" y2="77.54"/><path class="cls-2" d="M349,183a30.16,30.16,0,0,1,3.2,9.24l1.89-4.69,4.45-2.4A30,30,0,0,1,349,183Z" transform="translate(-231.59 -144.43)"/><circle class="cls-1" cx="93.91" cy="93.07" r="18"/><path class="cls-2" d="M328.38,231.62h-7.71V230.1h9.7v1.08c-3.55,4-4.41,7.07-4.62,12.32h-1.83A17.9,17.9,0,0,1,328.38,231.62Z" transform="translate(-231.59 -144.43)"/><line class="cls-1" x1="93.91" y1="75.07" x2="93.91" y2="49.11"/><path class="cls-2" d="M325.5,187.5a30.1,30.1,0,0,0,4.76,8.55l-4.76-1.72-4.75,1.72A30.31,30.31,0,0,0,325.5,187.5Z" transform="translate(-231.59 -144.43)"/><circle class="cls-1" cx="202.91" cy="168.07" r="18"/><path class="cls-2" d="M430.24,317.05h3.86v-9.83h-3v-1.13a9.5,9.5,0,0,0,3.44-1h1.3v11.95h3.49v1.45h-9.09Z" transform="translate(-231.59 -144.43)"/><circle class="cls-1" cx="247.18" cy="93.5" r="18"/><path class="cls-2" d="M480.2,234.71c0-.74.06-1.64.1-2.37h-.1c-.44.65-.93,1.3-1.37,1.95l-3.61,4.53h8.69v1.41H473.29v-1.15l6.68-8.55h1.87v13.4H480.2Z" transform="translate(-231.59 -144.43)"/><circle class="cls-1" cx="291.91" cy="168.07" r="18"/><path class="cls-2" d="M518.86,317.34l1-1.09a4,4,0,0,0,2.67,1.05c2.16,0,4.07-1.53,4.07-6,0-3.3-1.28-5.06-3.48-5.06a2.77,2.77,0,0,0-2.84,2.92A2.57,2.57,0,0,0,523.1,312a4.69,4.69,0,0,0,3.49-1.89l.06,1.37a5.55,5.55,0,0,1-3.89,1.82,3.79,3.79,0,0,1-4.15-4.13,4.32,4.32,0,0,1,4.45-4.31c2.92,0,5.14,2.14,5.14,6.45,0,5.37-2.71,7.45-5.6,7.45A5.4,5.4,0,0,1,518.86,317.34Z" transform="translate(-231.59 -144.43)"/><line class="cls-1" x1="228.6" y1="116.92" x2="210.41" y2="151.57"/><path class="cls-2" d="M463,256a30.33,30.33,0,0,1-8.18,5.36l5,.68,3.41,3.74A30.18,30.18,0,0,1,463,256Z" transform="translate(-231.59 -144.43)"/><line class="cls-1" x1="264.73" y1="117.62" x2="286.41" y2="150.57"/><path class="cls-2" d="M493,257a29.94,29.94,0,0,1,.72,9.75l3-4.05,4.92-1.17A30.36,30.36,0,0,1,493,257Z" transform="translate(-231.59 -144.43)"/><line class="cls-1" x1="238.87" y1="77.54" x2="129.92" y2="29.03"/><path class="cls-2" d="M356,171a30.32,30.32,0,0,0,9.74-.87l-3.5,3.65-.37,5A30.09,30.09,0,0,0,356,171Z" transform="translate(-231.59 -144.43)"/><circle class="cls-1" cx="374.5" cy="167.04" r="18"/><path class="cls-2" d="M601.41,311.27c0-5.38,2.68-7.46,5.6-7.46a5.32,5.32,0,0,1,3.74,1.43l-1,1.09a4,4,0,0,0-2.67-1.07c-2.19,0-4.08,1.54-4.08,6,0,3.29,1.26,5.08,3.49,5.08a2.78,2.78,0,0,0,2.81-2.94,2.54,2.54,0,0,0-2.83-2.83,4.71,4.71,0,0,0-3.51,1.88l-.06-1.36a5.68,5.68,0,0,1,3.88-1.83,3.81,3.81,0,0,1,4.18,4.14,4.32,4.32,0,0,1-4.47,4.3C603.61,317.71,601.41,315.57,601.41,311.27Z" transform="translate(-231.59 -144.43)"/><circle class="cls-1" cx="451.18" cy="93.5" r="18"/><path class="cls-2" d="M678,237.19c0-4.5,1.83-6.91,4.81-6.91s4.81,2.41,4.81,6.91-1.83,7-4.81,7S678,241.64,678,237.19Zm8,0c0-3.85-1.32-5.51-3.19-5.51s-3.19,1.66-3.19,5.51,1.32,5.58,3.19,5.58S686,241,686,237.19Zm-4.49-.15a1.3,1.3,0,1,1,1.3,1.41A1.31,1.31,0,0,1,681.47,237Z" transform="translate(-231.59 -144.43)"/><circle class="cls-1" cx="525.5" cy="166.04" r="18"/><path class="cls-2" d="M752.22,313c0-1.85,1.43-2.9,2.87-3.57v-.08a3.78,3.78,0,0,1-2-3.13c0-2.06,1.74-3.45,4.13-3.45,2.63,0,4.16,1.49,4.16,3.57a4.23,4.23,0,0,1-2,3.2v.08c1.47.73,2.62,1.57,2.62,3.48s-1.74,3.57-4.81,3.57S752.22,315.16,752.22,313Zm8.06,0c0-1.85-1.87-2.33-4.2-3.11-1.3.7-2.29,1.56-2.29,2.9s1.33,2.54,3.38,2.54S760.28,314.47,760.28,313.08Zm-.44-6.61a2.38,2.38,0,0,0-2.69-2.35,2.22,2.22,0,0,0-2.5,2.14c0,1.59,1.54,2.27,3.53,2.9A3.42,3.42,0,0,0,759.84,306.47Z" transform="translate(-231.59 -144.43)"/><line class="cls-1" x1="426.67" y1="115.31" x2="382" y2="150.54"/><path class="cls-2" d="M663,256a30.32,30.32,0,0,1-9.66,1.56l4.3,2.67,1.59,4.8A30.31,30.31,0,0,1,663,256Z" transform="translate(-231.59 -144.43)"/><line class="cls-1" x1="477.91" y1="115.6" x2="517" y2="150.54"/><path class="cls-2" d="M705,256a30.16,30.16,0,0,1,3.2,9.24l1.89-4.69,4.45-2.4A30,30,0,0,1,705,256Z" transform="translate(-231.59 -144.43)"/><circle class="cls-1" cx="449.91" cy="166.07" r="18"/><path class="cls-2" d="M684.38,304.62h-7.71V303.1h9.7v1.08c-3.55,4.05-4.41,7.07-4.62,12.32h-1.83A17.9,17.9,0,0,1,684.38,304.62Z" transform="translate(-231.59 -144.43)"/><line class="cls-1" x1="449.91" y1="148.07" x2="449.91" y2="122.11"/><path class="cls-2" d="M681.5,260.5a30.1,30.1,0,0,0,4.76,8.55l-4.76-1.72-4.75,1.72A30.31,30.31,0,0,0,681.5,260.5Z" transform="translate(-231.59 -144.43)"/><circle class="cls-1" cx="535.91" cy="93.07" r="18"/><path class="cls-2" d="M763.24,242.05h3.86v-9.83h-3v-1.13a9.5,9.5,0,0,0,3.44-1h1.3v12h3.49v1.45h-9.09Z" transform="translate(-231.59 -144.43)"/><circle class="cls-1" cx="580.18" cy="18.5" r="18"/><path class="cls-2" d="M813.2,159.71c0-.74.06-1.64.1-2.37h-.1c-.44.65-.93,1.3-1.37,1.95l-3.61,4.53h8.69v1.41H806.29v-1.15l6.68-8.55h1.86v13.4H813.2Z" transform="translate(-231.59 -144.43)"/><circle class="cls-1" cx="624.91" cy="93.07" r="18"/><path class="cls-2" d="M851.86,242.34l1-1.09a4,4,0,0,0,2.67,1.05c2.16,0,4.07-1.53,4.07-6,0-3.3-1.28-5.06-3.48-5.06a2.77,2.77,0,0,0-2.84,2.92A2.57,2.57,0,0,0,856.1,237a4.69,4.69,0,0,0,3.49-1.89l.06,1.37a5.55,5.55,0,0,1-3.89,1.82,3.79,3.79,0,0,1-4.15-4.13,4.32,4.32,0,0,1,4.45-4.31c2.92,0,5.14,2.14,5.14,6.45,0,5.37-2.71,7.45-5.6,7.45A5.4,5.4,0,0,1,851.86,242.34Z" transform="translate(-231.59 -144.43)"/><line class="cls-1" x1="561.6" y1="41.92" x2="543.41" y2="76.57"/><path class="cls-2" d="M796,181a30.33,30.33,0,0,1-8.18,5.36l5,.68,3.41,3.74A30.18,30.18,0,0,1,796,181Z" transform="translate(-231.59 -144.43)"/><line class="cls-1" x1="597.73" y1="42.62" x2="619.41" y2="75.57"/><path class="cls-2" d="M826,182a29.94,29.94,0,0,1,.72,9.75l3-4.05,4.92-1.17A30.36,30.36,0,0,1,826,182Z" transform="translate(-231.59 -144.43)"/><line class="cls-1" x1="462.93" y1="79.87" x2="544.83" y2="27.33"/><path class="cls-2" d="M781.5,168.5a30.3,30.3,0,0,0-4.63,8.62l-1.12-4.93-4-3.08A29.94,29.94,0,0,0,781.5,168.5Z" transform="translate(-231.59 -144.43)"/></svg>