<svg xmlns="http://www.w3.org/2000/svg" viewBox="0 0 1000.18 617.95"><defs><style>.a{fill:#3ea69f;}.b,.c{fill:#fff;}.c{fill-rule:evenodd;}</style></defs><path class="a" d="M958.43,41.86C924.56,8.26,879.13.05,813.7.05H185.35C120.94.05,75,8.52,41.39,42.12,8,75.72-.18,120.61-.18,185.51v246c0,65.93,8,111.07,41.57,144.42C75.26,609.53,120.68,618,186.12,618H813.7c65.43,0,111.12-8.47,144.73-42.07S1000,497.44,1000,431.51V186.28C1000,120.61,992.05,75.21,958.43,41.86Z" transform="translate(0.18 -0.05)"/><path class="b" d="M433.38,414.52q6.09,2.1,6.09,20.27,0,3.75,2,22.27-.93,14.18-.93,27.3v17.23q0,5.27-3,6.09h-2q-8.44,0-41.6-51.68c-2-3.12-3.05-5.16-3.05-6.09h-2v8.2a7.58,7.58,0,0,0,1,4,.93.93,0,0,1-1,1.06,115.73,115.73,0,0,1,2,20.27l-.94,2a7.87,7.87,0,0,1,.94,3q0,23.21-8.09,23.21c-2.65-3.36-4-5.36-4-6q0-6,.94-21.33-.94-27.18-.94-32.34.93-12.19.94-18.28a56.87,56.87,0,0,0-5-15.12l4.1-3.05h2q10.08,0,10.08,14.18,19.68,37.5,36.45,58.71v.94h2.1l.94-14.18q0-30.71-2-58.71Q431.63,414.52,433.38,414.52Z" transform="translate(0.18 -0.05)"/><path class="b" d="M464.32,438.31q38.9,0,38.9,15.82v7.26Q499,482.72,472.87,511.2a24.06,24.06,0,0,1-12.19,3.63h-1.17q-13.35-9.14-13.36-18.28Q454,438.31,464.32,438.31Zm2.46,10.89a138.43,138.43,0,0,0-10.9,34h-1.29q1.76,21.92,7.38,21.91h2.35q17.34-7.5,30.35-40.08V452.84q-9.26-3.63-13.36-3.64Z" transform="translate(0.18 -0.05)"/><path class="b" d="M538.61,388q6.1,1.53,6.1,3.64a1,1,0,0,1-1.17,1.17l1.17,2.46q-.94,15.81-2.46,15.82,0,1.17,1.29,1.17-2.47,17.7-2.47,24.38c.79,0,1.18-.43,1.18-1.29l6.09,1.29h9.73q2.46.34,2.46,2.34,0,5.39-19.46,9.73-2.93,38-6.09,48.63h2.46q3.4,0,19.45-19.45.71,0,7.27-7.27a1,1,0,0,0,1.17,1.17q-19.92,40.08-35.15,40.08l-4.93-4.81v-3.63q3.64-17.46,4.93-52.26l-8.56,1.17h-8.55q-1.65,0-4.81-6,0-2.46,21.92-7.38l3.63-13.36q0-1.17-1.29-1.17Q534.64,388,538.61,388Z" transform="translate(0.18 -0.05)"/><path class="b" d="M589.82,432.45q13.48,0,19.46,14.53v4.92q0,15.35-30.35,32.81,0,15.71,8.43,15.71,20.16-8.44,28-26.72c-.86,0-1.29-.39-1.29-1.18q.7,0,6.1-4.8h1.28q6,3.16,6,4.8v6.1L616.54,492q-16.63,20.63-29.18,20.62-10.08,0-17-9.72H569.2v-2.46q0-4.34-6.09-21.8l2.46-12.19q0-1.17-1.29-1.17Q564.28,432.44,589.82,432.45ZM576.46,464l1.18,2.46a9.9,9.9,0,0,0-1.18,4.92h3.64q7.6-3.17,18.28-17.11,0-10.89-8.56-10.9h-3.63Q581.62,443.34,576.46,464Z" transform="translate(0.18 -0.05)"/><path class="c" d="M399.28,176.91c2.39-1.87,6.78.5,10.55-1.52s7.54-2.52,9.05-1.25,3.51,3,10,2.77,11.8,2.26,14.56,1.51,2.77-2,7.79-1,15.08,4.28,16.59,5.29,6.27,3.78,3.26,7.56-4.53,5.28-5,9.32.76,9.06-.75,8.06-7.79-8.06-6.78-6-.51,7.55,5,9.83,7,4.78,13.07,5.28,13.73,5.55,23.06,3.53,24.91-10.08,36.46-9.58,15.32,4.54,21.35-.75,18.84-21.66,18.84-28.21-3.77-14.36-7-16.63S553.75,151.47,556,148.69s8.79-1.76,15.57,1.51,26.87,11.09,20.85,30-19.35,33-18.09,38.3,9,14.6,9.8,19.38,1.76,20.41,3.51,27.71,0,13.35,4,18.64,6.78,12.85,6.78,15.61,4.28,12.85,4.78,16.63a21.81,21.81,0,0,1-2,11.59c-1.51,2.76-7.79,3.27-10.56,3.53s-6.27-3.53-4.26-5,3-2.28,3.27-4.78-.51-7.81-2.27-12.35-2-9.76-7.78-13.83-8.29-9.6-9-7.08-.5,6.8-1,10.59,1,7.3,1,10.57-.5,7.3-3.52,7.56-10.8,2.26-12.55-.26-3-3.53-.51-5.53,5-5.54,4-9.82-1-8.82-5-12.1a104.92,104.92,0,0,1-11.81-11.58c-1.25-1.77-2-1-6.53.5s-17.83,4-24.36,6-13.32,5-16.08,5-3.26.5-3.26,2.26-2,22.43-2.51,24.95,0,12.11.75,14.87,2.76,9.55,2,12.84-7.79,5-11,5.28-9.29,1.52-9.8-2.52-.25-5.28,1.26-7.3,1.51-8.07,1.25-14.86.51-11.6-.5-17.39,1.26-11.76-3.52-12.06-11.55,1.05-14.31,0-5,3.25-5.28,7.78.25,16.63.25,20.9-.75,11.6-1,14.12-3.52,6.8-6.53,7-12.81.51-13.06-1.5-3.52-5-1.51-7,4-1.52,4.27-5.29,0-15.63,0-20.91-1-18.14-1.26-21.67-4.26-11.57-4.26-20.64a152.46,152.46,0,0,0-1.77-20.9c-.5-4,.51-10.59-2-11.34s-8.54-1-11.56-3.28a12.08,12.08,0,0,1-5-10.57c.26-4.78,3.27-8.82,3.52-10.83s-1.26-6.8-1.76-8.57,1.76-9.83.25-10.83-4,.5-4.77,2.52-4.27,8.06-4.78,6.55,1.51-2.77,1.26-5.29S398,192,397,188.24,397,178.66,399.28,176.91Z" transform="translate(0.18 -0.05)"/></svg>