<svg id="图层_1" data-name="图层 1" xmlns="http://www.w3.org/2000/svg" viewBox="0 0 721 440.3"><defs><style>.cls-1{fill:none;stroke:#3ea69f;stroke-miterlimit:10;}.cls-2{fill:#3ea69f;}</style></defs><circle class="cls-1" cx="68.5" cy="18.5" r="18"/><path class="cls-2" d="M278.78,264.06c0-4.49,1.83-6.9,4.81-6.9s4.81,2.41,4.81,6.9-1.83,7-4.81,7S278.78,268.51,278.78,264.06Zm8,0c0-3.84-1.32-5.5-3.19-5.5s-3.19,1.66-3.19,5.5,1.32,5.59,3.19,5.59S286.78,267.91,286.78,264.06Zm-4.49-.14a1.3,1.3,0,1,1,1.3,1.4A1.31,1.31,0,0,1,282.29,263.92Z" transform="translate(-215.09 -246.3)"/><circle class="cls-1" cx="204.41" cy="68.2" r="18"/><path class="cls-2" d="M414.69,313.76c0-4.49,1.83-6.91,4.81-6.91s4.81,2.42,4.81,6.91-1.83,7-4.81,7S414.69,318.21,414.69,313.76Zm8,0c0-3.84-1.32-5.5-3.19-5.5s-3.19,1.66-3.19,5.5,1.32,5.59,3.19,5.59S422.69,317.6,422.69,313.76Zm-4.49-.15a1.3,1.3,0,1,1,1.3,1.41A1.3,1.3,0,0,1,418.2,313.61Z" transform="translate(-215.09 -246.3)"/><circle class="cls-1" cx="68.5" cy="118.5" r="18"/><path class="cls-2" d="M278.49,369.17l.88-1.14a5.41,5.41,0,0,0,3.84,1.58c1.83,0,3.19-.95,3.19-2.44s-1.34-2.67-4.85-2.67v-1.32c3.17,0,4.39-1.09,4.39-2.5s-1.11-2.1-2.73-2.1a5,5,0,0,0-3.29,1.35l-.93-1.09a6.46,6.46,0,0,1,4.28-1.68c2.52,0,4.43,1.23,4.43,3.4,0,1.61-1.19,2.64-2.85,3.19v.08c1.78.38,3.32,1.56,3.32,3.4,0,2.38-2.19,3.83-4.85,3.83A6.58,6.58,0,0,1,278.49,369.17Z" transform="translate(-215.09 -246.3)"/><circle class="cls-1" cx="118.5" cy="68.5" r="18"/><path class="cls-2" d="M328.82,319.77c4.54-4,7-6.36,7-8.58,0-1.54-.93-2.61-2.9-2.61a4.62,4.62,0,0,0-3.21,1.6l-1-1a6,6,0,0,1,4.43-2c2.69,0,4.37,1.57,4.37,3.94s-2.52,5-6.16,8.32c.84-.07,1.7-.11,2.5-.11h4.39v1.49h-9.43Z" transform="translate(-215.09 -246.3)"/><circle class="cls-1" cx="18.5" cy="68.5" r="18"/><path class="cls-2" d="M229.33,319.35h3.86v-9.82h-3v-1.14a9.73,9.73,0,0,0,3.44-1h1.3v11.94h3.49v1.45h-9.09Z" transform="translate(-215.09 -246.3)"/><line class="cls-1" x1="36" y1="69" x2="100" y2="69"/><line class="cls-1" x1="68.5" y1="36.5" x2="68.5" y2="100.5"/><line class="cls-1" x1="55.16" y1="30.58" x2="30.58" y2="55.16"/><line class="cls-1" x1="30.58" y1="81.84" x2="55.16" y2="106.42"/><line class="cls-1" x1="81.84" y1="106.42" x2="106.42" y2="81.84"/><circle class="cls-1" cx="652.5" cy="18.5" r="18"/><path class="cls-2" d="M862.78,264.06c0-4.49,1.83-6.9,4.81-6.9s4.81,2.41,4.81,6.9-1.83,7-4.81,7S862.78,268.51,862.78,264.06Zm8,0c0-3.84-1.32-5.5-3.19-5.5s-3.19,1.66-3.19,5.5,1.32,5.59,3.19,5.59S870.78,267.91,870.78,264.06Zm-4.49-.14a1.3,1.3,0,1,1,1.3,1.4A1.31,1.31,0,0,1,866.29,263.92Z" transform="translate(-215.09 -246.3)"/><circle class="cls-1" cx="652.5" cy="118.5" r="18"/><path class="cls-2" d="M862.49,369.17l.88-1.14a5.41,5.41,0,0,0,3.84,1.58c1.83,0,3.19-.95,3.19-2.44s-1.34-2.67-4.85-2.67v-1.32c3.17,0,4.39-1.09,4.39-2.5s-1.11-2.1-2.73-2.1a5,5,0,0,0-3.29,1.35l-.93-1.09a6.46,6.46,0,0,1,4.28-1.68c2.52,0,4.44,1.23,4.44,3.4,0,1.61-1.2,2.64-2.86,3.19v.08c1.78.38,3.32,1.56,3.32,3.4,0,2.38-2.19,3.83-4.85,3.83A6.58,6.58,0,0,1,862.49,369.17Z" transform="translate(-215.09 -246.3)"/><circle class="cls-1" cx="702.5" cy="68.5" r="18"/><path class="cls-2" d="M912.82,319.77c4.54-4,7-6.36,7-8.58,0-1.54-.93-2.61-2.9-2.61a4.62,4.62,0,0,0-3.21,1.6l-1-1a6,6,0,0,1,4.43-2c2.69,0,4.37,1.57,4.37,3.94s-2.52,5-6.16,8.32c.84-.07,1.7-.11,2.5-.11h4.39v1.49h-9.43Z" transform="translate(-215.09 -246.3)"/><circle class="cls-1" cx="602.5" cy="68.5" r="18"/><path class="cls-2" d="M813.33,319.35h3.86v-9.82h-3v-1.14a9.73,9.73,0,0,0,3.44-1h1.3v11.94h3.49v1.45h-9.09Z" transform="translate(-215.09 -246.3)"/><line class="cls-1" x1="620" y1="69" x2="684" y2="69"/><line class="cls-1" x1="652.5" y1="36.5" x2="652.5" y2="100.5"/><line class="cls-1" x1="665.84" y1="106.42" x2="690.42" y2="81.84"/><circle class="cls-1" cx="488.5" cy="93.5" r="18"/><path class="cls-2" d="M698.49,344.17l.88-1.14a5.41,5.41,0,0,0,3.84,1.58c1.83,0,3.19-.95,3.19-2.44s-1.34-2.67-4.85-2.67v-1.32c3.17,0,4.39-1.09,4.39-2.5s-1.11-2.1-2.73-2.1a5,5,0,0,0-3.29,1.35l-.93-1.09a6.46,6.46,0,0,1,4.28-1.68c2.52,0,4.44,1.23,4.44,3.4,0,1.61-1.2,2.64-2.86,3.19v.08c1.78.38,3.32,1.56,3.32,3.4,0,2.38-2.19,3.83-4.85,3.83A6.58,6.58,0,0,1,698.49,344.17Z" transform="translate(-215.09 -246.3)"/><circle class="cls-1" cx="538.5" cy="43.5" r="18"/><path class="cls-2" d="M748.82,294.77c4.54-4,7-6.36,7-8.58,0-1.54-.93-2.61-2.9-2.61a4.62,4.62,0,0,0-3.21,1.6l-1-1a6,6,0,0,1,4.43-2c2.69,0,4.37,1.57,4.37,3.94s-2.52,5-6.16,8.32c.84-.07,1.7-.11,2.5-.11h4.39v1.49h-9.43Z" transform="translate(-215.09 -246.3)"/><circle class="cls-1" cx="438.5" cy="43.5" r="18"/><path class="cls-2" d="M649.33,294.35h3.86v-9.82h-3v-1.14a9.73,9.73,0,0,0,3.44-1h1.3v11.94h3.49v1.45h-9.09Z" transform="translate(-215.09 -246.3)"/><line class="cls-1" x1="456" y1="44" x2="520" y2="44"/><line class="cls-1" x1="450.58" y1="56.84" x2="475.16" y2="81.42"/><line class="cls-1" x1="501.84" y1="81.42" x2="526.42" y2="56.84"/><line class="cls-1" x1="106.42" y1="55.16" x2="81.84" y2="30.58"/><circle class="cls-1" cx="328.41" cy="44.2" r="18"/><path class="cls-2" d="M538.69,289.76c0-4.49,1.83-6.91,4.81-6.91s4.81,2.42,4.81,6.91-1.83,7-4.81,7S538.69,294.21,538.69,289.76Zm8,0c0-3.84-1.32-5.5-3.19-5.5s-3.19,1.66-3.19,5.5,1.32,5.59,3.19,5.59S546.69,293.6,546.69,289.76Zm-4.49-.15a1.3,1.3,0,1,1,1.3,1.41A1.3,1.3,0,0,1,542.2,289.61Z" transform="translate(-215.09 -246.3)"/><circle class="cls-1" cx="378.41" cy="94.2" r="18"/><path class="cls-2" d="M588.73,345.47c4.54-4,7-6.36,7-8.59,0-1.53-.93-2.6-2.9-2.6a4.58,4.58,0,0,0-3.21,1.6l-1-1a6,6,0,0,1,4.43-2c2.69,0,4.37,1.58,4.37,3.95s-2.52,5-6.16,8.31c.84-.06,1.7-.1,2.5-.1h4.39v1.49h-9.43Z" transform="translate(-215.09 -246.3)"/><circle class="cls-1" cx="278.41" cy="94.2" r="18"/><path class="cls-2" d="M489.24,345.05h3.86v-9.82h-3v-1.14a9.5,9.5,0,0,0,3.44-1h1.3v11.95h3.49v1.45h-9.09Z" transform="translate(-215.09 -246.3)"/><line class="cls-1" x1="315.07" y1="56.28" x2="290.49" y2="80.86"/><line class="cls-1" x1="366.33" y1="80.86" x2="341.75" y2="56.28"/><path class="cls-2" d="M276.28,410c0-3.82,2.18-6.13,5.24-6.13a4.34,4.34,0,0,1,3.26,1.45l-.87.95a3.05,3.05,0,0,0-2.39-1.06c-2.22,0-3.66,1.82-3.66,4.75s1.32,4.83,3.62,4.83a3,3,0,0,0,2-.69V411h-2.34v-1.24h3.74v5a5,5,0,0,1-3.53,1.37C278.42,416.13,276.28,413.86,276.28,410Z" transform="translate(-215.09 -246.3)"/><path class="cls-2" d="M289.27,418.11h5.42v1h-5.42Zm2.22-4.54H289.6v-.75a4.32,4.32,0,0,0,2.11-.74h1v7h-1.17Z" transform="translate(-215.09 -246.3)"/><path class="cls-2" d="M621.17,410.35a10.46,10.46,0,0,0,1.26.09h.17a6.34,6.34,0,0,0,.93-.09,1.14,1.14,0,0,1,.67.51v.25c0,.09-.08.17-.25.26a69.22,69.22,0,0,0-7.59.42,2.24,2.24,0,0,1-2.11-.93v-.17c0-.17.22-.25.5-.25a5.15,5.15,0,0,0,1.69.33,28.75,28.75,0,0,1,3.37-.33l.17.08Z" transform="translate(-215.09 -246.3)"/><path class="cls-2" d="M632.56,405c.56,0,.84.65.84,1.94a4.32,4.32,0,0,0,.09.85h.26a1.18,1.18,0,0,0,.24-.17h.26c.08,0,.16.08.25.25v.34c0,.32-.31.66-.93,1a3.08,3.08,0,0,1-.08.68c0,.17.11.25.17.25a2,2,0,0,1,1-.34l.09.17a3.35,3.35,0,0,1-.77,1.26l-.75,1.44h-.51c-.06,0-.08,0-.08-.09a6.2,6.2,0,0,1-1.86,1c-.51-.07-.76-.33-.76-.76l.42-.34s0-.21-.08-.5,0-.88.08-2.2l-.08-.34a.07.07,0,0,1,.08-.08,5.06,5.06,0,0,1-.08-.68c.09-2,.31-3,.67-3h.25c.07,0,.24.16.51.5l-.51,3.13.09.42v2.11c.32,0,.69-.26,1.1-.77v-.5c0-.51-.09-2.23-.26-5.15C632.33,405.12,632.44,405,632.56,405Zm5.57,9.79c1.08.05,1.73.31,1.94.76q-.3.51-.42.51-1.46-.18-1.86-.18-1,.18-4.81,1.36h-.33a.52.52,0,0,1-.59-.59v-.26a9.15,9.15,0,0,1,2.61-.84A8.45,8.45,0,0,1,638.13,414.75Zm-2.62-9.46a.83.83,0,0,1,.59.77c0,.25,0,.62-.08,1.1a2.22,2.22,0,0,0,.17.59l-.09.5v.17h.09c1.13-1.46,1.83-2.19,2.11-2.19a.82.82,0,0,1,.75.84c-1.79,1.58-2.69,2.59-2.69,3-.12,0-.17.07-.17.17v1.34h.17c1.51-1.5,2.27-2.65,2.27-3.45l.18-.09.75,1.1v.09q-1.45,3.11-3.37,4a1.65,1.65,0,0,1,.33.76c0,.09-.11.17-.33.25-1.91-.29-2.87-.74-2.87-1.35v-.08c0-.09.11-.17.34-.26a9,9,0,0,0,1.68.43v-.09a1,1,0,0,1-.16-.5v-6.84C635.18,405.41,635.29,405.32,635.51,405.29Z" transform="translate(-215.09 -246.3)"/><path class="cls-2" d="M652.52,404.45c.28,0,.51.37.68,1.1a13.19,13.19,0,0,1-1.87,3.21v.08a3.67,3.67,0,0,0,.93.42,16.18,16.18,0,0,1,3.71-.76c0-.1.14-.15.42-.16l.35.58.25.17c0,.62-.29.93-.76.93h-.17l-.59-.17a11.32,11.32,0,0,0-3,.67l.08.85v1.26c0,.06,0,.09-.08.09l.08.17c-.51,2.15-.81,3.7-.93,4.64a.59.59,0,0,0-.34.17h-.08c-1.57-1.32-2.36-2.31-2.36-3l.17-.08c.92,1,1.53,1.52,1.85,1.52a18.65,18.65,0,0,0,.84-5.07.6.6,0,0,1-.08-.24h-.16a21.82,21.82,0,0,1-4.4.59l-.16-.09c-.06,0-.08,0-.08.09L645,411l-.24-.34c0-.33.13-.5.24-.5l1.27.17.18-.09s.07,0,.07.09l.43-.09h.67c1.35,0,2-.22,2-.67,1.58-2.14,2.37-3.44,2.37-3.88v-.17h-.08a16.21,16.21,0,0,1-3.21.42.9.9,0,0,1-.17-.25v-.26C648.55,405.14,649.88,404.8,652.52,404.45Z" transform="translate(-215.09 -246.3)"/><path class="cls-2" d="M669.59,404.7a2,2,0,0,1,1,1.77v.26c-.11,3-.16,4.64-.16,5v2.2a13.36,13.36,0,0,0,.08,1.52c-.1,1-.21,1.45-.36,1.45h-.3c-.71-.68-1.2-1-1.48-1a18.62,18.62,0,0,1-2.94.93h-.25c-.06,0-.16-.09-.27-.29v-.31a9.46,9.46,0,0,1,2.45-1q0-.15.33-.15v-.17c-.07-.21-.26-.32-.57-.32h-.76c-.07,0-.1,0-.1-.09V414c0-.07,0-.11.1-.11h.33c1,.06,1.45.34,1.45.85.73.08,1.1.36,1.1.84h.16a.21.21,0,0,0,.24-.24v-2.64a5.34,5.34,0,0,0-2.17-1.14c-.2,0-.37.23-.51.7.62.38.94.74.94,1.06,0,.07-.06.1-.18.1l-1.15-.35a1.05,1.05,0,0,1-.48.6h-.41c-.34,0-.52-.15-.52-.45.3,0,.7-.71,1.21-2.13a10.67,10.67,0,0,0-2-.78v-.11a19.85,19.85,0,0,1,.68-3.07l-.31-.21c-.63,0-.94.16-.94.33,0,.4.06,1.15.17,2.27h-.1a27.94,27.94,0,0,1,.19,3.87v1l.08.49a6.93,6.93,0,0,0-.17,1.28,4.15,4.15,0,0,1,.09.74,1,1,0,0,1-.46.54h-.15s-.17-.13-.35-.38c0-.82,0-2,.08-3.42l.1-.18-.1-.19a57.87,57.87,0,0,0-.49-7.87l.1-.05H663a1.08,1.08,0,0,1,.53.84A47,47,0,0,0,669.59,404.7Zm-4,3.95h.28a6.71,6.71,0,0,1,2.09-1.43h.15a1,1,0,0,1,.44.93l-.87,2.61h.17a4.47,4.47,0,0,0,1.78.68.75.75,0,0,1,.08-.31c0-.11,0-.17-.08-.17l.16-2.38c0-.1,0-.15-.07-.15l.07-.35v-1.69c0-.32-.11-.52-.32-.58-1.93.51-2.92.76-3,.76A3.47,3.47,0,0,0,665.63,408.65Zm0,1V410l1,.15h.22a5.88,5.88,0,0,0,.75-1.58v-.2C667.21,408.39,666.55,408.81,665.64,409.66Z" transform="translate(-215.09 -246.3)"/><circle class="cls-1" cx="89.99" cy="231.79" r="18"/><path class="cls-2" d="M300.27,477.35c0-4.49,1.83-6.9,4.81-6.9s4.81,2.41,4.81,6.9-1.83,7-4.81,7S300.27,481.8,300.27,477.35Zm8,0c0-3.84-1.32-5.5-3.19-5.5s-3.19,1.66-3.19,5.5,1.32,5.59,3.19,5.59S308.27,481.2,308.27,477.35Zm-4.49-.14a1.3,1.3,0,1,1,1.3,1.4A1.31,1.31,0,0,1,303.78,477.21Z" transform="translate(-215.09 -246.3)"/><circle class="cls-1" cx="235.41" cy="309.2" r="18"/><path class="cls-2" d="M445.69,554.76c0-4.49,1.83-6.91,4.81-6.91s4.81,2.42,4.81,6.91-1.83,7-4.81,7S445.69,559.21,445.69,554.76Zm8,0c0-3.84-1.32-5.5-3.19-5.5s-3.19,1.66-3.19,5.5,1.32,5.59,3.19,5.59S453.69,558.6,453.69,554.76Zm-4.49-.15a1.3,1.3,0,1,1,1.3,1.41A1.3,1.3,0,0,1,449.2,554.61Z" transform="translate(-215.09 -246.3)"/><circle class="cls-1" cx="89.99" cy="308.79" r="18"/><path class="cls-2" d="M300.82,559.64h3.86v-9.82h-3v-1.14a9.73,9.73,0,0,0,3.44-1h1.3v11.94h3.49v1.45h-9.09Z" transform="translate(-215.09 -246.3)"/><circle class="cls-1" cx="350.41" cy="271.2" r="18"/><path class="cls-2" d="M560.69,516.76c0-4.49,1.83-6.91,4.81-6.91s4.81,2.42,4.81,6.91-1.83,7-4.81,7S560.69,521.21,560.69,516.76Zm8,0c0-3.84-1.32-5.5-3.19-5.5s-3.19,1.66-3.19,5.5,1.32,5.59,3.19,5.59S568.69,520.6,568.69,516.76Zm-4.49-.15a1.3,1.3,0,1,1,1.3,1.41A1.3,1.3,0,0,1,564.2,516.61Z" transform="translate(-215.09 -246.3)"/><circle class="cls-1" cx="350.41" cy="348.2" r="18"/><path class="cls-2" d="M561.24,599.05h3.86v-9.83h-3v-1.13a9.5,9.5,0,0,0,3.44-1h1.3v11.95h3.49v1.45h-9.09Z" transform="translate(-215.09 -246.3)"/><circle class="cls-1" cx="89.99" cy="373.79" r="18"/><path class="cls-2" d="M300.31,625.06c4.54-4,7-6.36,7-8.58,0-1.54-.93-2.61-2.9-2.61a4.62,4.62,0,0,0-3.21,1.6l-1-1a6,6,0,0,1,4.43-2c2.69,0,4.36,1.57,4.36,3.94s-2.51,5-6.15,8.32c.84-.07,1.7-.11,2.5-.11h4.39v1.49h-9.43Z" transform="translate(-215.09 -246.3)"/><path class="cls-2" d="M297.77,677.3c0-3.82,2.18-6.13,5.24-6.13a4.34,4.34,0,0,1,3.26,1.45l-.87,1a3.05,3.05,0,0,0-2.39-1.06c-2.22,0-3.66,1.82-3.66,4.75s1.32,4.83,3.62,4.83a3,3,0,0,0,2-.69v-3.08h-2.34v-1.24h3.74v5a5,5,0,0,1-3.53,1.37C299.91,683.42,297.77,681.15,297.77,677.3Z" transform="translate(-215.09 -246.3)"/><path class="cls-2" d="M310.17,685.24l.76-.6a2.33,2.33,0,0,0,2,1.05c.86,0,1.58-.45,1.58-1.25s-.75-1.24-2.36-1.24v-.74c1.43,0,2.09-.55,2.09-1.27s-.57-1.1-1.44-1.1a2.22,2.22,0,0,0-1.62.84l-.68-.61a3.06,3.06,0,0,1,2.46-1.17c1.32,0,2.44.72,2.44,1.89,0,.85-.47,1.37-1.41,1.73a1.81,1.81,0,0,1,1.68,1.73c0,1.29-1.21,2.11-2.67,2.11A3.32,3.32,0,0,1,310.17,685.24Z" transform="translate(-215.09 -246.3)"/><path class="cls-2" d="M621.66,677.64a10.46,10.46,0,0,0,1.26.09h.17a6.46,6.46,0,0,0,.93-.09,1.14,1.14,0,0,1,.67.51v.25c0,.09-.08.17-.25.26a69.22,69.22,0,0,0-7.59.42,2.24,2.24,0,0,1-2.11-.93V678c0-.17.22-.25.5-.25a5.07,5.07,0,0,0,1.69.33,28.75,28.75,0,0,1,3.37-.33l.17.08Z" transform="translate(-215.09 -246.3)"/><path class="cls-2" d="M633.05,672.25c.56,0,.84.65.84,1.94a4.32,4.32,0,0,0,.09.85h.25a.9.9,0,0,0,.25-.17h.26c.08,0,.16.08.25.25v.34c0,.32-.31.66-.93,1a3.08,3.08,0,0,1-.08.68c0,.17.11.25.17.25a2,2,0,0,1,1-.34l.09.17a3.35,3.35,0,0,1-.77,1.26l-.76,1.44h-.51c-.05,0-.07,0-.07-.09a6.2,6.2,0,0,1-1.86,1c-.51-.07-.76-.33-.76-.76l.42-.34s0-.21-.08-.5,0-.88.08-2.2l-.08-.34a.07.07,0,0,1,.08-.08,5.06,5.06,0,0,1-.08-.68c.09-2,.31-3,.67-3h.25c.07,0,.24.16.51.5l-.51,3.13.09.42v2.11c.32,0,.69-.26,1.1-.77v-.5c0-.51-.09-2.23-.26-5.15C632.82,672.42,632.93,672.27,633.05,672.25Zm5.57,9.79c1.08.05,1.73.31,1.94.76q-.3.51-.42.51-1.46-.18-1.86-.18-1,.18-4.81,1.36h-.33a.52.52,0,0,1-.59-.59v-.26a9.15,9.15,0,0,1,2.61-.84A8.45,8.45,0,0,1,638.62,682ZM636,672.58a.83.83,0,0,1,.59.77c0,.25,0,.62-.08,1.1a2.22,2.22,0,0,0,.17.59l-.09.5v.17h.09c1.13-1.46,1.83-2.19,2.11-2.19a.82.82,0,0,1,.75.84c-1.79,1.58-2.69,2.59-2.7,3-.11,0-.16.07-.16.17v1.34h.16q2.28-2.25,2.28-3.45l.18-.09.75,1.1v.09q-1.45,3.11-3.37,4a1.65,1.65,0,0,1,.33.76c0,.09-.11.17-.33.25-1.91-.29-2.87-.74-2.87-1.35v-.08c0-.09.11-.17.34-.26a9,9,0,0,0,1.68.43v-.09a1,1,0,0,1-.16-.5v-6.84C635.67,672.7,635.78,672.61,636,672.58Z" transform="translate(-215.09 -246.3)"/><path class="cls-2" d="M653,671.74c.28,0,.5.37.67,1.1a13,13,0,0,1-1.86,3.21v.08a3.67,3.67,0,0,0,.93.42,16.18,16.18,0,0,1,3.71-.76c0-.1.14-.15.42-.16l.35.58.25.17c0,.62-.29.93-.76.93h-.17l-.59-.17a11.32,11.32,0,0,0-3,.67l.08.85v1.26c0,.06,0,.09-.08.09l.08.17c-.51,2.15-.81,3.7-.93,4.64a.66.66,0,0,0-.34.17h-.08c-1.57-1.32-2.36-2.31-2.36-3l.16-.08c.92,1,1.54,1.52,1.86,1.52a18.65,18.65,0,0,0,.84-5.07.6.6,0,0,1-.08-.24H652a21.82,21.82,0,0,1-4.4.59l-.16-.09c-.06,0-.08,0-.08.09l-1.87-.43-.24-.34c0-.33.13-.5.24-.5l1.27.17.17-.09c.06,0,.08,0,.08.09l.43-.09h.67c1.35,0,2-.22,2-.67,1.58-2.14,2.37-3.44,2.37-3.88v-.17h-.08a16.3,16.3,0,0,1-3.21.42A.9.9,0,0,1,649,673v-.26C649,672.43,650.37,672.09,653,671.74Z" transform="translate(-215.09 -246.3)"/><path class="cls-2" d="M670.08,672a2,2,0,0,1,1,1.77V674c-.11,3-.16,4.64-.16,5v2.2a13.36,13.36,0,0,0,.08,1.52c-.1,1-.22,1.45-.36,1.45h-.3c-.71-.68-1.2-1-1.48-1a18.62,18.62,0,0,1-2.94.93h-.25c-.07,0-.16-.09-.27-.29v-.31a9.46,9.46,0,0,1,2.45-1q0-.15.33-.15v-.17c-.07-.21-.26-.31-.57-.31h-.76a.09.09,0,0,1-.1-.1v-.5c0-.07,0-.11.1-.11h.33c1,.06,1.45.34,1.45.85.73.08,1.1.36,1.1.84h.16a.21.21,0,0,0,.24-.24V680a5.32,5.32,0,0,0-2.18-1.14c-.19,0-.36.23-.51.7.63.38.95.74.95,1.06,0,.07-.06.1-.18.1l-1.15-.35a1,1,0,0,1-.49.6h-.4c-.35,0-.52-.15-.52-.45.29,0,.7-.71,1.21-2.13a10.67,10.67,0,0,0-2-.78v-.11a18.61,18.61,0,0,1,.68-3.07l-.32-.21q-.93.07-.93.33c0,.4.06,1.15.17,2.27h-.1a27.94,27.94,0,0,1,.19,3.87v1l.08.49a6.09,6.09,0,0,0-.17,1.28,4.15,4.15,0,0,1,.09.74,1,1,0,0,1-.46.54H664s-.17-.13-.35-.38c0-.82,0-2,.08-3.42l.1-.18-.1-.19a57.87,57.87,0,0,0-.49-7.87l.1-.05h.13a1.07,1.07,0,0,1,.54.84A47,47,0,0,0,670.08,672Zm-4,4h.28a6.59,6.59,0,0,1,2.09-1.43h.14a1,1,0,0,1,.45.93l-.87,2.61h.17a4.47,4.47,0,0,0,1.78.68.62.62,0,0,1,.08-.31c0-.11,0-.17-.08-.17l.16-2.38c0-.1,0-.15-.07-.15l.07-.35v-1.69c0-.32-.11-.52-.32-.58-1.93.51-2.92.76-3,.76A3.47,3.47,0,0,0,666.12,675.94Zm0,1v.36l1,.15h.22a5.88,5.88,0,0,0,.75-1.58v-.2C667.69,675.68,667,676.1,666.13,677Z" transform="translate(-215.09 -246.3)"/><line class="cls-1" x1="90.49" y1="326.29" x2="90.49" y2="346.26"/><path class="cls-2" d="M305.58,598.59a29.91,29.91,0,0,0-4.76-8.54l4.76,1.72,4.75-1.72A30.12,30.12,0,0,0,305.58,598.59Z" transform="translate(-215.09 -246.3)"/><circle class="cls-1" cx="457.99" cy="231.79" r="18"/><path class="cls-2" d="M668.27,477.35c0-4.49,1.83-6.9,4.81-6.9s4.81,2.41,4.81,6.9-1.83,7-4.81,7S668.27,481.8,668.27,477.35Zm8,0c0-3.84-1.32-5.5-3.19-5.5s-3.19,1.66-3.19,5.5,1.32,5.59,3.19,5.59S676.27,481.2,676.27,477.35Zm-4.49-.14a1.3,1.3,0,1,1,1.3,1.4A1.31,1.31,0,0,1,671.78,477.21Z" transform="translate(-215.09 -246.3)"/><circle class="cls-1" cx="457.99" cy="308.79" r="18"/><path class="cls-2" d="M668.82,559.64h3.86v-9.82h-3v-1.14a9.73,9.73,0,0,0,3.44-1h1.3v11.94h3.49v1.45h-9.09Z" transform="translate(-215.09 -246.3)"/><circle class="cls-1" cx="457.99" cy="373.79" r="18"/><path class="cls-2" d="M668.31,625.06c4.54-4,7-6.36,7-8.58,0-1.54-.93-2.61-2.9-2.61a4.62,4.62,0,0,0-3.21,1.6l-1-1a6,6,0,0,1,4.43-2c2.69,0,4.36,1.57,4.36,3.94s-2.51,5-6.15,8.32c.84-.07,1.7-.11,2.5-.11h4.39v1.49h-9.43Z" transform="translate(-215.09 -246.3)"/><line class="cls-1" x1="458.49" y1="326.29" x2="458.49" y2="346.26"/><path class="cls-2" d="M673.58,598.59a29.91,29.91,0,0,0-4.76-8.54l4.76,1.72,4.75-1.72A30.12,30.12,0,0,0,673.58,598.59Z" transform="translate(-215.09 -246.3)"/><path class="cls-1" d="M291.17,489.52c-17.78,14-14.89,33.21-8.15,43.11" transform="translate(-215.09 -246.3)"/><path class="cls-2" d="M287.08,537.09a30.59,30.59,0,0,0-9.22-3.28l4.71-1.84,2.44-4.44A30.21,30.21,0,0,0,287.08,537.09Z" transform="translate(-215.09 -246.3)"/><path class="cls-1" d="M319.79,545.09c17.78-14,14.89-33.21,8.16-43.1" transform="translate(-215.09 -246.3)"/><path class="cls-2" d="M323.89,497.52a30,30,0,0,0,9.21,3.28l-4.71,1.85L326,507.08A30.27,30.27,0,0,0,323.89,497.52Z" transform="translate(-215.09 -246.3)"/><circle class="cls-1" cx="592.41" cy="232.2" r="18"/><path class="cls-2" d="M802.69,477.76c0-4.49,1.83-6.91,4.81-6.91s4.81,2.42,4.81,6.91-1.83,7-4.81,7S802.69,482.21,802.69,477.76Zm8,0c0-3.84-1.32-5.5-3.19-5.5s-3.19,1.66-3.19,5.5,1.32,5.59,3.19,5.59S810.69,481.6,810.69,477.76Zm-4.49-.15a1.3,1.3,0,1,1,1.3,1.41A1.3,1.3,0,0,1,806.2,477.61Z" transform="translate(-215.09 -246.3)"/><circle class="cls-1" cx="592.41" cy="309.2" r="18"/><path class="cls-2" d="M803.24,560.05h3.86v-9.83h-3v-1.13a9.5,9.5,0,0,0,3.44-1h1.3v11.95h3.49v1.45h-9.09Z" transform="translate(-215.09 -246.3)"/><circle class="cls-1" cx="592.41" cy="374.2" r="18"/><path class="cls-2" d="M802.73,625.47c4.54-4,7-6.36,7-8.59,0-1.53-.93-2.6-2.9-2.6a4.58,4.58,0,0,0-3.21,1.6l-1-1a6,6,0,0,1,4.43-2c2.69,0,4.36,1.58,4.36,3.95,0,2.52-2.51,5-6.15,8.31.84-.06,1.7-.1,2.5-.1h4.39v1.49h-9.43Z" transform="translate(-215.09 -246.3)"/><path class="cls-1" d="M793.59,489.93c-17.77,14-14.89,33.21-8.15,43.1" transform="translate(-215.09 -246.3)"/><path class="cls-2" d="M789.5,537.5a30.06,30.06,0,0,0-9.22-3.28l4.71-1.85,2.44-4.43A30.27,30.27,0,0,0,789.5,537.5Z" transform="translate(-215.09 -246.3)"/><path class="cls-1" d="M822.21,545.5c17.78-14,14.89-33.21,8.16-43.11" transform="translate(-215.09 -246.3)"/><path class="cls-2" d="M826.31,497.93a30.53,30.53,0,0,0,9.21,3.28l-4.71,1.84-2.43,4.44A30.21,30.21,0,0,0,826.31,497.93Z" transform="translate(-215.09 -246.3)"/><line class="cls-1" x1="350.91" y1="288.7" x2="350.91" y2="318.66"/><path class="cls-2" d="M566,571a30.1,30.1,0,0,0-4.76-8.55l4.76,1.72,4.75-1.72A30.31,30.31,0,0,0,566,571Z" transform="translate(-215.09 -246.3)"/><line class="cls-1" x1="458.41" y1="249.7" x2="458.41" y2="279.66"/><path class="cls-2" d="M673.5,532a30.1,30.1,0,0,0-4.76-8.55l4.76,1.72,4.75-1.72A30.31,30.31,0,0,0,673.5,532Z" transform="translate(-215.09 -246.3)"/></svg>