<svg id="图层_1" data-name="图层 1" xmlns="http://www.w3.org/2000/svg" viewBox="0 0 393.52 33.96"><defs><style>.cls-1{fill:none;stroke:#3ea69f;stroke-miterlimit:10;}.cls-2{fill:#3ea69f;}</style></defs><rect class="cls-1" x="0.5" y="0.5" width="392.52" height="32.96"/><line class="cls-1" x1="61.71" y1="0.5" x2="61.71" y2="33.46"/><line class="cls-1" x1="143.71" y1="0.5" x2="143.71" y2="33.46"/><line class="cls-1" x1="226.71" y1="0.5" x2="226.71" y2="33.46"/><line class="cls-1" x1="309.71" y1="0.5" x2="309.71" y2="33.46"/><path class="cls-2" d="M515.79,201.45c0-2.85,1.89-4.61,4-4.61a3.71,3.71,0,0,1,2.63,1.12h0l-.08-1.61V193h1.5v12.82h-1.23l-.12-1.16h-.06a4.19,4.19,0,0,1-2.86,1.37C517.3,206,515.79,204.37,515.79,201.45Zm6.55,2v-4.36a3.23,3.23,0,0,0-2.28-1c-1.52,0-2.74,1.33-2.74,3.33s1,3.33,2.58,3.33A3.29,3.29,0,0,0,522.34,203.47Z" transform="translate(-506.48 -183.21)"/><path class="cls-2" d="M527,203.54c0-2,1.84-2.92,6.36-3.28a2.08,2.08,0,0,0-2.33-2.2,6.05,6.05,0,0,0-3.06,1.05l-.59-1a7.61,7.61,0,0,1,3.9-1.26,3.25,3.25,0,0,1,3.57,3.6v5.37h-1.24l-.13-1.19h0a5.88,5.88,0,0,1-3.44,1.4C528.3,206,527,205.1,527,203.54Zm6.36,0v-2.27c-3.75.29-4.88,1-4.88,2.18,0,1,.9,1.39,1.9,1.39A4.77,4.77,0,0,0,533.31,203.52Z" transform="translate(-506.48 -183.21)"/><path class="cls-2" d="M540,202.4v-4.14h-2.49v-1.11l2.54-.09.2-2.81h1.24v2.81h4.29v1.2h-4.29v4.16c0,1.57.52,2.38,2.22,2.38a5.64,5.64,0,0,0,2.09-.4l.32,1.1a7.6,7.6,0,0,1-2.74.52C540.85,206,540,204.56,540,202.4Z" transform="translate(-506.48 -183.21)"/><path class="cls-2" d="M548.55,203.54c0-2,1.84-2.92,6.36-3.28a2.09,2.09,0,0,0-2.33-2.2,6.05,6.05,0,0,0-3.06,1.05l-.59-1a7.61,7.61,0,0,1,3.9-1.26,3.25,3.25,0,0,1,3.57,3.6v5.37h-1.24l-.13-1.19h0a5.88,5.88,0,0,1-3.44,1.4C549.9,206,548.55,205.1,548.55,203.54Zm6.36,0v-2.27c-3.75.29-4.88,1-4.88,2.18,0,1,.9,1.39,1.9,1.39A4.79,4.79,0,0,0,554.91,203.52Z" transform="translate(-506.48 -183.21)"/><path class="cls-2" d="M581.14,202.87v-8.68H578V193h4.59v10a1.58,1.58,0,0,0,1.73,1.8,3.93,3.93,0,0,0,1.64-.4l.38,1.12A5.35,5.35,0,0,1,584,206C582.17,206,581.14,204.94,581.14,202.87Z" transform="translate(-506.48 -183.21)"/><path class="cls-2" d="M593.18,198.26h-4v-1.2h5.55v8.75h-1.5Zm-.59-4.19a1.19,1.19,0,1,1,1.19,1.15A1.12,1.12,0,0,1,592.59,194.07Z" transform="translate(-506.48 -183.21)"/><path class="cls-2" d="M600,197.06h1.23l.12,1.47h.08a4.52,4.52,0,0,1,3.29-1.69c2.07,0,3,1.22,3,3.53v5.44h-1.5v-5.24c0-1.66-.57-2.43-2-2.43-1,0-1.74.52-2.75,1.56v6.11H600Z" transform="translate(-506.48 -183.21)"/><path class="cls-2" d="M611,193h1.49v8.66h.08l4.7-4.59H619l-6.49,6.37v2.38H611Zm3.37,8.17.9-1,4.17,5.62h-1.65Z" transform="translate(-506.48 -183.21)"/><path class="cls-2" d="M632.46,204.56h3.31v-8.42h-2.58v-1a8.26,8.26,0,0,0,3-.85h1.11v10.24h3v1.25h-7.79Z" transform="translate(-506.48 -183.21)"/><path class="cls-2" d="M664.14,202.87v-8.68H661V193h4.59v10a1.58,1.58,0,0,0,1.73,1.8,3.93,3.93,0,0,0,1.64-.4l.38,1.12A5.35,5.35,0,0,1,667,206C665.17,206,664.14,204.94,664.14,202.87Z" transform="translate(-506.48 -183.21)"/><path class="cls-2" d="M676.18,198.26h-4v-1.2h5.55v8.75h-1.5Zm-.59-4.19a1.19,1.19,0,1,1,1.19,1.15A1.12,1.12,0,0,1,675.59,194.07Z" transform="translate(-506.48 -183.21)"/><path class="cls-2" d="M683,197.06h1.23l.12,1.47h.08a4.52,4.52,0,0,1,3.29-1.69c2.07,0,3,1.22,3,3.53v5.44h-1.5v-5.24c0-1.66-.57-2.43-2-2.43-1,0-1.74.52-2.75,1.56v6.11H683Z" transform="translate(-506.48 -183.21)"/><path class="cls-2" d="M694,193h1.49v8.66h.08l4.7-4.59H702l-6.49,6.37v2.38H694Zm3.37,8.17.9-1,4.17,5.62h-1.65Z" transform="translate(-506.48 -183.21)"/><path class="cls-2" d="M715,204.92c3.89-3.43,6-5.45,6-7.36,0-1.31-.8-2.23-2.49-2.23a3.94,3.94,0,0,0-2.75,1.37l-.87-.85a5.15,5.15,0,0,1,3.8-1.75c2.31,0,3.75,1.35,3.75,3.39s-2.16,4.3-5.28,7.13c.72-.06,1.46-.09,2.14-.09h3.77v1.28H715Z" transform="translate(-506.48 -183.21)"/><path class="cls-2" d="M830.14,202.87v-8.68H827V193h4.59v10a1.58,1.58,0,0,0,1.73,1.8,3.93,3.93,0,0,0,1.64-.4l.38,1.12A5.35,5.35,0,0,1,833,206C831.17,206,830.14,204.94,830.14,202.87Z" transform="translate(-506.48 -183.21)"/><path class="cls-2" d="M842.18,198.26h-4v-1.2h5.55v8.75h-1.5Zm-.59-4.19a1.19,1.19,0,1,1,1.19,1.15A1.12,1.12,0,0,1,841.59,194.07Z" transform="translate(-506.48 -183.21)"/><path class="cls-2" d="M849,197.06h1.23l.12,1.47h.08a4.52,4.52,0,0,1,3.29-1.69c2.07,0,3,1.22,3,3.53v5.44h-1.5v-5.24c0-1.66-.57-2.43-2-2.43-1,0-1.74.52-2.75,1.56v6.11H849Z" transform="translate(-506.48 -183.21)"/><path class="cls-2" d="M860,193h1.49v8.66h.08l4.7-4.59H868l-6.49,6.37v2.38H860Zm3.37,8.17.9-1,4.17,5.62h-1.65Z" transform="translate(-506.48 -183.21)"/><path class="cls-2" d="M881.38,197.06h1.23l.12,1.47h.08a4.52,4.52,0,0,1,3.29-1.69c2.07,0,3,1.22,3,3.53v5.44h-1.49v-5.24c0-1.66-.58-2.43-2-2.43-1,0-1.74.52-2.75,1.56v6.11h-1.5Z" transform="translate(-506.48 -183.21)"/><circle class="cls-2" cx="269.52" cy="17.79" r="1"/><circle class="cls-2" cx="281.52" cy="17.79" r="1"/><circle class="cls-2" cx="257.52" cy="17.79" r="1"/></svg>