<svg id="图层_1" data-name="图层 1" xmlns="http://www.w3.org/2000/svg" viewBox="0 0 504.36 187.57"><defs><style>.cls-1{fill:none;stroke:#3ea69f;stroke-miterlimit:10;}.cls-2{fill:#3ea69f;}</style></defs><circle class="cls-1" cx="48.5" cy="91.81" r="18"/><path class="cls-2" d="M373,202.66l.87-1.16a5.31,5.31,0,0,0,3.77,1.54,3.12,3.12,0,0,0,3.39-3c0-1.85-1.31-2.92-3.28-2.92a5.06,5.06,0,0,0-2.73.8l-.92-.59.44-6.44h7.58v1.51h-6.05l-.36,4a5.7,5.7,0,0,1,2.48-.55c2.56,0,4.6,1.3,4.6,4.2s-2.39,4.53-5,4.53A6.76,6.76,0,0,1,373,202.66Z" transform="translate(-329.64 -106.43)"/><circle class="cls-1" cx="18.5" cy="168.81" r="18"/><path class="cls-2" d="M343.37,280.2c4.54-4,7-6.36,7-8.58,0-1.54-.92-2.61-2.89-2.61a4.64,4.64,0,0,0-3.22,1.6l-1-1a6,6,0,0,1,4.43-2c2.68,0,4.36,1.58,4.36,3.95,0,2.52-2.52,5-6.15,8.32.84-.07,1.7-.11,2.5-.11h4.39v1.49h-9.43Z" transform="translate(-329.64 -106.43)"/><circle class="cls-1" cx="182.86" cy="169.07" r="18"/><path class="cls-2" d="M501.33,278.08c0-1.85,1.43-2.9,2.87-3.57v-.09a3.75,3.75,0,0,1-2-3.12c0-2.06,1.74-3.45,4.13-3.45,2.63,0,4.16,1.49,4.16,3.57a4.18,4.18,0,0,1-2,3.19v.09c1.47.73,2.63,1.57,2.63,3.48s-1.74,3.57-4.81,3.57S501.33,280.2,501.33,278.08Zm8.06,0c0-1.85-1.87-2.33-4.2-3.11-1.3.7-2.29,1.56-2.29,2.9s1.33,2.54,3.38,2.54S509.39,279.51,509.39,278.12Zm-.44-6.61a2.39,2.39,0,0,0-2.69-2.36,2.22,2.22,0,0,0-2.5,2.15c0,1.59,1.54,2.26,3.53,2.89A3.39,3.39,0,0,0,509,271.51Z" transform="translate(-329.64 -106.43)"/><path class="cls-2" d="M514,274.76c0-4.49,1.83-6.91,4.81-6.91s4.81,2.42,4.81,6.91-1.83,7-4.81,7S514,279.21,514,274.76Zm8,0c0-3.84-1.32-5.5-3.19-5.5s-3.19,1.66-3.19,5.5,1.32,5.59,3.19,5.59S522,278.6,522,274.76Zm-4.49-.15a1.3,1.3,0,1,1,1.3,1.41A1.3,1.3,0,0,1,517.5,274.61Z" transform="translate(-329.64 -106.43)"/><circle class="cls-1" cx="107.59" cy="18.5" r="18"/><path class="cls-2" d="M425.83,129.29l.88-1.14a5.41,5.41,0,0,0,3.84,1.58c1.83,0,3.19-.95,3.19-2.44s-1.34-2.66-4.85-2.66V123.3c3.17,0,4.39-1.09,4.39-2.49s-1.11-2.1-2.73-2.1a5.07,5.07,0,0,0-3.3,1.34l-.92-1.09a6.46,6.46,0,0,1,4.28-1.68c2.52,0,4.43,1.24,4.43,3.4,0,1.62-1.19,2.64-2.85,3.19V124c1.78.38,3.31,1.56,3.31,3.41,0,2.37-2.18,3.82-4.85,3.82A6.58,6.58,0,0,1,425.83,129.29Z" transform="translate(-329.64 -106.43)"/><path class="cls-2" d="M438.72,124.19c0-4.5,1.83-6.91,4.81-6.91s4.81,2.41,4.81,6.91-1.83,7-4.81,7S438.72,128.64,438.72,124.19Zm8,0c0-3.85-1.32-5.51-3.19-5.51s-3.19,1.66-3.19,5.51,1.32,5.58,3.19,5.58S446.72,128,446.72,124.19Zm-4.49-.15a1.3,1.3,0,1,1,1.3,1.41A1.3,1.3,0,0,1,442.23,124Z" transform="translate(-329.64 -106.43)"/><line class="cls-1" x1="41.44" y1="108.37" x2="24.63" y2="151.88"/><line class="cls-1" x1="165.1" y1="108.63" x2="176.73" y2="152.15"/><circle class="cls-1" cx="157.5" cy="91.81" r="18"/><path class="cls-2" d="M482.27,195c0-.73.06-1.63.1-2.37h-.1c-.45.65-.93,1.3-1.37,2l-3.61,4.54H486v1.41H475.36v-1.16l6.67-8.54h1.87v13.39h-1.63Z" transform="translate(-329.64 -106.43)"/><path class="cls-2" d="M488.63,197.49c0-4.49,1.83-6.91,4.81-6.91s4.81,2.42,4.81,6.91-1.83,7-4.81,7S488.63,201.94,488.63,197.49Zm8,0c0-3.84-1.32-5.5-3.19-5.5s-3.19,1.66-3.19,5.5,1.32,5.59,3.19,5.59S496.63,201.33,496.63,197.49Zm-4.49-.14a1.3,1.3,0,1,1,1.3,1.4A1.3,1.3,0,0,1,492.14,197.35Z" transform="translate(-329.64 -106.43)"/><line class="cls-1" x1="93.32" y1="29.46" x2="55.5" y2="75.22"/><line class="cls-1" x1="121.86" y1="29.46" x2="150.5" y2="75.22"/><circle class="cls-1" cx="351.5" cy="91.81" r="18"/><path class="cls-2" d="M676,202.66l.87-1.16a5.31,5.31,0,0,0,3.77,1.54,3.12,3.12,0,0,0,3.39-3c0-1.85-1.31-2.92-3.28-2.92a5,5,0,0,0-2.73.8l-.92-.59.44-6.44h7.58v1.51h-6l-.36,4a5.7,5.7,0,0,1,2.48-.55c2.56,0,4.6,1.3,4.6,4.2s-2.39,4.53-5,4.53A6.76,6.76,0,0,1,676,202.66Z" transform="translate(-329.64 -106.43)"/><circle class="cls-1" cx="321.5" cy="168.81" r="18"/><path class="cls-2" d="M646.37,280.2c4.54-4,7-6.36,7-8.58,0-1.54-.92-2.61-2.89-2.61a4.64,4.64,0,0,0-3.22,1.6l-1-1a6,6,0,0,1,4.43-2c2.68,0,4.36,1.58,4.36,3.95,0,2.52-2.52,5-6.15,8.32.84-.07,1.7-.11,2.5-.11h4.39v1.49h-9.43Z" transform="translate(-329.64 -106.43)"/><circle class="cls-1" cx="485.86" cy="169.07" r="18"/><path class="cls-2" d="M804.33,278.08c0-1.85,1.43-2.9,2.88-3.57v-.09a3.74,3.74,0,0,1-2-3.12c0-2.06,1.74-3.45,4.13-3.45,2.63,0,4.16,1.49,4.16,3.57a4.18,4.18,0,0,1-2,3.19v.09c1.47.73,2.63,1.57,2.63,3.48s-1.74,3.57-4.81,3.57S804.33,280.2,804.33,278.08Zm8.06,0c0-1.85-1.87-2.33-4.2-3.11-1.3.7-2.29,1.56-2.29,2.9s1.33,2.54,3.38,2.54S812.39,279.51,812.39,278.12Zm-.44-6.61a2.39,2.39,0,0,0-2.69-2.36,2.22,2.22,0,0,0-2.5,2.15c0,1.59,1.54,2.26,3.53,2.89A3.39,3.39,0,0,0,812,271.51Z" transform="translate(-329.64 -106.43)"/><path class="cls-2" d="M817,274.76c0-4.49,1.83-6.91,4.81-6.91s4.81,2.42,4.81,6.91-1.83,7-4.81,7S817,279.21,817,274.76Zm8,0c0-3.84-1.32-5.5-3.19-5.5s-3.19,1.66-3.19,5.5,1.32,5.59,3.19,5.59S825,278.6,825,274.76Zm-4.49-.15a1.3,1.3,0,1,1,1.3,1.41A1.3,1.3,0,0,1,820.5,274.61Z" transform="translate(-329.64 -106.43)"/><circle class="cls-1" cx="410.59" cy="18.5" r="18"/><path class="cls-2" d="M728.83,129.29l.88-1.14a5.41,5.41,0,0,0,3.84,1.58c1.83,0,3.19-.95,3.19-2.44s-1.34-2.66-4.85-2.66V123.3c3.17,0,4.39-1.09,4.39-2.49s-1.11-2.1-2.73-2.1a5.07,5.07,0,0,0-3.3,1.34l-.92-1.09a6.46,6.46,0,0,1,4.28-1.68c2.52,0,4.43,1.24,4.43,3.4,0,1.62-1.19,2.64-2.85,3.19V124c1.78.38,3.31,1.56,3.31,3.41,0,2.37-2.18,3.82-4.84,3.82A6.58,6.58,0,0,1,728.83,129.29Z" transform="translate(-329.64 -106.43)"/><path class="cls-2" d="M741.72,124.19c0-4.5,1.83-6.91,4.81-6.91s4.81,2.41,4.81,6.91-1.83,7-4.81,7S741.72,128.64,741.72,124.19Zm8,0c0-3.85-1.32-5.51-3.19-5.51s-3.19,1.66-3.19,5.51,1.32,5.58,3.19,5.58S749.72,128,749.72,124.19Zm-4.49-.15a1.3,1.3,0,1,1,1.3,1.41A1.3,1.3,0,0,1,745.23,124Z" transform="translate(-329.64 -106.43)"/><line class="cls-1" x1="344.44" y1="108.37" x2="327.63" y2="151.88"/><path class="cls-2" d="M776.55,275.39a18,18,0,1,1-18-18A18,18,0,0,1,776.55,275.39ZM752,281.64c2.67,0,4.85-1.45,4.85-3.82,0-1.85-1.53-3-3.31-3.41v-.08c1.66-.55,2.85-1.57,2.85-3.19,0-2.16-1.91-3.4-4.43-3.4a6.46,6.46,0,0,0-4.28,1.68l.92,1.09a5.07,5.07,0,0,1,3.3-1.34c1.62,0,2.73.81,2.73,2.09s-1.22,2.5-4.39,2.5v1.33c3.51,0,4.85,1.07,4.85,2.66s-1.36,2.44-3.19,2.44a5.41,5.41,0,0,1-3.84-1.58l-.88,1.14A6.58,6.58,0,0,0,752,281.64Zm12.58,0c2.56,0,5-1.64,5-4.54s-2-4.2-4.6-4.2a5.7,5.7,0,0,0-2.48.55l.36-3.95h6.05V268h-7.58l-.44,6.45.92.58a5,5,0,0,1,2.73-.79c2,0,3.27,1.07,3.27,2.91a3.11,3.11,0,0,1-3.38,3.05,5.39,5.39,0,0,1-3.78-1.53l-.86,1.15A6.76,6.76,0,0,0,764.55,281.64Z" transform="translate(-329.64 -106.43)"/><line class="cls-1" x1="451.85" y1="108.52" x2="435.04" y2="152.03"/><line class="cls-1" x1="468.1" y1="108.63" x2="479.73" y2="152.15"/><circle class="cls-1" cx="460.5" cy="91.81" r="18"/><path class="cls-2" d="M785.27,195c0-.73.06-1.63.1-2.37h-.1c-.45.65-.93,1.3-1.37,2l-3.61,4.54H789v1.41H778.36v-1.16l6.67-8.54h1.87v13.39h-1.63Z" transform="translate(-329.64 -106.43)"/><path class="cls-2" d="M791.63,197.49c0-4.49,1.83-6.91,4.81-6.91s4.81,2.42,4.81,6.91-1.83,7-4.81,7S791.63,201.94,791.63,197.49Zm8,0c0-3.84-1.32-5.5-3.19-5.5s-3.19,1.66-3.19,5.5,1.32,5.59,3.19,5.59S799.63,201.33,799.63,197.49Zm-4.49-.14a1.3,1.3,0,1,1,1.3,1.4A1.3,1.3,0,0,1,795.14,197.35Z" transform="translate(-329.64 -106.43)"/><line class="cls-1" x1="396.32" y1="29.46" x2="358.5" y2="75.22"/><line class="cls-1" x1="424.86" y1="29.46" x2="453.5" y2="75.22"/><line class="cls-1" x1="210.36" y1="92.07" x2="291.33" y2="92.07"/><path class="cls-2" d="M627,198.5a30.1,30.1,0,0,0-8.55,4.76l1.72-4.76-1.72-4.75A30.31,30.31,0,0,0,627,198.5Z" transform="translate(-329.64 -106.43)"/><path class="cls-2" d="M561,170.77h.34c.11,0,.29.18.57.56v.44a9.22,9.22,0,0,0-1.25,2c-.17,0-.58.64-1.23,1.81-.25,0-.82.37-1.68,1.12v2.59c0,.15.09.22.22.22,1-.13,1.57-.58,1.57-1.34q.12,0,.12-.24c-1,0-1.47-.37-1.47-1.12q2.94-.85,3.15-1.23v-.23c-.07-.4-.11-.62-.11-.68a.1.1,0,0,1,.11-.11l-.11-.57v-.32l.11-.57h.45c.19,0,.42.71.68,2.14l2.81-.91h.34c.15,0,.22.1.22.23V175l-3.27,1.8a1.17,1.17,0,0,0-.1.56c0,.07,0,.37.1.9h.12a21.62,21.62,0,0,1,3.72-1.35h.22a1.62,1.62,0,0,1,1.35,1l-.11.24.11.22-.79,7.19.12.23v.23l-.12.67a1,1,0,0,1,.12.56,1.9,1.9,0,0,1-.8.34,10.79,10.79,0,0,1-2.35-1.69,14,14,0,0,1-3.38,1.35c-.19,1.2-.61,1.81-1.24,1.81-.45-.3-.67-.56-.67-.79a37,37,0,0,0-.8-7.09h-.32v1l.1.68-.1.22c.08,1.45.16,2.38.22,2.81a.11.11,0,0,1-.12.12l.12,1.13v1.23c0,.11-.11.22-.34.34h-.12a11.19,11.19,0,0,1-1.79-2l.22-.11.45.33h.45l.23-2.81a19.35,19.35,0,0,1-.12-2.25.1.1,0,0,1-.11-.11,11.35,11.35,0,0,1-4.16,1.57q-.45,0-.9-.66v-.34c0-.2.79-.43,2.36-.68A14.56,14.56,0,0,0,557,180V177.4q0-.15-.33-.33h-.12a21.1,21.1,0,0,0-2.25.22,1,1,0,0,1-.9-.56v-.34c0-.23,1-.37,3.15-.44l.45-.46v-2.7l-.11-1.12a1.16,1.16,0,0,0,.34-.22c.1,0,.29.18.57.56v.44a.11.11,0,0,1-.12.12l.12.22v2.14c0,.07,0,.11-.12.11a.77.77,0,0,1,.12.34h.32c.31,0,.87-1,1.69-2.93C560.42,171.39,560.83,170.83,561,170.77Zm-.34,6.86.46.79a11.28,11.28,0,0,1-1.69,2.35v.34a1.64,1.64,0,0,0,.33,1c1.28-.24,1.92-.5,1.92-.79v-.23a9.12,9.12,0,0,0-.34-1.46l.34-.67c-.15-1-.31-1.58-.45-1.58h-.34C560.77,177.42,560.69,177.5,560.69,177.63Zm-.9,6.19c.14,1.65.29,2.47.46,2.47,1.12-.5,1.69-.84,1.69-1v-.1c0-1.43-.19-2.15-.57-2.15A4.3,4.3,0,0,0,559.79,183.82Zm2.93-3.49v1.91l.12.68a4.58,4.58,0,0,0-.34,1.35V185l.1.22a19.83,19.83,0,0,0,3.61-1.24,32.19,32.19,0,0,0,.57-5.63h-.46A8.23,8.23,0,0,0,562.72,180.33Zm2.81.44.57.57v.23c0,.27-.53.5-1.57.67H564c-.11,0-.27-.15-.45-.45v-.22A2.72,2.72,0,0,1,565.53,180.77Zm.12,4.28a.85.85,0,0,1-.23.46v.33h.45a.21.21,0,0,0,.23-.23v-.34a.2.2,0,0,0-.23-.22Z" transform="translate(-329.64 -106.43)"/><path class="cls-2" d="M575.76,171.84a24.36,24.36,0,0,1,6,6.31c3.88,4.41,6.28,6.76,7.21,7.08.36.2.55.35.56.45v.57c0,.11-.15.26-.46.44h-.1q-1.47,0-8.22-8l-.46-.34h-.1l-3.6,6.53C575,187,573.91,188,573.19,188c-.38,0-.61-.38-.68-1.13a2.06,2.06,0,0,0,1.46-1,33.47,33.47,0,0,0,4.72-7.66,2.85,2.85,0,0,0,.68-1.23q0-.53-3.93-4.17a1.22,1.22,0,0,1-.24-.67C575.2,172,575.39,171.9,575.76,171.84Z" transform="translate(-329.64 -106.43)"/><path class="cls-2" d="M601.47,187.47h-.37a1.81,1.81,0,0,1-1-.57,3.06,3.06,0,0,1,.66-.84h.09c.07,0,.1,0,.1.09a7.57,7.57,0,0,0,2.05-1.68c.29,0,.7-.63,1.22-1.88a.84.84,0,0,0,.1-.47V182c-.12-.88-.56-1.31-1.32-1.31a7.62,7.62,0,0,0-3.28,1.12,2.27,2.27,0,0,0-.75-.37l-.18-.66a12.86,12.86,0,0,1,2-1.31c1.49-1.51,2.24-2.76,2.24-3.75a1.94,1.94,0,0,0-1-1.13.78.78,0,0,1-.28-.09,5.45,5.45,0,0,0-1.68.84h-.1c-.48,0-.76-.12-.84-.37v-.47c0-.42.81-.83,2.43-1.22h.1c1.25.45,1.87.89,1.87,1.31a1.65,1.65,0,0,1,.58,1.13,5.25,5.25,0,0,1-1.61,3.56v.09h.47c.7,0,1.45.6,2.25,1.78a3.32,3.32,0,0,1,.19.85v.56a5,5,0,0,1-1.13,2.53A11.66,11.66,0,0,1,601.47,187.47Z" transform="translate(-329.64 -106.43)"/><path class="cls-2" d="M607.18,186.77h-.1a1.55,1.55,0,0,1-1.4-1c.07-.62.2-.93.38-.93h.17a3.29,3.29,0,0,1,.58.57h.08c.73,0,1.8-.94,3.19-2.82a4.59,4.59,0,0,0,.65-1.5v-.93h-.08a1.23,1.23,0,0,1-.57-.09c-2,.16-3,.38-3,.65a.65.65,0,0,0-.27.1,1,1,0,0,1-.85-1v-.11a10.45,10.45,0,0,0,.57-3.36,1,1,0,0,0-.47-.75.72.72,0,0,1-.1-.38c0-.11.25-.26.75-.47q0-.75.66-.75l.66.66h.09q.45,0,1.41-.09l.45.75v.09c0,.36-.72.64-2.15.84v.1l-.37,2.52.57-.1a6.14,6.14,0,0,1,3.09.48,3.53,3.53,0,0,1,.75,1.5,9.76,9.76,0,0,1-1.22,3,9.62,9.62,0,0,1-1.5,1.87A4.66,4.66,0,0,1,607.18,186.77Z" transform="translate(-329.64 -106.43)"/></svg>