<svg xmlns="http://www.w3.org/2000/svg" viewBox="0 0 379 279"><defs><style>.a{fill:none;stroke:#3ea69f;stroke-miterlimit:10;}.b{fill:#3ea69f;}</style></defs><circle class="a" cx="18.5" cy="53.5" r="18"/><path class="b" d="M424.24,312.05h3.86v-9.82h-3v-1.14a9.5,9.5,0,0,0,3.44-1h1.3v11.95h3.49v1.45h-9.09Z" transform="translate(-410 -254)"/><circle class="a" cx="106.5" cy="103.5" r="18"/><path class="b" d="M511.4,361.86l.88-1.13a5.41,5.41,0,0,0,3.84,1.57c1.83,0,3.19-.94,3.19-2.43s-1.34-2.67-4.85-2.67v-1.32c3.17,0,4.39-1.09,4.39-2.5s-1.11-2.1-2.73-2.1a5.12,5.12,0,0,0-3.3,1.34l-.92-1.09a6.51,6.51,0,0,1,4.28-1.68c2.52,0,4.43,1.24,4.43,3.4,0,1.62-1.19,2.65-2.85,3.2v.08c1.78.38,3.32,1.55,3.32,3.4,0,2.37-2.19,3.82-4.85,3.82A6.54,6.54,0,0,1,511.4,361.86Z" transform="translate(-410 -254)"/><circle class="a" cx="190.5" cy="103.5" r="18"/><path class="b" d="M603.38,351.62h-7.71V350.1h9.7v1.08c-3.55,4.05-4.41,7.07-4.62,12.32h-1.83A17.9,17.9,0,0,1,603.38,351.62Z" transform="translate(-410 -254)"/><circle class="a" cx="178.5" cy="201.5" r="18"/><path class="b" d="M583.82,455.31c0-5.38,2.68-7.46,5.6-7.46a5.32,5.32,0,0,1,3.74,1.43l-1,1.09a3.93,3.93,0,0,0-2.66-1.07c-2.19,0-4.08,1.53-4.08,6,0,3.29,1.26,5.08,3.49,5.08a2.78,2.78,0,0,0,2.81-2.94,2.55,2.55,0,0,0-2.83-2.84,4.73,4.73,0,0,0-3.51,1.89l-.06-1.36a5.68,5.68,0,0,1,3.88-1.83,3.81,3.81,0,0,1,4.18,4.14,4.32,4.32,0,0,1-4.47,4.3C586,461.75,583.82,459.61,583.82,455.31Z" transform="translate(-410 -254)"/><circle class="a" cx="234.5" cy="260.5" r="18"/><path class="b" d="M633.94,519.05h3.86v-9.82h-3v-1.14a9.5,9.5,0,0,0,3.44-1h1.3v11.95H643v1.45h-9.09Z" transform="translate(-410 -254)"/><path class="b" d="M645.68,518.93l.86-1.16a5.31,5.31,0,0,0,3.78,1.53,3.11,3.11,0,0,0,3.38-3c0-1.85-1.31-2.92-3.28-2.92a5,5,0,0,0-2.73.8l-.92-.59.44-6.45h7.58v1.52h-6l-.36,3.94a5.84,5.84,0,0,1,2.48-.54c2.56,0,4.6,1.3,4.6,4.2s-2.39,4.53-5,4.53A6.73,6.73,0,0,1,645.68,518.93Z" transform="translate(-410 -254)"/><circle class="a" cx="98.5" cy="201.5" r="18"/><path class="b" d="M503.38,459.93l.86-1.16A5.31,5.31,0,0,0,508,460.3a3.11,3.11,0,0,0,3.38-3c0-1.85-1.31-2.92-3.28-2.92a5,5,0,0,0-2.73.8l-.92-.59.44-6.45h7.58v1.52h-6.05l-.36,3.94a5.84,5.84,0,0,1,2.48-.54c2.56,0,4.6,1.3,4.6,4.2s-2.39,4.53-4.95,4.53A6.72,6.72,0,0,1,503.38,459.93Z" transform="translate(-410 -254)"/><circle class="a" cx="18.5" cy="219.5" r="18"/><path class="b" d="M429.93,470.28c0-.73.06-1.63.1-2.37h-.1c-.44.65-.93,1.3-1.37,1.95L425,474.4h8.69v1.4H423v-1.15l6.68-8.55h1.86v13.4h-1.63Z" transform="translate(-410 -254)"/><circle class="a" cx="179.5" cy="28.5" r="18"/><path class="b" d="M584.63,285.08c0-1.85,1.43-2.9,2.87-3.57v-.09a3.75,3.75,0,0,1-2-3.12c0-2.06,1.74-3.45,4.13-3.45,2.63,0,4.16,1.49,4.16,3.57a4.18,4.18,0,0,1-2,3.19v.09c1.47.73,2.63,1.57,2.63,3.48s-1.74,3.57-4.81,3.57S584.63,287.2,584.63,285.08Zm8.06,0c0-1.85-1.87-2.33-4.2-3.11-1.3.7-2.29,1.56-2.29,2.9s1.33,2.54,3.38,2.54S592.69,286.51,592.69,285.12Zm-.44-6.61a2.39,2.39,0,0,0-2.69-2.36,2.22,2.22,0,0,0-2.5,2.15c0,1.59,1.54,2.26,3.53,2.89A3.39,3.39,0,0,0,592.25,278.51Z" transform="translate(-410 -254)"/><circle class="a" cx="286.5" cy="18.5" r="18"/><path class="b" d="M691.86,277.35l1-1.1a4,4,0,0,0,2.67,1.05c2.16,0,4.07-1.53,4.07-6,0-3.3-1.28-5.06-3.48-5.06a2.77,2.77,0,0,0-2.84,2.92A2.57,2.57,0,0,0,696.1,272a4.69,4.69,0,0,0,3.49-1.89l.06,1.37a5.55,5.55,0,0,1-3.89,1.82,3.79,3.79,0,0,1-4.15-4.13,4.32,4.32,0,0,1,4.45-4.31c2.92,0,5.14,2.14,5.14,6.45,0,5.37-2.71,7.45-5.6,7.45A5.44,5.44,0,0,1,691.86,277.35Z" transform="translate(-410 -254)"/><circle class="a" cx="286.5" cy="79.5" r="18"/><path class="b" d="M685.94,338.05h3.86v-9.82h-3v-1.14a9.5,9.5,0,0,0,3.44-1h1.3v11.95H695v1.45h-9.09Z" transform="translate(-410 -254)"/><path class="b" d="M698,332.76c0-4.49,1.83-6.91,4.81-6.91s4.81,2.42,4.81,6.91-1.83,7-4.81,7S698,337.21,698,332.76Zm8,0c0-3.84-1.32-5.5-3.19-5.5s-3.19,1.66-3.19,5.5,1.32,5.59,3.19,5.59S706,336.6,706,332.76Zm-4.49-.15a1.3,1.3,0,1,1,1.3,1.41A1.3,1.3,0,0,1,701.5,332.61Z" transform="translate(-410 -254)"/><circle class="a" cx="360.5" cy="79.5" r="18"/><path class="b" d="M759.94,338.05h3.86v-9.82h-3v-1.14a9.5,9.5,0,0,0,3.44-1h1.3v11.95H769v1.45h-9.09Z" transform="translate(-410 -254)"/><path class="b" d="M772.54,338.05h3.86v-9.82h-3v-1.14a9.5,9.5,0,0,0,3.44-1h1.3v11.95h3.49v1.45h-9.09Z" transform="translate(-410 -254)"/><circle class="a" cx="286.5" cy="140.5" r="18"/><path class="b" d="M685.94,399.05h3.86v-9.82h-3v-1.14a9.5,9.5,0,0,0,3.44-1h1.3v11.95H695v1.45h-9.09Z" transform="translate(-410 -254)"/><path class="b" d="M698,399.47c4.54-4,7-6.36,7-8.59,0-1.53-.92-2.6-2.89-2.6a4.58,4.58,0,0,0-3.21,1.6l-1-1a6,6,0,0,1,4.43-2c2.68,0,4.36,1.58,4.36,3.95s-2.51,5-6.15,8.31c.84-.06,1.7-.1,2.5-.1h4.39v1.49H698Z" transform="translate(-410 -254)"/><circle class="a" cx="286.5" cy="201.5" r="18"/><path class="b" d="M685.94,460.05h3.86v-9.82h-3v-1.14a9.5,9.5,0,0,0,3.44-1h1.3v11.95H695v1.45h-9.09Z" transform="translate(-410 -254)"/><path class="b" d="M697.7,459.86l.88-1.13a5.41,5.41,0,0,0,3.84,1.57c1.83,0,3.19-.94,3.19-2.43s-1.34-2.67-4.85-2.67v-1.32c3.17,0,4.39-1.09,4.39-2.5s-1.11-2.1-2.73-2.1a5.12,5.12,0,0,0-3.3,1.34l-.92-1.09a6.51,6.51,0,0,1,4.28-1.68c2.52,0,4.43,1.24,4.43,3.4,0,1.62-1.19,2.65-2.85,3.2v.08c1.78.38,3.32,1.55,3.32,3.4,0,2.37-2.19,3.82-4.85,3.82A6.54,6.54,0,0,1,697.7,459.86Z" transform="translate(-410 -254)"/><circle class="a" cx="360.5" cy="201.5" r="18"/><path class="b" d="M759.94,460.05h3.86v-9.82h-3v-1.14a9.5,9.5,0,0,0,3.44-1h1.3v11.95H769v1.45h-9.09Z" transform="translate(-410 -254)"/><path class="b" d="M778.23,452.28c0-.73.06-1.63.1-2.37h-.1c-.44.65-.93,1.3-1.37,1.95l-3.61,4.54h8.69v1.4H771.32v-1.15L778,448.1h1.86v13.4h-1.63Z" transform="translate(-410 -254)"/><circle class="a" cx="18.5" cy="145.5" r="18"/><path class="b" d="M423.73,404.47c4.54-4,7-6.36,7-8.59,0-1.53-.93-2.6-2.9-2.6a4.58,4.58,0,0,0-3.21,1.6l-1-1a6,6,0,0,1,4.43-2c2.69,0,4.37,1.58,4.37,3.95s-2.52,5-6.16,8.31c.84-.06,1.7-.1,2.5-.1h4.39v1.49h-9.43Z" transform="translate(-410 -254)"/><line class="a" x1="34" y1="137" x2="74.56" y2="117.6"/><path class="b" d="M490,369a30.27,30.27,0,0,0-5.66,8l-.5-5-3.6-3.55A30.2,30.2,0,0,0,490,369Z" transform="translate(-410 -254)"/><line class="a" x1="124" y1="103" x2="159.47" y2="102.57"/><path class="b" d="M575.5,356.5a30.24,30.24,0,0,0-8.49,4.86l1.66-4.78-1.77-4.73A30.09,30.09,0,0,0,575.5,356.5Z" transform="translate(-410 -254)"/><line class="a" x1="34.5" y1="61.5" x2="75.39" y2="87.28"/><path class="b" d="M490.5,344.5a30.49,30.49,0,0,0-9.77-.54l4-3.1,1.09-4.94A30,30,0,0,0,490.5,344.5Z" transform="translate(-410 -254)"/><line class="a" x1="118.5" y1="89.5" x2="157.23" y2="50.77"/><path class="b" d="M571.5,300.5a30.36,30.36,0,0,0-2.68,9.41l-2.15-4.58-4.58-2.15A30.36,30.36,0,0,0,571.5,300.5Z" transform="translate(-410 -254)"/><line class="a" x1="197.5" y1="24.5" x2="255.49" y2="19.06"/><path class="b" d="M671.5,272.5a30.17,30.17,0,0,0-8.07,5.53l1.27-4.89-2.15-4.58A29.83,29.83,0,0,0,671.5,272.5Z" transform="translate(-410 -254)"/><line class="a" x1="203.5" y1="90.5" x2="261.99" y2="38.51"/><path class="b" d="M676.5,288.5a30.35,30.35,0,0,0-3.23,9.23L671.4,293,667,290.62A30,30,0,0,0,676.5,288.5Z" transform="translate(-410 -254)"/><line class="a" x1="207.5" y1="97.5" x2="255.61" y2="86.81"/><path class="b" d="M671.5,339.5a30.06,30.06,0,0,0-7.31,6.5l.65-5-2.72-4.27A30.1,30.1,0,0,0,671.5,339.5Z" transform="translate(-410 -254)"/><line class="a" x1="207.5" y1="109.5" x2="257.85" y2="128.38"/><path class="b" d="M673.5,384.5a30.37,30.37,0,0,0-9.67,1.45l3.28-3.85.06-5.05A30,30,0,0,0,673.5,384.5Z" transform="translate(-410 -254)"/><line class="a" x1="202.5" y1="116.5" x2="261.49" y2="182.99"/><path class="b" d="M675.5,441.5a30.37,30.37,0,0,0-9.23-3.24l4.7-1.87,2.41-4.44A30.23,30.23,0,0,0,675.5,441.5Z" transform="translate(-410 -254)"/><line class="a" x1="304.5" y1="79.5" x2="328.46" y2="79.5"/><path class="b" d="M744.5,333.5a30.1,30.1,0,0,0-8.55,4.76l1.72-4.76L736,328.75A30.31,30.31,0,0,0,744.5,333.5Z" transform="translate(-410 -254)"/><line class="a" x1="305" y1="201.5" x2="328.96" y2="201.5"/><path class="b" d="M745,455.5a30.1,30.1,0,0,0-8.55,4.76l1.72-4.76-1.72-4.75A30.31,30.31,0,0,0,745,455.5Z" transform="translate(-410 -254)"/><line class="a" x1="36.5" y1="215.5" x2="67.6" y2="208.78"/><path class="b" d="M483.5,461.5a30.28,30.28,0,0,0-7.35,6.45l.68-5-2.69-4.28A30.23,30.23,0,0,0,483.5,461.5Z" transform="translate(-410 -254)"/><line class="a" x1="116.5" y1="201.5" x2="145.46" y2="201.5"/><path class="b" d="M561.5,455.5a30.1,30.1,0,0,0-8.55,4.76l1.72-4.76L553,450.75A30.31,30.31,0,0,0,561.5,455.5Z" transform="translate(-410 -254)"/><line class="a" x1="182.5" y1="183.5" x2="188.75" y2="133.49"/><path class="b" d="M599.5,381.5a30,30,0,0,0,3.66,9.07l-4.51-2.3-4.93,1.12A30.21,30.21,0,0,0,599.5,381.5Z" transform="translate(-410 -254)"/><line class="a" x1="190.5" y1="214.5" x2="212.39" y2="238.08"/><path class="b" d="M626.5,496.5a30.45,30.45,0,0,0-9.3-3l4.65-2,2.32-4.5A30.2,30.2,0,0,0,626.5,496.5Z" transform="translate(-410 -254)"/></svg>