<svg id="图层_1" data-name="图层 1" xmlns="http://www.w3.org/2000/svg" viewBox="0 0 159 70"><defs><style>.cls-1{fill:#3ea69f;}.cls-2{fill:none;stroke:#3ea69f;stroke-miterlimit:10;}</style></defs><path class="cls-1" d="M269.69,160.22c.56.32.84.69.84,1.1,0,.56-.08,1-.08,1.27h.5a4.13,4.13,0,0,0,1.95-.85c.17,0,.25.11.25.34,0,.41-.62.89-1.85,1.43-.62,0-1,.62-1.19,1.86s-.33,1.85-.33,2v.09h.16c1.3-.14,1.95-.51,1.95-1.1l.33-.08a1.42,1.42,0,0,0,.68.25l1-.33H274c.12,0,.17.07.17.16a10.82,10.82,0,0,1-1.52,1.6,28.39,28.39,0,0,0-.5,3.8v.42h.26a12.82,12.82,0,0,1,2.1-.33,1.07,1.07,0,0,1,.59.5v.09q0,.36-6.16,1.26a1.39,1.39,0,0,1-.25-.67,8.74,8.74,0,0,0,2.19-.76c.23-1.42.45-2.66.68-3.72-.09-.22-.17-.33-.25-.33q-1.95.16-1.95.84c-.39,1.61-.87,2.56-1.43,2.87a4.7,4.7,0,0,1-1.43.59h-.09a.15.15,0,0,1-.17-.17v-.25a3.47,3.47,0,0,0,1.52-2.36q.25-.87,1.27-5.32v-.51l-.42.09h-.42c-1.36,0-2-.17-2-.51v-.33l.08-.17.85.08h1.43c.56,0,.84-.34.84-1a10.27,10.27,0,0,0,.09-1.69A.9.9,0,0,0,269.69,160.22Z" transform="translate(-248.5 -114.5)"/><path class="cls-1" d="M281,160.56h.17c.3,0,.61.61.93,1.85h.08a19,19,0,0,1,4.38-1.43l.35.59q0,.94-2.88,4.05v.09a8,8,0,0,1,2-.85.76.76,0,0,0,.16.25,26.12,26.12,0,0,0-3.62,6.75l-.25.18h-.17a.16.16,0,0,1-.18-.18c.07-1.06.86-2.85,2.37-5.4.06,0,.09,0,.09-.08h-.17c-1,.43-1.52.77-1.52,1s-.06.34-.17.34-.57-1.41-.93-4.22l-.76-2.62v-.17C280.84,160.61,280.9,160.56,281,160.56Zm1.27,2.62a17,17,0,0,0,.5,2.95,13.79,13.79,0,0,0,2.53-2.95,9.83,9.83,0,0,0,.6-1.27h-.09Zm3.79,2.61h.34c.16,0,.27.28.34.84v.76c-.17,3.13-.25,4.9-.25,5.31l.16.09a16.44,16.44,0,0,0,4.64-2.2v-.08a9.37,9.37,0,0,0-1.85-2.61,3.77,3.77,0,0,1-.26-1.6h.17q0,1.32,2.7,4v.42q0,.63-5.31,2.61h-.51c-.15,0-.32-.31-.51-.92.17-2,.26-3.49.26-4.56,0-.11,0-.78-.08-2Z" transform="translate(-248.5 -114.5)"/><path class="cls-1" d="M303.86,157.63q.39.06.39.33V158a2.12,2.12,0,0,1-.51,1l-1,1.57a2.51,2.51,0,0,0-.59,1.06.51.51,0,0,0-.12.13h0l1.67-.48h.08c.24,0,.42.18.55.53V162c0,.34-.67,1.1-2,2.28v.3l0,0c0,.06,0,.08,0,.08a6,6,0,0,1,1.55-.38h.1c.19,0,.28.11.28.33s-.53.5-1.59.91c-.26.1-.38.17-.38.21s0,0,0,.07V167c0,.08,0,.2,0,.37a15.94,15.94,0,0,1,2.8-.73c.83-.1,1.46-.19,1.88-.25.4.11.61.31.61.61l0,.22c-.09.58-.3,1.65-.66,3.22q-.31,2.37-.51,2.37a.76.76,0,0,1-.5.26q-.49,0-1.47-1.47a15,15,0,0,1-1-1.21c0-.14.09-.2.2-.2h0c.09,0,.33.22.71.66a8.34,8.34,0,0,0,1.29,1h0a44.3,44.3,0,0,1,.89-4.55,0,0,0,0,1,0,0,17,17,0,0,0-3.49.78c-.21.07-.32.18-.32.33a11,11,0,0,1-.48,1V170c0,.49.09,2.34.27,5.56v.11c-.05.44-.22.66-.53.66s-.48-.27-.61-.79a7.41,7.41,0,0,1-.33-1.57v-.18h0a3,3,0,0,1,.48.69v-.05c-.08-1.84-.12-3-.12-3.65l-.06,0a6.31,6.31,0,0,1-1.54,1.7,3,3,0,0,1-.93.46c-.16,0-.23-.07-.23-.1s.25-.43.75-.91a27.9,27.9,0,0,0,2-2.87v-.2a16.56,16.56,0,0,1-2.76,1.32h-.08c-.22,0-.36-.18-.43-.53v-.05c.36-.84.73-1.87,1.12-3.09a.6.6,0,0,1-.08-.23v-.05a.44.44,0,0,1,.25-.38c.2-.62.39-.94.58-.94h.11c.12,0,.22.09.3.26a6.48,6.48,0,0,0,1.09-1.09v-1l0-.14h-.05a11,11,0,0,1-3.11.65h-.35c-.68,0-1.07-.2-1.17-.58v-.13q.14-.45.51-.45h0c.09,0,.19.08.3.25h.31a14.34,14.34,0,0,0,3.87-.76v0q-.36,0-.36-.27a7.47,7.47,0,0,1,.51-1.78,12,12,0,0,1,1.42-2.07Zm-4.38,11.16h.06l1.95-1v0c0-.36,0-.91,0-1.65l-1.32.46A14.72,14.72,0,0,1,299.48,168.79Zm.89-10.85c.46,0,.9.89,1.32,2.68v.1a.35.35,0,0,1-.16.06c-.26,0-.56-.28-.9-.85l-.64-1.64v0C300,158.08,300.12,158,300.37,157.94Zm1.93,4.74q0,.16.06.72a5.47,5.47,0,0,0,.76-.94h0Z" transform="translate(-248.5 -114.5)"/><path class="cls-1" d="M315.49,124.75a5.27,5.27,0,0,1,.85,1.36l.17.08h.08l.34-.26.51.68a1,1,0,0,1,.76.51v.25a6.89,6.89,0,0,1-2.11,1.52,6.22,6.22,0,0,0-.09.93v.84c0,.11.08.17.17.17h.59c.86,0,1.4.17,1.61.51v.08c0,.13-.14.21-.43.25-.93-.11-1.54-.17-1.85-.17v.09c.05,1,.08,1.61.08,1.86a.64.64,0,0,0-.08.25l4-1.1h.34c.08,0,.17.09.25.26s-.62.49-1.85.92a18.83,18.83,0,0,1-1.27,4.56v.08a4.67,4.67,0,0,1,1.6,1.1v.17c0,.08-.08.16-.25.25h-.08a15,15,0,0,1-1.78-.67c-.5,1.18-1,1.77-1.6,1.77s-.67-.25-.67-.76l.16-.08H315l.42.08a3.3,3.3,0,0,0,.85-1.52,19.94,19.94,0,0,0-2.53-1l-.09-.17v-.26a13.93,13.93,0,0,0,.84-2.11h-.08a7.58,7.58,0,0,1-2.36.85h-.26c-.08,0-.16-.08-.25-.25v-.09c0-.17,1.12-.68,3.37-1.52a5.8,5.8,0,0,1,.51-1.43l-.08-.17v-.93c-.12,0-.17,0-.17-.08-.77.68-1.28,1-1.52,1s-.17,0-.17-.16v-.09c1.13-1.47,1.69-2.45,1.69-2.95v-.09h-.09l-2.7,1.35c-.22-.08-.33-.17-.33-.25v-.17a14.77,14.77,0,0,1,2.44-1.78c.39-.32.59-.52.59-.58v-2C315.07,125.21,315.21,124.84,315.49,124.75Zm-3.28,1.78h.16c.87,1.13,1.52,1.69,1.94,1.69v.08a1.15,1.15,0,0,1-.75.25c-.53,0-1-.51-1.52-1.52v-.33C312.06,126.59,312.11,126.53,312.21,126.53Zm2.36,10.63a12,12,0,0,1,2.19.76,18.2,18.2,0,0,0,1.35-3.88h-.17c-1.79.46-2.69.91-2.69,1.35A15.86,15.86,0,0,1,314.57,137.16Zm1.34-11V127a.7.7,0,0,0,.43-.68l-.34-.24Zm.35,1.77V128c.84-.38,1.26-.63,1.26-.76s-.14-.19-.42-.34A5.32,5.32,0,0,0,316.26,127.88Zm2.79,6.63a.09.09,0,0,1,.07,0,1.51,1.51,0,0,0-.13-.29l-.23-1.2.2,0c.3,0,1.06.76,2.27,2.28a22.14,22.14,0,0,0,1.69-3.29v-.17h-.09a4.7,4.7,0,0,1-2.53.84c-.78,0-1.18-.48-1.18-1.43.17-1.63.37-2.45.59-2.45a.52.52,0,0,1,.42.51l-.25,1.94c.12.35.26.55.42.59h.17a10.74,10.74,0,0,0,3.46-1.18H324c.07,0,.16.08.24.25s-.64,1.51-1.93,4.13a4,4,0,0,0-.42,1.19l2,2.53v.08a.15.15,0,0,1-.17.17h-.08c-.38,0-1-.56-1.95-1.69h-.16c-.75,1.07-1.48,1.61-2.19,1.61-.45,0-.68-.28-.68-.84l.17-.09c0,.07.14.19.42.34h.09a3.83,3.83,0,0,0,1.34-1.94v-.26a7.63,7.63,0,0,0-1.52-1.52.64.64,0,0,1-.1.13Z" transform="translate(-248.5 -114.5)"/><path class="cls-1" d="M330.79,127.23h.07c.12,0,.24.17.35.43a9.84,9.84,0,0,0-.09,1.18v.59a2.92,2.92,0,0,0,.93-.25l.08.16a2.8,2.8,0,0,0-1,1.69v1.52l.09.17.75-.34h.09c.11,0,.17.08.17.17-.68.62-1,1.12-1,1.52v3c0,.3,0,.77.08,1.43l-.34.26h-.09a6.5,6.5,0,0,1-2.61-1.86l.17-.08a10.22,10.22,0,0,0,1.94.75v-3.28h-.17a7.66,7.66,0,0,1-2.36,1.43h-.17c-.09,0-.2-.11-.34-.34s1-.86,2.87-2l.17-.25v-1.51c0-.42-.08-.64-.25-.68a3.35,3.35,0,0,1-1.61.59h-.33c-.08,0-.22-.14-.43-.42V131c.08-.19.87-.5,2.37-.92a.94.94,0,0,0,.25-.59v-1.86C330.36,127.58,330.5,127.44,330.79,127.23Zm4.46-1.17h.18a.94.94,0,0,1,.84.58v.51a22.57,22.57,0,0,1-1,2.28h.09l.33-.17a.57.57,0,0,1,.09.26c-.12.37-.74.88-1.85,1.51,0,.33,0,1.26.07,2.79l.18.08c.73-.31,1.09-.62,1.09-.93v-.59c0-.95.21-1.43.51-1.43h.09c.16.05.24.22.24.5a13.47,13.47,0,0,1-.16,1.44c.06,0,.09,0,.09.08a3,3,0,0,1,1.34-.59,11.66,11.66,0,0,1-1.43,1.69v.09c0,1-.06,1.43-.17,1.43a.57.57,0,0,1,.09.26l3.29-1.1h.16c.08,0,.17.08.26.25v.25a10.78,10.78,0,0,1-1.78,2.62c0,.34-.53.93-1.6,1.77h-.25l-.34-.25h-.08c-.05,0-.21.17-.51.5-.36,0-.73-1-1.09-3v-.26c0-.39.16-.59.5-.59.13.28.3.43.51.43a.59.59,0,0,0,.51-.59c0-.07,0-.35-.09-.85h.09a1,1,0,0,1-.09-.51h-.42c-.81,0-1.29.85-1.44,2.53a9.39,9.39,0,0,1-.76,2.37q-.42-.15-.42-.42l.67-3.89a.83.83,0,0,1-.5-.42,3.14,3.14,0,0,0,.76-1l-.09-.42c-.15-4-.31-6-.5-6q-.84,0-.84-.66Q331.8,126.24,335.25,126.06Zm-1.77,1.35.08.42v1.27c0,.61.09.92.26.92a5.65,5.65,0,0,0,1.85-2.79v-.16l-.16-.26C334.16,127,333.48,127.2,333.48,127.41Zm1.77,9.61-.59-.08a8.68,8.68,0,0,0,.42,2.11h.17q1.06,0,3.13-3v-.16h-.09A26.09,26.09,0,0,1,335.25,137Z" transform="translate(-248.5 -114.5)"/><path class="cls-1" d="M352.46,160.06l.43.67v.34l-.51,1.77.16.08.17-.08a.76.76,0,0,0,.25.08,4.81,4.81,0,0,1,1.86-.5l.09.17v.25c0,.26-1,.68-3,1.27l-1.09,2.78q.42,1.44.75,1.44c2.82-.74,4.31-1.1,4.48-1.1a2.63,2.63,0,0,1,.75.51c0,.58-.9,1.78-2.7,3.62.57.13.85.39.85.76v.17a.15.15,0,0,1-.17.17h-.17a7.91,7.91,0,0,1-.93-.08,7.47,7.47,0,0,1-2,.67v.17l.08.42a2,2,0,0,1-1,.25q-.45,0-.68-5.48h-.25a5.87,5.87,0,0,1-2.7,2.87.74.74,0,0,1-.34.08,1.16,1.16,0,0,1-.25-.76v-.09l.76-.42a35.4,35.4,0,0,0,2.53-4.38c.11,0,.31-.45.59-1.35h-.08c-1.8,0-2.7-.22-2.7-.67v-.26c0-.08.11-.17.33-.25.62,0,1.15.08,1.61.08,1.07,0,1.6-.17,1.6-.51C351.48,161,351.93,160.06,352.46,160.06Zm-1.1,9.95c.05,1.3.16,2,.34,2,.44,0,1.7-1.16,3.8-3.47h-.08a30.71,30.71,0,0,0-4,1.18A.74.74,0,0,0,351.36,170Z" transform="translate(-248.5 -114.5)"/><path class="cls-1" d="M362,163h.33c.64.19,1,1.37,1.1,3.54l-.51,2.95a3.35,3.35,0,0,1,.17.76v.34q0,.27-1,.42H362l-.35-.25a22.47,22.47,0,0,0,.68-4.81v-.51a4.49,4.49,0,0,0-.68-2.19Zm3.54-1.52h.33c.32,0,.51,1.13.59,3.29-.05.53-.08,1-.08,1.52v3.46a5.21,5.21,0,0,0,.26,1.69h.24q1.91-.54,5.41-4.31a.68.68,0,0,0,.08-.26,17.2,17.2,0,0,1-2.28-1.93v-.09c0-.11.07-.16.17-.16.65,0,1.63.61,2.95,1.85l.09.42v.09q-.83,2.1-4.13,4.39a4.55,4.55,0,0,1-2.2,1h-.51c-.61,0-.92-.76-.92-2.28a5,5,0,0,1-.09-1.26q0-.39.09-1.95a.08.08,0,0,0-.09-.09l.09-.58v-1.6c0-.55-.06-1.59-.17-3.12Z" transform="translate(-248.5 -114.5)"/><path class="cls-1" d="M384.9,160.35c.29,0,.51.36.68,1.09a13,13,0,0,1-1.86,3.21v.08a3.67,3.67,0,0,0,.93.42,16.07,16.07,0,0,1,3.71-.75c0-.1.14-.16.42-.17l.34.59.26.17c0,.62-.3.93-.77.93h-.16l-.59-.18a11.52,11.52,0,0,0-3,.68l.08.84v1.27c0,.06,0,.09-.08.09l.08.16c-.5,2.16-.81,3.71-.92,4.64a.63.63,0,0,0-.34.17h-.08c-1.58-1.32-2.37-2.3-2.37-3l.17-.08c.92,1,1.54,1.51,1.86,1.51a18.53,18.53,0,0,0,.84-5.06.69.69,0,0,1-.08-.25h-.17a21.73,21.73,0,0,1-4.39.59l-.17-.09c-.05,0-.08,0-.08.09l-1.86-.42-.25-.34c.06-.34.14-.51.25-.51.81.12,1.24.17,1.26.17l.18-.09c.05,0,.08,0,.08.09l.42-.09H380c1.35,0,2-.22,2-.66,1.58-2.15,2.36-3.44,2.36-3.89v-.17h-.08a15.62,15.62,0,0,1-3.2.43.88.88,0,0,1-.17-.26v-.25C380.94,161,382.26,160.7,384.9,160.35Z" transform="translate(-248.5 -114.5)"/><rect class="cls-2" x="0.5" y="0.5" width="158" height="69"/><polyline class="cls-2" points="0.5 35 79.5 35 158.5 35"/><line class="cls-2" x1="79.5" y1="69.5" x2="80" y2="35"/></svg>