<svg id="图层_1" data-name="图层 1" xmlns="http://www.w3.org/2000/svg" viewBox="0 0 124 111"><defs><style>.cls-1{fill:none;stroke:#3ea69f;stroke-miterlimit:10;}.cls-2{fill:#3ea69f;}</style></defs><circle class="cls-1" cx="62.5" cy="18.5" r="18"/><path class="cls-2" d="M595.68,164.74h0l-.11.76h-.93v-10h1.17v2.71l-.06,1.32h0a3.37,3.37,0,0,1,2.28-1c1.84,0,2.83,1.36,2.83,3.46,0,2.33-1.45,3.69-3.06,3.69A3.33,3.33,0,0,1,595.68,164.74Zm4-2.74c0-1.5-.56-2.5-1.92-2.5a2.87,2.87,0,0,0-2,1v3.39a2.82,2.82,0,0,0,1.83.79C598.78,164.69,599.67,163.68,599.67,162Z" transform="translate(-538 -143)"/><path class="cls-2" d="M602.84,163.61h.55l.05.66h0a2,2,0,0,1,1.46-.75c.92,0,1.34.54,1.34,1.57v2.41h-.66v-2.33c0-.73-.26-1.08-.89-1.08-.46,0-.77.24-1.22.7v2.71h-.67Z" transform="translate(-538 -143)"/><circle class="cls-1" cx="18.5" cy="92.5" r="18"/><path class="cls-2" d="M552.68,238.74h0l-.11.76h-.93v-10h1.17v2.71l-.06,1.32h0a3.37,3.37,0,0,1,2.28-1c1.84,0,2.83,1.36,2.83,3.46,0,2.33-1.45,3.69-3.06,3.69A3.33,3.33,0,0,1,552.68,238.74Zm4-2.74c0-1.5-.56-2.5-1.92-2.5a2.87,2.87,0,0,0-2,1v3.39a2.82,2.82,0,0,0,1.83.79C555.78,238.69,556.67,237.68,556.67,236Z" transform="translate(-538 -143)"/><path class="cls-2" d="M561.62,238.15h-1.8v-.54h2.46v3.89h-.66Zm-.27-1.86a.5.5,0,0,1,.53-.51.51.51,0,1,1,0,1A.5.5,0,0,1,561.35,236.29Z" transform="translate(-538 -143)"/><circle class="cls-1" cx="105.5" cy="91.5" r="18"/><path class="cls-2" d="M629.68,237.74h0l-.11.76h-.93v-10h1.17v2.71l-.06,1.32h0a3.37,3.37,0,0,1,2.29-1c1.83,0,2.82,1.36,2.82,3.46,0,2.33-1.45,3.69-3.06,3.69A3.33,3.33,0,0,1,629.68,237.74Zm4-2.74c0-1.5-.56-2.5-1.92-2.5a2.87,2.87,0,0,0-2,1v3.39a2.82,2.82,0,0,0,1.83.79C632.78,237.69,633.67,236.68,633.67,235Z" transform="translate(-538 -143)"/><path class="cls-2" d="M637.24,236.61h.55l.05.66h0a2,2,0,0,1,1.46-.75c.92,0,1.34.54,1.34,1.57v2.41H640v-2.33c0-.73-.26-1.08-.89-1.08-.46,0-.77.24-1.22.7v2.71h-.67Z" transform="translate(-538 -143)"/><path class="cls-2" d="M642,237.61h3.44v.5H642Z" transform="translate(-538 -143)"/><path class="cls-2" d="M648.62,237.15h-1.8v-.54h2.46v3.89h-.66Zm-.27-1.86a.5.5,0,0,1,.53-.51.51.51,0,1,1,0,1A.5.5,0,0,1,648.35,235.29Z" transform="translate(-538 -143)"/><path class="cls-2" d="M651.58,237.61H655v.5h-3.44Z" transform="translate(-538 -143)"/><path class="cls-2" d="M656.47,240H658v-3.74H656.8v-.44a3.55,3.55,0,0,0,1.31-.37h.5V240h1.33v.55h-3.47Z" transform="translate(-538 -143)"/><line class="cls-1" x1="52" y1="33" x2="25" y2="76"/><line class="cls-1" x1="73" y1="33" x2="99" y2="75"/></svg>