<svg xmlns="http://www.w3.org/2000/svg" viewBox="0 0 418.62 222.15"><defs><style>.a{fill:none;stroke:#3ea69f;stroke-miterlimit:10;}.b{fill:#3ea69f;}</style></defs><circle class="a" cx="58.38" cy="70.5" r="18"/><path class="b" d="M417,303.3h1.78l2.36,5.77c.4,1,.77,2,1.13,3h.08c.36-1,.7-2,1.12-3l2.35-5.77h1.68l-4.24,10.2h-2Z" transform="translate(-370.12 -237)"/><path class="b" d="M431.46,313.1c0-2.75,1.32-4.32,3.34-4.32s3.34,1.57,3.34,4.32-1.33,4.37-3.34,4.37S431.46,315.89,431.46,313.1Zm5.35,0c0-2.18-.81-3.23-2-3.23s-2,1.05-2,3.23.82,3.3,2,3.3S436.81,315.31,436.81,313.1Z" transform="translate(-370.12 -237)"/><circle class="a" cx="144.38" cy="122.5" r="18"/><path class="b" d="M503,355.3h1.78l2.36,5.77c.4,1,.77,2,1.13,3h.08c.36-1,.7-2,1.12-3l2.35-5.77h1.68l-4.24,10.2h-2Z" transform="translate(-370.12 -237)"/><path class="b" d="M517.82,368.44c2.81-2.39,4.3-3.57,4.3-4.81a1.62,1.62,0,0,0-1.78-1.7,2.5,2.5,0,0,0-2,1.18l-.79-.74a3.58,3.58,0,0,1,3-1.59c1.74,0,2.94.92,2.94,2.66,0,1.58-1.47,2.75-3.47,4.62h3.86v1.16h-6Z" transform="translate(-370.12 -237)"/><circle class="a" cx="144.38" cy="203.5" r="18"/><path class="b" d="M503,436.3h1.78l2.36,5.77c.4,1,.77,2,1.13,3h.08c.36-1,.7-2,1.12-3l2.35-5.77h1.68l-4.24,10.2h-2Z" transform="translate(-370.12 -237)"/><path class="b" d="M517.48,448.87l.88-.69a2.74,2.74,0,0,0,2.29,1.22c1,0,1.85-.53,1.85-1.45s-.88-1.45-2.75-1.45v-.86c1.66,0,2.43-.65,2.43-1.49s-.67-1.28-1.68-1.28a2.56,2.56,0,0,0-1.88,1l-.8-.71a3.58,3.58,0,0,1,2.87-1.36c1.54,0,2.84.84,2.84,2.2,0,1-.55,1.6-1.64,2a2.09,2.09,0,0,1,2,2c0,1.51-1.4,2.46-3.1,2.46A3.86,3.86,0,0,1,517.48,448.87Z" transform="translate(-370.12 -237)"/><circle class="a" cx="246.38" cy="203.5" r="18"/><path class="b" d="M605,436.3h1.79l2.35,5.77c.4,1,.77,2,1.13,3h.08c.36-1,.7-2,1.12-3l2.35-5.77h1.68l-4.24,10.2h-2Z" transform="translate(-370.12 -237)"/><path class="b" d="M619.48,448.87l.88-.69a2.71,2.71,0,0,0,2.33,1.22,1.79,1.79,0,0,0,1.89-1.81,1.81,1.81,0,0,0-2-1.78,2.5,2.5,0,0,0-1.66.65l-.67-.46.4-4h4.89v1.19h-3.8l-.21,2a3.58,3.58,0,0,1,1.51-.32,2.67,2.67,0,0,1,2.9,2.75,2.89,2.89,0,0,1-3.15,2.82A3.86,3.86,0,0,1,619.48,448.87Z" transform="translate(-370.12 -237)"/><circle class="a" cx="219.38" cy="70.5" r="18"/><path class="b" d="M578,303.3h1.78l2.36,5.77c.4,1,.77,2,1.13,3h.08c.36-1,.7-2,1.12-3l2.35-5.77h1.68l-4.24,10.2h-2Z" transform="translate(-370.12 -237)"/><path class="b" d="M592.61,314.34l3.21-5.56,1,.54-2.75,4.75h5.12v1h-6.59Zm4.15-2.71H598v5.59h-1.22Z" transform="translate(-370.12 -237)"/><circle class="a" cx="380.38" cy="70.5" r="18"/><path class="b" d="M739,303.3h1.79l2.35,5.77c.4,1,.77,2,1.13,3h.08c.36-1,.7-2,1.12-3l2.35-5.77h1.68l-4.24,10.2h-2Z" transform="translate(-370.12 -237)"/><path class="b" d="M753.67,315.22a2.57,2.57,0,0,1,1.76-2.31v-.08c-.92-.53-1.42-1-1.42-1.89,0-1.28,1.09-2.16,2.77-2.16s2.81.84,2.81,2.16a2.22,2.22,0,0,1-1.45,2V313c1.18.52,1.72,1.15,1.72,2.18,0,1.3-1.17,2.29-3.08,2.29S753.67,316.46,753.67,315.22Zm4.93-.1c0-1-1.11-1.26-2.33-1.75-.94.49-1.32,1.05-1.32,1.75s.59,1.38,1.83,1.38S758.6,315.87,758.6,315.12Zm-.27-4.12c0-.73-.59-1.2-1.57-1.2s-1.49.51-1.49,1.18.81,1.2,2,1.58C758.1,312,758.33,311.55,758.33,311Z" transform="translate(-370.12 -237)"/><circle class="a" cx="303.38" cy="18.5" r="18"/><path class="b" d="M662,251.3h1.79l2.35,5.77c.4,1,.77,2,1.13,3h.08c.36-1,.7-2,1.12-3l2.35-5.77h1.68l-4.24,10.2h-2Z" transform="translate(-370.12 -237)"/><path class="b" d="M676.67,261.35c0-3.1,1.64-4.57,3.78-4.57a3.61,3.61,0,0,1,2.23.65l-.57.94a2.69,2.69,0,0,0-1.62-.5c-1.45,0-2.56,1.15-2.56,3.61,0,1.93.88,2.92,2.12,2.92a1.61,1.61,0,0,0,1.68-1.68,1.58,1.58,0,0,0-1.76-1.66,2.64,2.64,0,0,0-2.12,1l-.05-1a3.26,3.26,0,0,1,2.42-1A2.5,2.5,0,0,1,683,262.7a2.79,2.79,0,0,1-2.92,2.77C678,265.47,676.67,263.91,676.67,261.35Z" transform="translate(-370.12 -237)"/><circle class="a" cx="303.38" cy="122.5" r="18"/><path class="b" d="M662,355.3h1.79l2.35,5.77c.4,1,.77,2,1.13,3h.08c.36-1,.7-2,1.12-3l2.35-5.77h1.68l-4.24,10.2h-2Z" transform="translate(-370.12 -237)"/><path class="b" d="M681.42,362.2h-4.64V361h6.15v.75a11.78,11.78,0,0,0-2.82,7.44h-1.42A12,12,0,0,1,681.42,362.2Z" transform="translate(-370.12 -237)"/><circle class="a" cx="144.38" cy="18.5" r="18"/><path class="b" d="M503,251.3h1.78l2.36,5.77c.4,1,.77,2,1.13,3h.08c.36-1,.7-2,1.12-3l2.35-5.77h1.68l-4.24,10.2h-2Z" transform="translate(-370.12 -237)"/><path class="b" d="M518.17,264.06h6.32v1.16h-6.32Zm2.59-5.29h-2.21v-.88A4.94,4.94,0,0,0,521,257h1.11v8.19h-1.36Z" transform="translate(-370.12 -237)"/><path class="b" d="M447.29,287.36c-.75-1.33.12-2.68,3-4.66a1.61,1.61,0,0,0-2.41-.59,4.66,4.66,0,0,0-1.67,1.88l-.79-.45a6,6,0,0,1,2.16-2.36,2.53,2.53,0,0,1,3.79,1.07l2.06,3.63-.84.48-.54-.76,0,0a4.52,4.52,0,0,1-1.78,2.27A2.07,2.07,0,0,1,447.29,287.36Zm4.29-2.45-.87-1.54c-2.42,1.64-2.9,2.57-2.46,3.35s1.14.59,1.82.21A3.76,3.76,0,0,0,451.58,284.91Z" transform="translate(-370.12 -237)"/><path class="b" d="M456.08,284.1c-.91-1.6-.66-3,.51-3.61s2.46-.19,3.36,1.41.67,3-.5,3.63S457,285.72,456.08,284.1Zm3.11-1.77c-.72-1.26-1.54-1.6-2.24-1.21s-.82,1.27-.1,2.54,1.56,1.64,2.25,1.25S459.91,283.61,459.19,282.33Z" transform="translate(-370.12 -237)"/><path class="b" d="M459.6,274.87l5.24-3,.43.75-5.24,3Zm1.48,2.61,5.24-3,.43.76-5.24,3Z" transform="translate(-370.12 -237)"/><path class="b" d="M468,272.89c-1.77-3.12-.89-5.21.8-6.18a3.62,3.62,0,0,1,2.64-.4l-.2.95a2.64,2.64,0,0,0-1.9.26c-1.27.72-1.86,2.23-.39,4.83,1.09,1.91,2.41,2.53,3.7,1.8a1.87,1.87,0,0,0,.66-2.64,1.7,1.7,0,0,0-2.57-.71,3.13,3.13,0,0,0-1.42,2.25l-.48-.77a3.82,3.82,0,0,1,1.65-2.34,2.55,2.55,0,0,1,3.79,1,2.88,2.88,0,0,1-1.18,4C471.4,275.9,469.42,275.38,468,272.89Z" transform="translate(-370.12 -237)"/><path class="b" d="M531,338.39c-.86-1.27-.09-2.68,2.66-4.89a1.61,1.61,0,0,0-2.45-.4,4.77,4.77,0,0,0-1.52,2l-.82-.39a6,6,0,0,1,2-2.52,2.53,2.53,0,0,1,3.86.76l2.35,3.46-.8.54-.6-.71,0,0a4.52,4.52,0,0,1-1.6,2.4A2.06,2.06,0,0,1,531,338.39Zm4.09-2.79-1-1.46c-2.28,1.82-2.69,2.79-2.19,3.53s1.19.5,1.84.06A3.71,3.71,0,0,0,535.1,335.6Z" transform="translate(-370.12 -237)"/><path class="b" d="M540.06,335.06l-.31-4.27.76-.08.26,3.65,2.82-1.92.37.55-3.64,2.47Zm1.28-3.05.67-.46,2.09,3.09-.67.45Z" transform="translate(-370.12 -237)"/><path class="b" d="M542.28,325l5-3.38.49.72-5,3.38Zm1.69,2.48,5-3.38.49.72-5,3.38Z" transform="translate(-370.12 -237)"/><path class="b" d="M552.51,324.77l2.13-1.45L551,317.9,549.31,319l-.43-.62a6.45,6.45,0,0,0,1.53-1.84l.72-.49,4.48,6.6,1.92-1.31.54.8-5,3.41Z" transform="translate(-370.12 -237)"/><path class="b" d="M686.54,341.74c-.86-1.26-.1-2.68,2.66-4.88a1.62,1.62,0,0,0-2.46-.4,4.68,4.68,0,0,0-1.51,2l-.83-.39a5.94,5.94,0,0,1,2-2.52,2.54,2.54,0,0,1,3.87.76l2.34,3.46-.8.54-.6-.71,0,0a4.55,4.55,0,0,1-1.6,2.41A2.06,2.06,0,0,1,686.54,341.74Zm4.08-2.78-1-1.46c-2.29,1.82-2.69,2.79-2.19,3.53s1.18.5,1.83.06A3.71,3.71,0,0,0,690.62,339Z" transform="translate(-370.12 -237)"/><path class="b" d="M696,335.27l-1.21.82-.33-.48a3.35,3.35,0,0,0,1-1.4l.61-.41,3.07,4.52-.75.51Zm.56,3.89,3.49-2.37.43.64L697,339.8Z" transform="translate(-370.12 -237)"/><path class="b" d="M702,333.08c-1-1.52-.89-2.89.22-3.64s2.43-.38,3.46,1.13.91,2.91-.21,3.67S703,334.62,702,333.08Zm3-2c-.82-1.21-1.66-1.48-2.32-1s-.72,1.33.1,2.54,1.68,1.51,2.34,1.07S705.77,332.29,704.94,331.07Z" transform="translate(-370.12 -237)"/><path class="b" d="M704.76,323.6l5-3.39.49.72-5,3.38Zm1.68,2.48,5-3.39.48.72-5,3.39Z" transform="translate(-370.12 -237)"/><path class="b" d="M715.22,317c-.26-.41-.58-.93-.83-1.35l-.06,0c0,.53,0,1.07,0,1.59l-.3,3.86,4.8-3.26.53.78-5.87,4L713,322l.49-7.22,1-.7,5,7.4-.91.61Z" transform="translate(-370.12 -237)"/><path class="b" d="M609.29,287.36c-.75-1.33.12-2.68,3-4.66a1.61,1.61,0,0,0-2.41-.59,4.66,4.66,0,0,0-1.67,1.88l-.79-.45a6,6,0,0,1,2.16-2.36,2.53,2.53,0,0,1,3.79,1.07l2.06,3.63-.84.48-.54-.76,0,0a4.52,4.52,0,0,1-1.78,2.27A2.07,2.07,0,0,1,609.29,287.36Zm4.29-2.45-.87-1.54c-2.42,1.64-2.9,2.57-2.46,3.35s1.14.59,1.82.21A3.76,3.76,0,0,0,613.58,284.91Z" transform="translate(-370.12 -237)"/><path class="b" d="M618.28,284.17c-1-1.8-.55-3.19.69-3.9a2.44,2.44,0,0,1,1.51-.35l0,.73a1.85,1.85,0,0,0-1.11.24c-.84.48-1.1,1.52-.29,2.94.63,1.12,1.47,1.41,2.19,1a1.08,1.08,0,0,0,.42-1.53,1.06,1.06,0,0,0-1.57-.38,1.74,1.74,0,0,0-.89,1.29l-.36-.57a2.22,2.22,0,0,1,1.07-1.38,1.66,1.66,0,0,1,2.47.61,1.85,1.85,0,0,1-.78,2.57C620.41,286.13,619.13,285.66,618.28,284.17Z" transform="translate(-370.12 -237)"/><path class="b" d="M621.6,274.87l5.24-3,.43.75-5.24,3Zm1.48,2.61,5.24-3,.43.76-5.24,3Z" transform="translate(-370.12 -237)"/><path class="b" d="M631.69,275.79l.2-1a2.65,2.65,0,0,0,1.89-.26c1.26-.72,1.86-2.24.39-4.83-1.09-1.91-2.41-2.52-3.69-1.79a1.85,1.85,0,0,0-.69,2.63,1.71,1.71,0,0,0,2.59.7,3.15,3.15,0,0,0,1.41-2.24l.48.77a3.72,3.72,0,0,1-1.65,2.34,2.54,2.54,0,0,1-3.78-1,2.89,2.89,0,0,1,1.17-4c1.69-1,3.69-.45,5.11,2,1.77,3.12.88,5.22-.8,6.17A3.56,3.56,0,0,1,631.69,275.79Z" transform="translate(-370.12 -237)"/><path class="b" d="M449.1,367.29c1.27-.84,2.68-.07,4.86,2.71a1.61,1.61,0,0,0,.42-2.45,4.77,4.77,0,0,0-2-1.54l.39-.82a6,6,0,0,1,2.5,2,2.53,2.53,0,0,1-.79,3.86L451,373.35l-.54-.8.72-.59,0,0a4.55,4.55,0,0,1-2.39-1.62A2.06,2.06,0,0,1,449.1,367.29Zm2.75,4.11,1.47-1c-1.8-2.3-2.77-2.72-3.52-2.22s-.51,1.18-.07,1.83A3.67,3.67,0,0,0,451.85,371.4Z" transform="translate(-370.12 -237)"/><path class="b" d="M451.25,377.26c2.37.68,3.57,1.07,4.26.62a1.1,1.1,0,0,0,.29-1.63,1.7,1.7,0,0,0-1.39-.66l.12-.71a2.38,2.38,0,0,1,2,1.05,1.73,1.73,0,0,1-.4,2.62c-.87.58-2.07.2-3.84-.22l1.42,2.15-.64.43-2.2-3.32Z" transform="translate(-370.12 -237)"/><path class="b" d="M459.93,380.35l3.33,5-.72.48-3.33-5Zm2.5-1.66,3.33,5-.72.49-3.34-5Z" transform="translate(-370.12 -237)"/><path class="b" d="M462.27,388.39l1,.05a3.56,3.56,0,0,0,.54,2.67,2.07,2.07,0,0,0,2.94.75,1.91,1.91,0,0,0,.41-2.89,3.39,3.39,0,0,0-1.45-1.23V387l3.74-2.13,2.8,4.21-.84.56-2.23-3.36-2.33,1.26a3.75,3.75,0,0,1,1.22,1.17c1,1.43,1,3-.63,4.11a3.08,3.08,0,0,1-4.35-1.08A4.44,4.44,0,0,1,462.27,388.39Z" transform="translate(-370.12 -237)"/><path class="b" d="M540.82,454.73c0-1.52,1.43-2.26,4.95-2.54a1.62,1.62,0,0,0-1.81-1.71,4.76,4.76,0,0,0-2.38.81l-.47-.79a6.08,6.08,0,0,1,3-1,2.54,2.54,0,0,1,2.78,2.81v4.17h-1l-.1-.92h0a4.61,4.61,0,0,1-2.67,1.09A2.07,2.07,0,0,1,540.82,454.73Zm4.95,0V453c-2.92.22-3.8.79-3.8,1.69s.7,1.08,1.48,1.08A3.72,3.72,0,0,0,545.77,454.72Z" transform="translate(-370.12 -237)"/><path class="b" d="M550.09,458.08l.59-.46a1.79,1.79,0,0,0,1.55.81,1.19,1.19,0,0,0,1.26-1.2,1.2,1.2,0,0,0-1.34-1.19,1.7,1.7,0,0,0-1.11.43l-.45-.31.27-2.64h3.26v.79h-2.53l-.14,1.34a2.4,2.4,0,0,1,1-.21,1.78,1.78,0,0,1,1.93,1.83,1.92,1.92,0,0,1-2.1,1.88A2.59,2.59,0,0,1,550.09,458.08Z" transform="translate(-370.12 -237)"/><path class="b" d="M557.69,449.94h6v.87h-6Zm0,3h6v.87h-6Z" transform="translate(-370.12 -237)"/><path class="b" d="M565.92,455.81c3-2.67,4.68-4.24,4.68-5.73,0-1-.62-1.73-1.93-1.73a3.09,3.09,0,0,0-2.15,1.06l-.67-.66a4,4,0,0,1,3-1.35,2.6,2.6,0,0,1,2.91,2.63c0,1.68-1.68,3.35-4.1,5.55.56-.05,1.13-.07,1.66-.07h2.93v1h-6.29Z" transform="translate(-370.12 -237)"/><path class="b" d="M376,277.41c.31.14.46.31.46.52,0,1,.06,1.76.06,2.36h.6l2.3.14h.32c.1,0,.17.11.2.33a1.65,1.65,0,0,1-1,.45,12.87,12.87,0,0,0-2.11-.19l-.26.06v.26c0,.14,0,.2-.07.2l.07.33v.66a.12.12,0,0,1-.13.13l.06.45a38.57,38.57,0,0,0-.39,4.21l-.13.06H376c-.09,0-.2-.28-.33-.85l.07-.79c0-.5,0-2,.06-4.4h-.06c-1.1,0-1.64.44-1.64,1.32a11.46,11.46,0,0,0-.27,2.55v.2c0,.23-.07.36-.2.4h-.33a.46.46,0,0,1-.26-.46,31.56,31.56,0,0,1,.26-3.55,5.67,5.67,0,0,0-1.5.2l-.33-.07h-1a.6.6,0,0,1-.33-.59.63.63,0,0,0,.19-.13c2.19,0,3.28-.15,3.28-.45a6.06,6.06,0,0,0,.14-1.19v-.78a9,9,0,0,1-.2-.93.61.61,0,0,0,.2-.13h.06c.4,0,.65.44.72,1.32v.07c0,.15,0,.69-.13,1.64l.13.06c.83-.17,1.25-.3,1.25-.39v-.8c0-.45,0-1.15-.06-2.09A.68.68,0,0,1,376,277.41Zm1.12-1.32.06.13v.4c0,.32-1.18.58-3.54.79h-.26q-1,0-1-.66l.13-.07h.86A25.21,25.21,0,0,0,377.14,276.09Z" transform="translate(-370.12 -237)"/><path class="b" d="M385.63,277.4c.19,0,.31.13.33.39v.1a12.75,12.75,0,0,1-.82,2.93h0a1.93,1.93,0,0,1,.56-.15h.22v0a2.24,2.24,0,0,1-.84.65.49.49,0,0,0-.32.37,6,6,0,0,1-.31.79c.11,0,.42.28.9.84l.77-2.4a.31.31,0,0,1,.27-.2h0c.1,0,.17.07.21.22v.1a11.78,11.78,0,0,1-.83,3,6.4,6.4,0,0,1,1.09,2.35.24.24,0,0,1-.22.15c-.21,0-.53-.43-1-1.3a3.5,3.5,0,0,0-.27-.43c-.42.67-.76,1-1,1h0c-.2,0-.3-.11-.3-.23.22,0,.52-.49.9-1.48a7.89,7.89,0,0,0-.84-1.13.38.38,0,0,1-.22-.38,2.42,2.42,0,0,1,.1-.63q-.29.17-1.5,1a.23.23,0,0,1-.11,0c-.19-.05-.28-.15-.28-.28v-.05c0-.27.57-.68,1.69-1.25l.44-.25c.6-1.8.94-2.88,1-3.23s.1-.47.28-.51Zm3.42-.49h0c.18,0,.29.17.32.52v.07a8.62,8.62,0,0,1-.75,2.52h0a11.81,11.81,0,0,0,1.61-1,.39.39,0,0,1-.18-.31v0c0-.23.15-.34.34-.34h.06a5.61,5.61,0,0,1,1.75,1.25c.15.11.22.2.22.27v0c0,.13-.09.2-.2.2a7.94,7.94,0,0,1-1.73-.85h0a12.42,12.42,0,0,1-2.15,1.63l-.13,0c-.31,0-.46-.11-.46-.33v-.2c0-.05.26-.76.79-2.12.09-.3.18-.69.28-1.19A.26.26,0,0,1,389.05,276.91Zm-.61,4.32q.26,0,.3.81a6,6,0,0,1,.09.83,10.19,10.19,0,0,1,2.86-1.06c.2,0,.34.17.43.51s-.57,1.42-1.73,2.85h.06a.62.62,0,0,0,.18,0c.26,0,.39.13.39.26v.08c0,.23-.44.41-1.32.55-.21,0-.33-.16-.37-.49v0c0-.1.25-.42.77-1l.84-1.2a6,6,0,0,0,.36-.72h0a23.93,23.93,0,0,0-2.35,1l.37,2.69a.19.19,0,0,1-.18.14H389c-.12,0-.32-.43-.57-1.3l-.25-1.36c-.08,0-.14-.1-.18-.29a.5.5,0,0,1,.11-.26c-.05-.56-.07-.93-.07-1.12v-.33c0-.38.12-.58.35-.58Z" transform="translate(-370.12 -237)"/><path class="b" d="M400.8,276.62l.46.59a5.37,5.37,0,0,1-1.45,3.09v.39c0,.08.06.13.13.13a29.27,29.27,0,0,0,3.28-1.7,1.21,1.21,0,0,1,.66,1.18v.46a17.53,17.53,0,0,1-.79,3.54,6.8,6.8,0,0,1,1.06,1.38.72.72,0,0,1-.33.39h-.14a10.48,10.48,0,0,1-1.37-1.38,1.94,1.94,0,0,0-.73-.45v.19c-.14,1.4-.36,2.1-.65,2.1h-.13a.44.44,0,0,1-.26-.46v-.13a14.28,14.28,0,0,1,.39-2.36c0-.05,0-.07-.06-.07a6.94,6.94,0,0,0,.13-1.44v-.6h-.07c-.75.14-1.12.38-1.12.73a3.08,3.08,0,0,0-.07.72v1.25l-.06.39a.55.55,0,0,1,.06.19q0,.09-.06.66a3.77,3.77,0,0,1,.06.6,1.86,1.86,0,0,1-.32.26h-.13c-.26-.17-.39-.33-.39-.46,0-.59,0-2.16.06-4.73a2.26,2.26,0,0,1-.13-.59,4.21,4.21,0,0,0,.2-.79H399q-.39.17-.39.27v.39a.6.6,0,0,1-.07.33.47.47,0,0,0,.07.2c0,1.55.06,2.78.06,3.67v.59c0,1.14-.15,1.71-.46,1.71h-.26c-1.05-.77-1.58-1.34-1.58-1.71-.1,0-.16-.11-.19-.33l.13-.07,1.31,1c.15,0,.24-.92.26-2.76,0-1.17-.11-2.11-.19-2.82a10.21,10.21,0,0,1-1.84.4h-.19c-.31-.16-.47-.33-.47-.53s1.4-.62,4.2-1.24a.72.72,0,0,1,.13.39v.2h.07a3.76,3.76,0,0,0,1-1.84l-.14-.07-1.77.26c-.28-.11-.43-.22-.46-.32v-.33C398.17,276.86,399.05,276.71,400.8,276.62Zm.91,6.49a8,8,0,0,0,.8.66h.06l.65-3.54-.13-.07c-.83.46-1.24.79-1.24,1Z" transform="translate(-370.12 -237)"/><path class="b" d="M408.32,285h.13c.31,0,.86.46,1.64,1.38v.07c0,.09-.13.18-.32.26-1.06-.54-1.58-1-1.58-1.44v-.13C408.2,285,408.24,285,408.32,285Zm2.56-8.13c.13,0,.29.28.46.85V278h.2a1.18,1.18,0,0,1,.65-.2c.17,0,.34.14.53.4,0,.25-.35.4-1.05.46h-.33l.2,1.77a.46.46,0,0,0-.07.26l2.43-.66c.31.33.46.55.46.66a20,20,0,0,1-2.17,2.49v.07a4.23,4.23,0,0,1,.86-.13h.19c.06,0,.19.17.4.52v.07a5,5,0,0,1-1.65.46,3.89,3.89,0,0,1-.65.39,4,4,0,0,1,.39,1.25v.07a.12.12,0,0,1-.13.13,2.85,2.85,0,0,1-.92-1.39c-.57,0-.85-.1-.85-.32a24.81,24.81,0,0,1-1.05-4.2c.07-.17.13-.26.19-.26h.2q.34,0,.66,1.44s.07,0,.07.06a8.25,8.25,0,0,1,1.18-.39,12.56,12.56,0,0,1-.47-3.48V277Zm-.85,5.45c.22,1.09.39,1.64.52,1.64a21.91,21.91,0,0,0,2.63-2.76v-.07c-1.4.53-2.43.88-3.09,1.06Zm3.15,2h.13c.06,0,.13.09.2.26,0,.67-.16,1.09-.46,1.25H413q-.21,0-.33-.72A1.07,1.07,0,0,1,413.18,284.3Zm2.29-.19a.88.88,0,0,1,.26.65c-.52,1.07-1,1.62-1.44,1.64l-.07-.13v-.13C414.57,284.78,415,284.11,415.47,284.11Z" transform="translate(-370.12 -237)"/><path class="b" d="M745.87,273.47c.19,0,.32.24.4.72l-.92,1.58v.13l.92-.2h.13a.68.68,0,0,1,.39.59,10.3,10.3,0,0,1-.72,1.58h.39c.09,0,.14.06.14.13v.59a2.52,2.52,0,0,1-1.84.79c-.28,0-.46-.2-.53-.59a9.56,9.56,0,0,1,1.25-1.71V277h-.13a3.65,3.65,0,0,0-.53.13h-.39c-.52-.08-.79-.19-.79-.33v-.06a9.45,9.45,0,0,1,1.58-2.37C745.45,273.78,745.67,273.47,745.87,273.47Zm1.06,5.84H747v.07a4.87,4.87,0,0,1-.92,1.31c-.42,1-.79,1.51-1.11,1.51h-.27c-.07,0-.16-.13-.26-.39S745.26,280.73,746.93,279.31Zm2.29-6.56h.39c.09,0,.13.06.13.13q-.06.86-.06,1.38h.06a11.38,11.38,0,0,0,1.31-.4c0,.61-.41,1-1.24,1.26a1.26,1.26,0,0,0-.33.71V277h.13l1.12-.46c.09,0,.13.05.13.13-.38.74-.71,1.13-1,1.18a9,9,0,0,1-1.31.53H748a.58.58,0,0,1-.4-.53c.79-.27,1.19-.47,1.19-.59v-1.65l-.86.07c-.3-.06-.46-.14-.46-.26v-.13c0-.19.37-.37,1.12-.52.14,0,.27-.64.39-1.91Zm3.09,5.65a.48.48,0,0,1,.13.26c0,.35-.6,1.25-1.77,2.69.05,0,.16.11.32.33V282c0,.18-.68.42-2,.71-.36,0-.82-1.22-1.38-3.67.07-.17.13-.26.19-.26h.14c.17,0,.32.32.46,1A27.8,27.8,0,0,1,752.31,278.4Zm-3.74,2.16c.2,1,.37,1.45.52,1.45h.06q2-1.83,2-2.37v-.07h-.07a17.38,17.38,0,0,1-2.49.86Z" transform="translate(-370.12 -237)"/><path class="b" d="M759.23,272.29h.13c.06,0,.21.22.46.66a4.41,4.41,0,0,0,.79-.2.73.73,0,0,1,.19.46q0,.18-.72.39a.73.73,0,0,0-.26.53v.72a10.4,10.4,0,0,1,1.31-.13h.07q.66.07.66.27a2.78,2.78,0,0,1-.73,1.37l.07.4c0,.1-.4.45-1.18,1v.2c0,.15.83.56,2.49,1.25a11.28,11.28,0,0,1,1.64,1.12v.19c0,.13-.08.19-.26.19a6.67,6.67,0,0,1-1.58-1l-2.23-.85a26,26,0,0,0-.45,3.28q-.09,1-.33,1h-.2a.75.75,0,0,1-.4-.66,22,22,0,0,0,.4-3.22,8.46,8.46,0,0,1-2.17,2.3c-.26-.1-.39-.19-.39-.26v-.13a11,11,0,0,0,2-2.69h-.26c-.53,0-.79-.38-.79-1.12a12.87,12.87,0,0,1-.46-2.89l.13-.06c.2,0,.42.35.66,1h.13c.87-.21,1.31-.41,1.31-.58v-.86l-.07-.13-.46.07h-.32a1.47,1.47,0,0,1-1.25-.46c0-.13.17-.2.39-.2h1.38Q759.08,273.34,759.23,272.29Zm-1.38,4v1.37a.13.13,0,0,0,.14.13c.87-.35,1.31-.63,1.31-.85l.06-.39v-.26a.47.47,0,0,0-.26-.47h-.2C758.26,276,757.91,276.14,757.85,276.3Zm2.11-.6v.79c0,.09,0,.14.12.14a3.4,3.4,0,0,0,1.12-1.25c-.05-.14-.09-.2-.13-.2C760.33,275.37,760,275.55,760,275.7Z" transform="translate(-370.12 -237)"/><path class="b" d="M773.8,272.62l.46.59a5.37,5.37,0,0,1-1.45,3.09v.39c0,.08.06.13.13.13a29.27,29.27,0,0,0,3.28-1.7,1.21,1.21,0,0,1,.66,1.18v.46a17.53,17.53,0,0,1-.79,3.54,6.8,6.8,0,0,1,1.06,1.38.72.72,0,0,1-.33.39h-.14a10.48,10.48,0,0,1-1.37-1.38,1.94,1.94,0,0,0-.73-.45v.19c-.14,1.4-.36,2.1-.65,2.1h-.13a.44.44,0,0,1-.26-.46v-.13a14.28,14.28,0,0,1,.39-2.36c0-.05,0-.07-.06-.07a6.94,6.94,0,0,0,.13-1.44v-.6h-.07c-.75.14-1.12.38-1.12.73a3.2,3.2,0,0,0-.06.72v1.25l-.07.39a.64.64,0,0,1,.07.19c0,.06,0,.28-.07.66a4,4,0,0,1,.07.6,2.15,2.15,0,0,1-.33.26h-.13c-.26-.17-.39-.33-.39-.46,0-.59,0-2.16.06-4.73a2.26,2.26,0,0,1-.13-.59,4.21,4.21,0,0,0,.2-.79H772q-.39.17-.39.27v.39a.6.6,0,0,1-.07.33.47.47,0,0,0,.07.2c0,1.55.06,2.78.06,3.67v.59c0,1.14-.15,1.71-.46,1.71h-.26c-1-.77-1.58-1.34-1.58-1.71-.1,0-.16-.11-.19-.33l.13-.07,1.31,1c.15,0,.24-.92.26-2.76,0-1.17-.11-2.11-.19-2.82a10.21,10.21,0,0,1-1.84.4h-.19c-.31-.16-.47-.33-.47-.53s1.4-.62,4.21-1.24a.82.82,0,0,1,.13.39v.2h.06a3.68,3.68,0,0,0,1-1.84l-.14-.07-1.77.26c-.28-.11-.43-.22-.46-.32v-.33C771.17,272.86,772.05,272.71,773.8,272.62Zm.91,6.49a8,8,0,0,0,.8.66h.06l.65-3.54-.13-.07c-.83.46-1.24.79-1.24,1Z" transform="translate(-370.12 -237)"/><path class="b" d="M781.32,281h.13c.31,0,.86.46,1.64,1.38v.07c0,.09-.13.18-.32.26-1.06-.54-1.58-1-1.58-1.44v-.13C781.2,281,781.24,281,781.32,281Zm2.56-8.13c.13,0,.29.28.46.85V274h.2a1.18,1.18,0,0,1,.65-.2c.17,0,.34.14.53.4,0,.25-.35.4-1.05.46h-.33l.2,1.77a.46.46,0,0,0-.07.26l2.43-.66c.31.33.46.55.46.66a20,20,0,0,1-2.17,2.49v.07a4.23,4.23,0,0,1,.86-.13h.19c.06,0,.19.17.4.52v.07a5,5,0,0,1-1.64.46,5.07,5.07,0,0,1-.66.39,4.11,4.11,0,0,1,.4,1.25v.07a.12.12,0,0,1-.14.13,2.92,2.92,0,0,1-.92-1.39c-.57,0-.85-.1-.85-.32a24.81,24.81,0,0,1-1.05-4.2c.07-.17.13-.26.19-.26h.2q.35,0,.66,1.44s.07,0,.07.06a8.25,8.25,0,0,1,1.18-.39,12.56,12.56,0,0,1-.47-3.48V273Zm-.85,5.45c.22,1.09.39,1.64.52,1.64a21.91,21.91,0,0,0,2.63-2.76v-.07c-1.4.53-2.43.88-3.09,1.06Zm3.15,2h.13c.06,0,.13.09.2.26,0,.67-.16,1.09-.46,1.25H786q-.21,0-.33-.72A1.07,1.07,0,0,1,786.18,280.3Zm2.29-.19a.88.88,0,0,1,.26.65c-.52,1.07-1,1.62-1.44,1.64l-.07-.13v-.13C787.57,280.78,788,280.11,788.47,280.11Z" transform="translate(-370.12 -237)"/><path class="b" d="M640.06,427.11c-1.24-.89-1-2.49.81-5.51a1.62,1.62,0,0,0-2.44.48,4.75,4.75,0,0,0-.73,2.4l-.91-.08a6.08,6.08,0,0,1,1-3,2.53,2.53,0,0,1,3.89-.62l3.39,2.44-.56.78-.81-.46,0,0a4.6,4.6,0,0,1-.68,2.81A2.06,2.06,0,0,1,640.06,427.11Zm2.87-4-1.43-1c-1.52,2.5-1.57,3.55-.84,4.08s1.29.06,1.74-.58A3.69,3.69,0,0,0,642.93,423.08Z" transform="translate(-370.12 -237)"/><path class="b" d="M647.91,421.18a1.72,1.72,0,0,1-.57-1.86l-.05,0a1.42,1.42,0,0,1-1.58,0c-.69-.5-.74-1.43-.09-2.35s1.55-1.19,2.27-.68a1.48,1.48,0,0,1,.5,1.56l.05,0a1.54,1.54,0,0,1,1.85-.09c.71.51.79,1.53,0,2.57S648.58,421.66,647.91,421.18Zm-.48-4.17c-.4-.29-.88-.15-1.26.39s-.31,1,.06,1.26,1,0,1.63-.47C647.88,417.52,647.73,417.22,647.43,417Zm2.34,1.45c-.56-.4-1.12.12-1.85.59a1.28,1.28,0,0,0,.43,1.39c.38.28,1,.22,1.46-.45S650.18,418.76,649.77,418.46Z" transform="translate(-370.12 -237)"/><path class="b" d="M646,410.61l3.51-4.89.71.51-3.52,4.89Zm2.43,1.75,3.52-4.89.7.5-3.51,4.9Z" transform="translate(-370.12 -237)"/><path class="b" d="M653.55,400.81l-1.25-1,0,.05c.19.5.35,1,.53,1.5l1.05,3.72,3.39-4.71.76.55-4.14,5.76-.62-.45-2-6.94.72-1,7.26,5.22-.64.88Z" transform="translate(-370.12 -237)"/><path class="b" d="M453.75,313.28c.81-1.29,2.42-1.16,5.55.46a1.61,1.61,0,0,0-.63-2.4,4.72,4.72,0,0,0-2.45-.58l0-.91a6,6,0,0,1,3.09.78,2.53,2.53,0,0,1,.87,3.85L458,318l-.82-.52.41-.83,0,0a4.55,4.55,0,0,1-2.84-.5A2.06,2.06,0,0,1,453.75,313.28Zm4.2,2.61.94-1.49c-2.59-1.36-3.64-1.34-4.12-.58s0,1.29.69,1.7A3.69,3.69,0,0,0,458,315.89Z" transform="translate(-370.12 -237)"/><path class="b" d="M460.15,321.39l3.58,2.24-.41.65L459.75,322Zm3.34-2.08-1.25-.78.31-.5a3.28,3.28,0,0,0,1.7.39l.63.39-2.9,4.63-.77-.48Z" transform="translate(-370.12 -237)"/><path class="b" d="M469,320.71l5.11,3.2-.47.74-5.1-3.2Zm1.59-2.54,5.11,3.2-.46.74-5.11-3.2Z" transform="translate(-370.12 -237)"/><path class="b" d="M480.85,325.08l.9-1.3-.06,0c-.47.21-1,.41-1.46.62l-3.65,1.28,4.92,3.08-.5.8-6-3.76.41-.66,6.8-2.46,1.06.66-4.74,7.57-.93-.58Z" transform="translate(-370.12 -237)"/><path class="b" d="M538.27,262.41c.89-1.24,2.49-1,5.5.82a1.62,1.62,0,0,0-.46-2.45,4.82,4.82,0,0,0-2.41-.73l.08-.9a5.86,5.86,0,0,1,3,1,2.53,2.53,0,0,1,.62,3.89l-2.44,3.39-.79-.57.46-.8,0,0a4.57,4.57,0,0,1-2.81-.68A2.05,2.05,0,0,1,538.27,262.41Zm4,2.88,1-1.44c-2.49-1.52-3.54-1.57-4.07-.84s-.06,1.28.58,1.74A3.72,3.72,0,0,0,542.29,265.29Z" transform="translate(-370.12 -237)"/><path class="b" d="M543.83,270.54l.75,0a1.83,1.83,0,0,0,.77,1.55,1.07,1.07,0,0,0,1.56-.06c.37-.51.09-1.13-.92-1.86l.33-.47c.9.65,1.58.6,1.9.15s.14-1-.41-1.35a1.69,1.69,0,0,0-1.4-.2l-.16-.7a2.4,2.4,0,0,1,2.09.38,1.67,1.67,0,0,1,.68,2.3,1.36,1.36,0,0,0-1.41,2.31,1.83,1.83,0,0,1-2.64.11A2.59,2.59,0,0,1,543.83,270.54Z" transform="translate(-370.12 -237)"/><path class="b" d="M553,270.81l4.89,3.52-.51.71-4.89-3.52Zm1.75-2.43,4.89,3.52-.51.7-4.89-3.52Z" transform="translate(-370.12 -237)"/><path class="b" d="M558.44,277.92l2.1,1.51,3.83-5.32-1.63-1.17.44-.61a6.38,6.38,0,0,0,2.25.8l.71.51-4.66,6.47,1.89,1.36-.57.78-4.92-3.54Z" transform="translate(-370.12 -237)"/><path class="b" d="M696.27,260.41c.89-1.24,2.49-1,5.5.82a1.62,1.62,0,0,0-.46-2.45,4.82,4.82,0,0,0-2.41-.73l.08-.9a5.86,5.86,0,0,1,3,1,2.52,2.52,0,0,1,.61,3.89l-2.43,3.39-.79-.57.46-.8,0,0a4.57,4.57,0,0,1-2.81-.68A2.05,2.05,0,0,1,696.27,260.41Zm4,2.88,1-1.44c-2.49-1.52-3.54-1.57-4.07-.84s-.06,1.28.58,1.74A3.72,3.72,0,0,0,700.29,263.29Z" transform="translate(-370.12 -237)"/><path class="b" d="M701.67,269.22l.67-.3a1.84,1.84,0,0,0,.69.91c.78.57,1.82.37,2.78-1,.75-1.05.67-1.92,0-2.4a1.11,1.11,0,1,0-1.25,1.84,1.81,1.81,0,0,0,1.55.27l-.39.55a2.15,2.15,0,0,1-1.69-.4,1.67,1.67,0,0,1-.48-2.49,1.87,1.87,0,0,1,2.68-.37c1.12.81,1.23,2.17.23,3.56-1.21,1.68-2.68,1.82-3.83,1A2.47,2.47,0,0,1,701.67,269.22Z" transform="translate(-370.12 -237)"/><path class="b" d="M711,268.81l4.88,3.52-.5.71-4.89-3.52Zm1.75-2.43,4.89,3.52-.51.7-4.89-3.52Z" transform="translate(-370.12 -237)"/><path class="b" d="M716,276c4-.4,6.28-.7,7.14-1.91a1.67,1.67,0,0,0-.55-2.54,3.09,3.09,0,0,0-2.36-.39l-.16-.93a4,4,0,0,1,3.19.63,2.61,2.61,0,0,1,.83,3.84c-1,1.36-3.33,1.73-6.58,2.1.48.29,1,.61,1.4.92l2.37,1.71-.58.81-5.1-3.68Z" transform="translate(-370.12 -237)"/><path class="b" d="M608.75,331.28c.81-1.29,2.42-1.16,5.54.46a1.6,1.6,0,0,0-.62-2.4,4.72,4.72,0,0,0-2.45-.58l0-.91a6,6,0,0,1,3.09.78,2.53,2.53,0,0,1,.87,3.85L613,336l-.82-.52.41-.83,0,0a4.55,4.55,0,0,1-2.84-.5A2.06,2.06,0,0,1,608.75,331.28Zm4.2,2.61.94-1.49c-2.59-1.36-3.64-1.34-4.12-.58s0,1.29.69,1.7A3.69,3.69,0,0,0,613,333.89Z" transform="translate(-370.12 -237)"/><path class="b" d="M619.63,337.58,617,335.94l.42-.67,3.48,2.18-.27.43a7.8,7.8,0,0,0-4.22,3.2l-.81-.5A8,8,0,0,1,619.63,337.58Z" transform="translate(-370.12 -237)"/><path class="b" d="M624,338.71l5.11,3.2-.47.74-5.1-3.2Zm1.59-2.54,5.11,3.2-.46.74-5.11-3.2Z" transform="translate(-370.12 -237)"/><path class="b" d="M637.62,342.09l-4.36-2.73.54-.86,5.48,3.44-.38.6c-3.44,1-5,2.44-7,5.34l-1-.65A11.93,11.93,0,0,1,637.62,342.09Z" transform="translate(-370.12 -237)"/><line class="a" x1="74.38" y1="78.5" x2="115.28" y2="104.28"/><path class="b" d="M490.5,344.5a30.49,30.49,0,0,0-9.77-.54l4-3.1,1.09-4.94A30,30,0,0,0,490.5,344.5Z" transform="translate(-370.12 -237)"/><line class="a" x1="235.38" y1="78.5" x2="276.28" y2="104.28"/><path class="b" d="M651.5,344.5a30.49,30.49,0,0,0-9.77-.54l4-3.1,1.09-4.94A30,30,0,0,0,651.5,344.5Z" transform="translate(-370.12 -237)"/><line class="a" x1="73.88" y1="62" x2="115.19" y2="37.57"/><path class="b" d="M490.5,271.5a30.13,30.13,0,0,0-4.94,8.44l-.94-5-3.9-3.22A30.12,30.12,0,0,0,490.5,271.5Z" transform="translate(-370.12 -237)"/><line class="a" x1="235.88" y1="62" x2="277.19" y2="37.57"/><path class="b" d="M652.5,271.5a30.13,30.13,0,0,0-4.94,8.44l-.94-5-3.9-3.22A30.12,30.12,0,0,0,652.5,271.5Z" transform="translate(-370.12 -237)"/><line class="a" x1="159.88" y1="114" x2="193.35" y2="91.83"/><path class="b" d="M568.5,325.5a30.2,30.2,0,0,0-4.5,8.68l-1.19-4.91-4.06-3A30.25,30.25,0,0,0,568.5,325.5Z" transform="translate(-370.12 -237)"/><line class="a" x1="318.88" y1="114" x2="352.35" y2="91.83"/><path class="b" d="M727.5,325.5a30.2,30.2,0,0,0-4.5,8.68l-1.19-4.91-4.06-3A30.25,30.25,0,0,0,727.5,325.5Z" transform="translate(-370.12 -237)"/><line class="a" x1="159.38" y1="27.5" x2="194.44" y2="52.04"/><path class="b" d="M569.5,292.5a30.31,30.31,0,0,0-9.73-1l4.14-2.91,1.31-4.88A30.26,30.26,0,0,0,569.5,292.5Z" transform="translate(-370.12 -237)"/><line class="a" x1="319.38" y1="27.5" x2="354.44" y2="52.04"/><path class="b" d="M729.5,292.5a30.31,30.31,0,0,0-9.73-1l4.14-2.91,1.31-4.88A30.26,30.26,0,0,0,729.5,292.5Z" transform="translate(-370.12 -237)"/><line class="a" x1="67.38" y1="85.5" x2="125.24" y2="180.35"/><path class="b" d="M498.5,422.5a30.1,30.1,0,0,0-8.51-4.82l4.95-1,3.17-3.94A30.14,30.14,0,0,0,498.5,422.5Z" transform="translate(-370.12 -237)"/><line class="a" x1="162.38" y1="203.5" x2="209.35" y2="203.5"/><path class="b" d="M585.5,440.5a30.1,30.1,0,0,0-8.55,4.76l1.72-4.76L577,435.75A30.31,30.31,0,0,0,585.5,440.5Z" transform="translate(-370.12 -237)"/><line class="a" x1="256.38" y1="188.5" x2="285.81" y2="148.37"/><path class="b" d="M659.5,380.5a30.34,30.34,0,0,0-1.22,9.71l-2.82-4.2-4.85-1.43A30,30,0,0,0,659.5,380.5Z" transform="translate(-370.12 -237)"/></svg>