<svg xmlns="http://www.w3.org/2000/svg" viewBox="0 0 774.76 261.31"><defs><style>.a{fill:none;stroke:#3ea69f;stroke-miterlimit:10;}.b{fill:#3ea69f;}</style></defs><circle class="a" cx="234.35" cy="18.5" r="18"/><path class="b" d="M363.82,95.16c4.54-4,7-6.36,7-8.58,0-1.54-.93-2.61-2.9-2.61a4.62,4.62,0,0,0-3.21,1.6l-1-1a6,6,0,0,1,4.43-2c2.69,0,4.37,1.57,4.37,3.94,0,2.52-2.52,5-6.16,8.32.84-.07,1.7-.11,2.5-.11h4.39v1.49h-9.43Z" transform="translate(-134.24 -71.69)"/><path class="b" d="M394,87.55c0-2.29,2.14-3.4,7.41-3.82a2.42,2.42,0,0,0-2.71-2.56,7.11,7.11,0,0,0-3.57,1.21l-.69-1.17A9,9,0,0,1,399,79.74c2.79,0,4.15,1.66,4.15,4.2v6.25h-1.44l-.15-1.38h-.06a6.91,6.91,0,0,1-4,1.64C395.54,90.45,394,89.37,394,87.55Zm7.41,0V84.88c-4.37.34-5.69,1.2-5.69,2.54,0,1.16,1.05,1.62,2.23,1.62A5.58,5.58,0,0,0,401.38,87.53Z" transform="translate(-134.24 -71.69)"/><path class="b" d="M330.82,89.16c4.54-4,7-6.36,7-8.58,0-1.54-.93-2.61-2.9-2.61a4.62,4.62,0,0,0-3.21,1.6l-1-1a6,6,0,0,1,4.43-2c2.69,0,4.37,1.57,4.37,3.94,0,2.52-2.52,5-6.16,8.32.84-.07,1.7-.11,2.5-.11h4.39v1.49h-9.43Z" transform="translate(-134.24 -71.69)"/><circle class="a" cx="64.26" cy="165.81" r="18"/><path class="b" d="M187.94,242.05h3.86v-9.83h-3v-1.13a9.5,9.5,0,0,0,3.44-1h1.3v12H197v1.45h-9.09Z" transform="translate(-134.24 -71.69)"/><path class="b" d="M200.54,242.05h3.86v-9.83h-3v-1.13a9.5,9.5,0,0,0,3.44-1h1.3v12h3.49v1.45h-9.09Z" transform="translate(-134.24 -71.69)"/><path class="b" d="M164.24,223.05h3.86v-9.83h-3v-1.13a9.5,9.5,0,0,0,3.44-1h1.3v12h3.49v1.45h-9.09Z" transform="translate(-134.24 -71.69)"/><circle class="a" cx="34.26" cy="242.81" r="18"/><path class="b" d="M157.94,319.05h3.86v-9.83h-3v-1.13a9.5,9.5,0,0,0,3.44-1h1.3v11.95H167v1.45h-9.09Z" transform="translate(-134.24 -71.69)"/><path class="b" d="M169.7,318.86l.88-1.13a5.41,5.41,0,0,0,3.84,1.57c1.83,0,3.19-.94,3.19-2.43s-1.34-2.67-4.85-2.67v-1.32c3.17,0,4.39-1.09,4.39-2.5s-1.11-2.1-2.73-2.1a5.12,5.12,0,0,0-3.3,1.34l-.92-1.09a6.51,6.51,0,0,1,4.28-1.68c2.52,0,4.43,1.24,4.43,3.4,0,1.62-1.19,2.65-2.85,3.2v.08c1.78.38,3.32,1.55,3.32,3.4,0,2.37-2.19,3.82-4.85,3.82A6.54,6.54,0,0,1,169.7,318.86Z" transform="translate(-134.24 -71.69)"/><path class="b" d="M134.24,296.05h3.86v-9.83h-3v-1.13a9.5,9.5,0,0,0,3.44-1h1.3v11.95h3.49v1.45h-9.09Z" transform="translate(-134.24 -71.69)"/><circle class="a" cx="123.35" cy="92.5" r="18"/><path class="b" d="M260.47,158.31h-7.71V156.8h9.7v1.07c-3.55,4-4.41,7.07-4.62,12.32H256A17.92,17.92,0,0,1,260.47,158.31Z" transform="translate(-134.24 -71.69)"/><path class="b" d="M228.33,144.74h3.86v-9.82h-3v-1.14a9.73,9.73,0,0,0,3.44-1h1.3v11.94h3.49v1.45h-9.09Z" transform="translate(-134.24 -71.69)"/><line class="a" x1="220.38" y1="29.84" x2="134.85" y2="79"/><line class="a" x1="248.33" y1="29.84" x2="333.85" y2="79"/><circle class="a" cx="345.26" cy="92.81" r="18"/><path class="b" d="M468.08,168.93l.86-1.16a5.31,5.31,0,0,0,3.78,1.53,3.11,3.11,0,0,0,3.38-3c0-1.85-1.31-2.92-3.28-2.92a5,5,0,0,0-2.73.8l-.92-.59.44-6.45h7.58v1.52h-6.05l-.36,3.94a5.84,5.84,0,0,1,2.48-.54c2.56,0,4.6,1.3,4.6,4.2s-2.39,4.53-4.95,4.53A6.72,6.72,0,0,1,468.08,168.93Z" transform="translate(-134.24 -71.69)"/><path class="b" d="M481,163.76c0-4.49,1.83-6.91,4.81-6.91s4.81,2.42,4.81,6.91-1.83,7-4.81,7S481,168.21,481,163.76Zm8,0c0-3.84-1.32-5.5-3.19-5.5s-3.19,1.66-3.19,5.5,1.32,5.59,3.19,5.59S489,167.6,489,163.76Zm-4.49-.15a1.3,1.3,0,1,1,1.3,1.41A1.3,1.3,0,0,1,484.5,163.61Z" transform="translate(-134.24 -71.69)"/><path class="b" d="M485.24,137.05h3.86v-9.82h-3v-1.14a9.5,9.5,0,0,0,3.44-1h1.3v12h3.49v1.45h-9.09Z" transform="translate(-134.24 -71.69)"/><line class="a" x1="57.2" y1="182.37" x2="40.39" y2="225.88"/><line class="a" x1="109.08" y1="103.46" x2="71.26" y2="149.22"/><circle class="a" cx="286.26" cy="165.81" r="18"/><path class="b" d="M409.33,240.08c0-1.85,1.43-2.9,2.87-3.57v-.09a3.75,3.75,0,0,1-2-3.12c0-2.06,1.74-3.45,4.13-3.45,2.63,0,4.16,1.49,4.16,3.57a4.18,4.18,0,0,1-2,3.19v.09c1.47.73,2.63,1.57,2.63,3.48s-1.74,3.57-4.81,3.57S409.33,242.2,409.33,240.08Zm8.06,0c0-1.85-1.87-2.33-4.2-3.11-1.3.7-2.29,1.56-2.29,2.9s1.33,2.54,3.38,2.54S417.39,241.51,417.39,240.12Zm-.44-6.61a2.39,2.39,0,0,0-2.69-2.36,2.22,2.22,0,0,0-2.5,2.15c0,1.59,1.54,2.26,3.53,2.89A3.39,3.39,0,0,0,417,233.51Z" transform="translate(-134.24 -71.69)"/><path class="b" d="M422,236.76c0-4.49,1.83-6.91,4.81-6.91s4.81,2.42,4.81,6.91-1.83,7-4.81,7S422,241.21,422,236.76Zm8,0c0-3.84-1.32-5.5-3.19-5.5s-3.19,1.66-3.19,5.5,1.32,5.59,3.19,5.59S430,240.6,430,236.76Zm-4.49-.15a1.3,1.3,0,1,1,1.3,1.41A1.3,1.3,0,0,1,425.5,236.61Z" transform="translate(-134.24 -71.69)"/><path class="b" d="M391.24,215.05h3.86v-9.83h-3v-1.13a9.5,9.5,0,0,0,3.44-1h1.3v12h3.49v1.45h-9.09Z" transform="translate(-134.24 -71.69)"/><line class="a" x1="331.08" y1="103.46" x2="293.26" y2="149.22"/><circle class="a" cx="645.35" cy="18.5" r="18"/><path class="b" d="M774.47,94.62l.86-1.16A5.32,5.32,0,0,0,779.11,95a3.12,3.12,0,0,0,3.38-3c0-1.85-1.31-2.92-3.28-2.92a5.06,5.06,0,0,0-2.73.8l-.92-.59L776,82.8h7.58v1.51h-6.05l-.36,4a5.7,5.7,0,0,1,2.48-.55c2.56,0,4.6,1.3,4.6,4.2s-2.39,4.54-5,4.54A6.73,6.73,0,0,1,774.47,94.62Z" transform="translate(-134.24 -71.69)"/><path class="b" d="M810.86,95.06h-.06l-.17,1.13h-1.39v-15H811v4.08l-.09,2H811a5.06,5.06,0,0,1,3.43-1.55c2.75,0,4.24,2,4.24,5.18,0,3.49-2.19,5.53-4.6,5.53A5,5,0,0,1,810.86,95.06Zm6-4.12c0-2.24-.84-3.73-2.87-3.73a4.3,4.3,0,0,0-3,1.51V93.8A4.26,4.26,0,0,0,813.74,95C815.5,95,816.84,93.46,816.84,90.94Z" transform="translate(-134.24 -71.69)"/><path class="b" d="M742.82,95.16c4.54-4,7-6.36,7-8.58,0-1.54-.93-2.61-2.9-2.61a4.62,4.62,0,0,0-3.21,1.6l-1-1a6,6,0,0,1,4.43-2c2.69,0,4.37,1.57,4.37,3.94,0,2.52-2.52,5-6.16,8.32.84-.07,1.7-.11,2.5-.11h4.39v1.49h-9.43Z" transform="translate(-134.24 -71.69)"/><circle class="a" cx="475.26" cy="165.81" r="18"/><path class="b" d="M598.94,242.05h3.86v-9.83h-3v-1.13a9.5,9.5,0,0,0,3.44-1h1.3v12H608v1.45h-9.09Z" transform="translate(-134.24 -71.69)"/><path class="b" d="M611,242.47c4.54-4,7-6.36,7-8.59,0-1.53-.92-2.6-2.89-2.6a4.58,4.58,0,0,0-3.21,1.6l-1-1a6,6,0,0,1,4.43-2c2.68,0,4.36,1.58,4.36,4s-2.51,5-6.15,8.31c.84-.06,1.7-.1,2.5-.1h4.39v1.49H611Z" transform="translate(-134.24 -71.69)"/><path class="b" d="M594.73,215.47c4.54-4,7-6.36,7-8.59,0-1.53-.93-2.6-2.9-2.6a4.58,4.58,0,0,0-3.21,1.6l-1-1a6,6,0,0,1,4.43-2c2.69,0,4.37,1.58,4.37,4s-2.52,5-6.16,8.31c.84-.06,1.7-.1,2.5-.1h4.39v1.49h-9.43Z" transform="translate(-134.24 -71.69)"/><circle class="a" cx="445.26" cy="242.81" r="18"/><path class="b" d="M568.43,319.47c4.54-4,7-6.36,7-8.59,0-1.53-.93-2.6-2.9-2.6a4.58,4.58,0,0,0-3.21,1.6l-1-1a6,6,0,0,1,4.43-2c2.69,0,4.37,1.58,4.37,3.95s-2.52,5-6.16,8.31c.84-.06,1.7-.1,2.5-.1h4.39v1.49h-9.43Z" transform="translate(-134.24 -71.69)"/><path class="b" d="M581,313.76c0-4.49,1.83-6.91,4.81-6.91s4.81,2.42,4.81,6.91-1.83,7-4.81,7S581,318.21,581,313.76Zm8,0c0-3.84-1.32-5.5-3.19-5.5s-3.19,1.66-3.19,5.5,1.32,5.59,3.19,5.59S589,317.6,589,313.76Zm-4.49-.15a1.3,1.3,0,1,1,1.3,1.41A1.3,1.3,0,0,1,584.5,313.61Z" transform="translate(-134.24 -71.69)"/><path class="b" d="M554.24,291.05h3.86v-9.83h-3v-1.13a9.5,9.5,0,0,0,3.44-1h1.3v11.95h3.49v1.45h-9.09Z" transform="translate(-134.24 -71.69)"/><circle class="a" cx="500.26" cy="242.81" r="18"/><path class="b" d="M623.94,319.05h3.86v-9.83h-3v-1.13a9.5,9.5,0,0,0,3.44-1h1.3v11.95H633v1.45h-9.09Z" transform="translate(-134.24 -71.69)"/><path class="b" d="M635.93,317.08c0-1.85,1.43-2.9,2.87-3.57v-.09a3.75,3.75,0,0,1-2-3.12c0-2.06,1.74-3.45,4.13-3.45,2.63,0,4.16,1.49,4.16,3.57a4.18,4.18,0,0,1-2,3.19v.09c1.47.73,2.63,1.57,2.63,3.48s-1.74,3.57-4.81,3.57S635.93,319.2,635.93,317.08Zm8.06,0c0-1.85-1.87-2.33-4.2-3.11-1.3.7-2.29,1.56-2.29,2.9s1.33,2.54,3.38,2.54S644,318.51,644,317.12Zm-.44-6.61a2.39,2.39,0,0,0-2.69-2.36,2.22,2.22,0,0,0-2.5,2.15c0,1.59,1.54,2.26,3.53,2.89A3.39,3.39,0,0,0,643.55,310.51Z" transform="translate(-134.24 -71.69)"/><path class="b" d="M648.24,291.05h3.86v-9.83h-3v-1.13a9.5,9.5,0,0,0,3.44-1h1.3v11.95h3.49v1.45h-9.09Z" transform="translate(-134.24 -71.69)"/><circle class="a" cx="534.35" cy="92.5" r="18"/><path class="b" d="M664,169l1-1.09a3.93,3.93,0,0,0,2.66,1.05c2.16,0,4.07-1.54,4.07-6,0-3.29-1.28-5.06-3.48-5.06a2.77,2.77,0,0,0-2.84,2.92,2.56,2.56,0,0,0,2.86,2.83,4.69,4.69,0,0,0,3.49-1.89l.06,1.37a5.56,5.56,0,0,1-3.89,1.83,3.79,3.79,0,0,1-4.15-4.14,4.31,4.31,0,0,1,4.45-4.3c2.92,0,5.14,2.14,5.14,6.44,0,5.38-2.71,7.46-5.6,7.46A5.4,5.4,0,0,1,664,169Z" transform="translate(-134.24 -71.69)"/><path class="b" d="M648.33,136.74h3.86v-9.82h-3v-1.14a9.73,9.73,0,0,0,3.44-1h1.3v11.94h3.49v1.45h-9.09Z" transform="translate(-134.24 -71.69)"/><line class="a" x1="631.38" y1="29.84" x2="545.85" y2="79"/><line class="a" x1="659.33" y1="29.84" x2="744.85" y2="79"/><circle class="a" cx="756.26" cy="92.81" r="18"/><path class="b" d="M885.63,167.08c0-1.85,1.43-2.9,2.87-3.57v-.09a3.75,3.75,0,0,1-2-3.12c0-2.06,1.74-3.45,4.13-3.45,2.63,0,4.16,1.49,4.16,3.57a4.18,4.18,0,0,1-2,3.19v.09c1.47.73,2.63,1.57,2.63,3.48s-1.74,3.57-4.81,3.57S885.63,169.2,885.63,167.08Zm8.06,0c0-1.85-1.87-2.33-4.2-3.11-1.3.7-2.29,1.56-2.29,2.9s1.33,2.54,3.38,2.54S893.69,168.51,893.69,167.12Zm-.44-6.61a2.39,2.39,0,0,0-2.69-2.36,2.22,2.22,0,0,0-2.5,2.15c0,1.59,1.54,2.26,3.53,2.89A3.39,3.39,0,0,0,893.25,160.51Z" transform="translate(-134.24 -71.69)"/><path class="b" d="M886.24,137.05h3.86v-9.82h-3v-1.14a9.5,9.5,0,0,0,3.44-1h1.3v12h3.49v1.45h-9.09Z" transform="translate(-134.24 -71.69)"/><line class="a" x1="468.2" y1="182.37" x2="451.39" y2="225.88"/><circle class="a" cx="665.26" cy="242.81" r="18"/><path class="b" d="M788.94,319.05h3.86v-9.83h-3v-1.13a9.5,9.5,0,0,0,3.44-1h1.3v11.95H798v1.45h-9.09Z" transform="translate(-134.24 -71.69)"/><path class="b" d="M800.68,318.93l.86-1.16a5.31,5.31,0,0,0,3.78,1.53,3.11,3.11,0,0,0,3.38-3c0-1.85-1.31-2.92-3.28-2.92a5,5,0,0,0-2.73.8l-.92-.59.44-6.45h7.58v1.52h-6l-.36,3.94a5.84,5.84,0,0,1,2.48-.54c2.56,0,4.6,1.3,4.6,4.2s-2.39,4.53-5,4.53A6.73,6.73,0,0,1,800.68,318.93Z" transform="translate(-134.24 -71.69)"/><path class="b" d="M781.24,291.05h3.86v-9.83h-3v-1.13a9.5,9.5,0,0,0,3.44-1h1.3v11.95h3.49v1.45h-9.09Z" transform="translate(-134.24 -71.69)"/><line class="a" x1="688.2" y1="182.37" x2="671.39" y2="225.88"/><line class="a" x1="482.5" y1="182.37" x2="494.13" y2="225.88"/><line class="a" x1="520.08" y1="103.46" x2="482.26" y2="149.22"/><circle class="a" cx="697.26" cy="165.81" r="18"/><path class="b" d="M820.94,242.05h3.86v-9.83h-3v-1.13a9.5,9.5,0,0,0,3.44-1h1.3v12H830v1.45h-9.09Z" transform="translate(-134.24 -71.69)"/><path class="b" d="M833,236.76c0-4.49,1.83-6.91,4.81-6.91s4.81,2.42,4.81,6.91-1.83,7-4.81,7S833,241.21,833,236.76Zm8,0c0-3.84-1.32-5.5-3.19-5.5s-3.19,1.66-3.19,5.5,1.32,5.59,3.19,5.59S841,240.6,841,236.76Zm-4.49-.15a1.3,1.3,0,1,1,1.3,1.41A1.3,1.3,0,0,1,836.5,236.61Z" transform="translate(-134.24 -71.69)"/><path class="b" d="M810.24,215.05h3.86v-9.83h-3v-1.13a9.5,9.5,0,0,0,3.44-1h1.3v12h3.49v1.45h-9.09Z" transform="translate(-134.24 -71.69)"/><line class="a" x1="742.08" y1="103.46" x2="704.26" y2="149.22"/></svg>