<svg xmlns="http://www.w3.org/2000/svg" viewBox="0 0 1065.09 810.3"><defs><style>.a{fill:none;stroke:#3ea69f;stroke-miterlimit:10;}.b{fill:#3ea69f;}</style></defs><circle class="a" cx="577.59" cy="18.5" r="18"/><path class="b" d="M627.47,80.62l.86-1.16A5.32,5.32,0,0,0,632.11,81a3.12,3.12,0,0,0,3.38-3c0-1.85-1.31-2.92-3.28-2.92a5.06,5.06,0,0,0-2.73.8l-.92-.59L629,68.8h7.58v1.51h-6.05l-.36,4a5.7,5.7,0,0,1,2.48-.55c2.56,0,4.6,1.3,4.6,4.2s-2.39,4.54-5,4.54A6.73,6.73,0,0,1,627.47,80.62Z" transform="translate(-55 -57.69)"/><path class="b" d="M594.82,81.16c4.54-4,7-6.36,7-8.58,0-1.54-.93-2.61-2.9-2.61a4.62,4.62,0,0,0-3.21,1.6l-1-1a6,6,0,0,1,4.43-2c2.69,0,4.37,1.57,4.37,3.94,0,2.52-2.52,5-6.16,8.32.84-.07,1.7-.11,2.5-.11h4.39v1.49h-9.43Z" transform="translate(-55 -57.69)"/><circle class="a" cx="407.5" cy="165.81" r="18"/><path class="b" d="M451.94,228.05h3.86v-9.82h-3v-1.14a9.5,9.5,0,0,0,3.44-1h1.3v12H461v1.45h-9.09Z" transform="translate(-55 -57.69)"/><path class="b" d="M464,228.47c4.54-4,7-6.36,7-8.59,0-1.53-.93-2.6-2.9-2.6a4.58,4.58,0,0,0-3.21,1.6l-1-1a6,6,0,0,1,4.43-2c2.69,0,4.37,1.58,4.37,4s-2.52,5-6.16,8.31c.84-.06,1.7-.1,2.5-.1h4.39v1.49H464Z" transform="translate(-55 -57.69)"/><path class="b" d="M445.73,200.47c4.54-4,7-6.36,7-8.59,0-1.53-.93-2.6-2.9-2.6a4.58,4.58,0,0,0-3.21,1.6l-1-1a6,6,0,0,1,4.43-2c2.69,0,4.37,1.58,4.37,4s-2.52,5-6.16,8.31c.84-.06,1.7-.1,2.5-.1h4.39v1.49h-9.43Z" transform="translate(-55 -57.69)"/><circle class="a" cx="377.5" cy="242.81" r="18"/><path class="b" d="M421.43,305.47c4.54-4,7-6.36,7-8.59,0-1.53-.93-2.6-2.9-2.6a4.58,4.58,0,0,0-3.21,1.6l-1-1a6,6,0,0,1,4.43-2c2.69,0,4.37,1.58,4.37,3.95s-2.52,5-6.16,8.31c.84-.06,1.7-.1,2.5-.1h4.39v1.49h-9.43Z" transform="translate(-55 -57.69)"/><path class="b" d="M434,299.76c0-4.49,1.83-6.91,4.81-6.91s4.81,2.42,4.81,6.91-1.83,7-4.81,7S434,304.21,434,299.76Zm8,0c0-3.84-1.32-5.5-3.19-5.5s-3.19,1.66-3.19,5.5,1.32,5.59,3.19,5.59S442,303.6,442,299.76Zm-4.49-.15a1.3,1.3,0,1,1,1.3,1.41A1.3,1.3,0,0,1,437.5,299.61Z" transform="translate(-55 -57.69)"/><path class="b" d="M416.24,274.05h3.86v-9.82h-3v-1.14a9.5,9.5,0,0,0,3.44-1h1.3v11.95h3.49v1.45h-9.09Z" transform="translate(-55 -57.69)"/><circle class="a" cx="432.5" cy="242.81" r="18"/><path class="b" d="M476.94,305.05h3.86v-9.82h-3v-1.14a9.5,9.5,0,0,0,3.44-1h1.3v11.95H486v1.45h-9.09Z" transform="translate(-55 -57.69)"/><path class="b" d="M488.93,303.08c0-1.85,1.43-2.9,2.87-3.57v-.09a3.75,3.75,0,0,1-2-3.12c0-2.06,1.74-3.45,4.13-3.45,2.63,0,4.16,1.49,4.16,3.57a4.18,4.18,0,0,1-2,3.19v.09c1.47.73,2.63,1.57,2.63,3.48s-1.74,3.57-4.81,3.57S488.93,305.2,488.93,303.08Zm8.06,0c0-1.85-1.87-2.33-4.2-3.11-1.3.7-2.29,1.56-2.29,2.9s1.33,2.54,3.38,2.54S497,304.51,497,303.12Zm-.44-6.61a2.39,2.39,0,0,0-2.69-2.36,2.22,2.22,0,0,0-2.5,2.15c0,1.59,1.54,2.26,3.53,2.89A3.39,3.39,0,0,0,496.55,296.51Z" transform="translate(-55 -57.69)"/><path class="b" d="M497.24,274.05h3.86v-9.82h-3v-1.14a9.5,9.5,0,0,0,3.44-1h1.3v11.95h3.49v1.45h-9.09Z" transform="translate(-55 -57.69)"/><circle class="a" cx="466.59" cy="92.5" r="18"/><path class="b" d="M517,155l1-1.09a3.93,3.93,0,0,0,2.66,1.05c2.16,0,4.07-1.54,4.07-6,0-3.29-1.28-5.06-3.48-5.06a2.77,2.77,0,0,0-2.84,2.92,2.56,2.56,0,0,0,2.86,2.83,4.69,4.69,0,0,0,3.49-1.89l.06,1.37a5.56,5.56,0,0,1-3.89,1.83,3.79,3.79,0,0,1-4.15-4.14,4.31,4.31,0,0,1,4.45-4.3c2.92,0,5.14,2.14,5.14,6.44,0,5.38-2.71,7.46-5.6,7.46A5.4,5.4,0,0,1,517,155Z" transform="translate(-55 -57.69)"/><path class="b" d="M506.33,124.74h3.86v-9.82h-3v-1.14a9.73,9.73,0,0,0,3.44-1h1.3v11.94h3.49v1.45h-9.09Z" transform="translate(-55 -57.69)"/><line class="a" x1="563.61" y1="29.84" x2="478.09" y2="79"/><line class="a" x1="591.57" y1="29.84" x2="677.09" y2="79"/><circle class="a" cx="688.5" cy="92.81" r="18"/><path class="b" d="M738.63,153.08c0-1.85,1.43-2.9,2.87-3.57v-.09a3.75,3.75,0,0,1-2-3.12c0-2.06,1.74-3.45,4.13-3.45,2.63,0,4.16,1.49,4.16,3.57a4.18,4.18,0,0,1-2,3.19v.09c1.47.73,2.63,1.57,2.63,3.48s-1.74,3.57-4.81,3.57S738.63,155.2,738.63,153.08Zm8.06,0c0-1.85-1.87-2.33-4.2-3.11-1.3.7-2.29,1.56-2.29,2.9s1.33,2.54,3.38,2.54S746.69,154.51,746.69,153.12Zm-.44-6.61a2.39,2.39,0,0,0-2.69-2.36,2.22,2.22,0,0,0-2.5,2.15c0,1.59,1.54,2.26,3.53,2.89A3.39,3.39,0,0,0,746.25,146.51Z" transform="translate(-55 -57.69)"/><path class="b" d="M749.73,125.47c4.54-4,7-6.36,7-8.59,0-1.53-.93-2.6-2.9-2.6a4.58,4.58,0,0,0-3.21,1.6l-1-1a6,6,0,0,1,4.43-2c2.69,0,4.37,1.58,4.37,4,0,2.52-2.52,5-6.16,8.31.84-.06,1.7-.1,2.5-.1h4.39v1.49h-9.43Z" transform="translate(-55 -57.69)"/><line class="a" x1="400.44" y1="182.37" x2="383.63" y2="225.88"/><circle class="a" cx="597.5" cy="242.81" r="18"/><path class="b" d="M641.94,305.05h3.86v-9.82h-3v-1.14a9.5,9.5,0,0,0,3.44-1h1.3v11.95H651v1.45h-9.09Z" transform="translate(-55 -57.69)"/><path class="b" d="M653.68,304.93l.86-1.16a5.31,5.31,0,0,0,3.78,1.53,3.11,3.11,0,0,0,3.38-3c0-1.85-1.31-2.92-3.28-2.92a5,5,0,0,0-2.73.8l-.92-.59.44-6.45h7.58v1.52h-6l-.36,3.94a5.84,5.84,0,0,1,2.48-.54c2.56,0,4.6,1.3,4.6,4.2s-2.39,4.53-5,4.53A6.71,6.71,0,0,1,653.68,304.93Z" transform="translate(-55 -57.69)"/><path class="b" d="M639.24,274.05h3.86v-9.82h-3v-1.14a9.5,9.5,0,0,0,3.44-1h1.3v11.95h3.49v1.45h-9.09Z" transform="translate(-55 -57.69)"/><line class="a" x1="620.44" y1="182.37" x2="603.63" y2="225.88"/><line class="a" x1="414.73" y1="182.37" x2="426.37" y2="225.88"/><line class="a" x1="452.32" y1="103.46" x2="414.5" y2="149.22"/><circle class="a" cx="218.59" cy="419.5" r="18"/><path class="b" d="M268.82,482.16c4.54-4,7-6.36,7-8.58,0-1.54-.93-2.61-2.9-2.61a4.62,4.62,0,0,0-3.21,1.6l-1-1a6,6,0,0,1,4.43-2c2.69,0,4.37,1.57,4.37,3.94s-2.52,5-6.16,8.32c.84-.07,1.7-.11,2.5-.11h4.39v1.49h-9.43Z" transform="translate(-55 -57.69)"/><path class="b" d="M235.82,482.16c4.54-4,7-6.36,7-8.58,0-1.54-.93-2.61-2.9-2.61a4.62,4.62,0,0,0-3.21,1.6l-1-1a6,6,0,0,1,4.43-2c2.69,0,4.37,1.57,4.37,3.94s-2.52,5-6.16,8.32c.84-.07,1.7-.11,2.5-.11h4.39v1.49h-9.43Z" transform="translate(-55 -57.69)"/><circle class="a" cx="929.5" cy="419.81" r="18"/><path class="b" d="M979.73,482.47c4.54-4,7-6.36,7-8.59,0-1.53-.93-2.6-2.9-2.6a4.58,4.58,0,0,0-3.21,1.6l-1-1a6,6,0,0,1,4.43-2c2.69,0,4.37,1.58,4.37,3.95s-2.52,5-6.16,8.31c.84-.06,1.7-.1,2.5-.1h4.39v1.49h-9.43Z" transform="translate(-55 -57.69)"/><path class="b" d="M952.73,466.47c4.54-4,7-6.36,7-8.59,0-1.53-.93-2.6-2.9-2.6a4.58,4.58,0,0,0-3.21,1.6l-1-1a6,6,0,0,1,4.43-2c2.69,0,4.37,1.58,4.37,3.95s-2.52,5-6.16,8.31c.84-.06,1.7-.1,2.5-.1h4.39v1.49h-9.43Z" transform="translate(-55 -57.69)"/><circle class="a" cx="48.5" cy="566.81" r="18"/><path class="b" d="M92.94,629.05H96.8v-9.83h-3v-1.13a9.5,9.5,0,0,0,3.44-1h1.3v11.95H102v1.45H92.94Z" transform="translate(-55 -57.69)"/><path class="b" d="M105.54,629.05h3.86v-9.83h-3v-1.13a9.5,9.5,0,0,0,3.44-1h1.3v11.95h3.49v1.45h-9.09Z" transform="translate(-55 -57.69)"/><path class="b" d="M87.24,601.05H91.1v-9.83h-3v-1.13a9.5,9.5,0,0,0,3.44-1h1.3v11.95h3.49v1.45H87.24Z" transform="translate(-55 -57.69)"/><circle class="a" cx="18.5" cy="643.81" r="18"/><path class="b" d="M62.94,706.05H66.8v-9.83h-3v-1.13a9.5,9.5,0,0,0,3.44-1h1.3v11.95H72v1.45H62.94Z" transform="translate(-55 -57.69)"/><path class="b" d="M74.7,705.86l.88-1.13a5.41,5.41,0,0,0,3.84,1.57c1.83,0,3.19-.94,3.19-2.43s-1.34-2.67-4.85-2.67v-1.32c3.17,0,4.39-1.09,4.39-2.5s-1.11-2.1-2.73-2.1a5.12,5.12,0,0,0-3.3,1.34l-.92-1.09a6.51,6.51,0,0,1,4.28-1.68c2.52,0,4.43,1.24,4.43,3.4,0,1.62-1.19,2.65-2.85,3.2v.08c1.78.38,3.32,1.55,3.32,3.4,0,2.37-2.19,3.82-4.85,3.82A6.54,6.54,0,0,1,74.7,705.86Z" transform="translate(-55 -57.69)"/><path class="b" d="M57.24,675.05H61.1v-9.83h-3v-1.13a9.5,9.5,0,0,0,3.44-1h1.3v11.95h3.49v1.45H57.24Z" transform="translate(-55 -57.69)"/><circle class="a" cx="107.59" cy="493.5" r="18"/><path class="b" d="M165.47,545.31h-7.71V543.8h9.7v1.07c-3.55,4-4.41,7.07-4.62,12.32H161A17.92,17.92,0,0,1,165.47,545.31Z" transform="translate(-55 -57.69)"/><path class="b" d="M147.33,525.75h3.86v-9.83h-3v-1.13a9.71,9.71,0,0,0,3.44-1h1.3v12h3.49v1.44h-9.09Z" transform="translate(-55 -57.69)"/><line class="a" x1="204.61" y1="430.84" x2="119.09" y2="480"/><line class="a" x1="41.44" y1="583.37" x2="24.63" y2="626.88"/><line class="a" x1="93.32" y1="504.46" x2="55.5" y2="550.22"/><circle class="a" cx="987.5" cy="566.81" r="18"/><path class="b" d="M1031.94,629.05h3.86v-9.83h-3v-1.13a9.5,9.5,0,0,0,3.44-1h1.3v11.95H1041v1.45h-9.09Z" transform="translate(-55 -57.69)"/><path class="b" d="M1044.54,629.05h3.86v-9.83h-3v-1.13a9.5,9.5,0,0,0,3.44-1h1.3v11.95h3.49v1.45h-9.09Z" transform="translate(-55 -57.69)"/><path class="b" d="M1026.24,601.05h3.86v-9.83h-3v-1.13a9.5,9.5,0,0,0,3.44-1h1.3v11.95h3.49v1.45h-9.09Z" transform="translate(-55 -57.69)"/><circle class="a" cx="957.5" cy="643.81" r="18"/><path class="b" d="M1001.94,706.05h3.86v-9.83h-3v-1.13a9.5,9.5,0,0,0,3.44-1h1.3v11.95H1011v1.45h-9.09Z" transform="translate(-55 -57.69)"/><path class="b" d="M1013.7,705.86l.88-1.13a5.41,5.41,0,0,0,3.84,1.57c1.83,0,3.19-.94,3.19-2.43s-1.34-2.67-4.85-2.67v-1.32c3.17,0,4.39-1.09,4.39-2.5s-1.11-2.1-2.73-2.1a5.12,5.12,0,0,0-3.3,1.34l-.92-1.09a6.51,6.51,0,0,1,4.28-1.68c2.52,0,4.43,1.24,4.43,3.4,0,1.62-1.19,2.65-2.85,3.2v.08c1.78.38,3.32,1.55,3.32,3.4,0,2.37-2.19,3.82-4.85,3.82A6.54,6.54,0,0,1,1013.7,705.86Z" transform="translate(-55 -57.69)"/><path class="b" d="M996.24,675.05h3.86v-9.83h-3v-1.13a9.5,9.5,0,0,0,3.44-1h1.3v11.95h3.49v1.45h-9.09Z" transform="translate(-55 -57.69)"/><circle class="a" cx="1046.59" cy="493.5" r="18"/><path class="b" d="M1104.47,545.31h-7.71V543.8h9.7v1.07c-3.55,4-4.41,7.07-4.62,12.32H1100A17.92,17.92,0,0,1,1104.47,545.31Z" transform="translate(-55 -57.69)"/><path class="b" d="M1110.33,525.75h3.86v-9.83h-3v-1.13a9.71,9.71,0,0,0,3.44-1h1.3v12h3.49v1.44h-9.09Z" transform="translate(-55 -57.69)"/><line class="a" x1="980.44" y1="583.37" x2="963.63" y2="626.88"/><line class="a" x1="1032.32" y1="504.46" x2="994.5" y2="550.22"/><circle class="a" cx="629.5" cy="165.81" r="18"/><path class="b" d="M673.94,228.05h3.86v-9.82h-3v-1.14a9.5,9.5,0,0,0,3.44-1h1.3v12H683v1.45h-9.09Z" transform="translate(-55 -57.69)"/><path class="b" d="M686,222.76c0-4.49,1.83-6.91,4.81-6.91s4.81,2.42,4.81,6.91-1.83,7-4.81,7S686,227.21,686,222.76Zm8,0c0-3.84-1.32-5.5-3.19-5.5s-3.19,1.66-3.19,5.5,1.32,5.59,3.19,5.59S694,226.6,694,222.76Zm-4.49-.15a1.3,1.3,0,1,1,1.3,1.41A1.3,1.3,0,0,1,689.5,222.61Z" transform="translate(-55 -57.69)"/><path class="b" d="M671.24,200.05h3.86v-9.82h-3v-1.14a9.5,9.5,0,0,0,3.44-1h1.3v12h3.49v1.45h-9.09Z" transform="translate(-55 -57.69)"/><circle class="a" cx="738.5" cy="165.81" r="18"/><path class="b" d="M782.08,227.93l.86-1.16a5.31,5.31,0,0,0,3.78,1.53,3.11,3.11,0,0,0,3.38-3c0-1.85-1.31-2.92-3.28-2.92a5,5,0,0,0-2.73.8l-.92-.59.44-6.45h7.58v1.52h-6.05l-.35,3.94a5.76,5.76,0,0,1,2.47-.54c2.56,0,4.6,1.3,4.6,4.2s-2.39,4.53-5,4.53A6.74,6.74,0,0,1,782.08,227.93Z" transform="translate(-55 -57.69)"/><path class="b" d="M795,222.76c0-4.49,1.83-6.91,4.81-6.91s4.81,2.42,4.81,6.91-1.83,7-4.81,7S795,227.21,795,222.76Zm8,0c0-3.84-1.32-5.5-3.19-5.5s-3.19,1.66-3.19,5.5,1.32,5.59,3.19,5.59S803,226.6,803,222.76Zm-4.49-.15a1.3,1.3,0,1,1,1.3,1.41A1.3,1.3,0,0,1,798.5,222.61Z" transform="translate(-55 -57.69)"/><path class="b" d="M798.24,200.05h3.86v-9.82h-3v-1.14a9.5,9.5,0,0,0,3.44-1h1.3v12h3.49v1.45h-9.09Z" transform="translate(-55 -57.69)"/><line class="a" x1="674.32" y1="103.46" x2="636.5" y2="149.22"/><line class="a" x1="702.86" y1="103.46" x2="731.5" y2="149.22"/><circle class="a" cx="150.1" cy="165.44" r="18"/><path class="b" d="M194.54,227.69h3.86v-9.83h-3v-1.13a9.77,9.77,0,0,0,3.45-1h1.3v11.95h3.48v1.45h-9.09Z" transform="translate(-55 -57.69)"/><path class="b" d="M206.6,222.4c0-4.5,1.82-6.91,4.8-6.91s4.81,2.41,4.81,6.91-1.83,7-4.81,7S206.6,226.85,206.6,222.4Zm8,0c0-3.85-1.32-5.5-3.19-5.5s-3.19,1.65-3.19,5.5,1.32,5.58,3.19,5.58S214.59,226.24,214.59,222.4Zm-4.49-.15a1.31,1.31,0,1,1,1.3,1.41A1.31,1.31,0,0,1,210.1,222.25Z" transform="translate(-55 -57.69)"/><path class="b" d="M180.84,199.69h3.86v-9.83h-3v-1.13a9.77,9.77,0,0,0,3.45-1h1.3v11.95h3.48v1.45h-9.09Z" transform="translate(-55 -57.69)"/><circle class="a" cx="120.1" cy="242.44" r="18"/><path class="b" d="M164.54,304.69h3.86v-9.83h-3v-1.13a9.77,9.77,0,0,0,3.45-1h1.3v11.95h3.48v1.45h-9.09Z" transform="translate(-55 -57.69)"/><path class="b" d="M176.28,304.56l.86-1.15a5.33,5.33,0,0,0,3.78,1.53,3.11,3.11,0,0,0,3.38-3c0-1.85-1.3-2.92-3.27-2.92a5,5,0,0,0-2.73.79l-.93-.58.44-6.45h7.58v1.51h-6L179,298.2a5.7,5.7,0,0,1,2.48-.55c2.56,0,4.59,1.31,4.59,4.2s-2.39,4.54-4.95,4.54A6.72,6.72,0,0,1,176.28,304.56Z" transform="translate(-55 -57.69)"/><path class="b" d="M156.84,273.69h3.86v-9.83h-3v-1.13a9.77,9.77,0,0,0,3.45-1h1.3v11.95h3.48v1.45h-9.09Z" transform="translate(-55 -57.69)"/><circle class="a" cx="209.19" cy="92.14" r="18"/><path class="b" d="M259.32,152.41c0-1.85,1.43-2.9,2.88-3.57v-.09a3.76,3.76,0,0,1-2-3.12c0-2.06,1.75-3.45,4.14-3.45,2.62,0,4.16,1.49,4.16,3.57a4.21,4.21,0,0,1-2,3.19V149c1.47.73,2.62,1.57,2.62,3.48s-1.74,3.57-4.8,3.57S259.32,154.53,259.32,152.41Zm8.07,0c0-1.85-1.87-2.33-4.2-3.11-1.31.7-2.29,1.56-2.29,2.9s1.32,2.54,3.38,2.54S267.39,153.84,267.39,152.45Zm-.45-6.61a2.38,2.38,0,0,0-2.68-2.36,2.22,2.22,0,0,0-2.5,2.15c0,1.59,1.53,2.26,3.53,2.89A3.38,3.38,0,0,0,266.94,145.84Z" transform="translate(-55 -57.69)"/><path class="b" d="M243.43,124.8c4.53-4,7-6.36,7-8.59,0-1.53-.92-2.6-2.9-2.6a4.58,4.58,0,0,0-3.21,1.6l-1-1a6,6,0,0,1,4.43-2c2.69,0,4.37,1.58,4.37,3.95,0,2.52-2.52,5-6.15,8.31.84-.06,1.7-.1,2.5-.1h4.38v1.49h-9.42Z" transform="translate(-55 -57.69)"/><line class="a" x1="143.04" y1="182" x2="126.23" y2="225.52"/><circle class="a" cx="230.1" cy="242.44" r="18"/><path class="b" d="M273.93,302.71c0-1.84,1.43-2.89,2.88-3.56v-.09a3.76,3.76,0,0,1-2-3.13c0-2.05,1.75-3.44,4.14-3.44,2.62,0,4.16,1.49,4.16,3.57a4.22,4.22,0,0,1-2,3.19v.08c1.47.74,2.62,1.58,2.62,3.49s-1.74,3.57-4.8,3.57S273.93,304.83,273.93,302.71Zm8.07.05c0-1.85-1.87-2.33-4.2-3.11-1.31.69-2.29,1.55-2.29,2.9s1.32,2.54,3.38,2.54S282,304.14,282,302.76Zm-.45-6.62a2.38,2.38,0,0,0-2.68-2.35,2.22,2.22,0,0,0-2.5,2.14c0,1.6,1.53,2.27,3.53,2.9A3.39,3.39,0,0,0,281.55,296.14Z" transform="translate(-55 -57.69)"/><path class="b" d="M286.6,299.4c0-4.5,1.82-6.91,4.8-6.91s4.81,2.41,4.81,6.91-1.83,7-4.81,7S286.6,303.85,286.6,299.4Zm8,0c0-3.85-1.32-5.5-3.19-5.5s-3.19,1.65-3.19,5.5,1.32,5.58,3.19,5.58S294.59,303.24,294.59,299.4Zm-4.49-.15a1.31,1.31,0,1,1,1.3,1.41A1.31,1.31,0,0,1,290.1,299.25Z" transform="translate(-55 -57.69)"/><path class="b" d="M270.84,273.69h3.86v-9.83h-3v-1.13a9.77,9.77,0,0,0,3.45-1h1.3v11.95h3.48v1.45h-9.09Z" transform="translate(-55 -57.69)"/><line class="a" x1="253.04" y1="182" x2="236.23" y2="225.52"/><circle class="a" cx="710.5" cy="242.81" r="18"/><path class="b" d="M754.33,303.08c0-1.85,1.43-2.9,2.88-3.57v-.09a3.74,3.74,0,0,1-2-3.12c0-2.06,1.74-3.45,4.13-3.45,2.63,0,4.16,1.49,4.16,3.57a4.18,4.18,0,0,1-2,3.19v.09c1.47.73,2.63,1.57,2.63,3.48s-1.74,3.57-4.81,3.57S754.33,305.2,754.33,303.08Zm8.06,0c0-1.85-1.87-2.33-4.2-3.11-1.3.7-2.29,1.56-2.29,2.9s1.33,2.54,3.38,2.54S762.39,304.51,762.39,303.12Zm-.44-6.61a2.39,2.39,0,0,0-2.69-2.36,2.22,2.22,0,0,0-2.5,2.15c0,1.59,1.54,2.26,3.53,2.89A3.39,3.39,0,0,0,762,296.51Z" transform="translate(-55 -57.69)"/><path class="b" d="M767,299.76c0-4.49,1.83-6.91,4.81-6.91s4.81,2.42,4.81,6.91-1.83,7-4.81,7S767,304.21,767,299.76Zm8,0c0-3.84-1.32-5.5-3.19-5.5s-3.19,1.66-3.19,5.5,1.32,5.59,3.19,5.59S775,303.6,775,299.76Zm-4.49-.15a1.3,1.3,0,1,1,1.3,1.41A1.3,1.3,0,0,1,770.5,299.61Z" transform="translate(-55 -57.69)"/><path class="b" d="M753.24,274.05h3.86v-9.82h-3v-1.14a9.5,9.5,0,0,0,3.44-1h1.3v11.95h3.49v1.45h-9.09Z" transform="translate(-55 -57.69)"/><line class="a" x1="733.44" y1="182.37" x2="716.63" y2="225.88"/><circle class="a" cx="769.59" cy="492.5" r="18"/><path class="b" d="M819.47,554.62l.86-1.16a5.32,5.32,0,0,0,3.78,1.54,3.12,3.12,0,0,0,3.38-3c0-1.85-1.31-2.92-3.28-2.92a5.06,5.06,0,0,0-2.73.8l-.92-.59.44-6.44h7.58v1.51h-6.05l-.36,4a5.7,5.7,0,0,1,2.48-.55c2.56,0,4.6,1.3,4.6,4.2s-2.39,4.54-5,4.54A6.73,6.73,0,0,1,819.47,554.62Z" transform="translate(-55 -57.69)"/><path class="b" d="M786.82,555.17c4.54-4,7-6.37,7-8.59,0-1.54-.93-2.61-2.9-2.61a4.62,4.62,0,0,0-3.21,1.6l-1-1a6,6,0,0,1,4.43-2c2.69,0,4.37,1.57,4.37,3.94s-2.52,5-6.16,8.32c.84-.06,1.7-.11,2.5-.11h4.39v1.49h-9.43Z" transform="translate(-55 -57.69)"/><circle class="a" cx="819.5" cy="640.81" r="18"/><path class="b" d="M863.94,703.05h3.86v-9.83h-3v-1.13a9.5,9.5,0,0,0,3.44-1h1.3v11.95H873v1.45h-9.09Z" transform="translate(-55 -57.69)"/><path class="b" d="M876,703.47c4.54-4,7-6.36,7-8.59,0-1.53-.92-2.6-2.89-2.6a4.58,4.58,0,0,0-3.21,1.6l-1-1a6,6,0,0,1,4.43-2c2.68,0,4.36,1.58,4.36,3.95,0,2.52-2.51,5-6.15,8.31.84-.06,1.7-.1,2.5-.1h4.39v1.49H876Z" transform="translate(-55 -57.69)"/><path class="b" d="M857.73,675.47c4.54-4,7-6.36,7-8.59,0-1.53-.93-2.6-2.9-2.6a4.58,4.58,0,0,0-3.21,1.6l-1-1a6,6,0,0,1,4.43-2c2.69,0,4.37,1.58,4.37,3.95,0,2.52-2.52,5-6.16,8.31.84-.06,1.7-.1,2.5-.1h4.39v1.49h-9.43Z" transform="translate(-55 -57.69)"/><circle class="a" cx="789.5" cy="717.81" r="18"/><path class="b" d="M833.43,780.47c4.54-4,7-6.36,7-8.59,0-1.53-.93-2.6-2.9-2.6a4.58,4.58,0,0,0-3.21,1.6l-1-1a6,6,0,0,1,4.43-2c2.69,0,4.36,1.58,4.36,3.95,0,2.52-2.51,5-6.15,8.31.84-.06,1.7-.1,2.5-.1h4.39v1.49h-9.43Z" transform="translate(-55 -57.69)"/><path class="b" d="M846,774.76c0-4.49,1.83-6.91,4.81-6.91s4.81,2.42,4.81,6.91-1.83,7-4.81,7S846,779.21,846,774.76Zm8,0c0-3.84-1.32-5.5-3.19-5.5s-3.19,1.66-3.19,5.5,1.32,5.59,3.19,5.59S854,778.6,854,774.76Zm-4.49-.15a1.3,1.3,0,1,1,1.3,1.41A1.3,1.3,0,0,1,849.5,774.61Z" transform="translate(-55 -57.69)"/><path class="b" d="M828.24,749.05h3.86v-9.83h-3v-1.13a9.5,9.5,0,0,0,3.44-1h1.3v11.95h3.49v1.45h-9.09Z" transform="translate(-55 -57.69)"/><circle class="a" cx="844.5" cy="717.81" r="18"/><path class="b" d="M888.94,780.05h3.86v-9.83h-3v-1.13a9.5,9.5,0,0,0,3.44-1h1.3v11.95H898v1.45h-9.09Z" transform="translate(-55 -57.69)"/><path class="b" d="M900.93,778.08c0-1.85,1.43-2.9,2.87-3.57v-.09a3.75,3.75,0,0,1-2-3.12c0-2.06,1.74-3.45,4.13-3.45,2.63,0,4.16,1.49,4.16,3.57a4.18,4.18,0,0,1-2,3.19v.09c1.47.73,2.63,1.57,2.63,3.48s-1.74,3.57-4.81,3.57S900.93,780.2,900.93,778.08Zm8.06,0c0-1.85-1.87-2.33-4.2-3.11-1.3.7-2.29,1.56-2.29,2.9s1.33,2.54,3.38,2.54S909,779.51,909,778.12Zm-.44-6.61a2.39,2.39,0,0,0-2.69-2.36,2.22,2.22,0,0,0-2.5,2.15c0,1.59,1.54,2.26,3.53,2.89A3.39,3.39,0,0,0,908.55,771.51Z" transform="translate(-55 -57.69)"/><path class="b" d="M909.24,749.05h3.86v-9.83h-3v-1.13a9.5,9.5,0,0,0,3.44-1h1.3v11.95h3.49v1.45h-9.09Z" transform="translate(-55 -57.69)"/><circle class="a" cx="878.59" cy="567.5" r="18"/><path class="b" d="M929,630l1-1.09a3.93,3.93,0,0,0,2.66,1c2.16,0,4.07-1.54,4.07-6,0-3.29-1.28-5.06-3.48-5.06a2.77,2.77,0,0,0-2.84,2.92,2.56,2.56,0,0,0,2.86,2.83,4.69,4.69,0,0,0,3.49-1.89l.06,1.37a5.56,5.56,0,0,1-3.89,1.83,3.79,3.79,0,0,1-4.15-4.14,4.31,4.31,0,0,1,4.45-4.3c2.92,0,5.14,2.14,5.14,6.44,0,5.38-2.71,7.46-5.6,7.46A5.4,5.4,0,0,1,929,630Z" transform="translate(-55 -57.69)"/><path class="b" d="M933.33,595.75h3.86v-9.83h-3v-1.13a9.71,9.71,0,0,0,3.44-1h1.3v12h3.49v1.44h-9.09Z" transform="translate(-55 -57.69)"/><line class="a" x1="755.61" y1="503.84" x2="670.09" y2="553"/><line class="a" x1="783.57" y1="503.84" x2="869.09" y2="553"/><circle class="a" cx="657.5" cy="566.81" r="18"/><path class="b" d="M707.63,627.08c0-1.85,1.43-2.9,2.87-3.57v-.09a3.75,3.75,0,0,1-2-3.12c0-2.06,1.74-3.45,4.13-3.45,2.63,0,4.16,1.49,4.16,3.57a4.18,4.18,0,0,1-2,3.19v.09c1.47.73,2.63,1.57,2.63,3.48s-1.74,3.57-4.81,3.57S707.63,629.2,707.63,627.08Zm8.06,0c0-1.85-1.87-2.33-4.2-3.11-1.3.7-2.29,1.56-2.29,2.9s1.33,2.54,3.38,2.54S715.69,628.51,715.69,627.12Zm-.44-6.61a2.39,2.39,0,0,0-2.69-2.36,2.22,2.22,0,0,0-2.5,2.15c0,1.59,1.54,2.26,3.53,2.89A3.39,3.39,0,0,0,715.25,620.51Z" transform="translate(-55 -57.69)"/><path class="b" d="M703.73,596.47c4.54-4,7-6.36,7-8.59,0-1.53-.93-2.6-2.9-2.6a4.58,4.58,0,0,0-3.21,1.6l-1-1a6,6,0,0,1,4.43-2c2.69,0,4.37,1.58,4.37,3.95,0,2.52-2.52,5-6.16,8.31.84-.06,1.7-.1,2.5-.1h4.39v1.49h-9.43Z" transform="translate(-55 -57.69)"/><line class="a" x1="812.44" y1="657.37" x2="795.63" y2="700.88"/><circle class="a" cx="566.5" cy="716.81" r="18"/><path class="b" d="M610.94,779.05h3.86v-9.83h-3v-1.13a9.5,9.5,0,0,0,3.44-1h1.3v11.95H620v1.45h-9.09Z" transform="translate(-55 -57.69)"/><path class="b" d="M622.68,778.93l.86-1.16a5.31,5.31,0,0,0,3.78,1.53,3.11,3.11,0,0,0,3.38-3c0-1.85-1.31-2.92-3.28-2.92a5,5,0,0,0-2.73.8l-.92-.59.44-6.45h7.58v1.52h-6l-.36,3.94a5.84,5.84,0,0,1,2.48-.54c2.56,0,4.6,1.3,4.6,4.2s-2.39,4.53-5,4.53A6.73,6.73,0,0,1,622.68,778.93Z" transform="translate(-55 -57.69)"/><path class="b" d="M608.24,748.05h3.86v-9.83h-3v-1.13a9.5,9.5,0,0,0,3.44-1h1.3v11.95h3.49v1.45h-9.09Z" transform="translate(-55 -57.69)"/><line class="a" x1="589.44" y1="656.37" x2="572.63" y2="699.88"/><line class="a" x1="826.73" y1="657.37" x2="838.37" y2="700.88"/><line class="a" x1="864.32" y1="578.46" x2="826.5" y2="624.22"/><circle class="a" cx="598.5" cy="639.81" r="18"/><path class="b" d="M642.94,702.05h3.86v-9.83h-3v-1.13a9.5,9.5,0,0,0,3.44-1h1.3v11.95H652v1.45h-9.09Z" transform="translate(-55 -57.69)"/><path class="b" d="M655,696.76c0-4.49,1.83-6.91,4.81-6.91s4.81,2.42,4.81,6.91-1.83,7-4.81,7S655,701.21,655,696.76Zm8,0c0-3.84-1.32-5.5-3.19-5.5s-3.19,1.66-3.19,5.5,1.32,5.59,3.19,5.59S663,700.6,663,696.76Zm-4.49-.15a1.3,1.3,0,1,1,1.3,1.41A1.3,1.3,0,0,1,658.5,696.61Z" transform="translate(-55 -57.69)"/><path class="b" d="M640.24,674.05h3.86v-9.83h-3v-1.13a9.5,9.5,0,0,0,3.44-1h1.3v11.95h3.49v1.45h-9.09Z" transform="translate(-55 -57.69)"/><circle class="a" cx="707.5" cy="639.81" r="18"/><path class="b" d="M751.08,701.93l.86-1.16a5.31,5.31,0,0,0,3.78,1.53,3.11,3.11,0,0,0,3.38-3c0-1.85-1.31-2.92-3.28-2.92a5,5,0,0,0-2.73.8l-.92-.59.44-6.45h7.58v1.52h-6.05l-.35,3.94a5.76,5.76,0,0,1,2.47-.54c2.56,0,4.6,1.3,4.6,4.2s-2.39,4.53-5,4.53A6.74,6.74,0,0,1,751.08,701.93Z" transform="translate(-55 -57.69)"/><path class="b" d="M764,696.76c0-4.49,1.83-6.91,4.81-6.91s4.81,2.42,4.81,6.91-1.83,7-4.81,7S764,701.21,764,696.76Zm8,0c0-3.84-1.32-5.5-3.19-5.5s-3.19,1.66-3.19,5.5,1.32,5.59,3.19,5.59S772,700.6,772,696.76Zm-4.49-.15a1.3,1.3,0,1,1,1.3,1.41A1.3,1.3,0,0,1,767.5,696.61Z" transform="translate(-55 -57.69)"/><path class="b" d="M767.24,674.05h3.86v-9.83h-3v-1.13a9.5,9.5,0,0,0,3.44-1h1.3v11.95h3.49v1.45h-9.09Z" transform="translate(-55 -57.69)"/><line class="a" x1="643.32" y1="577.46" x2="605.5" y2="623.22"/><line class="a" x1="671.86" y1="577.46" x2="700.5" y2="623.22"/><circle class="a" cx="679.5" cy="716.81" r="18"/><path class="b" d="M723.33,777.08c0-1.85,1.43-2.9,2.88-3.57v-.09a3.74,3.74,0,0,1-2-3.12c0-2.06,1.74-3.45,4.13-3.45,2.63,0,4.16,1.49,4.16,3.57a4.18,4.18,0,0,1-2,3.19v.09c1.47.73,2.63,1.57,2.63,3.48s-1.74,3.57-4.81,3.57S723.33,779.2,723.33,777.08Zm8.06,0c0-1.85-1.87-2.33-4.2-3.11-1.3.7-2.29,1.56-2.29,2.9s1.33,2.54,3.38,2.54S731.39,778.51,731.39,777.12Zm-.44-6.61a2.39,2.39,0,0,0-2.69-2.36,2.22,2.22,0,0,0-2.5,2.15c0,1.59,1.54,2.26,3.53,2.89A3.39,3.39,0,0,0,731,770.51Z" transform="translate(-55 -57.69)"/><path class="b" d="M736,773.76c0-4.49,1.83-6.91,4.81-6.91s4.81,2.42,4.81,6.91-1.83,7-4.81,7S736,778.21,736,773.76Zm8,0c0-3.84-1.32-5.5-3.19-5.5s-3.19,1.66-3.19,5.5,1.32,5.59,3.19,5.59S744,777.6,744,773.76Zm-4.49-.15a1.3,1.3,0,1,1,1.3,1.41A1.3,1.3,0,0,1,739.5,773.61Z" transform="translate(-55 -57.69)"/><path class="b" d="M722.24,748.05h3.86v-9.83h-3v-1.13a9.5,9.5,0,0,0,3.44-1h1.3v11.95h3.49v1.45h-9.09Z" transform="translate(-55 -57.69)"/><line class="a" x1="702.44" y1="656.37" x2="685.63" y2="699.88"/><circle class="a" cx="292.59" cy="492.5" r="18"/><path class="b" d="M342.47,554.62l.86-1.16a5.32,5.32,0,0,0,3.78,1.54,3.11,3.11,0,0,0,3.38-3c0-1.85-1.3-2.92-3.28-2.92a5.06,5.06,0,0,0-2.73.8l-.92-.59.44-6.44h7.58v1.51h-6.05l-.36,4a5.7,5.7,0,0,1,2.48-.55c2.56,0,4.6,1.3,4.6,4.2s-2.39,4.54-4.95,4.54A6.74,6.74,0,0,1,342.47,554.62Z" transform="translate(-55 -57.69)"/><path class="b" d="M309.82,555.17c4.54-4,7-6.37,7-8.59,0-1.54-.93-2.61-2.9-2.61a4.62,4.62,0,0,0-3.21,1.6l-1-1a6,6,0,0,1,4.43-2c2.69,0,4.37,1.57,4.37,3.94s-2.52,5-6.16,8.32c.84-.06,1.7-.11,2.5-.11h4.39v1.49h-9.43Z" transform="translate(-55 -57.69)"/><circle class="a" cx="122.5" cy="639.81" r="18"/><path class="b" d="M166.94,702.05h3.86v-9.83h-3v-1.13a9.5,9.5,0,0,0,3.44-1h1.3v11.95H176v1.45h-9.09Z" transform="translate(-55 -57.69)"/><path class="b" d="M179,702.47c4.54-4,7-6.36,7-8.59,0-1.53-.93-2.6-2.9-2.6a4.58,4.58,0,0,0-3.21,1.6l-1-1a6,6,0,0,1,4.43-2c2.69,0,4.37,1.58,4.37,3.95,0,2.52-2.52,5-6.16,8.31.84-.06,1.7-.1,2.5-.1h4.39v1.49H179Z" transform="translate(-55 -57.69)"/><path class="b" d="M160.73,674.47c4.54-4,7-6.36,7-8.59,0-1.53-.93-2.6-2.9-2.6a4.58,4.58,0,0,0-3.21,1.6l-1-1a6,6,0,0,1,4.43-2c2.69,0,4.37,1.58,4.37,3.95,0,2.52-2.52,5-6.16,8.31.84-.06,1.7-.1,2.5-.1h4.39v1.49h-9.43Z" transform="translate(-55 -57.69)"/><circle class="a" cx="92.5" cy="716.81" r="18"/><path class="b" d="M136.43,779.47c4.54-4,7-6.36,7-8.59,0-1.53-.93-2.6-2.9-2.6a4.58,4.58,0,0,0-3.21,1.6l-1-1a6,6,0,0,1,4.43-2c2.69,0,4.37,1.58,4.37,3.95,0,2.52-2.52,5-6.16,8.31.84-.06,1.7-.1,2.5-.1h4.39v1.49h-9.43Z" transform="translate(-55 -57.69)"/><path class="b" d="M149,773.76c0-4.49,1.83-6.91,4.81-6.91s4.81,2.42,4.81,6.91-1.83,7-4.81,7S149,778.21,149,773.76Zm8,0c0-3.84-1.32-5.5-3.19-5.5s-3.19,1.66-3.19,5.5,1.32,5.59,3.19,5.59S157,777.6,157,773.76Zm-4.49-.15a1.3,1.3,0,1,1,1.3,1.41A1.3,1.3,0,0,1,152.5,773.61Z" transform="translate(-55 -57.69)"/><path class="b" d="M131.24,748.05h3.86v-9.83h-3v-1.13a9.5,9.5,0,0,0,3.44-1h1.3v11.95h3.49v1.45h-9.09Z" transform="translate(-55 -57.69)"/><circle class="a" cx="147.5" cy="716.81" r="18"/><path class="b" d="M191.94,779.05h3.86v-9.83h-3v-1.13a9.5,9.5,0,0,0,3.44-1h1.3v11.95H201v1.45h-9.09Z" transform="translate(-55 -57.69)"/><path class="b" d="M203.93,777.08c0-1.85,1.43-2.9,2.87-3.57v-.09a3.75,3.75,0,0,1-2-3.12c0-2.06,1.74-3.45,4.13-3.45,2.63,0,4.16,1.49,4.16,3.57a4.18,4.18,0,0,1-2,3.19v.09c1.47.73,2.63,1.57,2.63,3.48s-1.74,3.57-4.81,3.57S203.93,779.2,203.93,777.08Zm8.06,0c0-1.85-1.87-2.33-4.2-3.11-1.3.7-2.29,1.56-2.29,2.9s1.33,2.54,3.38,2.54S212,778.51,212,777.12Zm-.44-6.61a2.39,2.39,0,0,0-2.69-2.36,2.22,2.22,0,0,0-2.5,2.15c0,1.59,1.54,2.26,3.53,2.89A3.39,3.39,0,0,0,211.55,770.51Z" transform="translate(-55 -57.69)"/><path class="b" d="M212.24,748.05h3.86v-9.83h-3v-1.13a9.5,9.5,0,0,0,3.44-1h1.3v11.95h3.49v1.45h-9.09Z" transform="translate(-55 -57.69)"/><circle class="a" cx="181.59" cy="566.5" r="18"/><path class="b" d="M232,629l1-1.09a3.93,3.93,0,0,0,2.66,1c2.16,0,4.07-1.54,4.07-6,0-3.29-1.28-5.06-3.48-5.06a2.77,2.77,0,0,0-2.84,2.92,2.56,2.56,0,0,0,2.86,2.83,4.69,4.69,0,0,0,3.49-1.89l.06,1.37a5.56,5.56,0,0,1-3.89,1.83,3.79,3.79,0,0,1-4.15-4.14,4.31,4.31,0,0,1,4.45-4.3c2.92,0,5.14,2.14,5.14,6.44,0,5.38-2.71,7.46-5.6,7.46A5.4,5.4,0,0,1,232,629Z" transform="translate(-55 -57.69)"/><path class="b" d="M221.33,598.75h3.86v-9.83h-3v-1.13a9.71,9.71,0,0,0,3.44-1h1.3v12h3.49v1.44h-9.09Z" transform="translate(-55 -57.69)"/><line class="a" x1="278.61" y1="503.84" x2="193.09" y2="553"/><line class="a" x1="306.57" y1="503.84" x2="392.09" y2="553"/><circle class="a" cx="403.5" cy="566.81" r="18"/><path class="b" d="M453.63,627.08c0-1.85,1.43-2.9,2.87-3.57v-.09a3.75,3.75,0,0,1-2-3.12c0-2.06,1.74-3.45,4.13-3.45,2.63,0,4.16,1.49,4.16,3.57a4.18,4.18,0,0,1-2,3.19v.09c1.47.73,2.63,1.57,2.63,3.48s-1.74,3.57-4.81,3.57S453.63,629.2,453.63,627.08Zm8.06,0c0-1.85-1.87-2.33-4.2-3.11-1.3.7-2.29,1.56-2.29,2.9s1.33,2.54,3.38,2.54S461.69,628.51,461.69,627.12Zm-.44-6.61a2.39,2.39,0,0,0-2.69-2.36,2.22,2.22,0,0,0-2.5,2.15c0,1.59,1.54,2.26,3.53,2.89A3.39,3.39,0,0,0,461.25,620.51Z" transform="translate(-55 -57.69)"/><path class="b" d="M464.73,599.47c4.54-4,7-6.36,7-8.59,0-1.53-.93-2.6-2.9-2.6a4.58,4.58,0,0,0-3.21,1.6l-1-1a6,6,0,0,1,4.43-2c2.69,0,4.37,1.58,4.37,3.95,0,2.52-2.52,5-6.16,8.31.84-.06,1.7-.1,2.5-.1h4.39v1.49h-9.43Z" transform="translate(-55 -57.69)"/><line class="a" x1="115.44" y1="656.37" x2="98.63" y2="699.88"/><circle class="a" cx="312.5" cy="716.81" r="18"/><path class="b" d="M356.94,779.05h3.86v-9.83h-3v-1.13a9.5,9.5,0,0,0,3.44-1h1.3v11.95H366v1.45h-9.09Z" transform="translate(-55 -57.69)"/><path class="b" d="M368.68,778.93l.86-1.16a5.31,5.31,0,0,0,3.78,1.53,3.11,3.11,0,0,0,3.38-3c0-1.85-1.31-2.92-3.28-2.92a5,5,0,0,0-2.73.8l-.92-.59.44-6.45h7.58v1.52h-6.05l-.36,3.94a5.84,5.84,0,0,1,2.48-.54c2.56,0,4.6,1.3,4.6,4.2s-2.39,4.53-5,4.53A6.71,6.71,0,0,1,368.68,778.93Z" transform="translate(-55 -57.69)"/><path class="b" d="M354.24,748.05h3.86v-9.83h-3v-1.13a9.5,9.5,0,0,0,3.44-1h1.3v11.95h3.49v1.45h-9.09Z" transform="translate(-55 -57.69)"/><line class="a" x1="335.44" y1="656.37" x2="318.63" y2="699.88"/><line class="a" x1="129.73" y1="656.37" x2="141.37" y2="699.88"/><line class="a" x1="167.32" y1="577.46" x2="129.5" y2="623.22"/><circle class="a" cx="344.5" cy="639.81" r="18"/><path class="b" d="M388.94,702.05h3.86v-9.83h-3v-1.13a9.5,9.5,0,0,0,3.44-1h1.3v11.95H398v1.45h-9.09Z" transform="translate(-55 -57.69)"/><path class="b" d="M401,696.76c0-4.49,1.83-6.91,4.81-6.91s4.81,2.42,4.81,6.91-1.83,7-4.81,7S401,701.21,401,696.76Zm8,0c0-3.84-1.32-5.5-3.19-5.5s-3.19,1.66-3.19,5.5,1.32,5.59,3.19,5.59S409,700.6,409,696.76Zm-4.49-.15a1.3,1.3,0,1,1,1.3,1.41A1.3,1.3,0,0,1,404.5,696.61Z" transform="translate(-55 -57.69)"/><path class="b" d="M386.24,674.05h3.86v-9.83h-3v-1.13a9.5,9.5,0,0,0,3.44-1h1.3v11.95h3.49v1.45h-9.09Z" transform="translate(-55 -57.69)"/><circle class="a" cx="453.5" cy="639.81" r="18"/><path class="b" d="M497.08,701.93l.86-1.16a5.31,5.31,0,0,0,3.78,1.53,3.11,3.11,0,0,0,3.38-3c0-1.85-1.31-2.92-3.28-2.92a5,5,0,0,0-2.73.8l-.92-.59.44-6.45h7.58v1.52h-6.05l-.36,3.94a5.84,5.84,0,0,1,2.48-.54c2.56,0,4.6,1.3,4.6,4.2s-2.39,4.53-4.95,4.53A6.72,6.72,0,0,1,497.08,701.93Z" transform="translate(-55 -57.69)"/><path class="b" d="M510,696.76c0-4.49,1.83-6.91,4.81-6.91s4.81,2.42,4.81,6.91-1.83,7-4.81,7S510,701.21,510,696.76Zm8,0c0-3.84-1.32-5.5-3.19-5.5s-3.19,1.66-3.19,5.5,1.32,5.59,3.19,5.59S518,700.6,518,696.76Zm-4.49-.15a1.3,1.3,0,1,1,1.3,1.41A1.3,1.3,0,0,1,513.5,696.61Z" transform="translate(-55 -57.69)"/><path class="b" d="M513.24,674.05h3.86v-9.83h-3v-1.13a9.5,9.5,0,0,0,3.44-1h1.3v11.95h3.49v1.45h-9.09Z" transform="translate(-55 -57.69)"/><line class="a" x1="389.32" y1="577.46" x2="351.5" y2="623.22"/><line class="a" x1="417.86" y1="577.46" x2="446.5" y2="623.22"/><circle class="a" cx="425.5" cy="716.81" r="18"/><path class="b" d="M469.33,777.08c0-1.85,1.43-2.9,2.87-3.57v-.09a3.75,3.75,0,0,1-2-3.12c0-2.06,1.74-3.45,4.13-3.45,2.63,0,4.16,1.49,4.16,3.57a4.18,4.18,0,0,1-2,3.19v.09c1.47.73,2.63,1.57,2.63,3.48s-1.74,3.57-4.81,3.57S469.33,779.2,469.33,777.08Zm8.06,0c0-1.85-1.87-2.33-4.2-3.11-1.3.7-2.29,1.56-2.29,2.9s1.33,2.54,3.38,2.54S477.39,778.51,477.39,777.12Zm-.44-6.61a2.39,2.39,0,0,0-2.69-2.36,2.22,2.22,0,0,0-2.5,2.15c0,1.59,1.54,2.26,3.53,2.89A3.39,3.39,0,0,0,477,770.51Z" transform="translate(-55 -57.69)"/><path class="b" d="M482,773.76c0-4.49,1.83-6.91,4.81-6.91s4.81,2.42,4.81,6.91-1.83,7-4.81,7S482,778.21,482,773.76Zm8,0c0-3.84-1.32-5.5-3.19-5.5s-3.19,1.66-3.19,5.5,1.32,5.59,3.19,5.59S490,777.6,490,773.76Zm-4.49-.15a1.3,1.3,0,1,1,1.3,1.41A1.3,1.3,0,0,1,485.5,773.61Z" transform="translate(-55 -57.69)"/><path class="b" d="M468.24,748.05h3.86v-9.83h-3v-1.13a9.5,9.5,0,0,0,3.44-1h1.3v11.95h3.49v1.45h-9.09Z" transform="translate(-55 -57.69)"/><line class="a" x1="448.44" y1="656.37" x2="431.63" y2="699.88"/><circle class="a" cx="259.1" cy="165.44" r="18"/><path class="b" d="M302.68,227.56l.86-1.15a5.33,5.33,0,0,0,3.78,1.53,3.11,3.11,0,0,0,3.38-3c0-1.85-1.3-2.92-3.27-2.92a5,5,0,0,0-2.73.79l-.93-.58.44-6.45h7.58v1.51h-6l-.36,3.95a5.7,5.7,0,0,1,2.48-.55c2.56,0,4.59,1.31,4.59,4.2s-2.39,4.54-4.95,4.54A6.72,6.72,0,0,1,302.68,227.56Z" transform="translate(-55 -57.69)"/><path class="b" d="M315.6,222.4c0-4.5,1.82-6.91,4.8-6.91s4.81,2.41,4.81,6.91-1.83,7-4.81,7S315.6,226.85,315.6,222.4Zm8,0c0-3.85-1.32-5.5-3.19-5.5s-3.19,1.65-3.19,5.5,1.32,5.58,3.19,5.58S323.59,226.24,323.59,222.4Zm-4.49-.15a1.31,1.31,0,1,1,1.3,1.41A1.31,1.31,0,0,1,319.1,222.25Z" transform="translate(-55 -57.69)"/><path class="b" d="M325.84,199.69h3.86v-9.83h-3v-1.13a9.77,9.77,0,0,0,3.45-1h1.3v11.95h3.48v1.45h-9.09Z" transform="translate(-55 -57.69)"/><line class="a" x1="194.92" y1="103.1" x2="157.1" y2="148.86"/><line class="a" x1="223.47" y1="103.1" x2="252.1" y2="148.86"/><line class="a" x1="233" y1="431.31" x2="281" y2="479.31"/><line class="a" x1="912.5" y1="426.81" x2="784" y2="481.31"/><line class="a" x1="946" y1="428.31" x2="1032" y2="482.31"/><path class="b" d="M224.06,349.06a7.17,7.17,0,0,1,4.22,2.55l-1.14,3.33a.11.11,0,0,0,.12.12l-.12.9c0,2,.29,2.93.88,2.93s1,.17,1,.51a1,1,0,0,1-.76,1c-.64,0-1.41-.51-2.3-1.53a1.92,1.92,0,0,0-.39-1.41h.27a.24.24,0,0,0-.27-.26q-1.69,3.06-3.18,3.06t-1.77-2.67l.12-.27a.11.11,0,0,0-.12-.12l.12-.9v-2.79l.12-.26c-.08,0-.12,0-.12-.13s.28-.38.63-1.14l-.12-.26v-.25l.51-.77c-.08,0-.12,0-.12-.13.27-.08.52-.38.75-.89A6.44,6.44,0,0,1,224.06,349.06Zm-2,5v1.53a1.07,1.07,0,0,0,0,1v.12c0,.08-.05.12-.13.12.23,1.46.48,2.18.78,2.18s.58-.38,1.14-1.14h.12v-.14l-.12-.25a10.34,10.34,0,0,0,2.67-5.36v-.75l-2-1c-1,0-1.72,1-2.16,2.92A1.16,1.16,0,0,1,222,354Z" transform="translate(-55 -57.69)"/><path class="b" d="M233.57,344.83q4.53-.27,6,12.72l.07,1.24q-1,5.77-4.55,6L231,365l0-.83q6.87-1.37,6.56-6.9-.48-8.47-4-12Z" transform="translate(-55 -57.69)"/><path class="b" d="M271.92,851.4c2.59,0,4.36.72,5.3,2.18V854c0,.17-.19.35-.55.54h-.19a11.64,11.64,0,0,0-2.92-1.09H273q-2.25,0-3.09,4.75a1.43,1.43,0,0,0-.18.72c0,1.24.79,2.39,2.36,3.46h1.11c0-.21.67-.64,2-1.28,0-.37.42-.91,1.27-1.64H277a1.24,1.24,0,0,1,.74,1.29v.17q-2.42,3.09-5.11,3.09c-2.28,0-3.85-1.64-4.73-4.92V858a24.81,24.81,0,0,0,.91-3.64c1.16-1.71,2.19-2.62,3.09-2.74Z" transform="translate(-55 -57.69)"/><path class="b" d="M282,847.83q4.51-.27,6,12.72l.07,1.24c-.71,3.85-2.22,5.85-4.56,6l-4.09.21,0-.83q6.87-1.36,6.56-6.9-.48-8.47-4-12Z" transform="translate(-55 -57.69)"/><path class="b" d="M884.21,844.17h.18c1.09.17,1.63.72,1.63,1.65v1.27c0,.12-.06.18-.17.18s0,.19.17.19a1.4,1.4,0,0,1-.17.54c.11,1.21.17,2.12.17,2.73a7.56,7.56,0,0,1-.91,3.29v.73a2,2,0,0,0,.56,1.27l-.19,1.09q0,2.13,2.37,5.29v.18a1.23,1.23,0,0,1-1.28.73q-1.58,0-2.92-4.92h-.18q-2,6-4.92,6a3.91,3.91,0,0,1-2.55-2l.18-.37a.31.31,0,0,0-.35-.35,17.19,17.19,0,0,1,2.91-7.49c.7-.84,1.12-1.26,1.27-1.26h.37a9,9,0,0,1,2.72.54v-2.55a1.39,1.39,0,0,1,.2-.74,1.34,1.34,0,0,1-.2-.72v-1.09A20.49,20.49,0,0,1,884.21,844.17Zm-3.46,10.39a12,12,0,0,0-3.11,5.84v1.46a1.29,1.29,0,0,1,.37.72h.91a11.91,11.91,0,0,0,3.46-5.65c.19-.61.37-.91.55-.91A2.53,2.53,0,0,0,880.75,854.56Z" transform="translate(-55 -57.69)"/><path class="b" d="M890.94,847.83q4.53-.27,6,12.72l.07,1.24q-1,5.78-4.55,6l-4.1.21,0-.83q6.87-1.36,6.56-6.9-.48-8.47-4-12Z" transform="translate(-55 -57.69)"/><path class="b" d="M602.56,344.3h1.09c.73.25,1.15,1.82,1.28,4.73a5,5,0,0,0-.19,1.28l.19.37a6.71,6.71,0,0,0-.37,2.55h.18a30,30,0,0,1,4-.74q3.82.92,3.83,3.83v.37c0,.91-.67,2.6-2,5.1q-2.25,3.29-4.18,3.29c-2,0-3.25-.55-3.83-1.65-1-.77-1.46-1.37-1.46-1.81l.18-.92v-.37l-.18-.91c.21,0,.45-.61.72-1.81-.12,0-.18-.07-.18-.2q.79,0,1.29-6.55c0-.25-.07-.37-.2-.37l.2-.92v-2a4.44,4.44,0,0,0-.56-2.37Zm1.09,14,.17.37v.35l-.17,1.11a.15.15,0,0,0,.17.17l-.17.92v.54c.44,1.09,1.11,1.64,2,1.64a3.77,3.77,0,0,0,2.38-1.64c1.71-1.84,2.61-3.54,2.72-5.1,0-.13-.06-.19-.18-.19a5.39,5.39,0,0,0,.18-.72c0-.61-.42-1.1-1.27-1.46h-2.19Q605,354.32,603.65,358.33Z" transform="translate(-55 -57.69)"/><path class="b" d="M616.81,344.83q4.53-.27,6,12.72l.07,1.24q-1,5.77-4.55,6l-4.09.21,0-.83q6.87-1.37,6.56-6.9-.48-8.47-4-12Z" transform="translate(-55 -57.69)"/></svg>