<svg xmlns="http://www.w3.org/2000/svg" viewBox="0 0 593.4 190"><defs><style>.a{fill:none;stroke:#3ea69f;stroke-miterlimit:10;}.b{fill:#3ea69f;}</style></defs><circle class="a" cx="204.5" cy="94.14" r="18"/><path class="b" d="M587,518.56l.86-1.15a5.33,5.33,0,0,0,3.78,1.53,3.11,3.11,0,0,0,3.38-3c0-1.85-1.3-2.92-3.27-2.92a4.93,4.93,0,0,0-2.73.8l-.93-.59.44-6.45h7.58v1.51h-6l-.36,4a5.7,5.7,0,0,1,2.48-.55c2.56,0,4.59,1.31,4.59,4.2s-2.39,4.54-5,4.54A6.72,6.72,0,0,1,587,518.56Z" transform="translate(-387.6 -420)"/><circle class="a" cx="204.9" cy="171.5" r="18"/><path class="b" d="M587.82,591.31c0-5.38,2.68-7.46,5.6-7.46a5.32,5.32,0,0,1,3.74,1.43l-1,1.09a3.93,3.93,0,0,0-2.66-1.07c-2.19,0-4.08,1.53-4.08,6,0,3.29,1.26,5.08,3.49,5.08a2.78,2.78,0,0,0,2.81-2.94,2.55,2.55,0,0,0-2.83-2.84,4.73,4.73,0,0,0-3.51,1.89l-.06-1.36a5.68,5.68,0,0,1,3.88-1.83,3.81,3.81,0,0,1,4.18,4.14,4.32,4.32,0,0,1-4.47,4.3C590,597.75,587.82,595.61,587.82,591.31Z" transform="translate(-387.6 -420)"/><circle class="a" cx="263.59" cy="20.83" r="18"/><path class="b" d="M646.09,445.19l.88-1.13a5.43,5.43,0,0,0,3.85,1.57c1.82,0,3.19-.94,3.19-2.43s-1.35-2.67-4.85-2.67v-1.32c3.17,0,4.38-1.09,4.38-2.5s-1.11-2.1-2.72-2.1a5.1,5.1,0,0,0-3.3,1.34l-.92-1.09a6.51,6.51,0,0,1,4.28-1.68c2.52,0,4.43,1.24,4.43,3.4,0,1.62-1.2,2.65-2.86,3.2v.08c1.79.38,3.32,1.55,3.32,3.4,0,2.37-2.18,3.82-4.85,3.82A6.56,6.56,0,0,1,646.09,445.19Z" transform="translate(-387.6 -420)"/><circle class="a" cx="313.5" cy="94.14" r="18"/><path class="b" d="M702.53,510.92c0-.74.06-1.64.11-2.37h-.11c-.44.65-.92,1.3-1.36,1.95L697.56,515h8.69v1.4H695.62v-1.15l6.68-8.55h1.87v13.4h-1.64Z" transform="translate(-387.6 -420)"/><line class="a" x1="249.32" y1="31.79" x2="211.5" y2="77.55"/><line class="a" x1="277.86" y1="31.79" x2="306.5" y2="77.55"/><circle class="a" cx="443.9" cy="18.5" r="18"/><path class="b" d="M820.94,443.05h3.86v-9.82h-3v-1.14a9.5,9.5,0,0,0,3.44-1h1.3v11.95H830v1.45h-9.09Z" transform="translate(-387.6 -420)"/><path class="b" d="M833,443.47c4.54-4,7-6.36,7-8.59,0-1.53-.93-2.6-2.9-2.6a4.58,4.58,0,0,0-3.21,1.6l-1-1a6,6,0,0,1,4.43-2c2.69,0,4.37,1.58,4.37,3.95s-2.52,5-6.16,8.31c.84-.06,1.7-.1,2.5-.1h4.39v1.49H833Z" transform="translate(-387.6 -420)"/><circle class="a" cx="386.9" cy="95.5" r="18"/><path class="b" d="M763.94,520.05h3.86v-9.83h-3v-1.13a9.5,9.5,0,0,0,3.44-1h1.3v11.95H773v1.45h-9.09Z" transform="translate(-387.6 -420)"/><path class="b" d="M775.68,519.93l.86-1.16a5.31,5.31,0,0,0,3.78,1.53,3.11,3.11,0,0,0,3.38-3c0-1.85-1.31-2.92-3.28-2.92a5,5,0,0,0-2.73.8l-.92-.59.44-6.45h7.58v1.52h-6l-.36,3.94a5.84,5.84,0,0,1,2.48-.54c2.56,0,4.6,1.3,4.6,4.2s-2.39,4.53-5,4.53A6.73,6.73,0,0,1,775.68,519.93Z" transform="translate(-387.6 -420)"/><circle class="a" cx="499.9" cy="95.5" r="18"/><path class="b" d="M876.1,519.86l.88-1.13a5.41,5.41,0,0,0,3.84,1.57c1.83,0,3.19-.94,3.19-2.43s-1.34-2.67-4.85-2.67v-1.32c3.17,0,4.39-1.09,4.39-2.5s-1.11-2.1-2.73-2.1a5.07,5.07,0,0,0-3.29,1.34l-.93-1.09a6.51,6.51,0,0,1,4.28-1.68c2.52,0,4.43,1.24,4.43,3.4,0,1.62-1.19,2.65-2.85,3.2v.08c1.78.38,3.32,1.55,3.32,3.4,0,2.37-2.19,3.82-4.85,3.82A6.54,6.54,0,0,1,876.1,519.86Z" transform="translate(-387.6 -420)"/><path class="b" d="M889,514.76c0-4.49,1.83-6.91,4.81-6.91s4.81,2.42,4.81,6.91-1.83,7-4.81,7S889,519.21,889,514.76Zm8,0c0-3.84-1.32-5.5-3.19-5.5s-3.19,1.66-3.19,5.5,1.32,5.59,3.19,5.59S897,518.6,897,514.76Zm-4.49-.15a1.3,1.3,0,1,1,1.3,1.41A1.3,1.3,0,0,1,892.5,514.61Z" transform="translate(-387.6 -420)"/><line class="a" x1="432.4" y1="33" x2="393.03" y2="78.57"/><circle class="a" cx="574.9" cy="18.5" r="18"/><path class="b" d="M951.94,443.05h3.86v-9.82h-3v-1.14a9.5,9.5,0,0,0,3.44-1h1.3v11.95H961v1.45h-9.09Z" transform="translate(-387.6 -420)"/><path class="b" d="M964.12,438.31c0-5.38,2.68-7.46,5.6-7.46a5.32,5.32,0,0,1,3.74,1.43l-1,1.09a3.93,3.93,0,0,0-2.66-1.07c-2.19,0-4.08,1.53-4.08,6,0,3.29,1.26,5.08,3.49,5.08a2.78,2.78,0,0,0,2.81-2.94,2.55,2.55,0,0,0-2.83-2.84,4.73,4.73,0,0,0-3.51,1.89l-.06-1.36a5.68,5.68,0,0,1,3.88-1.83,3.81,3.81,0,0,1,4.18,4.14,4.32,4.32,0,0,1-4.47,4.3C966.32,444.75,964.12,442.61,964.12,438.31Z" transform="translate(-387.6 -420)"/><line class="a" x1="204.9" y1="112.5" x2="204.9" y2="153.5"/><circle class="a" cx="18.5" cy="94.14" r="18"/><path class="b" d="M401.23,516.71c0-1.84,1.43-2.89,2.88-3.56v-.09a3.76,3.76,0,0,1-2-3.13c0-2.05,1.74-3.44,4.14-3.44,2.62,0,4.16,1.49,4.16,3.57a4.22,4.22,0,0,1-2,3.19v.08c1.47.74,2.62,1.58,2.62,3.49s-1.74,3.57-4.8,3.57S401.23,518.83,401.23,516.71Zm8.06,0c0-1.85-1.86-2.33-4.19-3.11-1.31.69-2.29,1.55-2.29,2.9s1.32,2.54,3.38,2.54S409.29,518.14,409.29,516.76Zm-.44-6.62a2.38,2.38,0,0,0-2.68-2.35,2.22,2.22,0,0,0-2.5,2.14c0,1.6,1.53,2.27,3.53,2.9A3.39,3.39,0,0,0,408.85,510.14Z" transform="translate(-387.6 -420)"/><circle class="a" cx="18.9" cy="171.5" r="18"/><path class="b" d="M395.94,596.05h3.86v-9.83h-3v-1.13a9.5,9.5,0,0,0,3.44-1h1.3v11.95H405v1.45h-9.09Z" transform="translate(-387.6 -420)"/><path class="b" d="M408,590.76c0-4.49,1.83-6.91,4.81-6.91s4.81,2.42,4.81,6.91-1.83,7-4.81,7S408,595.21,408,590.76Zm8,0c0-3.84-1.32-5.5-3.19-5.5s-3.19,1.66-3.19,5.5,1.32,5.59,3.19,5.59S416,594.6,416,590.76Zm-4.49-.15a1.3,1.3,0,1,1,1.3,1.41A1.3,1.3,0,0,1,411.5,590.61Z" transform="translate(-387.6 -420)"/><circle class="a" cx="77.59" cy="20.83" r="18"/><path class="b" d="M468.07,435h-7.71v-1.51h9.7v1.07c-3.54,4.05-4.4,7.07-4.61,12.32h-1.83A17.89,17.89,0,0,1,468.07,435Z" transform="translate(-387.6 -420)"/><circle class="a" cx="127.5" cy="94.14" r="18"/><path class="b" d="M510.46,519l1-1.09a4,4,0,0,0,2.67,1.05c2.16,0,4.07-1.53,4.07-6,0-3.3-1.28-5.06-3.49-5.06a2.76,2.76,0,0,0-2.83,2.91,2.57,2.57,0,0,0,2.85,2.84,4.71,4.71,0,0,0,3.49-1.89l.06,1.36a5.52,5.52,0,0,1-3.88,1.83,3.8,3.8,0,0,1-4.16-4.14,4.31,4.31,0,0,1,4.45-4.3c2.92,0,5.15,2.14,5.15,6.45,0,5.37-2.71,7.45-5.61,7.45A5.42,5.42,0,0,1,510.46,519Z" transform="translate(-387.6 -420)"/><line class="a" x1="63.32" y1="31.79" x2="25.5" y2="77.55"/><line class="a" x1="91.86" y1="31.79" x2="120.5" y2="77.55"/><line class="a" x1="18.9" y1="112.5" x2="18.9" y2="153.5"/><circle class="a" cx="386.9" cy="169.5" r="18"/><path class="b" d="M763.43,594.47c4.54-4,7-6.36,7-8.59,0-1.53-.93-2.6-2.9-2.6a4.58,4.58,0,0,0-3.21,1.6l-1-1a6,6,0,0,1,4.43-2c2.69,0,4.37,1.58,4.37,3.95,0,2.52-2.52,5-6.16,8.31.84-.06,1.7-.1,2.5-.1h4.39v1.49h-9.43Z" transform="translate(-387.6 -420)"/><path class="b" d="M776,588.76c0-4.49,1.83-6.91,4.81-6.91s4.81,2.42,4.81,6.91-1.83,7-4.81,7S776,593.21,776,588.76Zm8,0c0-3.84-1.32-5.5-3.19-5.5s-3.19,1.66-3.19,5.5,1.32,5.59,3.19,5.59S784,592.6,784,588.76Zm-4.49-.15a1.3,1.3,0,1,1,1.3,1.41A1.3,1.3,0,0,1,779.5,588.61Z" transform="translate(-387.6 -420)"/><line class="a" x1="386.9" y1="113.5" x2="386.9" y2="151.5"/><line class="a" x1="455.9" y1="32.5" x2="492.4" y2="79"/></svg>