<svg id="图层_1" data-name="图层 1" xmlns="http://www.w3.org/2000/svg" viewBox="0 0 272.19 70.67"><defs><style>.cls-1{fill:none;stroke:#3ea69f;stroke-miterlimit:10;}.cls-2{fill:#3ea69f;}</style></defs><rect class="cls-1" x="91.17" y="37.21" width="180.52" height="32.96"/><line class="cls-1" x1="147.38" y1="37.21" x2="147.38" y2="70.17"/><line class="cls-1" x1="214.38" y1="37.21" x2="214.38" y2="70.17"/><line class="cls-1" x1="39.69" y1="54" x2="70.15" y2="54"/><path class="cls-2" d="M492,200.5a30.1,30.1,0,0,0-8.55,4.76l1.72-4.76-1.72-4.75A30.31,30.31,0,0,0,492,200.5Z" transform="translate(-415.81 -146.5)"/><path class="cls-2" d="M415.81,196.06H417l.12,1.11h.06a4.66,4.66,0,0,1,3-1.33c2.36,0,3.62,1.75,3.62,4.47,0,3-1.87,4.71-4,4.71a4.14,4.14,0,0,1-2.61-1.13h0l.08,1.65v3h-1.5Zm6.52,4.25c0-1.93-.72-3.21-2.47-3.21a3.71,3.71,0,0,0-2.55,1.3v4.35a3.63,3.63,0,0,0,2.32,1C421.18,203.76,422.33,202.47,422.33,200.31Z" transform="translate(-415.81 -146.5)"/><path class="cls-2" d="M428.65,201.4v-4.14h-2.49v-1.11l2.54-.09.2-2.81h1.24v2.81h4.29v1.2h-4.29v4.16c0,1.57.52,2.38,2.22,2.38a5.58,5.58,0,0,0,2.08-.4l.33,1.1A7.6,7.6,0,0,1,432,205C429.47,205,428.65,203.56,428.65,201.4Z" transform="translate(-415.81 -146.5)"/><path class="cls-2" d="M438.35,196.06h1.24l.14,2.07h0a4.61,4.61,0,0,1,3.91-2.29,3.68,3.68,0,0,1,1.73.36l-.35,1.28a4.32,4.32,0,0,0-1.62-.29c-1.31,0-2.55.67-3.6,2.5v5.12h-1.49Z" transform="translate(-415.81 -146.5)"/><polyline class="cls-1" points="112.19 54.5 112.19 0.5 162.19 0.5 162.19 17.46"/><path class="cls-2" d="M578,170a30.1,30.1,0,0,0-4.76-8.55l4.76,1.72,4.75-1.72A30.31,30.31,0,0,0,578,170Z" transform="translate(-415.81 -146.5)"/><polyline class="cls-1" points="250.19 54.5 250.19 0.5 200.19 0.5 200.19 17.46"/><path class="cls-2" d="M616,170a30.1,30.1,0,0,0-4.76-8.55l4.76,1.72,4.75-1.72A30.31,30.31,0,0,0,616,170Z" transform="translate(-415.81 -146.5)"/></svg>