<svg xmlns="http://www.w3.org/2000/svg" viewBox="0 0 598.75 319.34"><defs><style>.a{fill:#3ea69f;}.b{fill:none;stroke:#3ea69f;stroke-miterlimit:10;}</style></defs><path class="a" d="M518.87,127.75h5.82v1h-4.43v16.09h4.43v1h-5.82Z" transform="translate(-288.87 -127.75)"/><path class="a" d="M528.24,135.87c0-4.49,1.83-6.9,4.81-6.9s4.81,2.41,4.81,6.9-1.83,7-4.81,7S528.24,140.32,528.24,135.87Zm8,0c0-3.84-1.32-5.5-3.19-5.5s-3.19,1.66-3.19,5.5,1.32,5.59,3.19,5.59S536.24,139.72,536.24,135.87Zm-4.49-.14a1.3,1.3,0,1,1,1.3,1.4A1.31,1.31,0,0,1,531.75,135.73Z" transform="translate(-288.87 -127.75)"/><path class="a" d="M543.46,146c1.79-.79,2.67-1.93,2.65-3.67l-.38-1.93,1.18,1.66a1.66,1.66,0,0,1-2.82-1.1,1.57,1.57,0,0,1,1.68-1.59c1.24,0,1.89,1,1.89,2.69a5.17,5.17,0,0,1-3.69,5Z" transform="translate(-288.87 -127.75)"/><path class="a" d="M554,141.16h3.86v-9.82h-3V130.2a9.73,9.73,0,0,0,3.44-1h1.3v11.94h3.49v1.45H554Z" transform="translate(-288.87 -127.75)"/><path class="a" d="M568.66,146c1.79-.79,2.67-1.93,2.65-3.67l-.38-1.93,1.18,1.66a1.66,1.66,0,0,1-2.82-1.1,1.57,1.57,0,0,1,1.68-1.59c1.24,0,1.89,1,1.89,2.69a5.17,5.17,0,0,1-3.69,5Z" transform="translate(-288.87 -127.75)"/><path class="a" d="M578.68,141.58c4.54-4,7-6.36,7-8.58,0-1.54-.92-2.61-2.89-2.61a4.66,4.66,0,0,0-3.22,1.6l-1-1a5.94,5.94,0,0,1,4.43-2c2.68,0,4.36,1.57,4.36,3.94,0,2.52-2.52,5-6.15,8.32.84-.07,1.7-.11,2.5-.11h4.39v1.49h-9.43Z" transform="translate(-288.87 -127.75)"/><path class="a" d="M591.81,144.82h4.43V128.73h-4.43v-1h5.81V145.8h-5.81Z" transform="translate(-288.87 -127.75)"/><path class="a" d="M534.54,175.87c0-4.49,1.83-6.9,4.81-6.9s4.81,2.41,4.81,6.9-1.83,7-4.81,7S534.54,180.32,534.54,175.87Zm8,0c0-3.84-1.32-5.5-3.19-5.5s-3.19,1.66-3.19,5.5,1.32,5.59,3.19,5.59S542.54,179.72,542.54,175.87Zm-4.49-.14a1.3,1.3,0,1,1,1.3,1.4A1.31,1.31,0,0,1,538.05,175.73Z" transform="translate(-288.87 -127.75)"/><path class="a" d="M548.17,176.31V175l7.83-5.29v1.68l-6.3,4.24v.08l6.3,4.25v1.68Z" transform="translate(-288.87 -127.75)"/><path class="a" d="M560.29,181.16h3.86v-9.82h-3V170.2a9.73,9.73,0,0,0,3.44-1h1.3v11.94h3.49v1.45h-9.09Z" transform="translate(-288.87 -127.75)"/><path class="a" d="M579.21,171.76a2,2,0,0,0-2.31-2,3.83,3.83,0,0,0-2.73,1.2l-1-.95a5.28,5.28,0,0,1,3.86-1.7c2.33,0,3.91,1.28,3.91,3.28,0,2.85-3.8,3.44-3.45,6.15h-1.53C575.43,174.74,579.21,173.9,579.21,171.76Zm-3.91,9.47a1.56,1.56,0,1,1,3.11,0,1.56,1.56,0,1,1-3.11,0Z" transform="translate(-288.87 -127.75)"/><path class="a" d="M385.09,275.16H389v-9.82h-3V264.2a9.73,9.73,0,0,0,3.44-1h1.3v11.94h3.49v1.45h-9.09Z" transform="translate(-288.87 -127.75)"/><path class="a" d="M398.17,270.31V269l7.83-5.29v1.68l-6.3,4.24v.08l6.3,4.25v1.68Z" transform="translate(-288.87 -127.75)"/><path class="a" d="M409.78,275.58c4.54-4,7-6.36,7-8.58,0-1.54-.92-2.61-2.89-2.61a4.64,4.64,0,0,0-3.22,1.6l-1-1a5.94,5.94,0,0,1,4.43-2c2.68,0,4.36,1.57,4.36,3.94s-2.51,5-6.15,8.32c.84-.07,1.7-.11,2.5-.11h4.39v1.49h-9.43Z" transform="translate(-288.87 -127.75)"/><path class="a" d="M429.21,265.76a2,2,0,0,0-2.31-2,3.83,3.83,0,0,0-2.73,1.2l-1-.95a5.28,5.28,0,0,1,3.86-1.7c2.33,0,3.91,1.28,3.91,3.28,0,2.85-3.8,3.44-3.45,6.15h-1.53C425.43,268.74,429.21,267.9,429.21,265.76Zm-3.91,9.47a1.56,1.56,0,1,1,3.11,0,1.56,1.56,0,1,1-3.11,0Z" transform="translate(-288.87 -127.75)"/><path class="a" d="M684.54,269.87c0-4.49,1.83-6.9,4.81-6.9s4.81,2.41,4.81,6.9-1.83,7-4.81,7S684.54,274.32,684.54,269.87Zm8,0c0-3.84-1.32-5.5-3.19-5.5s-3.19,1.66-3.19,5.5,1.32,5.59,3.19,5.59S692.54,273.72,692.54,269.87Zm-4.49-.14a1.3,1.3,0,1,1,1.3,1.4A1.31,1.31,0,0,1,688.05,269.73Z" transform="translate(-288.87 -127.75)"/><path class="a" d="M698.17,270.31V269l7.83-5.29v1.68l-6.3,4.24v.08l6.3,4.25v1.68Z" transform="translate(-288.87 -127.75)"/><path class="a" d="M709.78,275.58c4.54-4,7-6.36,7-8.58,0-1.54-.92-2.61-2.89-2.61a4.64,4.64,0,0,0-3.22,1.6l-1-1a5.94,5.94,0,0,1,4.43-2c2.68,0,4.36,1.57,4.36,3.94s-2.51,5-6.15,8.32c.84-.07,1.7-.11,2.5-.11h4.39v1.49h-9.43Z" transform="translate(-288.87 -127.75)"/><path class="a" d="M729.21,265.76a2,2,0,0,0-2.31-2,3.83,3.83,0,0,0-2.73,1.2l-1-.95a5.28,5.28,0,0,1,3.86-1.7c2.33,0,3.91,1.28,3.91,3.28,0,2.85-3.8,3.44-3.45,6.15h-1.53C725.43,268.74,729.21,267.9,729.21,265.76Zm-3.91,9.47a1.56,1.56,0,1,1,3.11,0,1.56,1.56,0,1,1-3.11,0Z" transform="translate(-288.87 -127.75)"/><path class="a" d="M765.09,382.17H769v-9.83h-3v-1.13a9.71,9.71,0,0,0,3.44-1h1.3v11.95h3.49v1.44h-9.09Z" transform="translate(-288.87 -127.75)"/><path class="a" d="M778.17,377.31V376l7.83-5.29v1.68l-6.3,4.24v.08l6.3,4.25v1.68Z" transform="translate(-288.87 -127.75)"/><path class="a" d="M789.78,382.58c4.54-4,7-6.36,7-8.58,0-1.54-.92-2.61-2.89-2.61a4.64,4.64,0,0,0-3.22,1.6l-1-1a6,6,0,0,1,4.43-2c2.68,0,4.36,1.57,4.36,3.94s-2.51,5-6.15,8.32c.84-.06,1.7-.11,2.5-.11h4.39v1.49h-9.43Z" transform="translate(-288.87 -127.75)"/><path class="a" d="M809.21,372.76a2,2,0,0,0-2.31-2,3.87,3.87,0,0,0-2.73,1.2l-1-.94a5.25,5.25,0,0,1,3.86-1.71c2.33,0,3.91,1.29,3.91,3.28,0,2.85-3.8,3.44-3.45,6.15h-1.53C805.43,375.74,809.21,374.9,809.21,372.76Zm-3.91,9.47a1.56,1.56,0,1,1,3.11,0,1.56,1.56,0,1,1-3.11,0Z" transform="translate(-288.87 -127.75)"/><path class="a" d="M464.54,376.87c0-4.49,1.83-6.9,4.81-6.9s4.81,2.41,4.81,6.9-1.83,7-4.81,7S464.54,381.33,464.54,376.87Zm8,0c0-3.84-1.32-5.5-3.19-5.5s-3.19,1.66-3.19,5.5,1.32,5.59,3.19,5.59S472.54,380.72,472.54,376.87Zm-4.49-.14a1.3,1.3,0,1,1,1.3,1.4A1.31,1.31,0,0,1,468.05,376.73Z" transform="translate(-288.87 -127.75)"/><path class="a" d="M478.17,377.31V376l7.83-5.29v1.68l-6.3,4.24v.08l6.3,4.25v1.68Z" transform="translate(-288.87 -127.75)"/><path class="a" d="M489.78,382.58c4.54-4,7-6.36,7-8.58,0-1.54-.92-2.61-2.89-2.61a4.64,4.64,0,0,0-3.22,1.6l-1-1a6,6,0,0,1,4.43-2c2.68,0,4.36,1.57,4.36,3.94s-2.51,5-6.15,8.32c.84-.06,1.7-.11,2.5-.11h4.39v1.49h-9.43Z" transform="translate(-288.87 -127.75)"/><path class="a" d="M509.21,372.76a2,2,0,0,0-2.31-2,3.87,3.87,0,0,0-2.73,1.2l-1-.94a5.25,5.25,0,0,1,3.86-1.71c2.33,0,3.91,1.29,3.91,3.28,0,2.85-3.8,3.44-3.45,6.15h-1.53C505.43,375.74,509.21,374.9,509.21,372.76Zm-3.91,9.47a1.56,1.56,0,1,1,3.11,0,1.56,1.56,0,1,1-3.11,0Z" transform="translate(-288.87 -127.75)"/><path class="a" d="M668.87,227.75h5.82v1h-4.43v16.09h4.43v1h-5.82Z" transform="translate(-288.87 -127.75)"/><path class="a" d="M678.79,241.16h3.86v-9.82h-3V230.2a9.73,9.73,0,0,0,3.44-1h1.3v11.94h3.49v1.45h-9.09Z" transform="translate(-288.87 -127.75)"/><path class="a" d="M693.46,246c1.79-.79,2.67-1.93,2.65-3.67l-.38-1.93,1.18,1.66a1.66,1.66,0,0,1-2.82-1.1,1.57,1.57,0,0,1,1.68-1.59c1.24,0,1.89,1,1.89,2.69a5.17,5.17,0,0,1-3.69,5Z" transform="translate(-288.87 -127.75)"/><path class="a" d="M703.44,235.87c0-4.49,1.83-6.9,4.81-6.9s4.81,2.41,4.81,6.9-1.83,7-4.81,7S703.44,240.32,703.44,235.87Zm8,0c0-3.84-1.32-5.5-3.19-5.5s-3.19,1.66-3.19,5.5,1.32,5.59,3.19,5.59S711.44,239.72,711.44,235.87Zm-4.49-.14a1.3,1.3,0,1,1,1.3,1.4A1.3,1.3,0,0,1,707,235.73Z" transform="translate(-288.87 -127.75)"/><path class="a" d="M718.66,246c1.79-.79,2.67-1.93,2.65-3.67l-.38-1.93,1.18,1.66a1.66,1.66,0,0,1-2.82-1.1,1.57,1.57,0,0,1,1.68-1.59c1.24,0,1.89,1,1.89,2.69a5.17,5.17,0,0,1-3.69,5Z" transform="translate(-288.87 -127.75)"/><path class="a" d="M728.68,241.58c4.54-4,7-6.36,7-8.58,0-1.54-.92-2.61-2.89-2.61a4.66,4.66,0,0,0-3.22,1.6l-1-1a5.94,5.94,0,0,1,4.43-2c2.68,0,4.36,1.57,4.36,3.94,0,2.52-2.52,5-6.15,8.32.84-.07,1.7-.11,2.5-.11h4.39v1.49h-9.43Z" transform="translate(-288.87 -127.75)"/><path class="a" d="M741.81,244.82h4.43V228.73h-4.43v-1h5.81V245.8h-5.81Z" transform="translate(-288.87 -127.75)"/><path class="a" d="M748.87,327.75h5.82v1h-4.43v16.08h4.43v1h-5.82Z" transform="translate(-288.87 -127.75)"/><path class="a" d="M758.79,341.17h3.86v-9.83h-3v-1.13a9.71,9.71,0,0,0,3.44-1h1.3v11.95h3.49v1.44h-9.09Z" transform="translate(-288.87 -127.75)"/><path class="a" d="M773.46,346c1.79-.79,2.67-1.93,2.65-3.67l-.38-1.93,1.18,1.66a1.66,1.66,0,0,1-2.82-1.09,1.57,1.57,0,0,1,1.68-1.6c1.24,0,1.89,1,1.89,2.69a5.17,5.17,0,0,1-3.69,5Z" transform="translate(-288.87 -127.75)"/><path class="a" d="M783.48,341.58c4.54-4,7-6.36,7-8.58,0-1.54-.92-2.61-2.89-2.61a4.66,4.66,0,0,0-3.22,1.6l-1-1a6,6,0,0,1,4.43-2c2.68,0,4.36,1.57,4.36,3.94s-2.52,5-6.15,8.32c.84-.06,1.7-.11,2.5-.11h4.39v1.49h-9.43Z" transform="translate(-288.87 -127.75)"/><path class="a" d="M798.66,346c1.79-.79,2.67-1.93,2.65-3.67l-.38-1.93,1.18,1.66a1.66,1.66,0,0,1-2.82-1.09,1.57,1.57,0,0,1,1.68-1.6c1.24,0,1.89,1,1.89,2.69a5.17,5.17,0,0,1-3.69,5Z" transform="translate(-288.87 -127.75)"/><path class="a" d="M808.64,335.87c0-4.49,1.83-6.9,4.81-6.9s4.81,2.41,4.81,6.9-1.83,7-4.81,7S808.64,340.33,808.64,335.87Zm8,0c0-3.84-1.32-5.5-3.19-5.5s-3.19,1.66-3.19,5.5,1.32,5.59,3.19,5.59S816.64,339.72,816.64,335.87Zm-4.49-.14a1.3,1.3,0,1,1,1.3,1.4A1.3,1.3,0,0,1,812.15,335.73Z" transform="translate(-288.87 -127.75)"/><path class="a" d="M821.81,344.82h4.43V328.74h-4.43v-1h5.81V345.8h-5.81Z" transform="translate(-288.87 -127.75)"/><path class="a" d="M688.87,427.75h5.82v1h-4.43v16.08h4.43v1h-5.82Z" transform="translate(-288.87 -127.75)"/><path class="a" d="M698.79,441.17h3.86v-9.83h-3v-1.13a9.71,9.71,0,0,0,3.44-1h1.3v11.95h3.49v1.44h-9.09Z" transform="translate(-288.87 -127.75)"/><path class="a" d="M713.46,446c1.79-.79,2.67-1.93,2.65-3.67l-.38-1.93,1.18,1.66a1.66,1.66,0,0,1-2.82-1.09,1.57,1.57,0,0,1,1.68-1.6c1.24,0,1.89,1,1.89,2.69a5.17,5.17,0,0,1-3.69,5Z" transform="translate(-288.87 -127.75)"/><path class="a" d="M723.48,441.58c4.54-4,7-6.36,7-8.58,0-1.54-.92-2.61-2.89-2.61a4.66,4.66,0,0,0-3.22,1.6l-1-1a6,6,0,0,1,4.43-2c2.68,0,4.36,1.57,4.36,3.94s-2.52,5-6.15,8.32c.84-.06,1.7-.11,2.5-.11h4.39v1.49h-9.43Z" transform="translate(-288.87 -127.75)"/><path class="a" d="M738.66,446c1.79-.79,2.67-1.93,2.65-3.67l-.38-1.93,1.18,1.66a1.66,1.66,0,0,1-2.82-1.09,1.57,1.57,0,0,1,1.68-1.6c1.24,0,1.89,1,1.89,2.69a5.17,5.17,0,0,1-3.69,5Z" transform="translate(-288.87 -127.75)"/><path class="a" d="M748.64,435.87c0-4.49,1.83-6.9,4.81-6.9s4.81,2.41,4.81,6.9-1.83,7-4.81,7S748.64,440.33,748.64,435.87Zm8,0c0-3.84-1.32-5.5-3.19-5.5s-3.19,1.66-3.19,5.5,1.32,5.59,3.19,5.59S756.64,439.72,756.64,435.87Zm-4.49-.14a1.3,1.3,0,1,1,1.3,1.4A1.3,1.3,0,0,1,752.15,435.73Z" transform="translate(-288.87 -127.75)"/><path class="a" d="M761.81,444.82h4.43V428.74h-4.43v-1h5.81V445.8h-5.81Z" transform="translate(-288.87 -127.75)"/><path class="a" d="M808.87,427.75h5.82v1h-4.43v16.08h4.43v1h-5.82Z" transform="translate(-288.87 -127.75)"/><path class="a" d="M818.28,441.58c4.54-4,7-6.36,7-8.58,0-1.54-.92-2.61-2.89-2.61a4.64,4.64,0,0,0-3.22,1.6l-1-1a6,6,0,0,1,4.43-2c2.68,0,4.36,1.57,4.36,3.94s-2.51,5-6.15,8.32c.84-.06,1.7-.11,2.5-.11h4.39v1.49h-9.43Z" transform="translate(-288.87 -127.75)"/><path class="a" d="M833.46,446c1.79-.79,2.67-1.93,2.65-3.67l-.38-1.93,1.18,1.66a1.66,1.66,0,0,1-2.82-1.09,1.57,1.57,0,0,1,1.68-1.6c1.24,0,1.89,1,1.89,2.69a5.17,5.17,0,0,1-3.69,5Z" transform="translate(-288.87 -127.75)"/><path class="a" d="M844,441.17h3.86v-9.83h-3v-1.13a9.71,9.71,0,0,0,3.44-1h1.3v11.95h3.49v1.44H844Z" transform="translate(-288.87 -127.75)"/><path class="a" d="M858.66,446c1.79-.79,2.67-1.93,2.65-3.67l-.38-1.93,1.18,1.66a1.66,1.66,0,0,1-2.82-1.09,1.57,1.57,0,0,1,1.68-1.6c1.24,0,1.89,1,1.89,2.69a5.17,5.17,0,0,1-3.69,5Z" transform="translate(-288.87 -127.75)"/><path class="a" d="M868.64,435.87c0-4.49,1.83-6.9,4.81-6.9s4.81,2.41,4.81,6.9-1.83,7-4.81,7S868.64,440.33,868.64,435.87Zm8,0c0-3.84-1.32-5.5-3.19-5.5s-3.19,1.66-3.19,5.5,1.32,5.59,3.19,5.59S876.64,439.72,876.64,435.87Zm-4.49-.14a1.3,1.3,0,1,1,1.3,1.4A1.3,1.3,0,0,1,872.15,435.73Z" transform="translate(-288.87 -127.75)"/><path class="a" d="M881.81,444.82h4.43V428.74h-4.43v-1h5.81V445.8h-5.81Z" transform="translate(-288.87 -127.75)"/><path class="a" d="M588.87,327.75h5.82v1h-4.43v16.08h4.43v1h-5.82Z" transform="translate(-288.87 -127.75)"/><path class="a" d="M598.79,341.17h3.86v-9.83h-3v-1.13a9.71,9.71,0,0,0,3.44-1h1.3v11.95h3.49v1.44h-9.09Z" transform="translate(-288.87 -127.75)"/><path class="a" d="M613.46,346c1.79-.79,2.67-1.93,2.65-3.67l-.38-1.93,1.18,1.66a1.66,1.66,0,0,1-2.82-1.09,1.57,1.57,0,0,1,1.68-1.6c1.24,0,1.89,1,1.89,2.69a5.17,5.17,0,0,1-3.69,5Z" transform="translate(-288.87 -127.75)"/><path class="a" d="M623.44,335.87c0-4.49,1.83-6.9,4.81-6.9s4.81,2.41,4.81,6.9-1.83,7-4.81,7S623.44,340.33,623.44,335.87Zm8,0c0-3.84-1.32-5.5-3.19-5.5s-3.19,1.66-3.19,5.5,1.32,5.59,3.19,5.59S631.44,339.72,631.44,335.87Zm-4.49-.14a1.3,1.3,0,1,1,1.3,1.4A1.3,1.3,0,0,1,627,335.73Z" transform="translate(-288.87 -127.75)"/><path class="a" d="M638.66,346c1.79-.79,2.67-1.93,2.65-3.67l-.38-1.93,1.18,1.66a1.66,1.66,0,0,1-2.82-1.09,1.57,1.57,0,0,1,1.68-1.6c1.24,0,1.89,1,1.89,2.69a5.17,5.17,0,0,1-3.69,5Z" transform="translate(-288.87 -127.75)"/><path class="a" d="M648.68,341.58c4.54-4,7-6.36,7-8.58,0-1.54-.92-2.61-2.89-2.61a4.66,4.66,0,0,0-3.22,1.6l-1-1a6,6,0,0,1,4.43-2c2.68,0,4.36,1.57,4.36,3.94s-2.52,5-6.15,8.32c.84-.06,1.7-.11,2.5-.11h4.39v1.49h-9.43Z" transform="translate(-288.87 -127.75)"/><path class="a" d="M661.81,344.82h4.43V328.74h-4.43v-1h5.81V345.8h-5.81Z" transform="translate(-288.87 -127.75)"/><path class="a" d="M368.87,227.75h5.82v1h-4.43v16.09h4.43v1h-5.82Z" transform="translate(-288.87 -127.75)"/><path class="a" d="M378.24,235.87c0-4.49,1.83-6.9,4.81-6.9s4.81,2.41,4.81,6.9-1.83,7-4.81,7S378.24,240.32,378.24,235.87Zm8,0c0-3.84-1.32-5.5-3.19-5.5s-3.19,1.66-3.19,5.5,1.32,5.59,3.19,5.59S386.24,239.72,386.24,235.87Zm-4.49-.14a1.3,1.3,0,1,1,1.3,1.4A1.31,1.31,0,0,1,381.75,235.73Z" transform="translate(-288.87 -127.75)"/><path class="a" d="M393.46,246c1.79-.79,2.67-1.93,2.65-3.67l-.38-1.93,1.18,1.66a1.66,1.66,0,0,1-2.82-1.1,1.57,1.57,0,0,1,1.68-1.59c1.24,0,1.89,1,1.89,2.69a5.17,5.17,0,0,1-3.69,5Z" transform="translate(-288.87 -127.75)"/><path class="a" d="M404,241.16h3.86v-9.82h-3V230.2a9.73,9.73,0,0,0,3.44-1h1.3v11.94h3.49v1.45H404Z" transform="translate(-288.87 -127.75)"/><path class="a" d="M418.66,246c1.79-.79,2.67-1.93,2.65-3.67l-.38-1.93,1.18,1.66a1.66,1.66,0,0,1-2.82-1.1,1.57,1.57,0,0,1,1.68-1.59c1.24,0,1.89,1,1.89,2.69a5.17,5.17,0,0,1-3.69,5Z" transform="translate(-288.87 -127.75)"/><path class="a" d="M428.68,241.58c4.54-4,7-6.36,7-8.58,0-1.54-.92-2.61-2.89-2.61a4.66,4.66,0,0,0-3.22,1.6l-1-1a5.94,5.94,0,0,1,4.43-2c2.68,0,4.36,1.57,4.36,3.94,0,2.52-2.52,5-6.15,8.32.84-.07,1.7-.11,2.5-.11h4.39v1.49h-9.43Z" transform="translate(-288.87 -127.75)"/><path class="a" d="M441.81,244.82h4.43V228.73h-4.43v-1h5.81V245.8h-5.81Z" transform="translate(-288.87 -127.75)"/><path class="a" d="M448.87,327.75h5.82v1h-4.43v16.08h4.43v1h-5.82Z" transform="translate(-288.87 -127.75)"/><path class="a" d="M458.24,335.87c0-4.49,1.83-6.9,4.81-6.9s4.81,2.41,4.81,6.9-1.83,7-4.81,7S458.24,340.33,458.24,335.87Zm8,0c0-3.84-1.32-5.5-3.19-5.5s-3.19,1.66-3.19,5.5,1.32,5.59,3.19,5.59S466.24,339.72,466.24,335.87Zm-4.49-.14a1.3,1.3,0,1,1,1.3,1.4A1.31,1.31,0,0,1,461.75,335.73Z" transform="translate(-288.87 -127.75)"/><path class="a" d="M473.46,346c1.79-.79,2.67-1.93,2.65-3.67l-.38-1.93,1.18,1.66a1.66,1.66,0,0,1-2.82-1.09,1.57,1.57,0,0,1,1.68-1.6c1.24,0,1.89,1,1.89,2.69a5.17,5.17,0,0,1-3.69,5Z" transform="translate(-288.87 -127.75)"/><path class="a" d="M483.48,341.58c4.54-4,7-6.36,7-8.58,0-1.54-.92-2.61-2.89-2.61a4.66,4.66,0,0,0-3.22,1.6l-1-1a6,6,0,0,1,4.43-2c2.68,0,4.36,1.57,4.36,3.94s-2.52,5-6.15,8.32c.84-.06,1.7-.11,2.5-.11h4.39v1.49h-9.43Z" transform="translate(-288.87 -127.75)"/><path class="a" d="M498.66,346c1.79-.79,2.67-1.93,2.65-3.67l-.38-1.93,1.18,1.66a1.66,1.66,0,0,1-2.82-1.09,1.57,1.57,0,0,1,1.68-1.6c1.24,0,1.89,1,1.89,2.69a5.17,5.17,0,0,1-3.69,5Z" transform="translate(-288.87 -127.75)"/><path class="a" d="M509.19,341.17h3.86v-9.83h-3v-1.13a9.71,9.71,0,0,0,3.44-1h1.3v11.95h3.49v1.44h-9.09Z" transform="translate(-288.87 -127.75)"/><path class="a" d="M521.81,344.82h4.43V328.74h-4.43v-1h5.81V345.8h-5.81Z" transform="translate(-288.87 -127.75)"/><path class="a" d="M388.87,427.75h5.82v1h-4.43v16.08h4.43v1h-5.82Z" transform="translate(-288.87 -127.75)"/><path class="a" d="M398.24,435.87c0-4.49,1.83-6.9,4.81-6.9s4.81,2.41,4.81,6.9-1.83,7-4.81,7S398.24,440.33,398.24,435.87Zm8,0c0-3.84-1.32-5.5-3.19-5.5s-3.19,1.66-3.19,5.5,1.32,5.59,3.19,5.59S406.24,439.72,406.24,435.87Zm-4.49-.14a1.3,1.3,0,1,1,1.3,1.4A1.31,1.31,0,0,1,401.75,435.73Z" transform="translate(-288.87 -127.75)"/><path class="a" d="M413.46,446c1.79-.79,2.67-1.93,2.65-3.67l-.38-1.93,1.18,1.66a1.66,1.66,0,0,1-2.82-1.09,1.57,1.57,0,0,1,1.68-1.6c1.24,0,1.89,1,1.89,2.69a5.17,5.17,0,0,1-3.69,5Z" transform="translate(-288.87 -127.75)"/><path class="a" d="M423.48,441.58c4.54-4,7-6.36,7-8.58,0-1.54-.92-2.61-2.89-2.61a4.66,4.66,0,0,0-3.22,1.6l-1-1a6,6,0,0,1,4.43-2c2.68,0,4.36,1.57,4.36,3.94s-2.52,5-6.15,8.32c.84-.06,1.7-.11,2.5-.11h4.39v1.49h-9.43Z" transform="translate(-288.87 -127.75)"/><path class="a" d="M438.66,446c1.79-.79,2.67-1.93,2.65-3.67l-.38-1.93,1.18,1.66a1.66,1.66,0,0,1-2.82-1.09,1.57,1.57,0,0,1,1.68-1.6c1.24,0,1.89,1,1.89,2.69a5.17,5.17,0,0,1-3.69,5Z" transform="translate(-288.87 -127.75)"/><path class="a" d="M449.19,441.17h3.86v-9.83h-3v-1.13a9.71,9.71,0,0,0,3.44-1h1.3v11.95h3.49v1.44h-9.09Z" transform="translate(-288.87 -127.75)"/><path class="a" d="M461.81,444.82h4.43V428.74h-4.43v-1h5.81V445.8h-5.81Z" transform="translate(-288.87 -127.75)"/><path class="a" d="M508.87,427.75h5.82v1h-4.43v16.08h4.43v1h-5.82Z" transform="translate(-288.87 -127.75)"/><path class="a" d="M518.28,441.58c4.54-4,7-6.36,7-8.58,0-1.54-.92-2.61-2.89-2.61a4.64,4.64,0,0,0-3.22,1.6l-1-1a6,6,0,0,1,4.43-2c2.68,0,4.36,1.57,4.36,3.94s-2.51,5-6.15,8.32c.84-.06,1.7-.11,2.5-.11h4.39v1.49h-9.43Z" transform="translate(-288.87 -127.75)"/><path class="a" d="M533.46,446c1.79-.79,2.67-1.93,2.65-3.67l-.38-1.93,1.18,1.66a1.66,1.66,0,0,1-2.82-1.09,1.57,1.57,0,0,1,1.68-1.6c1.24,0,1.89,1,1.89,2.69a5.17,5.17,0,0,1-3.69,5Z" transform="translate(-288.87 -127.75)"/><path class="a" d="M543.44,435.87c0-4.49,1.83-6.9,4.81-6.9s4.81,2.41,4.81,6.9-1.83,7-4.81,7S543.44,440.33,543.44,435.87Zm8,0c0-3.84-1.32-5.5-3.19-5.5s-3.19,1.66-3.19,5.5,1.32,5.59,3.19,5.59S551.44,439.72,551.44,435.87Zm-4.49-.14a1.3,1.3,0,1,1,1.3,1.4A1.3,1.3,0,0,1,547,435.73Z" transform="translate(-288.87 -127.75)"/><path class="a" d="M558.66,446c1.79-.79,2.67-1.93,2.65-3.67l-.38-1.93,1.18,1.66a1.66,1.66,0,0,1-2.82-1.09,1.57,1.57,0,0,1,1.68-1.6c1.24,0,1.89,1,1.89,2.69a5.17,5.17,0,0,1-3.69,5Z" transform="translate(-288.87 -127.75)"/><path class="a" d="M569.19,441.17h3.86v-9.83h-3v-1.13a9.71,9.71,0,0,0,3.44-1h1.3v11.95h3.49v1.44h-9.09Z" transform="translate(-288.87 -127.75)"/><path class="a" d="M581.81,444.82h4.43V428.74h-4.43v-1h5.81V445.8h-5.81Z" transform="translate(-288.87 -127.75)"/><path class="a" d="M288.87,327.75h5.82v1h-4.43v16.08h4.43v1h-5.82Z" transform="translate(-288.87 -127.75)"/><path class="a" d="M298.24,335.87c0-4.49,1.83-6.9,4.81-6.9s4.81,2.41,4.81,6.9-1.83,7-4.81,7S298.24,340.33,298.24,335.87Zm8,0c0-3.84-1.32-5.5-3.19-5.5s-3.19,1.66-3.19,5.5,1.32,5.59,3.19,5.59S306.24,339.72,306.24,335.87Zm-4.49-.14a1.3,1.3,0,1,1,1.3,1.4A1.31,1.31,0,0,1,301.75,335.73Z" transform="translate(-288.87 -127.75)"/><path class="a" d="M313.46,346c1.79-.79,2.67-1.93,2.65-3.67l-.38-1.93,1.18,1.66a1.66,1.66,0,0,1-2.82-1.09,1.57,1.57,0,0,1,1.68-1.6c1.24,0,1.89,1,1.89,2.69a5.17,5.17,0,0,1-3.69,5Z" transform="translate(-288.87 -127.75)"/><path class="a" d="M324,341.17h3.86v-9.83h-3v-1.13a9.71,9.71,0,0,0,3.44-1h1.3v11.95h3.49v1.44H324Z" transform="translate(-288.87 -127.75)"/><path class="a" d="M338.66,346c1.79-.79,2.67-1.93,2.65-3.67l-.38-1.93,1.18,1.66a1.66,1.66,0,0,1-2.82-1.09,1.57,1.57,0,0,1,1.68-1.6c1.24,0,1.89,1,1.89,2.69a5.17,5.17,0,0,1-3.69,5Z" transform="translate(-288.87 -127.75)"/><path class="a" d="M348.68,341.58c4.54-4,7-6.36,7-8.58,0-1.54-.92-2.61-2.89-2.61a4.66,4.66,0,0,0-3.22,1.6l-1-1a6,6,0,0,1,4.43-2c2.68,0,4.36,1.57,4.36,3.94s-2.52,5-6.15,8.32c.84-.06,1.7-.11,2.5-.11h4.39v1.49h-9.43Z" transform="translate(-288.87 -127.75)"/><path class="a" d="M361.81,344.82h4.43V328.74h-4.43v-1h5.81V345.8h-5.81Z" transform="translate(-288.87 -127.75)"/><line class="b" x1="238.13" y1="26.25" x2="144.13" y2="93.25"/><line class="b" x1="292.13" y1="26.25" x2="386.13" y2="93.25"/><line class="b" x1="98.63" y1="123.75" x2="55.63" y2="196.75"/><line class="b" x1="178.63" y1="222.75" x2="157.63" y2="295.75"/><line class="b" x1="217.63" y1="222.75" x2="238.63" y2="295.75"/><line class="b" x1="479.63" y1="222.75" x2="458.63" y2="295.75"/><line class="b" x1="518.63" y1="222.75" x2="539.63" y2="295.75"/><line class="b" x1="399.63" y1="123.75" x2="356.63" y2="196.75"/><line class="b" x1="139.63" y1="123.75" x2="182.63" y2="196.75"/><line class="b" x1="439.63" y1="123.75" x2="482.63" y2="196.75"/></svg>