<svg xmlns="http://www.w3.org/2000/svg" viewBox="0 0 362.35 333.96"><defs><style>.a{fill:none;stroke:#3ea69f;stroke-miterlimit:10;}.b{fill:#3ea69f;}</style></defs><rect class="a" x="81.85" y="0.5" width="280" height="32.96"/><line class="a" x1="193.96" y1="0.5" x2="193.96" y2="33.46"/><line class="a" x1="249.96" y1="0.5" x2="249.96" y2="33.46"/><line class="a" x1="305.96" y1="0.5" x2="305.96" y2="33.46"/><line class="a" x1="137.96" y1="0.5" x2="137.96" y2="33.46"/><path class="b" d="M170.92,164.64c0-4.65,1.89-7.15,5-7.15s5,2.5,5,7.15-1.89,7.23-5,7.23S170.92,169.24,170.92,164.64Zm8.28,0c0-4-1.37-5.69-3.3-5.69s-3.31,1.71-3.31,5.69,1.37,5.78,3.31,5.78S179.2,168.61,179.2,164.64Zm-4.65-.15a1.35,1.35,0,1,1,1.35,1.45A1.36,1.36,0,0,1,174.55,164.49Z" transform="translate(-66.65 -148.02)"/><path class="b" d="M227.49,170.11h4V159.94h-3.1v-1.17a10,10,0,0,0,3.56-1h1.35v12.36h3.6v1.5h-9.4Z" transform="translate(-66.65 -148.02)"/><path class="b" d="M284,170.55c4.7-4.15,7.26-6.59,7.26-8.89,0-1.58-1-2.69-3-2.69a4.78,4.78,0,0,0-3.32,1.65l-1-1a6.17,6.17,0,0,1,4.58-2.11c2.78,0,4.52,1.63,4.52,4.08,0,2.61-2.61,5.2-6.37,8.61.87-.07,1.76-.11,2.59-.11h4.54v1.54H284Z" transform="translate(-66.65 -148.02)"/><path class="b" d="M339.62,169.92l.91-1.17a5.63,5.63,0,0,0,4,1.62c1.89,0,3.3-1,3.3-2.52s-1.39-2.76-5-2.76v-1.36c3.28,0,4.54-1.13,4.54-2.59s-1.15-2.17-2.82-2.17a5.23,5.23,0,0,0-3.42,1.39l-.95-1.13a6.71,6.71,0,0,1,4.43-1.74c2.61,0,4.59,1.28,4.59,3.52,0,1.67-1.24,2.74-3,3.3v.09c1.85.39,3.43,1.61,3.43,3.52,0,2.45-2.26,4-5,4A6.78,6.78,0,0,1,339.62,169.92Z" transform="translate(-66.65 -148.02)"/><path class="b" d="M402.37,162.07c0-.76.07-1.69.11-2.45h-.11c-.45.67-.95,1.35-1.41,2l-3.74,4.69h9v1.46h-11v-1.2l6.9-8.84h1.94v13.86h-1.7Z" transform="translate(-66.65 -148.02)"/><rect class="a" x="81.85" y="300.5" width="280" height="32.96"/><line class="a" x1="193.96" y1="300.5" x2="193.96" y2="333.46"/><line class="a" x1="249.96" y1="300.5" x2="249.96" y2="333.46"/><line class="a" x1="305.96" y1="300.5" x2="305.96" y2="333.46"/><line class="a" x1="137.96" y1="300.5" x2="137.96" y2="333.46"/><path class="b" d="M177.37,462.08c0-.77.07-1.7.11-2.46h-.11c-.45.67-1,1.35-1.41,2l-3.74,4.69h9v1.46h-11v-1.2l6.9-8.84h1.94v13.86h-1.7Z" transform="translate(-66.65 -148.02)"/><path class="b" d="M226.62,469.92l.91-1.17a5.63,5.63,0,0,0,4,1.63c1.89,0,3.3-1,3.3-2.53s-1.39-2.76-5-2.76v-1.36c3.28,0,4.54-1.13,4.54-2.59s-1.15-2.17-2.82-2.17a5.23,5.23,0,0,0-3.42,1.39l-1-1.13a6.71,6.71,0,0,1,4.43-1.74c2.61,0,4.59,1.28,4.59,3.52,0,1.67-1.24,2.74-3,3.3v.09c1.85.39,3.43,1.61,3.43,3.52,0,2.46-2.26,3.95-5,3.95A6.78,6.78,0,0,1,226.62,469.92Z" transform="translate(-66.65 -148.02)"/><path class="b" d="M284.49,470.11h4V460h-3.1v-1.18a10,10,0,0,0,3.56-1h1.35v12.36h3.6v1.5h-9.4Z" transform="translate(-66.65 -148.02)"/><path class="b" d="M340,470.55c4.7-4.15,7.26-6.59,7.26-8.89,0-1.58-1-2.69-3-2.69a4.78,4.78,0,0,0-3.32,1.65l-1-1a6.17,6.17,0,0,1,4.58-2.11c2.78,0,4.52,1.63,4.52,4.09s-2.61,5.19-6.37,8.6c.87-.07,1.76-.11,2.59-.11h4.54v1.54H340Z" transform="translate(-66.65 -148.02)"/><path class="b" d="M395.92,464.64c0-4.65,1.89-7.15,5-7.15s5,2.5,5,7.15-1.89,7.23-5,7.23S395.92,469.25,395.92,464.64Zm8.28,0c0-4-1.37-5.69-3.3-5.69s-3.31,1.71-3.31,5.69,1.37,5.78,3.31,5.78S404.2,468.62,404.2,464.64Zm-4.65-.15a1.35,1.35,0,1,1,1.35,1.45A1.36,1.36,0,0,1,399.55,464.49Z" transform="translate(-66.65 -148.02)"/><rect class="a" x="81.85" y="150.5" width="280" height="32.96"/><line class="a" x1="193.96" y1="150.5" x2="193.96" y2="183.46"/><line class="a" x1="249.96" y1="150.5" x2="249.96" y2="183.46"/><line class="a" x1="305.96" y1="150.5" x2="305.96" y2="183.46"/><line class="a" x1="137.96" y1="150.5" x2="137.96" y2="183.46"/><path class="b" d="M164.08,320l.89-1.19a5.53,5.53,0,0,0,3.91,1.59,3.22,3.22,0,0,0,3.5-3.16c0-1.91-1.35-3-3.39-3a5.23,5.23,0,0,0-2.83.83l-.95-.61.45-6.67h7.85v1.57h-6.26l-.37,4.08a5.88,5.88,0,0,1,2.56-.57c2.65,0,4.76,1.35,4.76,4.35s-2.47,4.69-5.13,4.69A6.94,6.94,0,0,1,164.08,320Z" transform="translate(-66.65 -148.02)"/><path class="b" d="M177.44,314.64c0-4.65,1.89-7.15,5-7.15s5,2.5,5,7.15-1.89,7.23-5,7.23S177.44,319.25,177.44,314.64Zm8.28,0c0-4-1.37-5.69-3.3-5.69s-3.31,1.71-3.31,5.69,1.37,5.78,3.31,5.78S185.72,318.62,185.72,314.64Zm-4.65-.15a1.35,1.35,0,1,1,1.35,1.45A1.36,1.36,0,0,1,181.07,314.49Z" transform="translate(-66.65 -148.02)"/><path class="b" d="M165,276.36h4.46c2.89,0,5,1,5,4s-2.1,4.21-5,4.21h-2.61v6H165Zm4.2,6.76c2.21,0,3.43-.92,3.43-2.74s-1.22-2.54-3.43-2.54h-2.35v5.28Zm1.32,0,4.35,7.47h-2.07l-3.71-6.52Z" transform="translate(-66.65 -148.02)"/><path class="b" d="M179,290.2c0-2.85,1.37-4.48,3.46-4.48s3.45,1.63,3.45,4.48-1.37,4.52-3.45,4.52S179,293.09,179,290.2Zm5.54,0c0-2.26-.85-3.35-2.08-3.35s-2.09,1.09-2.09,3.35.85,3.41,2.09,3.41S184.5,292.48,184.5,290.2Z" transform="translate(-66.65 -148.02)"/><path class="b" d="M221,276.36h4.46c2.89,0,5,1,5,4s-2.1,4.21-5,4.21h-2.61v6H221Zm4.2,6.76c2.21,0,3.43-.92,3.43-2.74s-1.22-2.54-3.43-2.54h-2.35v5.28Zm1.32,0,4.35,7.47h-2.07l-3.71-6.52Z" transform="translate(-66.65 -148.02)"/><path class="b" d="M235.7,293.26h6.54v1.2H235.7Zm2.67-5.47h-2.28v-.91a5.09,5.09,0,0,0,2.54-.9h1.15v8.48h-1.41Z" transform="translate(-66.65 -148.02)"/><path class="b" d="M278,276.36h4.46c2.89,0,5,1,5,4s-2.1,4.21-5,4.21h-2.61v6H278Zm4.2,6.76c2.21,0,3.43-.92,3.43-2.74s-1.22-2.54-3.43-2.54h-2.35v5.28Zm1.32,0,4.35,7.47h-2.07l-3.71-6.52Z" transform="translate(-66.65 -148.02)"/><path class="b" d="M292.33,293.66c2.91-2.48,4.45-3.7,4.45-5a1.67,1.67,0,0,0-1.84-1.76,2.58,2.58,0,0,0-2.05,1.22l-.82-.76a3.7,3.7,0,0,1,3.06-1.66c1.81,0,3,1,3,2.76,0,1.63-1.52,2.85-3.58,4.78h4v1.2h-6.17Z" transform="translate(-66.65 -148.02)"/><path class="b" d="M334,276.36h4.46c2.89,0,5,1,5,4s-2.1,4.21-5,4.21h-2.61v6H334Zm4.2,6.76c2.21,0,3.43-.92,3.43-2.74s-1.22-2.54-3.43-2.54h-2.35v5.28Zm1.32,0,4.35,7.47h-2.07l-3.71-6.52Z" transform="translate(-66.65 -148.02)"/><path class="b" d="M348,293.07l.91-.72a2.83,2.83,0,0,0,2.37,1.26c1.05,0,1.91-.54,1.91-1.5s-.91-1.5-2.84-1.5v-.89c1.71,0,2.52-.67,2.52-1.54s-.7-1.33-1.74-1.33a2.64,2.64,0,0,0-1.95,1l-.83-.74a3.73,3.73,0,0,1,3-1.42c1.58,0,2.93.87,2.93,2.29,0,1-.57,1.65-1.7,2.08a2.18,2.18,0,0,1,2,2.09c0,1.56-1.46,2.54-3.22,2.54A4,4,0,0,1,348,293.07Z" transform="translate(-66.65 -148.02)"/><path class="b" d="M390,276.36h4.46c2.89,0,5,1,5,4s-2.1,4.21-5,4.21h-2.61v6H390Zm4.2,6.76c2.21,0,3.43-.92,3.43-2.74s-1.22-2.54-3.43-2.54h-2.35v5.28Zm1.32,0,4.35,7.47h-2.07l-3.71-6.52Z" transform="translate(-66.65 -148.02)"/><path class="b" d="M404.11,291.48l3.33-5.76,1,.57-2.85,4.91h5.31v1h-6.83Zm4.3-2.8h1.26v5.78h-1.26Z" transform="translate(-66.65 -148.02)"/><path class="b" d="M227.09,320.42l1-1.13a4.12,4.12,0,0,0,2.76,1.09c2.24,0,4.22-1.59,4.22-6.22,0-3.41-1.33-5.24-3.61-5.24a2.87,2.87,0,0,0-2.93,3,2.66,2.66,0,0,0,2.95,2.94,4.86,4.86,0,0,0,3.61-2l.07,1.41a5.72,5.72,0,0,1-4,1.89c-2.57,0-4.31-1.43-4.31-4.28a4.46,4.46,0,0,1,4.61-4.45c3,0,5.32,2.22,5.32,6.67,0,5.56-2.8,7.71-5.8,7.71A5.65,5.65,0,0,1,227.09,320.42Z" transform="translate(-66.65 -148.02)"/><path class="b" d="M278,320.11h4V310h-3.11v-1.18a10,10,0,0,0,3.56-1h1.35v12.36h3.61v1.5H278Z" transform="translate(-66.65 -148.02)"/><path class="b" d="M291,320.11h4V310h-3.11v-1.18a10.06,10.06,0,0,0,3.57-1h1.35v12.36h3.6v1.5H291Z" transform="translate(-66.65 -148.02)"/><path class="b" d="M339.86,318.07c0-1.91,1.47-3,3-3.69v-.09a3.9,3.9,0,0,1-2.11-3.24c0-2.13,1.81-3.56,4.28-3.56,2.72,0,4.31,1.54,4.31,3.69a4.37,4.37,0,0,1-2.11,3.31v.08c1.52.76,2.72,1.63,2.72,3.61s-1.81,3.69-5,3.69S339.86,320.27,339.86,318.07Zm8.34.05c0-1.92-1.93-2.42-4.35-3.22-1.34.72-2.36,1.61-2.36,3s1.36,2.63,3.49,2.63S348.2,319.55,348.2,318.12Zm-.46-6.85c0-1.35-1-2.43-2.78-2.43a2.29,2.29,0,0,0-2.58,2.21c0,1.66,1.58,2.35,3.65,3A3.5,3.5,0,0,0,347.74,311.27Z" transform="translate(-66.65 -148.02)"/><path class="b" d="M395.62,319.92l.91-1.17a5.63,5.63,0,0,0,4,1.63c1.89,0,3.3-1,3.3-2.53s-1.39-2.76-5-2.76v-1.36c3.28,0,4.54-1.13,4.54-2.59s-1.15-2.17-2.82-2.17a5.23,5.23,0,0,0-3.42,1.39l-.95-1.13a6.71,6.71,0,0,1,4.43-1.74c2.61,0,4.59,1.28,4.59,3.52,0,1.67-1.24,2.74-3,3.3v.09c1.85.39,3.43,1.61,3.43,3.52,0,2.46-2.26,3.95-5,3.95A6.78,6.78,0,0,1,395.62,319.92Z" transform="translate(-66.65 -148.02)"/><line class="a" x1="109.35" y1="43.98" x2="109.35" y2="109.95"/><path class="b" d="M176,264a30.1,30.1,0,0,0-4.76-8.55l4.76,1.72,4.75-1.72A30.31,30.31,0,0,0,176,264Z" transform="translate(-66.65 -148.02)"/><line class="a" x1="165.85" y1="43.98" x2="165.85" y2="109.95"/><path class="b" d="M232.5,264a30.1,30.1,0,0,0-4.76-8.55l4.76,1.72,4.75-1.72A30.31,30.31,0,0,0,232.5,264Z" transform="translate(-66.65 -148.02)"/><line class="a" x1="221.85" y1="43.98" x2="221.85" y2="109.95"/><path class="b" d="M288.5,264a30.1,30.1,0,0,0-4.76-8.55l4.76,1.72,4.75-1.72A30.31,30.31,0,0,0,288.5,264Z" transform="translate(-66.65 -148.02)"/><line class="a" x1="277.85" y1="43.98" x2="277.85" y2="109.95"/><path class="b" d="M344.5,264a30.1,30.1,0,0,0-4.76-8.55l4.76,1.72,4.75-1.72A30.31,30.31,0,0,0,344.5,264Z" transform="translate(-66.65 -148.02)"/><line class="a" x1="333.85" y1="43.98" x2="333.85" y2="109.95"/><path class="b" d="M400.5,264a30.1,30.1,0,0,0-4.76-8.55l4.76,1.72,4.75-1.72A30.31,30.31,0,0,0,400.5,264Z" transform="translate(-66.65 -148.02)"/><polyline class="a" points="109.36 291.98 109.36 263.98 334.36 263.98 334.36 201.02"/><path class="b" d="M401,343a30.1,30.1,0,0,0,4.76,8.55L401,349.83l-4.75,1.72A30.31,30.31,0,0,0,401,343Z" transform="translate(-66.65 -148.02)"/><polyline class="a" points="165.85 291.48 165.85 243.48 277.86 243.48 277.86 200.52"/><path class="b" d="M344.5,342.5a30.1,30.1,0,0,0,4.76,8.55l-4.76-1.72-4.75,1.72A30.31,30.31,0,0,0,344.5,342.5Z" transform="translate(-66.65 -148.02)"/><polyline class="a" points="221.85 291.48 221.85 224.48 165.85 224.48 165.85 200.52"/><path class="b" d="M232.5,342.5a30.1,30.1,0,0,0,4.76,8.55l-4.76-1.72-4.75,1.72A30.31,30.31,0,0,0,232.5,342.5Z" transform="translate(-66.65 -148.02)"/><line class="a" x1="277.85" y1="291.48" x2="224.87" y2="199.71"/><path class="b" d="M288.5,342.5a30,30,0,0,0,8.39,5l-5,.89-3.25,3.87A30.35,30.35,0,0,0,288.5,342.5Z" transform="translate(-66.65 -148.02)"/><line class="a" x1="333.85" y1="291.48" x2="114.4" y2="196.87"/><path class="b" d="M175.5,342.5a30.24,30.24,0,0,0,9.73-1l-3.46,3.68-.3,5.05A30.46,30.46,0,0,0,175.5,342.5Z" transform="translate(-66.65 -148.02)"/><path class="b" d="M73,157.87h.07a.5.5,0,0,1,.53.31v.07c-.1.86-.16,1.34-.16,1.44v.39c0,.92,0,2.21.08,3.86a1.81,1.81,0,0,0,.31.46v.08a.85.85,0,0,0-.23.53v.31c-.1,2-.16,3.09-.16,3.26v1.14c0,.25,0,.63.08,1.14l-.15.07h-.08a1.73,1.73,0,0,1-.6-1.52v-2.13c0-.09,0-.14-.15-.14a1.78,1.78,0,0,1-1.06.68l-.15-.23v-.08c0-.32.4-.62,1.21-.9a3.16,3.16,0,0,0,.3-1.37l-.15-.07h-.08a1.93,1.93,0,0,1-1.67.6,2.57,2.57,0,0,0-.15,1V169c0,.45-.2.68-.61.68a5.75,5.75,0,0,1-1.75-3,.07.07,0,0,1-.07-.07,4.25,4.25,0,0,1-1.22.45.5.5,0,0,1-.52-.3c0-.45.65-.81,2-1.07,1-.6,1.52-1.06,1.52-1.37v-1.74a.14.14,0,0,0-.15-.16,15.32,15.32,0,0,1-1.59.16c-.76-.05-1.14-.18-1.14-.38v-.3s.08-.12.23-.23l.91.08c1.22,0,1.82-.26,1.82-.77.09-1.31.29-2,.61-2s.61.23.61.3a3.93,3.93,0,0,0-.46,1.83l.16.07c1.06-.43,1.59-.8,1.59-1.13V159C72.72,158.25,72.82,157.87,73,157.87Zm-4.26,8.81a5.58,5.58,0,0,0,1.07,1.52c.15,0,.22-.21.22-.46v-2.13H70A5.44,5.44,0,0,0,68.77,166.68Zm2.2-4.33c0,.23,0,.82-.07,1.75h.15l.53-.16.07.16a2.66,2.66,0,0,0-.68.84h.08a2,2,0,0,0,1.75-.62v-.22c0-.61-.08-.91-.23-.91-.71,0-1.06-.18-1.06-.54a1.9,1.9,0,0,1,.52-.23l.46.08h.08s.11-.07.23-.23l-.08-.14v-.92a.13.13,0,0,0-.15-.15C71.53,161.68,71,162.11,71,162.35Zm4.48-5h.15c.14,0,.24.26.31.76v4.1H76A9,9,0,0,0,77.5,162c.26.08.39.23.39.44a4,4,0,0,1-1.83.92.57.57,0,0,1-.15.31v.67a13,13,0,0,0,1.52-.15.83.83,0,0,1,.46.38c0,.24-.66.49-2,.77v1.13c0,.11.07.16.15.16a10.63,10.63,0,0,0,2.58-.69l.08.15a4,4,0,0,1-2.35,1.44c-.31,0-.46.11-.46.23v2.59a5.43,5.43,0,0,0,.15,1.29c-.07.25-.14.38-.23.38-.4,0-.61-1-.61-3,0-1.72,0-3.57-.07-5.54l-.23-.46a5.82,5.82,0,0,0,.3-1.14v-.68c0-.78,0-2-.07-3.57Z" transform="translate(-66.65 -148.02)"/><path class="b" d="M89.09,159.3c.11,0,.17.08.17.17-.11.56-.82,1.23-2.11,2a17.09,17.09,0,0,1-1.78.42,26.6,26.6,0,0,0,.43,3.8c1.63-.39,2.45-1,2.45-1.69h-.09a6.22,6.22,0,0,0-.92.09c-.51,0-.77-.59-.77-1.77a14,14,0,0,1,3.63-1.27.82.82,0,0,1,.59.77c0,.34-.45,1-1.34,2.1v.17A23,23,0,0,1,92.8,163c.22,0,.42.26.59.77a4,4,0,0,1-1.69,2h-.08l-.08-.17a5.69,5.69,0,0,0,.42-1h-.08c-1.07.27-1.61.49-1.61.67.06.71.09,1.13.09,1.27s0,.43-.09.93a.58.58,0,0,0,.09.25,9.84,9.84,0,0,0-.09,1.18v.51q0,.72.09,2.28L90,172h-.17a2.92,2.92,0,0,1-1-1.85v-.18H89l.26.18.09-.18v-.5c.11-1.27.16-1.94.16-2v-.92c0-.06,0-.09.08-.09l-.08-.17a2,2,0,0,0,.08-.33.73.73,0,0,1-.08-.26h-.08a18.44,18.44,0,0,1-3.21,1.18h-.08l-.42-.08-.09.17v.67c0,3.21-.37,4.81-1.1,4.81-.09,0-.2-.11-.33-.34a24.33,24.33,0,0,0,.59-5.73c0-3.15-.29-4.73-.85-4.73a.57.57,0,0,1-.33-.59c0-.23.16-.34.33-.34l1.19.09c2.53-.65,3.8-1.13,3.8-1.44Zm-3.88-2.36c2,.45,3,1,3,1.52a.54.54,0,0,1-.34.5c-.15-.33-.57-.5-1.27-.5-1.12-.28-1.69-.65-1.69-1.1v-.17C85,157.11,85,157,85.21,156.94Zm2.53,6V163a3.86,3.86,0,0,1,1,.35,1.44,1.44,0,0,0,.51-.85C88.25,162.68,87.74,162.82,87.74,162.93Z" transform="translate(-66.65 -148.02)"/><path class="b" d="M106.34,157h.16c.09,0,.17.09.26.26v.08a9.41,9.41,0,0,0-1.94,3.21H105c.14,0,1.37-.31,3.71-.93l.09.17a24.15,24.15,0,0,1-4.48,1.94c-.07.28-.15.42-.25.42s-.11-.2-.33-.34c-.68,0-1,.28-1,.85a9.55,9.55,0,0,0-.17,1.26h.09a2.57,2.57,0,0,1,1.1-.33h.33c.45.21.68.94.68,2.19v1.86l.42-.09.08.17q-.42.24-.42.51c.11,1.87.17,2.94.17,3.21v.07c0,.09-.11.21-.34.35-.38,0-.69-.34-.92-1a.07.07,0,0,0,.08-.08l.16.08h.09c-.06-.56-.09-1-.09-1.27v-.5h-.16a3.62,3.62,0,0,1-1.86,1v.85c0,.62-.08.93-.25.93s-.47-.9-.51-2.71a1.56,1.56,0,0,0-.42-.76c.28-.19.48-1,.59-2.53a22.91,22.91,0,0,1,.68-3.63v-.08a9.8,9.8,0,0,1-2.29.25.71.71,0,0,1-.66-.42v-.25c0-.08.08-.16.24-.25l.42.08a30.2,30.2,0,0,0,4.06-.76v-.09c-.62,0-1-.59-1.18-1.76V158a.56.56,0,0,1,.33-.58h.09c.25,0,.42.75.5,2.27.12.56.23.85.34.85C104.83,158.16,105.65,157,106.34,157ZM102,168.37v.76l-.09.18h.17a6.43,6.43,0,0,0,1.77-1.27l-.08-.18v-.58h-.17Zm.08-1.09h.09a4.36,4.36,0,0,1,1.43-.43h.17v-2c0-.29-.09-.46-.26-.51-.84.23-1.27.56-1.27,1C102.17,166.34,102.12,167,102.12,167.28Zm6.84-4.22H109c.34,0,.51.79.51,2.36v.68q0,6.17-.33,6.16l-.18.08h-.33a8.64,8.64,0,0,0-2.44-2v-.26h.24a4.56,4.56,0,0,1,2.11,1s0-.08.09-.08c-.11-1.05-.17-2.85-.17-5.4v-.42C108.53,163.76,108.67,163.06,109,163.06Zm-1.86,1.61h.08c.28,0,.42.73.42,2.18q0,1.44-.42,1.44a.83.83,0,0,1-.42-.85v-1.6C106.82,165.06,106.93,164.67,107.1,164.67Z" transform="translate(-66.65 -148.02)"/><path class="b" d="M73.74,306.29h.17c.45,0,.67.34.67,1-.84.9-1.26,1.58-1.26,2L75,309h.09c.09,0,.2.12.34.34v.51c0,.15-.65.41-1.94.76a3,3,0,0,1,.17.84,19,19,0,0,1-.34,2.28,29.84,29.84,0,0,0,3.37-.76c.84.13,1.27.3,1.27.5V314c0,.14-.79.28-2.36.43-.68.21-1,.38-1.1.5l3,3.12v.42c0,.09-.12.2-.35.34h-.33a29.07,29.07,0,0,1-3-3.12,2,2,0,0,0-.85-.42c-.44.95-.92,2.1-1.43,3.46l-.33.34h-.68c-.09,0-.2-.12-.33-.34v-.26a7.54,7.54,0,0,0,1.09-2.95l-.17-.08H70.2c-1.86-.17-2.79-.56-2.79-1.19,0-.08.08-.16.25-.25a8.2,8.2,0,0,0,1.36.17h2.11c.67,0,1.06-.53,1.18-1.61l.25-1.6-.17-.08c-1.16.17-1.81.25-1.94.25-1.12-.1-1.69-.3-1.69-.59v-.16c0-.09.09-.17.26-.26h.59a16.86,16.86,0,0,0,2.19-.25l-1.26-2.7a1,1,0,0,1-.09-.51l.17-.08h.09c.89,0,1.34.67,1.34,2,.12,0,.18.2.18.59h.08a7,7,0,0,0,1.26-2.78Z" transform="translate(-66.65 -148.02)"/><path class="b" d="M86.31,310.59l.25.34c0,.12-.37.37-1.1.76v1h.08a1.77,1.77,0,0,1,.85-.24v.07c-.73.8-1.09,1.36-1.09,1.69a14.12,14.12,0,0,1-.18,1.94h.09a4.61,4.61,0,0,1,1.1-.84l.08.17v.16a11.4,11.4,0,0,1-2.19,3.13.83.83,0,0,1-.51-.42v-.09c.56-.62.84-1.89.84-3.79.06,0,.09-.06.09-.17h-.17a3.21,3.21,0,0,1-1.26.59H83c-.08,0-.16-.09-.25-.26s.65-.68,1.94-1.6a6.66,6.66,0,0,0,.17-1.26h-.08A3.35,3.35,0,0,1,84,312h-.34c-.09,0-.17-.09-.26-.26v-.08A4.57,4.57,0,0,1,86.31,310.59Zm-1.78-3.45c.28,0,.42.33.42,1v.42H85a3.66,3.66,0,0,0,1-.33c.22.08.34.16.34.24v.26a7.57,7.57,0,0,1-1.69.84c-.25.45-.42.68-.5.68h-.09c-.14,0-.23-.11-.26-.34s.14-.83.43-2.11v-.51C84.28,307.19,84.36,307.14,84.53,307.14Zm3.88,1.78a.54.54,0,0,1,.61.62,9.25,9.25,0,0,1-1.58,2.9v.17h.09a5.84,5.84,0,0,1,1.67-.7h.09c.08,0,.17.09.26.26v.27a14.27,14.27,0,0,1-1.41,2.8v.09q3,3.17,3.87,3.16c1.7.13,2.55.31,2.55.53a4.83,4.83,0,0,1-1.41.26H91.48q-.74,0-3.69-3.16A4.55,4.55,0,0,1,87,317h-.18c-.11,0-.17-.06-.17-.18s.15-.48.44-1.32v-.08c-.47-.45-.7-.8-.7-1.06s.08-.17.17-.17h.18l.79.52a8.49,8.49,0,0,0,.88-1.75h-.09l-1.23.44c-.24-.08-.35-.17-.35-.26a33.14,33.14,0,0,0,1.49-3.43v-.09h-.09a3.16,3.16,0,0,1-.79.18.6.6,0,0,1-.61-.35v-.18C86.74,309,87.29,308.92,88.41,308.92Zm2.72-3.43h.09c.16,0,.28.33.35,1l1.14-.17c.35.11.53.23.53.35V307a8.7,8.7,0,0,0-.35,1.4v.09l.61-.09h.44q.18,0,.18.18c0,.09-.42.36-1.23.79a.68.68,0,0,0-.09.35v.53h.53c.08,0,.17.09.26.26-.12.29-.77.67-1.93,1.15l-.26.44.08.44h.09l1.32-.36.09.18v.09a5.27,5.27,0,0,1-1.41,1.14.68.68,0,0,0-.09.35.61.61,0,0,1,.09.26l1.58-.52.18.26v.17c0,.11-.56.47-1.67,1a.08.08,0,0,1-.09.09l.18,2.2-.27.17a10.73,10.73,0,0,1-.61-2.19.56.56,0,0,1-.53-.36,1.23,1.23,0,0,0,.44-.79v-.43h-.44c-.12,0-.18,0-.18-.17v-.18l.62-.7v-.62l-.09-.17-.17.09h-.44c-.09,0-.17-.09-.27-.27a4.17,4.17,0,0,0,1-.88v-.88c0-.11-.06-.17-.18-.17a3.75,3.75,0,0,0-.87.17c-.3-.07-.44-.16-.44-.26v-.09c0-.16.49-.42,1.49-.79v-1.58h-.26a.59.59,0,0,1-.62-.35c0-.06.29-.27.88-.62C90.78,305.85,90.9,305.56,91.13,305.49Zm.27,1.76v1.58h.08c.53,0,.79-.55.79-1.67l-.17-.08Zm0,2.64v.7c0,.12.07.18.17.18.47-.11.7-.23.7-.35,0-.59-.13-.88-.26-.88A.57.57,0,0,0,91.4,309.89Z" transform="translate(-66.65 -148.02)"/><path class="b" d="M107.14,306.55c.45.34.67.6.67.75,0,.39-.76,1.23-2.27,2.54l-.09.17v.17c.36,0,.59.25.68.75v.26a4.83,4.83,0,0,1-1.1,1.94v.08h.08a20.18,20.18,0,0,1,2.28-.59h1c.45,0,.68.26.68.77,0,.33-.22.5-.51.5-.5-.06-.81-.08-.92-.08-1.19.22-1.78.5-1.78.84-.05,1.06-.16,2.18-.33,3.38v.16l.08.51c-.12.9-.26,1.35-.43,1.35H105c-.55,0-1.17-.48-1.86-1.43,0-.12.08-.17.17-.17a1.32,1.32,0,0,1,.76.25h.25a17.85,17.85,0,0,0,.51-3.29v-.68a34.46,34.46,0,0,1-4.73.93v-.09l-.17.09c-.25-.11-.39-.22-.42-.34v-.17c0-.5.45-.75,1.36-.75,1.85-.31,2.78-.59,2.78-.85s.42-.93,1.27-1.77v-.17l-.85.09q-.93-.21-.93-.51a1.37,1.37,0,0,1,1.36-.76,2.43,2.43,0,0,1-.09-.34,12.87,12.87,0,0,1,1.69-2H106a18,18,0,0,0-2.61,1,.61.61,0,0,1-.26-.09,4,4,0,0,1-.75.09.57.57,0,0,1-.35-.59A12.22,12.22,0,0,1,107.14,306.55Zm-6.41.51c.54,0,.88.45,1,1.34,0,.28,0,1.32.08,3.12l-.25.43v.84c0,.08-.08.17-.25.25a.6.6,0,0,1-.68-.67v-1.6c0-.92,0-2-.17-3.38C100.56,307.17,100.64,307.06,100.73,307.06Zm1.6-1.78c1.63.35,2.44.83,2.44,1.43,0,.17-.11.26-.33.26a7.25,7.25,0,0,1-2.45-1v-.09A.58.58,0,0,1,102.33,305.28Z" transform="translate(-66.65 -148.02)"/><path class="b" d="M73,459.87h.07a.5.5,0,0,1,.53.31v.07c-.1.86-.16,1.34-.16,1.44v.39c0,.92,0,2.21.08,3.87a2.1,2.1,0,0,0,.31.45v.08a.85.85,0,0,0-.23.53v.31c-.1,2-.16,3.09-.16,3.26v1.14c0,.25,0,.63.08,1.14l-.15.07h-.08a1.75,1.75,0,0,1-.6-1.52v-2.12a.14.14,0,0,0-.15-.16c-.43.46-.79.69-1.06.69l-.15-.23v-.08c0-.32.4-.62,1.21-.9a3.16,3.16,0,0,0,.3-1.37l-.15-.07h-.08a1.93,1.93,0,0,1-1.67.6,2.57,2.57,0,0,0-.15,1V471c0,.45-.2.68-.61.68a5.75,5.75,0,0,1-1.75-3,.07.07,0,0,1-.07-.07,4.25,4.25,0,0,1-1.22.45.5.5,0,0,1-.52-.3c0-.45.65-.81,2-1.07,1-.6,1.52-1.06,1.52-1.37v-1.74a.14.14,0,0,0-.15-.16,15.32,15.32,0,0,1-1.59.16c-.76-.05-1.14-.18-1.14-.37v-.31s.08-.12.23-.23l.91.08c1.22,0,1.82-.26,1.82-.77.09-1.31.29-2,.61-2s.61.23.61.3a3.89,3.89,0,0,0-.46,1.83l.16.07c1.06-.43,1.59-.8,1.59-1.13V461C72.72,460.25,72.82,459.87,73,459.87Zm-4.26,8.81a5.58,5.58,0,0,0,1.07,1.52c.15-.05.22-.21.22-.46v-2.12H70A5.15,5.15,0,0,0,68.77,468.68Zm2.2-4.33c0,.23,0,.82-.07,1.75h.15l.53-.15.07.15a2.55,2.55,0,0,0-.68.84h.08a2,2,0,0,0,1.75-.62v-.22c0-.61-.08-.91-.23-.91-.71,0-1.06-.18-1.06-.54a1.9,1.9,0,0,1,.52-.23l.46.08h.08s.11-.07.23-.22l-.08-.16v-.91a.13.13,0,0,0-.15-.15C71.53,463.68,71,464.11,71,464.35Zm4.48-5h.15c.14,0,.24.26.31.76v4.11H76A9.32,9.32,0,0,0,77.5,464c.26.08.39.23.39.44a4,4,0,0,1-1.83.92.57.57,0,0,1-.15.31v.67a13,13,0,0,0,1.52-.15.83.83,0,0,1,.46.38c0,.24-.66.49-2,.77v1.13c0,.1.07.16.15.16a10.63,10.63,0,0,0,2.58-.69l.08.15a4,4,0,0,1-2.35,1.44c-.31,0-.46.11-.46.23v2.59a5.43,5.43,0,0,0,.15,1.29c-.07.25-.14.38-.23.38-.4,0-.61-1-.61-3,0-1.72,0-3.57-.07-5.54l-.23-.46a5.82,5.82,0,0,0,.3-1.14v-.68c0-.78,0-2-.07-3.57Z" transform="translate(-66.65 -148.02)"/><path class="b" d="M89.09,461.3c.11,0,.17.08.17.17-.11.56-.82,1.23-2.11,2a17.09,17.09,0,0,1-1.78.42,26.6,26.6,0,0,0,.43,3.8c1.63-.39,2.45-.95,2.45-1.69h-.09a6.22,6.22,0,0,0-.92.09c-.51,0-.77-.59-.77-1.77a14,14,0,0,1,3.63-1.27.82.82,0,0,1,.59.77c0,.34-.45,1-1.34,2.11v.16A23,23,0,0,1,92.8,465c.22,0,.42.26.59.77a4,4,0,0,1-1.69,2h-.08l-.08-.17a5.38,5.38,0,0,0,.42-1h-.08c-1.07.26-1.61.49-1.61.67q.09,1.06.09,1.26c0,.13,0,.44-.09.94a.63.63,0,0,0,.09.25,9.84,9.84,0,0,0-.09,1.18v.51q0,.72.09,2.28L90,474h-.17a2.92,2.92,0,0,1-1-1.85v-.18H89l.26.18.09-.18v-.5c.11-1.27.16-1.94.16-2v-.92c0-.06,0-.09.08-.09l-.08-.17a2,2,0,0,0,.08-.33.73.73,0,0,1-.08-.26h-.08a18.44,18.44,0,0,1-3.21,1.18h-.08l-.42-.08-.09.17v.67c0,3.21-.37,4.81-1.1,4.81-.09,0-.2-.11-.33-.34a24.33,24.33,0,0,0,.59-5.73c0-3.15-.29-4.73-.85-4.73a.57.57,0,0,1-.33-.59c0-.23.16-.34.33-.34l1.19.09c2.53-.65,3.8-1.12,3.8-1.44Zm-3.88-2.36c2,.45,3,1,3,1.52a.54.54,0,0,1-.34.5c-.15-.33-.57-.5-1.27-.5-1.12-.28-1.69-.65-1.69-1.1v-.16C85,459.11,85,459,85.21,458.94Zm2.53,6V465a3.86,3.86,0,0,1,1,.35,1.44,1.44,0,0,0,.51-.85C88.25,464.68,87.74,464.82,87.74,464.93Z" transform="translate(-66.65 -148.02)"/><path class="b" d="M103.38,460.17a1.86,1.86,0,0,1,.43.84L102,463.46a1,1,0,0,0-.17.51v.08a.58.58,0,0,0,.34.59,20.84,20.84,0,0,0,4.89-1.26h.26c.13,0,.21.14.25.42q-.85,1.15-4,1.77h-.25v.17a6.23,6.23,0,0,1,1,2.53h.08l3.63-1.18h.43a.52.52,0,0,1,.59.59c0,.44-.68,1.6-2,3.46-.19.73-.53,1.1-1,1.1h-.33a1.1,1.1,0,0,0-.25-.17h-.17c-.06.33-.14.5-.26.5h-.25c-.26,0-.77-1.71-1.51-5.14-.1,0-.24-.54-.42-1.61l-.18-.08h-.08a.52.52,0,0,0-.59.59q-.34,6.82-.93,6.83h-.42s-.13-.08-.26-.25q.76-6.59.77-8.19h-.26l-1,.09a.08.08,0,0,0-.09-.09c0-.33,1.07-1.67,3.21-4C102.92,460.34,103.09,460.17,103.38,460.17Zm1.19,9.54.5,2.11q1.14,0,3.13-3.89c-.06,0-.09,0-.09-.08Q104.57,469.05,104.57,469.71Z" transform="translate(-66.65 -148.02)"/></svg>