<svg xmlns="http://www.w3.org/2000/svg" viewBox="0 0 751.96 986.12"><defs><style>.a,.c,.d,.e,.f{fill:none;stroke-width:2px;}.a,.f,.j{stroke:#3ea69f;}.a,.c,.d,.e,.f,.g,.h,.i,.j{stroke-miterlimit:10;}.b,.j{fill:#3ea69f;}.c,.g{stroke:#af52de;}.c,.d,.e,.f{stroke-linecap:round;}.d,.h{stroke:#ff9500;}.e,.i{stroke:#007aff;}.g,.k{fill:#af52de;}.g,.h,.i,.j{stroke-width:0.5px;}.h,.l{fill:#ff9500;}.i,.m{fill:#007aff;}</style></defs><line class="a" x1="94.38" y1="883" x2="750.96" y2="883"/><line class="a" x1="94.38" y1="883" x2="94.38" y2="861.03"/><line class="a" x1="154.07" y1="883" x2="154.07" y2="861.03"/><line class="a" x1="213.76" y1="883" x2="213.76" y2="861.03"/><line class="a" x1="273.45" y1="883" x2="273.45" y2="861.03"/><line class="a" x1="333.14" y1="883" x2="333.14" y2="861.03"/><line class="a" x1="392.82" y1="883" x2="392.82" y2="861.03"/><line class="a" x1="452.51" y1="883" x2="452.51" y2="861.03"/><line class="a" x1="512.2" y1="883" x2="512.2" y2="861.03"/><line class="a" x1="571.89" y1="883" x2="571.89" y2="861.03"/><line class="a" x1="631.58" y1="883" x2="631.58" y2="861.03"/><line class="a" x1="691.27" y1="883" x2="691.27" y2="861.03"/><line class="a" x1="750.96" y1="883" x2="750.96" y2="861.03"/><path class="b" d="M432.91,1041.23c0-5.14,2.09-7.9,5.5-7.9s5.49,2.76,5.49,7.9-2.08,8-5.49,8S432.91,1046.32,432.91,1041.23Zm9.15,0c0-4.39-1.52-6.29-3.65-6.29s-3.65,1.9-3.65,6.29,1.51,6.39,3.65,6.39S442.06,1045.62,442.06,1041.23Zm-5.14-.17a1.49,1.49,0,1,1,1.49,1.61A1.49,1.49,0,0,1,436.92,1041.06Z" transform="translate(-361.49 -154.4)"/><path class="b" d="M432.55,937.27l1-1.32a6.1,6.1,0,0,0,4.32,1.75,3.55,3.55,0,0,0,3.86-3.48c0-2.11-1.49-3.34-3.74-3.34a5.7,5.7,0,0,0-3.12.92l-1.06-.68.5-7.37H443v1.73h-6.91l-.41,4.52a6.48,6.48,0,0,1,2.83-.63c2.93,0,5.26,1.49,5.26,4.8s-2.74,5.19-5.67,5.19A7.74,7.74,0,0,1,432.55,937.27Z" transform="translate(-361.49 -154.4)"/><path class="b" d="M419.14,827.54h4.41V816.31h-3.43V815a11.07,11.07,0,0,0,3.94-1.13h1.48v13.65h4v1.66H419.14Z" transform="translate(-361.49 -154.4)"/><path class="b" d="M432.91,821.5c0-5.14,2.09-7.9,5.5-7.9s5.49,2.76,5.49,7.9-2.08,8-5.49,8S432.91,826.58,432.91,821.5Zm9.15,0c0-4.4-1.52-6.29-3.65-6.29s-3.65,1.89-3.65,6.29,1.51,6.38,3.65,6.38S442.06,825.89,442.06,821.5Zm-5.14-.17a1.49,1.49,0,1,1,1.49,1.61A1.49,1.49,0,0,1,436.92,821.33Z" transform="translate(-361.49 -154.4)"/><path class="b" d="M419.14,717.68h4.41V706.45h-3.43v-1.3a11.07,11.07,0,0,0,3.94-1.13h1.48v13.66h4v1.65H419.14Z" transform="translate(-361.49 -154.4)"/><path class="b" d="M432.55,717.53l1-1.32a6.06,6.06,0,0,0,4.32,1.76,3.56,3.56,0,0,0,3.86-3.48c0-2.12-1.49-3.34-3.74-3.34a5.69,5.69,0,0,0-3.12.91l-1.06-.67.5-7.37H443v1.73h-6.91l-.41,4.51a6.62,6.62,0,0,1,2.83-.62c2.93,0,5.26,1.48,5.26,4.8s-2.74,5.18-5.67,5.18A7.7,7.7,0,0,1,432.55,717.53Z" transform="translate(-361.49 -154.4)"/><path class="b" d="M418.56,608.29c5.18-4.58,8-7.27,8-9.82,0-1.75-1.06-3-3.32-3a5.27,5.27,0,0,0-3.67,1.82l-1.15-1.13a6.82,6.82,0,0,1,5.06-2.33c3.08,0,5,1.8,5,4.52,0,2.88-2.88,5.73-7,9.5,1-.07,2-.12,2.86-.12h5v1.71H418.56Z" transform="translate(-361.49 -154.4)"/><path class="b" d="M432.91,601.76c0-5.14,2.09-7.9,5.5-7.9s5.49,2.76,5.49,7.9-2.08,8-5.49,8S432.91,606.85,432.91,601.76Zm9.15,0c0-4.39-1.52-6.29-3.65-6.29s-3.65,1.9-3.65,6.29,1.51,6.39,3.65,6.39S442.06,606.15,442.06,601.76Zm-5.14-.17a1.49,1.49,0,1,1,1.49,1.61A1.49,1.49,0,0,1,436.92,601.59Z" transform="translate(-361.49 -154.4)"/><path class="b" d="M418.56,498.42c5.18-4.58,8-7.27,8-9.81,0-1.76-1.06-3-3.32-3a5.31,5.31,0,0,0-3.67,1.82l-1.15-1.12A6.79,6.79,0,0,1,423.5,484c3.08,0,5,1.8,5,4.51,0,2.88-2.88,5.74-7,9.5,1-.07,2-.12,2.86-.12h5v1.71H418.56Z" transform="translate(-361.49 -154.4)"/><path class="b" d="M432.55,497.8l1-1.32a6.1,6.1,0,0,0,4.32,1.75,3.55,3.55,0,0,0,3.86-3.48c0-2.11-1.49-3.34-3.74-3.34a5.7,5.7,0,0,0-3.12.92l-1.06-.68.5-7.36H443V486h-6.91l-.41,4.52a6.48,6.48,0,0,1,2.83-.63c2.93,0,5.26,1.49,5.26,4.8s-2.74,5.19-5.67,5.19A7.74,7.74,0,0,1,432.55,497.8Z" transform="translate(-361.49 -154.4)"/><path class="b" d="M418.18,387.86l1-1.3a6.21,6.21,0,0,0,4.4,1.8c2.08,0,3.64-1.08,3.64-2.78s-1.53-3.05-5.54-3.05V381c3.62,0,5-1.25,5-2.86s-1.28-2.4-3.12-2.4a5.79,5.79,0,0,0-3.77,1.54l-1.06-1.25a7.45,7.45,0,0,1,4.9-1.92c2.88,0,5.06,1.42,5.06,3.89,0,1.85-1.37,3-3.26,3.65v.09c2,.43,3.79,1.78,3.79,3.89,0,2.71-2.5,4.37-5.54,4.37A7.48,7.48,0,0,1,418.18,387.86Z" transform="translate(-361.49 -154.4)"/><path class="b" d="M432.91,382c0-5.14,2.09-7.9,5.5-7.9s5.49,2.76,5.49,7.9-2.08,8-5.49,8S432.91,387.12,432.91,382Zm9.15,0c0-4.4-1.52-6.29-3.65-6.29s-3.65,1.89-3.65,6.29,1.51,6.38,3.65,6.38S442.06,386.42,442.06,382Zm-5.14-.17a1.49,1.49,0,1,1,1.49,1.61A1.49,1.49,0,0,1,436.92,381.86Z" transform="translate(-361.49 -154.4)"/><path class="b" d="M418.18,278l1-1.29a6.21,6.21,0,0,0,4.4,1.8c2.08,0,3.64-1.08,3.64-2.79s-1.53-3-5.54-3v-1.51c3.62,0,5-1.25,5-2.86s-1.28-2.4-3.12-2.4a5.79,5.79,0,0,0-3.77,1.54l-1.06-1.25a7.45,7.45,0,0,1,4.9-1.92c2.88,0,5.06,1.42,5.06,3.89,0,1.85-1.37,3-3.26,3.65v.1c2,.43,3.79,1.77,3.79,3.88,0,2.72-2.5,4.37-5.54,4.37A7.48,7.48,0,0,1,418.18,278Z" transform="translate(-361.49 -154.4)"/><path class="b" d="M432.55,278.06l1-1.32a6.06,6.06,0,0,0,4.32,1.76,3.56,3.56,0,0,0,3.86-3.48c0-2.12-1.49-3.34-3.74-3.34a5.69,5.69,0,0,0-3.12.91l-1.06-.67.5-7.37H443v1.73h-6.91l-.41,4.51a6.62,6.62,0,0,1,2.83-.62c2.93,0,5.26,1.49,5.26,4.8s-2.74,5.18-5.67,5.18A7.7,7.7,0,0,1,432.55,278.06Z" transform="translate(-361.49 -154.4)"/><path class="b" d="M425.64,159.46c0-.84.07-1.87.12-2.71h-.12c-.5.74-1.06,1.49-1.56,2.23L420,164.16h9.94v1.61H417.74v-1.32l7.64-9.77h2.13V170h-1.87Z" transform="translate(-361.49 -154.4)"/><path class="b" d="M432.91,162.29c0-5.13,2.09-7.89,5.5-7.89s5.49,2.76,5.49,7.89-2.08,8-5.49,8S432.91,167.38,432.91,162.29Zm9.15,0c0-4.39-1.52-6.29-3.65-6.29s-3.65,1.9-3.65,6.29,1.51,6.39,3.65,6.39S442.06,166.68,442.06,162.29Zm-5.14-.17a1.49,1.49,0,1,1,1.49,1.61A1.49,1.49,0,0,1,436.92,162.12Z" transform="translate(-361.49 -154.4)"/><line class="a" x1="94.38" y1="883" x2="94.38" y2="4.06"/><line class="a" x1="94.38" y1="883" x2="110.79" y2="883"/><line class="a" x1="94.38" y1="773.13" x2="110.79" y2="773.13"/><line class="a" x1="94.38" y1="663.26" x2="110.79" y2="663.26"/><line class="a" x1="94.38" y1="553.4" x2="110.79" y2="553.4"/><line class="a" x1="94.38" y1="443.53" x2="110.79" y2="443.53"/><line class="a" x1="94.38" y1="333.66" x2="110.79" y2="333.66"/><line class="a" x1="94.38" y1="223.79" x2="110.79" y2="223.79"/><line class="a" x1="94.38" y1="113.93" x2="110.79" y2="113.93"/><line class="a" x1="94.38" y1="4.06" x2="110.79" y2="4.06"/><line class="c" x1="195" y1="52.01" x2="277.07" y2="52.01"/><line class="c" x1="153.91" y1="865.97" x2="94.22" y2="882.3"/><line class="c" x1="213.6" y1="833.49" x2="153.91" y2="865.97"/><line class="c" x1="273.29" y1="785.66" x2="213.6" y2="833.49"/><line class="c" x1="332.98" y1="723.14" x2="273.29" y2="785.66"/><line class="c" x1="392.67" y1="643.66" x2="332.98" y2="723.14"/><line class="c" x1="452.36" y1="553.11" x2="392.67" y2="643.66"/><line class="c" x1="512.05" y1="443.53" x2="452.36" y2="553.11"/><line class="c" x1="571.74" y1="323.77" x2="512.05" y2="443.53"/><line class="c" x1="631.43" y1="184.97" x2="571.74" y2="323.77"/><line class="c" x1="691.12" y1="40.87" x2="631.43" y2="184.97"/><line class="d" x1="195" y1="183.85" x2="277.07" y2="183.85"/><line class="d" x1="153.91" y1="850.43" x2="94.22" y2="882.25"/><line class="d" x1="213.6" y1="802.14" x2="153.91" y2="850.43"/><line class="d" x1="273.29" y1="747.8" x2="213.6" y2="802.14"/><line class="d" x1="332.98" y1="689.3" x2="273.29" y2="747.8"/><line class="d" x1="392.67" y1="628.48" x2="332.98" y2="689.3"/><line class="d" x1="452.36" y1="565.99" x2="392.67" y2="628.48"/><line class="d" x1="512.05" y1="500.07" x2="452.36" y2="565.99"/><line class="d" x1="571.74" y1="432.17" x2="512.05" y2="500.07"/><line class="d" x1="631.43" y1="361.85" x2="571.74" y2="432.17"/><line class="d" x1="691.12" y1="294.66" x2="631.43" y2="361.85"/><line class="e" x1="195" y1="315.69" x2="277.07" y2="315.69"/><line class="e" x1="153.91" y1="849.51" x2="94.22" y2="882.41"/><line class="e" x1="213.6" y1="801.7" x2="153.91" y2="849.51"/><line class="e" x1="273.29" y1="760.23" x2="213.6" y2="801.7"/><line class="e" x1="332.98" y1="711.61" x2="273.29" y2="760.23"/><line class="e" x1="392.67" y1="665.64" x2="332.98" y2="711.61"/><line class="e" x1="452.36" y1="620.48" x2="392.67" y2="665.64"/><line class="e" x1="512.05" y1="533.77" x2="452.36" y2="620.48"/><line class="e" x1="571.74" y1="482.71" x2="512.05" y2="533.77"/><line class="e" x1="631.43" y1="434.37" x2="571.74" y2="482.71"/><line class="e" x1="691.12" y1="378.71" x2="631.43" y2="434.37"/><line class="f" x1="195" y1="447.53" x2="277.07" y2="447.53"/><line class="f" x1="153.91" y1="859.62" x2="94.22" y2="882.1"/><line class="f" x1="213.6" y1="831.52" x2="153.91" y2="859.62"/><line class="f" x1="273.29" y1="801.7" x2="213.6" y2="831.52"/><line class="f" x1="332.98" y1="771.26" x2="273.29" y2="801.7"/><line class="f" x1="392.67" y1="739.25" x2="332.98" y2="771.26"/><line class="f" x1="452.36" y1="707.5" x2="392.67" y2="739.25"/><line class="f" x1="512.05" y1="672.34" x2="452.36" y2="707.5"/><line class="f" x1="571.74" y1="637.62" x2="512.05" y2="672.34"/><line class="f" x1="631.43" y1="605.41" x2="571.74" y2="637.62"/><line class="f" x1="691.12" y1="569.33" x2="631.43" y2="605.41"/><rect class="g" x="233.04" y="49.01" width="6" height="6"/><rect class="g" x="91.22" y="879.3" width="6" height="6"/><rect class="g" x="150.91" y="862.97" width="6" height="6"/><rect class="g" x="210.6" y="830.49" width="6" height="6"/><rect class="g" x="270.29" y="782.66" width="6" height="6"/><rect class="g" x="329.98" y="720.14" width="6" height="6"/><rect class="g" x="389.67" y="640.66" width="6" height="6"/><rect class="g" x="449.36" y="550.11" width="6" height="6"/><rect class="g" x="509.05" y="440.53" width="6" height="6"/><rect class="g" x="568.74" y="320.77" width="6" height="6"/><rect class="g" x="628.43" y="181.97" width="6" height="6"/><rect class="g" x="688.12" y="37.87" width="6" height="6"/><rect class="h" x="233.04" y="180.85" width="6" height="6"/><rect class="h" x="91.22" y="879.25" width="6" height="6"/><rect class="h" x="150.91" y="847.43" width="6" height="6"/><rect class="h" x="210.6" y="799.14" width="6" height="6"/><rect class="h" x="270.29" y="744.8" width="6" height="6"/><rect class="h" x="329.98" y="686.3" width="6" height="6"/><rect class="h" x="389.67" y="625.48" width="6" height="6"/><rect class="h" x="449.36" y="562.99" width="6" height="6"/><rect class="h" x="509.05" y="497.07" width="6" height="6"/><rect class="h" x="568.74" y="429.17" width="6" height="6"/><rect class="h" x="628.43" y="358.85" width="6" height="6"/><rect class="h" x="688.12" y="291.66" width="6" height="6"/><rect class="i" x="233.04" y="312.69" width="6" height="6"/><rect class="i" x="91.22" y="879.41" width="6" height="6"/><rect class="i" x="150.91" y="846.51" width="6" height="6"/><rect class="i" x="210.6" y="798.7" width="6" height="6"/><rect class="i" x="270.29" y="757.23" width="6" height="6"/><rect class="i" x="329.98" y="708.61" width="6" height="6"/><rect class="i" x="389.67" y="662.64" width="6" height="6"/><rect class="i" x="449.36" y="617.48" width="6" height="6"/><rect class="i" x="509.05" y="530.77" width="6" height="6"/><rect class="i" x="568.74" y="479.71" width="6" height="6"/><rect class="i" x="628.43" y="431.37" width="6" height="6"/><rect class="i" x="688.12" y="375.71" width="6" height="6"/><rect class="j" x="233.04" y="444.53" width="6" height="6"/><rect class="j" x="91.22" y="879.1" width="6" height="6"/><rect class="j" x="150.91" y="856.62" width="6" height="6"/><rect class="j" x="210.6" y="828.52" width="6" height="6"/><rect class="j" x="270.29" y="798.7" width="6" height="6"/><rect class="j" x="329.98" y="768.26" width="6" height="6"/><rect class="j" x="389.67" y="736.25" width="6" height="6"/><rect class="j" x="449.36" y="704.5" width="6" height="6"/><rect class="j" x="509.05" y="669.34" width="6" height="6"/><rect class="j" x="568.74" y="634.62" width="6" height="6"/><rect class="j" x="628.43" y="602.41" width="6" height="6"/><rect class="j" x="688.12" y="566.33" width="6" height="6"/><path class="k" d="M663.79,197.91h.44q.19,0,.72.72v.57a12.11,12.11,0,0,0-1.6,2.6c-.22,0-.74.82-1.57,2.32-.33,0-1.06.48-2.17,1.44v3.32c0,.19.13.29.29.29,1.34-.17,2-.75,2-1.73q.15,0,.15-.3c-1.25,0-1.88-.48-1.88-1.44,2.52-.74,3.87-1.26,4.05-1.58v-.29q-.15-.77-.15-.87a.13.13,0,0,1,.15-.15l-.15-.72v-.42l.15-.72h.57q.38,0,.87,2.73l3.61-1.16h.43c.19,0,.29.13.29.29v.59l-4.2,2.3a1.52,1.52,0,0,0-.13.72c0,.09,0,.47.13,1.15H666a27.8,27.8,0,0,1,4.77-1.72H671a2.06,2.06,0,0,1,1.73,1.29l-.13.3.13.28-1,9.23.16.29v.3l-.16.85a1.3,1.3,0,0,1,.16.73,2.52,2.52,0,0,1-1,.43,13.85,13.85,0,0,1-3-2.16,18.27,18.27,0,0,1-4.33,1.73q-.37,2.31-1.59,2.31c-.57-.38-.86-.72-.86-1a48.45,48.45,0,0,0-1-9.09h-.42v1.29l.14.88-.14.28c.11,1.85.21,3.06.29,3.61a.13.13,0,0,1-.15.15l.15,1.44v1.58c0,.14-.15.28-.44.43h-.15a13.32,13.32,0,0,1-2.3-2.6l.29-.13.57.42h.59l.28-3.61a25.35,25.35,0,0,1-.15-2.88c-.09,0-.13-.05-.13-.14q-3.87,2-5.34,2c-.39,0-.78-.29-1.16-.86v-.44c0-.25,1-.54,3-.87a18.8,18.8,0,0,0,3.61-2.16v-3.32q0-.19-.42-.42H658a24.56,24.56,0,0,0-2.89.28,1.26,1.26,0,0,1-1.15-.72v-.44c0-.29,1.34-.48,4-.57l.57-.58v-3.46l-.13-1.44a1.67,1.67,0,0,0,.43-.29q.2,0,.72.72v.58a.13.13,0,0,1-.15.15l.15.28v2.74a.13.13,0,0,1-.15.15,1,1,0,0,1,.15.43H660c.39,0,1.12-1.26,2.17-3.75C663,198.71,663.53,198,663.79,197.91Zm-.44,8.81.59,1a14.48,14.48,0,0,1-2.16,3v.43a2.12,2.12,0,0,0,.42,1.31q2.46-.47,2.46-1v-.29a11.72,11.72,0,0,0-.43-1.88l.43-.85c-.2-1.36-.39-2-.58-2h-.44C663.45,206.45,663.35,206.55,663.35,206.72Zm-1.15,7.93c.18,2.12.37,3.17.58,3.17,1.45-.65,2.17-1.08,2.17-1.3v-.14c0-1.83-.24-2.75-.72-2.75A5.29,5.29,0,0,0,662.2,214.65Zm3.75-4.48v2.45l.15.88a6,6,0,0,0-.43,1.72v.87l.13.29q4.63-1.4,4.63-1.59a41.87,41.87,0,0,0,.72-7.22h-.58A10.72,10.72,0,0,0,666,210.17Zm3.61.58.72.72v.3c0,.35-.67.63-2,.85h-.72c-.15,0-.35-.19-.59-.57v-.28A3.5,3.5,0,0,1,669.56,210.75Zm.15,5.48a1.05,1.05,0,0,1-.3.59v.42H670c.19,0,.28-.1.28-.29v-.43c0-.19-.09-.29-.28-.29Z" transform="translate(-361.49 -154.4)"/><path class="k" d="M682.68,199.29a31.22,31.22,0,0,1,7.65,8.09q7.47,8.48,9.24,9.08c.47.26.71.45.72.58v.72c0,.15-.19.34-.58.57h-.14q-1.87,0-10.53-10.23l-.59-.44h-.13L683.7,216q-2.93,4-4.32,4c-.49,0-.78-.48-.88-1.44a2.67,2.67,0,0,0,1.88-1.29,43.13,43.13,0,0,0,6.06-9.82,3.81,3.81,0,0,0,.87-1.57q0-.69-5-5.35a1.62,1.62,0,0,1-.3-.86C682,199.51,682.2,199.36,682.68,199.29Z" transform="translate(-361.49 -154.4)"/><path class="k" d="M717,198.06h.12a.87.87,0,0,1,.91.53v.12q-.27,2.21-.27,2.46v.66c0,1.58.05,3.78.14,6.62a2.72,2.72,0,0,0,.52.78v.13a1.42,1.42,0,0,0-.39.9v.53c-.18,3.44-.27,5.29-.27,5.58v1.95c0,.43.05,1.08.14,2l-.26.12h-.13a2.94,2.94,0,0,1-1-2.6v-3.63a.23.23,0,0,0-.26-.26c-.74.78-1.34,1.17-1.81,1.17l-.26-.39v-.13c0-.55.69-1.07,2.07-1.55a5.36,5.36,0,0,0,.51-2.35l-.25-.12h-.14c-.48.7-1.43,1-2.85,1a4.34,4.34,0,0,0-.26,1.68V217c0,.77-.34,1.15-1,1.15a9.67,9.67,0,0,1-3-5.06.11.11,0,0,1-.12-.12,7.8,7.8,0,0,1-2.09.78.87.87,0,0,1-.91-.53c0-.77,1.13-1.37,3.37-1.81,1.73-1,2.6-1.82,2.6-2.35v-3c0-.18-.08-.27-.25-.27-1.42.18-2.32.27-2.72.27-1.31-.09-2-.31-2-.65v-.53q0-.1.39-.39l1.57.14c2.07,0,3.11-.44,3.11-1.31.14-2.24.48-3.37,1-3.37.69.23,1,.4,1,.52a6.75,6.75,0,0,0-.78,3.12l.27.12c1.81-.73,2.72-1.38,2.72-1.94V200C716.51,198.71,716.68,198.06,717,198.06Zm-7.28,15.06a9.66,9.66,0,0,0,1.82,2.6q.39-.14.39-.78V211.3h-.13A8.81,8.81,0,0,0,709.76,213.12Zm3.76-7.39c0,.39,0,1.38-.12,3h.25l.91-.27.13.27a4.28,4.28,0,0,0-1.17,1.42h.13c1.52,0,2.51-.35,3-1v-.37c0-1.05-.13-1.57-.39-1.57-1.21,0-1.81-.3-1.81-.91a3.06,3.06,0,0,1,.9-.39l.78.13h.13q.09,0,.39-.39l-.13-.26v-1.56c0-.17-.09-.25-.26-.25C714.47,204.57,713.56,205.3,713.52,205.73Zm7.66-8.57h.26c.24,0,.41.43.52,1.29v7h.14a15.31,15.31,0,0,0,2.58-.39c.44.14.67.4.67.77a6.82,6.82,0,0,1-3.13,1.56.93.93,0,0,1-.26.52v1.16a21.87,21.87,0,0,0,2.6-.25,1.37,1.37,0,0,1,.79.64c0,.4-1.13.84-3.39,1.31v1.94c0,.18.12.27.26.27a18.52,18.52,0,0,0,4.42-1.17l.13.25c-.64,1-2,1.85-4,2.47-.53.06-.79.19-.79.39v4.42a9.15,9.15,0,0,0,.26,2.2c-.11.44-.24.65-.39.65q-1,0-1-5.18,0-4.42-.12-9.49l-.39-.78a10,10,0,0,0,.51-1.95v-1.16q0-2-.12-6.1Z" transform="translate(-361.49 -154.4)"/><path class="k" d="M744.51,200.51c.19,0,.28.13.28.29q-.28,1.42-3.61,3.45a30.37,30.37,0,0,1-3,.72,46.63,46.63,0,0,0,.72,6.5c2.8-.68,4.19-1.64,4.19-2.89h-.15a11,11,0,0,0-1.58.15c-.87,0-1.3-1-1.3-3a23.35,23.35,0,0,1,6.2-2.17,1.4,1.4,0,0,1,1,1.31c0,.58-.77,1.78-2.3,3.61v.28a39.36,39.36,0,0,1,5.91-1.88c.38,0,.71.44,1,1.31a6.94,6.94,0,0,1-2.88,3.46h-.14l-.15-.29a10.26,10.26,0,0,0,.73-1.73h-.14c-1.83.45-2.75.83-2.75,1.15q.15,1.81.15,2.16t-.15,1.59a1.07,1.07,0,0,0,.15.44,17,17,0,0,0-.15,2v.87q0,1.23.15,3.9l-.59.43h-.28c-.7-.39-1.28-1.45-1.73-3.17v-.3h.29l.43.3.15-.3v-.86c.19-2.16.29-3.32.29-3.47v-1.58c0-.1,0-.15.13-.15l-.13-.28a4.55,4.55,0,0,0,.13-.57,1.13,1.13,0,0,1-.13-.44h-.15a31.41,31.41,0,0,1-5.49,2h-.13l-.72-.13-.16.29v1.15q0,8.22-1.87,8.22c-.15,0-.34-.19-.58-.58a41,41,0,0,0,1-9.8q0-8.09-1.44-8.09a1,1,0,0,1-.57-1c.09-.39.28-.59.57-.59l2,.15q6.49-1.65,6.49-2.45Zm-6.65-4q5.21,1.16,5.2,2.6a.9.9,0,0,1-.58.85c-.25-.57-1-.85-2.17-.85-1.92-.48-2.88-1.11-2.88-1.88v-.29C737.43,196.76,737.57,196.62,737.86,196.47Zm4.33,10.25v.13a6.61,6.61,0,0,1,1.73.59,2.43,2.43,0,0,0,.87-1.44C743.06,206.28,742.19,206.52,742.19,206.72Z" transform="translate(-361.49 -154.4)"/><path class="l" d="M656.58,335.67H657c.22,0,.37.24.44.72q-.15,2.52-.15,4.05h.15l2.45-.44.15.29v.3c0,.36-.92.84-2.75,1.44l-.14,1.44v3.61h.14l2.31-2.6c.19,0,.29.12.29.28a17.58,17.58,0,0,1-5.2,7.94H654q-.22,0-.57-.57v-.3a4.49,4.49,0,0,0,2.16-4v-.15c-.1-3.32-.15-5-.15-5.2l-.72.15h-.57a1.23,1.23,0,0,1-1.16-.87v-.14a1.41,1.41,0,0,1,1.44-.72h.87c.22,0,.42-1.39.58-4.19C656.17,336,656.41,335.67,656.58,335.67Zm6.64-5.33c.25,0,.44.38.57,1.16a4.16,4.16,0,0,0-1.44,1.29v.15l.87-.15c1.42,0,3.11,1.15,5,3.47a3.1,3.1,0,0,1,1.44-.59H670c.19,0,.28.13.28.29v.3a11.82,11.82,0,0,1-3.32,2.45,11.94,11.94,0,0,0-.13,1.58,1.09,1.09,0,0,1,.13.43l1.74-.13.42.57v.15c-.11.37-.87.9-2.29,1.58v.72h.28a3.58,3.58,0,0,0,1.44-.57c.45.18.69.37.73.57,0,.63-.82,1.31-2.45,2v2.58H669q2.32,0,2.73,1.59c-.14.38-.28.58-.43.58H671a2.3,2.3,0,0,0-1.29-.58h-.59a46.57,46.57,0,0,0-6.19,1.3.26.26,0,0,0-.3-.29h-.13q-.16,0-.87,1.59l-.29.14h-.29a1.31,1.31,0,0,1-.72-1.29q.13-8.64.14-10.67,0-3.55-1.29-4.92,0-2.32,3.45-5.18A1.15,1.15,0,0,1,663.22,330.34Zm-1.44,3.17-.87,1.44a16,16,0,0,1,1,5.92v5.49a1.2,1.2,0,0,1-.13.57c0,.1,0,.15.13.15l-.13,1v1.44c0,.14.14.28.43.43a13.34,13.34,0,0,1,3-1.3c0-.19,0-.29-.13-.29l.13-1.44v-.72c-1.15,0-1.73-.39-1.73-1.16,0-.16.58-.45,1.73-.86a1.11,1.11,0,0,0,.15-.58v-.29a.24.24,0,0,0-.28-.28h-1.16a1.23,1.23,0,0,1-1.16-.72v-.44c0-.26.82-.45,2.45-.57l.15-.3v-1.45h-.15l-1.88.16a2,2,0,0,1-.57-1.3,6.24,6.24,0,0,1,2.45-.87l.87-1.73v-.15c-.09-.23-1.34-.75-3.75-1.58C662.35,333.94,662.16,333.75,661.78,333.51Z" transform="translate(-361.49 -154.4)"/><path class="l" d="M690,329.9h.12a.88.88,0,0,1,.92.53v.12q-.27,2.2-.27,2.46v.66c0,1.58,0,3.78.14,6.62a2.72,2.72,0,0,0,.52.78v.13a1.42,1.42,0,0,0-.39.9v.53q-.27,5.16-.27,5.58v2c0,.43,0,1.08.14,1.95l-.26.12h-.13a2.94,2.94,0,0,1-1-2.6V346a.23.23,0,0,0-.26-.26c-.74.78-1.34,1.17-1.82,1.17l-.25-.39v-.13c0-.55.69-1.07,2.07-1.55a5.35,5.35,0,0,0,.51-2.34l-.25-.12h-.14c-.48.69-1.43,1-2.85,1a4.36,4.36,0,0,0-.26,1.69v3.77c0,.77-.34,1.15-1,1.15a9.75,9.75,0,0,1-3-5.06.11.11,0,0,1-.12-.12,7.58,7.58,0,0,1-2.08.78.87.87,0,0,1-.91-.52c0-.78,1.13-1.38,3.37-1.82,1.73-1,2.6-1.82,2.6-2.35v-3c0-.18-.08-.27-.25-.27q-2.13.27-2.73.27c-1.3-.09-1.95-.31-1.95-.65v-.53q0-.11.39-.39l1.56.14c2.08,0,3.12-.44,3.12-1.31.14-2.24.48-3.36,1-3.36.69.22,1,.39,1,.51a6.75,6.75,0,0,0-.78,3.12l.27.12c1.81-.73,2.72-1.37,2.72-1.94v-1.81C689.46,330.55,689.63,329.9,690,329.9ZM682.71,345a9.66,9.66,0,0,0,1.82,2.6q.39-.13.39-.78v-3.64h-.13A8.81,8.81,0,0,0,682.71,345Zm3.76-7.39c0,.39,0,1.38-.12,3h.25l.9-.27.14.27a4.28,4.28,0,0,0-1.17,1.42h.13c1.52,0,2.51-.35,3-1.05v-.37c0-1-.13-1.57-.39-1.57-1.21,0-1.82-.3-1.82-.91a3.13,3.13,0,0,1,.91-.39l.78.13h.13q.09,0,.39-.39l-.13-.25v-1.57c0-.17-.09-.25-.26-.25C687.42,336.41,686.51,337.15,686.47,337.57Zm7.66-8.57h.26c.24,0,.41.43.52,1.29v7h.14a15.31,15.31,0,0,0,2.58-.39.8.8,0,0,1,.66.77,6.73,6.73,0,0,1-3.12,1.56,1,1,0,0,1-.26.53v1.15a21.87,21.87,0,0,0,2.6-.25,1.35,1.35,0,0,1,.78.64c0,.4-1.12.84-3.38,1.31v1.94c0,.18.12.27.26.27a18.52,18.52,0,0,0,4.42-1.17l.13.25q-1,1.54-4,2.47c-.53.06-.79.19-.79.39v4.42a9.29,9.29,0,0,0,.26,2.21c-.11.43-.24.64-.39.64q-1,0-1-5.18,0-4.42-.12-9.49l-.39-.78a10,10,0,0,0,.51-2v-1.16q0-2-.12-6.1Z" transform="translate(-361.49 -154.4)"/><path class="l" d="M717.46,332.35c.19,0,.28.13.28.29q-.29,1.42-3.61,3.45a30.37,30.37,0,0,1-3,.72,46.63,46.63,0,0,0,.72,6.5c2.8-.67,4.19-1.64,4.19-2.89h-.15a10.79,10.79,0,0,0-1.57.15c-.88,0-1.31-1-1.31-3a23.71,23.71,0,0,1,6.2-2.17,1.4,1.4,0,0,1,1,1.31c0,.58-.77,1.78-2.3,3.61v.28a39.36,39.36,0,0,1,5.91-1.88c.38,0,.71.44,1,1.31a6.9,6.9,0,0,1-2.88,3.46h-.14l-.15-.29a10.26,10.26,0,0,0,.73-1.73h-.14c-1.83.45-2.75.84-2.75,1.15q.15,1.82.15,2.16t-.15,1.59a1.07,1.07,0,0,0,.15.44,17,17,0,0,0-.15,2v.87c0,.83,0,2.12.15,3.9L719,354h-.28c-.7-.39-1.28-1.45-1.73-3.17v-.3h.29l.43.3.15-.3v-.86c.19-2.16.29-3.32.29-3.47v-1.58c0-.1,0-.15.13-.15l-.13-.28a4.55,4.55,0,0,0,.13-.57,1.13,1.13,0,0,1-.13-.44H718a31.76,31.76,0,0,1-5.49,2h-.13l-.72-.14-.15.29v1.15q0,8.22-1.88,8.22c-.15,0-.34-.19-.58-.58a41,41,0,0,0,1-9.8q0-8.08-1.44-8.09a1,1,0,0,1-.57-1c.09-.39.28-.59.57-.59l2,.15q6.5-1.65,6.49-2.45Zm-6.65-4q5.21,1.15,5.2,2.6a.91.91,0,0,1-.58.86c-.25-.58-1-.86-2.17-.86-1.92-.48-2.88-1.11-2.88-1.88v-.29C710.38,328.6,710.52,328.46,710.81,328.31Zm4.33,10.25v.13a6.61,6.61,0,0,1,1.73.59,2.43,2.43,0,0,0,.87-1.44C716,338.12,715.14,338.36,715.14,338.56Z" transform="translate(-361.49 -154.4)"/><path class="m" d="M654.56,467.72c1,0,1.67,1.31,2,3.91a17.13,17.13,0,0,0,.28,2.3c-.15.87-.58,1.31-1.29,1.31h-.44c-.35,0-.59-1.73-.72-5.2-.14,0-.28-.63-.43-1.88Zm3.9-6.34c1.17,0,1.94,1.93,2.31,5.77,0,.87.16,1.3.42,1.3a37.73,37.73,0,0,1,7.08-1.45c1.63,0,2.45.87,2.45,2.6l-.15.59c0,.09,0,.13.15.13a75,75,0,0,0-.87,9.1l.15,1q-.29.66-.57.72l-.88-.43a25.93,25.93,0,0,0-6.49,1.59h-.87q-.42-.15-.42-.87v-.14q0-.8,5.62-1.87,1.44-.15,1.44-.57a1.13,1.13,0,0,0-.15-.59,26.63,26.63,0,0,1,.44-3H668l-4,1a1.41,1.41,0,0,1-.87-.73v-.43c0-.38,1.44-.81,4.33-1.29a1.09,1.09,0,0,0,.43.13c.51,0,1-1.11,1.45-3.32a10.91,10.91,0,0,0,.15-1.58l-.44-.28L662.93,470h-.3a2.88,2.88,0,0,1-1.44-.44v2.75a25.52,25.52,0,0,1-3.31,12.12,2.43,2.43,0,0,1-1.44.87h-.15c-.29,0-.43-.44-.43-1.31A31.48,31.48,0,0,0,659,470.32v-.13a19.54,19.54,0,0,0-.14-2l.14-.28a53.49,53.49,0,0,1-1.15-6.06Z" transform="translate(-361.49 -154.4)"/><path class="m" d="M686.8,460.15h.28a3.11,3.11,0,0,1,1.73,2.74h.29c.24-.06.77-.69,1.59-1.87q.22,0,.57.57v.15c0,.34-.76,1.64-2.3,3.9v.28h.57a30.67,30.67,0,0,0,4.48-1.29c.84.36,1.27.64,1.29.86,0,.77-.48,1.2-1.44,1.3v5c0,.23,1.35.47,4,.72a1.71,1.71,0,0,1,.58,1.15v.15c0,.29-.19.43-.58.43-2-.19-3.23-.28-3.6-.28q-.39,7.47-1.3,8.65a16.32,16.32,0,0,1-.43,2.45,1.2,1.2,0,0,1,.13.57q-.13.87-.42.87h-.15q.15-9.75.15-12.26a.13.13,0,0,1-.15-.15l-3.17.72v1.45c0,2.31-.24,3.47-.72,3.47h-.43c-.21,0-.5-1.55-.88-4.63a1,1,0,0,0-.42.15q-6.19-.26-6.2-1.29v-.3c0-.13.14-.27.43-.43,1.23.2,2,.29,2.17.29,2.88,0,4.32-.34,4.32-1a37.51,37.51,0,0,0,.43-4.32h-.14c-1.52.19-2.39.28-2.6.28-1.73,0-2.6-.38-2.6-1.16,0-.29,1.54-.62,4.61-1a2.22,2.22,0,0,0,.73-1.73,22.3,22.3,0,0,1-1.3-3.61v-.43C686.36,460.45,686.51,460.3,686.8,460.15Zm2,7.79v.3a2,2,0,0,1,.59,1.14c-.1,1.51-.15,2.62-.15,3.32a.13.13,0,0,1,.15.15q2.73-.62,2.73-.87v-.57c0-.83,0-2.12-.15-3.9-.09,0-.13-.05-.13-.15A16.38,16.38,0,0,1,688.81,467.94Z" transform="translate(-361.49 -154.4)"/><path class="m" d="M717,461.74h.12a.89.89,0,0,1,.92.53v.12q-.27,2.21-.27,2.46v.67q0,2.36.13,6.61a2.9,2.9,0,0,0,.53.78V473a1.45,1.45,0,0,0-.39.91v.52q-.27,5.16-.27,5.58V482c0,.43,0,1.08.13,2l-.25.12h-.14a3,3,0,0,1-1-2.6v-3.64c0-.17-.08-.26-.25-.26-.74.78-1.35,1.17-1.82,1.17l-.26-.39v-.13c0-.55.7-1.07,2.08-1.55a5.35,5.35,0,0,0,.51-2.34l-.26-.12h-.13c-.48.69-1.43,1-2.86,1a4.42,4.42,0,0,0-.25,1.69v3.77c0,.77-.35,1.16-1,1.16a9.76,9.76,0,0,1-3-5.07.11.11,0,0,1-.12-.12,7.67,7.67,0,0,1-2.09.78.86.86,0,0,1-.9-.52c0-.77,1.12-1.38,3.37-1.82,1.73-1,2.6-1.81,2.6-2.35v-3a.24.24,0,0,0-.26-.27c-1.41.18-2.32.27-2.72.27-1.3-.09-2-.31-2-.65v-.52q0-.11.39-.39l1.56.13c2.07,0,3.11-.43,3.11-1.31.14-2.24.49-3.36,1-3.36.69.22,1,.39,1,.51a6.75,6.75,0,0,0-.78,3.12l.27.12c1.82-.73,2.72-1.37,2.72-1.93V463.7C716.49,462.39,716.67,461.74,717,461.74Zm-7.27,15.06a9.65,9.65,0,0,0,1.81,2.6c.27-.09.4-.35.4-.78V475h-.14A9,9,0,0,0,709.75,476.8Zm3.75-7.39c0,.39,0,1.39-.12,3h.26l.9-.27.13.27a4.22,4.22,0,0,0-1.17,1.43h.14c1.51,0,2.51-.35,3-1.06v-.37q0-1.56-.39-1.56c-1.21,0-1.82-.31-1.82-.92a3.06,3.06,0,0,1,.9-.39l.78.13h.14q.09,0,.39-.39l-.14-.25v-1.57a.22.22,0,0,0-.25-.25C714.46,468.25,713.54,469,713.5,469.41Zm7.67-8.57h.25c.24,0,.42.43.53,1.29v7h.13a15.38,15.38,0,0,0,2.59-.39.8.8,0,0,1,.66.77,6.72,6.72,0,0,1-3.13,1.56.92.92,0,0,1-.25.53v1.15a21.87,21.87,0,0,0,2.6-.25,1.35,1.35,0,0,1,.78.64c0,.41-1.13.84-3.38,1.31v1.94c0,.18.11.27.25.27a18.29,18.29,0,0,0,4.42-1.17l.14.25c-.64,1-2,1.85-4,2.47q-.78.09-.78.39V483a9.24,9.24,0,0,0,.25,2.21c-.11.43-.24.64-.39.64-.69,0-1-1.72-1-5.18q0-4.43-.12-9.48l-.39-.79a10,10,0,0,0,.51-1.95v-1.16q0-2-.12-6.1Z" transform="translate(-361.49 -154.4)"/><path class="m" d="M744.49,464.19c.19,0,.29.13.29.29-.19.95-1.4,2.1-3.61,3.46a29.91,29.91,0,0,1-3,.72,45.76,45.76,0,0,0,.73,6.49q4.18-1,4.19-2.89h-.15a10.91,10.91,0,0,0-1.58.15c-.87,0-1.31-1-1.31-3a23.82,23.82,0,0,1,6.21-2.17,1.41,1.41,0,0,1,1,1.31c0,.58-.77,1.78-2.3,3.61v.28a39.05,39.05,0,0,1,5.9-1.88c.38,0,.72.44,1,1.31A6.88,6.88,0,0,1,749,475.3h-.13l-.15-.29a9.4,9.4,0,0,0,.72-1.73h-.14c-1.83.46-2.75.84-2.75,1.15.1,1.21.16,1.93.16,2.16s-.06.74-.16,1.59a1,1,0,0,0,.16.44,15.34,15.34,0,0,0-.16,2v.88c0,.82,0,2.11.16,3.89l-.59.43h-.29c-.7-.39-1.27-1.44-1.72-3.17v-.3h.28l.44.3.15-.3v-.85c.19-2.17.28-3.33.28-3.48v-1.57c0-.1,0-.15.14-.15l-.14-.29c.09-.34.14-.53.14-.57a1.19,1.19,0,0,1-.14-.44h-.15a30.61,30.61,0,0,1-5.48,2h-.14l-.72-.14-.15.29v1.15q0,8.22-1.88,8.22c-.15,0-.34-.19-.57-.58a41.53,41.53,0,0,0,1-9.8q0-8.09-1.45-8.09a1,1,0,0,1-.57-1c.09-.39.28-.59.57-.59l2,.15q6.49-1.65,6.5-2.45Zm-6.64-4q5.21,1.16,5.2,2.6a.92.92,0,0,1-.59.86c-.25-.57-1-.86-2.16-.86-1.92-.48-2.89-1.11-2.89-1.88v-.28C737.41,460.45,737.56,460.3,737.85,460.15Zm4.33,10.25v.13a6.74,6.74,0,0,1,1.73.59,2.43,2.43,0,0,0,.87-1.44C743,470,742.18,470.2,742.18,470.4Z" transform="translate(-361.49 -154.4)"/><path class="b" d="M653.69,600.51c.8,0,1.33.63,1.58,1.88,0,.07,0,.36-.14.86a39.63,39.63,0,0,1,.29,4.76c-.06.87-.21,1.31-.44,1.31h-.28c-.66,0-1.05-2.27-1.16-6.79a8.44,8.44,0,0,1-.13-1.87Zm4.18-5.77H658q1.18,0,1.44,7.79a1.62,1.62,0,0,0,1.45,1.74l1.57,1.14v.15h-.85a4.44,4.44,0,0,1-1.88-.57,1,1,0,0,0-.15.42q-.14,13.85-.14,14.73c-.19,0-.28.12-.28.28a1.62,1.62,0,0,1-1.31-1.59,103.43,103.43,0,0,0,.43-11.68c0-2.21-.48-3.32-1.44-3.32l-.28-.43v-.72h.57l.72.15a.13.13,0,0,1,.15-.15l-.15-.88c-.19-3.93-.29-6.24-.29-6.91Zm6.93,2.32a3.56,3.56,0,0,1,1,1.86H666a11.23,11.23,0,0,1,3-.42c.15,0,.35.19.59.57v.43a15.78,15.78,0,0,1-3.32,4.62v.28l4.76-1.72v.57c0,.71-1,1.57-3.17,2.6a.13.13,0,0,1-.15.15q1.19,1.57,4.62,5.33a2.3,2.3,0,0,1,.58,1.29v.15a.26.26,0,0,1-.3.29h-.28a24.86,24.86,0,0,1-4.18-4.46,17,17,0,0,0-2.45-1.88,41.51,41.51,0,0,0-1.59,5.48c-.27.52-.57.81-.88.86q-.65-.27-.72-.57v-.29a12.72,12.72,0,0,1,.72-3.18v-.72h-.42a3.32,3.32,0,0,1-1.59.72H661a1,1,0,0,1-.57-1v-.29c.11-.26,1.12-.88,3-1.87a3.21,3.21,0,0,0,.73-2.3v-2.32h-1.45a2,2,0,0,1-1.87-1v-.29c.09-.29.37-.44.85-.44h2.17l.43-.28a1.13,1.13,0,0,1-.13-.44C664.27,597.63,664.46,597.06,664.8,597.06Zm.87,4.61v.57c0,.19.12.29.28.29,1-.77,1.45-1.44,1.45-2h-.59A1,1,0,0,0,665.67,601.67Z" transform="translate(-361.49 -154.4)"/><path class="b" d="M684.72,603.61c.44.19.68.38.73.58v.57c0,.49-1,3.08-3,7.79v.15a98,98,0,0,0,10.25,5c2.11.27,3.17.6,3.17,1V619c0,.2-.09.3-.29.3h-.72q-4.68,0-12.56-5.2h-.72a4.35,4.35,0,0,1-1.14,1.6H680c-.39-.21-.58-.45-.58-.73q4.75-9.25,4.76-10H684a11.7,11.7,0,0,1-3.18,1h-.14c-.67,0-1-.29-1-.86C679.67,605,681.36,604.42,684.72,603.61Zm-2.6-5.19h.58c2.5.58,3.75,1.45,3.75,2.59l-.43.3a31,31,0,0,1-4.33-2.17v-.3C681.69,598.71,681.83,598.57,682.12,598.42Zm10.1-7.36.44.57q0,.36-.3,2.46c.1,0,.15,0,.15.14l.72-.14c.38.14.57.29.57.43v.3a2.65,2.65,0,0,1-1.58.85l-.15,1.45v1.44a16.13,16.13,0,0,1,2.32-.29h.13c.77,0,1.16.43,1.16,1.29,0,.37-.72,1.23-2.16,2.6h.15a8.55,8.55,0,0,1,1-.28l.15.28v.29a11.71,11.71,0,0,1-2.75,2v1.29c1.78,1.2,4.14,2.65,7.08,4.33l.29.44c0,.19-.1.28-.29.28q-2.85,0-6.93-3.17a.13.13,0,0,1-.15.15l.15.29c.09,3,.14,5.33.14,7.06-.06.67-.2,1-.42,1h-.59c-.4,0-.73-.92-1-2.74.11,0,.16,0,.16-.15l.28.15h.14v-5.48h-.14l-2.31,4.19c-.6.76-1.13,1.14-1.58,1.14l-.3-.42q3.6-7,3.6-7.51v-.14h-.13a3.13,3.13,0,0,1-1.44.57h-.15q-.83,0-1-5.48V598l.15-1h-.15c-1,.09-1.58.14-1.73.14-.44-.18-.68-.38-.72-.58q0-.81,5.33-1.72c.57,0,.9-1,1-2.89Q691.59,591.06,692.22,591.06Zm-3.32,8.5a.14.14,0,0,1,.15.16c1.24-.49,1.87-.82,1.87-1a1.07,1.07,0,0,0,.15-.44l-.15-.28.15-.87v-.29l-.15-.72c-1.25.19-1.87.52-1.87,1C689,598.13,688.9,598.94,688.9,599.56Zm0,1.88v.72l.15,1.73h.14c1.15-.79,1.73-1.27,1.73-1.44v-1.86h-.14C689.53,600.93,688.9,601.21,688.9,601.44Zm3,.15h.28c1.26-1,1.88-1.62,1.88-1.87-.1,0-.15-.05-.15-.16-1.34.24-2,.58-2,1Z" transform="translate(-361.49 -154.4)"/><path class="b" d="M717.05,593.58h.12a.89.89,0,0,1,.92.53v.12q-.27,2.21-.27,2.46v.67q0,2.35.13,6.61a2.9,2.9,0,0,0,.53.78v.13a1.47,1.47,0,0,0-.39.91v.52q-.27,5.16-.27,5.58v2c0,.43,0,1.08.13,1.95l-.25.13h-.14a3,3,0,0,1-1-2.6v-3.64c0-.17-.08-.26-.25-.26-.74.79-1.35,1.18-1.82,1.18l-.26-.39v-.14c0-.55.7-1.07,2.08-1.55a5.35,5.35,0,0,0,.51-2.34l-.26-.12h-.13c-.48.69-1.43,1-2.86,1a4.42,4.42,0,0,0-.25,1.69v3.77c0,.77-.35,1.16-1,1.16a9.76,9.76,0,0,1-3-5.07.11.11,0,0,1-.12-.12,7.67,7.67,0,0,1-2.09.78.86.86,0,0,1-.9-.52c0-.77,1.12-1.38,3.37-1.82,1.73-1,2.6-1.81,2.6-2.35v-3a.24.24,0,0,0-.26-.27c-1.41.18-2.32.27-2.72.27-1.3-.09-2-.31-2-.65v-.52q0-.11.39-.39l1.56.13c2.07,0,3.11-.43,3.11-1.31.14-2.24.49-3.36,1-3.36.69.22,1,.39,1,.51a6.75,6.75,0,0,0-.78,3.12l.27.12c1.82-.73,2.72-1.37,2.72-1.93v-1.82C716.52,594.23,716.7,593.58,717.05,593.58Zm-7.27,15.06a9.65,9.65,0,0,0,1.81,2.6c.27-.09.4-.35.4-.78v-3.64h-.14A9,9,0,0,0,709.78,608.64Zm3.75-7.39c0,.39,0,1.39-.12,3h.26l.9-.27.14.27a4.22,4.22,0,0,0-1.18,1.43h.14c1.51,0,2.51-.35,3-1.06v-.37q0-1.56-.39-1.56c-1.21,0-1.82-.31-1.82-.92a3.06,3.06,0,0,1,.9-.39l.78.13h.14q.09,0,.39-.39l-.14-.25v-1.57a.22.22,0,0,0-.25-.25C714.49,600.09,713.57,600.83,713.53,601.25Zm7.67-8.57h.25c.24,0,.42.43.53,1.29v7h.13a15.38,15.38,0,0,0,2.59-.39.8.8,0,0,1,.66.77,6.72,6.72,0,0,1-3.13,1.56.92.92,0,0,1-.25.53v1.15a21.87,21.87,0,0,0,2.6-.25,1.39,1.39,0,0,1,.78.64c0,.41-1.13.84-3.38,1.31v1.94c0,.18.11.27.25.27a18.29,18.29,0,0,0,4.42-1.17l.14.25c-.64,1-2,1.85-4,2.47q-.78.09-.78.39v4.42a9.24,9.24,0,0,0,.25,2.21c-.11.43-.24.64-.39.64-.69,0-1-1.72-1-5.18q0-4.42-.12-9.48l-.39-.78a10.18,10.18,0,0,0,.51-2v-1.16q0-2-.12-6.1Z" transform="translate(-361.49 -154.4)"/><path class="b" d="M744.52,596c.19,0,.29.13.29.29-.19.95-1.4,2.1-3.61,3.46a29.91,29.91,0,0,1-3,.72,47.52,47.52,0,0,0,.73,6.49q4.18-1,4.19-2.89h-.15a10.91,10.91,0,0,0-1.58.15c-.87,0-1.31-1-1.31-3a24.2,24.2,0,0,1,6.21-2.17,1.41,1.41,0,0,1,1,1.31c0,.58-.77,1.78-2.3,3.61v.28a38.32,38.32,0,0,1,5.9-1.87c.38,0,.72.43,1,1.3a6.84,6.84,0,0,1-2.89,3.46h-.13l-.15-.29a9.4,9.4,0,0,0,.72-1.73h-.13c-1.84.46-2.75.84-2.75,1.15.09,1.21.15,1.93.15,2.16s-.06.74-.15,1.59a.94.94,0,0,0,.15.44,15.08,15.08,0,0,0-.15,2v.88c0,.82,0,2.11.15,3.89l-.59.43h-.29c-.7-.39-1.27-1.44-1.72-3.17v-.3h.28l.44.3.15-.3v-.85c.19-2.17.28-3.33.28-3.48V608.3c0-.1,0-.15.14-.15l-.14-.29c.09-.34.14-.53.14-.57a1.19,1.19,0,0,1-.14-.44h-.15a30.61,30.61,0,0,1-5.48,2h-.14l-.72-.14-.15.29v1.15c0,5.48-.63,8.23-1.88,8.23-.15,0-.34-.2-.57-.59a41.53,41.53,0,0,0,1-9.8q0-8.09-1.45-8.08a1,1,0,0,1-.57-1c.09-.39.28-.59.57-.59l2,.15q6.5-1.65,6.5-2.45Zm-6.64-4q5.21,1.15,5.2,2.6a.92.92,0,0,1-.59.86c-.25-.57-1-.86-2.16-.86-1.92-.48-2.89-1.11-2.89-1.88v-.28C737.44,592.29,737.59,592.14,737.88,592Zm4.33,10.25v.14a6.54,6.54,0,0,1,1.73.58,2.43,2.43,0,0,0,.87-1.44C743.07,601.8,742.21,602,742.21,602.24Z" transform="translate(-361.49 -154.4)"/><path class="b" d="M1033.34,1072.55h4.41v-11.23h-3.43V1060a11.07,11.07,0,0,0,3.94-1.13h1.49v13.65h4v1.66h-10.39Z" transform="translate(-361.49 -154.4)"/><path class="b" d="M1047.11,1066.51c0-5.14,2.09-7.9,5.5-7.9s5.5,2.76,5.5,7.9-2.09,8-5.5,8S1047.11,1071.59,1047.11,1066.51Zm9.15,0c0-4.4-1.51-6.29-3.65-6.29s-3.65,1.89-3.65,6.29,1.51,6.38,3.65,6.38S1056.26,1070.9,1056.26,1066.51Zm-5.14-.17a1.49,1.49,0,1,1,1.49,1.61A1.49,1.49,0,0,1,1051.12,1066.34Z" transform="translate(-361.49 -154.4)"/><path class="b" d="M1061.51,1066.51c0-5.14,2.09-7.9,5.5-7.9s5.5,2.76,5.5,7.9-2.09,8-5.5,8S1061.51,1071.59,1061.51,1066.51Zm9.15,0c0-4.4-1.51-6.29-3.65-6.29s-3.65,1.89-3.65,6.29,1.51,6.38,3.65,6.38S1070.66,1070.9,1070.66,1066.51Zm-5.14-.17A1.49,1.49,0,1,1,1067,1068,1.49,1.49,0,0,1,1065.52,1066.34Z" transform="translate(-361.49 -154.4)"/><path class="b" d="M980.42,1072.89l1.1-1.25a4.52,4.52,0,0,0,3.05,1.2c2.47,0,4.65-1.75,4.65-6.86,0-3.77-1.46-5.79-4-5.79a3.17,3.17,0,0,0-3.24,3.34,2.93,2.93,0,0,0,3.26,3.24,5.37,5.37,0,0,0,4-2.16l.07,1.56a6.33,6.33,0,0,1-4.44,2.09c-2.83,0-4.75-1.59-4.75-4.73a4.93,4.93,0,0,1,5.09-4.92c3.33,0,5.88,2.45,5.88,7.37,0,6.14-3.1,8.52-6.41,8.52A6.17,6.17,0,0,1,980.42,1072.89Z" transform="translate(-361.49 -154.4)"/><path class="b" d="M994.62,1066.51c0-5.14,2.09-7.9,5.5-7.9s5.5,2.76,5.5,7.9-2.09,8-5.5,8S994.62,1071.59,994.62,1066.51Zm9.15,0c0-4.4-1.51-6.29-3.65-6.29s-3.65,1.89-3.65,6.29,1.51,6.38,3.65,6.38S1003.77,1070.9,1003.77,1066.51Zm-5.14-.17a1.49,1.49,0,1,1,1.49,1.61A1.49,1.49,0,0,1,998.63,1066.34Z" transform="translate(-361.49 -154.4)"/><path class="b" d="M920.46,1070.3c0-2.11,1.63-3.31,3.29-4.08v-.1a4.3,4.3,0,0,1-2.33-3.57c0-2.36,2-3.94,4.73-3.94,3,0,4.75,1.7,4.75,4.08a4.81,4.81,0,0,1-2.32,3.65v.09c1.67.84,3,1.8,3,4s-2,4.08-5.5,4.08S920.46,1072.72,920.46,1070.3Zm9.22,0c0-2.12-2.14-2.67-4.8-3.56-1.49.8-2.62,1.78-2.62,3.32s1.51,2.9,3.87,2.9S929.68,1071.93,929.68,1070.35Zm-.51-7.56c0-1.49-1.08-2.69-3.07-2.69-1.68,0-2.85,1-2.85,2.45,0,1.82,1.75,2.59,4,3.31A3.88,3.88,0,0,0,929.17,1062.79Z" transform="translate(-361.49 -154.4)"/><path class="b" d="M934.93,1066.51c0-5.14,2.09-7.9,5.5-7.9s5.5,2.76,5.5,7.9-2.09,8-5.5,8S934.93,1071.59,934.93,1066.51Zm9.15,0c0-4.4-1.51-6.29-3.65-6.29s-3.65,1.89-3.65,6.29,1.51,6.38,3.65,6.38S944.08,1070.9,944.08,1066.51Zm-5.14-.17a1.49,1.49,0,1,1,1.49,1.61A1.49,1.49,0,0,1,938.94,1066.34Z" transform="translate(-361.49 -154.4)"/><path class="b" d="M869.63,1060.63h-8.81v-1.73h11.09v1.22c-4.06,4.63-5,8.09-5.28,14.09h-2.09C864.8,1068.43,866.15,1064.9,869.63,1060.63Z" transform="translate(-361.49 -154.4)"/><path class="b" d="M875.24,1066.51c0-5.14,2.09-7.9,5.5-7.9s5.5,2.76,5.5,7.9-2.09,8-5.5,8S875.24,1071.59,875.24,1066.51Zm9.15,0c0-4.4-1.51-6.29-3.65-6.29s-3.65,1.89-3.65,6.29,1.51,6.38,3.65,6.38S884.39,1070.9,884.39,1066.51Zm-5.14-.17a1.49,1.49,0,1,1,1.49,1.61A1.49,1.49,0,0,1,879.25,1066.34Z" transform="translate(-361.49 -154.4)"/><path class="b" d="M801.3,1067.13c0-6.14,3.07-8.52,6.41-8.52a6.11,6.11,0,0,1,4.27,1.63l-1.1,1.25a4.55,4.55,0,0,0-3-1.22c-2.5,0-4.66,1.75-4.66,6.86,0,3.77,1.44,5.81,4,5.81a3.18,3.18,0,0,0,3.21-3.36,2.91,2.91,0,0,0-3.24-3.24,5.38,5.38,0,0,0-4,2.16l-.07-1.56a6.5,6.5,0,0,1,4.44-2.09c2.83,0,4.78,1.58,4.78,4.73a4.94,4.94,0,0,1-5.11,4.92C803.82,1074.5,801.3,1072.05,801.3,1067.13Z" transform="translate(-361.49 -154.4)"/><path class="b" d="M815.55,1066.51c0-5.14,2.09-7.9,5.5-7.9s5.5,2.76,5.5,7.9-2.09,8-5.5,8S815.55,1071.59,815.55,1066.51Zm9.15,0c0-4.4-1.51-6.29-3.65-6.29s-3.65,1.89-3.65,6.29,1.51,6.38,3.65,6.38S824.7,1070.9,824.7,1066.51Zm-5.14-.17a1.49,1.49,0,1,1,1.49,1.61A1.49,1.49,0,0,1,819.56,1066.34Z" transform="translate(-361.49 -154.4)"/><path class="b" d="M741.1,1072.41l1-1.32a6.1,6.1,0,0,0,4.32,1.75,3.55,3.55,0,0,0,3.86-3.48c0-2.11-1.48-3.33-3.74-3.33a5.71,5.71,0,0,0-3.12.91l-1.06-.67.51-7.37h8.66v1.73h-6.91l-.41,4.51a6.48,6.48,0,0,1,2.83-.63c2.93,0,5.26,1.49,5.26,4.8s-2.74,5.19-5.67,5.19A7.7,7.7,0,0,1,741.1,1072.41Z" transform="translate(-361.49 -154.4)"/><path class="b" d="M755.86,1066.51c0-5.14,2.09-7.9,5.5-7.9s5.5,2.76,5.5,7.9-2.09,8-5.5,8S755.86,1071.59,755.86,1066.51Zm9.15,0c0-4.4-1.51-6.29-3.65-6.29s-3.65,1.89-3.65,6.29,1.51,6.38,3.65,6.38S765,1070.9,765,1066.51Zm-5.14-.17a1.49,1.49,0,1,1,1.49,1.61A1.49,1.49,0,0,1,759.87,1066.34Z" transform="translate(-361.49 -154.4)"/><path class="b" d="M688.9,1063.67c0-.84.08-1.87.12-2.71h-.12c-.5.75-1,1.49-1.56,2.23l-4.13,5.19h9.94V1070H681v-1.32l7.63-9.77h2.14v15.31H688.9Z" transform="translate(-361.49 -154.4)"/><path class="b" d="M696.17,1066.51c0-5.14,2.09-7.9,5.5-7.9s5.5,2.76,5.5,7.9-2.09,8-5.5,8S696.17,1071.59,696.17,1066.51Zm9.15,0c0-4.4-1.51-6.29-3.65-6.29s-3.65,1.89-3.65,6.29,1.51,6.38,3.65,6.38S705.32,1070.9,705.32,1066.51Zm-5.14-.17a1.49,1.49,0,1,1,1.49,1.61A1.49,1.49,0,0,1,700.18,1066.34Z" transform="translate(-361.49 -154.4)"/><path class="b" d="M621.75,1072.34l1-1.3a6.19,6.19,0,0,0,4.39,1.8c2.09,0,3.65-1.08,3.65-2.78s-1.54-3-5.55-3v-1.51c3.63,0,5-1.25,5-2.86s-1.27-2.4-3.12-2.4a5.79,5.79,0,0,0-3.77,1.54l-1-1.25a7.42,7.42,0,0,1,4.89-1.92c2.88,0,5.07,1.42,5.07,3.89,0,1.85-1.37,3-3.27,3.65v.09c2,.43,3.79,1.78,3.79,3.89,0,2.71-2.49,4.37-5.54,4.37A7.5,7.5,0,0,1,621.75,1072.34Z" transform="translate(-361.49 -154.4)"/><path class="b" d="M636.48,1066.51c0-5.14,2.09-7.9,5.5-7.9s5.5,2.76,5.5,7.9-2.09,8-5.5,8S636.48,1071.59,636.48,1066.51Zm9.15,0c0-4.4-1.51-6.29-3.65-6.29s-3.65,1.89-3.65,6.29,1.52,6.38,3.65,6.38S645.63,1070.9,645.63,1066.51Zm-5.14-.17A1.49,1.49,0,1,1,642,1068,1.49,1.49,0,0,1,640.49,1066.34Z" transform="translate(-361.49 -154.4)"/><path class="b" d="M562.44,1073c5.19-4.59,8-7.28,8-9.82,0-1.75-1.06-3-3.31-3a5.26,5.26,0,0,0-3.67,1.83l-1.16-1.13a6.86,6.86,0,0,1,5.07-2.33c3.07,0,5,1.8,5,4.51,0,2.88-2.88,5.74-7,9.51,1-.08,1.94-.12,2.85-.12h5v1.7H562.44Z" transform="translate(-361.49 -154.4)"/><path class="b" d="M576.79,1066.51c0-5.14,2.09-7.9,5.5-7.9s5.5,2.76,5.5,7.9-2.09,8-5.5,8S576.79,1071.59,576.79,1066.51Zm9.15,0c0-4.4-1.51-6.29-3.65-6.29s-3.65,1.89-3.65,6.29,1.52,6.38,3.65,6.38S585.94,1070.9,585.94,1066.51Zm-5.14-.17a1.49,1.49,0,1,1,1.49,1.61A1.49,1.49,0,0,1,580.8,1066.34Z" transform="translate(-361.49 -154.4)"/><path class="b" d="M503.33,1072.55h4.42v-11.23h-3.44V1060a11,11,0,0,0,3.94-1.13h1.49v13.65h4v1.66H503.33Z" transform="translate(-361.49 -154.4)"/><path class="b" d="M517.1,1066.51c0-5.14,2.09-7.9,5.5-7.9s5.5,2.76,5.5,7.9-2.09,8-5.5,8S517.1,1071.59,517.1,1066.51Zm9.15,0c0-4.4-1.51-6.29-3.65-6.29s-3.65,1.89-3.65,6.29,1.52,6.38,3.65,6.38S526.25,1070.9,526.25,1066.51Zm-5.14-.17a1.49,1.49,0,1,1,1.49,1.61A1.49,1.49,0,0,1,521.11,1066.34Z" transform="translate(-361.49 -154.4)"/><path class="b" d="M450.22,1066.51c0-5.14,2.08-7.9,5.49-7.9s5.5,2.76,5.5,7.9-2.09,8-5.5,8S450.22,1071.59,450.22,1066.51Zm9.14,0c0-4.4-1.51-6.29-3.65-6.29s-3.65,1.89-3.65,6.29,1.52,6.38,3.65,6.38S459.36,1070.9,459.36,1066.51Zm-5.14-.17a1.49,1.49,0,1,1,1.49,1.61A1.49,1.49,0,0,1,454.22,1066.34Z" transform="translate(-361.49 -154.4)"/><path class="b" d="M367.6,945.12v-8.28h-5v-2.23l5.08-.18.39-5.62h2.49v5.62h8.56v2.41h-8.56v8.32c0,3.13,1,4.75,4.42,4.75a11.7,11.7,0,0,0,4.18-.79l.65,2.19a15.21,15.21,0,0,1-5.47,1.05C369.26,952.36,367.6,949.44,367.6,945.12Z" transform="translate(-361.49 -154.4)"/><line class="a" x1="9.51" y1="734.6" x2="9.51" y2="595.68"/><path class="b" d="M371,738c2.11,5.68,5.7,12.73,9.51,17.09L371,751.65l-9.51,3.44C365.3,750.73,368.89,743.68,371,738Z" transform="translate(-361.49 -154.4)"/><path class="b" d="M549.53,1121.43H552l.25,3h.15c1.83-1.91,3.85-3.38,6.58-3.38,4.14,0,6,2.45,6,7v10.87h-3v-10.47c0-3.31-1.15-4.86-4-4.86-2.09,0-3.49,1-5.51,3.13v12.2h-3Z" transform="translate(-361.49 -154.4)"/><line class="a" x1="287.51" y1="976.6" x2="426.44" y2="976.6"/><path class="b" d="M800,1131c-5.68,2.11-12.73,5.7-17.09,9.51l3.44-9.51-3.44-9.51C787.27,1125.3,794.32,1128.89,800,1131Z" transform="translate(-361.49 -154.4)"/></svg>