<svg xmlns="http://www.w3.org/2000/svg" viewBox="0 0 888 417.31"><defs><style>.a{fill:none;stroke:#3ea69f;stroke-miterlimit:10;}.b{fill:#3ea69f;}</style></defs><circle class="a" cx="188.59" cy="18.5" r="18"/><path class="b" d="M327.33,253.74h3.86v-9.82h-3v-1.14a9.73,9.73,0,0,0,3.44-1h1.3v11.94h3.49v1.45h-9.09Z" transform="translate(-143 -230.69)"/><circle class="a" cx="18.5" cy="165.81" r="18"/><path class="b" d="M162.93,393.28c0-.73.06-1.63.1-2.37h-.1c-.44.65-.93,1.3-1.37,1.95L158,397.4h8.69v1.4H156v-1.15l6.68-8.55h1.86v13.4h-1.63Z" transform="translate(-143 -230.69)"/><circle class="a" cx="43.5" cy="242.81" r="18"/><path class="b" d="M181.63,476.08c0-1.85,1.43-2.9,2.87-3.57v-.09a3.75,3.75,0,0,1-2-3.12c0-2.06,1.74-3.45,4.13-3.45,2.63,0,4.16,1.49,4.16,3.57a4.18,4.18,0,0,1-2,3.19v.09c1.47.73,2.63,1.57,2.63,3.48s-1.74,3.57-4.81,3.57S181.63,478.2,181.63,476.08Zm8.06,0c0-1.85-1.87-2.33-4.2-3.11-1.3.7-2.29,1.56-2.29,2.9s1.33,2.54,3.38,2.54S189.69,477.51,189.69,476.12Zm-.44-6.61a2.39,2.39,0,0,0-2.69-2.36,2.22,2.22,0,0,0-2.5,2.15c0,1.59,1.54,2.26,3.53,2.89A3.39,3.39,0,0,0,189.25,469.51Z" transform="translate(-143 -230.69)"/><circle class="a" cx="77.59" cy="92.5" r="18"/><path class="b" d="M215.82,328.16c4.54-4,7-6.36,7-8.58,0-1.54-.93-2.61-2.9-2.61a4.62,4.62,0,0,0-3.21,1.6l-1-1a6,6,0,0,1,4.43-2c2.69,0,4.37,1.57,4.37,3.94s-2.52,5-6.16,8.32c.84-.07,1.7-.11,2.5-.11h4.39v1.49h-9.43Z" transform="translate(-143 -230.69)"/><line class="a" x1="174.61" y1="29.84" x2="89.09" y2="79"/><line class="a" x1="202.57" y1="29.84" x2="288.09" y2="79"/><circle class="a" cx="299.5" cy="92.81" r="18"/><path class="b" d="M437.4,327.86l.88-1.13a5.41,5.41,0,0,0,3.84,1.57c1.83,0,3.19-.94,3.19-2.43s-1.34-2.67-4.85-2.67v-1.32c3.17,0,4.39-1.09,4.39-2.5s-1.11-2.1-2.73-2.1a5.12,5.12,0,0,0-3.3,1.34l-.92-1.09a6.51,6.51,0,0,1,4.28-1.68c2.52,0,4.43,1.24,4.43,3.4,0,1.62-1.19,2.65-2.85,3.2v.08c1.78.38,3.32,1.55,3.32,3.4,0,2.37-2.19,3.82-4.85,3.82A6.54,6.54,0,0,1,437.4,327.86Z" transform="translate(-143 -230.69)"/><circle class="a" cx="208.5" cy="242.81" r="18"/><path class="b" d="M354.38,467.62h-7.71V466.1h9.7v1.08c-3.55,4.05-4.41,7.07-4.62,12.32h-1.83A17.9,17.9,0,0,1,354.38,467.62Z" transform="translate(-143 -230.69)"/><line class="a" x1="231.44" y1="182.37" x2="214.63" y2="225.88"/><line class="a" x1="25.73" y1="182.37" x2="37.37" y2="225.88"/><circle class="a" cx="63.5" cy="320.81" r="18"/><path class="b" d="M195.94,556.05h3.86v-9.83h-3v-1.13a9.5,9.5,0,0,0,3.44-1h1.3v11.95H205v1.45h-9.09Z" transform="translate(-143 -230.69)"/><path class="b" d="M208,556.47c4.54-4,7-6.36,7-8.59,0-1.53-.93-2.6-2.9-2.6a4.58,4.58,0,0,0-3.21,1.6l-1-1a6,6,0,0,1,4.43-2c2.69,0,4.37,1.58,4.37,3.95,0,2.52-2.52,5-6.16,8.31.84-.06,1.7-.1,2.5-.1h4.39v1.49H208Z" transform="translate(-143 -230.69)"/><line class="a" x1="45.73" y1="260.37" x2="57.37" y2="303.88"/><circle class="a" cx="373.5" cy="242.81" r="18"/><path class="b" d="M511.86,478.35l1-1.1a4,4,0,0,0,2.67,1.05c2.16,0,4.07-1.53,4.07-6,0-3.3-1.28-5.06-3.48-5.06a2.77,2.77,0,0,0-2.84,2.92A2.57,2.57,0,0,0,516.1,473a4.69,4.69,0,0,0,3.49-1.89l.06,1.37a5.55,5.55,0,0,1-3.89,1.82,3.79,3.79,0,0,1-4.15-4.13,4.32,4.32,0,0,1,4.45-4.31c2.92,0,5.14,2.14,5.14,6.45,0,5.37-2.71,7.45-5.6,7.45A5.44,5.44,0,0,1,511.86,478.35Z" transform="translate(-143 -230.69)"/><line class="a" x1="355.73" y1="182.37" x2="367.37" y2="225.88"/><line class="a" x1="63.32" y1="103.46" x2="25.5" y2="149.22"/><circle class="a" cx="240.5" cy="165.81" r="18"/><path class="b" d="M378.82,396.31c0-5.38,2.68-7.46,5.6-7.46a5.32,5.32,0,0,1,3.74,1.43l-1,1.09a3.93,3.93,0,0,0-2.66-1.07c-2.19,0-4.08,1.53-4.08,6,0,3.29,1.26,5.08,3.49,5.08a2.78,2.78,0,0,0,2.81-2.94,2.55,2.55,0,0,0-2.83-2.84,4.73,4.73,0,0,0-3.51,1.89l-.06-1.36a5.68,5.68,0,0,1,3.88-1.83,3.81,3.81,0,0,1,4.18,4.14,4.32,4.32,0,0,1-4.47,4.3C381,402.75,378.82,400.61,378.82,396.31Z" transform="translate(-143 -230.69)"/><circle class="a" cx="349.5" cy="165.81" r="18"/><path class="b" d="M487.38,400.93l.86-1.16A5.31,5.31,0,0,0,492,401.3a3.11,3.11,0,0,0,3.38-3c0-1.85-1.31-2.92-3.28-2.92a5,5,0,0,0-2.73.8l-.92-.59.44-6.45h7.58v1.52h-6.05l-.36,3.94a5.84,5.84,0,0,1,2.48-.54c2.56,0,4.6,1.3,4.6,4.2s-2.39,4.53-5,4.53A6.72,6.72,0,0,1,487.38,400.93Z" transform="translate(-143 -230.69)"/><line class="a" x1="285.32" y1="103.46" x2="247.5" y2="149.22"/><line class="a" x1="313.86" y1="103.46" x2="342.5" y2="149.22"/><circle class="a" cx="343.5" cy="320.81" r="18"/><path class="b" d="M475.94,556.05h3.86v-9.83h-3v-1.13a9.5,9.5,0,0,0,3.44-1h1.3v11.95H485v1.45h-9.09Z" transform="translate(-143 -230.69)"/><path class="b" d="M488,550.76c0-4.49,1.83-6.91,4.81-6.91s4.81,2.42,4.81,6.91-1.83,7-4.81,7S488,555.21,488,550.76Zm8,0c0-3.84-1.32-5.5-3.19-5.5s-3.19,1.66-3.19,5.5,1.32,5.59,3.19,5.59S496,554.6,496,550.76Zm-4.49-.15a1.3,1.3,0,1,1,1.3,1.41A1.3,1.3,0,0,1,491.5,550.61Z" transform="translate(-143 -230.69)"/><line class="a" x1="366.44" y1="260.37" x2="349.63" y2="303.88"/><circle class="a" cx="314.5" cy="398.81" r="18"/><path class="b" d="M446.94,634.05h3.86v-9.83h-3v-1.13a9.5,9.5,0,0,0,3.44-1h1.3v11.95H456v1.45h-9.09Z" transform="translate(-143 -230.69)"/><path class="b" d="M459.54,634.05h3.86v-9.83h-3v-1.13a9.5,9.5,0,0,0,3.44-1h1.3v11.95h3.49v1.45h-9.09Z" transform="translate(-143 -230.69)"/><line class="a" x1="337.44" y1="338.37" x2="320.63" y2="381.88"/><circle class="a" cx="684.59" cy="18.5" r="18"/><path class="b" d="M830.47,243.31h-7.71V241.8h9.7v1.07c-3.55,4-4.41,7.07-4.62,12.32H826A17.92,17.92,0,0,1,830.47,243.31Z" transform="translate(-143 -230.69)"/><circle class="a" cx="514.5" cy="165.81" r="18"/><path class="b" d="M652.63,399.08c0-1.85,1.43-2.9,2.87-3.57v-.09a3.75,3.75,0,0,1-2-3.12c0-2.06,1.74-3.45,4.13-3.45,2.63,0,4.16,1.49,4.16,3.57a4.18,4.18,0,0,1-2,3.19v.09c1.47.73,2.63,1.57,2.63,3.48s-1.74,3.57-4.81,3.57S652.63,401.2,652.63,399.08Zm8.06,0c0-1.85-1.87-2.33-4.2-3.11-1.3.7-2.29,1.56-2.29,2.9s1.33,2.54,3.38,2.54S660.69,400.51,660.69,399.12Zm-.44-6.61a2.39,2.39,0,0,0-2.69-2.36,2.22,2.22,0,0,0-2.5,2.15c0,1.59,1.54,2.26,3.53,2.89A3.39,3.39,0,0,0,660.25,392.51Z" transform="translate(-143 -230.69)"/><circle class="a" cx="539.5" cy="242.81" r="18"/><path class="b" d="M671.94,478.05h3.86v-9.82h-3v-1.14a9.5,9.5,0,0,0,3.44-1h1.3v11.95H681v1.45h-9.09Z" transform="translate(-143 -230.69)"/><path class="b" d="M684,478.47c4.54-4,7-6.36,7-8.59,0-1.53-.92-2.6-2.89-2.6a4.58,4.58,0,0,0-3.21,1.6l-1-1a6,6,0,0,1,4.43-2c2.68,0,4.36,1.58,4.36,3.95s-2.51,5-6.15,8.31c.84-.06,1.7-.1,2.5-.1h4.39v1.49H684Z" transform="translate(-143 -230.69)"/><circle class="a" cx="573.59" cy="92.5" r="18"/><path class="b" d="M711.82,328.16c4.54-4,7-6.36,7-8.58,0-1.54-.93-2.61-2.9-2.61a4.62,4.62,0,0,0-3.21,1.6l-1-1a6,6,0,0,1,4.43-2c2.69,0,4.37,1.57,4.37,3.94s-2.52,5-6.16,8.32c.84-.07,1.7-.11,2.5-.11h4.39v1.49h-9.43Z" transform="translate(-143 -230.69)"/><line class="a" x1="670.61" y1="29.84" x2="585.09" y2="79"/><line class="a" x1="698.57" y1="29.84" x2="784.09" y2="79"/><circle class="a" cx="795.5" cy="92.81" r="18"/><path class="b" d="M933.38,327.93l.86-1.16A5.31,5.31,0,0,0,938,328.3a3.11,3.11,0,0,0,3.38-3c0-1.85-1.31-2.92-3.28-2.92a5,5,0,0,0-2.73.8l-.92-.59.44-6.45h7.58v1.52h-6l-.36,3.94a5.84,5.84,0,0,1,2.48-.54c2.56,0,4.6,1.3,4.6,4.2s-2.39,4.53-4.95,4.53A6.72,6.72,0,0,1,933.38,327.93Z" transform="translate(-143 -230.69)"/><circle class="a" cx="704.5" cy="242.81" r="18"/><path class="b" d="M842.82,473.31c0-5.38,2.68-7.46,5.6-7.46a5.32,5.32,0,0,1,3.74,1.43l-1,1.09a3.93,3.93,0,0,0-2.66-1.07c-2.19,0-4.07,1.53-4.07,6,0,3.29,1.25,5.08,3.48,5.08a2.78,2.78,0,0,0,2.81-2.94,2.55,2.55,0,0,0-2.83-2.84,4.73,4.73,0,0,0-3.51,1.89l-.06-1.36a5.68,5.68,0,0,1,3.88-1.83,3.81,3.81,0,0,1,4.18,4.14,4.32,4.32,0,0,1-4.47,4.3C845,479.75,842.82,477.61,842.82,473.31Z" transform="translate(-143 -230.69)"/><line class="a" x1="727.44" y1="182.37" x2="710.63" y2="225.88"/><circle class="a" cx="815.5" cy="242.81" r="18"/><path class="b" d="M947.94,478.05h3.86v-9.82h-3v-1.14a9.5,9.5,0,0,0,3.44-1h1.3v11.95H957v1.45h-9.09Z" transform="translate(-143 -230.69)"/><path class="b" d="M960.54,478.05h3.86v-9.82h-3v-1.14a9.5,9.5,0,0,0,3.44-1h1.3v11.95h3.49v1.45h-9.09Z" transform="translate(-143 -230.69)"/><line class="a" x1="838.44" y1="182.37" x2="821.63" y2="225.88"/><circle class="a" cx="484.5" cy="242.81" r="18"/><path class="b" d="M628.93,470.28c0-.73.06-1.63.1-2.37h-.1c-.44.65-.93,1.3-1.37,1.95L624,474.4h8.69v1.4H622v-1.15l6.68-8.55h1.86v13.4h-1.63Z" transform="translate(-143 -230.69)"/><line class="a" x1="507.44" y1="182.37" x2="490.63" y2="225.88"/><line class="a" x1="521.73" y1="182.37" x2="533.37" y2="225.88"/><circle class="a" cx="869.5" cy="242.81" r="18"/><path class="b" d="M1007.86,478.35l1-1.1a4,4,0,0,0,2.67,1.05c2.16,0,4.07-1.53,4.07-6,0-3.3-1.28-5.06-3.48-5.06a2.77,2.77,0,0,0-2.84,2.92,2.57,2.57,0,0,0,2.86,2.83,4.69,4.69,0,0,0,3.49-1.89l.06,1.37a5.55,5.55,0,0,1-3.89,1.82,3.79,3.79,0,0,1-4.15-4.13,4.32,4.32,0,0,1,4.45-4.31c2.92,0,5.14,2.14,5.14,6.45,0,5.37-2.71,7.45-5.6,7.45A5.44,5.44,0,0,1,1007.86,478.35Z" transform="translate(-143 -230.69)"/><line class="a" x1="851.73" y1="182.37" x2="863.37" y2="225.88"/><line class="a" x1="559.32" y1="103.46" x2="521.5" y2="149.22"/><circle class="a" cx="736.5" cy="165.81" r="18"/><path class="b" d="M874.4,400.86l.88-1.13a5.41,5.41,0,0,0,3.84,1.57c1.83,0,3.19-.94,3.19-2.43s-1.34-2.67-4.85-2.67v-1.32c3.17,0,4.39-1.09,4.39-2.5s-1.11-2.1-2.73-2.1a5.12,5.12,0,0,0-3.3,1.34l-.92-1.09a6.51,6.51,0,0,1,4.28-1.68c2.52,0,4.43,1.24,4.43,3.4,0,1.62-1.19,2.65-2.85,3.2v.08c1.78.38,3.32,1.55,3.32,3.4,0,2.37-2.19,3.82-4.85,3.82A6.54,6.54,0,0,1,874.4,400.86Z" transform="translate(-143 -230.69)"/><circle class="a" cx="845.5" cy="165.81" r="18"/><path class="b" d="M977.94,401.05h3.86v-9.82h-3v-1.14a9.5,9.5,0,0,0,3.44-1h1.3v11.95H987v1.45h-9.09Z" transform="translate(-143 -230.69)"/><path class="b" d="M990,395.76c0-4.49,1.83-6.91,4.81-6.91s4.81,2.42,4.81,6.91-1.83,7-4.81,7S990,400.21,990,395.76Zm8,0c0-3.84-1.32-5.5-3.19-5.5s-3.19,1.66-3.19,5.5,1.32,5.59,3.19,5.59S998,399.6,998,395.76Zm-4.49-.15a1.3,1.3,0,1,1,1.3,1.41A1.3,1.3,0,0,1,993.5,395.61Z" transform="translate(-143 -230.69)"/><line class="a" x1="781.32" y1="103.46" x2="743.5" y2="149.22"/><line class="a" x1="809.86" y1="103.46" x2="838.5" y2="149.22"/><circle class="a" cx="623.5" cy="165.81" r="18"/><path class="b" d="M762.24,401.05h3.86v-9.82h-3v-1.14a9.5,9.5,0,0,0,3.44-1h1.3v11.95h3.49v1.45h-9.09Z" transform="translate(-143 -230.69)"/><line class="a" x1="587.86" y1="103.46" x2="616.5" y2="149.22"/></svg>