<svg id="图层_1" data-name="图层 1" xmlns="http://www.w3.org/2000/svg" viewBox="0 0 670.57 304.44"><defs><style>.cls-1,.cls-4,.cls-5,.cls-6,.cls-7{fill:none;}.cls-1,.cls-3,.cls-4,.cls-5,.cls-6,.cls-7{stroke:#3ea69f;stroke-miterlimit:10;}.cls-2{fill:#3ea69f;}.cls-3{fill:#fff;}.cls-4{stroke-dasharray:6 6;}.cls-5{stroke-dasharray:5.84 5.84;}.cls-6{stroke-dasharray:5.85 5.85;}.cls-7{stroke-dasharray:6;}</style></defs><circle class="cls-1" cx="86.87" cy="54.65" r="18"/><path class="cls-2" d="M241.78,99.26c0-4.49,1.83-6.9,4.81-6.9s4.81,2.41,4.81,6.9-1.83,7-4.81,7S241.78,103.72,241.78,99.26Zm8,0c0-3.84-1.32-5.5-3.19-5.5s-3.19,1.66-3.19,5.5,1.32,5.59,3.19,5.59S249.78,103.11,249.78,99.26Zm-4.49-.14a1.3,1.3,0,1,1,1.3,1.4A1.31,1.31,0,0,1,245.29,99.12Z" transform="translate(-159.72 -45.36)"/><circle class="cls-1" cx="86.87" cy="113.65" r="18"/><path class="cls-2" d="M242.33,163.56h3.86v-9.83h-3V152.6a9.71,9.71,0,0,0,3.44-1h1.3v11.95h3.49V165h-9.09Z" transform="translate(-159.72 -45.36)"/><circle class="cls-1" cx="86.87" cy="199.65" r="18"/><path class="cls-2" d="M248,241.79c0-.74.06-1.64.1-2.38H248c-.44.65-.93,1.31-1.37,2L243,245.9h8.69v1.41H241.11v-1.16l6.68-8.54h1.86V251H248Z" transform="translate(-159.72 -45.36)"/><circle class="cls-1" cx="40.87" cy="156.65" r="18"/><path class="cls-2" d="M195.82,207c4.54-4,7-6.36,7-8.58,0-1.54-.93-2.61-2.9-2.61a4.62,4.62,0,0,0-3.21,1.6l-1-1a6,6,0,0,1,4.43-2c2.69,0,4.37,1.57,4.37,3.94s-2.52,5-6.16,8.32c.84-.07,1.7-.11,2.5-.11h4.39V208h-9.43Z" transform="translate(-159.72 -45.36)"/><circle class="cls-1" cx="131.87" cy="156.65" r="18"/><path class="cls-2" d="M286.49,206.37l.88-1.14a5.41,5.41,0,0,0,3.84,1.58c1.83,0,3.19-.95,3.19-2.44s-1.34-2.66-4.85-2.66v-1.33c3.17,0,4.39-1.09,4.39-2.5s-1.11-2.1-2.73-2.1a5,5,0,0,0-3.29,1.35L287,196a6.46,6.46,0,0,1,4.28-1.68c2.52,0,4.43,1.24,4.43,3.4,0,1.61-1.19,2.64-2.85,3.19V201c1.78.38,3.32,1.56,3.32,3.4,0,2.38-2.19,3.83-4.85,3.83A6.58,6.58,0,0,1,286.49,206.37Z" transform="translate(-159.72 -45.36)"/><circle class="cls-1" cx="204.87" cy="156.65" r="18"/><path class="cls-2" d="M359.47,206.43l.86-1.16a5.32,5.32,0,0,0,3.78,1.54,3.11,3.11,0,0,0,3.38-3.05c0-1.84-1.3-2.92-3.28-2.92a5.06,5.06,0,0,0-2.73.8l-.92-.59.44-6.44h7.58v1.51h-6.05l-.36,3.95a5.7,5.7,0,0,1,2.48-.55c2.56,0,4.6,1.3,4.6,4.2s-2.39,4.54-4.95,4.54A6.74,6.74,0,0,1,359.47,206.43Z" transform="translate(-159.72 -45.36)"/><circle class="cls-1" cx="247.87" cy="113.65" r="18"/><path class="cls-2" d="M410.47,153.12h-7.71v-1.51h9.7v1.07c-3.55,4-4.41,7.07-4.62,12.32H406A17.92,17.92,0,0,1,410.47,153.12Z" transform="translate(-159.72 -45.36)"/><circle class="cls-1" cx="247.87" cy="54.65" r="18"/><path class="cls-2" d="M402.72,102.58c0-1.85,1.43-2.9,2.87-3.57v-.08a3.75,3.75,0,0,1-2-3.13c0-2.06,1.74-3.44,4.13-3.44,2.63,0,4.16,1.49,4.16,3.57a4.2,4.2,0,0,1-2,3.19v.08c1.47.74,2.63,1.58,2.63,3.49s-1.74,3.57-4.81,3.57S402.72,104.7,402.72,102.58Zm8.06,0c0-1.84-1.87-2.33-4.2-3.1-1.3.69-2.29,1.55-2.29,2.89s1.33,2.54,3.38,2.54S410.78,104,410.78,102.62ZM410.34,96a2.38,2.38,0,0,0-2.69-2.35,2.22,2.22,0,0,0-2.5,2.14c0,1.6,1.54,2.27,3.53,2.9A3.41,3.41,0,0,0,410.34,96Z" transform="translate(-159.72 -45.36)"/><circle class="cls-1" cx="306.87" cy="54.65" r="18"/><path class="cls-2" d="M462,104.85l1-1.09a3.93,3.93,0,0,0,2.66,1c2.16,0,4.07-1.54,4.07-6,0-3.29-1.28-5.06-3.48-5.06a2.77,2.77,0,0,0-2.84,2.92,2.57,2.57,0,0,0,2.86,2.84,4.72,4.72,0,0,0,3.49-1.89l.06,1.36a5.56,5.56,0,0,1-3.89,1.83,3.79,3.79,0,0,1-4.15-4.14,4.31,4.31,0,0,1,4.45-4.3c2.92,0,5.14,2.14,5.14,6.44,0,5.38-2.71,7.46-5.6,7.46A5.4,5.4,0,0,1,462,104.85Z" transform="translate(-159.72 -45.36)"/><circle class="cls-1" cx="247.87" cy="199.65" r="18"/><path class="cls-2" d="M402.91,244.81c0-5.38,2.68-7.45,5.6-7.45a5.31,5.31,0,0,1,3.74,1.42l-1,1.1a3.89,3.89,0,0,0-2.66-1.08c-2.19,0-4.08,1.54-4.08,6,0,3.3,1.26,5.08,3.49,5.08a2.78,2.78,0,0,0,2.81-2.94,2.54,2.54,0,0,0-2.83-2.83A4.69,4.69,0,0,0,404.5,246l-.06-1.37a5.67,5.67,0,0,1,3.88-1.82c2.48,0,4.18,1.38,4.18,4.13a4.33,4.33,0,0,1-4.47,4.31C405.11,251.26,402.91,249.11,402.91,244.81Z" transform="translate(-159.72 -45.36)"/><line class="cls-3" x1="86.87" y1="72.65" x2="86.87" y2="95.65"/><line class="cls-3" x1="73.64" y1="125.84" x2="54.23" y2="144.59"/><line class="cls-3" x1="118.51" y1="168.71" x2="100.11" y2="187.45"/><line class="cls-3" x1="54.23" y1="168.71" x2="73.64" y2="187.45"/><line class="cls-3" x1="149.87" y1="156.65" x2="186.87" y2="156.65"/><line class="cls-3" x1="218.23" y1="168.71" x2="234.64" y2="187.45"/><line class="cls-3" x1="247.87" y1="131.65" x2="247.87" y2="181.65"/><line class="cls-3" x1="261.63" y1="102.04" x2="295.64" y2="68.71"/><line class="cls-3" x1="247.87" y1="72.65" x2="247.87" y2="95.65"/><path class="cls-2" d="M215,96.79c0-.74.06-1.64.1-2.38H215c-.44.65-.93,1.31-1.37,2L210,100.9h8.69v1.41H208.11v-1.16l6.68-8.54h1.86V106H215Z" transform="translate(-159.72 -45.36)"/><path class="cls-2" d="M208.49,162.37l.88-1.14a5.41,5.41,0,0,0,3.84,1.58c1.83,0,3.19-.95,3.19-2.44s-1.34-2.66-4.85-2.66v-1.33c3.17,0,4.39-1.09,4.39-2.5s-1.11-2.1-2.73-2.1a5,5,0,0,0-3.29,1.35L209,152a6.46,6.46,0,0,1,4.28-1.68c2.52,0,4.43,1.24,4.43,3.4,0,1.61-1.19,2.64-2.85,3.19V157c1.78.38,3.32,1.56,3.32,3.4,0,2.38-2.19,3.83-4.85,3.83A6.58,6.58,0,0,1,208.49,162.37Z" transform="translate(-159.72 -45.36)"/><path class="cls-2" d="M159.82,207c4.54-4,7-6.36,7-8.58,0-1.54-.93-2.61-2.9-2.61a4.62,4.62,0,0,0-3.21,1.6l-1-1a6,6,0,0,1,4.43-2c2.69,0,4.37,1.57,4.37,3.94s-2.52,5-6.16,8.32c.84-.07,1.7-.11,2.5-.11h4.39V208h-9.43Z" transform="translate(-159.72 -45.36)"/><path class="cls-2" d="M209.33,265.55h3.86v-9.82h-3v-1.14a9.73,9.73,0,0,0,3.44-1h1.3v11.94h3.49V267h-9.09Z" transform="translate(-159.72 -45.36)"/><path class="cls-2" d="M286.78,167.26c0-4.49,1.83-6.9,4.81-6.9s4.81,2.41,4.81,6.9-1.83,7-4.81,7S286.78,171.72,286.78,167.26Zm8,0c0-3.84-1.32-5.5-3.19-5.5s-3.19,1.66-3.19,5.5,1.32,5.59,3.19,5.59S294.78,171.11,294.78,167.26Zm-4.49-.14a1.3,1.3,0,1,1,1.3,1.4A1.31,1.31,0,0,1,290.29,167.12Z" transform="translate(-159.72 -45.36)"/><path class="cls-2" d="M354.47,172.43l.86-1.16a5.32,5.32,0,0,0,3.78,1.54,3.11,3.11,0,0,0,3.38-3.05c0-1.84-1.3-2.92-3.28-2.92a5.06,5.06,0,0,0-2.73.8l-.92-.59.44-6.44h7.58v1.51h-6.05l-.36,3.95a5.7,5.7,0,0,1,2.48-.55c2.56,0,4.6,1.3,4.6,4.2s-2.39,4.54-4.95,4.54A6.74,6.74,0,0,1,354.47,172.43Z" transform="translate(-159.72 -45.36)"/><path class="cls-2" d="M436.91,244.81c0-5.38,2.68-7.45,5.6-7.45a5.31,5.31,0,0,1,3.74,1.42l-1,1.1a3.89,3.89,0,0,0-2.66-1.08c-2.19,0-4.08,1.54-4.08,6,0,3.3,1.26,5.08,3.49,5.08a2.78,2.78,0,0,0,2.81-2.94,2.54,2.54,0,0,0-2.83-2.83A4.69,4.69,0,0,0,438.5,246l-.06-1.37a5.67,5.67,0,0,1,3.88-1.82c2.48,0,4.18,1.38,4.18,4.13a4.33,4.33,0,0,1-4.47,4.31C439.11,251.26,436.91,249.11,436.91,244.81Z" transform="translate(-159.72 -45.36)"/><path class="cls-2" d="M444.47,165.12h-7.71v-1.51h9.7v1.07c-3.55,4-4.41,7.07-4.62,12.32H440A17.92,17.92,0,0,1,444.47,165.12Z" transform="translate(-159.72 -45.36)"/><path class="cls-2" d="M369,104.85l1-1.09a3.93,3.93,0,0,0,2.66,1c2.16,0,4.07-1.54,4.07-6,0-3.29-1.28-5.06-3.48-5.06a2.77,2.77,0,0,0-2.84,2.92,2.57,2.57,0,0,0,2.86,2.84,4.72,4.72,0,0,0,3.49-1.89l.06,1.36a5.56,5.56,0,0,1-3.89,1.83,3.79,3.79,0,0,1-4.15-4.14,4.31,4.31,0,0,1,4.45-4.3c2.92,0,5.14,2.14,5.14,6.44,0,5.38-2.71,7.46-5.6,7.46A5.4,5.4,0,0,1,369,104.85Z" transform="translate(-159.72 -45.36)"/><path class="cls-2" d="M494.72,102.58c0-1.85,1.43-2.9,2.87-3.57v-.08a3.75,3.75,0,0,1-2-3.13c0-2.06,1.74-3.44,4.13-3.44,2.63,0,4.16,1.49,4.16,3.57a4.2,4.2,0,0,1-2,3.19v.08c1.47.74,2.63,1.58,2.63,3.49s-1.74,3.57-4.81,3.57S494.72,104.7,494.72,102.58Zm8.06,0c0-1.84-1.87-2.33-4.2-3.1-1.3.69-2.29,1.55-2.29,2.89s1.33,2.54,3.38,2.54S502.78,104,502.78,102.62ZM502.34,96a2.38,2.38,0,0,0-2.69-2.35,2.22,2.22,0,0,0-2.5,2.14c0,1.6,1.54,2.27,3.53,2.9A3.41,3.41,0,0,0,502.34,96Z" transform="translate(-159.72 -45.36)"/><path class="cls-2" d="M255.38,298.17a3.59,3.59,0,0,1,2.11,1.28l-.57,1.66a.05.05,0,0,0,.06.06l-.06.45c0,1,.15,1.47.44,1.47s.51.08.51.25a.51.51,0,0,1-.38.51c-.32,0-.71-.25-1.15-.76a1,1,0,0,0-.19-.71h.13a.12.12,0,0,0-.13-.13q-.85,1.53-1.59,1.53c-.47,0-.76-.44-.89-1.33l.06-.14a.05.05,0,0,0-.06-.06l.06-.45v-1.39l.06-.13s-.06,0-.06-.07a2,2,0,0,0,.32-.57l-.07-.13v-.12l.26-.39a.05.05,0,0,1-.06-.06c.13,0,.26-.19.38-.45A3.24,3.24,0,0,1,255.38,298.17Zm-1,2.49v.77a.51.51,0,0,1-.06.25.55.55,0,0,1,.06.26V302a.05.05,0,0,1-.06.06c.11.73.24,1.09.39,1.09s.29-.19.57-.57h.06v-.07l-.06-.13a5.15,5.15,0,0,0,1.33-2.68v-.37l-1-.51c-.49,0-.85.48-1.08,1.46A.55.55,0,0,1,254.36,300.66Z" transform="translate(-159.72 -45.36)"/><path class="cls-2" d="M260.14,296.06c1.5-.09,2.51,2,3,6.36l0,.62c-.36,1.92-1.11,2.92-2.28,3l-2.05.11,0-.42q3.45-.68,3.28-3.45c-.16-2.82-.81-4.83-2-6Z" transform="translate(-159.72 -45.36)"/><path class="cls-2" d="M270.73,299.94h.08c1.46.11,2.19.3,2.19.59v.26h-.76a5.18,5.18,0,0,0-.67.16c-.73-.24-1.1-.44-1.1-.59v-.16C270.47,300.11,270.56,300,270.73,299.94Zm7.17-4.31c1.29.37,1.93.66,1.93.85v.25a2.46,2.46,0,0,0-.84,2.2l.25.17,2.2-1.61h.08q.18,0,.18.18v.07c0,.4-.71,1.08-2.11,2v.08q3.41,2.13,4,4v.09c0,.11-.08.16-.25.16l-4.22-3.71H279v.08a5.61,5.61,0,0,1,.42,1,.59.59,0,0,0-.5.59c-.06.78-.14,2.86-.26,6.24l.09.51c-.07.28-.16.42-.25.42h-.17q-.6-.41-.6-.84,0-.88.18-5.49h-.18q-1.83,2.28-2.19,2.28c-.22-.08-.34-.17-.34-.25v-.17a13.73,13.73,0,0,1,2-3.12v-.17h-.09c-.51.17-1.26.36-2.27.59a1.59,1.59,0,0,0-.76-.34h-.34a7.12,7.12,0,0,0-1.69,2.87,1.71,1.71,0,0,1-.84.34l-.17-.26v-.17c0-.37.84-1.46,2.53-3.28a6.83,6.83,0,0,1,2.37-.51c1.4-.51,2.11-.93,2.11-1.27s.13-1.27.25-2.78c-.08,0-.3-.23-.68-.67v-.18C277.64,295.69,277.73,295.63,277.9,295.63Zm-6.42.59h.34c.89.53,1.4.95,1.52,1.27l-.17.09h-.84c-.74-.44-1.1-.78-1.1-1S271.4,296.22,271.48,296.22Zm7.93-4.13c.26,0,.48.2.68.59-.67,1.47-1.23,2.2-1.69,2.2a.69.69,0,0,1-.17-.42H278l-.76.92a6.27,6.27,0,0,1-.84,1.94h-.09c-.17,0-.25-.26-.25-.67v-.51q.43-2.1,1-2.1h.33a4.74,4.74,0,0,1,.76.07c.29-.08.58-.41.84-1l-.17-.08a5,5,0,0,1-3.21.76h-.16a1,1,0,0,0-.5.17,5.44,5.44,0,0,1,.33,1.61v1.85c0,.08-.09.17-.26.26a2.3,2.3,0,0,1-.33-.43v-.17a6.54,6.54,0,0,0-1.43-4.13v-.26c0-.08.08-.17.24-.25s.68.28,1.1.84A39.3,39.3,0,0,1,279.41,292.09Z" transform="translate(-159.72 -45.36)"/><path class="cls-2" d="M294.56,294.2l.17.26v.16c0,.3-1.35.8-4.05,1.52a7.52,7.52,0,0,0-.26,2.11c.86-.13,1.37-.3,1.52-.51a7.71,7.71,0,0,1-.25-1.34l.17-.09H292c.2,0,.42.42.67,1.27h.09l.84-.26v-.75c0-.42.09-.65.26-.68h.33c.14,0,.26.37.34,1.1a6.12,6.12,0,0,1,1.27-.34c.11,0,.17.08.17.17V297a4.47,4.47,0,0,1-1.36,1c.06,1.18.09,2,.09,2.45l-.25.17c-.22-.39-.36-.59-.43-.59L292.62,302a.54.54,0,0,1-.59-.42,2.68,2.68,0,0,0,.25-1c0-1.12-.11-1.69-.34-1.69a4.64,4.64,0,0,0-1.6.42.78.78,0,0,0-.08.35c0,.57-.06,1.84-.17,3.79h.08q2.52-1,5.83-2.53h.07c.13,0,.22.14.26.42a19.18,19.18,0,0,0-2,3.38,16.69,16.69,0,0,0,3.45,1.69l.09.16v.26a.72.72,0,0,1-.59.42q-.84,0-3.54-1.86a3.28,3.28,0,0,1-1.78,1.44c-.39-.1-.59-.21-.59-.34v-.34c0-.08.09-.16.26-.25l.17.09a8.48,8.48,0,0,0,1.17-1.19v-.08c-.49-.62-.8-.93-.92-.93a7.3,7.3,0,0,1-1.44.25,1.49,1.49,0,0,0-.5-.08l-.09.16c-.05,1.75-.08,3.13-.08,4.14v.17c0,.39-.14.59-.42.59a.54.54,0,0,1-.42-.59v-.59q0-1.21.84-11.39a.08.08,0,0,1-.09-.09,3.66,3.66,0,0,1-1.35.17h-.08a.56.56,0,0,1-.59-.34V296c0-.13,1-.39,3-.77A21.8,21.8,0,0,1,294.56,294.2Zm-4.22-1.85c1.8.74,2.7,1.21,2.7,1.43s-.23.26-.59.26c-1.63-.31-2.45-.79-2.45-1.44C290,292.46,290.12,292.38,290.34,292.35Zm2.54,6.33c.05.69.07,1.06.07,1.09H293c.56-.46.85-.77.85-.93,0-.33-.1-.5-.17-.5C293.16,298.48,292.88,298.59,292.88,298.68Zm.16,4.72c0,.08.17.25.5.51h.09a4.44,4.44,0,0,0,1-1.44A6.42,6.42,0,0,0,293,303.4Z" transform="translate(-159.72 -45.36)"/><path class="cls-2" d="M305.32,294.62h.25a.56.56,0,0,1,.34.58,8.29,8.29,0,0,0-1.35,2.2,8.73,8.73,0,0,0,.67,2.7c1.13,0,1.69-.23,1.69-.68a14.44,14.44,0,0,0,.09-1.6v-1.35a.57.57,0,0,1,.33-.59h.17c.08,0,.19.15.34.42v3.12h.59A11.14,11.14,0,0,0,310,299c.11,0,.17.07.17.17v.17a2,2,0,0,1-1.35,1v.34c.17,2.36.26,4,.26,4.81h.24a13.62,13.62,0,0,0,3.21-2.7,7.43,7.43,0,0,0,1-1.94,4.64,4.64,0,0,1-1.43-.76.08.08,0,0,0,.09-.09c1.69.15,2.53.35,2.53.6v.17a11.62,11.62,0,0,1-2.28,3.54c-1.93,1.57-3.14,2.36-3.63,2.36q-.42-.14-.42-.42c.11-1.05.17-1.72.17-2a24.15,24.15,0,0,0-.51-3.62H308c-.15,0-.35,1-.59,3.12a4.69,4.69,0,0,1-.68,1.43.71.71,0,0,1-.42-.59l.42-3.54c-.11,0-.16-.06-.16-.17-1,.09-1.52.23-1.52.42s0,.17-.09.17a.58.58,0,0,1,.09.25q0,.18-.09.18l.09.58v2.87c0,.79-.12,1.19-.35,1.19h-.33c-.17-.06-.26-.23-.26-.51v-2.28a29.23,29.23,0,0,0-.25-5.41h-.08a5.22,5.22,0,0,0-.76.77h-.25c-.08,0-.17-.09-.26-.26v-.25A27.28,27.28,0,0,1,305.32,294.62Zm4.13.42h.34c1.29,1.16,1.94,2,1.94,2.53a.08.08,0,0,1,.09.09v.08c0,.11-.06.16-.17.16-1.58-1.53-2.37-2.45-2.37-2.78Z" transform="translate(-159.72 -45.36)"/><path class="cls-2" d="M322.91,294.4h.17c.25,0,.42.48.5,1.44H324c.34,0,.51.12.51.25v.26c-.07.17-.47.45-1.19.84l-.5,1.27.17.08a13,13,0,0,0,2.78-.76l.08.17c0,.53-.56.95-1.69,1.26v.09a8.94,8.94,0,0,1,.6,3.54v3h.33c.89,0,2.38-1.06,4.48-3.2l-1.27-3.21.17-.08a19.15,19.15,0,0,1,2.28,3.45v.09a21,21,0,0,1-3.55,3.12,5.55,5.55,0,0,1-2.53.93q-.45,0-.84-.84l.25-2.95c-.17-2-.39-3-.67-3q-.94,0-2,4.72l-.26.17h-.09a.58.58,0,0,1-.59-.33v-.26l1-4.05v-.17h-.08c-1.71.17-2.69.26-3,.26l-.25-.34c0-.51.7-.76,2.11-.76,1.06-.13,1.6-.47,1.6-1l.08-.6c-1.3-.36-2-.67-2-.92.17-1.52.39-2.28.68-2.28h.09a.88.88,0,0,1,.5.76,3.19,3.19,0,0,0-.17.75v.43a.73.73,0,0,1,.26.08c.78,0,1.18-.45,1.18-1.35C322.69,294.66,322.83,294.4,322.91,294.4Z" transform="translate(-159.72 -45.36)"/><path class="cls-2" d="M336.91,294.87c.56,0,.84.48.84,1.43v.09c0,.48,0,1.18-.09,2.11.06,0,.09,0,.09.08.85-.19,1.27-.36,1.27-.5v-.93q.09-2.19.51-2.19h.24c.21,0,.35.36.43,1.09-.06.89-.08,1.43-.08,1.61h.08a3.15,3.15,0,0,0,1.26-.59h.18c.16,0,.24.26.24.67a2.75,2.75,0,0,1-1.68,1.35V301h.08a6,6,0,0,1,1.1-.17c.08,0,.17.09.26.25q0,.63-1.44,1.35V304h.08l1.52-.25a19.25,19.25,0,0,1,3.46,1.77v.43c0,.11-.06.16-.17.16h-.33a7.5,7.5,0,0,1-2.79-1.35h-.17a22.75,22.75,0,0,0-2.36,1,25,25,0,0,0-2.62.68.07.07,0,0,1-.08-.08l-.42.08h-.17c-.56,0-.84-.25-.84-.76a7.84,7.84,0,0,1,2.78-.76c.56-.24.84-.41.84-.5V303c0-.13-.39-.27-1.18-.42l-.09-.17v-.5c.06-.17.23-.26.51-.26h.68c.09,0,.18-.14.26-.42a4.14,4.14,0,0,1-.09-.76v-.09c0-.05,0-.08.09-.08-.06-.45-.15-.67-.26-.67-1.12,0-1.69.34-1.69,1-.18.56-.47.84-.84.84s-.42-.12-.42-.25a26.4,26.4,0,0,0,.75-6.16A.88.88,0,0,0,336.91,294.87Z" transform="translate(-159.72 -45.36)"/><path class="cls-2" d="M352.9,295.47a6.26,6.26,0,0,0,1.93.67l1.77-.25.17.25v.08c0,.09-.31.32-.92.68a32.44,32.44,0,0,1,4,4.05H360c1.11-1.29,1.84-1.94,2.2-1.94l.08.17v.25a7.93,7.93,0,0,0-1.69,2.37c1.29,1.95,1.94,3.49,1.94,4.64v.16c0,.09-.11.21-.33.35H362c-.19,0-.52-.85-1-2.53a5.59,5.59,0,0,0-1.1-1.78h-.16c-1.29,2.25-2.1,3.37-2.45,3.37l-.09-.16v-.09c0-.63.71-1.93,2.11-3.88v-.08a19.7,19.7,0,0,0-4.55-4.56c-1.18.17-1.77.43-1.77.76-.23,1.66-.34,2.68-.34,3h.08a25.55,25.55,0,0,0,4.14-1.69.44.44,0,0,1,.42.5q-1.09,2.91-2.11,6.16l-.34.26h-.33a10.68,10.68,0,0,1-1.78-3.12l.18-.09,1.6,2h.08c0-.14.57-1.72,1.69-4.72h-.09a12.91,12.91,0,0,1-3.71,1.52l-.59,6.75-.25.17h-.09c-.09,0-.2-.11-.33-.34v-.34a66.47,66.47,0,0,1,1-10.21.73.73,0,0,0-.26-.08,5,5,0,0,0-.84.08c-.95-.09-1.43-.26-1.43-.5v-.17l.16-.25.43.08c1.4,0,2.11-.14,2.11-.42C352.46,295.86,352.63,295.47,352.9,295.47Zm.24.93v.33c.08,0,.17-.08.26-.25v-.26h-.08Q353.14,296.25,353.14,296.4Zm5.06-3.89h.51a5.3,5.3,0,0,1,2.2,2.62v.08l-.17.09c-.27,0-1-.68-2.28-2q-.12,0-.42-.42v-.17C358.06,292.57,358.11,292.51,358.2,292.51Z" transform="translate(-159.72 -45.36)"/><path class="cls-2" d="M369.52,295.17a4.87,4.87,0,0,1,.93,1.52c0,.09-.23.34-.68.76v1.35a1.38,1.38,0,0,0,.18.68v.24a2.68,2.68,0,0,1,1.6.93.15.15,0,0,1-.17.17h-.51c-.07,0-.38-.06-.92-.17v1.18c0,.57,0,1.27.08,2.11-.06.45-.14.68-.26.68h-.08c-.24,0-.44-1.18-.59-3.54-.79,1-1.36,1.52-1.68,1.52l-.09-.17a10.73,10.73,0,0,1,1.69-2.88v-1.09l-.09-.59a11.12,11.12,0,0,1-2.28.67q-.39-.17-.42-.33v-.09a6.32,6.32,0,0,1,1.85-.67c.56-.22.84-.38.85-.51V296C368.93,295.45,369.13,295.17,369.52,295.17Zm6.92.84h.17c.19,0,.33.34.42,1v.77h.17l.25-.18c.11,0,.17.08.17.18s-.17.26-.5.59v5.56a.76.76,0,0,1,0,.68v.16a2,2,0,0,1,.42,1c-.09.23-.17.34-.25.34H377a13.51,13.51,0,0,0-2.53-2.7v-.09l.09-.17a8.23,8.23,0,0,0,1.76.85v-.09c-.05-2-.08-3.57-.08-4.72l-.08-.42a15.4,15.4,0,0,0-2.7,1l-.17.59.59.51.59-.09c.73.06,1.1.17,1.1.34s-.54.33-1.61.5a2.4,2.4,0,0,0-1.09-.42c-.3.5-.5.76-.6.77h-.24a7.27,7.27,0,0,0,.33-1.27v-.09c-.67-.25-1-.59-1-1v-.09c0-.11.07-.16.17-.16a4.43,4.43,0,0,1,1,.51h.25a11.05,11.05,0,0,0,.34-1.36v-.16l-1.69.67-.17-.25v-.09c0-.23.7-.56,2.11-1,.2,0,.37.23.51.68a.63.63,0,0,0-.09.33v.17H374a14.65,14.65,0,0,0,2.28-.76l-.08-.84v-.76C376.22,296.18,376.31,296,376.44,296Z" transform="translate(-159.72 -45.36)"/><path class="cls-2" d="M649.25,336.79h.54c.37.13.58.91.64,2.37a2.65,2.65,0,0,0-.09.64l.09.18a3.45,3.45,0,0,0-.18,1.28h.09a14.29,14.29,0,0,1,2-.37c1.28.3,1.92.94,1.92,1.91V343a7.26,7.26,0,0,1-1,2.55c-.75,1.09-1.45,1.64-2.1,1.64-1,0-1.62-.27-1.91-.82-.49-.39-.73-.69-.73-.91l.09-.46v-.18l-.09-.46q.15,0,.36-.9c-.06,0-.09,0-.09-.1.26,0,.48-1.09.64-3.28q0-.18-.09-.18l.09-.46v-1a2.21,2.21,0,0,0-.28-1.19Zm.54,7,.09.18v.18l-.09.55a.08.08,0,0,0,.09.09l-.09.46v.27c.23.54.56.82,1,.82a1.89,1.89,0,0,0,1.19-.82,4.34,4.34,0,0,0,1.36-2.55c0-.07,0-.1-.08-.1,0-.21.08-.33.08-.36,0-.3-.21-.55-.63-.73h-1.1C650.84,341.8,650.24,342.47,649.79,343.81Z" transform="translate(-159.72 -45.36)"/><path class="cls-2" d="M656.38,337.06c1.5-.09,2.51,2,3,6.36l0,.62c-.36,1.92-1.11,2.92-2.28,3l-2,.11,0-.42q3.45-.68,3.28-3.45c-.16-2.82-.82-4.83-2-6Z" transform="translate(-159.72 -45.36)"/><path class="cls-2" d="M674,336.42h.33s.22.17.51.51c1.12-.13,1.74-.21,1.85-.25.36.11.55.25.59.42v.33c0,.17-.9.4-2.7.68l-.08.17V339l1.94-.17q.84.33.84,1v.66c-.66,2.42-1.14,3.63-1.43,3.63h-.17l-.42-.42a1.46,1.46,0,0,0-.84,1.19V345l.08.17a1.29,1.29,0,0,1,.67-.17h.51c.11,0,.17.08.17.25a3,3,0,0,1-1.27,1.1.74.74,0,0,0-.08.34v.08c.76-.05,1.24-.08,1.43-.08l1.44.16.59-.08.08.17v.26c-.1.5-.21.75-.34.75a6.21,6.21,0,0,0-1.6-.33,10.14,10.14,0,0,0-2.7.75,9.76,9.76,0,0,1-1.69.17.84.84,0,0,1-.5-.42v-.08c0-.32.73-.57,2.19-.77a.83.83,0,0,0,.17-.24v-.26l-.76-.42c-.05,0-.08,0-.08-.09v-.16a.79.79,0,0,1,.76-.42V345c0-.12-.37-.26-1.1-.42,0-.06,0-.09-.08-.09s-.18.07-.18.17v.93c0,.11,0,.17-.16.17-.51,0-.76-.6-.76-1.78-.11-1-.23-2.53-.34-4.72.08-.23.17-.34.25-.34h.17q.26.08.6.93c1.17-.14,1.76-.39,1.76-.76V339c0-.39-.14-.62-.42-.68a32,32,0,0,1-3.8.25h-.25a.87.87,0,0,1-.76-.51v-.24c0-.26,1.61-.46,4.81-.6A2.61,2.61,0,0,0,674,336.42Zm.42-1.68h.16c.09,0,.2.11.34.33v.26c0,.18-.87.55-2.61,1.09q-1.22,0-1.44-.51v-.33a.16.16,0,0,1,.17-.17h.42A13.24,13.24,0,0,0,674.44,334.74Zm-2.53,6.41v.34c1.17-.12,1.76-.29,1.76-.51v-.34h-.08Q671.91,340.87,671.91,341.15Zm.16.76a2.13,2.13,0,0,0-.16.84c.05.82.08,1.27.08,1.36h.08a9.13,9.13,0,0,1,1.44-.6.74.74,0,0,0,.08-.34v-.84l-.08-.17-.43.08h-.25A1.38,1.38,0,0,1,672.07,341.91Zm2.45,1.18h.16c.46,0,.8-.34,1-1a.15.15,0,0,0-.17-.17h-.25C674.77,341.91,674.52,342.3,674.52,343.09Zm.16-2.11c0,.18.45.32,1.36.42a3.9,3.9,0,0,0,.51-1.51v-.09c-1.25.2-1.87.45-1.87.75Z" transform="translate(-159.72 -45.36)"/><path class="cls-2" d="M693.41,340c.25,0,.39.39.42,1.18v.5c0,.09-.05.77-.16,2a2.9,2.9,0,0,0,.42,1q-.17.38-.33.42h-.09s-.08,0-.08-.09l-.42.18-.51-.26a13.34,13.34,0,0,1-3,1.52,8.75,8.75,0,0,1-4.72,1.43l-.17-.25v-.09c0-.14-.23-1.91-.68-5.31v-.09c.11-.25.22-.39.34-.42.34,0,.56.93.67,2.79.23,1.63.42,2.44.59,2.44a37.72,37.72,0,0,0,6.67-2.86c.51,0,.76-.45.76-1.36,0-.73,0-1.1.09-1.1a.51.51,0,0,1-.09-.24h.09l-.09-.18v-.92C693.08,340.21,693.19,340.1,693.41,340ZM690,335.4h.25c.09,0,.2.12.34.34V336c0,.27-1,.52-3.12.77h-.35c-1.12-.15-1.68-.41-1.68-.77v-.25l.09-.17,1,.09h.58A12.91,12.91,0,0,0,690,335.4Zm-3.72,2h.18c.18,0,.37.42.59,1.26l3.87-.93q1,.33,1,1.86c-.2,2.81-.48,4.21-.84,4.21a4.08,4.08,0,0,0-2.29,1.1,5.82,5.82,0,0,0-1.69.42c0,.17-.11.31-.33.43h-.25c-.23,0-.39-1-.5-2.87v-1.77c0-.81,0-1.91-.09-3.29Q686.08,337.38,686.24,337.35Zm.6,2.69c0,.26,0,.88.08,1.86l1.85-.59v-1.94h-.16C687.43,339.6,686.84,339.82,686.84,340Zm.17,3.21v.68c0,.11.07.17.16.17h.26c1-.16,1.43-.39,1.43-.68a2,2,0,0,0-.33-1C687.51,342.78,687,343.07,687,343.25Zm2.69-4V340c0,.06-.05.37-.16.93v.25h.08c1.07-.06,1.6-.39,1.6-1,0-.06,0-.09-.08-.09l.08-.42V339c0-.14-.11-.23-.34-.26A1.45,1.45,0,0,0,689.7,339.29Zm-.16,2.86v.94c0,.11.07.16.16.16H690q.75-.24.75-1.77v-.08h-.16C689.87,341.81,689.54,342.06,689.54,342.15Z" transform="translate(-159.72 -45.36)"/><path class="cls-2" d="M702.47,335.55h.22c.06,0,.15.13.29.38v.15c0,.32-.51.9-1.51,1.73a1.54,1.54,0,0,0-.44.81c.11.6.21.9.32.9s.92-.23,2.36-.67a1,1,0,0,1,.7.95,19.41,19.41,0,0,1-.18,2.17,6.87,6.87,0,0,1,3.39,1.57l.08.4c0,.07-.15.13-.44.18a11.88,11.88,0,0,1-2.94-1.61h-.25v.41a13.4,13.4,0,0,0,.16,1.66,11.25,11.25,0,0,0-1.5,2.43,5.21,5.21,0,0,1-.88.74h-.25c-.36,0-.53-.76-.53-2.3q-.24-6.39-1.36-6.39l-.16-.54C699.55,338.31,700.52,337.32,702.47,335.55Zm-.72,4.86c0-.06-.08-.08-.22-.08s0,.16-.17.16l.43,2a.67.67,0,0,0-.08.29l.29.2h1q.24,0,.75-2.88l-.24-.12A8.54,8.54,0,0,1,701.75,340.41Zm.21,3.77v1.7l.11.22c.25,0,.71-.44,1.37-1.32a3,3,0,0,1-.17-.91h-.15C702.34,343.87,702,344,702,344.18Zm3.83-8,.31.36v.16a11.44,11.44,0,0,0-.43,3V340l.48.09a11.72,11.72,0,0,0,3.22-1.43c.57.31.86.68.86,1.12a27,27,0,0,1-1,4.88V346a1.68,1.68,0,0,1-.56,1.29h0a5.36,5.36,0,0,1-2.65-2.09l-.22-.27.09-.05a12.1,12.1,0,0,1,2.13,1,16.82,16.82,0,0,0,.7-3.19,10.74,10.74,0,0,0,.68-2.46V340a10.37,10.37,0,0,0-2.28,1l-.57.08H706q-.88,0-1.2-1.29C704.79,337.36,705.12,336.14,705.79,336.14Z" transform="translate(-159.72 -45.36)"/><path class="cls-2" d="M717.33,335.87c.56,0,.84.48.84,1.43v.09c0,.48,0,1.18-.09,2.11.06,0,.09,0,.09.08.85-.19,1.27-.36,1.27-.5v-.93q.09-2.19.51-2.19h.24c.21,0,.35.36.43,1.09-.06.89-.08,1.43-.08,1.61h.08a3.15,3.15,0,0,0,1.26-.59h.18c.16,0,.24.26.24.67a2.75,2.75,0,0,1-1.68,1.35V342h.08a6,6,0,0,1,1.1-.17c.08,0,.17.09.26.25q0,.63-1.44,1.35V345h.08l1.52-.25a19.25,19.25,0,0,1,3.46,1.77v.43c0,.11-.06.16-.17.16h-.33a7.5,7.5,0,0,1-2.79-1.35h-.17a22.75,22.75,0,0,0-2.36,1,25,25,0,0,0-2.62.68.07.07,0,0,1-.08-.08l-.42.08h-.17c-.56,0-.84-.25-.84-.76a7.84,7.84,0,0,1,2.78-.76c.56-.24.84-.41.84-.5V344c0-.13-.39-.27-1.18-.42l-.09-.17v-.5c.06-.17.23-.26.51-.26h.68c.09,0,.18-.14.26-.42a4.14,4.14,0,0,1-.09-.76v-.09c0-.05,0-.08.09-.08-.06-.45-.15-.67-.26-.67-1.12,0-1.69.34-1.69,1-.18.56-.47.84-.84.84s-.42-.12-.42-.25a26.4,26.4,0,0,0,.75-6.16A.88.88,0,0,0,717.33,335.87Z" transform="translate(-159.72 -45.36)"/><path class="cls-2" d="M733.32,336.47a6.26,6.26,0,0,0,1.93.67l1.77-.25.17.25v.08c0,.09-.31.32-.92.68a32.44,32.44,0,0,1,4,4.05h.09c1.11-1.29,1.84-1.94,2.2-1.94l.08.17v.25A7.93,7.93,0,0,0,741,342.8c1.29,1.95,1.94,3.49,1.94,4.64v.16c0,.09-.11.21-.33.35h-.18c-.19,0-.52-.85-1-2.53a5.59,5.59,0,0,0-1.1-1.78h-.17c-1.28,2.25-2.09,3.37-2.44,3.37l-.09-.16v-.09c0-.63.71-1.93,2.11-3.88v-.08a19.7,19.7,0,0,0-4.55-4.56c-1.18.17-1.78.43-1.78.76-.22,1.66-.33,2.68-.33,3h.08a25.55,25.55,0,0,0,4.14-1.69.44.44,0,0,1,.42.5q-1.1,2.91-2.11,6.16l-.34.26h-.33a10.45,10.45,0,0,1-1.78-3.12l.18-.09,1.6,2H735c0-.14.57-1.72,1.69-4.72h-.09a13,13,0,0,1-3.71,1.52l-.59,6.75-.25.17H732c-.09,0-.2-.11-.33-.34v-.34a65.23,65.23,0,0,1,1-10.21.73.73,0,0,0-.26-.08,5,5,0,0,0-.84.08c-1-.09-1.43-.26-1.43-.5v-.17l.16-.25.43.08c1.4,0,2.11-.14,2.11-.42C732.88,336.86,733.05,336.47,733.32,336.47Zm.24.93v.33c.08,0,.17-.08.26-.25v-.26h-.08Q733.56,337.25,733.56,337.4Zm5.06-3.89h.51a5.3,5.3,0,0,1,2.2,2.62v.08l-.17.09c-.27,0-1-.68-2.28-2q-.12,0-.42-.42v-.17C738.47,333.57,738.53,333.51,738.62,333.51Z" transform="translate(-159.72 -45.36)"/><path class="cls-2" d="M749.94,336.17a4.87,4.87,0,0,1,.93,1.52c0,.09-.23.34-.68.76v1.35a1.38,1.38,0,0,0,.18.68v.24a2.68,2.68,0,0,1,1.6.93.15.15,0,0,1-.17.17h-.51c-.07,0-.38-.06-.92-.17v1.18c0,.57,0,1.27.08,2.11-.06.45-.14.68-.26.68h-.08c-.24,0-.44-1.18-.59-3.54-.79,1-1.36,1.52-1.69,1.52l-.08-.17a10.85,10.85,0,0,1,1.68-2.88v-1.09l-.08-.59a11.12,11.12,0,0,1-2.28.67q-.39-.17-.42-.33v-.09a6.18,6.18,0,0,1,1.85-.67c.56-.22.84-.38.85-.51V337C749.35,336.45,749.55,336.17,749.94,336.17Zm6.92.84H757c.19,0,.33.34.42,1v.77h.17l.25-.18c.11,0,.17.08.17.18s-.17.26-.5.59v5.56a.76.76,0,0,1,0,.68v.16a2,2,0,0,1,.42,1c-.09.23-.17.34-.25.34h-.26a13.51,13.51,0,0,0-2.53-2.7v-.09l.09-.17a8.23,8.23,0,0,0,1.76.85v-.09c0-2-.08-3.57-.08-4.72l-.08-.42a15.4,15.4,0,0,0-2.7,1l-.17.59.59.51.59-.09c.73.06,1.1.17,1.1.34s-.54.33-1.61.5a2.4,2.4,0,0,0-1.09-.42c-.31.5-.5.76-.6.77h-.24a7.27,7.27,0,0,0,.33-1.27v-.09c-.67-.25-1-.59-1-1v-.09c0-.11.07-.16.17-.16a4.43,4.43,0,0,1,1,.51h.25a11.05,11.05,0,0,0,.34-1.36v-.16l-1.69.67-.17-.25v-.09c0-.23.7-.56,2.11-1,.2,0,.37.23.51.68a.63.63,0,0,0-.09.33v.17h.17a14.65,14.65,0,0,0,2.28-.76l-.08-.84v-.76C756.64,337.18,756.73,337,756.86,337Z" transform="translate(-159.72 -45.36)"/><circle class="cls-1" cx="488.78" cy="248.14" r="18"/><path class="cls-2" d="M643.69,292.76c0-4.49,1.83-6.91,4.81-6.91s4.81,2.42,4.81,6.91-1.83,7-4.81,7S643.69,297.21,643.69,292.76Zm8,0c0-3.84-1.32-5.5-3.19-5.5s-3.19,1.66-3.19,5.5,1.32,5.59,3.19,5.59S651.69,296.6,651.69,292.76Zm-4.49-.15a1.3,1.3,0,1,1,1.3,1.41A1.3,1.3,0,0,1,647.2,292.61Z" transform="translate(-159.72 -45.36)"/><circle class="cls-1" cx="488.78" cy="195.14" r="18"/><path class="cls-2" d="M644.24,245.05h3.86v-9.83h-3v-1.13a9.5,9.5,0,0,0,3.44-1h1.3v12h3.49v1.45h-9.09Z" transform="translate(-159.72 -45.36)"/><circle class="cls-1" cx="488.78" cy="89.14" r="18"/><path class="cls-2" d="M649.93,131.28c0-.73.06-1.63.1-2.37h-.1c-.44.65-.93,1.3-1.37,2L645,135.4h8.69v1.4H643v-1.15l6.68-8.55h1.86v13.4h-1.63Z" transform="translate(-159.72 -45.36)"/><circle class="cls-1" cx="488.78" cy="142.14" r="18"/><path class="cls-2" d="M643.73,192.47c4.54-4,7-6.36,7-8.59,0-1.53-.93-2.6-2.9-2.6a4.58,4.58,0,0,0-3.21,1.6l-1-1a6,6,0,0,1,4.43-2c2.69,0,4.37,1.58,4.37,4s-2.52,5-6.16,8.31c.84-.06,1.7-.1,2.5-.1h4.39v1.49h-9.43Z" transform="translate(-159.72 -45.36)"/><circle class="cls-1" cx="534.78" cy="43.14" r="18"/><path class="cls-2" d="M689.4,92.86l.88-1.13a5.41,5.41,0,0,0,3.84,1.57c1.83,0,3.19-.94,3.19-2.43S696,88.2,692.46,88.2V86.88c3.17,0,4.39-1.09,4.39-2.5s-1.11-2.1-2.73-2.1a5.07,5.07,0,0,0-3.29,1.34l-.93-1.09a6.51,6.51,0,0,1,4.28-1.68c2.52,0,4.43,1.24,4.43,3.4,0,1.62-1.19,2.65-2.85,3.2v.08c1.78.38,3.32,1.55,3.32,3.4,0,2.37-2.19,3.82-4.85,3.82A6.54,6.54,0,0,1,689.4,92.86Z" transform="translate(-159.72 -45.36)"/><circle class="cls-1" cx="580.78" cy="89.14" r="18"/><path class="cls-2" d="M735.38,138.93l.86-1.16A5.31,5.31,0,0,0,740,139.3a3.11,3.11,0,0,0,3.38-3c0-1.85-1.31-2.92-3.28-2.92a5,5,0,0,0-2.73.8l-.92-.59.44-6.45h7.58v1.52h-6l-.36,3.94a5.84,5.84,0,0,1,2.48-.54c2.56,0,4.6,1.3,4.6,4.2s-2.39,4.53-4.95,4.53A6.74,6.74,0,0,1,735.38,138.93Z" transform="translate(-159.72 -45.36)"/><circle class="cls-1" cx="580.78" cy="195.14" r="18"/><path class="cls-2" d="M743.38,234.62h-7.71V233.1h9.7v1.08c-3.55,4-4.41,7.07-4.62,12.32h-1.83A17.9,17.9,0,0,1,743.38,234.62Z" transform="translate(-159.72 -45.36)"/><circle class="cls-1" cx="635.78" cy="248.14" r="18"/><path class="cls-2" d="M790.63,296.08c0-1.85,1.43-2.9,2.87-3.57v-.09a3.75,3.75,0,0,1-2-3.12c0-2.06,1.74-3.45,4.13-3.45,2.63,0,4.16,1.49,4.16,3.57a4.18,4.18,0,0,1-2,3.19v.09c1.47.73,2.63,1.57,2.63,3.48s-1.74,3.57-4.81,3.57S790.63,298.2,790.63,296.08Zm8.06,0c0-1.85-1.87-2.33-4.2-3.11-1.3.7-2.29,1.56-2.29,2.9s1.33,2.54,3.38,2.54S798.69,297.51,798.69,296.12Zm-.44-6.61a2.39,2.39,0,0,0-2.69-2.36,2.22,2.22,0,0,0-2.5,2.15c0,1.59,1.54,2.26,3.53,2.89A3.39,3.39,0,0,0,798.25,289.51Z" transform="translate(-159.72 -45.36)"/><circle class="cls-1" cx="580.78" cy="248.14" r="18"/><path class="cls-2" d="M735.86,298.35l1-1.1a3.93,3.93,0,0,0,2.66,1.05c2.16,0,4.07-1.53,4.07-6,0-3.3-1.28-5.06-3.48-5.06a2.76,2.76,0,0,0-2.83,2.92A2.56,2.56,0,0,0,740.1,293a4.69,4.69,0,0,0,3.49-1.89l.06,1.37a5.55,5.55,0,0,1-3.89,1.82,3.79,3.79,0,0,1-4.15-4.13,4.32,4.32,0,0,1,4.45-4.31c2.92,0,5.14,2.14,5.14,6.45,0,5.37-2.71,7.45-5.6,7.45A5.44,5.44,0,0,1,735.86,298.35Z" transform="translate(-159.72 -45.36)"/><circle class="cls-1" cx="580.78" cy="142.14" r="18"/><path class="cls-2" d="M735.82,187.31c0-5.38,2.68-7.46,5.6-7.46a5.32,5.32,0,0,1,3.74,1.43l-1,1.09a3.93,3.93,0,0,0-2.66-1.07c-2.19,0-4.07,1.53-4.07,6,0,3.29,1.25,5.08,3.48,5.08a2.78,2.78,0,0,0,2.81-2.94,2.55,2.55,0,0,0-2.83-2.84,4.73,4.73,0,0,0-3.51,1.89l-.06-1.36a5.68,5.68,0,0,1,3.88-1.83,3.81,3.81,0,0,1,4.18,4.14,4.32,4.32,0,0,1-4.47,4.3C738,193.75,735.82,191.61,735.82,187.31Z" transform="translate(-159.72 -45.36)"/><line class="cls-3" x1="520.94" y1="54.65" x2="500.76" y2="75.71"/><line class="cls-3" x1="548.62" y1="54.65" x2="568.81" y2="75.71"/><line class="cls-3" x1="488.78" y1="107.14" x2="488.78" y2="124.14"/><line class="cls-3" x1="488.78" y1="160.14" x2="488.78" y2="177.14"/><line class="cls-3" x1="488.78" y1="213.14" x2="488.78" y2="230.14"/><line class="cls-3" x1="580.78" y1="107.14" x2="580.78" y2="124.14"/><line class="cls-3" x1="580.78" y1="160.14" x2="580.78" y2="177.14"/><line class="cls-3" x1="580.78" y1="213.14" x2="580.78" y2="230.14"/><line class="cls-3" x1="592.84" y1="208.5" x2="623.4" y2="235.08"/><line class="cls-1" x1="471.28" y1="194.64" x2="468.28" y2="194.64"/><line class="cls-4" x1="462.28" y1="194.64" x2="441.28" y2="194.64"/><polyline class="cls-1" points="438.28 194.64 435.28 194.64 435.28 191.64"/><line class="cls-5" x1="435.28" y1="185.8" x2="435.28" y2="48.56"/><polyline class="cls-1" points="435.28 45.64 435.28 42.64 438.28 42.64"/><line class="cls-6" x1="444.13" y1="42.64" x2="511.36" y2="42.64"/><line class="cls-1" x1="514.28" y1="42.64" x2="517.28" y2="42.64"/><polyline class="cls-7" points="595.61 99.34 639.1 142.83 596.3 185.63"/><path class="cls-2" d="M689.78,52.26c0-4.49,1.83-6.9,4.81-6.9s4.81,2.41,4.81,6.9-1.83,7-4.81,7S689.78,56.72,689.78,52.26Zm8,0c0-3.84-1.32-5.5-3.19-5.5s-3.19,1.66-3.19,5.5,1.32,5.59,3.19,5.59S697.78,56.11,697.78,52.26Zm-4.49-.14a1.3,1.3,0,1,1,1.3,1.4A1.31,1.31,0,0,1,693.29,52.12Z" transform="translate(-159.72 -45.36)"/><path class="cls-2" d="M614.33,127.56h3.86v-9.83h-3V116.6a9.71,9.71,0,0,0,3.44-1h1.3v12h3.49V129h-9.09Z" transform="translate(-159.72 -45.36)"/><path class="cls-2" d="M613.82,186c4.54-4,7-6.37,7-8.59,0-1.54-.93-2.61-2.9-2.61a4.62,4.62,0,0,0-3.21,1.6l-1-1a6,6,0,0,1,4.43-2c2.69,0,4.37,1.57,4.37,3.94s-2.52,5-6.16,8.32c.84-.06,1.7-.11,2.5-.11h4.39V187h-9.43Z" transform="translate(-159.72 -45.36)"/><path class="cls-2" d="M613.49,261.37l.88-1.14a5.41,5.41,0,0,0,3.84,1.58c1.83,0,3.19-.95,3.19-2.44s-1.34-2.66-4.85-2.66v-1.33c3.17,0,4.39-1.09,4.39-2.5s-1.11-2.1-2.73-2.1a5,5,0,0,0-3.29,1.35L614,251a6.46,6.46,0,0,1,4.28-1.68c2.52,0,4.44,1.23,4.44,3.4,0,1.61-1.2,2.64-2.86,3.19V256c1.78.38,3.32,1.56,3.32,3.4,0,2.38-2.19,3.83-4.85,3.83A6.58,6.58,0,0,1,613.49,261.37Z" transform="translate(-159.72 -45.36)"/><path class="cls-2" d="M620,305.79c0-.74.06-1.64.1-2.38H620c-.44.65-.93,1.31-1.37,2L615,309.9h8.69v1.41H613.11v-1.16l6.68-8.54h1.87V315H620Z" transform="translate(-159.72 -45.36)"/><path class="cls-2" d="M762.47,119.43l.86-1.16a5.32,5.32,0,0,0,3.78,1.54,3.11,3.11,0,0,0,3.38-3c0-1.84-1.3-2.92-3.28-2.92a5.06,5.06,0,0,0-2.73.8l-.92-.59.44-6.44h7.58v1.51h-6.05l-.36,3.95a5.7,5.7,0,0,1,2.48-.55c2.56,0,4.6,1.3,4.6,4.2s-2.39,4.54-5,4.54A6.74,6.74,0,0,1,762.47,119.43Z" transform="translate(-159.72 -45.36)"/><path class="cls-2" d="M703.91,183.81c0-5.37,2.68-7.45,5.6-7.45a5.36,5.36,0,0,1,3.74,1.42l-1,1.1a4,4,0,0,0-2.67-1.07c-2.19,0-4.08,1.53-4.08,6,0,3.3,1.26,5.08,3.49,5.08a2.77,2.77,0,0,0,2.81-2.94,2.54,2.54,0,0,0-2.83-2.83A4.69,4.69,0,0,0,705.5,185l-.06-1.37a5.67,5.67,0,0,1,3.88-1.82c2.48,0,4.18,1.38,4.18,4.13a4.33,4.33,0,0,1-4.47,4.31C706.11,190.26,703.91,188.11,703.91,183.81Z" transform="translate(-159.72 -45.36)"/><path class="cls-2" d="M711.47,228.12h-7.71v-1.51h9.7v1.07c-3.55,4-4.41,7.07-4.62,12.32H707A17.92,17.92,0,0,1,711.47,228.12Z" transform="translate(-159.72 -45.36)"/><path class="cls-2" d="M703.72,289.58c0-1.85,1.43-2.9,2.87-3.57v-.08a3.75,3.75,0,0,1-2-3.13c0-2.06,1.74-3.44,4.13-3.44,2.63,0,4.16,1.49,4.16,3.57a4.21,4.21,0,0,1-2,3.19v.08c1.47.74,2.62,1.58,2.62,3.49s-1.74,3.57-4.81,3.57S703.72,291.7,703.72,289.58Zm8.06,0c0-1.84-1.87-2.33-4.2-3.1-1.3.69-2.29,1.55-2.29,2.89s1.33,2.54,3.38,2.54S711.78,291,711.78,289.62Zm-.44-6.61a2.38,2.38,0,0,0-2.69-2.35,2.22,2.22,0,0,0-2.5,2.14c0,1.6,1.54,2.27,3.53,2.9A3.41,3.41,0,0,0,711.34,283Z" transform="translate(-159.72 -45.36)"/><path class="cls-2" d="M821,291.85l1-1.09a3.93,3.93,0,0,0,2.66,1.05c2.16,0,4.08-1.54,4.08-6,0-3.29-1.29-5.06-3.49-5.06a2.77,2.77,0,0,0-2.84,2.92,2.57,2.57,0,0,0,2.86,2.84,4.72,4.72,0,0,0,3.49-1.89l.06,1.36a5.56,5.56,0,0,1-3.89,1.83,3.79,3.79,0,0,1-4.15-4.14,4.31,4.31,0,0,1,4.45-4.3c2.92,0,5.14,2.14,5.14,6.44,0,5.38-2.71,7.46-5.6,7.46A5.4,5.4,0,0,1,821,291.85Z" transform="translate(-159.72 -45.36)"/></svg>