<svg id="图层_1" data-name="图层 1" xmlns="http://www.w3.org/2000/svg" viewBox="0 0 241 125"><defs><style>.cls-1{fill:none;stroke:#3ea69f;stroke-miterlimit:10;}.cls-2{fill:#3ea69f;}</style></defs><circle class="cls-1" cx="84.5" cy="18.5" r="18"/><path class="cls-2" d="M589.49,149.73h2l4.64,13.77h-1.89l-2.38-7.68c-.48-1.54-.94-3-1.36-4.64h-.08c-.44,1.59-.89,3.1-1.37,4.64l-2.41,7.68h-1.81Zm-2.18,8.16h6.32v1.43h-6.32Z" transform="translate(-506 -139)"/><circle class="cls-1" cx="18.5" cy="106.5" r="18"/><path class="cls-2" d="M520.28,237.73h3.9c2.82,0,4.73.94,4.73,3.36a3,3,0,0,1-2.42,3v.08c2,.32,3.2,1.41,3.2,3.3,0,2.71-2.1,4-5.19,4h-4.22Zm3.61,5.79c2.35,0,3.3-.75,3.3-2.29s-1.1-2-3.22-2h-2v4.32Zm.36,6.51c2.35,0,3.71-.78,3.71-2.65,0-1.7-1.3-2.39-3.71-2.39H522v5Z" transform="translate(-506 -139)"/><line class="cls-1" x1="74.95" y1="33.75" x2="29.11" y2="91.96"/><circle class="cls-1" cx="156.5" cy="18.5" r="18"/><path class="cls-2" d="M668.15,163.5h-1.81l-2.41-7.68c-.48-1.54-.93-3-1.37-4.64h-.08c-.42,1.59-.88,3.1-1.36,4.64l-2.38,7.68h-1.89l4.64-13.77h2Zm-2.46-4.18h-6.32v-1.43h6.32Z" transform="translate(-506 -139)"/><circle class="cls-1" cx="222.5" cy="106.5" r="18"/><path class="cls-2" d="M724.28,237.73h3.9c2.82,0,4.73.94,4.73,3.36a3,3,0,0,1-2.42,3v.08c2,.32,3.2,1.41,3.2,3.3,0,2.71-2.1,4-5.19,4h-4.22Zm3.61,5.79c2.35,0,3.3-.75,3.3-2.29s-1.1-2-3.22-2h-2v4.32Zm.36,6.51c2.35,0,3.71-.78,3.71-2.65,0-1.7-1.3-2.39-3.71-2.39H726v5Z" transform="translate(-506 -139)"/><line class="cls-1" x1="166.05" y1="33.75" x2="211.89" y2="91.96"/></svg>