<svg xmlns="http://www.w3.org/2000/svg" viewBox="0 0 676.95 298.34"><defs><style>.a{fill:#3ea69f;}.b{fill:none;stroke:#3ea69f;stroke-miterlimit:10;}</style></defs><path class="a" d="M162.77,183.75h5.82v1h-4.43v16.09h4.43v1h-5.82Z" transform="translate(-162.77 -183.75)"/><path class="a" d="M172.18,197.58c4.54-4,7-6.36,7-8.58,0-1.54-.93-2.61-2.9-2.61a4.66,4.66,0,0,0-3.22,1.6l-1-1a5.94,5.94,0,0,1,4.43-2c2.69,0,4.37,1.57,4.37,3.94,0,2.52-2.52,5-6.16,8.32.84-.07,1.7-.11,2.5-.11h4.39v1.49h-9.43Z" transform="translate(-162.77 -183.75)"/><path class="a" d="M184.87,192.42c0-5.38,2.68-7.45,5.6-7.45a5.31,5.31,0,0,1,3.74,1.42l-1,1.1a3.91,3.91,0,0,0-2.66-1.08c-2.19,0-4.08,1.54-4.08,6,0,3.3,1.26,5.08,3.49,5.08a2.78,2.78,0,0,0,2.81-2.94,2.54,2.54,0,0,0-2.83-2.83,4.69,4.69,0,0,0-3.51,1.89l-.06-1.37a5.68,5.68,0,0,1,3.88-1.83,3.81,3.81,0,0,1,4.18,4.14,4.33,4.33,0,0,1-4.47,4.31C187.07,198.87,184.87,196.72,184.87,192.42Z" transform="translate(-162.77 -183.75)"/><path class="a" d="M197.91,200.82h4.43V184.73h-4.43v-1h5.81V201.8h-5.81Z" transform="translate(-162.77 -183.75)"/><path class="a" d="M183.17,247.75H189v1h-4.43v16.09H189v1h-5.82Z" transform="translate(-162.77 -183.75)"/><path class="a" d="M192.22,261l.87-1.16a5.32,5.32,0,0,0,3.78,1.54,3.12,3.12,0,0,0,3.38-3.05c0-1.85-1.31-2.92-3.28-2.92a5.06,5.06,0,0,0-2.73.8l-.92-.59.44-6.44h7.58v1.51h-6.05l-.36,4a5.7,5.7,0,0,1,2.48-.55c2.56,0,4.6,1.3,4.6,4.2s-2.39,4.54-5,4.54A6.76,6.76,0,0,1,192.22,261Z" transform="translate(-162.77 -183.75)"/><path class="a" d="M207.76,266c1.79-.79,2.67-1.93,2.65-3.67l-.38-1.93,1.18,1.66a1.66,1.66,0,0,1-2.82-1.1,1.57,1.57,0,0,1,1.68-1.59c1.24,0,1.89,1,1.89,2.69a5.17,5.17,0,0,1-3.69,5Z" transform="translate(-162.77 -183.75)"/><path class="a" d="M217.78,261.58c4.54-4,7-6.36,7-8.58,0-1.54-.92-2.61-2.89-2.61a4.64,4.64,0,0,0-3.22,1.6l-1-1a5.94,5.94,0,0,1,4.43-2c2.68,0,4.36,1.57,4.36,3.94,0,2.52-2.51,5-6.15,8.32.84-.07,1.7-.11,2.5-.11h4.39v1.49h-9.43Z" transform="translate(-162.77 -183.75)"/><path class="a" d="M230.46,256.42c0-5.38,2.69-7.45,5.61-7.45a5.31,5.31,0,0,1,3.74,1.42l-1,1.1a3.91,3.91,0,0,0-2.66-1.08c-2.19,0-4.08,1.54-4.08,6,0,3.3,1.26,5.08,3.49,5.08a2.78,2.78,0,0,0,2.81-2.94,2.54,2.54,0,0,0-2.83-2.83,4.69,4.69,0,0,0-3.51,1.89l-.06-1.37a5.68,5.68,0,0,1,3.88-1.83,3.81,3.81,0,0,1,4.18,4.14,4.33,4.33,0,0,1-4.47,4.31C232.67,262.87,230.46,260.72,230.46,256.42Z" transform="translate(-162.77 -183.75)"/><path class="a" d="M243.51,264.82h4.43V248.73h-4.43v-1h5.81V265.8h-5.81Z" transform="translate(-162.77 -183.75)"/><path class="a" d="M234.27,317.75h5.82v1h-4.43v16.08h4.43v1h-5.82Z" transform="translate(-162.77 -183.75)"/><path class="a" d="M243.33,331l.86-1.16a5.31,5.31,0,0,0,3.77,1.54,3.12,3.12,0,0,0,3.39-3.05c0-1.85-1.31-2.92-3.28-2.92a5.06,5.06,0,0,0-2.73.8l-.92-.59.44-6.44h7.58v1.51h-6.05l-.36,3.95a5.7,5.7,0,0,1,2.48-.55c2.56,0,4.6,1.3,4.6,4.2s-2.39,4.54-5,4.54A6.72,6.72,0,0,1,243.33,331Z" transform="translate(-162.77 -183.75)"/><path class="a" d="M258.86,336c1.79-.79,2.67-1.93,2.65-3.67l-.38-1.93,1.18,1.66a1.66,1.66,0,0,1-2.82-1.09,1.57,1.57,0,0,1,1.68-1.6c1.24,0,1.89,1,1.89,2.69a5.17,5.17,0,0,1-3.69,5Z" transform="translate(-162.77 -183.75)"/><path class="a" d="M268.88,331.58c4.54-4,7-6.36,7-8.58,0-1.54-.92-2.61-2.89-2.61a4.62,4.62,0,0,0-3.21,1.6l-1-1a6,6,0,0,1,4.43-2c2.68,0,4.36,1.57,4.36,3.94s-2.52,5-6.15,8.32c.84-.06,1.7-.11,2.5-.11h4.39v1.49h-9.43Z" transform="translate(-162.77 -183.75)"/><path class="a" d="M281.57,326.42c0-5.38,2.68-7.45,5.6-7.45a5.36,5.36,0,0,1,3.74,1.42l-1,1.1a3.88,3.88,0,0,0-2.66-1.07c-2.19,0-4.08,1.53-4.08,6,0,3.3,1.26,5.08,3.49,5.08a2.78,2.78,0,0,0,2.81-2.94,2.54,2.54,0,0,0-2.83-2.83,4.69,4.69,0,0,0-3.51,1.89l-.06-1.37a5.68,5.68,0,0,1,3.88-1.83,3.81,3.81,0,0,1,4.18,4.14,4.33,4.33,0,0,1-4.47,4.31C283.77,332.87,281.57,330.72,281.57,326.42Z" transform="translate(-162.77 -183.75)"/><path class="a" d="M296.66,336c1.79-.79,2.67-1.93,2.65-3.67l-.38-1.93,1.18,1.66a1.66,1.66,0,0,1-2.82-1.09,1.57,1.57,0,0,1,1.68-1.6c1.24,0,1.89,1,1.89,2.69a5.17,5.17,0,0,1-3.69,5Z" transform="translate(-162.77 -183.75)"/><path class="a" d="M314.32,320.73h-7.7v-1.51h9.7v1.07c-3.55,4-4.41,7.07-4.62,12.32h-1.83A17.91,17.91,0,0,1,314.32,320.73Z" transform="translate(-162.77 -183.75)"/><path class="a" d="M326.92,320.73h-7.7v-1.51h9.7v1.07c-3.55,4-4.41,7.07-4.62,12.32h-1.83A17.91,17.91,0,0,1,326.92,320.73Z" transform="translate(-162.77 -183.75)"/><path class="a" d="M332.41,334.82h4.43V318.74h-4.43v-1h5.81V335.8h-5.81Z" transform="translate(-162.77 -183.75)"/><path class="a" d="M389.17,317.75H395v1h-4.43v16.08H395v1h-5.82Z" transform="translate(-162.77 -183.75)"/><path class="a" d="M399.09,331.17H403v-9.83h-3v-1.13a9.71,9.71,0,0,0,3.44-1h1.3v11.95h3.49v1.44h-9.09Z" transform="translate(-162.77 -183.75)"/><path class="a" d="M413.76,336c1.79-.79,2.67-1.93,2.65-3.67l-.38-1.93,1.18,1.66a1.66,1.66,0,0,1-2.82-1.09,1.57,1.57,0,0,1,1.68-1.6c1.24,0,1.89,1,1.89,2.69a5.17,5.17,0,0,1-3.69,5Z" transform="translate(-162.77 -183.75)"/><path class="a" d="M423.87,326.42c0-5.38,2.68-7.45,5.6-7.45a5.36,5.36,0,0,1,3.74,1.42l-1,1.1a3.9,3.9,0,0,0-2.66-1.07c-2.19,0-4.08,1.53-4.08,6,0,3.3,1.26,5.08,3.49,5.08a2.78,2.78,0,0,0,2.81-2.94,2.54,2.54,0,0,0-2.83-2.83,4.69,4.69,0,0,0-3.51,1.89l-.06-1.37a5.68,5.68,0,0,1,3.88-1.83,3.81,3.81,0,0,1,4.18,4.14,4.33,4.33,0,0,1-4.47,4.31C426.07,332.87,423.87,330.72,423.87,326.42Z" transform="translate(-162.77 -183.75)"/><path class="a" d="M436.88,331.17h3.87v-9.83h-3v-1.13a9.71,9.71,0,0,0,3.44-1h1.3v11.95H446v1.44h-9.1Z" transform="translate(-162.77 -183.75)"/><path class="a" d="M449.51,334.82h4.43V318.74h-4.43v-1h5.81V335.8h-5.81Z" transform="translate(-162.77 -183.75)"/><path class="a" d="M273.78,390.75h5.81v1h-4.43v16.08h4.43v1h-5.81Z" transform="translate(-162.77 -183.75)"/><path class="a" d="M283.69,404.17h3.86v-9.83h-3v-1.13a9.71,9.71,0,0,0,3.44-1h1.3v11.95h3.49v1.44h-9.09Z" transform="translate(-162.77 -183.75)"/><path class="a" d="M298.37,409c1.78-.79,2.66-1.93,2.64-3.67l-.38-1.93,1.18,1.66a1.52,1.52,0,0,1-1.18.48A1.5,1.5,0,0,1,299,404a1.56,1.56,0,0,1,1.67-1.6c1.24,0,1.89,1,1.89,2.69a5.17,5.17,0,0,1-3.69,5Z" transform="translate(-162.77 -183.75)"/><path class="a" d="M308,404l.86-1.16a5.32,5.32,0,0,0,3.78,1.54,3.11,3.11,0,0,0,3.38-3.05c0-1.85-1.3-2.92-3.28-2.92a5.06,5.06,0,0,0-2.73.8l-.92-.59.44-6.44h7.58v1.51h-6.05l-.36,3.95a5.73,5.73,0,0,1,2.48-.55c2.56,0,4.6,1.3,4.6,4.2s-2.39,4.54-4.95,4.54A6.72,6.72,0,0,1,308,404Z" transform="translate(-162.77 -183.75)"/><path class="a" d="M323.57,409c1.78-.79,2.66-1.93,2.64-3.67l-.38-1.93,1.18,1.66a1.52,1.52,0,0,1-1.18.48A1.5,1.5,0,0,1,324.2,404a1.56,1.56,0,0,1,1.68-1.6c1.23,0,1.88,1,1.88,2.69a5.17,5.17,0,0,1-3.69,5Z" transform="translate(-162.77 -183.75)"/><path class="a" d="M333.58,404.58c4.54-4,7-6.36,7-8.58,0-1.54-.93-2.61-2.9-2.61a4.62,4.62,0,0,0-3.21,1.6l-1-1a6,6,0,0,1,4.43-2c2.69,0,4.37,1.57,4.37,3.94s-2.52,5-6.16,8.32c.84-.06,1.7-.11,2.5-.11H343v1.49h-9.43Z" transform="translate(-162.77 -183.75)"/><path class="a" d="M346.27,399.42c0-5.38,2.68-7.45,5.6-7.45a5.36,5.36,0,0,1,3.74,1.42l-1,1.1a3.9,3.9,0,0,0-2.66-1.07c-2.19,0-4.08,1.53-4.08,6,0,3.3,1.26,5.08,3.49,5.08a2.78,2.78,0,0,0,2.81-2.94,2.54,2.54,0,0,0-2.83-2.83,4.69,4.69,0,0,0-3.51,1.89l-.06-1.37a5.68,5.68,0,0,1,3.88-1.83,3.81,3.81,0,0,1,4.18,4.14,4.33,4.33,0,0,1-4.47,4.31C348.47,405.87,346.27,403.72,346.27,399.42Z" transform="translate(-162.77 -183.75)"/><path class="a" d="M361.36,409c1.79-.79,2.67-1.93,2.65-3.67l-.38-1.93,1.18,1.66A1.66,1.66,0,0,1,362,404a1.57,1.57,0,0,1,1.68-1.6c1.24,0,1.89,1,1.89,2.69a5.17,5.17,0,0,1-3.69,5Z" transform="translate(-162.77 -183.75)"/><path class="a" d="M371.47,399.42c0-5.38,2.68-7.45,5.6-7.45a5.36,5.36,0,0,1,3.74,1.42l-1,1.1a3.88,3.88,0,0,0-2.66-1.07c-2.19,0-4.08,1.53-4.08,6,0,3.3,1.26,5.08,3.49,5.08a2.78,2.78,0,0,0,2.81-2.94,2.54,2.54,0,0,0-2.83-2.83,4.69,4.69,0,0,0-3.51,1.89l-.06-1.37a5.68,5.68,0,0,1,3.88-1.83,3.81,3.81,0,0,1,4.18,4.14,4.33,4.33,0,0,1-4.47,4.31C373.67,405.87,371.47,403.72,371.47,399.42Z" transform="translate(-162.77 -183.75)"/><path class="a" d="M384.49,404.17h3.86v-9.83h-3v-1.13a9.71,9.71,0,0,0,3.44-1h1.3v11.95h3.49v1.44h-9.09Z" transform="translate(-162.77 -183.75)"/><path class="a" d="M399.16,409c1.79-.79,2.67-1.93,2.65-3.67l-.38-1.93,1.18,1.66a1.66,1.66,0,0,1-2.82-1.09,1.57,1.57,0,0,1,1.68-1.6c1.24,0,1.89,1,1.89,2.69a5.17,5.17,0,0,1-3.69,5Z" transform="translate(-162.77 -183.75)"/><path class="a" d="M416.82,393.73h-7.7v-1.51h9.7v1.07c-3.55,4-4.41,7.07-4.62,12.32h-1.83A17.91,17.91,0,0,1,416.82,393.73Z" transform="translate(-162.77 -183.75)"/><path class="a" d="M429.42,393.73h-7.7v-1.51h9.7v1.07c-3.55,4-4.41,7.07-4.62,12.32H425A17.91,17.91,0,0,1,429.42,393.73Z" transform="translate(-162.77 -183.75)"/><path class="a" d="M434.91,407.82h4.43V391.74h-4.43v-1h5.81V408.8h-5.81Z" transform="translate(-162.77 -183.75)"/><path class="a" d="M352.28,462.75h5.81v1h-4.43v16.08h4.43v1h-5.81Z" transform="translate(-162.77 -183.75)"/><path class="a" d="M362.19,476.17h3.86v-9.83h-3v-1.13a9.71,9.71,0,0,0,3.44-1h1.3v11.95h3.49v1.44h-9.09Z" transform="translate(-162.77 -183.75)"/><path class="a" d="M376.87,481c1.78-.79,2.66-1.93,2.64-3.67l-.38-1.93,1.18,1.66a1.52,1.52,0,0,1-1.18.48A1.5,1.5,0,0,1,377.5,476a1.56,1.56,0,0,1,1.68-1.6c1.24,0,1.89,1,1.89,2.69a5.18,5.18,0,0,1-3.7,5Z" transform="translate(-162.77 -183.75)"/><path class="a" d="M386.53,476l.86-1.16a5.32,5.32,0,0,0,3.78,1.54,3.11,3.11,0,0,0,3.38-3.05c0-1.85-1.3-2.92-3.28-2.92a5.06,5.06,0,0,0-2.73.8l-.92-.59.44-6.44h7.58v1.51h-6.05l-.35,3.95a5.65,5.65,0,0,1,2.47-.55c2.56,0,4.6,1.3,4.6,4.2s-2.39,4.54-4.95,4.54A6.74,6.74,0,0,1,386.53,476Z" transform="translate(-162.77 -183.75)"/><path class="a" d="M402.07,481c1.78-.79,2.66-1.93,2.64-3.67l-.38-1.93,1.18,1.66a1.52,1.52,0,0,1-1.18.48A1.5,1.5,0,0,1,402.7,476a1.56,1.56,0,0,1,1.68-1.6c1.23,0,1.89,1,1.89,2.69a5.18,5.18,0,0,1-3.7,5Z" transform="translate(-162.77 -183.75)"/><path class="a" d="M412.59,476.17h3.86v-9.83h-3v-1.13a9.71,9.71,0,0,0,3.44-1h1.3v11.95h3.49v1.44h-9.09Z" transform="translate(-162.77 -183.75)"/><path class="a" d="M425.19,476.17h3.86v-9.83h-3v-1.13a9.71,9.71,0,0,0,3.44-1h1.3v11.95h3.49v1.44h-9.09Z" transform="translate(-162.77 -183.75)"/><path class="a" d="M439.87,481c1.78-.79,2.66-1.93,2.64-3.67l-.38-1.93,1.18,1.66a1.52,1.52,0,0,1-1.18.48A1.5,1.5,0,0,1,440.5,476a1.56,1.56,0,0,1,1.67-1.6c1.24,0,1.89,1,1.89,2.69a5.17,5.17,0,0,1-3.69,5Z" transform="translate(-162.77 -183.75)"/><path class="a" d="M450.39,476.17h3.86v-9.83h-3v-1.13a9.71,9.71,0,0,0,3.44-1H456v11.95h3.49v1.44h-9.09Z" transform="translate(-162.77 -183.75)"/><path class="a" d="M462.13,476l.86-1.16a5.32,5.32,0,0,0,3.78,1.54,3.12,3.12,0,0,0,3.38-3.05c0-1.85-1.31-2.92-3.28-2.92a5.06,5.06,0,0,0-2.73.8l-.92-.59.44-6.44h7.58v1.51h-6.05l-.36,3.95a5.7,5.7,0,0,1,2.48-.55c2.56,0,4.6,1.3,4.6,4.2s-2.39,4.54-5,4.54A6.72,6.72,0,0,1,462.13,476Z" transform="translate(-162.77 -183.75)"/><path class="a" d="M477.67,481c1.78-.79,2.66-1.93,2.64-3.67l-.38-1.93,1.18,1.66a1.66,1.66,0,0,1-2.82-1.09,1.57,1.57,0,0,1,1.68-1.6c1.24,0,1.89,1,1.89,2.69a5.17,5.17,0,0,1-3.69,5Z" transform="translate(-162.77 -183.75)"/><path class="a" d="M488.19,476.17h3.86v-9.83h-3v-1.13a9.71,9.71,0,0,0,3.44-1h1.3v11.95h3.49v1.44h-9.09Z" transform="translate(-162.77 -183.75)"/><path class="a" d="M500.41,476.46l1-1.09a4,4,0,0,0,2.67,1.05c2.16,0,4.07-1.54,4.07-6,0-3.29-1.28-5.06-3.48-5.06a2.77,2.77,0,0,0-2.84,2.92,2.56,2.56,0,0,0,2.86,2.83,4.66,4.66,0,0,0,3.48-1.89l.07,1.37a5.56,5.56,0,0,1-3.89,1.83,3.79,3.79,0,0,1-4.15-4.14,4.31,4.31,0,0,1,4.45-4.3c2.92,0,5.14,2.14,5.14,6.44,0,5.38-2.71,7.46-5.61,7.46A5.39,5.39,0,0,1,500.41,476.46Z" transform="translate(-162.77 -183.75)"/><path class="a" d="M515.46,481c1.79-.79,2.67-1.93,2.65-3.67l-.38-1.93,1.18,1.66a1.66,1.66,0,0,1-2.82-1.09,1.57,1.57,0,0,1,1.68-1.6c1.24,0,1.89,1,1.89,2.69a5.17,5.17,0,0,1-3.69,5Z" transform="translate(-162.77 -183.75)"/><path class="a" d="M525.48,476.58c4.54-4,7-6.36,7-8.58,0-1.54-.92-2.61-2.89-2.61a4.66,4.66,0,0,0-3.22,1.6l-1-1a6,6,0,0,1,4.43-2c2.68,0,4.36,1.57,4.36,3.94s-2.52,5-6.15,8.32c.84-.06,1.7-.11,2.5-.11h4.39v1.49h-9.43Z" transform="translate(-162.77 -183.75)"/><path class="a" d="M538.17,471.42c0-5.38,2.68-7.45,5.6-7.45a5.36,5.36,0,0,1,3.74,1.42l-1,1.1a3.9,3.9,0,0,0-2.66-1.07c-2.19,0-4.08,1.53-4.08,6,0,3.3,1.26,5.08,3.49,5.08a2.78,2.78,0,0,0,2.81-2.94,2.54,2.54,0,0,0-2.83-2.83,4.69,4.69,0,0,0-3.51,1.89l-.06-1.37a5.68,5.68,0,0,1,3.88-1.83,3.81,3.81,0,0,1,4.18,4.14,4.33,4.33,0,0,1-4.47,4.31C540.37,477.87,538.17,475.72,538.17,471.42Z" transform="translate(-162.77 -183.75)"/><path class="a" d="M553.26,481c1.79-.79,2.67-1.93,2.65-3.67l-.38-1.93,1.18,1.66a1.66,1.66,0,0,1-2.82-1.09,1.57,1.57,0,0,1,1.68-1.6c1.24,0,1.89,1,1.89,2.69a5.17,5.17,0,0,1-3.69,5Z" transform="translate(-162.77 -183.75)"/><path class="a" d="M569.47,468.4c0-.74.07-1.64.11-2.38h-.11c-.44.65-.92,1.31-1.36,2l-3.61,4.53h8.69v1.41H562.57v-1.16l6.67-8.54h1.87v13.39h-1.64Z" transform="translate(-162.77 -183.75)"/><path class="a" d="M575.78,474.19c0-1.85,1.42-2.9,2.87-3.57v-.08a3.77,3.77,0,0,1-2-3.13c0-2.06,1.74-3.44,4.13-3.44,2.63,0,4.16,1.49,4.16,3.57a4.21,4.21,0,0,1-2,3.19v.08c1.47.74,2.63,1.58,2.63,3.49s-1.75,3.57-4.81,3.57S575.78,476.31,575.78,474.19Zm8.06,0c0-1.84-1.87-2.33-4.2-3.1-1.3.69-2.29,1.55-2.29,2.89s1.32,2.54,3.38,2.54S583.84,475.62,583.84,474.23Zm-.44-6.61a2.39,2.39,0,0,0-2.69-2.35,2.22,2.22,0,0,0-2.5,2.14c0,1.59,1.53,2.27,3.53,2.9A3.41,3.41,0,0,0,583.4,467.62Z" transform="translate(-162.77 -183.75)"/><path class="a" d="M591.06,481c1.79-.79,2.67-1.93,2.65-3.67l-.38-1.93,1.18,1.66a1.66,1.66,0,0,1-2.82-1.09,1.57,1.57,0,0,1,1.68-1.6c1.24,0,1.89,1,1.89,2.69a5.17,5.17,0,0,1-3.69,5Z" transform="translate(-162.77 -183.75)"/><path class="a" d="M600.72,476l.86-1.16a5.35,5.35,0,0,0,3.78,1.54,3.11,3.11,0,0,0,3.38-3.05c0-1.85-1.3-2.92-3.27-2.92a5,5,0,0,0-2.73.8l-.92-.59.44-6.44h7.58v1.51h-6.05l-.36,3.95a5.7,5.7,0,0,1,2.48-.55c2.56,0,4.6,1.3,4.6,4.2s-2.4,4.54-5,4.54A6.76,6.76,0,0,1,600.72,476Z" transform="translate(-162.77 -183.75)"/><path class="a" d="M613.81,476.46l1-1.09a4,4,0,0,0,2.67,1.05c2.16,0,4.07-1.54,4.07-6,0-3.29-1.28-5.06-3.48-5.06a2.77,2.77,0,0,0-2.84,2.92,2.56,2.56,0,0,0,2.86,2.83,4.66,4.66,0,0,0,3.48-1.89l.07,1.37a5.58,5.58,0,0,1-3.89,1.83,3.8,3.8,0,0,1-4.16-4.14A4.32,4.32,0,0,1,618,464c2.91,0,5.14,2.14,5.14,6.44,0,5.38-2.71,7.46-5.61,7.46A5.39,5.39,0,0,1,613.81,476.46Z" transform="translate(-162.77 -183.75)"/><path class="a" d="M628.86,481c1.79-.79,2.67-1.93,2.65-3.67l-.38-1.93,1.18,1.66a1.66,1.66,0,0,1-2.82-1.09,1.57,1.57,0,0,1,1.68-1.6c1.24,0,1.89,1,1.89,2.69a5.17,5.17,0,0,1-3.69,5Z" transform="translate(-162.77 -183.75)"/><path class="a" d="M639,471.42c0-5.38,2.69-7.45,5.61-7.45a5.36,5.36,0,0,1,3.74,1.42l-1,1.1a3.9,3.9,0,0,0-2.66-1.07c-2.19,0-4.08,1.53-4.08,6,0,3.3,1.26,5.08,3.49,5.08a2.78,2.78,0,0,0,2.81-2.94,2.54,2.54,0,0,0-2.83-2.83,4.68,4.68,0,0,0-3.51,1.89l-.06-1.37a5.68,5.68,0,0,1,3.88-1.83,3.81,3.81,0,0,1,4.18,4.14,4.33,4.33,0,0,1-4.47,4.31C641.17,477.87,639,475.72,639,471.42Z" transform="translate(-162.77 -183.75)"/><path class="a" d="M652,476.17h3.87v-9.83h-3v-1.13a9.7,9.7,0,0,0,3.45-1h1.3v11.95h3.49v1.44H652Z" transform="translate(-162.77 -183.75)"/><path class="a" d="M666.66,481c1.79-.79,2.67-1.93,2.65-3.67l-.38-1.93,1.18,1.66a1.66,1.66,0,0,1-2.82-1.09,1.57,1.57,0,0,1,1.68-1.6c1.24,0,1.89,1,1.89,2.69a5.17,5.17,0,0,1-3.69,5Z" transform="translate(-162.77 -183.75)"/><path class="a" d="M684.32,465.73h-7.7v-1.51h9.7v1.07c-3.55,4-4.41,7.07-4.62,12.32h-1.83A17.91,17.91,0,0,1,684.32,465.73Z" transform="translate(-162.77 -183.75)"/><path class="a" d="M696.92,465.73h-7.7v-1.51h9.7v1.07c-3.55,4-4.41,7.07-4.62,12.32h-1.83A17.91,17.91,0,0,1,696.92,465.73Z" transform="translate(-162.77 -183.75)"/><path class="a" d="M702.4,479.82h4.43V463.74H702.4v-1h5.82V480.8H702.4Z" transform="translate(-162.77 -183.75)"/><path class="a" d="M549,317.75h5.82v1h-4.43v16.08h4.43v1H549Z" transform="translate(-162.77 -183.75)"/><path class="a" d="M558.89,331.17h3.86v-9.83h-3v-1.13a9.71,9.71,0,0,0,3.44-1h1.3v11.95H568v1.44h-9.09Z" transform="translate(-162.77 -183.75)"/><path class="a" d="M571.49,331.17h3.86v-9.83h-3v-1.13a9.71,9.71,0,0,0,3.44-1h1.3v11.95h3.49v1.44h-9.09Z" transform="translate(-162.77 -183.75)"/><path class="a" d="M586.17,336c1.78-.79,2.66-1.93,2.64-3.67l-.38-1.93,1.18,1.66a1.66,1.66,0,0,1-2.82-1.09,1.57,1.57,0,0,1,1.68-1.6c1.24,0,1.89,1,1.89,2.69a5.17,5.17,0,0,1-3.69,5Z" transform="translate(-162.77 -183.75)"/><path class="a" d="M596.69,331.17h3.86v-9.83h-3v-1.13a9.71,9.71,0,0,0,3.44-1h1.3v11.95h3.49v1.44h-9.09Z" transform="translate(-162.77 -183.75)"/><path class="a" d="M608.42,331l.87-1.16a5.31,5.31,0,0,0,3.77,1.54,3.12,3.12,0,0,0,3.39-3.05c0-1.85-1.31-2.92-3.28-2.92a5,5,0,0,0-2.73.8l-.92-.59.44-6.44h7.58v1.51h-6l-.36,3.95a5.7,5.7,0,0,1,2.48-.55c2.56,0,4.6,1.3,4.6,4.2s-2.39,4.54-5,4.54A6.76,6.76,0,0,1,608.42,331Z" transform="translate(-162.77 -183.75)"/><path class="a" d="M624,336c1.79-.79,2.67-1.93,2.65-3.67l-.38-1.93,1.18,1.66a1.66,1.66,0,0,1-2.82-1.09,1.57,1.57,0,0,1,1.68-1.6c1.24,0,1.89,1,1.89,2.69a5.17,5.17,0,0,1-3.69,5Z" transform="translate(-162.77 -183.75)"/><path class="a" d="M633.62,331l.86-1.16a5.35,5.35,0,0,0,3.78,1.54,3.11,3.11,0,0,0,3.38-3.05c0-1.85-1.3-2.92-3.27-2.92a5,5,0,0,0-2.73.8l-.92-.59.44-6.44h7.58v1.51h-6l-.36,3.95a5.7,5.7,0,0,1,2.48-.55c2.56,0,4.6,1.3,4.6,4.2s-2.4,4.54-5,4.54A6.76,6.76,0,0,1,633.62,331Z" transform="translate(-162.77 -183.75)"/><path class="a" d="M646.71,331.46l1-1.09a4,4,0,0,0,2.67,1.05c2.16,0,4.07-1.54,4.07-6,0-3.29-1.28-5.06-3.48-5.06a2.77,2.77,0,0,0-2.84,2.92A2.56,2.56,0,0,0,651,326.1a4.66,4.66,0,0,0,3.48-1.89l.07,1.37a5.56,5.56,0,0,1-3.89,1.83,3.79,3.79,0,0,1-4.15-4.14,4.31,4.31,0,0,1,4.45-4.3c2.92,0,5.14,2.14,5.14,6.44,0,5.38-2.71,7.46-5.6,7.46A5.4,5.4,0,0,1,646.71,331.46Z" transform="translate(-162.77 -183.75)"/><path class="a" d="M659.71,334.82h4.43V318.74h-4.43v-1h5.81V335.8h-5.81Z" transform="translate(-162.77 -183.75)"/><path class="a" d="M526.87,247.75h5.82v1h-4.43v16.09h4.43v1h-5.82Z" transform="translate(-162.77 -183.75)"/><path class="a" d="M536.79,261.16h3.86v-9.82h-3V250.2a9.73,9.73,0,0,0,3.44-1h1.3v11.94h3.49v1.45h-9.09Z" transform="translate(-162.77 -183.75)"/><path class="a" d="M549.38,261.16h3.87v-9.82h-3V250.2a9.73,9.73,0,0,0,3.44-1H555v11.94h3.49v1.45h-9.1Z" transform="translate(-162.77 -183.75)"/><path class="a" d="M564.06,266c1.79-.79,2.67-1.93,2.65-3.67l-.38-1.93,1.18,1.66a1.66,1.66,0,0,1-2.82-1.1,1.57,1.57,0,0,1,1.68-1.59c1.24,0,1.89,1,1.89,2.69a5.17,5.17,0,0,1-3.69,5Z" transform="translate(-162.77 -183.75)"/><path class="a" d="M573.72,261l.87-1.16a5.32,5.32,0,0,0,3.78,1.54,3.12,3.12,0,0,0,3.38-3.05c0-1.85-1.31-2.92-3.28-2.92a5.06,5.06,0,0,0-2.73.8l-.92-.59.44-6.44h7.58v1.51h-6.05l-.36,4a5.7,5.7,0,0,1,2.48-.55c2.56,0,4.6,1.3,4.6,4.2s-2.39,4.54-5,4.54A6.76,6.76,0,0,1,573.72,261Z" transform="translate(-162.77 -183.75)"/><path class="a" d="M586.81,261.46l1-1.09a4,4,0,0,0,2.67,1.05c2.16,0,4.07-1.54,4.07-6,0-3.29-1.28-5.06-3.48-5.06a2.77,2.77,0,0,0-2.84,2.92,2.56,2.56,0,0,0,2.86,2.83,4.66,4.66,0,0,0,3.48-1.89l.07,1.37a5.58,5.58,0,0,1-3.89,1.83,3.8,3.8,0,0,1-4.16-4.14A4.32,4.32,0,0,1,591,249c2.91,0,5.14,2.14,5.14,6.44,0,5.38-2.71,7.46-5.61,7.46A5.39,5.39,0,0,1,586.81,261.46Z" transform="translate(-162.77 -183.75)"/><path class="a" d="M599.81,264.82h4.43V248.73h-4.43v-1h5.81V265.8h-5.81Z" transform="translate(-162.77 -183.75)"/><path class="a" d="M750.87,317.75h5.82v1h-4.43v16.08h4.43v1h-5.82Z" transform="translate(-162.77 -183.75)"/><path class="a" d="M760.79,331.17h3.86v-9.83h-3v-1.13a9.71,9.71,0,0,0,3.44-1h1.3v11.95h3.49v1.44h-9.09Z" transform="translate(-162.77 -183.75)"/><path class="a" d="M773,331.46l1-1.09a4,4,0,0,0,2.67,1.05c2.16,0,4.07-1.54,4.07-6,0-3.29-1.28-5.06-3.48-5.06a2.77,2.77,0,0,0-2.84,2.92,2.56,2.56,0,0,0,2.86,2.83,4.66,4.66,0,0,0,3.48-1.89l.07,1.37a5.56,5.56,0,0,1-3.89,1.83,3.79,3.79,0,0,1-4.15-4.14,4.31,4.31,0,0,1,4.45-4.3c2.91,0,5.14,2.14,5.14,6.44,0,5.38-2.71,7.46-5.61,7.46A5.39,5.39,0,0,1,773,331.46Z" transform="translate(-162.77 -183.75)"/><path class="a" d="M788.06,336c1.79-.79,2.67-1.93,2.65-3.67l-.38-1.93,1.18,1.66a1.66,1.66,0,0,1-2.82-1.09,1.57,1.57,0,0,1,1.68-1.6c1.24,0,1.89,1,1.89,2.69a5.17,5.17,0,0,1-3.69,5Z" transform="translate(-162.77 -183.75)"/><path class="a" d="M804.28,323.4c0-.74.06-1.64.1-2.38h-.1c-.45.65-.93,1.31-1.37,2l-3.61,4.53H808v1.41H797.37v-1.16l6.67-8.54h1.87v13.39h-1.63Z" transform="translate(-162.77 -183.75)"/><path class="a" d="M810.58,329.19c0-1.85,1.42-2.9,2.87-3.57v-.08a3.77,3.77,0,0,1-2-3.13c0-2.06,1.74-3.44,4.13-3.44,2.63,0,4.16,1.49,4.16,3.57a4.21,4.21,0,0,1-2,3.19v.08c1.47.74,2.63,1.58,2.63,3.49s-1.75,3.57-4.81,3.57S810.58,331.31,810.58,329.19Zm8.06,0c0-1.84-1.87-2.33-4.2-3.1-1.3.69-2.29,1.55-2.29,2.89s1.32,2.54,3.38,2.54S818.64,330.62,818.64,329.23Zm-.44-6.61a2.39,2.39,0,0,0-2.69-2.35,2.22,2.22,0,0,0-2.5,2.14c0,1.59,1.53,2.27,3.53,2.9A3.41,3.41,0,0,0,818.2,322.62Z" transform="translate(-162.77 -183.75)"/><path class="a" d="M823.81,334.82h4.43V318.74h-4.43v-1h5.81V335.8h-5.81Z" transform="translate(-162.77 -183.75)"/><path class="a" d="M583.17,390.75H589v1h-4.43v16.08H589v1h-5.82Z" transform="translate(-162.77 -183.75)"/><path class="a" d="M593.09,404.17H597v-9.83h-3v-1.13a9.71,9.71,0,0,0,3.44-1h1.3v11.95h3.49v1.44h-9.09Z" transform="translate(-162.77 -183.75)"/><path class="a" d="M605.69,404.17h3.86v-9.83h-3v-1.13a9.71,9.71,0,0,0,3.44-1h1.3v11.95h3.49v1.44h-9.09Z" transform="translate(-162.77 -183.75)"/><path class="a" d="M620.37,409c1.78-.79,2.66-1.93,2.64-3.67l-.38-1.93,1.18,1.66a1.52,1.52,0,0,1-1.18.48A1.5,1.5,0,0,1,621,404a1.56,1.56,0,0,1,1.67-1.6c1.24,0,1.89,1,1.89,2.69a5.17,5.17,0,0,1-3.69,5Z" transform="translate(-162.77 -183.75)"/><path class="a" d="M630.89,404.17h3.86v-9.83h-3v-1.13a9.71,9.71,0,0,0,3.44-1h1.3v11.95H640v1.44h-9.09Z" transform="translate(-162.77 -183.75)"/><path class="a" d="M642.63,404l.86-1.16a5.32,5.32,0,0,0,3.78,1.54,3.12,3.12,0,0,0,3.38-3.05c0-1.85-1.31-2.92-3.28-2.92a5.06,5.06,0,0,0-2.73.8l-.92-.59.44-6.44h7.58v1.51h-6l-.36,3.95a5.7,5.7,0,0,1,2.48-.55c2.56,0,4.6,1.3,4.6,4.2s-2.39,4.54-4.95,4.54A6.72,6.72,0,0,1,642.63,404Z" transform="translate(-162.77 -183.75)"/><path class="a" d="M658.17,409c1.78-.79,2.66-1.93,2.64-3.67l-.38-1.93,1.18,1.66a1.66,1.66,0,0,1-2.82-1.09,1.57,1.57,0,0,1,1.68-1.6c1.24,0,1.89,1,1.89,2.69a5.17,5.17,0,0,1-3.69,5Z" transform="translate(-162.77 -183.75)"/><path class="a" d="M668.69,404.17h3.86v-9.83h-3v-1.13a9.71,9.71,0,0,0,3.44-1h1.3v11.95h3.49v1.44h-9.09Z" transform="translate(-162.77 -183.75)"/><path class="a" d="M680.91,404.46l1-1.09a4,4,0,0,0,2.67,1.05c2.16,0,4.07-1.54,4.07-6,0-3.29-1.28-5.06-3.48-5.06a2.77,2.77,0,0,0-2.84,2.92,2.56,2.56,0,0,0,2.86,2.83,4.66,4.66,0,0,0,3.48-1.89l.07,1.37a5.56,5.56,0,0,1-3.89,1.83,3.79,3.79,0,0,1-4.15-4.14,4.31,4.31,0,0,1,4.45-4.3c2.92,0,5.14,2.14,5.14,6.44,0,5.38-2.71,7.46-5.61,7.46A5.39,5.39,0,0,1,680.91,404.46Z" transform="translate(-162.77 -183.75)"/><path class="a" d="M696,409c1.79-.79,2.67-1.93,2.65-3.67l-.38-1.93,1.18,1.66a1.66,1.66,0,0,1-2.82-1.09,1.57,1.57,0,0,1,1.68-1.6c1.24,0,1.89,1,1.89,2.69a5.17,5.17,0,0,1-3.69,5Z" transform="translate(-162.77 -183.75)"/><path class="a" d="M712.18,396.4c0-.74.06-1.64.1-2.38h-.1c-.45.65-.93,1.31-1.37,2l-3.61,4.53h8.69v1.41H705.27v-1.16l6.68-8.54h1.86v13.39h-1.63Z" transform="translate(-162.77 -183.75)"/><path class="a" d="M718.48,402.19c0-1.85,1.42-2.9,2.87-3.57v-.08a3.77,3.77,0,0,1-2-3.13c0-2.06,1.74-3.44,4.13-3.44,2.63,0,4.16,1.49,4.16,3.57a4.21,4.21,0,0,1-2,3.19v.08c1.47.74,2.63,1.58,2.63,3.49s-1.74,3.57-4.81,3.57S718.48,404.31,718.48,402.19Zm8.06,0c0-1.84-1.87-2.33-4.2-3.1-1.3.69-2.29,1.55-2.29,2.89s1.32,2.54,3.38,2.54S726.54,403.62,726.54,402.23Zm-.44-6.61a2.39,2.39,0,0,0-2.69-2.35,2.22,2.22,0,0,0-2.5,2.14c0,1.59,1.54,2.27,3.53,2.9A3.41,3.41,0,0,0,726.1,395.62Z" transform="translate(-162.77 -183.75)"/><path class="a" d="M733.76,409c1.79-.79,2.67-1.93,2.65-3.67l-.38-1.93,1.18,1.66a1.66,1.66,0,0,1-2.82-1.09,1.57,1.57,0,0,1,1.68-1.6c1.24,0,1.89,1,1.89,2.69a5.17,5.17,0,0,1-3.69,5Z" transform="translate(-162.77 -183.75)"/><path class="a" d="M743.42,404l.87-1.16a5.31,5.31,0,0,0,3.77,1.54,3.11,3.11,0,0,0,3.38-3.05c0-1.85-1.3-2.92-3.27-2.92a5,5,0,0,0-2.73.8l-.92-.59.44-6.44h7.58v1.51h-6l-.36,3.95a5.7,5.7,0,0,1,2.48-.55c2.56,0,4.6,1.3,4.6,4.2s-2.4,4.54-5,4.54A6.76,6.76,0,0,1,743.42,404Z" transform="translate(-162.77 -183.75)"/><path class="a" d="M756.51,404.46l1-1.09a4,4,0,0,0,2.67,1.05c2.16,0,4.07-1.54,4.07-6,0-3.29-1.28-5.06-3.48-5.06a2.77,2.77,0,0,0-2.84,2.92,2.56,2.56,0,0,0,2.86,2.83,4.66,4.66,0,0,0,3.48-1.89l.07,1.37a5.58,5.58,0,0,1-3.89,1.83,3.8,3.8,0,0,1-4.16-4.14,4.32,4.32,0,0,1,4.46-4.3c2.91,0,5.14,2.14,5.14,6.44,0,5.38-2.71,7.46-5.61,7.46A5.39,5.39,0,0,1,756.51,404.46Z" transform="translate(-162.77 -183.75)"/><path class="a" d="M769.51,407.82h4.43V391.74h-4.43v-1h5.81V408.8h-5.81Z" transform="translate(-162.77 -183.75)"/><path class="a" d="M235.07,183.75h5.82v1h-4.43v16.09h4.43v1h-5.82Z" transform="translate(-162.77 -183.75)"/><path class="a" d="M244.12,197l.87-1.16a5.32,5.32,0,0,0,3.78,1.54,3.12,3.12,0,0,0,3.38-3c0-1.85-1.31-2.92-3.28-2.92a5.06,5.06,0,0,0-2.73.8l-.92-.59.44-6.44h7.58v1.51h-6.05l-.36,4a5.7,5.7,0,0,1,2.48-.55c2.56,0,4.6,1.3,4.6,4.2s-2.39,4.54-5,4.54A6.76,6.76,0,0,1,244.12,197Z" transform="translate(-162.77 -183.75)"/><path class="a" d="M257.61,200.82H262V184.73h-4.43v-1h5.81V201.8h-5.81Z" transform="translate(-162.77 -183.75)"/><path class="a" d="M299.77,183.75h5.82v1h-4.43v16.09h4.43v1h-5.82Z" transform="translate(-162.77 -183.75)"/><path class="a" d="M316.82,186.73h-7.7v-1.51h9.7v1.07c-3.55,4.05-4.41,7.07-4.62,12.32h-1.83A17.91,17.91,0,0,1,316.82,186.73Z" transform="translate(-162.77 -183.75)"/><path class="a" d="M329.42,186.73h-7.7v-1.51h9.7v1.07c-3.55,4.05-4.41,7.07-4.62,12.32H325A17.91,17.91,0,0,1,329.42,186.73Z" transform="translate(-162.77 -183.75)"/><path class="a" d="M334.91,200.82h4.43V184.73h-4.43v-1h5.81V201.8h-5.81Z" transform="translate(-162.77 -183.75)"/><path class="a" d="M372.07,183.75h5.82v1h-4.43v16.09h4.43v1h-5.82Z" transform="translate(-162.77 -183.75)"/><path class="a" d="M382,197.16h3.86v-9.82h-3V186.2a9.73,9.73,0,0,0,3.44-1h1.3v11.94h3.49v1.45H382Z" transform="translate(-162.77 -183.75)"/><path class="a" d="M394.61,200.82H399V184.73h-4.43v-1h5.81V201.8h-5.81Z" transform="translate(-162.77 -183.75)"/><path class="a" d="M437.77,183.75h5.82v1h-4.43v16.09h4.43v1h-5.82Z" transform="translate(-162.77 -183.75)"/><path class="a" d="M447.27,192.42c0-5.38,2.68-7.45,5.6-7.45a5.31,5.31,0,0,1,3.74,1.42l-1,1.1a3.91,3.91,0,0,0-2.66-1.08c-2.19,0-4.08,1.54-4.08,6,0,3.3,1.26,5.08,3.49,5.08a2.78,2.78,0,0,0,2.81-2.94,2.54,2.54,0,0,0-2.83-2.83,4.69,4.69,0,0,0-3.51,1.89l-.06-1.37a5.68,5.68,0,0,1,3.88-1.83,3.81,3.81,0,0,1,4.18,4.14,4.33,4.33,0,0,1-4.47,4.31C449.47,198.87,447.27,196.72,447.27,192.42Z" transform="translate(-162.77 -183.75)"/><path class="a" d="M460.29,197.16h3.86v-9.82h-3V186.2a9.73,9.73,0,0,0,3.44-1h1.3v11.94h3.49v1.45h-9.09Z" transform="translate(-162.77 -183.75)"/><path class="a" d="M472.91,200.82h4.43V184.73h-4.43v-1h5.81V201.8h-5.81Z" transform="translate(-162.77 -183.75)"/><path class="a" d="M503.77,183.75h5.82v1h-4.43v16.09h4.43v1h-5.82Z" transform="translate(-162.77 -183.75)"/><path class="a" d="M513.69,197.16h3.86v-9.82h-3V186.2a9.73,9.73,0,0,0,3.44-1h1.3v11.94h3.49v1.45h-9.09Z" transform="translate(-162.77 -183.75)"/><path class="a" d="M526.29,197.16h3.86v-9.82h-3V186.2a9.73,9.73,0,0,0,3.44-1h1.3v11.94h3.49v1.45h-9.09Z" transform="translate(-162.77 -183.75)"/><path class="a" d="M538.91,200.82h4.43V184.73h-4.43v-1h5.81V201.8h-5.81Z" transform="translate(-162.77 -183.75)"/><path class="a" d="M586.77,183.75h5.82v1h-4.43v16.09h4.43v1h-5.82Z" transform="translate(-162.77 -183.75)"/><path class="a" d="M595.83,197l.86-1.16a5.31,5.31,0,0,0,3.77,1.54,3.12,3.12,0,0,0,3.39-3c0-1.85-1.31-2.92-3.28-2.92a5.06,5.06,0,0,0-2.73.8l-.92-.59.44-6.44h7.58v1.51h-6.05l-.36,4a5.7,5.7,0,0,1,2.48-.55c2.56,0,4.6,1.3,4.6,4.2s-2.39,4.54-5,4.54A6.72,6.72,0,0,1,595.83,197Z" transform="translate(-162.77 -183.75)"/><path class="a" d="M608.91,197.46l1-1.09a4,4,0,0,0,2.67,1c2.16,0,4.07-1.54,4.07-6,0-3.29-1.28-5.06-3.48-5.06a2.77,2.77,0,0,0-2.84,2.92,2.56,2.56,0,0,0,2.86,2.83,4.66,4.66,0,0,0,3.48-1.89l.07,1.37a5.56,5.56,0,0,1-3.89,1.83,3.79,3.79,0,0,1-4.15-4.14,4.31,4.31,0,0,1,4.45-4.3c2.92,0,5.14,2.14,5.14,6.44,0,5.38-2.71,7.46-5.61,7.46A5.39,5.39,0,0,1,608.91,197.46Z" transform="translate(-162.77 -183.75)"/><path class="a" d="M621.91,200.82h4.43V184.73h-4.43v-1h5.81V201.8h-5.81Z" transform="translate(-162.77 -183.75)"/><path class="a" d="M652.77,183.75h5.82v1h-4.43v16.09h4.43v1h-5.82Z" transform="translate(-162.77 -183.75)"/><path class="a" d="M662.69,197.16h3.86v-9.82h-3V186.2a9.73,9.73,0,0,0,3.44-1h1.3v11.94h3.49v1.45h-9.09Z" transform="translate(-162.77 -183.75)"/><path class="a" d="M674.42,197l.87-1.16a5.31,5.31,0,0,0,3.77,1.54,3.12,3.12,0,0,0,3.39-3c0-1.85-1.31-2.92-3.28-2.92a5,5,0,0,0-2.73.8l-.92-.59.44-6.44h7.58v1.51h-6l-.36,4a5.7,5.7,0,0,1,2.48-.55c2.56,0,4.6,1.3,4.6,4.2s-2.39,4.54-5,4.54A6.76,6.76,0,0,1,674.42,197Z" transform="translate(-162.77 -183.75)"/><path class="a" d="M687.91,200.82h4.43V184.73h-4.43v-1h5.81V201.8h-5.81Z" transform="translate(-162.77 -183.75)"/><path class="a" d="M732.77,183.75h5.82v1h-4.43v16.09h4.43v1h-5.82Z" transform="translate(-162.77 -183.75)"/><path class="a" d="M748.38,189.4c0-.74.06-1.64.1-2.38h-.1c-.44.65-.93,1.31-1.37,2l-3.61,4.53h8.69v1.41H741.47v-1.16l6.67-8.54H750v13.39h-1.63Z" transform="translate(-162.77 -183.75)"/><path class="a" d="M754.68,195.19c0-1.85,1.42-2.9,2.87-3.57v-.08a3.77,3.77,0,0,1-2-3.13c0-2.06,1.74-3.44,4.13-3.44,2.63,0,4.16,1.49,4.16,3.57a4.21,4.21,0,0,1-2,3.19v.08c1.47.74,2.63,1.58,2.63,3.49s-1.74,3.57-4.81,3.57S754.68,197.31,754.68,195.19Zm8.06,0c0-1.84-1.87-2.33-4.2-3.1-1.3.69-2.29,1.55-2.29,2.89s1.32,2.54,3.38,2.54S762.74,196.62,762.74,195.23Zm-.44-6.61a2.39,2.39,0,0,0-2.69-2.35,2.22,2.22,0,0,0-2.5,2.14c0,1.59,1.53,2.27,3.53,2.9A3.41,3.41,0,0,0,762.3,188.62Z" transform="translate(-162.77 -183.75)"/><path class="a" d="M767.91,200.82h4.43V184.73h-4.43v-1h5.81V201.8h-5.81Z" transform="translate(-162.77 -183.75)"/><path class="a" d="M798.77,183.75h5.82v1h-4.43v16.09h4.43v1h-5.82Z" transform="translate(-162.77 -183.75)"/><path class="a" d="M808.69,197.16h3.86v-9.82h-3V186.2a9.73,9.73,0,0,0,3.44-1h1.3v11.94h3.49v1.45h-9.09Z" transform="translate(-162.77 -183.75)"/><path class="a" d="M820.91,197.46l1-1.09a4,4,0,0,0,2.67,1c2.16,0,4.07-1.54,4.07-6,0-3.29-1.28-5.06-3.48-5.06a2.77,2.77,0,0,0-2.84,2.92,2.56,2.56,0,0,0,2.86,2.83,4.66,4.66,0,0,0,3.48-1.89l.07,1.37a5.56,5.56,0,0,1-3.89,1.83,3.79,3.79,0,0,1-4.15-4.14,4.31,4.31,0,0,1,4.45-4.3c2.92,0,5.14,2.14,5.14,6.44,0,5.38-2.71,7.46-5.61,7.46A5.39,5.39,0,0,1,820.91,197.46Z" transform="translate(-162.77 -183.75)"/><path class="a" d="M833.91,200.82h4.43V184.73h-4.43v-1h5.81V201.8h-5.81Z" transform="translate(-162.77 -183.75)"/><line class="b" x1="29.23" y1="29.25" x2="37.23" y2="54.25"/><line class="b" x1="81.23" y1="29.25" x2="73.23" y2="54.25"/><line class="b" x1="166.23" y1="29.25" x2="126.73" y2="126.75"/><line class="b" x1="223.73" y1="28.75" x2="245.73" y2="126.75"/><line class="b" x1="289.73" y1="28.75" x2="273.73" y2="126.75"/><line class="b" x1="370.23" y1="29.25" x2="392.73" y2="59.75"/><line class="b" x1="437.73" y1="28.75" x2="414.73" y2="57.75"/><line class="b" x1="505.23" y1="29.25" x2="466.73" y2="126.75"/><line class="b" x1="601.23" y1="29.25" x2="608.73" y2="123.75"/><line class="b" x1="653.23" y1="29.25" x2="635.73" y2="123.75"/><line class="b" x1="71.23" y1="90.25" x2="102.23" y2="128.25"/><line class="b" x1="397.23" y1="90.25" x2="412.73" y2="126.75"/><line class="b" x1="135.23" y1="162.25" x2="156.73" y2="200.75"/><line class="b" x1="464.23" y1="162.25" x2="485.73" y2="200.75"/><line class="b" x1="239.73" y1="160.75" x2="218.73" y2="200.75"/><line class="b" x1="600.73" y1="160.75" x2="579.73" y2="200.75"/><line class="b" x1="262.23" y1="236.25" x2="285.23" y2="268.25"/><line class="b" x1="477.23" y1="236.25" x2="454.23" y2="268.25"/></svg>