<svg id="图层_1" data-name="图层 1" xmlns="http://www.w3.org/2000/svg" viewBox="0 0 463.51 261.31"><defs><style>.cls-1,.cls-3,.cls-4{fill:none;stroke:#3ea69f;stroke-miterlimit:10;}.cls-2{fill:#3ea69f;}.cls-3{stroke-dasharray:5.79 5.79;}.cls-4{stroke-dasharray:6 6;}</style></defs><circle class="cls-1" cx="253.44" cy="18.5" r="18"/><path class="cls-2" d="M614.92,92.59h3.86V82.77h-3V81.63a9.73,9.73,0,0,0,3.44-1h1.3V92.59H624V94h-9.09Z" transform="translate(-365.75 -69.54)"/><circle class="cls-1" cx="83.35" cy="165.81" r="18"/><path class="cls-2" d="M450.52,232.13c0-.74.06-1.64.1-2.37h-.1c-.44.65-.93,1.3-1.37,2l-3.61,4.54h8.69v1.4H443.61V236.5l6.68-8.55h1.86v13.4h-1.63Z" transform="translate(-365.75 -69.54)"/><circle class="cls-1" cx="53.35" cy="242.81" r="18"/><path class="cls-2" d="M414.22,314.92c0-1.84,1.43-2.89,2.87-3.56v-.09a3.75,3.75,0,0,1-2-3.13c0-2.06,1.74-3.44,4.13-3.44,2.63,0,4.16,1.49,4.16,3.57a4.2,4.2,0,0,1-2,3.19v.08c1.47.74,2.63,1.58,2.63,3.49s-1.74,3.57-4.81,3.57S414.22,317,414.22,314.92Zm8.06.05c0-1.85-1.87-2.33-4.2-3.11-1.3.69-2.29,1.55-2.29,2.9s1.33,2.54,3.38,2.54S422.28,316.35,422.28,315Zm-.44-6.62a2.38,2.38,0,0,0-2.69-2.35,2.22,2.22,0,0,0-2.5,2.14c0,1.6,1.54,2.27,3.53,2.9A3.41,3.41,0,0,0,421.84,308.35Z" transform="translate(-365.75 -69.54)"/><circle class="cls-1" cx="108.35" cy="242.81" r="18"/><path class="cls-2" d="M469.45,317.19l1-1.09a3.93,3.93,0,0,0,2.66,1c2.16,0,4.07-1.53,4.07-6,0-3.3-1.28-5.07-3.48-5.07a2.77,2.77,0,0,0-2.84,2.92,2.57,2.57,0,0,0,2.86,2.84,4.72,4.72,0,0,0,3.49-1.89l.06,1.36a5.52,5.52,0,0,1-3.89,1.83A3.79,3.79,0,0,1,469.2,309a4.31,4.31,0,0,1,4.45-4.3c2.92,0,5.14,2.14,5.14,6.45,0,5.37-2.71,7.45-5.6,7.45A5.4,5.4,0,0,1,469.45,317.19Z" transform="translate(-365.75 -69.54)"/><circle class="cls-1" cx="142.44" cy="92.5" r="18"/><path class="cls-2" d="M503.41,167c4.54-4,7-6.36,7-8.59,0-1.53-.93-2.6-2.9-2.6a4.58,4.58,0,0,0-3.21,1.6l-1-1a6,6,0,0,1,4.43-2c2.69,0,4.37,1.58,4.37,4,0,2.52-2.52,5-6.16,8.31.84-.06,1.7-.1,2.5-.1h4.39V168h-9.43Z" transform="translate(-365.75 -69.54)"/><line class="cls-1" x1="239.46" y1="29.84" x2="153.94" y2="79"/><line class="cls-1" x1="267.41" y1="29.84" x2="352.94" y2="79"/><circle class="cls-1" cx="364.35" cy="92.81" r="18"/><path class="cls-2" d="M725,166.71l.88-1.13a5.41,5.41,0,0,0,3.84,1.57c1.83,0,3.19-.94,3.19-2.44s-1.34-2.66-4.85-2.66v-1.32c3.17,0,4.39-1.1,4.39-2.5s-1.11-2.1-2.73-2.1a5,5,0,0,0-3.29,1.34l-.93-1.09a6.46,6.46,0,0,1,4.28-1.68c2.52,0,4.43,1.24,4.43,3.4,0,1.62-1.19,2.65-2.85,3.19v.09c1.78.37,3.32,1.55,3.32,3.4,0,2.37-2.19,3.82-4.85,3.82A6.54,6.54,0,0,1,725,166.71Z" transform="translate(-365.75 -69.54)"/><line class="cls-1" x1="76.28" y1="182.37" x2="59.47" y2="225.88"/><line class="cls-1" x1="90.58" y1="182.37" x2="102.22" y2="225.88"/><circle class="cls-1" cx="192.35" cy="165.81" r="18"/><path class="cls-2" d="M553,239.77l.86-1.15a5.31,5.31,0,0,0,3.78,1.53,3.11,3.11,0,0,0,3.38-3c0-1.85-1.3-2.92-3.28-2.92a5,5,0,0,0-2.73.8l-.92-.59.44-6.45h7.58v1.51H556l-.36,3.95a5.7,5.7,0,0,1,2.48-.55c2.56,0,4.6,1.31,4.6,4.2s-2.39,4.54-5,4.54A6.7,6.7,0,0,1,553,239.77Z" transform="translate(-365.75 -69.54)"/><line class="cls-1" x1="128.16" y1="103.46" x2="90.35" y2="149.22"/><line class="cls-1" x1="156.71" y1="103.46" x2="185.35" y2="149.22"/><circle class="cls-1" cx="305.35" cy="165.81" r="18"/><path class="cls-2" d="M666.41,235.15c0-5.37,2.68-7.45,5.6-7.45a5.32,5.32,0,0,1,3.74,1.43l-1,1.09a3.93,3.93,0,0,0-2.66-1.07c-2.19,0-4.08,1.53-4.08,6,0,3.3,1.26,5.08,3.49,5.08a2.78,2.78,0,0,0,2.81-2.94,2.54,2.54,0,0,0-2.83-2.83,4.73,4.73,0,0,0-3.51,1.89l-.06-1.36a5.64,5.64,0,0,1,3.88-1.83c2.48,0,4.18,1.38,4.18,4.13a4.32,4.32,0,0,1-4.47,4.31C668.61,241.6,666.41,239.46,666.41,235.15Z" transform="translate(-365.75 -69.54)"/><circle class="cls-1" cx="414.35" cy="165.81" r="18"/><path class="cls-2" d="M783,229.46h-7.71V228H785V229c-3.55,4-4.41,7.08-4.62,12.33h-1.83A18,18,0,0,1,783,229.46Z" transform="translate(-365.75 -69.54)"/><line class="cls-1" x1="350.16" y1="103.46" x2="312.35" y2="149.22"/><line class="cls-1" x1="378.71" y1="103.46" x2="407.35" y2="149.22"/><line class="cls-1" x1="126.75" y1="242.96" x2="129.75" y2="242.96"/><polyline class="cls-1" points="135.75 242.96 138.75 242.96 138.75 239.96"/><line class="cls-3" x1="138.75" y1="234.17" x2="138.75" y2="132.89"/><line class="cls-1" x1="138.75" y1="129.99" x2="138.75" y2="126.99"/><path class="cls-2" d="M504.5,190.5a30.1,30.1,0,0,0,4.76,8.55l-4.76-1.72-4.75,1.72A30.31,30.31,0,0,0,504.5,190.5Z" transform="translate(-365.75 -69.54)"/><polyline class="cls-4" points="174.75 165.96 149.75 165.96 149.75 127"/><path class="cls-2" d="M515.5,190.5a30.1,30.1,0,0,0,4.76,8.55l-4.76-1.72-4.75,1.72A30.31,30.31,0,0,0,515.5,190.5Z" transform="translate(-365.75 -69.54)"/><polyline class="cls-4" points="71.75 242.96 76.75 242.96 76.75 202"/><path class="cls-2" d="M442.5,265.5a30.1,30.1,0,0,0,4.76,8.55l-4.76-1.72-4.75,1.72A30.31,30.31,0,0,0,442.5,265.5Z" transform="translate(-365.75 -69.54)"/><polyline class="cls-4" points="90.75 242.96 83.75 242.96 83.75 202"/><path class="cls-2" d="M449.5,265.5a30.1,30.1,0,0,0,4.76,8.55l-4.76-1.72-4.75,1.72A30.31,30.31,0,0,0,449.5,265.5Z" transform="translate(-365.75 -69.54)"/><polyline class="cls-4" points="35.76 242.96 4.75 242.96 4.75 190"/><path class="cls-2" d="M370.5,253.5a30.1,30.1,0,0,0,4.76,8.55l-4.76-1.72-4.75,1.72A30.31,30.31,0,0,0,370.5,253.5Z" transform="translate(-365.75 -69.54)"/><polyline class="cls-4" points="210.75 165.96 243.75 165.96 243.75 52.99"/><path class="cls-2" d="M609.5,116.5a30.1,30.1,0,0,0,4.76,8.55l-4.76-1.72-4.75,1.72A30.31,30.31,0,0,0,609.5,116.5Z" transform="translate(-365.75 -69.54)"/><polyline class="cls-4" points="287.75 165.96 260.75 165.96 260.75 52.99"/><path class="cls-2" d="M626.5,116.5a30.1,30.1,0,0,0,4.76,8.55l-4.76-1.72-4.75,1.72A30.31,30.31,0,0,0,626.5,116.5Z" transform="translate(-365.75 -69.54)"/><polyline class="cls-4" points="323.75 165.96 356.75 165.96 356.75 127"/><path class="cls-2" d="M722.5,190.5a30.1,30.1,0,0,0,4.76,8.55l-4.76-1.72-4.75,1.72A30.31,30.31,0,0,0,722.5,190.5Z" transform="translate(-365.75 -69.54)"/><polyline class="cls-4" points="396.75 165.96 370.75 165.96 370.75 127"/><path class="cls-2" d="M736.5,190.5a30.1,30.1,0,0,0,4.76,8.55l-4.76-1.72-4.75,1.72A30.31,30.31,0,0,0,736.5,190.5Z" transform="translate(-365.75 -69.54)"/><polyline class="cls-4" points="432.75 165.96 458.75 165.96 458.75 113"/><path class="cls-2" d="M824.5,176.5a30.1,30.1,0,0,0,4.76,8.55l-4.76-1.72-4.75,1.72A30.31,30.31,0,0,0,824.5,176.5Z" transform="translate(-365.75 -69.54)"/></svg>