<svg id="图层_1" data-name="图层 1" xmlns="http://www.w3.org/2000/svg" viewBox="0 0 512.09 187.46"><defs><style>.cls-1{fill:none;stroke:#3ea69f;stroke-miterlimit:10;}.cls-2{fill:#3ea69f;}</style></defs><circle class="cls-1" cx="48.5" cy="91.81" r="18"/><path class="cls-2" d="M325,194.46h-7.71V193H327V194c-3.55,4-4.41,7.08-4.62,12.33h-1.83A18,18,0,0,1,325,194.46Z" transform="translate(-273.59 -108.54)"/><circle class="cls-1" cx="18.5" cy="168.81" r="18"/><path class="cls-2" d="M281.53,281.9h3.86v-9.83h-3v-1.13a9.71,9.71,0,0,0,3.44-1h1.3V281.9h3.49v1.45h-9.09Z" transform="translate(-273.59 -108.54)"/><path class="cls-2" d="M293.58,276.61c0-4.5,1.83-6.91,4.81-6.91s4.81,2.41,4.81,6.91-1.83,7-4.81,7S293.58,281.06,293.58,276.61Zm8,0c0-3.85-1.32-5.5-3.19-5.5s-3.19,1.65-3.19,5.5,1.32,5.58,3.19,5.58S301.58,280.45,301.58,276.61Zm-4.49-.15a1.3,1.3,0,1,1,1.3,1.41A1.31,1.31,0,0,1,297.09,276.46Z" transform="translate(-273.59 -108.54)"/><circle class="cls-1" cx="73.5" cy="168.81" r="18"/><path class="cls-2" d="M342.22,279.92c0-1.84,1.43-2.89,2.87-3.56v-.09a3.75,3.75,0,0,1-2-3.13c0-2.06,1.74-3.44,4.13-3.44,2.63,0,4.16,1.49,4.16,3.57a4.2,4.2,0,0,1-2,3.19v.08c1.47.74,2.63,1.58,2.63,3.49s-1.74,3.57-4.81,3.57S342.22,282,342.22,279.92Zm8.06.05c0-1.85-1.87-2.33-4.2-3.11-1.3.69-2.29,1.55-2.29,2.9s1.33,2.54,3.38,2.54S350.28,281.35,350.28,280Zm-.44-6.62a2.38,2.38,0,0,0-2.69-2.35,2.22,2.22,0,0,0-2.5,2.14c0,1.6,1.54,2.27,3.53,2.9A3.41,3.41,0,0,0,349.84,273.35Z" transform="translate(-273.59 -108.54)"/><circle class="cls-1" cx="107.59" cy="18.5" r="18"/><path class="cls-2" d="M376.41,132c4.54-4,7-6.36,7-8.59,0-1.53-.93-2.6-2.9-2.6a4.58,4.58,0,0,0-3.21,1.6l-1-1a6,6,0,0,1,4.43-2c2.69,0,4.37,1.58,4.37,4s-2.52,5-6.16,8.31c.84-.06,1.7-.1,2.5-.1h4.39V133h-9.43Z" transform="translate(-273.59 -108.54)"/><line class="cls-1" x1="41.44" y1="108.37" x2="24.63" y2="151.88"/><circle class="cls-1" cx="125.91" cy="168.96" r="18"/><path class="cls-2" d="M394.82,277.31c0-5.38,2.68-7.46,5.6-7.46a5.32,5.32,0,0,1,3.74,1.43l-1,1.09a3.93,3.93,0,0,0-2.66-1.07c-2.19,0-4.08,1.53-4.08,6,0,3.29,1.26,5.08,3.49,5.08a2.78,2.78,0,0,0,2.81-2.94,2.55,2.55,0,0,0-2.83-2.84,4.73,4.73,0,0,0-3.51,1.89l-.06-1.36a5.68,5.68,0,0,1,3.88-1.83,3.81,3.81,0,0,1,4.18,4.14,4.32,4.32,0,0,1-4.47,4.3C397,283.75,394.82,281.61,394.82,277.31Z" transform="translate(-273.59 -108.54)"/><line class="cls-1" x1="148.85" y1="108.52" x2="132.04" y2="152.03"/><line class="cls-1" x1="55.73" y1="108.37" x2="67.37" y2="151.88"/><circle class="cls-1" cx="157.5" cy="91.81" r="18"/><path class="cls-2" d="M432.52,197.13c0-.74.06-1.64.1-2.37h-.1c-.44.65-.93,1.3-1.37,2l-3.61,4.54h8.69v1.4H425.61V201.5l6.68-8.55h1.86v13.4h-1.63Z" transform="translate(-273.59 -108.54)"/><line class="cls-1" x1="93.32" y1="29.46" x2="55.5" y2="75.22"/><line class="cls-1" x1="121.86" y1="29.46" x2="150.5" y2="75.22"/><circle class="cls-1" cx="249.5" cy="91.81" r="18"/><path class="cls-2" d="M512,205.32c4.54-4,7-6.36,7-8.59,0-1.53-.93-2.6-2.9-2.6a4.61,4.61,0,0,0-3.21,1.59l-1-1a6,6,0,0,1,4.43-2c2.69,0,4.37,1.57,4.37,4s-2.52,5-6.16,8.31c.84-.06,1.7-.1,2.5-.1h4.39v1.49H512Z" transform="translate(-273.59 -108.54)"/><path class="cls-2" d="M524.58,199.61c0-4.5,1.83-6.91,4.81-6.91s4.81,2.41,4.81,6.91-1.83,7-4.81,7S524.58,204.06,524.58,199.61Zm8,0c0-3.85-1.32-5.5-3.19-5.5s-3.19,1.65-3.19,5.5,1.32,5.58,3.19,5.58S532.58,203.45,532.58,199.61Zm-4.49-.15a1.3,1.3,0,1,1,1.3,1.41A1.31,1.31,0,0,1,528.09,199.46Z" transform="translate(-273.59 -108.54)"/><circle class="cls-1" cx="219.5" cy="168.81" r="18"/><path class="cls-2" d="M481.67,281.77l.86-1.15a5.31,5.31,0,0,0,3.78,1.53,3.11,3.11,0,0,0,3.38-3c0-1.85-1.3-2.92-3.28-2.92a5,5,0,0,0-2.73.8l-.92-.59.44-6.45h7.58v1.51h-6l-.35,4a5.62,5.62,0,0,1,2.47-.55c2.56,0,4.6,1.31,4.6,4.2s-2.39,4.54-4.95,4.54A6.7,6.7,0,0,1,481.67,281.77Z" transform="translate(-273.59 -108.54)"/><path class="cls-2" d="M494.58,276.61c0-4.5,1.83-6.91,4.81-6.91s4.81,2.41,4.81,6.91-1.83,7-4.81,7S494.58,281.06,494.58,276.61Zm8,0c0-3.85-1.32-5.5-3.19-5.5s-3.19,1.65-3.19,5.5,1.32,5.58,3.19,5.58S502.58,280.45,502.58,276.61Zm-4.49-.15a1.3,1.3,0,1,1,1.3,1.41A1.31,1.31,0,0,1,498.09,276.46Z" transform="translate(-273.59 -108.54)"/><circle class="cls-1" cx="308.59" cy="18.5" r="18"/><path class="cls-2" d="M571.62,131.59h3.86v-9.82h-3v-1.14a9.73,9.73,0,0,0,3.44-1h1.3v11.94h3.49V133h-9.09Z" transform="translate(-273.59 -108.54)"/><path class="cls-2" d="M583.67,126.3c0-4.49,1.83-6.91,4.81-6.91s4.81,2.42,4.81,6.91-1.83,7-4.81,7S583.67,130.75,583.67,126.3Zm8,0c0-3.84-1.32-5.5-3.19-5.5s-3.19,1.66-3.19,5.5,1.32,5.59,3.19,5.59S591.67,130.14,591.67,126.3Zm-4.49-.15a1.3,1.3,0,1,1,1.3,1.41A1.3,1.3,0,0,1,587.18,126.15Z" transform="translate(-273.59 -108.54)"/><line class="cls-1" x1="242.44" y1="108.37" x2="225.63" y2="151.88"/><circle class="cls-1" cx="358.5" cy="91.81" r="18"/><path class="cls-2" d="M620.92,202.92c0-1.84,1.43-2.89,2.87-3.57v-.08a3.75,3.75,0,0,1-2-3.13c0-2.06,1.74-3.44,4.13-3.44,2.63,0,4.16,1.49,4.16,3.57a4.2,4.2,0,0,1-2,3.19v.08c1.47.74,2.63,1.58,2.63,3.49s-1.74,3.57-4.81,3.57S620.92,205,620.92,202.92ZM629,203c0-1.85-1.87-2.33-4.2-3.11-1.3.69-2.29,1.55-2.29,2.9s1.33,2.54,3.38,2.54S629,204.35,629,203Zm-.44-6.62a2.39,2.39,0,0,0-2.69-2.35,2.22,2.22,0,0,0-2.5,2.14c0,1.6,1.54,2.27,3.53,2.9A3.41,3.41,0,0,0,628.54,196.35Z" transform="translate(-273.59 -108.54)"/><path class="cls-2" d="M633.29,204.71l.88-1.13a5.41,5.41,0,0,0,3.84,1.57c1.83,0,3.19-.94,3.19-2.44s-1.34-2.66-4.85-2.66v-1.32c3.17,0,4.39-1.1,4.39-2.5s-1.11-2.1-2.73-2.1a5.07,5.07,0,0,0-3.3,1.34l-.92-1.09a6.46,6.46,0,0,1,4.28-1.68c2.52,0,4.43,1.24,4.43,3.4,0,1.62-1.19,2.65-2.85,3.19v.09c1.78.37,3.32,1.55,3.32,3.4,0,2.37-2.19,3.82-4.85,3.82A6.54,6.54,0,0,1,633.29,204.71Z" transform="translate(-273.59 -108.54)"/><line class="cls-1" x1="294.32" y1="29.46" x2="256.5" y2="75.22"/><circle class="cls-1" cx="434.5" cy="91.81" r="18"/><path class="cls-2" d="M697,205.32c4.54-4,7-6.36,7-8.59,0-1.53-.93-2.6-2.9-2.6a4.61,4.61,0,0,0-3.21,1.59l-1-1a6,6,0,0,1,4.43-2c2.69,0,4.37,1.57,4.37,4s-2.52,5-6.16,8.31c.84-.06,1.7-.1,2.5-.1h4.39v1.49H697Z" transform="translate(-273.59 -108.54)"/><path class="cls-2" d="M710.13,204.9H714v-9.83h-3v-1.13a9.71,9.71,0,0,0,3.44-1h1.3v12h3.49v1.45h-9.09Z" transform="translate(-273.59 -108.54)"/><circle class="cls-1" cx="493.59" cy="18.5" r="18"/><path class="cls-2" d="M756.62,131.59h3.86v-9.82h-3v-1.14a9.73,9.73,0,0,0,3.44-1h1.3v11.94h3.49V133h-9.09Z" transform="translate(-273.59 -108.54)"/><path class="cls-2" d="M769.22,131.59h3.86v-9.82h-3v-1.14a9.73,9.73,0,0,0,3.44-1h1.3v11.94h3.49V133h-9.09Z" transform="translate(-273.59 -108.54)"/><line class="cls-1" x1="479.32" y1="29.46" x2="441.5" y2="75.22"/><line class="cls-1" x1="322.86" y1="29.46" x2="351.5" y2="75.22"/></svg>