<svg id="图层_1" data-name="图层 1" xmlns="http://www.w3.org/2000/svg" viewBox="0 0 737 573"><defs><style>.cls-1{fill:none;stroke:#3ea69f;stroke-miterlimit:10;}.cls-2{fill:#3ea69f;}</style></defs><circle class="cls-1" cx="18.5" cy="18.5" r="18"/><path class="cls-2" d="M283.69,115.76c0-4.49,1.83-6.91,4.81-6.91s4.81,2.42,4.81,6.91-1.83,7-4.81,7S283.69,120.21,283.69,115.76Zm8,0c0-3.84-1.32-5.5-3.19-5.5s-3.19,1.66-3.19,5.5,1.32,5.59,3.19,5.59S291.69,119.6,291.69,115.76Zm-4.49-.15a1.3,1.3,0,1,1,1.3,1.41A1.3,1.3,0,0,1,287.2,115.61Z" transform="translate(-270 -98)"/><circle class="cls-1" cx="118.5" cy="18.5" r="18"/><path class="cls-2" d="M384.24,121.05h3.86v-9.82h-3v-1.14a9.5,9.5,0,0,0,3.44-1h1.3v12h3.49v1.45h-9.09Z" transform="translate(-270 -98)"/><circle class="cls-1" cx="45.5" cy="101.5" r="18"/><path class="cls-2" d="M310.69,198.76c0-4.49,1.83-6.91,4.81-6.91s4.81,2.42,4.81,6.91-1.83,7-4.81,7S310.69,203.21,310.69,198.76Zm8,0c0-3.84-1.32-5.5-3.19-5.5s-3.19,1.66-3.19,5.5,1.32,5.59,3.19,5.59S318.69,202.6,318.69,198.76Zm-4.49-.15a1.3,1.3,0,1,1,1.3,1.41A1.3,1.3,0,0,1,314.2,198.61Z" transform="translate(-270 -98)"/><circle class="cls-1" cx="91.5" cy="157.5" r="18"/><path class="cls-2" d="M357.24,260.05h3.86v-9.82h-3v-1.14a9.5,9.5,0,0,0,3.44-1h1.3v12h3.49v1.45h-9.09Z" transform="translate(-270 -98)"/><circle class="cls-1" cx="218.5" cy="18.5" r="18"/><path class="cls-2" d="M483.73,121.47c4.54-4,7-6.36,7-8.59,0-1.53-.93-2.6-2.9-2.6a4.58,4.58,0,0,0-3.21,1.6l-1-1a6,6,0,0,1,4.43-2c2.69,0,4.37,1.58,4.37,4,0,2.52-2.52,5-6.16,8.31.84-.06,1.7-.1,2.5-.1h4.39v1.49h-9.43Z" transform="translate(-270 -98)"/><circle class="cls-1" cx="318.5" cy="18.5" r="18"/><path class="cls-2" d="M583.4,120.86l.88-1.13a5.41,5.41,0,0,0,3.84,1.57c1.83,0,3.19-.94,3.19-2.43s-1.34-2.67-4.85-2.67v-1.32c3.17,0,4.39-1.09,4.39-2.5s-1.11-2.1-2.73-2.1a5.12,5.12,0,0,0-3.3,1.34l-.92-1.09a6.51,6.51,0,0,1,4.28-1.68c2.52,0,4.43,1.24,4.43,3.4,0,1.62-1.19,2.65-2.85,3.2v.08c1.78.38,3.32,1.55,3.32,3.4,0,2.37-2.19,3.82-4.85,3.82A6.54,6.54,0,0,1,583.4,120.86Z" transform="translate(-270 -98)"/><circle class="cls-1" cx="418.5" cy="18.5" r="18"/><path class="cls-2" d="M689.93,113.28c0-.73.06-1.63.1-2.37h-.1c-.44.65-.93,1.3-1.37,2L685,117.4h8.69v1.4H683v-1.15l6.68-8.55h1.86v13.4h-1.63Z" transform="translate(-270 -98)"/><circle class="cls-1" cx="518.5" cy="18.5" r="18"/><path class="cls-2" d="M783.38,120.93l.86-1.16A5.31,5.31,0,0,0,788,121.3a3.11,3.11,0,0,0,3.38-3c0-1.85-1.31-2.92-3.28-2.92a5,5,0,0,0-2.73.8l-.92-.59.44-6.45h7.58v1.52h-6l-.36,3.94a5.84,5.84,0,0,1,2.48-.54c2.56,0,4.6,1.3,4.6,4.2s-2.39,4.53-4.95,4.53A6.72,6.72,0,0,1,783.38,120.93Z" transform="translate(-270 -98)"/><circle class="cls-1" cx="618.5" cy="18.5" r="18"/><path class="cls-2" d="M883.82,116.31c0-5.38,2.68-7.46,5.6-7.46a5.32,5.32,0,0,1,3.74,1.43l-1,1.09a3.93,3.93,0,0,0-2.66-1.07c-2.19,0-4.07,1.53-4.07,6,0,3.29,1.25,5.08,3.48,5.08a2.78,2.78,0,0,0,2.81-2.94,2.55,2.55,0,0,0-2.83-2.84,4.73,4.73,0,0,0-3.51,1.89l-.06-1.36a5.68,5.68,0,0,1,3.88-1.83,3.81,3.81,0,0,1,4.18,4.14,4.32,4.32,0,0,1-4.47,4.3C886,122.75,883.82,120.61,883.82,116.31Z" transform="translate(-270 -98)"/><circle class="cls-1" cx="718.5" cy="18.5" r="18"/><path class="cls-2" d="M991.38,110.62h-7.71V109.1h9.7v1.08c-3.55,4-4.41,7.07-4.62,12.32h-1.83A17.9,17.9,0,0,1,991.38,110.62Z" transform="translate(-270 -98)"/><line class="cls-1" x1="79.83" y1="143.8" x2="63.77" y2="123.71"/><path class="cls-2" d="M330,217a30.07,30.07,0,0,0,9.05,3.7l-4.79,1.63-2.63,4.31A30.35,30.35,0,0,0,330,217Z" transform="translate(-270 -98)"/><circle class="cls-1" cx="137.5" cy="220.5" r="18"/><path class="cls-2" d="M402.69,317.76c0-4.49,1.83-6.91,4.81-6.91s4.81,2.42,4.81,6.91-1.83,7-4.81,7S402.69,322.21,402.69,317.76Zm8,0c0-3.84-1.32-5.5-3.19-5.5s-3.19,1.66-3.19,5.5,1.32,5.59,3.19,5.59S410.69,321.6,410.69,317.76Zm-4.49-.15a1.3,1.3,0,1,1,1.3,1.41A1.3,1.3,0,0,1,406.2,317.61Z" transform="translate(-270 -98)"/><circle class="cls-1" cx="183.5" cy="276.5" r="18"/><path class="cls-2" d="M448.73,379.47c4.54-4,7-6.36,7-8.59,0-1.53-.93-2.6-2.9-2.6a4.58,4.58,0,0,0-3.21,1.6l-1-1a6,6,0,0,1,4.43-2c2.69,0,4.37,1.58,4.37,3.95s-2.52,5-6.16,8.31c.84-.06,1.7-.1,2.5-.1h4.39v1.49h-9.43Z" transform="translate(-270 -98)"/><circle class="cls-1" cx="89.5" cy="276.5" r="18"/><path class="cls-2" d="M355.24,379.05h3.86v-9.82h-3v-1.14a9.5,9.5,0,0,0,3.44-1h1.3v11.95h3.49v1.45h-9.09Z" transform="translate(-270 -98)"/><line class="cls-1" x1="171.83" y1="262.8" x2="155.77" y2="242.71"/><path class="cls-2" d="M422,336a30.07,30.07,0,0,0,9.05,3.7l-4.79,1.63-2.63,4.31A30.35,30.35,0,0,0,422,336Z" transform="translate(-270 -98)"/><circle class="cls-1" cx="227.5" cy="333.5" r="18"/><path class="cls-2" d="M492.4,435.86l.88-1.13a5.41,5.41,0,0,0,3.84,1.57c1.83,0,3.19-.94,3.19-2.43s-1.34-2.67-4.85-2.67v-1.32c3.17,0,4.39-1.09,4.39-2.5s-1.11-2.1-2.73-2.1a5.12,5.12,0,0,0-3.3,1.34l-.92-1.09a6.51,6.51,0,0,1,4.28-1.68c2.52,0,4.43,1.24,4.43,3.4,0,1.62-1.19,2.65-2.85,3.2v.08c1.78.38,3.32,1.55,3.32,3.4,0,2.37-2.19,3.82-4.85,3.82A6.54,6.54,0,0,1,492.4,435.86Z" transform="translate(-270 -98)"/><line class="cls-1" x1="215.83" y1="319.8" x2="199.77" y2="299.71"/><path class="cls-2" d="M466,393a30.07,30.07,0,0,0,9.05,3.7l-4.79,1.63-2.63,4.31A30.35,30.35,0,0,0,466,393Z" transform="translate(-270 -98)"/><circle class="cls-1" cx="245.5" cy="101.5" r="18"/><path class="cls-2" d="M510.73,204.47c4.54-4,7-6.36,7-8.59,0-1.53-.93-2.6-2.9-2.6a4.58,4.58,0,0,0-3.21,1.6l-1-1a6,6,0,0,1,4.43-2c2.69,0,4.37,1.58,4.37,4s-2.52,5-6.16,8.31c.84-.06,1.7-.1,2.5-.1h4.39v1.49h-9.43Z" transform="translate(-270 -98)"/><circle class="cls-1" cx="291.5" cy="157.5" r="18"/><path class="cls-2" d="M556.4,259.86l.88-1.13a5.41,5.41,0,0,0,3.84,1.57c1.83,0,3.19-.94,3.19-2.43s-1.34-2.67-4.85-2.67v-1.32c3.17,0,4.39-1.09,4.39-2.5s-1.11-2.1-2.73-2.1a5.12,5.12,0,0,0-3.3,1.34l-.92-1.09a6.51,6.51,0,0,1,4.28-1.68c2.52,0,4.43,1.24,4.43,3.4,0,1.62-1.19,2.65-2.85,3.2v.08c1.78.38,3.32,1.55,3.32,3.4,0,2.37-2.19,3.82-4.85,3.82A6.54,6.54,0,0,1,556.4,259.86Z" transform="translate(-270 -98)"/><line class="cls-1" x1="279.83" y1="143.8" x2="263.77" y2="123.71"/><path class="cls-2" d="M530,217a30.07,30.07,0,0,0,9,3.7l-4.79,1.63-2.63,4.31A30.35,30.35,0,0,0,530,217Z" transform="translate(-270 -98)"/><circle class="cls-1" cx="448.5" cy="101.5" r="18"/><path class="cls-2" d="M719.93,196.28c0-.73.06-1.63.1-2.37h-.1c-.44.65-.93,1.3-1.37,2L715,200.4h8.69v1.4H713v-1.15l6.68-8.55h1.86v13.4h-1.63Z" transform="translate(-270 -98)"/><circle class="cls-1" cx="494.5" cy="157.5" r="18"/><path class="cls-2" d="M759.38,259.93l.86-1.16A5.31,5.31,0,0,0,764,260.3a3.11,3.11,0,0,0,3.38-3c0-1.85-1.31-2.92-3.28-2.92a5,5,0,0,0-2.73.8l-.92-.59.44-6.45h7.58v1.52h-6l-.36,3.94a5.84,5.84,0,0,1,2.48-.54c2.56,0,4.6,1.3,4.6,4.2s-2.39,4.53-4.95,4.53A6.72,6.72,0,0,1,759.38,259.93Z" transform="translate(-270 -98)"/><line class="cls-1" x1="482.83" y1="143.8" x2="466.77" y2="123.71"/><path class="cls-2" d="M733,217a30.07,30.07,0,0,0,9,3.7l-4.79,1.63-2.63,4.31A30.35,30.35,0,0,0,733,217Z" transform="translate(-270 -98)"/><circle class="cls-1" cx="641.5" cy="101.5" r="18"/><path class="cls-2" d="M906.82,199.31c0-5.38,2.68-7.46,5.6-7.46a5.32,5.32,0,0,1,3.74,1.43l-1,1.09a3.93,3.93,0,0,0-2.66-1.07c-2.19,0-4.07,1.53-4.07,6,0,3.29,1.25,5.08,3.48,5.08a2.78,2.78,0,0,0,2.81-2.94,2.55,2.55,0,0,0-2.83-2.84,4.73,4.73,0,0,0-3.51,1.89l-.06-1.36a5.68,5.68,0,0,1,3.88-1.83,3.81,3.81,0,0,1,4.18,4.14,4.32,4.32,0,0,1-4.47,4.3C909,205.75,906.82,203.61,906.82,199.31Z" transform="translate(-270 -98)"/><circle class="cls-1" cx="687.5" cy="157.5" r="18"/><path class="cls-2" d="M960.38,249.62h-7.71V248.1h9.7v1.08c-3.55,4-4.41,7.07-4.62,12.32h-1.83A17.9,17.9,0,0,1,960.38,249.62Z" transform="translate(-270 -98)"/><line class="cls-1" x1="675.83" y1="143.8" x2="659.77" y2="123.71"/><path class="cls-2" d="M926,217a30.07,30.07,0,0,0,9,3.7l-4.79,1.63-2.63,4.31A30.35,30.35,0,0,0,926,217Z" transform="translate(-270 -98)"/><line class="cls-1" x1="102" y1="263" x2="118.23" y2="242.71"/><path class="cls-2" d="M392,336a30.36,30.36,0,0,0-1.63,9.65l-2.63-4.32L383,339.7A30.07,30.07,0,0,0,392,336Z" transform="translate(-270 -98)"/><circle class="cls-1" cx="326.5" cy="384.5" r="18"/><path class="cls-2" d="M591.69,481.76c0-4.49,1.83-6.91,4.81-6.91s4.81,2.42,4.81,6.91-1.83,7-4.81,7S591.69,486.21,591.69,481.76Zm8,0c0-3.84-1.32-5.5-3.19-5.5s-3.19,1.66-3.19,5.5,1.32,5.59,3.19,5.59S599.69,485.6,599.69,481.76Zm-4.49-.15a1.3,1.3,0,1,1,1.3,1.41A1.3,1.3,0,0,1,595.2,481.61Z" transform="translate(-270 -98)"/><circle class="cls-1" cx="372.5" cy="440.5" r="18"/><path class="cls-2" d="M637.73,543.47c4.54-4,7-6.36,7-8.59,0-1.53-.93-2.6-2.9-2.6a4.58,4.58,0,0,0-3.21,1.6l-1-1a6,6,0,0,1,4.43-2c2.69,0,4.37,1.58,4.37,3.95,0,2.52-2.52,5-6.16,8.31.84-.06,1.7-.1,2.5-.1h4.39v1.49h-9.43Z" transform="translate(-270 -98)"/><circle class="cls-1" cx="278.5" cy="440.5" r="18"/><path class="cls-2" d="M544.24,543.05h3.86v-9.83h-3v-1.13a9.5,9.5,0,0,0,3.44-1h1.3v11.95h3.49v1.45h-9.09Z" transform="translate(-270 -98)"/><line class="cls-1" x1="360.83" y1="426.8" x2="344.77" y2="406.71"/><path class="cls-2" d="M611,500a30.07,30.07,0,0,0,9,3.7l-4.79,1.63-2.63,4.31A30.35,30.35,0,0,0,611,500Z" transform="translate(-270 -98)"/><circle class="cls-1" cx="416.5" cy="497.5" r="18"/><path class="cls-2" d="M681.4,599.86l.88-1.13a5.41,5.41,0,0,0,3.84,1.57c1.83,0,3.19-.94,3.19-2.43s-1.34-2.67-4.85-2.67v-1.32c3.17,0,4.39-1.09,4.39-2.5s-1.11-2.1-2.73-2.1a5.12,5.12,0,0,0-3.3,1.34l-.92-1.09a6.51,6.51,0,0,1,4.28-1.68c2.52,0,4.43,1.24,4.43,3.4,0,1.62-1.19,2.65-2.85,3.2v.08c1.78.38,3.32,1.55,3.32,3.4,0,2.37-2.19,3.82-4.85,3.82A6.54,6.54,0,0,1,681.4,599.86Z" transform="translate(-270 -98)"/><line class="cls-1" x1="404.83" y1="483.8" x2="388.77" y2="463.71"/><path class="cls-2" d="M655,557a30.07,30.07,0,0,0,9,3.7l-4.79,1.63-2.63,4.31A30.35,30.35,0,0,0,655,557Z" transform="translate(-270 -98)"/><line class="cls-1" x1="291" y1="427" x2="307.23" y2="406.71"/><path class="cls-2" d="M581,500a30.36,30.36,0,0,0-1.63,9.65l-2.63-4.32L572,503.7A30.07,30.07,0,0,0,581,500Z" transform="translate(-270 -98)"/><circle class="cls-1" cx="542.5" cy="220.5" r="18"/><path class="cls-2" d="M813.93,315.28c0-.73.06-1.63.1-2.37h-.1c-.44.65-.93,1.3-1.37,1.95L809,319.4h8.69v1.4H807v-1.15l6.68-8.55h1.86v13.4h-1.63Z" transform="translate(-270 -98)"/><circle class="cls-1" cx="588.5" cy="276.5" r="18"/><path class="cls-2" d="M853.82,374.31c0-5.38,2.68-7.46,5.6-7.46a5.32,5.32,0,0,1,3.74,1.43l-1,1.09a3.93,3.93,0,0,0-2.66-1.07c-2.19,0-4.07,1.53-4.07,6,0,3.29,1.25,5.08,3.48,5.08a2.78,2.78,0,0,0,2.81-2.94,2.55,2.55,0,0,0-2.83-2.84,4.73,4.73,0,0,0-3.51,1.89l-.06-1.36a5.68,5.68,0,0,1,3.88-1.83,3.81,3.81,0,0,1,4.18,4.14,4.32,4.32,0,0,1-4.47,4.3C856,380.75,853.82,378.61,853.82,374.31Z" transform="translate(-270 -98)"/><circle class="cls-1" cx="494.5" cy="276.5" r="18"/><path class="cls-2" d="M759.38,378.93l.86-1.16A5.31,5.31,0,0,0,764,379.3a3.11,3.11,0,0,0,3.38-3c0-1.85-1.31-2.92-3.28-2.92a5,5,0,0,0-2.73.8l-.92-.59.44-6.45h7.58v1.52h-6l-.36,3.94a5.84,5.84,0,0,1,2.48-.54c2.56,0,4.6,1.3,4.6,4.2s-2.39,4.53-4.95,4.53A6.72,6.72,0,0,1,759.38,378.93Z" transform="translate(-270 -98)"/><line class="cls-1" x1="576.83" y1="262.8" x2="560.77" y2="242.71"/><path class="cls-2" d="M827,336a30.07,30.07,0,0,0,9,3.7l-4.79,1.63-2.63,4.31A30.35,30.35,0,0,0,827,336Z" transform="translate(-270 -98)"/><circle class="cls-1" cx="632.5" cy="333.5" r="18"/><path class="cls-2" d="M905.38,425.62h-7.71V424.1h9.7v1.08c-3.55,4.05-4.41,7.07-4.62,12.32h-1.83A17.9,17.9,0,0,1,905.38,425.62Z" transform="translate(-270 -98)"/><line class="cls-1" x1="620.83" y1="319.8" x2="604.77" y2="299.71"/><path class="cls-2" d="M871,393a30.07,30.07,0,0,0,9,3.7l-4.79,1.63-2.63,4.31A30.35,30.35,0,0,0,871,393Z" transform="translate(-270 -98)"/><line class="cls-1" x1="507" y1="263" x2="523.23" y2="242.71"/><path class="cls-2" d="M797,336a30.36,30.36,0,0,0-1.63,9.65l-2.63-4.32L788,339.7A30.07,30.07,0,0,0,797,336Z" transform="translate(-270 -98)"/><circle class="cls-1" cx="528.5" cy="441.5" r="18"/><path class="cls-2" d="M799.93,536.28c0-.73.06-1.64.1-2.37h-.1c-.44.65-.93,1.3-1.37,2L795,540.4h8.69v1.4H793v-1.15l6.68-8.55h1.86v13.4h-1.63Z" transform="translate(-270 -98)"/><circle class="cls-1" cx="574.5" cy="497.5" r="18"/><path class="cls-2" d="M839.82,595.31c0-5.38,2.68-7.46,5.6-7.46a5.32,5.32,0,0,1,3.74,1.43l-1,1.09a3.93,3.93,0,0,0-2.66-1.07c-2.19,0-4.07,1.53-4.07,6,0,3.29,1.25,5.08,3.48,5.08a2.78,2.78,0,0,0,2.81-2.94,2.55,2.55,0,0,0-2.83-2.84,4.73,4.73,0,0,0-3.51,1.89l-.06-1.36a5.68,5.68,0,0,1,3.88-1.83,3.81,3.81,0,0,1,4.18,4.14,4.32,4.32,0,0,1-4.47,4.3C842,601.75,839.82,599.61,839.82,595.31Z" transform="translate(-270 -98)"/><circle class="cls-1" cx="480.5" cy="497.5" r="18"/><path class="cls-2" d="M745.38,599.93l.86-1.16A5.31,5.31,0,0,0,750,600.3a3.11,3.11,0,0,0,3.38-3c0-1.85-1.31-2.92-3.28-2.92a5,5,0,0,0-2.73.8l-.92-.59.44-6.45h7.58v1.52h-6l-.36,3.94a5.84,5.84,0,0,1,2.48-.54c2.56,0,4.6,1.3,4.6,4.2s-2.39,4.53-4.95,4.53A6.72,6.72,0,0,1,745.38,599.93Z" transform="translate(-270 -98)"/><line class="cls-1" x1="562.83" y1="483.8" x2="546.77" y2="463.71"/><path class="cls-2" d="M813,557a30.07,30.07,0,0,0,9,3.7l-4.79,1.63-2.63,4.31A30.35,30.35,0,0,0,813,557Z" transform="translate(-270 -98)"/><circle class="cls-1" cx="618.5" cy="554.5" r="18"/><path class="cls-2" d="M891.38,646.62h-7.71V645.1h9.7v1.08c-3.55,4.05-4.41,7.07-4.62,12.32h-1.83A17.9,17.9,0,0,1,891.38,646.62Z" transform="translate(-270 -98)"/><line class="cls-1" x1="606.83" y1="540.8" x2="590.77" y2="520.71"/><path class="cls-2" d="M857,614a30.07,30.07,0,0,0,9,3.7l-4.79,1.63-2.63,4.31A30.35,30.35,0,0,0,857,614Z" transform="translate(-270 -98)"/><line class="cls-1" x1="493" y1="484" x2="509.23" y2="463.71"/><path class="cls-2" d="M783,557a30.36,30.36,0,0,0-1.63,9.65l-2.63-4.32L774,560.7A30.07,30.07,0,0,0,783,557Z" transform="translate(-270 -98)"/><line class="cls-1" x1="513" y1="432.35" x2="356.85" y2="392.49"/><path class="cls-2" d="M621,489a30.44,30.44,0,0,0,9.46-2.49l-2.84,4.18.49,5A30.39,30.39,0,0,0,621,489Z" transform="translate(-270 -98)"/></svg>