<svg id="图层_1" data-name="图层 1" xmlns="http://www.w3.org/2000/svg" viewBox="0 0 307 390"><defs><style>.cls-1{fill:none;stroke:#3ea69f;stroke-miterlimit:10;}.cls-2{fill:#3ea69f;}</style></defs><circle class="cls-1" cx="195.5" cy="18.5" r="18"/><path class="cls-2" d="M621.49,15.73h2l4.64,13.77h-1.89l-2.38-7.68c-.48-1.54-.94-3.05-1.36-4.64h-.08c-.44,1.59-.89,3.1-1.37,4.64l-2.41,7.68h-1.81Zm-2.18,8.16h6.32v1.43h-6.32Z" transform="translate(-427 -5)"/><circle class="cls-1" cx="218.59" cy="125.19" r="18"/><path class="cls-2" d="M640.66,129.31c0-4.43,2.58-7.14,6.17-7.14a5.17,5.17,0,0,1,3.78,1.68l-1,1.11a3.68,3.68,0,0,0-2.77-1.24c-2.63,0-4.35,2.12-4.35,5.54s1.72,5.63,4.35,5.63a3.94,3.94,0,0,0,3.08-1.51l1,1.07a5.32,5.32,0,0,1-4.26,2C643.26,136.45,640.66,133.8,640.66,129.31Z" transform="translate(-427 -5)"/><circle class="cls-1" cx="180.5" cy="187.5" r="18"/><path class="cls-2" d="M602.31,191.61c0-4.45,2.54-7.14,6.11-7.14a5.08,5.08,0,0,1,3.8,1.68l-1,1.12a3.54,3.54,0,0,0-2.79-1.24c-2.58,0-4.26,2.12-4.26,5.54s1.53,5.63,4.22,5.63a3.44,3.44,0,0,0,2.37-.8v-3.59H608v-1.45h4.37v5.8a5.79,5.79,0,0,1-4.11,1.59C604.81,198.75,602.31,196.11,602.31,191.61Z" transform="translate(-427 -5)"/><circle class="cls-1" cx="219.5" cy="251.5" r="18"/><path class="cls-2" d="M641.86,248.73h1.78v5.75h5.71v-5.75h1.79V262.5h-1.79V256h-5.71v6.47h-1.78Z" transform="translate(-427 -5)"/><circle class="cls-1" cx="182.5" cy="315.5" r="18"/><path class="cls-2" d="M604.71,312.73h2.14l1.94,5.88.67,2.22h.08l.65-2.22,1.95-5.88h2.15V326.5h-1.68v-6.89c0-1.34.21-3.69.29-4.87h-.06l-.78,2.69-2,5.42h-1.26l-1.93-5.42-.8-2.69h0c.12,1.18.29,3.53.29,4.87v6.89h-1.64Z" transform="translate(-427 -5)"/><circle class="cls-1" cx="58.5" cy="249.5" r="18"/><path class="cls-2" d="M482,246.73h1.75V259h6.8v1.49H482Z" transform="translate(-427 -5)"/><circle class="cls-1" cx="18.5" cy="187.5" r="18"/><path class="cls-2" d="M441.24,184.73H443v6.88h.06l5.78-6.88h2L443,194.11v4.39h-1.78Zm3.9,6.09,1.07-1.39,5.17,9.07h-2Z" transform="translate(-427 -5)"/><circle class="cls-1" cx="254.5" cy="315.5" r="18"/><path class="cls-2" d="M677.19,325h3.43V314.22h-3.43v-1.49h8.61v1.49h-3.42V325h3.42v1.49h-8.61Z" transform="translate(-427 -5)"/><circle class="cls-1" cx="288.5" cy="371.5" r="18"/><path class="cls-2" d="M710.88,380.46l1.11-1.07a3.59,3.59,0,0,0,3,1.81c2,0,2.84-1,2.84-3.26V370.2H712v-1.49h7.53v9.38c0,2.56-1.15,4.66-4.57,4.66A4.77,4.77,0,0,1,710.88,380.46Z" transform="translate(-427 -5)"/><circle class="cls-1" cx="97.5" cy="187.5" r="18"/><path class="cls-2" d="M521,184.73h8.46v1.49h-6.69v4.64h5.67v1.49h-5.67v6.15H521Z" transform="translate(-427 -5)"/><circle class="cls-1" cx="58.5" cy="125.5" r="18"/><path class="cls-2" d="M481.59,122.73h8.53v1.49h-6.76v4.3h5.71V130h-5.71v5h7v1.49h-8.74Z" transform="translate(-427 -5)"/><circle class="cls-1" cx="252.5" cy="187.5" r="18"/><path class="cls-2" d="M675,184.73h3.4c4.13,0,6.38,2.45,6.38,6.82s-2.25,6.95-6.3,6.95H675Zm3.27,12.32c3.13,0,4.68-2,4.68-5.5s-1.55-5.37-4.68-5.37h-1.51v10.87Z" transform="translate(-427 -5)"/><circle class="cls-1" cx="140.59" cy="74.19" r="18"/><path class="cls-2" d="M563.37,71.42h3.9c2.82,0,4.73.94,4.73,3.36a3,3,0,0,1-2.42,3v.09c2,.31,3.2,1.4,3.2,3.29,0,2.71-2.1,4-5.19,4h-4.22ZM567,77.21c2.35,0,3.3-.75,3.3-2.28s-1.09-2-3.22-2h-1.95v4.32Zm.36,6.51c2.35,0,3.71-.77,3.71-2.64,0-1.7-1.3-2.4-3.71-2.4h-2.23v5Z" transform="translate(-427 -5)"/><line class="cls-1" x1="183" y1="32" x2="152.09" y2="60.69"/><line class="cls-1" x1="126.57" y1="85.48" x2="71.88" y2="113.46"/><line class="cls-1" x1="154.61" y1="85.48" x2="204.95" y2="113.46"/><line class="cls-1" x1="46.58" y1="138.98" x2="26.7" y2="171.48"/><line class="cls-1" x1="70.42" y1="138.98" x2="89.3" y2="171.48"/><line class="cls-1" x1="26.7" y1="205.5" x2="46.58" y2="236.02"/><line class="cls-1" x1="207.02" y1="138.98" x2="188.7" y2="171.48"/><line class="cls-1" x1="230.16" y1="138.98" x2="244.3" y2="171.48"/><line class="cls-1" x1="244.3" y1="203.52" x2="230.16" y2="237"/><line class="cls-1" x1="211.26" y1="267.5" x2="189" y2="299"/><line class="cls-1" x1="229" y1="267" x2="247" y2="299"/><line class="cls-1" x1="262.7" y1="331.52" x2="277.15" y2="357.53"/></svg>