<svg id="图层_1" data-name="图层 1" xmlns="http://www.w3.org/2000/svg" viewBox="0 0 646 138.05"><defs><style>.cls-1{fill:none;stroke:#3ea69f;stroke-miterlimit:10;}.cls-2{fill:#3ea69f;}</style></defs><rect class="cls-1" x="0.5" y="17.55" width="43" height="43"/><path class="cls-2" d="M251.94,180.52h2l4.64,13.77H256.7l-2.37-7.68c-.48-1.54-1-3.05-1.37-4.64h-.08c-.44,1.59-.88,3.1-1.36,4.64l-2.42,7.68h-1.8Zm-2.19,8.16h6.32v1.43h-6.32Z" transform="translate(-231 -148.95)"/><path class="cls-2" d="M243.6,149h3.88v.66h-3v10.73h3V161H243.6Z" transform="translate(-231 -148.95)"/><path class="cls-2" d="M250.2,157.9h2.58v-6.56h-2v-.75a6.34,6.34,0,0,0,2.29-.66h.87v8h2.33v1H250.2Z" transform="translate(-231 -148.95)"/><path class="cls-2" d="M258.62,160.34h2.95V149.61h-2.95V149h3.88V161h-3.88Z" transform="translate(-231 -148.95)"/><rect class="cls-1" x="43.5" y="17.55" width="43" height="43"/><path class="cls-2" d="M291.72,180.52h3.91c2.81,0,4.72.94,4.72,3.36a3,3,0,0,1-2.41,3V187c2,.32,3.19,1.41,3.19,3.3,0,2.71-2.1,4-5.19,4h-4.22Zm3.61,5.79c2.36,0,3.3-.75,3.3-2.29s-1.09-2-3.21-2h-1.95v4.32Zm.36,6.51c2.35,0,3.72-.78,3.72-2.64s-1.3-2.4-3.72-2.4h-2.22v5Z" transform="translate(-231 -148.95)"/><path class="cls-2" d="M286.6,149h3.88v.66h-3v10.73h3V161H286.6Z" transform="translate(-231 -148.95)"/><path class="cls-2" d="M292.87,158.18c3-2.68,4.67-4.24,4.67-5.73,0-1-.61-1.74-1.93-1.74a3.06,3.06,0,0,0-2.14,1.07l-.67-.66a4,4,0,0,1,2.95-1.36,2.61,2.61,0,0,1,2.92,2.63c0,1.69-1.69,3.35-4.11,5.55.56,0,1.14-.07,1.67-.07h2.93v1h-6.29Z" transform="translate(-231 -148.95)"/><path class="cls-2" d="M301.62,160.34h2.95V149.61h-2.95V149h3.88V161h-3.88Z" transform="translate(-231 -148.95)"/><rect class="cls-1" x="86.5" y="17.55" width="43" height="43"/><path class="cls-2" d="M334.43,186.71h9V188h-9Z" transform="translate(-231 -148.95)"/><path class="cls-2" d="M329.6,149h3.88v.66h-3v10.73h3V161H329.6Z" transform="translate(-231 -148.95)"/><path class="cls-2" d="M335.64,157.77l.59-.75a3.61,3.61,0,0,0,2.56,1c1.22,0,2.13-.63,2.13-1.63s-.89-1.78-3.23-1.78v-.88c2.11,0,2.92-.73,2.92-1.67s-.74-1.4-1.82-1.4a3.38,3.38,0,0,0-2.2.9l-.61-.73a4.35,4.35,0,0,1,2.86-1.12c1.68,0,3,.83,3,2.27,0,1.08-.8,1.76-1.9,2.13v.06a2.45,2.45,0,0,1,2.21,2.26c0,1.59-1.46,2.55-3.24,2.55A4.37,4.37,0,0,1,335.64,157.77Z" transform="translate(-231 -148.95)"/><path class="cls-2" d="M344.62,160.34h2.95V149.61h-2.95V149h3.88V161h-3.88Z" transform="translate(-231 -148.95)"/><rect class="cls-1" x="129.5" y="17.55" width="43" height="43"/><path class="cls-2" d="M377,187.4c0-4.43,2.58-7.13,6.17-7.13a5.16,5.16,0,0,1,3.78,1.67l-1,1.12a3.66,3.66,0,0,0-2.77-1.24c-2.62,0-4.34,2.12-4.34,5.54s1.72,5.63,4.34,5.63a4,4,0,0,0,3.09-1.51l1,1.07a5.33,5.33,0,0,1-4.27,2C379.61,194.54,377,191.9,377,187.4Z" transform="translate(-231 -148.95)"/><path class="cls-2" d="M372.6,149h3.88v.66h-3v10.73h3V161H372.6Z" transform="translate(-231 -148.95)"/><path class="cls-2" d="M383,152.72c0-.49,0-1.1.07-1.59H383c-.3.44-.62.87-.91,1.31l-2.41,3h5.8v.94h-7.09v-.77l4.45-5.7h1.25v8.94H383Z" transform="translate(-231 -148.95)"/><path class="cls-2" d="M387.62,160.34h2.95V149.61h-2.95V149h3.88V161h-3.88Z" transform="translate(-231 -148.95)"/><rect class="cls-1" x="172.5" y="17.55" width="43" height="43"/><path class="cls-2" d="M420.43,186.71h9V188h-9Z" transform="translate(-231 -148.95)"/><path class="cls-2" d="M415.6,149h3.88v.66h-3v10.73h3V161H415.6Z" transform="translate(-231 -148.95)"/><path class="cls-2" d="M421.63,157.81l.57-.77a3.52,3.52,0,0,0,2.52,1,2.08,2.08,0,0,0,2.26-2,1.93,1.93,0,0,0-2.19-1.95,3.33,3.33,0,0,0-1.82.53l-.61-.39.29-4.3h5.06v1h-4l-.24,2.63a3.94,3.94,0,0,1,1.66-.36c1.71,0,3.07.87,3.07,2.8a3.08,3.08,0,0,1-3.31,3A4.45,4.45,0,0,1,421.63,157.81Z" transform="translate(-231 -148.95)"/><path class="cls-2" d="M430.62,160.34h2.95V149.61h-2.95V149h3.88V161h-3.88Z" transform="translate(-231 -148.95)"/><rect class="cls-1" x="215.5" y="17.55" width="43" height="43"/><path class="cls-2" d="M463.43,186.71h9V188h-9Z" transform="translate(-231 -148.95)"/><path class="cls-2" d="M458.6,149h3.88v.66h-3v10.73h3V161H458.6Z" transform="translate(-231 -148.95)"/><path class="cls-2" d="M464.92,154.73c0-3.58,1.79-5,3.74-5a3.6,3.6,0,0,1,2.5,1l-.65.73a2.65,2.65,0,0,0-1.78-.71c-1.46,0-2.72,1-2.72,4,0,2.2.84,3.39,2.33,3.39a1.86,1.86,0,0,0,1.88-2,1.7,1.7,0,0,0-1.89-1.89,3.12,3.12,0,0,0-2.34,1.26l-.05-.91a3.82,3.82,0,0,1,2.6-1.22,2.54,2.54,0,0,1,2.78,2.76,2.88,2.88,0,0,1-3,2.87C466.39,159,464.92,157.6,464.92,154.73Z" transform="translate(-231 -148.95)"/><path class="cls-2" d="M473.62,160.34h2.95V149.61h-2.95V149h3.88V161h-3.88Z" transform="translate(-231 -148.95)"/><rect class="cls-1" x="258.5" y="17.55" width="43" height="43"/><path class="cls-2" d="M506.43,186.71h9V188h-9Z" transform="translate(-231 -148.95)"/><path class="cls-2" d="M501.6,149h3.88v.66h-3v10.73h3V161H501.6Z" transform="translate(-231 -148.95)"/><path class="cls-2" d="M513,150.94h-5.14v-1h6.48v.71c-2.37,2.71-2.95,4.72-3.09,8.23H510A11.91,11.91,0,0,1,513,150.94Z" transform="translate(-231 -148.95)"/><path class="cls-2" d="M516.62,160.34h3V149.61h-3V149h3.88V161h-3.88Z" transform="translate(-231 -148.95)"/><rect class="cls-1" x="301.5" y="17.55" width="43" height="43"/><path class="cls-2" d="M549.47,180.52h3.4c4.14,0,6.39,2.45,6.39,6.82s-2.25,6.95-6.3,6.95h-3.49Zm3.28,12.32c3.13,0,4.68-2,4.68-5.5s-1.55-5.37-4.68-5.37h-1.51v10.87Z" transform="translate(-231 -148.95)"/><path class="cls-2" d="M544.6,149h3.88v.66h-3v10.73h3V161H544.6Z" transform="translate(-231 -148.95)"/><path class="cls-2" d="M550.8,156.58a2.74,2.74,0,0,1,1.91-2.38v0a2.52,2.52,0,0,1-1.35-2.09c0-1.37,1.16-2.3,2.76-2.3s2.77,1,2.77,2.38a2.82,2.82,0,0,1-1.36,2.13v.06c1,.49,1.75,1,1.75,2.32s-1.16,2.38-3.21,2.38S550.8,158,550.8,156.58Zm5.37,0c0-1.23-1.24-1.55-2.8-2.07-.87.46-1.52,1-1.52,1.93s.88,1.7,2.25,1.7S556.17,157.54,556.17,156.61Zm-.29-4.41a1.59,1.59,0,0,0-1.79-1.57,1.48,1.48,0,0,0-1.67,1.43c0,1.06,1,1.51,2.35,1.93A2.26,2.26,0,0,0,555.88,152.2Z" transform="translate(-231 -148.95)"/><path class="cls-2" d="M559.62,160.34h3V149.61h-3V149h3.88V161h-3.88Z" transform="translate(-231 -148.95)"/><rect class="cls-1" x="344.5" y="17.55" width="43" height="43"/><path class="cls-2" d="M592.43,186.71h9V188h-9Z" transform="translate(-231 -148.95)"/><path class="cls-2" d="M587.6,149h3.88v.66h-3v10.73h3V161H587.6Z" transform="translate(-231 -148.95)"/><path class="cls-2" d="M594,158.1l.64-.73a2.65,2.65,0,0,0,1.78.7c1.45,0,2.72-1,2.72-4,0-2.2-.85-3.37-2.32-3.37a1.85,1.85,0,0,0-1.9,1.94,1.71,1.71,0,0,0,1.91,1.89,3.12,3.12,0,0,0,2.32-1.26l0,.91a3.69,3.69,0,0,1-2.59,1.22,2.53,2.53,0,0,1-2.78-2.76,2.88,2.88,0,0,1,3-2.87c2,0,3.43,1.43,3.43,4.3,0,3.59-1.8,5-3.74,5A3.61,3.61,0,0,1,594,158.1Z" transform="translate(-231 -148.95)"/><path class="cls-2" d="M602.62,160.34h3V149.61h-3V149h3.88V161h-3.88Z" transform="translate(-231 -148.95)"/><rect class="cls-1" x="387.5" y="17.55" width="43" height="43"/><path class="cls-2" d="M635.43,186.71h9V188h-9Z" transform="translate(-231 -148.95)"/><path class="cls-2" d="M626.39,149h3.89v.66h-3v10.73h3V161h-3.89Z" transform="translate(-231 -148.95)"/><path class="cls-2" d="M633,157.9h2.58v-6.56h-2v-.75a6.34,6.34,0,0,0,2.29-.66h.87v8h2.33v1H633Z" transform="translate(-231 -148.95)"/><path class="cls-2" d="M641,154.37c0-3,1.22-4.61,3.21-4.61s3.2,1.61,3.2,4.61-1.22,4.66-3.2,4.66S641,157.34,641,154.37Zm5.34,0c0-2.56-.89-3.67-2.13-3.67s-2.13,1.11-2.13,3.67.88,3.73,2.13,3.73S646.38,156.93,646.38,154.37Zm-3-.1a.87.87,0,1,1,.87.94A.86.86,0,0,1,643.38,154.27Z" transform="translate(-231 -148.95)"/><path class="cls-2" d="M649.82,160.34h2.95V149.61h-2.95V149h3.88V161h-3.88Z" transform="translate(-231 -148.95)"/><rect class="cls-1" x="430.5" y="17.55" width="43" height="43"/><path class="cls-2" d="M678.43,186.71h9V188h-9Z" transform="translate(-231 -148.95)"/><path class="cls-2" d="M669.39,149h3.89v.66h-3v10.73h3V161h-3.89Z" transform="translate(-231 -148.95)"/><path class="cls-2" d="M676,157.9h2.58v-6.56h-2v-.75a6.34,6.34,0,0,0,2.29-.66h.87v8h2.33v1H676Z" transform="translate(-231 -148.95)"/><path class="cls-2" d="M684.4,157.9H687v-6.56h-2v-.75a6.34,6.34,0,0,0,2.29-.66h.87v8h2.33v1H684.4Z" transform="translate(-231 -148.95)"/><path class="cls-2" d="M692.82,160.34h2.95V149.61h-2.95V149h3.88V161h-3.88Z" transform="translate(-231 -148.95)"/><rect class="cls-1" x="473.5" y="17.55" width="43" height="43"/><path class="cls-2" d="M721.43,186.71h9V188h-9Z" transform="translate(-231 -148.95)"/><path class="cls-2" d="M712.39,149h3.89v.66h-3v10.73h3V161h-3.89Z" transform="translate(-231 -148.95)"/><path class="cls-2" d="M719,157.9h2.58v-6.56h-2v-.75a6.34,6.34,0,0,0,2.29-.66h.87v8h2.33v1H719Z" transform="translate(-231 -148.95)"/><path class="cls-2" d="M727.07,158.18c3-2.68,4.67-4.24,4.67-5.73,0-1-.61-1.74-1.93-1.74a3.06,3.06,0,0,0-2.14,1.07l-.67-.66a4,4,0,0,1,3-1.36,2.61,2.61,0,0,1,2.92,2.63c0,1.69-1.69,3.35-4.11,5.55.56,0,1.13-.07,1.67-.07h2.93v1h-6.29Z" transform="translate(-231 -148.95)"/><path class="cls-2" d="M735.82,160.34h2.95V149.61h-2.95V149h3.88V161h-3.88Z" transform="translate(-231 -148.95)"/><rect class="cls-1" x="516.5" y="17.55" width="43" height="43"/><path class="cls-2" d="M764.43,186.71h9V188h-9Z" transform="translate(-231 -148.95)"/><path class="cls-2" d="M755.39,149h3.89v.66h-3v10.73h3V161h-3.89Z" transform="translate(-231 -148.95)"/><path class="cls-2" d="M762,157.9h2.58v-6.56h-2v-.75a6.34,6.34,0,0,0,2.29-.66h.87v8h2.33v1H762Z" transform="translate(-231 -148.95)"/><path class="cls-2" d="M769.84,157.77l.59-.75a3.61,3.61,0,0,0,2.56,1c1.22,0,2.13-.63,2.13-1.63s-.89-1.78-3.23-1.78v-.88c2.11,0,2.92-.73,2.92-1.67s-.74-1.4-1.82-1.4a3.38,3.38,0,0,0-2.2.9l-.61-.73a4.35,4.35,0,0,1,2.86-1.12c1.68,0,3,.83,3,2.27,0,1.08-.8,1.76-1.9,2.13v.06a2.45,2.45,0,0,1,2.21,2.26c0,1.59-1.46,2.55-3.24,2.55A4.37,4.37,0,0,1,769.84,157.77Z" transform="translate(-231 -148.95)"/><path class="cls-2" d="M778.82,160.34h2.95V149.61h-2.95V149h3.88V161h-3.88Z" transform="translate(-231 -148.95)"/><rect class="cls-1" x="559.5" y="17.55" width="43" height="43"/><path class="cls-2" d="M807.43,186.71h9V188h-9Z" transform="translate(-231 -148.95)"/><path class="cls-2" d="M798.39,149h3.89v.66h-3v10.73h3V161h-3.89Z" transform="translate(-231 -148.95)"/><path class="cls-2" d="M805,157.9h2.58v-6.56h-2v-.75a6.34,6.34,0,0,0,2.29-.66h.87v8h2.33v1H805Z" transform="translate(-231 -148.95)"/><path class="cls-2" d="M817.2,152.72c0-.49,0-1.1.07-1.59h-.07c-.3.44-.62.87-.91,1.31l-2.41,3h5.8v.94h-7.09v-.77l4.45-5.7h1.25v8.94H817.2Z" transform="translate(-231 -148.95)"/><path class="cls-2" d="M821.82,160.34h2.95V149.61h-2.95V149h3.88V161h-3.88Z" transform="translate(-231 -148.95)"/><rect class="cls-1" x="602.5" y="17.55" width="43" height="43"/><path class="cls-2" d="M850.43,186.71h9V188h-9Z" transform="translate(-231 -148.95)"/><path class="cls-2" d="M841.39,149h3.89v.66h-3v10.73h3V161h-3.89Z" transform="translate(-231 -148.95)"/><path class="cls-2" d="M848,157.9h2.58v-6.56h-2v-.75a6.34,6.34,0,0,0,2.29-.66h.87v8h2.33v1H848Z" transform="translate(-231 -148.95)"/><path class="cls-2" d="M855.83,157.81l.57-.77a3.52,3.52,0,0,0,2.52,1,2.08,2.08,0,0,0,2.26-2,1.93,1.93,0,0,0-2.19-1.95,3.33,3.33,0,0,0-1.82.53l-.61-.39.29-4.3h5.06v1h-4l-.24,2.63a3.94,3.94,0,0,1,1.66-.36c1.71,0,3.07.87,3.07,2.8a3.08,3.08,0,0,1-3.31,3A4.45,4.45,0,0,1,855.83,157.81Z" transform="translate(-231 -148.95)"/><path class="cls-2" d="M864.82,160.34h2.95V149.61h-2.95V149h3.88V161h-3.88Z" transform="translate(-231 -148.95)"/><rect class="cls-1" x="0.5" y="94.55" width="43" height="43"/><path class="cls-2" d="M248.68,269.84h3.86V260h-3v-1.14a9.56,9.56,0,0,0,3.45-1h1.3v11.95h3.48v1.45h-9.09Z" transform="translate(-231 -148.95)"/><path class="cls-2" d="M243.6,226h3.88v.66h-3v10.73h3V238H243.6Z" transform="translate(-231 -148.95)"/><path class="cls-2" d="M250.2,234.9h2.58v-6.56h-2v-.75a6.34,6.34,0,0,0,2.29-.66h.87v8h2.33v1H250.2Z" transform="translate(-231 -148.95)"/><path class="cls-2" d="M258.62,237.34h2.95V226.61h-2.95V226h3.88V238h-3.88Z" transform="translate(-231 -148.95)"/><rect class="cls-1" x="43.5" y="94.55" width="43" height="43"/><path class="cls-2" d="M291.18,270.26c4.53-4,7-6.36,7-8.59,0-1.53-.92-2.6-2.9-2.6a4.62,4.62,0,0,0-3.21,1.6l-1-1a6,6,0,0,1,4.43-2c2.69,0,4.37,1.58,4.37,3.95,0,2.52-2.52,5-6.15,8.31.84-.06,1.7-.1,2.5-.1h4.38v1.49h-9.42Z" transform="translate(-231 -148.95)"/><path class="cls-2" d="M286.6,226h3.88v.66h-3v10.73h3V238H286.6Z" transform="translate(-231 -148.95)"/><path class="cls-2" d="M292.87,235.18c3-2.68,4.67-4.24,4.67-5.73,0-1-.61-1.74-1.93-1.74a3.06,3.06,0,0,0-2.14,1.07l-.67-.66a4,4,0,0,1,2.95-1.36,2.61,2.61,0,0,1,2.92,2.63c0,1.69-1.69,3.35-4.11,5.55.56,0,1.14-.07,1.67-.07h2.93v1h-6.29Z" transform="translate(-231 -148.95)"/><path class="cls-2" d="M301.62,237.34h2.95V226.61h-2.95V226h3.88V238h-3.88Z" transform="translate(-231 -148.95)"/><rect class="cls-1" x="86.5" y="94.55" width="43" height="43"/><path class="cls-2" d="M333.84,269.65l.88-1.13a5.43,5.43,0,0,0,3.85,1.57c1.82,0,3.19-.94,3.19-2.43s-1.35-2.67-4.85-2.67v-1.32c3.17,0,4.39-1.09,4.39-2.5s-1.12-2.1-2.73-2.1a5.1,5.1,0,0,0-3.3,1.34l-.92-1.09a6.51,6.51,0,0,1,4.28-1.68c2.52,0,4.43,1.24,4.43,3.4,0,1.62-1.2,2.65-2.86,3.2v.08c1.79.38,3.32,1.55,3.32,3.4,0,2.37-2.18,3.82-4.85,3.82A6.56,6.56,0,0,1,333.84,269.65Z" transform="translate(-231 -148.95)"/><path class="cls-2" d="M329.6,226h3.88v.66h-3v10.73h3V238H329.6Z" transform="translate(-231 -148.95)"/><path class="cls-2" d="M335.64,234.77l.59-.75a3.61,3.61,0,0,0,2.56,1c1.22,0,2.13-.63,2.13-1.63s-.89-1.78-3.23-1.78v-.88c2.11,0,2.92-.73,2.92-1.67s-.74-1.4-1.82-1.4a3.38,3.38,0,0,0-2.2.9l-.61-.73a4.35,4.35,0,0,1,2.86-1.12c1.68,0,3,.83,3,2.27,0,1.08-.8,1.76-1.9,2.13v.05a2.47,2.47,0,0,1,2.21,2.27c0,1.59-1.46,2.55-3.24,2.55A4.37,4.37,0,0,1,335.64,234.77Z" transform="translate(-231 -148.95)"/><path class="cls-2" d="M344.62,237.34h2.95V226.61h-2.95V226h3.88V238h-3.88Z" transform="translate(-231 -148.95)"/><rect class="cls-1" x="129.5" y="94.55" width="43" height="43"/><path class="cls-2" d="M383.37,262.07c0-.73.06-1.63.11-2.37h-.11c-.44.65-.92,1.3-1.36,1.95l-3.61,4.54h8.69v1.41H376.46v-1.16l6.68-8.55H385v13.4h-1.64Z" transform="translate(-231 -148.95)"/><path class="cls-2" d="M372.6,226h3.88v.66h-3v10.73h3V238H372.6Z" transform="translate(-231 -148.95)"/><path class="cls-2" d="M383,229.72c0-.49,0-1.1.07-1.59H383c-.3.44-.62.87-.91,1.31l-2.41,3h5.8v.94h-7.09v-.77l4.45-5.7h1.25v8.94H383Z" transform="translate(-231 -148.95)"/><path class="cls-2" d="M387.62,237.34h2.95V226.61h-2.95V226h3.88V238h-3.88Z" transform="translate(-231 -148.95)"/><rect class="cls-1" x="172.5" y="94.55" width="43" height="43"/><path class="cls-2" d="M419.82,269.72l.86-1.16a5.33,5.33,0,0,0,3.78,1.53,3.1,3.1,0,0,0,3.38-3c0-1.85-1.3-2.92-3.27-2.92a4.93,4.93,0,0,0-2.73.8l-.93-.59.44-6.45h7.58v1.52h-6l-.36,3.94a5.84,5.84,0,0,1,2.48-.54c2.56,0,4.59,1.3,4.59,4.2s-2.39,4.53-5,4.53A6.76,6.76,0,0,1,419.82,269.72Z" transform="translate(-231 -148.95)"/><path class="cls-2" d="M415.6,226h3.88v.66h-3v10.73h3V238H415.6Z" transform="translate(-231 -148.95)"/><path class="cls-2" d="M421.63,234.81l.57-.77a3.52,3.52,0,0,0,2.52,1,2.08,2.08,0,0,0,2.26-2,1.93,1.93,0,0,0-2.19-1.95,3.33,3.33,0,0,0-1.82.53l-.61-.39.29-4.3h5.06v1h-4l-.24,2.63a3.94,3.94,0,0,1,1.66-.36c1.71,0,3.07.87,3.07,2.8a3.08,3.08,0,0,1-3.31,3A4.45,4.45,0,0,1,421.63,234.81Z" transform="translate(-231 -148.95)"/><path class="cls-2" d="M430.62,237.34h2.95V226.61h-2.95V226h3.88V238h-3.88Z" transform="translate(-231 -148.95)"/><rect class="cls-1" x="215.5" y="94.55" width="43" height="43"/><path class="cls-2" d="M463.26,265.1c0-5.38,2.69-7.46,5.61-7.46a5.29,5.29,0,0,1,3.73,1.43l-1,1.09a4,4,0,0,0-2.67-1.07c-2.18,0-4.07,1.53-4.07,6,0,3.29,1.26,5.08,3.48,5.08a2.79,2.79,0,0,0,2.82-2.94,2.55,2.55,0,0,0-2.84-2.84,4.69,4.69,0,0,0-3.5,1.89l-.07-1.36a5.71,5.71,0,0,1,3.89-1.83,3.81,3.81,0,0,1,4.18,4.14,4.32,4.32,0,0,1-4.48,4.3C465.47,271.54,463.26,269.4,463.26,265.1Z" transform="translate(-231 -148.95)"/><path class="cls-2" d="M458.6,226h3.88v.66h-3v10.73h3V238H458.6Z" transform="translate(-231 -148.95)"/><path class="cls-2" d="M464.92,231.73c0-3.58,1.79-5,3.74-5a3.6,3.6,0,0,1,2.5,1l-.65.73a2.65,2.65,0,0,0-1.78-.71c-1.46,0-2.72,1-2.72,4,0,2.2.84,3.39,2.33,3.39a1.86,1.86,0,0,0,1.88-2,1.7,1.7,0,0,0-1.89-1.89,3.12,3.12,0,0,0-2.34,1.26l-.05-.91a3.82,3.82,0,0,1,2.6-1.22,2.54,2.54,0,0,1,2.78,2.76,2.88,2.88,0,0,1-3,2.87C466.39,236,464.92,234.61,464.92,231.73Z" transform="translate(-231 -148.95)"/><path class="cls-2" d="M473.62,237.34h2.95V226.61h-2.95V226h3.88V238h-3.88Z" transform="translate(-231 -148.95)"/><rect class="cls-1" x="258.5" y="94.55" width="43" height="43"/><path class="cls-2" d="M513.82,259.41h-7.71v-1.52h9.7V259c-3.54,4-4.4,7.07-4.61,12.32h-1.83A17.89,17.89,0,0,1,513.82,259.41Z" transform="translate(-231 -148.95)"/><path class="cls-2" d="M501.6,226h3.88v.66h-3v10.73h3V238H501.6Z" transform="translate(-231 -148.95)"/><path class="cls-2" d="M513,227.94h-5.14v-1h6.48v.71c-2.37,2.71-2.95,4.72-3.09,8.23H510A11.91,11.91,0,0,1,513,227.94Z" transform="translate(-231 -148.95)"/><path class="cls-2" d="M516.62,237.34h3V226.61h-3V226h3.88V238h-3.88Z" transform="translate(-231 -148.95)"/><rect class="cls-1" x="301.5" y="94.55" width="43" height="43"/><path class="cls-2" d="M549.07,267.87c0-1.85,1.43-2.9,2.88-3.57v-.09a3.76,3.76,0,0,1-2-3.12c0-2.06,1.75-3.45,4.14-3.45,2.62,0,4.16,1.49,4.16,3.57a4.21,4.21,0,0,1-2,3.19v.09c1.47.73,2.62,1.57,2.62,3.48s-1.74,3.57-4.8,3.57S549.07,270,549.07,267.87Zm8.07,0c0-1.85-1.87-2.33-4.2-3.11-1.31.7-2.29,1.56-2.29,2.9s1.32,2.54,3.38,2.54S557.14,269.3,557.14,267.91Zm-.45-6.61A2.37,2.37,0,0,0,554,259a2.22,2.22,0,0,0-2.5,2.14c0,1.59,1.53,2.26,3.53,2.89A3.38,3.38,0,0,0,556.69,261.3Z" transform="translate(-231 -148.95)"/><path class="cls-2" d="M544.6,226h3.88v.66h-3v10.73h3V238H544.6Z" transform="translate(-231 -148.95)"/><path class="cls-2" d="M550.8,233.58a2.74,2.74,0,0,1,1.91-2.38v-.06a2.49,2.49,0,0,1-1.35-2.08c0-1.37,1.16-2.3,2.76-2.3s2.77,1,2.77,2.38a2.82,2.82,0,0,1-1.36,2.13v.06c1,.49,1.75,1,1.75,2.32s-1.16,2.38-3.21,2.38S550.8,235,550.8,233.58Zm5.37,0c0-1.23-1.24-1.55-2.8-2.07-.87.46-1.52,1-1.52,1.93s.88,1.7,2.25,1.7S556.17,234.54,556.17,233.61Zm-.29-4.41a1.59,1.59,0,0,0-1.79-1.57,1.48,1.48,0,0,0-1.67,1.43c0,1.06,1,1.51,2.35,1.93A2.26,2.26,0,0,0,555.88,229.2Z" transform="translate(-231 -148.95)"/><path class="cls-2" d="M559.62,237.34h3V226.61h-3V226h3.88V238h-3.88Z" transform="translate(-231 -148.95)"/><rect class="cls-1" x="344.5" y="94.55" width="43" height="43"/><path class="cls-2" d="M592.3,270.14l1-1.1a4,4,0,0,0,2.67,1c2.16,0,4.07-1.53,4.07-6,0-3.3-1.28-5.06-3.49-5.06a2.77,2.77,0,0,0-2.83,2.92,2.56,2.56,0,0,0,2.85,2.83,4.67,4.67,0,0,0,3.49-1.89l.06,1.37a5.55,5.55,0,0,1-3.88,1.82c-2.48,0-4.16-1.38-4.16-4.13a4.32,4.32,0,0,1,4.45-4.31c2.92,0,5.15,2.15,5.15,6.45,0,5.37-2.71,7.45-5.61,7.45A5.46,5.46,0,0,1,592.3,270.14Z" transform="translate(-231 -148.95)"/><path class="cls-2" d="M587.6,226h3.88v.66h-3v10.73h3V238H587.6Z" transform="translate(-231 -148.95)"/><path class="cls-2" d="M594,235.1l.64-.73a2.65,2.65,0,0,0,1.78.7c1.45,0,2.72-1,2.72-4,0-2.2-.85-3.37-2.32-3.37a1.85,1.85,0,0,0-1.9,1.94,1.71,1.71,0,0,0,1.91,1.89,3.12,3.12,0,0,0,2.32-1.26l0,.91a3.69,3.69,0,0,1-2.59,1.22,2.53,2.53,0,0,1-2.78-2.76,2.88,2.88,0,0,1,3-2.87c2,0,3.43,1.43,3.43,4.3,0,3.59-1.8,5-3.74,5A3.61,3.61,0,0,1,594,235.1Z" transform="translate(-231 -148.95)"/><path class="cls-2" d="M602.62,237.34h3V226.61h-3V226h3.88V238h-3.88Z" transform="translate(-231 -148.95)"/><rect class="cls-1" x="387.5" y="94.55" width="43" height="43"/><path class="cls-2" d="M635.43,263.71h9V265h-9Z" transform="translate(-231 -148.95)"/><path class="cls-2" d="M626.39,226h3.89v.66h-3v10.73h3V238h-3.89Z" transform="translate(-231 -148.95)"/><path class="cls-2" d="M633,234.9h2.58v-6.56h-2v-.75a6.34,6.34,0,0,0,2.29-.66h.87v8h2.33v1H633Z" transform="translate(-231 -148.95)"/><path class="cls-2" d="M641,231.37c0-3,1.22-4.61,3.21-4.61s3.2,1.61,3.2,4.61-1.22,4.66-3.2,4.66S641,234.34,641,231.37Zm5.34,0c0-2.56-.89-3.67-2.13-3.67s-2.13,1.11-2.13,3.67.88,3.73,2.13,3.73S646.38,233.93,646.38,231.37Zm-3-.1a.87.87,0,1,1,.87.94A.86.86,0,0,1,643.38,231.27Z" transform="translate(-231 -148.95)"/><path class="cls-2" d="M649.82,237.34h2.95V226.61h-2.95V226h3.88V238h-3.88Z" transform="translate(-231 -148.95)"/><rect class="cls-1" x="430.5" y="94.55" width="43" height="43"/><path class="cls-2" d="M678.43,263.71h9V265h-9Z" transform="translate(-231 -148.95)"/><path class="cls-2" d="M669.39,226h3.89v.66h-3v10.73h3V238h-3.89Z" transform="translate(-231 -148.95)"/><path class="cls-2" d="M676,234.9h2.58v-6.56h-2v-.75a6.34,6.34,0,0,0,2.29-.66h.87v8h2.33v1H676Z" transform="translate(-231 -148.95)"/><path class="cls-2" d="M684.4,234.9H687v-6.56h-2v-.75a6.34,6.34,0,0,0,2.29-.66h.87v8h2.33v1H684.4Z" transform="translate(-231 -148.95)"/><path class="cls-2" d="M692.82,237.34h2.95V226.61h-2.95V226h3.88V238h-3.88Z" transform="translate(-231 -148.95)"/><rect class="cls-1" x="473.5" y="94.55" width="43" height="43"/><path class="cls-2" d="M721.43,263.71h9V265h-9Z" transform="translate(-231 -148.95)"/><path class="cls-2" d="M712.39,226h3.89v.66h-3v10.73h3V238h-3.89Z" transform="translate(-231 -148.95)"/><path class="cls-2" d="M719,234.9h2.58v-6.56h-2v-.75a6.34,6.34,0,0,0,2.29-.66h.87v8h2.33v1H719Z" transform="translate(-231 -148.95)"/><path class="cls-2" d="M727.07,235.18c3-2.68,4.67-4.24,4.67-5.73,0-1-.61-1.74-1.93-1.74a3.06,3.06,0,0,0-2.14,1.07l-.67-.66a4,4,0,0,1,3-1.36,2.61,2.61,0,0,1,2.92,2.63c0,1.69-1.69,3.35-4.11,5.55.56,0,1.13-.07,1.67-.07h2.93v1h-6.29Z" transform="translate(-231 -148.95)"/><path class="cls-2" d="M735.82,237.34h2.95V226.61h-2.95V226h3.88V238h-3.88Z" transform="translate(-231 -148.95)"/><rect class="cls-1" x="516.5" y="94.55" width="43" height="43"/><path class="cls-2" d="M764.43,263.71h9V265h-9Z" transform="translate(-231 -148.95)"/><path class="cls-2" d="M755.39,226h3.89v.66h-3v10.73h3V238h-3.89Z" transform="translate(-231 -148.95)"/><path class="cls-2" d="M762,234.9h2.58v-6.56h-2v-.75a6.34,6.34,0,0,0,2.29-.66h.87v8h2.33v1H762Z" transform="translate(-231 -148.95)"/><path class="cls-2" d="M769.84,234.77l.59-.75a3.61,3.61,0,0,0,2.56,1c1.22,0,2.13-.63,2.13-1.63s-.89-1.78-3.23-1.78v-.88c2.11,0,2.92-.73,2.92-1.67s-.74-1.4-1.82-1.4a3.38,3.38,0,0,0-2.2.9l-.61-.73a4.35,4.35,0,0,1,2.86-1.12c1.68,0,3,.83,3,2.27,0,1.08-.8,1.76-1.9,2.13v.05a2.47,2.47,0,0,1,2.21,2.27c0,1.59-1.46,2.55-3.24,2.55A4.37,4.37,0,0,1,769.84,234.77Z" transform="translate(-231 -148.95)"/><path class="cls-2" d="M778.82,237.34h2.95V226.61h-2.95V226h3.88V238h-3.88Z" transform="translate(-231 -148.95)"/><rect class="cls-1" x="559.5" y="94.55" width="43" height="43"/><path class="cls-2" d="M807.43,263.71h9V265h-9Z" transform="translate(-231 -148.95)"/><path class="cls-2" d="M798.39,226h3.89v.66h-3v10.73h3V238h-3.89Z" transform="translate(-231 -148.95)"/><path class="cls-2" d="M805,234.9h2.58v-6.56h-2v-.75a6.34,6.34,0,0,0,2.29-.66h.87v8h2.33v1H805Z" transform="translate(-231 -148.95)"/><path class="cls-2" d="M817.2,229.72c0-.49,0-1.1.07-1.59h-.07c-.3.44-.62.87-.91,1.31l-2.41,3h5.8v.94h-7.09v-.77l4.45-5.7h1.25v8.94H817.2Z" transform="translate(-231 -148.95)"/><path class="cls-2" d="M821.82,237.34h2.95V226.61h-2.95V226h3.88V238h-3.88Z" transform="translate(-231 -148.95)"/><rect class="cls-1" x="602.5" y="94.55" width="43" height="43"/><path class="cls-2" d="M850.43,263.71h9V265h-9Z" transform="translate(-231 -148.95)"/><path class="cls-2" d="M841.39,226h3.89v.66h-3v10.73h3V238h-3.89Z" transform="translate(-231 -148.95)"/><path class="cls-2" d="M848,234.9h2.58v-6.56h-2v-.75a6.34,6.34,0,0,0,2.29-.66h.87v8h2.33v1H848Z" transform="translate(-231 -148.95)"/><path class="cls-2" d="M855.83,234.81l.57-.77a3.52,3.52,0,0,0,2.52,1,2.08,2.08,0,0,0,2.26-2,1.93,1.93,0,0,0-2.19-1.95,3.33,3.33,0,0,0-1.82.53l-.61-.39.29-4.3h5.06v1h-4l-.24,2.63a3.94,3.94,0,0,1,1.66-.36c1.71,0,3.07.87,3.07,2.8a3.08,3.08,0,0,1-3.31,3A4.45,4.45,0,0,1,855.83,234.81Z" transform="translate(-231 -148.95)"/><path class="cls-2" d="M864.82,237.34h2.95V226.61h-2.95V226h3.88V238h-3.88Z" transform="translate(-231 -148.95)"/></svg>