<svg id="图层_1" data-name="图层 1" xmlns="http://www.w3.org/2000/svg" viewBox="0 0 681.37 124.79"><defs><style>.cls-1{fill:none;}.cls-1,.cls-2{stroke:#3ea69f;stroke-miterlimit:10;}.cls-2{fill:#fff;}.cls-3{fill:#3ea69f;}</style></defs><rect class="cls-1" x="0.5" y="53.5" width="363" height="42"/><line class="cls-2" x1="135.5" y1="54" x2="135.5" y2="96"/><line class="cls-2" x1="211.5" y1="54" x2="211.5" y2="96"/><path class="cls-3" d="M291.17,187.32v-8.67h-3.1v-1.21h4.6v10a1.58,1.58,0,0,0,1.72,1.8,3.91,3.91,0,0,0,1.64-.39l.38,1.11a5.35,5.35,0,0,1-2.34.52C292.2,190.47,291.17,189.39,291.17,187.32Z" transform="translate(-274 -109)"/><path class="cls-3" d="M298.77,185.87a4.4,4.4,0,0,1,4.46-4.58,3.77,3.77,0,0,1,4,4.11,7.17,7.17,0,0,1-.07.9h-7.4v-1.16h6.51l-.37.42c0-2.07-1-3.1-2.63-3.1a3.09,3.09,0,0,0-3,3.41,3.18,3.18,0,0,0,3.42,3.42,4.8,4.8,0,0,0,2.67-.83l.54,1a6,6,0,0,1-3.39,1A4.42,4.42,0,0,1,298.77,185.87Z" transform="translate(-274 -109)"/><path class="cls-3" d="M310.2,181.6l2.53-.09h5.1v1.2H310.2Zm2.5-.83a3.2,3.2,0,0,1,3.53-3.55,6.38,6.38,0,0,1,2.52.51l-.34,1.11a4.84,4.84,0,0,0-2-.41c-1.56,0-2.2.88-2.2,2.29v9.54H312.7Z" transform="translate(-274 -109)"/><path class="cls-3" d="M322.85,186.86v-4.15h-2.48V181.6l2.53-.09.2-2.81h1.24v2.81h4.29v1.2h-4.29v4.16c0,1.57.53,2.38,2.22,2.38a5.64,5.64,0,0,0,2.09-.4L329,190a7.58,7.58,0,0,1-2.73.52C323.68,190.47,322.85,189,322.85,186.86Z" transform="translate(-274 -109)"/><path class="cls-3" d="M331,191.5h8.64v1.28H331Z" transform="translate(-274 -109)"/><path class="cls-3" d="M342.18,185.9c0-2.93,2.23-4.61,4.88-4.61a4.47,4.47,0,0,1,3.19,1.28l-.74,1a3.63,3.63,0,0,0-2.4-1,3.21,3.21,0,0,0-3.4,3.37,3.18,3.18,0,0,0,3.37,3.33,4.12,4.12,0,0,0,2.7-1.1l.67,1a5.24,5.24,0,0,1-3.48,1.36C344.23,190.47,342.18,188.8,342.18,185.9Z" transform="translate(-274 -109)"/><path class="cls-3" d="M353.21,177.44h1.5v3.49l-.09,2.07h.05a4.41,4.41,0,0,1,3.26-1.71c2.07,0,3,1.23,3,3.53v5.44h-1.5V185c0-1.66-.57-2.43-2-2.43-1,0-1.74.52-2.75,1.56v6.11h-1.5Z" transform="translate(-274 -109)"/><path class="cls-3" d="M368,182.71H364v-1.2h5.55v8.75H368Zm-.59-4.19a1.19,1.19,0,1,1,1.19,1.15A1.12,1.12,0,0,1,367.42,178.52Z" transform="translate(-274 -109)"/><path class="cls-3" d="M377.57,187.32v-8.67h-3.1v-1.21h4.59v10a1.58,1.58,0,0,0,1.73,1.8,3.91,3.91,0,0,0,1.64-.39l.38,1.11a5.35,5.35,0,0,1-2.34.52C378.6,190.47,377.57,189.39,377.57,187.32Z" transform="translate(-274 -109)"/><path class="cls-3" d="M385,185.9c0-2.84,1.89-4.61,4-4.61a3.75,3.75,0,0,1,2.63,1.12h0l-.08-1.6v-3.37h1.5v12.82h-1.23l-.12-1.15h-.06a4.22,4.22,0,0,1-2.86,1.36C386.53,190.47,385,188.82,385,185.9Zm6.55,2v-4.36a3.23,3.23,0,0,0-2.28-1c-1.51,0-2.74,1.33-2.74,3.33s1,3.33,2.58,3.33A3.29,3.29,0,0,0,391.57,187.92Z" transform="translate(-274 -109)"/><path class="cls-3" d="M505.35,181.51h1.24l.15,2.07h0a4.63,4.63,0,0,1,3.91-2.29,3.68,3.68,0,0,1,1.73.36l-.34,1.28a4.35,4.35,0,0,0-1.62-.29c-1.32,0-2.56.67-3.6,2.5v5.12h-1.5Z" transform="translate(-274 -109)"/><path class="cls-3" d="M519.21,182.71h-4.05v-1.2h5.55v8.75h-1.5Zm-.59-4.19a1.19,1.19,0,1,1,1.19,1.15A1.12,1.12,0,0,1,518.62,178.52Z" transform="translate(-274 -109)"/><path class="cls-3" d="M525.64,191.86a2.41,2.41,0,0,1,1.44-1.94v-.08a1.58,1.58,0,0,1-.9-1.44,2.14,2.14,0,0,1,1-1.63v-.08a2.8,2.8,0,0,1-1.08-2.27,3.22,3.22,0,0,1,3.44-3.13,3.47,3.47,0,0,1,1.3.22h3.62v1.2h-2.27a2.71,2.71,0,0,1,.74,1.77c0,1.87-1.5,3-3.39,3a3.75,3.75,0,0,1-1.48-.33,1.21,1.21,0,0,0-.68,1c0,.68.67,1,1.82,1h2c2.25,0,3.33.57,3.33,2,0,1.64-1.89,3.06-4.86,3.06C527.11,194.29,525.64,193.41,525.64,191.86Zm7.43-.4c0-.82-.66-1.06-2-1.06h-1.72a4.89,4.89,0,0,1-1.33-.14c-.83.45-1.11,1-1.11,1.46,0,.91,1,1.49,2.86,1.49C531.81,193.21,533.07,192.36,533.07,191.46Zm-1.47-7a2,2,0,1,0-2,2.08A2,2,0,0,0,531.6,184.42Z" transform="translate(-274 -109)"/><path class="cls-3" d="M536.82,177.44h1.49v3.49l-.09,2.07h0a4.41,4.41,0,0,1,3.26-1.71c2.07,0,3,1.23,3,3.53v5.44h-1.5V185c0-1.66-.57-2.43-2-2.43-1,0-1.74.52-2.75,1.56v6.11h-1.49Z" transform="translate(-274 -109)"/><path class="cls-3" d="M549.65,186.86v-4.15h-2.48V181.6l2.53-.09.2-2.81h1.24v2.81h4.29v1.2h-4.29v4.16c0,1.57.53,2.38,2.22,2.38a5.64,5.64,0,0,0,2.09-.4l.32,1.1a7.58,7.58,0,0,1-2.73.52C550.48,190.47,549.65,189,549.65,186.86Z" transform="translate(-274 -109)"/><path class="cls-3" d="M557.82,191.5h8.64v1.28h-8.64Z" transform="translate(-274 -109)"/><path class="cls-3" d="M569,185.9c0-2.93,2.23-4.61,4.88-4.61a4.47,4.47,0,0,1,3.19,1.28l-.74,1a3.63,3.63,0,0,0-2.4-1,3.21,3.21,0,0,0-3.4,3.37,3.18,3.18,0,0,0,3.37,3.33,4.12,4.12,0,0,0,2.7-1.1l.67,1a5.24,5.24,0,0,1-3.48,1.36C571,190.47,569,188.8,569,185.9Z" transform="translate(-274 -109)"/><path class="cls-3" d="M580,177.44h1.5v3.49l-.09,2.07h.05a4.41,4.41,0,0,1,3.26-1.71c2.07,0,3,1.23,3,3.53v5.44h-1.5V185c0-1.66-.57-2.43-2-2.43-1,0-1.74.52-2.75,1.56v6.11H580Z" transform="translate(-274 -109)"/><path class="cls-3" d="M594.81,182.71h-4v-1.2h5.55v8.75h-1.5Zm-.59-4.19a1.19,1.19,0,1,1,1.19,1.15A1.12,1.12,0,0,1,594.22,178.52Z" transform="translate(-274 -109)"/><path class="cls-3" d="M604.37,187.32v-8.67h-3.1v-1.21h4.59v10a1.58,1.58,0,0,0,1.73,1.8,3.91,3.91,0,0,0,1.64-.39l.38,1.11a5.35,5.35,0,0,1-2.34.52C605.4,190.47,604.37,189.39,604.37,187.32Z" transform="translate(-274 -109)"/><path class="cls-3" d="M611.82,185.9c0-2.84,1.89-4.61,4-4.61a3.75,3.75,0,0,1,2.63,1.12h0l-.07-1.6v-3.37h1.49v12.82h-1.23l-.12-1.15h-.06a4.22,4.22,0,0,1-2.86,1.36C613.33,190.47,611.82,188.82,611.82,185.9Zm6.56,2v-4.36a3.27,3.27,0,0,0-2.29-1c-1.51,0-2.74,1.33-2.74,3.33s1,3.33,2.58,3.33A3.33,3.33,0,0,0,618.38,187.92Z" transform="translate(-274 -109)"/><path class="cls-3" d="M426.82,185.9c0-2.84,1.89-4.61,4-4.61a3.75,3.75,0,0,1,2.63,1.12h0l-.07-1.6v-3.37h1.49v12.82h-1.22l-.13-1.15h0a4.24,4.24,0,0,1-2.87,1.36C428.33,190.47,426.82,188.82,426.82,185.9Zm6.56,2v-4.36a3.25,3.25,0,0,0-2.29-1c-1.51,0-2.74,1.33-2.74,3.33s1,3.33,2.58,3.33A3.33,3.33,0,0,0,433.38,187.92Z" transform="translate(-274 -109)"/><path class="cls-3" d="M438,188c0-2,1.84-2.92,6.36-3.28a2.07,2.07,0,0,0-2.32-2.19,6.15,6.15,0,0,0-3.07,1l-.59-1a7.74,7.74,0,0,1,3.91-1.26,3.25,3.25,0,0,1,3.56,3.6v5.37h-1.24l-.13-1.19h0a5.83,5.83,0,0,1-3.44,1.4C439.33,190.47,438,189.56,438,188Zm6.36,0V185.7c-3.75.29-4.88,1-4.88,2.18,0,1,.9,1.39,1.91,1.39A4.77,4.77,0,0,0,444.34,188Z" transform="translate(-274 -109)"/><path class="cls-3" d="M451.05,186.86v-4.15h-2.48V181.6l2.53-.09.2-2.81h1.24v2.81h4.29v1.2h-4.29v4.16c0,1.57.53,2.38,2.22,2.38a5.64,5.64,0,0,0,2.09-.4l.32,1.1a7.58,7.58,0,0,1-2.73.52C451.88,190.47,451.05,189,451.05,186.86Z" transform="translate(-274 -109)"/><path class="cls-3" d="M459.58,188c0-2,1.84-2.92,6.36-3.28a2.08,2.08,0,0,0-2.33-2.19,6.14,6.14,0,0,0-3.06,1l-.59-1a7.74,7.74,0,0,1,3.91-1.26,3.25,3.25,0,0,1,3.56,3.6v5.37h-1.24l-.13-1.19H466a5.86,5.86,0,0,1-3.44,1.4C460.93,190.47,459.58,189.56,459.58,188Zm6.36,0V185.7c-3.75.29-4.88,1-4.88,2.18,0,1,.9,1.39,1.91,1.39A4.77,4.77,0,0,0,465.94,188Z" transform="translate(-274 -109)"/><path class="cls-3" d="M801.32,144.4c0-2.84,1.89-4.61,4-4.61a3.75,3.75,0,0,1,2.63,1.12h0l-.07-1.6v-3.37h1.49v12.82h-1.22l-.13-1.15h0A4.24,4.24,0,0,1,805.1,149C802.83,149,801.32,147.32,801.32,144.4Zm6.56,2v-4.36a3.25,3.25,0,0,0-2.29-1c-1.51,0-2.74,1.33-2.74,3.33s1,3.33,2.58,3.33A3.33,3.33,0,0,0,807.88,146.42Z" transform="translate(-274 -109)"/><path class="cls-3" d="M812.48,146.49c0-2,1.84-2.92,6.36-3.28a2.07,2.07,0,0,0-2.32-2.19,6.15,6.15,0,0,0-3.07,1l-.59-1a7.74,7.74,0,0,1,3.91-1.26,3.25,3.25,0,0,1,3.56,3.6v5.37h-1.24l-.13-1.19h-.05a5.83,5.83,0,0,1-3.44,1.4C813.83,149,812.48,148.06,812.48,146.49Zm6.36,0V144.2c-3.75.29-4.88,1-4.88,2.18,0,1,.9,1.39,1.91,1.39A4.77,4.77,0,0,0,818.84,146.47Z" transform="translate(-274 -109)"/><path class="cls-3" d="M825.55,145.36v-4.15h-2.48V140.1l2.53-.09.2-2.81H827V140h4.29v1.2H827v4.16c0,1.57.53,2.38,2.22,2.38a5.64,5.64,0,0,0,2.09-.4l.32,1.1a7.58,7.58,0,0,1-2.73.52C826.38,149,825.55,147.52,825.55,145.36Z" transform="translate(-274 -109)"/><path class="cls-3" d="M834.08,146.49c0-2,1.84-2.92,6.36-3.28a2.07,2.07,0,0,0-2.32-2.19,6.15,6.15,0,0,0-3.07,1l-.59-1a7.74,7.74,0,0,1,3.91-1.26,3.25,3.25,0,0,1,3.56,3.6v5.37h-1.24l-.13-1.19h0a5.88,5.88,0,0,1-3.44,1.4C835.43,149,834.08,148.06,834.08,146.49Zm6.36,0V144.2c-3.75.29-4.88,1-4.88,2.18,0,1,.9,1.39,1.91,1.39A4.77,4.77,0,0,0,840.44,146.47Z" transform="translate(-274 -109)"/><path class="cls-3" d="M697.67,226.82v-8.68h-3.1v-1.2h4.6v10a1.58,1.58,0,0,0,1.72,1.8,3.91,3.91,0,0,0,1.64-.39l.38,1.11a5.35,5.35,0,0,1-2.34.52C698.7,230,697.67,228.89,697.67,226.82Z" transform="translate(-274 -109)"/><path class="cls-3" d="M705.27,225.37a4.4,4.4,0,0,1,4.46-4.58,3.77,3.77,0,0,1,4,4.11,7.17,7.17,0,0,1-.07.9h-7.4v-1.16h6.51l-.37.42c0-2.07-1-3.1-2.63-3.1a3.09,3.09,0,0,0-3,3.41,3.18,3.18,0,0,0,3.42,3.42,4.8,4.8,0,0,0,2.67-.83l.54,1a6,6,0,0,1-3.39,1A4.42,4.42,0,0,1,705.27,225.37Z" transform="translate(-274 -109)"/><path class="cls-3" d="M716.7,221.1l2.53-.09h5.1v1.2H716.7Zm2.5-.83a3.2,3.2,0,0,1,3.53-3.55,6.38,6.38,0,0,1,2.52.51l-.34,1.11a4.84,4.84,0,0,0-2-.41,2,2,0,0,0-2.2,2.28v9.55H719.2Z" transform="translate(-274 -109)"/><path class="cls-3" d="M729.35,226.36v-4.15h-2.48V221.1l2.53-.09.2-2.81h1.24V221h4.29v1.2h-4.29v4.16c0,1.57.53,2.38,2.22,2.38a5.64,5.64,0,0,0,2.09-.4l.32,1.1a7.58,7.58,0,0,1-2.73.52C730.18,230,729.35,228.52,729.35,226.36Z" transform="translate(-274 -109)"/><path class="cls-3" d="M737.52,231h8.64v1.28h-8.64Z" transform="translate(-274 -109)"/><path class="cls-3" d="M748.68,225.4c0-2.93,2.23-4.61,4.88-4.61a4.47,4.47,0,0,1,3.19,1.28l-.74,1a3.62,3.62,0,0,0-2.39-1,3.22,3.22,0,0,0-3.41,3.37,3.18,3.18,0,0,0,3.37,3.33,4.12,4.12,0,0,0,2.7-1.1l.67,1a5.24,5.24,0,0,1-3.48,1.36C750.73,230,748.68,228.3,748.68,225.4Z" transform="translate(-274 -109)"/><path class="cls-3" d="M759.71,216.94h1.5v3.49l-.09,2.07h0a4.41,4.41,0,0,1,3.26-1.71c2.07,0,3,1.23,3,3.53v5.44H766v-5.24c0-1.66-.57-2.43-2-2.43-1,0-1.74.52-2.75,1.56v6.11h-1.5Z" transform="translate(-274 -109)"/><path class="cls-3" d="M774.51,222.21h-4V221H776v8.75h-1.5Zm-.59-4.19a1.19,1.19,0,1,1,1.19,1.15A1.12,1.12,0,0,1,773.92,218Z" transform="translate(-274 -109)"/><path class="cls-3" d="M784.07,226.82v-8.68H781v-1.2h4.59v10a1.58,1.58,0,0,0,1.73,1.8,3.91,3.91,0,0,0,1.64-.39l.38,1.11A5.35,5.35,0,0,1,787,230C785.1,230,784.07,228.89,784.07,226.82Z" transform="translate(-274 -109)"/><path class="cls-3" d="M791.52,225.4c0-2.84,1.89-4.61,4-4.61a3.75,3.75,0,0,1,2.63,1.12h0l-.08-1.6v-3.37h1.5v12.82h-1.23l-.12-1.15h-.06A4.22,4.22,0,0,1,795.3,230C793,230,791.52,228.32,791.52,225.4Zm6.55,2v-4.36a3.23,3.23,0,0,0-2.28-1c-1.51,0-2.74,1.33-2.74,3.33s1,3.33,2.58,3.33A3.29,3.29,0,0,0,798.07,227.42Z" transform="translate(-274 -109)"/><path class="cls-3" d="M840.85,221h1.24l.15,2.07h0a4.6,4.6,0,0,1,3.9-2.29,3.68,3.68,0,0,1,1.73.36l-.34,1.28a4.35,4.35,0,0,0-1.62-.29c-1.32,0-2.56.67-3.6,2.5v5.12h-1.5Z" transform="translate(-274 -109)"/><path class="cls-3" d="M854.71,222.21h-4.05V221h5.55v8.75h-1.5Zm-.59-4.19a1.19,1.19,0,1,1,1.19,1.15A1.12,1.12,0,0,1,854.12,218Z" transform="translate(-274 -109)"/><path class="cls-3" d="M861.14,231.36a2.41,2.41,0,0,1,1.44-1.94v-.08a1.58,1.58,0,0,1-.9-1.44,2.12,2.12,0,0,1,1-1.63v-.08a2.8,2.8,0,0,1-1.08-2.27,3.22,3.22,0,0,1,3.44-3.13,3.47,3.47,0,0,1,1.3.22H870v1.2h-2.27a2.71,2.71,0,0,1,.74,1.77c0,1.87-1.5,3-3.39,3a3.75,3.75,0,0,1-1.48-.33,1.21,1.21,0,0,0-.68,1c0,.68.67,1,1.82,1h2c2.25,0,3.33.57,3.33,2,0,1.64-1.89,3.06-4.86,3.06C862.61,233.79,861.14,232.91,861.14,231.36Zm7.43-.4c0-.82-.66-1.06-2-1.06h-1.71a4.92,4.92,0,0,1-1.34-.14c-.83.45-1.11,1-1.11,1.46,0,.91,1,1.49,2.86,1.49C867.31,232.71,868.57,231.87,868.57,231Zm-1.47-7a2,2,0,1,0-2,2.08A2,2,0,0,0,867.1,223.92Z" transform="translate(-274 -109)"/><path class="cls-3" d="M872.32,216.94h1.49v3.49l-.09,2.07h0a4.41,4.41,0,0,1,3.26-1.71c2.07,0,3,1.23,3,3.53v5.44h-1.5v-5.24c0-1.66-.57-2.43-2-2.43-1,0-1.74.52-2.75,1.56v6.11h-1.49Z" transform="translate(-274 -109)"/><path class="cls-3" d="M885.15,226.36v-4.15h-2.48V221.1l2.53-.09.2-2.81h1.24V221h4.29v1.2h-4.29v4.16c0,1.57.53,2.38,2.22,2.38a5.64,5.64,0,0,0,2.09-.4l.32,1.1a7.58,7.58,0,0,1-2.73.52C886,230,885.15,228.52,885.15,226.36Z" transform="translate(-274 -109)"/><path class="cls-3" d="M893.32,231H902v1.28h-8.64Z" transform="translate(-274 -109)"/><path class="cls-3" d="M904.48,225.4c0-2.93,2.23-4.61,4.88-4.61a4.47,4.47,0,0,1,3.19,1.28l-.74,1a3.63,3.63,0,0,0-2.4-1,3.21,3.21,0,0,0-3.4,3.37,3.18,3.18,0,0,0,3.37,3.33,4.12,4.12,0,0,0,2.7-1.1l.67,1a5.24,5.24,0,0,1-3.48,1.36C906.53,230,904.48,228.3,904.48,225.4Z" transform="translate(-274 -109)"/><path class="cls-3" d="M915.51,216.94H917v3.49l-.09,2.07H917a4.41,4.41,0,0,1,3.26-1.71c2.07,0,3,1.23,3,3.53v5.44h-1.5v-5.24c0-1.66-.57-2.43-2-2.43-1,0-1.74.52-2.75,1.56v6.11h-1.5Z" transform="translate(-274 -109)"/><path class="cls-3" d="M930.31,222.21h-4V221h5.55v8.75h-1.5Zm-.59-4.19a1.19,1.19,0,1,1,1.19,1.15A1.12,1.12,0,0,1,929.72,218Z" transform="translate(-274 -109)"/><path class="cls-3" d="M939.87,226.82v-8.68h-3.1v-1.2h4.59v10a1.58,1.58,0,0,0,1.73,1.8,3.91,3.91,0,0,0,1.64-.39l.38,1.11a5.35,5.35,0,0,1-2.34.52C940.9,230,939.87,228.89,939.87,226.82Z" transform="translate(-274 -109)"/><path class="cls-3" d="M947.32,225.4c0-2.84,1.89-4.61,4-4.61a3.75,3.75,0,0,1,2.63,1.12h0l-.07-1.6v-3.37h1.49v12.82h-1.23l-.12-1.15H954A4.22,4.22,0,0,1,951.1,230C948.83,230,947.32,228.32,947.32,225.4Zm6.56,2v-4.36a3.27,3.27,0,0,0-2.29-1c-1.51,0-2.74,1.33-2.74,3.33s1,3.33,2.58,3.33A3.33,3.33,0,0,0,953.88,227.42Z" transform="translate(-274 -109)"/><circle class="cls-1" cx="548.5" cy="33.5" r="33"/><line class="cls-1" x1="526.24" y1="57.54" x2="491.16" y2="92.62"/><path class="cls-3" d="M760.89,205.89a30.28,30.28,0,0,0,2.68-9.41l2.15,4.58,4.58,2.15A30.36,30.36,0,0,0,760.89,205.89Z" transform="translate(-274 -109)"/><line class="cls-1" x1="571.09" y1="57.54" x2="603.73" y2="90.18"/><path class="cls-3" d="M882,203.45a30.11,30.11,0,0,0-9.41-2.69l4.58-2.14,2.15-4.58A30.44,30.44,0,0,0,882,203.45Z" transform="translate(-274 -109)"/></svg>