<svg id="图层_1" data-name="图层 1" xmlns="http://www.w3.org/2000/svg" viewBox="0 0 407 310.49"><defs><style>.cls-1,.cls-3{fill:none;stroke:#3ea69f;stroke-miterlimit:10;}.cls-2{fill:#3ea69f;}.cls-3{stroke-dasharray:6 6;}</style></defs><circle class="cls-1" cx="31.5" cy="97.99" r="31"/><path class="cls-2" d="M493.6,150.69h1l.09.87h.05a3.61,3.61,0,0,1,2.35-1c1.83,0,2.81,1.36,2.81,3.48,0,2.31-1.45,3.67-3.09,3.67a3.21,3.21,0,0,1-2-.88h0l.06,1.28v2.3H493.6Zm5.07,3.31c0-1.5-.56-2.5-1.92-2.5a2.87,2.87,0,0,0-2,1v3.39a2.81,2.81,0,0,0,1.8.79C497.78,156.69,498.67,155.68,498.67,154Z" transform="translate(-486 -56.51)"/><path class="cls-2" d="M501.82,155.73c0-1.52,1.43-2.26,4.95-2.54a1.62,1.62,0,0,0-1.81-1.71,4.76,4.76,0,0,0-2.38.81l-.47-.79a6.08,6.08,0,0,1,3-1,2.54,2.54,0,0,1,2.78,2.81v4.17h-1l-.1-.92h0a4.61,4.61,0,0,1-2.67,1.09A2.07,2.07,0,0,1,501.82,155.73Zm4.95,0V154c-2.92.22-3.8.79-3.8,1.69s.7,1.08,1.48,1.08A3.72,3.72,0,0,0,506.77,155.72Z" transform="translate(-486 -56.51)"/><path class="cls-2" d="M511.13,150.69h1l.11,1.61h0a3.6,3.6,0,0,1,3-1.78,2.86,2.86,0,0,1,1.34.28l-.26,1a3.52,3.52,0,0,0-1.26-.23,3.2,3.2,0,0,0-2.81,2v4h-1.16Z" transform="translate(-486 -56.51)"/><path class="cls-2" d="M518.45,154.08a3.43,3.43,0,0,1,3.48-3.56,2.93,2.93,0,0,1,3.11,3.2,4.46,4.46,0,0,1-.06.7h-5.76v-.9h5.07l-.29.32c0-1.61-.8-2.41-2-2.41a2.4,2.4,0,0,0-2.35,2.65,2.47,2.47,0,0,0,2.66,2.66,3.74,3.74,0,0,0,2.08-.64l.42.76a4.78,4.78,0,0,1-2.64.81A3.45,3.45,0,0,1,518.45,154.08Z" transform="translate(-486 -56.51)"/><path class="cls-2" d="M527.2,150.69h1l.09,1.15h.06a3.53,3.53,0,0,1,2.56-1.32c1.61,0,2.36,1,2.36,2.75v4.23h-1.17v-4.08c0-1.28-.44-1.89-1.55-1.89-.81,0-1.36.41-2.14,1.22v4.75H527.2Z" transform="translate(-486 -56.51)"/><path class="cls-2" d="M537.19,154.85v-3.22h-1.94v-.87l2-.07.15-2.18h1v2.18h3.33v.94h-3.33v3.24c0,1.22.4,1.85,1.72,1.85a4.55,4.55,0,0,0,1.63-.31l.25.85a5.85,5.85,0,0,1-2.13.41C537.83,157.67,537.19,156.53,537.19,154.85Z" transform="translate(-486 -56.51)"/><circle class="cls-1" cx="110.5" cy="197.99" r="31"/><path class="cls-2" d="M581,250.69h1l.09,1.15h.06a3.53,3.53,0,0,1,2.56-1.32c1.61,0,2.36,1,2.36,2.75v4.23h-1.17v-4.08c0-1.29-.44-1.89-1.55-1.89-.81,0-1.36.41-2.14,1.22v4.75H581Z" transform="translate(-486 -56.51)"/><path class="cls-2" d="M588.94,254.11a3.37,3.37,0,1,1,3.36,3.56A3.34,3.34,0,0,1,588.94,254.11Zm5.53,0c0-1.57-.87-2.62-2.17-2.62s-2.17,1-2.17,2.62.87,2.59,2.17,2.59S594.47,255.67,594.47,254.11Z" transform="translate(-486 -56.51)"/><path class="cls-2" d="M597.34,254.11c0-2.21,1.47-3.59,3.08-3.59a3,3,0,0,1,2.05.87h0l-.06-1.24v-2.62h1.16v10h-1l-.1-.9h0a3.25,3.25,0,0,1-2.23,1.07C598.52,257.67,597.34,256.38,597.34,254.11Zm5.1,1.57v-3.39a2.51,2.51,0,0,0-1.78-.79,2.32,2.32,0,0,0-2.13,2.6c0,1.62.76,2.59,2,2.59A2.57,2.57,0,0,0,602.44,255.68Z" transform="translate(-486 -56.51)"/><path class="cls-2" d="M605.85,254.08a3.43,3.43,0,0,1,3.48-3.56,2.93,2.93,0,0,1,3.11,3.2,4.46,4.46,0,0,1-.06.7h-5.76v-.9h5.07l-.29.32c0-1.61-.8-2.41-2-2.41a2.4,2.4,0,0,0-2.35,2.65,2.47,2.47,0,0,0,2.66,2.66,3.76,3.76,0,0,0,2.08-.64l.42.76a4.75,4.75,0,0,1-2.64.81A3.45,3.45,0,0,1,605.85,254.08Z" transform="translate(-486 -56.51)"/><circle class="cls-1" cx="375.5" cy="278.99" r="31"/><path class="cls-2" d="M846,331.69h1l.09,1.15h.06a3.53,3.53,0,0,1,2.56-1.32c1.61,0,2.36,1,2.36,2.75v4.23h-1.17v-4.08c0-1.29-.44-1.89-1.55-1.89-.81,0-1.36.41-2.14,1.22v4.75H846Z" transform="translate(-486 -56.51)"/><path class="cls-2" d="M853.94,335.11a3.37,3.37,0,1,1,3.36,3.56A3.34,3.34,0,0,1,853.94,335.11Zm5.53,0c0-1.57-.86-2.62-2.17-2.62s-2.17,1.05-2.17,2.62.87,2.59,2.17,2.59S859.47,336.67,859.47,335.11Z" transform="translate(-486 -56.51)"/><path class="cls-2" d="M862.34,335.11c0-2.21,1.47-3.59,3.08-3.59a3,3,0,0,1,2.05.87h0l-.06-1.24v-2.62h1.16v10h-1l-.1-.9h0a3.25,3.25,0,0,1-2.23,1.07C863.52,338.67,862.34,337.38,862.34,335.11Zm5.1,1.57v-3.39a2.51,2.51,0,0,0-1.78-.79,2.32,2.32,0,0,0-2.13,2.6c0,1.62.76,2.59,2,2.59A2.57,2.57,0,0,0,867.44,336.68Z" transform="translate(-486 -56.51)"/><path class="cls-2" d="M870.85,335.08a3.43,3.43,0,0,1,3.48-3.56,2.93,2.93,0,0,1,3.11,3.2,4.46,4.46,0,0,1-.06.7h-5.76v-.9h5.07l-.29.32c0-1.61-.8-2.41-2-2.41a2.4,2.4,0,0,0-2.35,2.65,2.47,2.47,0,0,0,2.66,2.66,3.76,3.76,0,0,0,2.08-.64l.42.76a4.75,4.75,0,0,1-2.64.81A3.45,3.45,0,0,1,870.85,335.08Z" transform="translate(-486 -56.51)"/><circle class="cls-1" cx="162.5" cy="275.99" r="31"/><path class="cls-2" d="M628.62,332.11a3.54,3.54,0,0,1,3.8-3.59,3.46,3.46,0,0,1,2.48,1l-.58.74a2.84,2.84,0,0,0-1.86-.77,2.5,2.5,0,0,0-2.65,2.62,2.47,2.47,0,0,0,2.62,2.59,3.26,3.26,0,0,0,2.1-.85l.52.75a4,4,0,0,1-2.7,1.07A3.44,3.44,0,0,1,628.62,332.11Z" transform="translate(-486 -56.51)"/><path class="cls-2" d="M637.2,325.53h1.17v2.71l-.07,1.62h0a3.39,3.39,0,0,1,2.53-1.34c1.61,0,2.36,1,2.36,2.75v4.23h-1.17v-4.08c0-1.29-.44-1.89-1.55-1.89-.81,0-1.36.41-2.14,1.22v4.75H637.2Z" transform="translate(-486 -56.51)"/><path class="cls-2" d="M648.71,329.63h-3.15v-.94h4.32v6.81h-1.17Zm-.46-3.26a.93.93,0,1,1,.92.89A.87.87,0,0,1,648.25,326.37Z" transform="translate(-486 -56.51)"/><path class="cls-2" d="M656.15,333.22v-6.76h-2.41v-.93h3.57v7.77a1.23,1.23,0,0,0,1.34,1.4,3.1,3.1,0,0,0,1.28-.31l.29.87a4.09,4.09,0,0,1-1.82.41C656.94,335.67,656.15,334.83,656.15,333.22Z" transform="translate(-486 -56.51)"/><path class="cls-2" d="M661.94,332.11c0-2.21,1.47-3.59,3.08-3.59a3,3,0,0,1,2.05.87h0l-.05-1.24v-2.62h1.16v10h-1l-.1-.9h0a3.25,3.25,0,0,1-2.23,1.07C663.12,335.67,661.94,334.38,661.94,332.11Zm5.1,1.57v-3.39a2.51,2.51,0,0,0-1.78-.79,2.32,2.32,0,0,0-2.13,2.6c0,1.62.76,2.59,2,2.59A2.57,2.57,0,0,0,667,333.68Z" transform="translate(-486 -56.51)"/><circle class="cls-1" cx="235.5" cy="97.99" r="31"/><path class="cls-2" d="M697.6,150.69h1l.09.87h.05a3.61,3.61,0,0,1,2.35-1c1.83,0,2.81,1.36,2.81,3.48,0,2.31-1.45,3.67-3.09,3.67a3.21,3.21,0,0,1-2-.88h0l.06,1.28v2.3H697.6Zm5.07,3.31c0-1.5-.56-2.5-1.92-2.5a2.87,2.87,0,0,0-2,1v3.39a2.81,2.81,0,0,0,1.8.79C701.78,156.69,702.67,155.68,702.67,154Z" transform="translate(-486 -56.51)"/><path class="cls-2" d="M705.82,155.73c0-1.52,1.43-2.26,4.95-2.54a1.62,1.62,0,0,0-1.81-1.71,4.76,4.76,0,0,0-2.38.81l-.46-.79a6,6,0,0,1,3-1,2.54,2.54,0,0,1,2.78,2.81v4.17h-1l-.1-.92h0a4.61,4.61,0,0,1-2.67,1.09A2.07,2.07,0,0,1,705.82,155.73Zm4.95,0V154c-2.92.22-3.8.79-3.8,1.69s.7,1.08,1.48,1.08A3.72,3.72,0,0,0,710.77,155.72Z" transform="translate(-486 -56.51)"/><path class="cls-2" d="M715.13,150.69h1l.11,1.61h0a3.6,3.6,0,0,1,3-1.78,2.86,2.86,0,0,1,1.34.28l-.26,1a3.52,3.52,0,0,0-1.26-.23,3.2,3.2,0,0,0-2.81,2v4h-1.16Z" transform="translate(-486 -56.51)"/><path class="cls-2" d="M722.45,154.08a3.43,3.43,0,0,1,3.48-3.56,2.93,2.93,0,0,1,3.11,3.2,4.46,4.46,0,0,1-.06.7h-5.76v-.9h5.07l-.29.32c0-1.61-.8-2.41-2-2.41a2.4,2.4,0,0,0-2.36,2.65,2.47,2.47,0,0,0,2.66,2.66,3.74,3.74,0,0,0,2.08-.64l.42.76a4.78,4.78,0,0,1-2.64.81A3.45,3.45,0,0,1,722.45,154.08Z" transform="translate(-486 -56.51)"/><path class="cls-2" d="M731.2,150.69h1l.09,1.15h.06a3.53,3.53,0,0,1,2.56-1.32c1.61,0,2.36,1,2.36,2.75v4.23h-1.17v-4.08c0-1.28-.44-1.89-1.55-1.89-.81,0-1.36.41-2.14,1.22v4.75H731.2Z" transform="translate(-486 -56.51)"/><path class="cls-2" d="M741.19,154.85v-3.22h-1.94v-.87l2-.07.15-2.18h1v2.18h3.33v.94h-3.33v3.24c0,1.22.4,1.85,1.72,1.85a4.55,4.55,0,0,0,1.63-.31l.25.85a5.85,5.85,0,0,1-2.13.41C741.83,157.67,741.19,156.53,741.19,154.85Z" transform="translate(-486 -56.51)"/><circle class="cls-1" cx="314.5" cy="197.99" r="31"/><path class="cls-2" d="M780.62,254.11a3.54,3.54,0,0,1,3.8-3.59,3.46,3.46,0,0,1,2.48,1l-.58.74a2.84,2.84,0,0,0-1.86-.77,2.5,2.5,0,0,0-2.65,2.62,2.47,2.47,0,0,0,2.62,2.59,3.26,3.26,0,0,0,2.1-.85l.52.75a4,4,0,0,1-2.7,1.07A3.44,3.44,0,0,1,780.62,254.11Z" transform="translate(-486 -56.51)"/><path class="cls-2" d="M789.2,247.53h1.17v2.71l-.07,1.62h0a3.39,3.39,0,0,1,2.53-1.34c1.61,0,2.36,1,2.36,2.75v4.23h-1.17v-4.08c0-1.29-.44-1.89-1.55-1.89-.81,0-1.36.41-2.14,1.22v4.75H789.2Z" transform="translate(-486 -56.51)"/><path class="cls-2" d="M800.71,251.63h-3.15v-.94h4.32v6.81h-1.17Zm-.46-3.26a.93.93,0,1,1,.92.89A.87.87,0,0,1,800.25,248.37Z" transform="translate(-486 -56.51)"/><path class="cls-2" d="M808.15,255.22v-6.76h-2.41v-.93h3.57v7.77a1.23,1.23,0,0,0,1.34,1.4,3.1,3.1,0,0,0,1.28-.31l.29.87a4.09,4.09,0,0,1-1.82.41C808.94,257.67,808.15,256.83,808.15,255.22Z" transform="translate(-486 -56.51)"/><path class="cls-2" d="M813.94,254.11c0-2.21,1.47-3.59,3.08-3.59a3,3,0,0,1,2.05.87h0l-.06-1.24v-2.62h1.16v10h-1l-.1-.9h0a3.25,3.25,0,0,1-2.23,1.07C815.12,257.67,813.94,256.38,813.94,254.11Zm5.1,1.57v-3.39a2.51,2.51,0,0,0-1.78-.79,2.32,2.32,0,0,0-2.13,2.6c0,1.62.76,2.59,2,2.59A2.57,2.57,0,0,0,819,255.68Z" transform="translate(-486 -56.51)"/><line class="cls-1" x1="253.35" y1="123.33" x2="292.77" y2="175.89"/><line class="cls-1" x1="49.35" y1="123.33" x2="88.77" y2="175.89"/><path class="cls-2" d="M581.73,58.69h1l.11,1.61h0a3.6,3.6,0,0,1,3-1.78,2.86,2.86,0,0,1,1.34.28l-.26,1a3.52,3.52,0,0,0-1.26-.23,3.2,3.2,0,0,0-2.81,2v4h-1.16Z" transform="translate(-486 -56.51)"/><path class="cls-2" d="M588.94,62.11a3.37,3.37,0,1,1,3.36,3.56A3.34,3.34,0,0,1,588.94,62.11Zm5.53,0c0-1.57-.87-2.62-2.17-2.62s-2.17,1-2.17,2.62.87,2.59,2.17,2.59S594.47,63.67,594.47,62.11Z" transform="translate(-486 -56.51)"/><path class="cls-2" d="M597.34,62.11a3.37,3.37,0,1,1,3.36,3.56A3.34,3.34,0,0,1,597.34,62.11Zm5.53,0c0-1.57-.87-2.62-2.17-2.62s-2.17,1-2.17,2.62.87,2.59,2.17,2.59S602.87,63.67,602.87,62.11Z" transform="translate(-486 -56.51)"/><path class="cls-2" d="M607.79,62.85V59.63h-1.94v-.87l2-.07.15-2.18h1v2.18h3.33v.94H609v3.24c0,1.22.4,1.85,1.72,1.85a4.55,4.55,0,0,0,1.63-.31l.25.85a5.85,5.85,0,0,1-2.13.41C608.43,65.67,607.79,64.53,607.79,62.85Z" transform="translate(-486 -56.51)"/><path class="cls-2" d="M846.73,58.69h1l.11,1.61h0a3.6,3.6,0,0,1,3-1.78,2.86,2.86,0,0,1,1.34.28l-.26,1a3.52,3.52,0,0,0-1.26-.23,3.2,3.2,0,0,0-2.81,2v4h-1.16Z" transform="translate(-486 -56.51)"/><path class="cls-2" d="M853.94,62.11a3.37,3.37,0,1,1,3.36,3.56A3.34,3.34,0,0,1,853.94,62.11Zm5.53,0c0-1.57-.86-2.62-2.17-2.62s-2.17,1-2.17,2.62.87,2.59,2.17,2.59S859.47,63.67,859.47,62.11Z" transform="translate(-486 -56.51)"/><path class="cls-2" d="M862.34,62.11a3.37,3.37,0,1,1,3.36,3.56A3.34,3.34,0,0,1,862.34,62.11Zm5.53,0c0-1.57-.87-2.62-2.17-2.62s-2.17,1-2.17,2.62.87,2.59,2.17,2.59S867.87,63.67,867.87,62.11Z" transform="translate(-486 -56.51)"/><path class="cls-2" d="M872.79,62.85V59.63h-1.94v-.87l2-.07.15-2.18h1v2.18h3.33v.94H874v3.24c0,1.22.4,1.85,1.72,1.85a4.55,4.55,0,0,0,1.63-.31l.25.85a5.85,5.85,0,0,1-2.13.41C873.43,65.67,872.79,64.53,872.79,62.85Z" transform="translate(-486 -56.51)"/><polyline class="cls-3" points="283 197.49 236 197.49 236 145.53"/><path class="cls-2" d="M722,196a30.1,30.1,0,0,0,4.76,8.55L722,202.83l-4.75,1.72A30.31,30.31,0,0,0,722,196Z" transform="translate(-486 -56.51)"/><polyline class="cls-3" points="79 197.49 32 197.49 32 145.53"/><path class="cls-2" d="M518,196a30.1,30.1,0,0,0,4.76,8.55L518,202.83l-4.75,1.72A30.31,30.31,0,0,0,518,196Z" transform="translate(-486 -56.51)"/><path class="cls-2" d="M779.1,186.38A9.25,9.25,0,0,1,788,192a10,10,0,0,1,.38,2v1.58q0,4.14-6.1,9.25a9.8,9.8,0,0,1-5.32,1.58q-5.94,0-8.07-6.21a7,7,0,0,1-.19-1.67v-1.28q0-2.79,3-6.29h.1V191a17.3,17.3,0,0,0-1.68,6.61q0,4.8,4.92,7.39a6.74,6.74,0,0,0,2.07.49h1.48q4.5,0,7.77-7.88a9.16,9.16,0,0,0,.4-2.76c0-2.47-1.37-4.44-4.13-5.9a9,9,0,0,0-4-1h-.88a15.27,15.27,0,0,0-6.4,1.29V189a9.79,9.79,0,0,1,5.42-2.36A10.35,10.35,0,0,1,779.1,186.38Zm-1.69,3.55a3.25,3.25,0,0,1,2,1.37l.4.9a6.47,6.47,0,0,1-1.17,2.65v.2q1.38,0,2.16,2.16v.6c0,1.23-1.12,2.6-3.36,4.13h-.28a1.28,1.28,0,0,1-.9-.6c0-.19.79-.81,2.38-1.86a3.63,3.63,0,0,0,1.07-2.27.89.89,0,0,0-.49-.79h-1a7.85,7.85,0,0,0-2.27.79,1.44,1.44,0,0,1-.88-.69c0-.17.76-.79,2.27-1.86a4.58,4.58,0,0,0,1.29-2.46V192c0-.1-.24-.32-.71-.69h-.68a3.2,3.2,0,0,1-1.37.6q-.6-.22-.6-.69C775.25,190.79,776,190.37,777.41,189.93Z" transform="translate(-486 -56.51)"/><path class="cls-2" d="M812.19,345.38a9.52,9.52,0,0,1,8.36,4.73,7.84,7.84,0,0,1,.79,3.25v1.18q0,4.08-5.9,9.16a10,10,0,0,1-5.52,1.67q-5.73,0-8-5.8a6.78,6.78,0,0,1-.3-1.78v-1.28q0-3.09,2.84-6.51h.21a17.5,17.5,0,0,0-1.68,6.51q0,5.07,5.13,7.57a6.63,6.63,0,0,0,1.86.41h1.59q4.07,0,7.47-7.19a11.74,11.74,0,0,0,.59-3.15q0-5.22-6.39-7a13.81,13.81,0,0,0-2.08-.2h-.58a15.74,15.74,0,0,0-6.4,1.29V348a10.32,10.32,0,0,1,5.31-2.36A22.37,22.37,0,0,1,812.19,345.38ZM811,350.3a1,1,0,0,1,.79,1v2l-.11,1a.74.74,0,0,0,.3.11,9,9,0,0,1,1.58-.5c.66.16,1,.42,1,.79s-.66.65-2,.78a1.51,1.51,0,0,0-1.2,1.58v.49a4.66,4.66,0,0,0,.11.88q-.21,1.2-.69,1.2c-.52-.26-.79-.59-.79-1v-2.37h-1.17c-1-.11-1.48-.46-1.48-1.07a27.6,27.6,0,0,0,2.76-4.15Zm-1.37,4.13v.21h.58c.13,0,.19-.07.19-.21v-1.17h-.09A1.69,1.69,0,0,0,809.64,354.43Z" transform="translate(-486 -56.51)"/><path class="cls-2" d="M736,261.38h.39a9.4,9.4,0,0,1,7.68,3.94,7.44,7.44,0,0,1,1.28,3.74v1.48q0,4-5.71,9a9.7,9.7,0,0,1-5.61,1.87q-5.84,0-8-5.72a5.16,5.16,0,0,1-.38-2.16v-1.28c0-1.61.92-3.7,2.76-6.29h.29V266a17.26,17.26,0,0,0-1.68,6.4c0,3.49,1.74,6.06,5.22,7.68a6.88,6.88,0,0,0,2.07.41h1.07q4.47,0,7.69-7.38a8.69,8.69,0,0,0,.59-3.06q0-5-6.2-6.89a16.64,16.64,0,0,0-1.67-.2h-1.48a14.41,14.41,0,0,0-6.1,1.29V264c0-.47,1.24-1.13,3.73-2A15,15,0,0,1,736,261.38Zm-1.47,5.71c1.84.3,2.76,1,2.76,2.08q0,.75-2.57,3.83c0,.07,0,.11.1.11l2.06-.5a.63.63,0,0,1,.49.69c0,.43-.55.7-1.67.79a7.37,7.37,0,0,1-2.55.69h-.21a1.09,1.09,0,0,1-.49-.6,29.91,29.91,0,0,1,2.87-3.45l.88-1.47c0-.53-.4-.8-1.18-.8h-1.58a.65.65,0,0,1-.39-.68v-.09C733.24,267.29,733.73,267.09,734.52,267.09Z" transform="translate(-486 -56.51)"/><path class="cls-2" d="M841.11,275.49h1.76q4.77,0,7.68,4.62a7.2,7.2,0,0,1,.79,2.95v1.48q0,3.9-5.6,8.86a9.88,9.88,0,0,1-5.91,2q-4.67,0-7.38-4.54a9.49,9.49,0,0,1-.79-3.14v-1.48q0-2.46,2.76-6.29h.29V280a17.17,17.17,0,0,0-1.68,6.4q0,5.31,5.32,7.68a6.77,6.77,0,0,0,2.06.41h.79q5.07,0,8.18-8.28a9.76,9.76,0,0,0,.29-2.16q0-5-6.2-6.89a9.31,9.31,0,0,0-1.78-.2h-1.77a13.19,13.19,0,0,0-5.7,1.29V278q0-.8,4.52-2.25A14.9,14.9,0,0,1,841.11,275.49Zm0,5c.17,0,.4.23.69.7a.63.63,0,0,1-.11.28c-.06,3.15-.08,5.58-.08,7.3,0,.52-.24.79-.71.79-.24,0-.47-.24-.68-.71.13-1.48.19-2.93.19-4.32v-2.76A1.43,1.43,0,0,1,841.11,280.5Z" transform="translate(-486 -56.51)"/><line class="cls-3" x1="110.5" y1="166.99" x2="110.5" y2="22.03"/><path class="cls-2" d="M596.5,72.5a30.1,30.1,0,0,0,4.76,8.55l-4.76-1.72-4.75,1.72A30.31,30.31,0,0,0,596.5,72.5Z" transform="translate(-486 -56.51)"/><line class="cls-1" x1="330.92" y1="224.28" x2="355.6" y2="255.23"/><line class="cls-3" x1="375.5" y1="247.99" x2="375.5" y2="22.03"/><path class="cls-2" d="M861.5,72.5a30.1,30.1,0,0,0,4.76,8.55l-4.76-1.72-4.75,1.72A30.31,30.31,0,0,0,861.5,72.5Z" transform="translate(-486 -56.51)"/><polyline class="cls-3" points="344.5 281.99 314.5 281.99 314.5 246.03"/><path class="cls-2" d="M800.5,296.5a30.1,30.1,0,0,0,4.76,8.55l-4.76-1.72-4.75,1.72A30.31,30.31,0,0,0,800.5,296.5Z" transform="translate(-486 -56.51)"/></svg>