<svg id="图层_1" data-name="图层 1" xmlns="http://www.w3.org/2000/svg" viewBox="0 0 434.43 579.58"><defs><style>.cls-1{fill:none;stroke:#3ea69f;stroke-miterlimit:10;}.cls-2{fill:#3ea69f;}</style></defs><circle class="cls-1" cx="56.4" cy="265.27" r="18"/><path class="cls-2" d="M390.53,335.82h3.86V326h-3v-1.14a9.5,9.5,0,0,0,3.44-1h1.3v11.95h3.49v1.45h-9.09Z" transform="translate(-344.69 -66)"/><path class="cls-2" d="M402.58,330.53c0-4.49,1.83-6.91,4.81-6.91s4.81,2.42,4.81,6.91-1.83,7-4.81,7S402.58,335,402.58,330.53Zm8,0c0-3.84-1.32-5.5-3.19-5.5s-3.19,1.66-3.19,5.5,1.32,5.59,3.19,5.59S410.58,334.37,410.58,330.53Zm-4.49-.15a1.3,1.3,0,1,1,1.3,1.41A1.3,1.3,0,0,1,406.09,330.38Z" transform="translate(-344.69 -66)"/><circle class="cls-1" cx="26.4" cy="342.27" r="18"/><path class="cls-2" d="M360.53,412.82h3.86V403h-3v-1.14a9.5,9.5,0,0,0,3.44-1h1.3v11.95h3.49v1.45h-9.09Z" transform="translate(-344.69 -66)"/><path class="cls-2" d="M372.58,407.53c0-4.49,1.83-6.91,4.81-6.91s4.81,2.42,4.81,6.91-1.83,7-4.81,7S372.58,412,372.58,407.53Zm8,0c0-3.84-1.32-5.5-3.19-5.5s-3.19,1.66-3.19,5.5,1.32,5.59,3.19,5.59S380.58,411.37,380.58,407.53Zm-4.49-.15a1.3,1.3,0,1,1,1.3,1.41A1.3,1.3,0,0,1,376.09,407.38Z" transform="translate(-344.69 -66)"/><circle class="cls-1" cx="81.4" cy="342.27" r="18"/><path class="cls-2" d="M421.45,413.12l1-1.1a3.93,3.93,0,0,0,2.66,1.05c2.16,0,4.07-1.53,4.07-6,0-3.3-1.28-5.06-3.48-5.06a2.77,2.77,0,0,0-2.84,2.92,2.57,2.57,0,0,0,2.86,2.83,4.69,4.69,0,0,0,3.49-1.89l.06,1.37a5.55,5.55,0,0,1-3.89,1.82,3.79,3.79,0,0,1-4.15-4.13,4.32,4.32,0,0,1,4.45-4.31c2.92,0,5.14,2.14,5.14,6.45,0,5.37-2.71,7.45-5.6,7.45A5.44,5.44,0,0,1,421.45,413.12Z" transform="translate(-344.69 -66)"/><circle class="cls-1" cx="115.49" cy="191.96" r="18"/><path class="cls-2" d="M455.54,262.81l1-1.09a4,4,0,0,0,2.67,1c2.16,0,4.07-1.54,4.07-6,0-3.29-1.28-5.06-3.48-5.06a2.77,2.77,0,0,0-2.84,2.92,2.57,2.57,0,0,0,2.86,2.84,4.72,4.72,0,0,0,3.49-1.89l.06,1.36a5.56,5.56,0,0,1-3.89,1.83,3.79,3.79,0,0,1-4.15-4.14,4.31,4.31,0,0,1,4.45-4.3c2.92,0,5.14,2.14,5.14,6.44,0,5.38-2.71,7.46-5.6,7.46A5.4,5.4,0,0,1,455.54,262.81Z" transform="translate(-344.69 -66)"/><line class="cls-1" x1="49.34" y1="281.83" x2="32.53" y2="325.34"/><circle class="cls-1" cx="133.81" cy="342.42" r="18"/><path class="cls-2" d="M467.43,413.39c4.54-4,7-6.36,7-8.58,0-1.54-.93-2.61-2.9-2.61a4.62,4.62,0,0,0-3.21,1.6l-1-1a6,6,0,0,1,4.43-2c2.69,0,4.37,1.57,4.37,3.94s-2.52,5-6.16,8.32c.84-.07,1.7-.11,2.5-.11h4.39v1.49h-9.43Z" transform="translate(-344.69 -66)"/><path class="cls-2" d="M480,407.68c0-4.49,1.83-6.9,4.81-6.9s4.81,2.41,4.81,6.9-1.83,7-4.81,7S480,412.13,480,407.68Zm8,0c0-3.84-1.32-5.5-3.19-5.5s-3.19,1.66-3.19,5.5,1.32,5.59,3.19,5.59S488,411.53,488,407.68Zm-4.49-.14a1.3,1.3,0,1,1,1.3,1.4A1.31,1.31,0,0,1,483.5,407.54Z" transform="translate(-344.69 -66)"/><line class="cls-1" x1="156.75" y1="281.98" x2="139.94" y2="325.5"/><line class="cls-1" x1="63.63" y1="281.83" x2="75.27" y2="325.34"/><circle class="cls-1" cx="190.81" cy="342.5" r="18"/><path class="cls-2" d="M530.82,408.31c0-5.38,2.68-7.46,5.6-7.46a5.32,5.32,0,0,1,3.74,1.43l-1,1.09a3.93,3.93,0,0,0-2.66-1.07c-2.19,0-4.08,1.53-4.08,6,0,3.29,1.26,5.08,3.49,5.08a2.78,2.78,0,0,0,2.81-2.94,2.55,2.55,0,0,0-2.83-2.84,4.73,4.73,0,0,0-3.51,1.89l-.06-1.36a5.68,5.68,0,0,1,3.88-1.83,3.81,3.81,0,0,1,4.18,4.14,4.32,4.32,0,0,1-4.47,4.3C533,414.75,530.82,412.61,530.82,408.31Z" transform="translate(-344.69 -66)"/><line class="cls-1" x1="173.04" y1="282.06" x2="184.68" y2="325.57"/><circle class="cls-1" cx="165.4" cy="265.27" r="18"/><path class="cls-2" d="M499,336.24c4.54-4,7-6.36,7-8.59,0-1.53-.93-2.6-2.9-2.6a4.58,4.58,0,0,0-3.21,1.6l-1-1a6,6,0,0,1,4.43-2c2.69,0,4.37,1.58,4.37,3.95s-2.52,5-6.16,8.31c.84-.06,1.7-.1,2.5-.1h4.39v1.49H499Z" transform="translate(-344.69 -66)"/><path class="cls-2" d="M511.58,330.53c0-4.49,1.83-6.91,4.81-6.91s4.81,2.42,4.81,6.91-1.83,7-4.81,7S511.58,335,511.58,330.53Zm8,0c0-3.84-1.32-5.5-3.19-5.5s-3.19,1.66-3.19,5.5,1.32,5.59,3.19,5.59S519.58,334.37,519.58,330.53Zm-4.49-.15a1.3,1.3,0,1,1,1.3,1.41A1.3,1.3,0,0,1,515.09,330.38Z" transform="translate(-344.69 -66)"/><line class="cls-1" x1="101.22" y1="202.92" x2="63.4" y2="248.68"/><line class="cls-1" x1="129.76" y1="202.92" x2="158.4" y2="248.68"/><circle class="cls-1" cx="277.4" cy="265.27" r="18"/><path class="cls-2" d="M617.45,336.12l1-1.1a3.93,3.93,0,0,0,2.66,1.05c2.16,0,4.07-1.53,4.07-6,0-3.3-1.28-5.06-3.48-5.06a2.77,2.77,0,0,0-2.84,2.92,2.57,2.57,0,0,0,2.86,2.83,4.69,4.69,0,0,0,3.49-1.89l.06,1.37a5.55,5.55,0,0,1-3.89,1.82,3.79,3.79,0,0,1-4.15-4.13,4.32,4.32,0,0,1,4.45-4.31c2.92,0,5.14,2.14,5.14,6.45,0,5.37-2.71,7.45-5.6,7.45A5.44,5.44,0,0,1,617.45,336.12Z" transform="translate(-344.69 -66)"/><circle class="cls-1" cx="247.4" cy="342.27" r="18"/><path class="cls-2" d="M587.22,410.85c0-1.85,1.43-2.9,2.87-3.57v-.09a3.75,3.75,0,0,1-2-3.12c0-2.06,1.74-3.45,4.13-3.45,2.63,0,4.16,1.49,4.16,3.57a4.18,4.18,0,0,1-2,3.19v.09c1.47.73,2.63,1.57,2.63,3.48s-1.74,3.57-4.81,3.57S587.22,413,587.22,410.85Zm8.06,0c0-1.85-1.87-2.33-4.2-3.11-1.3.7-2.29,1.56-2.29,2.9s1.33,2.54,3.38,2.54S595.28,412.28,595.28,410.89Zm-.44-6.61a2.38,2.38,0,0,0-2.69-2.36,2.22,2.22,0,0,0-2.5,2.15c0,1.59,1.54,2.26,3.53,2.89A3.39,3.39,0,0,0,594.84,404.28Z" transform="translate(-344.69 -66)"/><circle class="cls-1" cx="302.4" cy="342.27" r="18"/><path class="cls-2" d="M642.45,413.12l1-1.1a3.93,3.93,0,0,0,2.66,1.05c2.16,0,4.07-1.53,4.07-6,0-3.3-1.28-5.06-3.48-5.06a2.77,2.77,0,0,0-2.84,2.92,2.57,2.57,0,0,0,2.86,2.83,4.69,4.69,0,0,0,3.49-1.89l.06,1.37a5.55,5.55,0,0,1-3.89,1.82,3.79,3.79,0,0,1-4.15-4.13,4.32,4.32,0,0,1,4.45-4.31c2.92,0,5.14,2.14,5.14,6.45,0,5.37-2.71,7.45-5.6,7.45A5.44,5.44,0,0,1,642.45,413.12Z" transform="translate(-344.69 -66)"/><circle class="cls-1" cx="336.49" cy="191.96" r="18"/><path class="cls-2" d="M670.62,262.52h3.86v-9.83h-3v-1.13a9.71,9.71,0,0,0,3.44-1h1.3v11.95h3.49V264h-9.09Z" transform="translate(-344.69 -66)"/><path class="cls-2" d="M690.36,252.08h-7.71v-1.51h9.7v1.07c-3.55,4.05-4.41,7.07-4.62,12.32H685.9A17.92,17.92,0,0,1,690.36,252.08Z" transform="translate(-344.69 -66)"/><line class="cls-1" x1="270.34" y1="281.83" x2="253.53" y2="325.34"/><circle class="cls-1" cx="354.81" cy="342.42" r="18"/><path class="cls-2" d="M688.56,413.27l1-1.09a3.93,3.93,0,0,0,2.66,1.05c2.16,0,4.07-1.54,4.07-6,0-3.29-1.28-5.06-3.48-5.06a2.77,2.77,0,0,0-2.83,2.92,2.56,2.56,0,0,0,2.85,2.84,4.72,4.72,0,0,0,3.49-1.89l.06,1.36a5.56,5.56,0,0,1-3.89,1.83,3.79,3.79,0,0,1-4.15-4.14,4.31,4.31,0,0,1,4.45-4.3c2.92,0,5.14,2.14,5.14,6.44,0,5.38-2.71,7.46-5.6,7.46A5.4,5.4,0,0,1,688.56,413.27Z" transform="translate(-344.69 -66)"/><path class="cls-2" d="M701,407.68c0-4.49,1.83-6.9,4.81-6.9s4.81,2.41,4.81,6.9-1.83,7-4.81,7S701,412.13,701,407.68Zm8,0c0-3.84-1.32-5.5-3.19-5.5s-3.19,1.66-3.19,5.5,1.32,5.59,3.19,5.59S709,411.53,709,407.68Zm-4.49-.14a1.3,1.3,0,1,1,1.3,1.4A1.31,1.31,0,0,1,704.5,407.54Z" transform="translate(-344.69 -66)"/><line class="cls-1" x1="377.75" y1="281.98" x2="360.94" y2="325.5"/><line class="cls-1" x1="284.63" y1="281.83" x2="296.27" y2="325.34"/><circle class="cls-1" cx="411.81" cy="342.5" r="18"/><path class="cls-2" d="M745.94,413.05h3.86v-9.83h-3v-1.13a9.5,9.5,0,0,0,3.44-1h1.3v11.95H755v1.45h-9.09Z" transform="translate(-344.69 -66)"/><path class="cls-2" d="M765.68,402.62H758V401.1h9.7v1.08c-3.55,4.05-4.41,7.07-4.62,12.32h-1.83A17.9,17.9,0,0,1,765.68,402.62Z" transform="translate(-344.69 -66)"/><line class="cls-1" x1="394.04" y1="282.06" x2="405.68" y2="325.57"/><circle class="cls-1" cx="386.4" cy="265.27" r="18"/><path class="cls-2" d="M720.15,336.12l1-1.1a3.93,3.93,0,0,0,2.66,1.05c2.16,0,4.07-1.53,4.07-6,0-3.3-1.28-5.06-3.48-5.06a2.76,2.76,0,0,0-2.83,2.92,2.56,2.56,0,0,0,2.85,2.83,4.69,4.69,0,0,0,3.49-1.89l.06,1.37a5.55,5.55,0,0,1-3.89,1.82,3.79,3.79,0,0,1-4.15-4.13,4.32,4.32,0,0,1,4.45-4.31c2.92,0,5.14,2.14,5.14,6.45,0,5.37-2.71,7.45-5.6,7.45A5.44,5.44,0,0,1,720.15,336.12Z" transform="translate(-344.69 -66)"/><path class="cls-2" d="M732.58,330.53c0-4.49,1.83-6.91,4.81-6.91s4.81,2.42,4.81,6.91-1.83,7-4.81,7S732.58,335,732.58,330.53Zm8,0c0-3.84-1.32-5.5-3.19-5.5s-3.19,1.66-3.19,5.5,1.32,5.59,3.19,5.59S740.58,334.37,740.58,330.53Zm-4.49-.15a1.3,1.3,0,1,1,1.3,1.41A1.3,1.3,0,0,1,736.09,330.38Z" transform="translate(-344.69 -66)"/><line class="cls-1" x1="322.22" y1="202.92" x2="284.4" y2="248.68"/><line class="cls-1" x1="350.76" y1="202.92" x2="379.4" y2="248.68"/><circle class="cls-1" cx="224.81" cy="116.5" r="18"/><path class="cls-2" d="M564.63,185.08c0-1.85,1.43-2.9,2.87-3.57v-.09a3.75,3.75,0,0,1-2-3.12c0-2.06,1.74-3.45,4.13-3.45,2.63,0,4.16,1.49,4.16,3.57a4.18,4.18,0,0,1-2,3.19v.09c1.47.73,2.63,1.57,2.63,3.48s-1.74,3.57-4.81,3.57S564.63,187.2,564.63,185.08Zm8.06,0c0-1.85-1.87-2.33-4.2-3.11-1.3.7-2.29,1.56-2.29,2.9s1.33,2.54,3.38,2.54S572.69,186.51,572.69,185.12Zm-.44-6.61a2.39,2.39,0,0,0-2.69-2.36,2.22,2.22,0,0,0-2.5,2.15c0,1.59,1.54,2.26,3.53,2.89A3.39,3.39,0,0,0,572.25,178.51Z" transform="translate(-344.69 -66)"/><circle class="cls-1" cx="224.81" cy="18.5" r="18"/><path class="cls-2" d="M564.82,84.31c0-5.38,2.68-7.46,5.6-7.46a5.32,5.32,0,0,1,3.74,1.43l-1,1.09a3.93,3.93,0,0,0-2.66-1.07c-2.19,0-4.08,1.53-4.08,6,0,3.29,1.26,5.08,3.49,5.08a2.78,2.78,0,0,0,2.81-2.94,2.55,2.55,0,0,0-2.83-2.84,4.73,4.73,0,0,0-3.51,1.89l-.06-1.36a5.68,5.68,0,0,1,3.88-1.83,3.81,3.81,0,0,1,4.18,4.14,4.32,4.32,0,0,1-4.47,4.3C567,90.75,564.82,88.61,564.82,84.31Z" transform="translate(-344.69 -66)"/><line class="cls-1" x1="210.54" y1="127.46" x2="123.31" y2="176"/><line class="cls-1" x1="239.08" y1="127.46" x2="330.31" y2="175"/><rect class="cls-1" x="8.31" y="377" width="36" height="181.5"/><path class="cls-2" d="M360.44,467.55h3.86v-9.83h-3v-1.13a9.5,9.5,0,0,0,3.44-1H366v11.95h3.49V469h-9.09Z" transform="translate(-344.69 -66)"/><path class="cls-2" d="M372.18,467.43l.86-1.16a5.31,5.31,0,0,0,3.78,1.53,3.11,3.11,0,0,0,3.38-3c0-1.85-1.31-2.92-3.28-2.92a5,5,0,0,0-2.73.8l-.92-.59.44-6.45h7.58v1.52h-6.05l-.36,3.94a5.84,5.84,0,0,1,2.48-.54c2.56,0,4.6,1.3,4.6,4.2s-2.39,4.53-5,4.53A6.71,6.71,0,0,1,372.18,467.43Z" transform="translate(-344.69 -66)"/><path class="cls-2" d="M360.44,503.55h3.86v-9.83h-3v-1.13a9.5,9.5,0,0,0,3.44-1H366v11.95h3.49V505h-9.09Z" transform="translate(-344.69 -66)"/><path class="cls-2" d="M372.62,498.81c0-5.38,2.68-7.46,5.6-7.46a5.32,5.32,0,0,1,3.74,1.43l-1,1.09a3.93,3.93,0,0,0-2.66-1.07c-2.19,0-4.08,1.53-4.08,6,0,3.29,1.26,5.08,3.49,5.08a2.78,2.78,0,0,0,2.81-2.94,2.55,2.55,0,0,0-2.83-2.84,4.73,4.73,0,0,0-3.51,1.89l-.06-1.36a5.68,5.68,0,0,1,3.88-1.83,3.81,3.81,0,0,1,4.18,4.14,4.32,4.32,0,0,1-4.47,4.3C374.82,505.25,372.62,503.11,372.62,498.81Z" transform="translate(-344.69 -66)"/><line class="cls-1" x1="8.31" y1="413.5" x2="43.81" y2="413.5"/><line class="cls-1" x1="8.31" y1="449.5" x2="44.81" y2="449.5"/><line class="cls-1" x1="8.31" y1="485.5" x2="44.81" y2="485.5"/><line class="cls-1" x1="8.31" y1="521.5" x2="44.81" y2="521.5"/><rect class="cls-1" x="63.31" y="377" width="36" height="181.5"/><path class="cls-2" d="M414.93,468c4.54-4,7-6.36,7-8.59,0-1.53-.93-2.6-2.9-2.6a4.58,4.58,0,0,0-3.21,1.6l-1-1a6,6,0,0,1,4.43-2c2.69,0,4.37,1.58,4.37,3.95s-2.52,5-6.16,8.31c.84-.06,1.7-.1,2.5-.1h4.39V469h-9.43Z" transform="translate(-344.69 -66)"/><path class="cls-2" d="M427.49,462.26c0-4.49,1.83-6.91,4.81-6.91s4.81,2.42,4.81,6.91-1.83,7-4.81,7S427.49,466.71,427.49,462.26Zm8,0c0-3.84-1.32-5.5-3.19-5.5s-3.19,1.66-3.19,5.5,1.32,5.59,3.19,5.59S435.49,466.1,435.49,462.26Zm-4.49-.15a1.3,1.3,0,1,1,1.3,1.41A1.3,1.3,0,0,1,431,462.11Z" transform="translate(-344.69 -66)"/><path class="cls-2" d="M414.6,503.36l.88-1.13a5.41,5.41,0,0,0,3.84,1.57c1.83,0,3.19-.94,3.19-2.43s-1.34-2.67-4.85-2.67v-1.32c3.17,0,4.39-1.09,4.39-2.5s-1.11-2.1-2.73-2.1a5.12,5.12,0,0,0-3.3,1.34L415.1,493a6.51,6.51,0,0,1,4.28-1.68c2.52,0,4.43,1.24,4.43,3.4,0,1.62-1.19,2.65-2.85,3.2V498c1.78.38,3.32,1.55,3.32,3.4,0,2.37-2.19,3.82-4.85,3.82A6.54,6.54,0,0,1,414.6,503.36Z" transform="translate(-344.69 -66)"/><path class="cls-2" d="M427.43,501.58c0-1.85,1.43-2.9,2.87-3.57v-.09a3.75,3.75,0,0,1-2-3.12c0-2.06,1.74-3.45,4.13-3.45,2.63,0,4.16,1.49,4.16,3.57a4.18,4.18,0,0,1-2,3.19v.09c1.47.73,2.63,1.57,2.63,3.48s-1.74,3.57-4.81,3.57S427.43,503.7,427.43,501.58Zm8.06,0c0-1.85-1.87-2.33-4.2-3.11-1.3.7-2.29,1.56-2.29,2.9s1.33,2.54,3.38,2.54S435.49,503,435.49,501.62Zm-.44-6.61a2.39,2.39,0,0,0-2.69-2.36,2.22,2.22,0,0,0-2.5,2.15c0,1.59,1.54,2.26,3.53,2.89A3.39,3.39,0,0,0,435.05,495Z" transform="translate(-344.69 -66)"/><line class="cls-1" x1="63.31" y1="413.5" x2="98.81" y2="413.5"/><line class="cls-1" x1="63.31" y1="449.5" x2="99.81" y2="449.5"/><line class="cls-1" x1="63.31" y1="485.5" x2="99.81" y2="485.5"/><line class="cls-1" x1="63.31" y1="521.5" x2="99.81" y2="521.5"/><rect class="cls-1" x="115.31" y="377" width="36" height="181.5"/><path class="cls-2" d="M466.93,468c4.54-4,7-6.36,7-8.59,0-1.53-.93-2.6-2.9-2.6a4.58,4.58,0,0,0-3.21,1.6l-1-1a6,6,0,0,1,4.43-2c2.69,0,4.37,1.58,4.37,3.95s-2.52,5-6.16,8.31c.84-.06,1.7-.1,2.5-.1h4.39V469h-9.43Z" transform="translate(-344.69 -66)"/><path class="cls-2" d="M479.49,462.26c0-4.49,1.83-6.91,4.81-6.91s4.81,2.42,4.81,6.91-1.83,7-4.81,7S479.49,466.71,479.49,462.26Zm8,0c0-3.84-1.32-5.5-3.19-5.5s-3.19,1.66-3.19,5.5,1.32,5.59,3.19,5.59S487.49,466.1,487.49,462.26Zm-4.49-.15a1.3,1.3,0,1,1,1.3,1.41A1.3,1.3,0,0,1,483,462.11Z" transform="translate(-344.69 -66)"/><path class="cls-2" d="M466.6,503.36l.88-1.13a5.41,5.41,0,0,0,3.84,1.57c1.83,0,3.19-.94,3.19-2.43s-1.34-2.67-4.85-2.67v-1.32c3.17,0,4.39-1.09,4.39-2.5s-1.11-2.1-2.73-2.1a5.12,5.12,0,0,0-3.3,1.34L467.1,493a6.51,6.51,0,0,1,4.28-1.68c2.52,0,4.43,1.24,4.43,3.4,0,1.62-1.19,2.65-2.85,3.2V498c1.78.38,3.32,1.55,3.32,3.4,0,2.37-2.19,3.82-4.85,3.82A6.54,6.54,0,0,1,466.6,503.36Z" transform="translate(-344.69 -66)"/><path class="cls-2" d="M479.49,498.26c0-4.49,1.83-6.91,4.81-6.91s4.81,2.42,4.81,6.91-1.83,7-4.81,7S479.49,502.71,479.49,498.26Zm8,0c0-3.84-1.32-5.5-3.19-5.5s-3.19,1.66-3.19,5.5,1.32,5.59,3.19,5.59S487.49,502.1,487.49,498.26Zm-4.49-.15a1.3,1.3,0,1,1,1.3,1.41A1.3,1.3,0,0,1,483,498.11Z" transform="translate(-344.69 -66)"/><line class="cls-1" x1="115.31" y1="413.5" x2="150.81" y2="413.5"/><line class="cls-1" x1="115.31" y1="449.5" x2="151.81" y2="449.5"/><line class="cls-1" x1="115.31" y1="485.5" x2="151.81" y2="485.5"/><line class="cls-1" x1="115.31" y1="521.5" x2="151.81" y2="521.5"/><rect class="cls-1" x="172.31" y="377" width="36" height="181.5"/><path class="cls-2" d="M524.44,467.55h3.86v-9.83h-3v-1.13a9.5,9.5,0,0,0,3.44-1H530v11.95h3.49V469h-9.09Z" transform="translate(-344.69 -66)"/><path class="cls-2" d="M536.18,467.43l.86-1.16a5.31,5.31,0,0,0,3.78,1.53,3.11,3.11,0,0,0,3.38-3c0-1.85-1.31-2.92-3.28-2.92a5,5,0,0,0-2.73.8l-.92-.59.44-6.45h7.58v1.52h-6l-.36,3.94a5.84,5.84,0,0,1,2.48-.54c2.56,0,4.6,1.3,4.6,4.2s-2.39,4.53-5,4.53A6.71,6.71,0,0,1,536.18,467.43Z" transform="translate(-344.69 -66)"/><path class="cls-2" d="M523.93,504c4.54-4,7-6.36,7-8.59,0-1.53-.93-2.6-2.9-2.6a4.58,4.58,0,0,0-3.21,1.6l-1-1a6,6,0,0,1,4.43-2c2.69,0,4.37,1.58,4.37,3.95s-2.52,5-6.16,8.31c.84-.06,1.7-.1,2.5-.1h4.39V505h-9.43Z" transform="translate(-344.69 -66)"/><path class="cls-2" d="M536.18,503.43l.86-1.16a5.31,5.31,0,0,0,3.78,1.53,3.11,3.11,0,0,0,3.38-3c0-1.85-1.31-2.92-3.28-2.92a5,5,0,0,0-2.73.8l-.92-.59.44-6.45h7.58v1.52h-6l-.36,3.94a5.84,5.84,0,0,1,2.48-.54c2.56,0,4.6,1.3,4.6,4.2s-2.39,4.53-5,4.53A6.71,6.71,0,0,1,536.18,503.43Z" transform="translate(-344.69 -66)"/><line class="cls-1" x1="172.31" y1="413.5" x2="207.81" y2="413.5"/><line class="cls-1" x1="172.31" y1="449.5" x2="208.81" y2="449.5"/><line class="cls-1" x1="172.31" y1="485.5" x2="208.81" y2="485.5"/><line class="cls-1" x1="172.31" y1="521.5" x2="208.81" y2="521.5"/><rect class="cls-1" x="229.31" y="377" width="36" height="181.5"/><path class="cls-2" d="M581.44,467.55h3.86v-9.83h-3v-1.13a9.5,9.5,0,0,0,3.44-1H587v11.95h3.49V469h-9.09Z" transform="translate(-344.69 -66)"/><path class="cls-2" d="M593.18,467.43l.86-1.16a5.31,5.31,0,0,0,3.78,1.53,3.11,3.11,0,0,0,3.38-3c0-1.85-1.31-2.92-3.28-2.92a5,5,0,0,0-2.73.8l-.92-.59.44-6.45h7.58v1.52h-6l-.36,3.94a5.84,5.84,0,0,1,2.48-.54c2.56,0,4.6,1.3,4.6,4.2s-2.39,4.53-5,4.53A6.71,6.71,0,0,1,593.18,467.43Z" transform="translate(-344.69 -66)"/><path class="cls-2" d="M580.58,503.43l.86-1.16a5.31,5.31,0,0,0,3.78,1.53,3.11,3.11,0,0,0,3.38-3c0-1.85-1.31-2.92-3.28-2.92a5,5,0,0,0-2.73.8l-.92-.59.44-6.45h7.58v1.52h-6.05l-.36,3.94a5.84,5.84,0,0,1,2.48-.54c2.56,0,4.6,1.3,4.6,4.2s-2.39,4.53-5,4.53A6.72,6.72,0,0,1,580.58,503.43Z" transform="translate(-344.69 -66)"/><path class="cls-2" d="M593.49,498.26c0-4.49,1.83-6.91,4.81-6.91s4.81,2.42,4.81,6.91-1.83,7-4.81,7S593.49,502.71,593.49,498.26Zm8,0c0-3.84-1.32-5.5-3.19-5.5s-3.19,1.66-3.19,5.5,1.32,5.59,3.19,5.59S601.49,502.1,601.49,498.26Zm-4.49-.15a1.3,1.3,0,1,1,1.3,1.41A1.3,1.3,0,0,1,597,498.11Z" transform="translate(-344.69 -66)"/><line class="cls-1" x1="229.31" y1="413.5" x2="264.81" y2="413.5"/><line class="cls-1" x1="229.31" y1="449.5" x2="265.81" y2="449.5"/><line class="cls-1" x1="229.31" y1="485.5" x2="265.81" y2="485.5"/><line class="cls-1" x1="229.31" y1="521.5" x2="265.81" y2="521.5"/><rect class="cls-1" x="284.31" y="377" width="36" height="181.5"/><path class="cls-2" d="M636.44,467.55h3.86v-9.83h-3v-1.13a9.5,9.5,0,0,0,3.44-1H642v11.95h3.49V469h-9.09Z" transform="translate(-344.69 -66)"/><path class="cls-2" d="M649,467.55h3.86v-9.83h-3v-1.13a9.5,9.5,0,0,0,3.44-1h1.3v11.95h3.49V469H649Z" transform="translate(-344.69 -66)"/><path class="cls-2" d="M636.44,503.55h3.86v-9.83h-3v-1.13a9.5,9.5,0,0,0,3.44-1H642v11.95h3.49V505h-9.09Z" transform="translate(-344.69 -66)"/><path class="cls-2" d="M648.62,498.81c0-5.38,2.68-7.46,5.6-7.46a5.32,5.32,0,0,1,3.74,1.43l-1,1.09a3.93,3.93,0,0,0-2.66-1.07c-2.19,0-4.08,1.53-4.08,6,0,3.29,1.26,5.08,3.49,5.08a2.78,2.78,0,0,0,2.81-2.94,2.55,2.55,0,0,0-2.83-2.84,4.73,4.73,0,0,0-3.51,1.89l-.06-1.36a5.68,5.68,0,0,1,3.88-1.83,3.81,3.81,0,0,1,4.18,4.14,4.32,4.32,0,0,1-4.47,4.3C650.82,505.25,648.62,503.11,648.62,498.81Z" transform="translate(-344.69 -66)"/><line class="cls-1" x1="284.31" y1="413.5" x2="319.81" y2="413.5"/><line class="cls-1" x1="284.31" y1="449.5" x2="320.81" y2="449.5"/><line class="cls-1" x1="284.31" y1="485.5" x2="320.81" y2="485.5"/><line class="cls-1" x1="284.31" y1="521.5" x2="320.81" y2="521.5"/><rect class="cls-1" x="336.31" y="377" width="36" height="181.5"/><path class="cls-2" d="M684.55,466.76h3.31v-8.43h-2.57v-1a8.26,8.26,0,0,0,3-.85h1.11v10.25h3V468h-7.79Z" transform="translate(-344.69 -66)"/><path class="cls-2" d="M694.88,462.22c0-3.85,1.57-5.92,4.12-5.92s4.12,2.07,4.12,5.92-1.56,6-4.12,6S694.88,466,694.88,462.22Zm6.86,0c0-3.29-1.14-4.72-2.74-4.72s-2.74,1.43-2.74,4.72S697.4,467,699,467,701.74,465.52,701.74,462.22Zm-3.86-.13A1.12,1.12,0,1,1,699,463.3,1.12,1.12,0,0,1,697.88,462.09Z" transform="translate(-344.69 -66)"/><path class="cls-2" d="M705.68,462.22c0-3.85,1.56-5.92,4.12-5.92s4.12,2.07,4.12,5.92-1.56,6-4.12,6S705.68,466,705.68,462.22Zm6.86,0c0-3.29-1.14-4.72-2.74-4.72s-2.74,1.43-2.74,4.72S708.2,467,709.8,467,712.54,465.52,712.54,462.22Zm-3.85-.13a1.12,1.12,0,1,1,1.11,1.21A1.11,1.11,0,0,1,708.69,462.09Z" transform="translate(-344.69 -66)"/><path class="cls-2" d="M684.55,502.76h3.31v-8.43h-2.57v-1a8.26,8.26,0,0,0,3-.85h1.11v10.25h3V504h-7.79Z" transform="translate(-344.69 -66)"/><path class="cls-2" d="M695.35,502.76h3.31v-8.43h-2.58v-1a8.2,8.2,0,0,0,3-.85h1.11v10.25h3V504h-7.79Z" transform="translate(-344.69 -66)"/><path class="cls-2" d="M705.68,498.22c0-3.85,1.56-5.92,4.12-5.92s4.12,2.07,4.12,5.92-1.56,6-4.12,6S705.68,502,705.68,498.22Zm6.86,0c0-3.29-1.14-4.72-2.74-4.72s-2.74,1.43-2.74,4.72S708.2,503,709.8,503,712.54,501.52,712.54,498.22Zm-3.85-.13a1.12,1.12,0,1,1,1.11,1.21A1.11,1.11,0,0,1,708.69,498.09Z" transform="translate(-344.69 -66)"/><line class="cls-1" x1="336.31" y1="413.5" x2="371.81" y2="413.5"/><line class="cls-1" x1="336.31" y1="449.5" x2="372.81" y2="449.5"/><line class="cls-1" x1="336.31" y1="485.5" x2="372.81" y2="485.5"/><line class="cls-1" x1="336.31" y1="521.5" x2="372.81" y2="521.5"/><rect class="cls-1" x="393.31" y="377" width="36" height="181.5"/><path class="cls-2" d="M745.44,467.55h3.86v-9.83h-3v-1.13a9.5,9.5,0,0,0,3.44-1H751v11.95h3.49V469h-9.09Z" transform="translate(-344.69 -66)"/><path class="cls-2" d="M757.43,465.58c0-1.85,1.43-2.9,2.87-3.57v-.09a3.75,3.75,0,0,1-2-3.12c0-2.06,1.74-3.45,4.13-3.45,2.63,0,4.16,1.49,4.16,3.57a4.18,4.18,0,0,1-2,3.19v.09c1.47.73,2.63,1.57,2.63,3.48s-1.74,3.57-4.81,3.57S757.43,467.7,757.43,465.58Zm8.06,0c0-1.85-1.87-2.33-4.2-3.11-1.3.7-2.29,1.56-2.29,2.9s1.33,2.54,3.38,2.54S765.49,467,765.49,465.62Zm-.44-6.61a2.39,2.39,0,0,0-2.69-2.36,2.22,2.22,0,0,0-2.5,2.15c0,1.59,1.54,2.26,3.53,2.89A3.39,3.39,0,0,0,765.05,459Z" transform="translate(-344.69 -66)"/><path class="cls-2" d="M744.93,504c4.54-4,7-6.36,7-8.59,0-1.53-.93-2.6-2.9-2.6a4.58,4.58,0,0,0-3.21,1.6l-1-1a6,6,0,0,1,4.43-2c2.69,0,4.36,1.58,4.36,3.95s-2.51,5-6.15,8.31c.84-.06,1.7-.1,2.5-.1h4.39V505h-9.43Z" transform="translate(-344.69 -66)"/><path class="cls-2" d="M757.49,498.26c0-4.49,1.83-6.91,4.81-6.91s4.81,2.42,4.81,6.91-1.83,7-4.81,7S757.49,502.71,757.49,498.26Zm8,0c0-3.84-1.32-5.5-3.19-5.5s-3.19,1.66-3.19,5.5,1.32,5.59,3.19,5.59S765.49,502.1,765.49,498.26Zm-4.49-.15a1.3,1.3,0,1,1,1.3,1.41A1.3,1.3,0,0,1,761,498.11Z" transform="translate(-344.69 -66)"/><line class="cls-1" x1="393.31" y1="413.5" x2="428.81" y2="413.5"/><line class="cls-1" x1="393.31" y1="449.5" x2="429.81" y2="449.5"/><line class="cls-1" x1="393.31" y1="485.5" x2="429.81" y2="485.5"/><line class="cls-1" x1="393.31" y1="521.5" x2="429.81" y2="521.5"/><path class="cls-2" d="M537.21,181.21h3.32v-8.42H538v-1a8.36,8.36,0,0,0,2.95-.84H542v10.24h3v1.24h-7.8Z" transform="translate(-344.69 -66)"/><path class="cls-2" d="M536.74,72.67c0-3.85,1.57-5.92,4.13-5.92S545,68.82,545,72.67s-1.57,6-4.12,6S536.74,76.49,536.74,72.67Zm6.86,0c0-3.29-1.13-4.71-2.73-4.71s-2.74,1.42-2.74,4.71,1.14,4.79,2.74,4.79S543.6,76,543.6,72.67Zm-3.85-.12a1.12,1.12,0,1,1,1.12,1.21A1.12,1.12,0,0,1,539.75,72.55Z" transform="translate(-344.69 -66)"/><path class="cls-2" d="M426.78,259.57c3.89-3.44,6-5.45,6-7.36,0-1.32-.79-2.23-2.48-2.23a4,4,0,0,0-2.76,1.36l-.86-.84a5.1,5.1,0,0,1,3.8-1.75c2.3,0,3.74,1.35,3.74,3.39s-2.16,4.3-5.27,7.13c.72-.06,1.46-.09,2.14-.09h3.77v1.27h-8.09Z" transform="translate(-344.69 -66)"/><path class="cls-2" d="M372.09,329.55c0-.63.06-1.4.09-2h-.09c-.38.55-.79,1.11-1.17,1.67l-3.09,3.89h7.45v1.21h-9.11v-1l5.72-7.33h1.61v11.48h-1.41Z" transform="translate(-344.69 -66)"/><path class="cls-2" d="M344.69,391.52c0-1.58,1.23-2.48,2.47-3.06v-.07a3.23,3.23,0,0,1-1.75-2.69c0-1.76,1.5-2.95,3.55-2.95,2.25,0,3.56,1.28,3.56,3.06a3.62,3.62,0,0,1-1.74,2.74v.07c1.26.63,2.25,1.35,2.25,3s-1.5,3.06-4.13,3.06S344.69,393.34,344.69,391.52Zm6.91,0c0-1.59-1.6-2-3.6-2.67-1.11.6-2,1.33-2,2.49s1.14,2.17,2.9,2.17S351.6,392.74,351.6,391.56Zm-.37-5.68a2,2,0,0,0-2.31-2,1.9,1.9,0,0,0-2.14,1.83c0,1.37,1.31,1.95,3,2.49A2.93,2.93,0,0,0,351.23,385.88Z" transform="translate(-344.69 -66)"/><path class="cls-2" d="M399.89,393.46l.83-.93a3.36,3.36,0,0,0,2.28.9c1.86,0,3.5-1.32,3.5-5.15,0-2.83-1.1-4.34-3-4.34a2.37,2.37,0,0,0-2.43,2.5,2.2,2.2,0,0,0,2.45,2.43,4,4,0,0,0,3-1.62l.06,1.17a4.73,4.73,0,0,1-3.33,1.57,3.26,3.26,0,0,1-3.57-3.55,3.71,3.71,0,0,1,3.82-3.69c2.5,0,4.41,1.84,4.41,5.53,0,4.61-2.32,6.39-4.81,6.39A4.61,4.61,0,0,1,399.89,393.46Z" transform="translate(-344.69 -66)"/><path class="cls-2" d="M465.81,385.21h3.32v-8.42h-2.58v-1a8.36,8.36,0,0,0,2.95-.84h1.12v10.24h3v1.24h-7.8Z" transform="translate(-344.69 -66)"/><path class="cls-2" d="M476.14,380.67c0-3.85,1.57-5.92,4.13-5.92s4.12,2.07,4.12,5.92-1.57,6-4.12,6S476.14,384.49,476.14,380.67Zm6.86,0c0-3.29-1.13-4.71-2.73-4.71s-2.74,1.42-2.74,4.71,1.14,4.79,2.74,4.79S483,384,483,380.67Zm-3.85-.12a1.12,1.12,0,1,1,1.12,1.21A1.12,1.12,0,0,1,479.15,380.55Z" transform="translate(-344.69 -66)"/><path class="cls-2" d="M531.81,385.21h3.32v-8.42h-2.58v-1a8.36,8.36,0,0,0,3-.84h1.12v10.24h3v1.24h-7.8Z" transform="translate(-344.69 -66)"/><path class="cls-2" d="M542.61,385.21h3.32v-8.42h-2.58v-1a8.36,8.36,0,0,0,2.95-.84h1.12v10.24h3v1.24h-7.8Z" transform="translate(-344.69 -66)"/><path class="cls-2" d="M578.81,385.21h3.32v-8.42h-2.58v-1a8.36,8.36,0,0,0,3-.84h1.12v10.24h3v1.24h-7.8Z" transform="translate(-344.69 -66)"/><path class="cls-2" d="M589.18,385.57c3.89-3.44,6-5.45,6-7.36,0-1.32-.79-2.23-2.48-2.23a4,4,0,0,0-2.75,1.36l-.87-.84a5.1,5.1,0,0,1,3.8-1.75c2.3,0,3.74,1.35,3.74,3.39s-2.16,4.3-5.27,7.13c.72-.06,1.46-.09,2.14-.09h3.77v1.27h-8.09Z" transform="translate(-344.69 -66)"/><path class="cls-2" d="M641.81,385.21h3.32v-8.42h-2.58v-1a8.36,8.36,0,0,0,3-.84h1.12v10.24h3v1.24h-7.8Z" transform="translate(-344.69 -66)"/><path class="cls-2" d="M651.89,385.05l.76-1a4.64,4.64,0,0,0,3.29,1.35c1.57,0,2.74-.81,2.74-2.09s-1.15-2.29-4.16-2.29v-1.13c2.72,0,3.76-.94,3.76-2.14s-.95-1.8-2.34-1.8a4.29,4.29,0,0,0-2.82,1.15l-.8-.94a5.58,5.58,0,0,1,3.68-1.44c2.16,0,3.8,1.06,3.8,2.92,0,1.38-1,2.27-2.45,2.73v.08c1.53.32,2.84,1.33,2.84,2.91,0,2-1.87,3.28-4.16,3.28A5.62,5.62,0,0,1,651.89,385.05Z" transform="translate(-344.69 -66)"/><path class="cls-2" d="M686.81,385.21h3.32v-8.42h-2.58v-1a8.36,8.36,0,0,0,3-.84h1.12v10.24h3v1.24h-7.8Z" transform="translate(-344.69 -66)"/><path class="cls-2" d="M702.49,378.55c0-.63.06-1.4.09-2h-.09c-.38.55-.79,1.11-1.17,1.67l-3.1,3.89h7.46v1.21h-9.11v-1l5.72-7.33h1.61v11.48h-1.41Z" transform="translate(-344.69 -66)"/><path class="cls-2" d="M751.81,385.21h3.32v-8.42h-2.58v-1a8.36,8.36,0,0,0,3-.84h1.12v10.24h3v1.24h-7.8Z" transform="translate(-344.69 -66)"/><path class="cls-2" d="M761.88,385.1l.73-1a4.56,4.56,0,0,0,3.24,1.32,2.66,2.66,0,0,0,2.9-2.61c0-1.59-1.11-2.51-2.81-2.51a4.3,4.3,0,0,0-2.34.69l-.79-.51.38-5.52h6.5v1.29H764.5l-.3,3.39a4.87,4.87,0,0,1,2.12-.47c2.2,0,3.95,1.12,3.95,3.6a4,4,0,0,1-4.25,3.89A5.72,5.72,0,0,1,761.88,385.1Z" transform="translate(-344.69 -66)"/><path class="cls-2" d="M476.47,336.1l.74-1a4.56,4.56,0,0,0,3.24,1.32,2.66,2.66,0,0,0,2.9-2.61c0-1.59-1.11-2.51-2.81-2.51a4.3,4.3,0,0,0-2.34.69l-.79-.51.38-5.52h6.5v1.29H479.1l-.3,3.39a4.87,4.87,0,0,1,2.12-.47c2.2,0,3.95,1.12,3.95,3.6a4,4,0,0,1-4.25,3.89A5.77,5.77,0,0,1,476.47,336.1Z" transform="translate(-344.69 -66)"/><path class="cls-2" d="M587.85,332.14c0-4.61,2.31-6.39,4.81-6.39a4.56,4.56,0,0,1,3.21,1.23l-.83.93a3.41,3.41,0,0,0-2.29-.92c-1.87,0-3.49,1.32-3.49,5.15,0,2.83,1.08,4.36,3,4.36a2.38,2.38,0,0,0,2.41-2.52,2.18,2.18,0,0,0-2.43-2.43,4,4,0,0,0-3,1.62l-.05-1.17a4.83,4.83,0,0,1,3.33-1.57,3.27,3.27,0,0,1,3.58,3.55,3.7,3.7,0,0,1-3.83,3.69C589.74,337.67,587.85,335.83,587.85,332.14Z" transform="translate(-344.69 -66)"/><path class="cls-2" d="M702.33,327.26h-6.6V326H704v.92c-3,3.47-3.78,6.06-4,10.56h-1.56A15.38,15.38,0,0,1,702.33,327.26Z" transform="translate(-344.69 -66)"/><path class="cls-2" d="M646.49,259.05l.76-1a4.64,4.64,0,0,0,3.29,1.35c1.57,0,2.74-.81,2.74-2.09s-1.15-2.29-4.16-2.29v-1.13c2.72,0,3.76-.94,3.76-2.14s-1-1.8-2.34-1.8a4.29,4.29,0,0,0-2.82,1.15l-.8-.94a5.58,5.58,0,0,1,3.68-1.44c2.16,0,3.8,1.06,3.8,2.92,0,1.38-1,2.27-2.45,2.73v.08c1.53.32,2.84,1.33,2.84,2.91,0,2-1.87,3.28-4.16,3.28A5.62,5.62,0,0,1,646.49,259.05Z" transform="translate(-344.69 -66)"/><path class="cls-2" d="M352.48,637c.45,0,.76.6.92,1.78a7.49,7.49,0,0,0,.13,1.05c-.07.39-.27.59-.59.59h-.2c-.16,0-.27-.79-.33-2.36-.06,0-.13-.29-.19-.86Zm1.77-2.88c.54,0,.89.87,1.06,2.62,0,.39.07.59.19.59a17.26,17.26,0,0,1,3.22-.66c.74,0,1.11.4,1.11,1.19l-.07.26a.07.07,0,0,0,.07.07,34.54,34.54,0,0,0-.4,4.13l.07.46c-.08.2-.17.31-.26.33l-.39-.2a12.27,12.27,0,0,0-3,.72h-.39c-.13,0-.19-.17-.19-.39v-.06c0-.25.85-.53,2.55-.86.44,0,.66-.13.66-.26a.5.5,0,0,0-.07-.27,12.49,12.49,0,0,1,.2-1.37h-.06l-1.84.46a.66.66,0,0,1-.4-.33v-.2c0-.17.66-.37,2-.59a.43.43,0,0,0,.2.07c.23,0,.45-.51.65-1.51a4.5,4.5,0,0,0,.07-.72l-.2-.13-2.75.59h-.14a1.32,1.32,0,0,1-.65-.2v1.25a11.57,11.57,0,0,1-1.51,5.51,1.1,1.1,0,0,1-.65.39h-.07c-.13,0-.2-.19-.2-.59a14.31,14.31,0,0,0,1.44-6.23v-.07a8.91,8.91,0,0,0-.06-.92l.06-.13a27,27,0,0,1-.52-2.75Z" transform="translate(-344.69 -66)"/><path class="cls-2" d="M367.15,633.57h.13a1.42,1.42,0,0,1,.78,1.24h.13c.11,0,.35-.31.73-.85.06,0,.15.09.26.26v.07a7.31,7.31,0,0,1-1.05,1.77v.13h.26a13.37,13.37,0,0,0,2-.59c.38.17.58.3.58.39,0,.35-.21.55-.65.6v2.3c0,.1.61.21,1.84.32a.83.83,0,0,1,.26.52v.07c0,.13-.09.2-.26.2-.93-.09-1.47-.13-1.64-.13-.12,2.26-.32,3.58-.59,3.94a8,8,0,0,1-.2,1.11.58.58,0,0,1,.06.26c0,.27-.1.4-.19.4h-.07c.05-3,.07-4.82.07-5.58a.06.06,0,0,1-.07-.07l-1.44.33v.66c0,1.05-.11,1.58-.33,1.58h-.2a6.72,6.72,0,0,1-.39-2.11.37.37,0,0,0-.19.07c-1.89-.08-2.83-.28-2.83-.59v-.14c0-.06.07-.12.2-.19a9.93,9.93,0,0,0,1,.13c1.31,0,2-.15,2-.46a17.14,17.14,0,0,0,.2-2h-.07c-.69.08-1.08.13-1.18.13-.79,0-1.18-.18-1.18-.53,0-.13.7-.29,2.1-.46a1,1,0,0,0,.33-.79A9.28,9.28,0,0,1,367,634v-.19C367,633.7,367,633.64,367.15,633.57Zm.91,3.54v.14a.9.9,0,0,1,.27.51c-.05.69-.07,1.2-.07,1.52.05,0,.07,0,.07.06.83-.18,1.24-.32,1.24-.39v-.26c0-.38,0-1-.07-1.77,0,0-.06,0-.06-.07A7.51,7.51,0,0,1,368.06,637.11Z" transform="translate(-344.69 -66)"/><path class="cls-2" d="M378.88,634.34h.17c.1,0,.19.2.28.6a8,8,0,0,0-.92,1.53l.13.26-.07.34.19.1a1.84,1.84,0,0,1,.72-.21h.7c.19.18.31.26.35.26h.11v-.3c0-.23,0-.6-.06-1.1l.21-.15.57.5c0-.13.14-.22.41-.26q.75.39.75.87a13,13,0,0,0-.33,1.45v.12h.13l.85-.8h.1a.39.39,0,0,1,.23.35,1.81,1.81,0,0,1-.76,1.27h-.77s-.09-.06-.14-.17v-2.13h-.26q-.3.11-.3.63v1.78c0,.06-.16.11-.46.15-.16-.16-.23-.27-.23-.35s0-.68.07-1.37l-.33.07c0-.08-.09-.12-.26-.12-.88.23-1.38.44-1.48.62v.35l.07.5h.89s.14.1.28.3v.18c0,.1-.37.26-1.1.49l-.08.49v.13a.87.87,0,0,0,.23.52,11.81,11.81,0,0,0,4.62-2.11h.12c.05,0,.19.19.42.56a5.94,5.94,0,0,1-1.18,2.2v.56a18.41,18.41,0,0,1,2.09,1.84l.07.34-.1,0h-.38a6.7,6.7,0,0,1-1.22-1l-1-.63c-.4.81-.92,1.21-1.55,1.21h-.11l-.17-.23v-.09a4.09,4.09,0,0,0,1-1.13v-.17a3.4,3.4,0,0,0-1.5-.94c-.8.2-1.21.39-1.22.58.13,1.51.19,2.36.19,2.52l-.1,0h-.31c-.27,0-.41-.8-.41-2.39-.08-.2-.18-.3-.31-.3a4.51,4.51,0,0,0-.73.07.6.6,0,0,1-.67-.56v0c0-.05.05-.1.16-.15H378c-.09-1.22-.14-2.07-.14-2.54l.07-.33-.21-1.23h-.17l-.31.06c-.16-.16-.23-.27-.23-.34A9.55,9.55,0,0,1,378.88,634.34Zm2.4,7.16a.89.89,0,0,0,.69.39l.6-.95v-.2h-.12Z" transform="translate(-344.69 -66)"/><path class="cls-2" d="M391.75,643h-.43a1.85,1.85,0,0,1-.33-.71c.11,0,.17-.17.17-.44V641l0-.33,0-.11,0-.22a.54.54,0,0,0,0-.22c.07-.7.1-1.61.1-2.73v-.22a.63.63,0,0,1,.28-.49h.16s.13.11.28.33l-.05.38c-.05,2.69-.07,4.46-.07,5.3C391.79,642.73,391.75,642.81,391.75,643Z" transform="translate(-344.69 -66)"/><path class="cls-2" d="M406.33,637c.45,0,.75.6.91,1.78a9.83,9.83,0,0,0,.13,1.05c-.07.39-.26.59-.58.59h-.2c-.16,0-.27-.79-.33-2.36-.07,0-.13-.29-.2-.86Zm1.77-2.88c.53,0,.88.87,1,2.62,0,.39.07.59.19.59a17.26,17.26,0,0,1,3.22-.66c.74,0,1.12.4,1.12,1.19l-.07.26a.06.06,0,0,0,.07.07,32.59,32.59,0,0,0-.4,4.13l.07.46c-.09.2-.18.31-.26.33l-.4-.2a12.05,12.05,0,0,0-2.95.72h-.4c-.13,0-.19-.17-.19-.39v-.06c0-.25.85-.53,2.56-.86.43,0,.65-.13.65-.26a.5.5,0,0,0-.07-.27c0-.5.12-.95.2-1.37h-.06l-1.84.46a.64.64,0,0,1-.39-.33v-.2c0-.17.65-.37,2-.59a.4.4,0,0,0,.19.07c.24,0,.45-.51.66-1.51a6.09,6.09,0,0,0,.07-.72l-.2-.13-2.76.59H410a1.35,1.35,0,0,1-.66-.2v1.25a11.67,11.67,0,0,1-1.5,5.51,1.12,1.12,0,0,1-.66.39h-.07c-.13,0-.19-.19-.19-.59a14.31,14.31,0,0,0,1.44-6.23v-.07a8.91,8.91,0,0,0-.06-.92l.06-.13a24.17,24.17,0,0,1-.52-2.75Z" transform="translate(-344.69 -66)"/><path class="cls-2" d="M421,633.57h.13a1.43,1.43,0,0,1,.79,1.24H422c.11,0,.35-.31.72-.85.07,0,.16.09.26.26v.07a7.31,7.31,0,0,1-1,1.77v.13h.26a12.72,12.72,0,0,0,2-.59c.38.17.58.3.59.39q0,.53-.66.6v2.3c0,.1.62.21,1.84.32a.78.78,0,0,1,.26.52v.07c0,.13-.08.2-.26.2-.92-.09-1.47-.13-1.64-.13-.12,2.26-.31,3.58-.59,3.94a7.33,7.33,0,0,1-.19,1.11.58.58,0,0,1,.06.26c0,.27-.11.4-.19.4h-.07c0-3,.07-4.82.07-5.58-.05,0-.07,0-.07-.07l-1.45.33v.66c0,1.05-.1,1.58-.32,1.58h-.2a6.86,6.86,0,0,1-.4-2.11.4.4,0,0,0-.19.07c-1.88-.08-2.82-.28-2.82-.59v-.14c0-.06.06-.12.2-.19.56.09.88.13,1,.13,1.31,0,2-.15,2-.46a17.52,17.52,0,0,0,.19-2h-.06l-1.18.13c-.79,0-1.19-.18-1.19-.53,0-.13.7-.29,2.1-.46a1,1,0,0,0,.33-.79,10.35,10.35,0,0,1-.59-1.64v-.19C420.79,633.7,420.86,633.64,421,633.57Zm.92,3.54v.14a.94.94,0,0,1,.26.51c0,.69-.07,1.2-.07,1.52,0,0,.07,0,.07.06.83-.18,1.25-.32,1.25-.39v-.26c0-.38,0-1-.07-1.77,0,0-.06,0-.06-.07A7.82,7.82,0,0,1,421.91,637.11Z" transform="translate(-344.69 -66)"/><path class="cls-2" d="M432.72,634.34h.18q.14,0,.27.6a7.57,7.57,0,0,0-.91,1.53l.13.26-.07.34.18.1a1.83,1.83,0,0,1,.73-.21h.69a1.22,1.22,0,0,0,.35.26h.12v-.3c0-.23,0-.6-.07-1.1l.22-.15.57.5c0-.13.13-.22.41-.26.49.26.74.55.74.87a13,13,0,0,0-.33,1.45v.12h.13l.86-.8H437a.38.38,0,0,1,.24.35,1.85,1.85,0,0,1-.76,1.27h-.78s-.08-.06-.14-.17v-2.13h-.25c-.21.07-.31.28-.31.63v1.78c0,.06-.15.11-.46.15-.15-.16-.23-.27-.23-.35s0-.68.08-1.37l-.34.07c0-.08-.08-.12-.25-.12-.89.23-1.38.44-1.49.62v.35l.07.5h.9s.13.1.28.3v.18c0,.1-.37.26-1.11.49l-.07.49v.13a.85.85,0,0,0,.22.52,11.79,11.79,0,0,0,4.63-2.11h.12s.18.19.41.56a5.77,5.77,0,0,1-1.18,2.2v.56a19.28,19.28,0,0,1,2.1,1.84l.06.34-.1,0h-.37a6.93,6.93,0,0,1-1.23-1l-1-.63a1.76,1.76,0,0,1-1.55,1.21h-.11l-.17-.23v-.09a3.79,3.79,0,0,0,1.05-1.13v-.17a3.32,3.32,0,0,0-1.49-.94c-.81.2-1.21.39-1.23.58.13,1.51.19,2.36.19,2.52l-.09,0h-.32c-.27,0-.41-.8-.41-2.39-.07-.2-.18-.3-.3-.3a4.72,4.72,0,0,0-.74.07.61.61,0,0,1-.67-.56v0c0-.05.06-.1.17-.15h1.48c-.09-1.22-.13-2.07-.13-2.54l.06-.33-.2-1.23h-.18l-.31.06c-.15-.16-.23-.27-.23-.34A9.8,9.8,0,0,1,432.72,634.34Zm2.41,7.16a.86.86,0,0,0,.68.39l.61-.95v-.2h-.12Z" transform="translate(-344.69 -66)"/><path class="cls-2" d="M445.31,642.46h-.11a.54.54,0,0,1-.38-.49c.74-.82,1.37-1.55,1.87-2.21a3.43,3.43,0,0,0,.76-1.29c0-.25-.39-.43-1.16-.55l-.77.11c-.15,0-.26-.16-.32-.49,0-.17.26-.28.76-.33,1.21,0,1.9.4,2.08,1.2v.06l-.05.11.05.11a3.7,3.7,0,0,1-.59,1.09c-.1,0-.21.13-.34.38a14.24,14.24,0,0,0-1.09,1.37l1.69-.48c.26,0,.38.07.38.21l.06.27-.21.27h-.06a.4.4,0,0,1-.22,0A15.75,15.75,0,0,1,445.31,642.46Z" transform="translate(-344.69 -66)"/><path class="cls-2" d="M458.07,637c.45,0,.76.6.92,1.78a7.49,7.49,0,0,0,.13,1.05c-.07.39-.27.59-.59.59h-.2c-.16,0-.27-.79-.33-2.36-.06,0-.13-.29-.2-.86Zm1.77-2.88c.53,0,.89.87,1.05,2.62,0,.39.08.59.2.59a17.1,17.1,0,0,1,3.22-.66c.74,0,1.11.4,1.11,1.19l-.07.26a.06.06,0,0,0,.07.07,34.54,34.54,0,0,0-.4,4.13l.07.46c-.09.2-.17.31-.26.33l-.39-.2a12.15,12.15,0,0,0-3,.72h-.39c-.13,0-.2-.17-.2-.39v-.06c0-.25.86-.53,2.56-.86.44,0,.66-.13.66-.26a.6.6,0,0,0-.07-.27,10.46,10.46,0,0,1,.2-1.37h-.06l-1.84.46a.64.64,0,0,1-.4-.33v-.2c0-.17.66-.37,2-.59a.43.43,0,0,0,.2.07c.23,0,.45-.51.65-1.51a4.5,4.5,0,0,0,.07-.72l-.2-.13-2.75.59h-.14a1.29,1.29,0,0,1-.65-.2v1.25a11.69,11.69,0,0,1-1.51,5.51,1.13,1.13,0,0,1-.65.39h-.07c-.14,0-.2-.19-.2-.59a14.31,14.31,0,0,0,1.44-6.23v-.07a8.91,8.91,0,0,0-.06-.92l.06-.13a24.17,24.17,0,0,1-.52-2.75Z" transform="translate(-344.69 -66)"/><path class="cls-2" d="M472.73,633.57h.13a1.41,1.41,0,0,1,.79,1.24h.13c.11,0,.35-.31.72-.85.07,0,.16.09.26.26v.07a7.07,7.07,0,0,1-1,1.77v.13H474a13.37,13.37,0,0,0,2-.59c.38.17.57.3.58.39,0,.35-.22.55-.65.6v2.3c0,.1.61.21,1.84.32a.83.83,0,0,1,.26.52v.07c0,.13-.09.2-.26.2-.93-.09-1.48-.13-1.64-.13-.12,2.26-.32,3.58-.59,3.94a8,8,0,0,1-.2,1.11.58.58,0,0,1,.06.26c0,.27-.1.4-.19.4h-.07c0-3,.07-4.82.07-5.58-.05,0-.07,0-.07-.07l-1.44.33v.66c0,1.05-.11,1.58-.33,1.58h-.2a6.72,6.72,0,0,1-.39-2.11.43.43,0,0,0-.2.07c-1.88-.08-2.82-.28-2.82-.59v-.14c0-.06.07-.12.2-.19.56.09.89.13,1,.13,1.32,0,2-.15,2-.46a15.42,15.42,0,0,0,.19-2h-.06c-.69.08-1.08.13-1.18.13-.79,0-1.18-.18-1.18-.53,0-.13.7-.29,2.1-.46a1,1,0,0,0,.32-.79,9.72,9.72,0,0,1-.58-1.64v-.19C472.54,633.7,472.6,633.64,472.73,633.57Zm.92,3.54v.14a.9.9,0,0,1,.27.51c-.05.69-.07,1.2-.07,1.52,0,0,.07,0,.07.06.83-.18,1.24-.32,1.24-.39v-.26c0-.38,0-1-.07-1.77,0,0-.06,0-.06-.07A7.51,7.51,0,0,1,473.65,637.11Z" transform="translate(-344.69 -66)"/><path class="cls-2" d="M484.46,634.34h.18c.09,0,.18.2.28.6a7.36,7.36,0,0,0-.92,1.53l.13.26-.07.34.19.1A1.84,1.84,0,0,1,485,637h.7c.19.18.31.26.35.26h.11v-.3c0-.23,0-.6-.07-1.1l.22-.15.57.5c0-.13.14-.22.41-.26q.75.39.75.87a13,13,0,0,0-.33,1.45v.12h.13l.85-.8h.1a.39.39,0,0,1,.23.35,1.81,1.81,0,0,1-.76,1.27h-.77s-.09-.06-.15-.17v-2.13h-.25c-.2.07-.31.28-.31.63v1.78q0,.09-.45.15c-.16-.16-.24-.27-.24-.35s0-.68.08-1.37l-.34.07c0-.08-.08-.12-.25-.12-.88.23-1.38.44-1.48.62v.35l.07.5H485s.14.1.28.3v.18c0,.1-.37.26-1.11.49l-.07.49v.13a.85.85,0,0,0,.22.52,11.79,11.79,0,0,0,4.63-2.11h.12s.18.19.42.56a5.86,5.86,0,0,1-1.19,2.2v.56a17.57,17.57,0,0,1,2.1,1.84l.06.34-.09,0H490a6.7,6.7,0,0,1-1.22-1l-1-.63a1.78,1.78,0,0,1-1.56,1.21h-.11l-.17-.23v-.09a4,4,0,0,0,1.06-1.13v-.17a3.4,3.4,0,0,0-1.5-.94c-.8.2-1.21.39-1.22.58.12,1.51.19,2.36.19,2.52l-.1,0h-.31c-.28,0-.41-.8-.41-2.39-.08-.2-.18-.3-.31-.3a4.51,4.51,0,0,0-.73.07.6.6,0,0,1-.67-.56v0c0-.05.05-.1.16-.15h1.49c-.1-1.22-.14-2.07-.14-2.54l.07-.33-.21-1.23h-.18l-.3.06c-.16-.16-.24-.27-.24-.34A9.8,9.8,0,0,1,484.46,634.34Zm2.41,7.16a.87.87,0,0,0,.68.39l.61-.95v-.2H488Z" transform="translate(-344.69 -66)"/><path class="cls-2" d="M498.16,644h-.22a1,1,0,0,1-.6-.32,1.63,1.63,0,0,1,.38-.5h0s.07,0,.07.06a4.29,4.29,0,0,0,1.19-1c.17,0,.41-.36.71-1.09a.49.49,0,0,0,.06-.27v-.06c-.07-.51-.33-.76-.77-.76a4.34,4.34,0,0,0-1.91.65,1.76,1.76,0,0,0-.44-.22l-.11-.38a7.66,7.66,0,0,1,1.15-.76,3.63,3.63,0,0,0,1.31-2.19,1.15,1.15,0,0,0-.6-.66.47.47,0,0,1-.16-.05,3.14,3.14,0,0,0-1,.49h0c-.28,0-.44-.07-.5-.22v-.27c0-.25.48-.49,1.43-.71h0c.73.26,1.1.52,1.1.76a1,1,0,0,1,.33.66,3.06,3.06,0,0,1-.94,2.08v0H499c.41,0,.84.35,1.31,1a2.24,2.24,0,0,1,.11.49v.33a2.91,2.91,0,0,1-.66,1.48A7,7,0,0,1,498.16,644Z" transform="translate(-344.69 -66)"/><path class="cls-2" d="M515.52,637c.45,0,.76.6.92,1.78a7.49,7.49,0,0,0,.13,1.05c-.07.39-.27.59-.59.59h-.2c-.16,0-.27-.79-.33-2.36-.06,0-.13-.29-.2-.86Zm1.77-2.88c.53,0,.89.87,1.05,2.62,0,.39.08.59.2.59a17.21,17.21,0,0,1,3.21-.66c.75,0,1.12.4,1.12,1.19l-.07.26a.06.06,0,0,0,.07.07,34.54,34.54,0,0,0-.4,4.13l.07.46c-.09.2-.17.31-.26.33l-.4-.2a12.17,12.17,0,0,0-3,.72h-.39c-.13,0-.2-.17-.2-.39v-.06c0-.25.86-.53,2.56-.86.44,0,.66-.13.66-.26a.6.6,0,0,0-.07-.27,10.46,10.46,0,0,1,.2-1.37h-.07l-1.83.46a.64.64,0,0,1-.4-.33v-.2c0-.17.66-.37,2-.59a.4.4,0,0,0,.2.07c.23,0,.45-.51.65-1.51a4.5,4.5,0,0,0,.07-.72l-.2-.13-2.75.59h-.14a1.29,1.29,0,0,1-.65-.2v1.25a11.69,11.69,0,0,1-1.51,5.51,1.13,1.13,0,0,1-.65.39h-.07c-.14,0-.2-.19-.2-.59a14.31,14.31,0,0,0,1.44-6.23v-.07a8.91,8.91,0,0,0-.06-.92l.06-.13a24.17,24.17,0,0,1-.52-2.75Z" transform="translate(-344.69 -66)"/><path class="cls-2" d="M530.18,633.57h.13a1.41,1.41,0,0,1,.79,1.24h.13c.11,0,.35-.31.72-.85.07,0,.16.09.26.26v.07a7.07,7.07,0,0,1-1,1.77v.13h.26a13.09,13.09,0,0,0,2-.59c.39.17.58.3.59.39,0,.35-.22.55-.65.6v2.3c0,.1.61.21,1.84.32a.83.83,0,0,1,.26.52v.07c0,.13-.09.2-.26.2-.93-.09-1.48-.13-1.65-.13-.11,2.26-.31,3.58-.58,3.94a8,8,0,0,1-.2,1.11.58.58,0,0,1,.06.26c0,.27-.1.4-.19.4h-.07c0-3,.07-4.82.07-5.58,0,0-.07,0-.07-.07l-1.44.33v.66c0,1.05-.11,1.58-.33,1.58h-.2a6.72,6.72,0,0,1-.39-2.11.43.43,0,0,0-.2.07c-1.88-.08-2.82-.28-2.82-.59v-.14c0-.06.07-.12.2-.19.56.09.89.13,1,.13,1.32,0,2-.15,2-.46a15.42,15.42,0,0,0,.19-2h-.06l-1.18.13c-.79,0-1.18-.18-1.18-.53,0-.13.7-.29,2.1-.46a1,1,0,0,0,.32-.79A9.72,9.72,0,0,1,530,634v-.19C530,633.7,530.05,633.64,530.18,633.57Zm.92,3.54v.14a.9.9,0,0,1,.27.51c0,.69-.07,1.2-.07,1.52,0,0,.07,0,.07.06.83-.18,1.24-.32,1.24-.39v-.26c0-.38,0-1-.07-1.77,0,0-.06,0-.06-.07A7.51,7.51,0,0,1,531.1,637.11Z" transform="translate(-344.69 -66)"/><path class="cls-2" d="M541.91,634.34h.18c.09,0,.18.2.28.6a7.36,7.36,0,0,0-.92,1.53l.13.26-.07.34.19.1a1.84,1.84,0,0,1,.72-.21h.7c.19.18.31.26.35.26h.11v-.3c0-.23,0-.6-.07-1.1l.22-.15.57.5c0-.13.14-.22.41-.26q.75.39.75.87a13,13,0,0,0-.33,1.45v.12h.13l.85-.8h.1a.39.39,0,0,1,.23.35,1.81,1.81,0,0,1-.76,1.27h-.77s-.09-.06-.15-.17v-2.13h-.25c-.2.07-.31.28-.31.63v1.78q0,.09-.45.15c-.16-.16-.24-.27-.24-.35s0-.68.08-1.37l-.34.07c0-.08-.08-.12-.25-.12-.88.23-1.38.44-1.48.62v.35l.07.5h.89s.14.1.28.3v.18c0,.1-.37.26-1.11.49l-.07.49v.13a.85.85,0,0,0,.22.52,11.79,11.79,0,0,0,4.63-2.11h.12s.18.19.42.56a5.86,5.86,0,0,1-1.19,2.2v.56a17.57,17.57,0,0,1,2.1,1.84l.06.34-.09,0h-.38a6.7,6.7,0,0,1-1.22-1l-1-.63a1.78,1.78,0,0,1-1.56,1.21h-.11l-.17-.23v-.09a4,4,0,0,0,1.06-1.13v-.17a3.4,3.4,0,0,0-1.5-.94c-.8.2-1.21.39-1.22.58.12,1.51.19,2.36.19,2.52l-.1,0h-.31c-.28,0-.41-.8-.41-2.39-.08-.2-.18-.3-.31-.3a4.51,4.51,0,0,0-.73.07.6.6,0,0,1-.67-.56v0c0-.05,0-.1.16-.15H541c-.1-1.22-.14-2.07-.14-2.54l.07-.33-.21-1.23h-.18l-.3.06c-.16-.16-.24-.27-.24-.34A9.8,9.8,0,0,1,541.91,634.34Zm2.41,7.16a.87.87,0,0,0,.68.39l.61-.95v-.2h-.12Z" transform="translate(-344.69 -66)"/><path class="cls-2" d="M556.65,643l-.22-.06a.35.35,0,0,1-.16.06c-.2-.29-.33-.44-.38-.44a15.53,15.53,0,0,0,.11-1.8.43.43,0,0,1-.06-.17l-.28.06h-.44c-.65,0-1-.19-1.14-.55,0,0-.05,0-.05-.06a19.33,19.33,0,0,1,1.42-1.91,2.35,2.35,0,0,1,1.09-1.48h.05c.13,0,.28.13.44.39v.49c0,.35,0,1-.11,2H557a2.93,2.93,0,0,0,1-.38.47.47,0,0,1,.16.05l.33-.05a.61.61,0,0,1,.44.38v.11a.47.47,0,0,1-.44.33v-.11h-.17l-.7.27c-.62,0-.93.5-.93,1.48a1.75,1.75,0,0,0,.11.55,1.4,1.4,0,0,1-.17.49Zm-1.31-3.23.66,0h.15l.06-.28v-.65a.38.38,0,0,1,.06-.22.43.43,0,0,1-.06-.22l.06-.11h-.06a2.71,2.71,0,0,0-.71,1.26.29.29,0,0,0-.22.22S555.34,639.75,555.34,639.78Z" transform="translate(-344.69 -66)"/><path class="cls-2" d="M599.71,77.27c.2.08.31.17.32.26v.26a15.2,15.2,0,0,1-3.8,1.71s0,.06-.07.06l.07.13v.2c0,.22,0,.55-.07,1l.13.06h.46a7.17,7.17,0,0,0-.2-1.25c0-.11.11-.22.33-.32.39,0,.59.67.59,2l-.06.39v.73l.06.13a1.48,1.48,0,0,1,.79-.33,3.83,3.83,0,0,1-.79.85c.31,2.36.47,3.74.47,4.13l-.33.27h-.33c-.18,0-.35-.48-.53-1.44L597,86a17.66,17.66,0,0,1-.13-2.16.06.06,0,0,1-.07-.07c-.35.28-1,.85-2,1.71h-.13c-.18-.09-.26-.2-.26-.33a4.57,4.57,0,0,1,.78-.92v-.53l.2-3.93h-.07a16.3,16.3,0,0,1-1.7.32.6.6,0,0,1-.53-.32v-.13c0-.18.48-.33,1.45-.46A50,50,0,0,0,599.71,77.27Zm-4.27-3.68c.2,0,.33.29.39.85H596a8,8,0,0,1,2.29-.65h.06c.28,0,.46.19.53.59a13.59,13.59,0,0,1-1.24,3.41.6.6,0,0,1-.27.07c0-.07-.07-.13-.2-.2a4.44,4.44,0,0,0-1.37,1h-.27a.56.56,0,0,1-.33-.53v-.39c-.12-1.8-.19-3-.19-3.54v-.2A.4.4,0,0,1,595.44,73.59Zm.46,2.17a.13.13,0,0,0,.13.13l1.05-.07c.17,0,.26.13.26.26s.24-.43.46-1.31V74.7a17.08,17.08,0,0,1-1.9.53Zm.07,1a4.17,4.17,0,0,0,.19.72q1.05-.15,1.05-.39a3.61,3.61,0,0,1,.13-.66h-.13A2.91,2.91,0,0,1,596,76.74Zm.71,5.84c0,.06-.24.26-.71.59v.46H596a2.47,2.47,0,0,0,.78-.59v-.33C596.81,82.62,596.77,82.58,596.68,82.58Zm-.65-.79v.46l.65-.06h.07v-.73h-.07C596.25,81.63,596,81.74,596,81.79Zm5-2.23c.3,0,.46.13.46.39-.88,1.81-1.32,2.75-1.32,2.83a6.23,6.23,0,0,1,1.45,1.31v.2a.45.45,0,0,1-.46.26c-.73-.83-1.21-1.25-1.44-1.25-.41.61-.78.92-1.12.92s-.31-.17-.33-.26v-.2l1-1a2.55,2.55,0,0,0-1-.92l-.39.06h-.07c-.06,0-.12-.06-.19-.2v-.19a23.82,23.82,0,0,1,3.34-2Zm-2,1.9v.13c0,.06.17.24.53.53h.13a6.21,6.21,0,0,0,.58-1.31h-.06A13.06,13.06,0,0,1,599.05,81.46Z" transform="translate(-344.69 -66)"/><path class="cls-2" d="M606.73,75.89c.06,0,.15.08.26.26v.13a19.08,19.08,0,0,1-1.18,2.29v.07h.06a2.64,2.64,0,0,1,1-.33.68.68,0,0,1,.45.66l-.71,1.77c.27.11.43.22.45.33,0,.41-.52.82-1.57,1.24a.64.64,0,0,1-.39-.33v-.19a8,8,0,0,0,1.18-2.23h-.07l-1.11.39h-.2a.64.64,0,0,1-.33-.39,16.67,16.67,0,0,1,1.91-3.67Zm.74,6.87a11.59,11.59,0,0,1-2.26,2.57c-.11,0-.22-.11-.32-.32s.7-1,2.1-2.23a3.35,3.35,0,0,0,.47-.39Zm1.58-7h.13c.07,0,.16.09.27.26a3.63,3.63,0,0,0-.27.85q.09.27.6.27h.51c.43-.09.67-.14.73-.14h.26c.09,0,.14.06.14.14v.13l-.86,2.3a18.44,18.44,0,0,1,3.61,2.62v.33c0,.06-.07.13-.2.2h-.13a6.46,6.46,0,0,1-1.64-1.18,6.47,6.47,0,0,0-2-1.25c-.55,1.08-1.09,2.06-1.64,3l-.13.07h-.45a1.64,1.64,0,0,1-.66-1c.06-.17.13-.26.2-.26.29,0,.47.2.52.59h.07a9.86,9.86,0,0,0,1.38-2.75,7.1,7.1,0,0,0-1.64-1l-.07-.13V78.7c.09-.17.2-.26.33-.26a7.78,7.78,0,0,1,1.77.72,3.44,3.44,0,0,0,.52-1.18v-.06c-1.22,0-1.84-.33-1.84-1A1.42,1.42,0,0,1,609.05,75.75Zm.85,6.1q1.32.5,1.32,1.05c0,.06-.07.13-.2.2h-.2c-.86-.43-1.3-.71-1.31-.86S609.64,82,609.9,81.85Zm.2,2.43a1,1,0,0,1,.59,1,.12.12,0,0,1-.13.13h-.13c-.48-.37-.72-.67-.72-.92A.78.78,0,0,1,610.1,84.28Z" transform="translate(-344.69 -66)"/><path class="cls-2" d="M620.67,75.26q.2,0,.39.39c0,.15,0,.61-.13,1.38h.4q.21-1,.39-1h.13c.13,0,.22.27.26.79h.07a2.43,2.43,0,0,0,1.57-.66h.07a.45.45,0,0,1,.26.47v.26c0,.13-.68.41-2,.85l-.19,1.71h-.19c-.09-1-.22-1.58-.4-1.58h-.13c-.09,0-.13.06-.13.13v1.06a9.72,9.72,0,0,1-.46,1.7c.17.65.3,1,.39,1,.88-.13,1.31-.37,1.31-.72q.12-1.44.6-1.44l.19.26c0,.59-.06,1-.06,1.25H623a6.18,6.18,0,0,0,1.78-.72l.06.13v.07q0,.78-1.38,1.17l-.06.14V82a30,30,0,0,1,2.29,2.62V85h-.26c-.06,0-.85-.8-2.36-2.36l-.2-.13h-.13c-.23,1.66-.47,2.49-.73,2.49h-.25c-.11,0-.18-.09-.2-.26s.15-1,.45-2.36l-1.17-.27s0,.07-.07.07l.07.46v2c0,.87-.11,1.31-.33,1.31h-.2c-.34-.25-.76-.58-1.25-1l-.39.07c-.08-.11-.13-.17-.13-.2v-.13a3.49,3.49,0,0,0,.19-1c-.34-.2-.52-.42-.52-.66a17.47,17.47,0,0,1,1.51-2.36v-.39a.93.93,0,0,1-.19-.53c.05-.07.31-.13.78-.2v-.06c0-.29,0-.72.06-1.32l-.12-.06-.66.06c-.74,0-1.12-.15-1.12-.33v-.26a5.89,5.89,0,0,1,1.78-.32l.06-.13v-.4Q620.34,75.26,620.67,75.26Zm-1.11,7.15-.73.92v.06c0,.07.07.13.2.2a4.14,4.14,0,0,0,.66-1.11Zm.58.85a9.15,9.15,0,0,0-.72,1.12.79.79,0,0,0,.79.52.56.56,0,0,0,.07-.19c0-.07,0-.37-.07-.92l.07-.46ZM624,78.67a5.27,5.27,0,0,1,1,1v.13h-.13c-.88-.33-1.31-.6-1.31-.78v-.13C623.6,78.74,623.73,78.67,624,78.67Z" transform="translate(-344.69 -66)"/><path class="cls-2" d="M631,75.62h.2c.09,0,.18.18.27.53a3.62,3.62,0,0,1,.91-.27h.13c.14,0,.25.2.33.59v.86q0,2.27.46,8c0,.14-.17.2-.39.2h-.13c-.19,0-.46-.65-.79-2H632a2.29,2.29,0,0,1,.39.39h.06c-.08-.89-.15-1.85-.19-2.88-.75.33-1.12.59-1.12.78q-.06,1.74-.06,2t-.27.33h-.13c-.13,0-.19-.18-.19-.4,0-.55,0-1.23-.07-2,0-.54.07-1.06.07-1.58-.09,0-.14,0-.14-.13a12.71,12.71,0,0,0,.26-3h-.06a.53.53,0,0,1-.26.06h-.2a.44.44,0,0,1-.46-.26V76.8q0-.24,1.05-.33C630.78,75.91,630.87,75.62,631,75.62Zm.2,4.59v.86h.07a4.63,4.63,0,0,1,1-.4v-1A2.25,2.25,0,0,0,631.17,80.21Zm.13-3v.14c0,.44,0,1.09-.06,2h.13l.79-.2V76.54H632C631.54,76.74,631.3,77,631.3,77.19Zm3.35-.78a.55.55,0,0,1,.33.45c-.09,1.44-.13,2.3-.13,2.57h.06l1.31-.53q0-1.77.6-1.77a5.72,5.72,0,0,1,1.11,1.05v.13q0,.39-1.11,1v1.51l-.07.66c.48,0,.72.11.72.19v.07l-.72.52v.93a.13.13,0,0,0,.13.13h.66c.92,0,1.38.23,1.38.71-.07.18-.13.27-.2.27h-.13a5,5,0,0,0-1-.27h-.39l-3.09.33-.06-.13v-.2c0-.17.68-.39,2-.65v-.06q0-.11-.06-.93l-1.25.2c-.2-.08-.31-.17-.33-.26v-.13c0-.16.55-.36,1.64-.59v-1c0-.22,0-.55.07-1l-.13-.06c-.83.29-1.25.51-1.25.65,0,.83-.09,1.25-.26,1.25s-.33-.44-.33-1.32v-.39C634.19,77.54,634.35,76.41,634.65,76.41Zm2.3,1.44-.07.65a.07.07,0,0,1,.07.07c.3-.15.46-.26.46-.32s-.13-.2-.39-.4Z" transform="translate(-344.69 -66)"/><path class="cls-2" d="M647.05,74.44h.06c.31,0,.47.11.47.33a4.46,4.46,0,0,1-.2,1h.06l1-.33h.13c.07,0,.13.09.19.26,0,.36-.43.68-1.31,1a.75.75,0,0,0-.19.46v1.44h.13c.78-1.35,1.35-2,1.7-2s.33.13.33.2v.13a2.65,2.65,0,0,1-.59,1V78a.13.13,0,0,1,.13.14.12.12,0,0,1-.13.13l-.2-.13s-.14.13-.26.38v.07a16.29,16.29,0,0,0,2-.72l.07.13a3.78,3.78,0,0,1-1.77,1.45c-1.09.34-1.64.74-1.64,1.17-.07,0-.16.19-.26.53l.13.07H647a12.61,12.61,0,0,0,2-.66,1.58,1.58,0,0,1,.73-.2c.46,0,.74.31.85.92a32,32,0,0,1-.65,4.66h-.33q-.09,0-.33-.33v-.13a44.29,44.29,0,0,0,.72-4.39h-.06a15.22,15.22,0,0,0-2.24.78q-.72.23-.72.33,0,.72.33.72a8.86,8.86,0,0,1,1.7-.52h.2c.07,0,.15.09.26.26v.13a9.65,9.65,0,0,1-1.9.92,1.16,1.16,0,0,0-.2.72c0,.53.09.79.2.79a5.12,5.12,0,0,1,1-.26h.07c.09,0,.13,0,.13.13-.83.89-1.25,1.44-1.25,1.64h-.19c-.32,0-.6-1.12-.86-3.34-.13-.79-.24-1.19-.32-1.19-.63.88-1,1.32-1.19,1.32h-.13l-.19-.27V83.1a17.35,17.35,0,0,1,1.57-2.69v-.07c-.13,0-.19-.09-.19-.13-1.51.18-2.51.26-3,.26a1.41,1.41,0,0,1-.26-.32V80q0-.21,2.16-.33c1.14-.22,1.71-.37,1.71-.46l.06-.13-.06-.4q.06-.61.06-1.17V77h-.52c-1,0-1.45-.26-1.45-.78a.47.47,0,0,1,.26-.13,9.46,9.46,0,0,1,1.32.13C646.53,76.21,646.81,75.62,647.05,74.44Z" transform="translate(-344.69 -66)"/><path class="cls-2" d="M572.18,637c.45,0,.76.6.92,1.78a7.49,7.49,0,0,0,.13,1.05c-.07.39-.27.59-.59.59h-.2c-.16,0-.27-.79-.33-2.36-.06,0-.13-.29-.2-.86Zm1.77-2.88c.53,0,.88.87,1,2.62,0,.39.08.59.19.59a17.41,17.41,0,0,1,3.22-.66c.75,0,1.12.4,1.12,1.19l-.07.26a.06.06,0,0,0,.07.07,34.54,34.54,0,0,0-.4,4.13l.07.46c-.09.2-.17.31-.26.33l-.4-.2a12.17,12.17,0,0,0-2.95.72h-.4c-.12,0-.19-.17-.19-.39v-.06c0-.25.86-.53,2.56-.86.44,0,.66-.13.66-.26a.6.6,0,0,0-.07-.27,10.46,10.46,0,0,1,.2-1.37h-.07l-1.83.46a.64.64,0,0,1-.4-.33v-.2c0-.17.66-.37,2-.59a.4.4,0,0,0,.2.07c.23,0,.45-.51.65-1.51a4.5,4.5,0,0,0,.07-.72l-.2-.13-2.75.59h-.14a1.35,1.35,0,0,1-.66-.2v1.25a11.67,11.67,0,0,1-1.5,5.51,1.12,1.12,0,0,1-.66.39H573c-.14,0-.2-.19-.2-.59a14.31,14.31,0,0,0,1.44-6.23v-.07a8.91,8.91,0,0,0-.06-.92l.06-.13a24.17,24.17,0,0,1-.52-2.75Z" transform="translate(-344.69 -66)"/><path class="cls-2" d="M586.84,633.57H587a1.41,1.41,0,0,1,.79,1.24h.13c.11,0,.35-.31.72-.85.07,0,.16.09.26.26v.07a7.46,7.46,0,0,1-1,1.77v.13h.26a13.09,13.09,0,0,0,2-.59c.39.17.58.3.59.39,0,.35-.22.55-.65.6v2.3c0,.1.61.21,1.84.32a.81.81,0,0,1,.25.52v.07c0,.13-.08.2-.25.2-.93-.09-1.48-.13-1.65-.13-.11,2.26-.31,3.58-.58,3.94a8,8,0,0,1-.2,1.11.58.58,0,0,1,.06.26c0,.27-.11.4-.19.4h-.07c.05-3,.07-4.82.07-5.58-.05,0-.07,0-.07-.07l-1.44.33v.66c0,1.05-.11,1.58-.33,1.58h-.2a6.86,6.86,0,0,1-.4-2.11.44.44,0,0,0-.19.07c-1.88-.08-2.82-.28-2.82-.59v-.14c0-.06.07-.12.2-.19.56.09.89.13,1,.13,1.32,0,2-.15,2-.46a15.42,15.42,0,0,0,.19-2h-.06l-1.18.13c-.79,0-1.18-.18-1.18-.53,0-.13.7-.29,2.09-.46a1,1,0,0,0,.33-.79,9.72,9.72,0,0,1-.58-1.64v-.19C586.65,633.7,586.71,633.64,586.84,633.57Zm.92,3.54v.14a.9.9,0,0,1,.27.51c0,.69-.07,1.2-.07,1.52,0,0,.07,0,.07.06.83-.18,1.24-.32,1.24-.39v-.26c0-.38,0-1-.07-1.77,0,0-.06,0-.06-.07A7.51,7.51,0,0,1,587.76,637.11Z" transform="translate(-344.69 -66)"/><path class="cls-2" d="M598.57,634.34h.18q.13,0,.27.6a7.57,7.57,0,0,0-.91,1.53l.13.26-.07.34.18.1a1.92,1.92,0,0,1,.73-.21h.7c.19.18.31.26.35.26h.11v-.3c0-.23,0-.6-.07-1.1l.22-.15.57.5c0-.13.14-.22.41-.26q.75.39.75.87a13,13,0,0,0-.33,1.45v.12h.13l.85-.8h.1a.39.39,0,0,1,.23.35,1.81,1.81,0,0,1-.76,1.27h-.77s-.09-.06-.15-.17v-2.13h-.25c-.2.07-.31.28-.31.63v1.78q0,.09-.45.15c-.16-.16-.24-.27-.24-.35s0-.68.08-1.37l-.34.07c0-.08-.08-.12-.25-.12-.88.23-1.38.44-1.48.62v.35l.07.5h.89s.14.1.28.3v.18c0,.1-.37.26-1.11.49l-.07.49v.13a.85.85,0,0,0,.22.52,11.79,11.79,0,0,0,4.63-2.11h.12s.18.19.41.56a5.77,5.77,0,0,1-1.18,2.2v.56a18.39,18.39,0,0,1,2.1,1.84l.06.34-.09,0h-.38a6.7,6.7,0,0,1-1.22-1l-1-.63a1.78,1.78,0,0,1-1.56,1.21h-.11L600,644v-.09a4,4,0,0,0,1.06-1.13v-.17a3.4,3.4,0,0,0-1.5-.94c-.8.2-1.21.39-1.22.58.12,1.51.19,2.36.19,2.52l-.1,0h-.31c-.28,0-.41-.8-.41-2.39-.08-.2-.18-.3-.31-.3a4.51,4.51,0,0,0-.73.07.6.6,0,0,1-.67-.56v0c0-.05.05-.1.16-.15h1.49c-.1-1.22-.14-2.07-.14-2.54l.07-.33-.21-1.23h-.18l-.3.06c-.16-.16-.24-.27-.24-.34A9.8,9.8,0,0,1,598.57,634.34ZM601,641.5a.87.87,0,0,0,.68.39l.61-.95v-.2h-.12Z" transform="translate(-344.69 -66)"/><path class="cls-2" d="M611.55,643.56h-.06a.9.9,0,0,1-.81-.55c0-.37.11-.55.22-.55h.1a1.74,1.74,0,0,1,.34.34h0q.64,0,1.86-1.65a2.51,2.51,0,0,0,.39-.88v-.54h0a.83.83,0,0,1-.34-.05c-1.16.09-1.75.22-1.75.38a.33.33,0,0,0-.15.06.62.62,0,0,1-.5-.61v-.06a6.11,6.11,0,0,0,.33-2,.6.6,0,0,0-.27-.44.4.4,0,0,1-.06-.22c0-.06.15-.15.44-.27,0-.29.13-.44.38-.44l.39.39h.05c.18,0,.45,0,.82-.06l.27.44v.05c0,.21-.42.38-1.26.5v0l-.21,1.47.33-.05a3.53,3.53,0,0,1,1.8.28,2.05,2.05,0,0,1,.44.87,5.61,5.61,0,0,1-.71,1.75,5.54,5.54,0,0,1-.88,1.09A2.63,2.63,0,0,1,611.55,643.56Z" transform="translate(-344.69 -66)"/><path class="cls-2" d="M628.5,637c.46,0,.76.6.92,1.78a7.49,7.49,0,0,0,.13,1.05c-.07.39-.26.59-.59.59h-.2c-.15,0-.26-.79-.32-2.36-.07,0-.13-.29-.2-.86Zm1.78-2.88c.53,0,.88.87,1.05,2.62,0,.39.07.59.19.59a17.26,17.26,0,0,1,3.22-.66c.74,0,1.11.4,1.11,1.19l-.06.26s0,.07.06.07a32.55,32.55,0,0,0-.39,4.13l.07.46c-.09.2-.18.31-.26.33l-.4-.2a12.05,12.05,0,0,0-3,.72h-.4c-.13,0-.19-.17-.19-.39v-.06c0-.25.85-.53,2.55-.86.44,0,.66-.13.66-.26a.5.5,0,0,0-.07-.27,12.49,12.49,0,0,1,.2-1.37h-.06l-1.84.46a.69.69,0,0,1-.4-.33v-.2c0-.17.66-.37,2-.59a.47.47,0,0,0,.2.07c.23,0,.45-.51.66-1.51a6.09,6.09,0,0,0,.07-.72l-.2-.13-2.76.59h-.13a1.35,1.35,0,0,1-.66-.2v1.25a11.67,11.67,0,0,1-1.5,5.51,1.12,1.12,0,0,1-.66.39h-.07c-.13,0-.2-.19-.2-.59a14.32,14.32,0,0,0,1.45-6.23v-.07c0-.24,0-.55-.07-.92l.07-.13a24.17,24.17,0,0,1-.52-2.75Z" transform="translate(-344.69 -66)"/><path class="cls-2" d="M643.17,633.57h.13a1.42,1.42,0,0,1,.78,1.24h.13c.11,0,.35-.31.73-.85.07,0,.15.09.26.26v.07a7.31,7.31,0,0,1-1.05,1.77v.13h.26a12.72,12.72,0,0,0,2-.59c.38.17.58.3.59.39q0,.53-.66.6v2.3c0,.1.61.21,1.84.32a.83.83,0,0,1,.26.52v.07c0,.13-.09.2-.26.2-.93-.09-1.47-.13-1.64-.13-.12,2.26-.32,3.58-.59,3.94a6.62,6.62,0,0,1-.2,1.11.58.58,0,0,1,.06.26c0,.27-.1.4-.19.4h-.07c0-3,.07-4.82.07-5.58a.06.06,0,0,1-.07-.07l-1.44.33v.66c0,1.05-.11,1.58-.33,1.58h-.19a6.5,6.5,0,0,1-.4-2.11.37.37,0,0,0-.19.07c-1.88-.08-2.83-.28-2.83-.59v-.14c0-.06.07-.12.2-.19a9.93,9.93,0,0,0,1,.13c1.31,0,2-.15,2-.46a17.52,17.52,0,0,0,.19-2h-.06c-.7.08-1.09.13-1.19.13-.78,0-1.18-.18-1.18-.53,0-.13.7-.29,2.1-.46a1,1,0,0,0,.33-.79A10.35,10.35,0,0,1,643,634v-.19C643,633.7,643,633.64,643.17,633.57Zm.91,3.54v.14a.9.9,0,0,1,.27.51c-.05.69-.07,1.2-.07,1.52.05,0,.07,0,.07.06.83-.18,1.24-.32,1.24-.39v-.26q0-.57-.06-1.77a.07.07,0,0,1-.07-.07A7.51,7.51,0,0,1,644.08,637.11Z" transform="translate(-344.69 -66)"/><path class="cls-2" d="M654.9,634.34h.18q.13,0,.27.6a8,8,0,0,0-.92,1.53l.13.26-.06.34.18.1a1.84,1.84,0,0,1,.72-.21h.7c.2.18.31.26.35.26h.12v-.3c0-.23,0-.6-.07-1.1l.22-.15.56.5c0-.13.14-.22.41-.26q.75.39.75.87a13,13,0,0,0-.33,1.45v.12h.13l.86-.8h.09a.37.37,0,0,1,.23.35,1.83,1.83,0,0,1-.75,1.27h-.78s-.09-.06-.14-.17v-2.13h-.25c-.21.07-.31.28-.31.63v1.78c0,.06-.15.11-.46.15-.15-.16-.23-.27-.23-.35s0-.68.07-1.37l-.33.07c0-.08-.09-.12-.25-.12-.89.23-1.38.44-1.49.62v.35l.07.5h.9s.13.1.28.3v.18c0,.1-.37.26-1.11.49l-.08.49v.13a.87.87,0,0,0,.23.52,11.86,11.86,0,0,0,4.63-2.11h.11c.05,0,.19.19.42.56a5.77,5.77,0,0,1-1.18,2.2v.56a19.28,19.28,0,0,1,2.1,1.84l.06.34-.1,0h-.37a6.54,6.54,0,0,1-1.23-1l-1-.63c-.4.81-.91,1.21-1.55,1.21h-.11l-.17-.23v-.09a3.79,3.79,0,0,0,1-1.13v-.17a3.3,3.3,0,0,0-1.5-.94c-.8.2-1.21.39-1.22.58.13,1.51.19,2.36.19,2.52l-.09,0h-.32c-.27,0-.41-.8-.41-2.39-.08-.2-.18-.3-.31-.3a4.61,4.61,0,0,0-.73.07.61.61,0,0,1-.67-.56v0c0-.05.06-.1.17-.15H654c-.09-1.22-.14-2.07-.14-2.54l.07-.33-.2-1.23h-.18l-.31.06c-.15-.16-.23-.27-.23-.34A9.55,9.55,0,0,1,654.9,634.34Zm2.4,7.16a.89.89,0,0,0,.69.39l.61-.95v-.2h-.13Z" transform="translate(-344.69 -66)"/><path class="cls-2" d="M667.93,643.53a2.85,2.85,0,0,1-.92-2.46v-.33a14.45,14.45,0,0,1,.92-4.1c.2-.33.35-.5.44-.5s.27.18.39.5v.11a7.44,7.44,0,0,0-.87,2.68h0l.28-.06c1.17.1,1.75.5,1.75,1.2v.17a3.83,3.83,0,0,1-1.15,2.46A1.56,1.56,0,0,1,667.93,643.53Zm.12-.82c.29,0,.69-.46,1.2-1.37a2.24,2.24,0,0,0,.11-.49v-.06c0-.33-.23-.54-.71-.65v-.06a.35.35,0,0,1-.16.06l-.12-.06a.91.91,0,0,0-.7.88v.71C667.81,642.36,667.94,642.71,668.05,642.71Z" transform="translate(-344.69 -66)"/><path class="cls-2" d="M680.5,637c.46,0,.76.6.92,1.78a7.49,7.49,0,0,0,.13,1.05c-.07.39-.26.59-.59.59h-.2c-.15,0-.26-.79-.32-2.36-.07,0-.13-.29-.2-.86Zm1.78-2.88c.53,0,.88.87,1.05,2.62,0,.39.07.59.19.59a17.26,17.26,0,0,1,3.22-.66c.74,0,1.11.4,1.11,1.19l-.06.26s0,.07.06.07a32.55,32.55,0,0,0-.39,4.13l.07.46c-.09.2-.18.31-.26.33l-.4-.2a12.05,12.05,0,0,0-3,.72h-.4c-.13,0-.19-.17-.19-.39v-.06c0-.25.85-.53,2.55-.86.44,0,.66-.13.66-.26a.5.5,0,0,0-.07-.27,12.49,12.49,0,0,1,.2-1.37h-.06l-1.84.46a.69.69,0,0,1-.4-.33v-.2c0-.17.66-.37,2-.59a.47.47,0,0,0,.2.07c.23,0,.45-.51.66-1.51a6.09,6.09,0,0,0,.07-.72l-.2-.13-2.76.59h-.13a1.35,1.35,0,0,1-.66-.2v1.25a11.67,11.67,0,0,1-1.5,5.51,1.12,1.12,0,0,1-.66.39h-.07c-.13,0-.2-.19-.2-.59a14.32,14.32,0,0,0,1.45-6.23v-.07c0-.24,0-.55-.07-.92l.07-.13a24.17,24.17,0,0,1-.52-2.75Z" transform="translate(-344.69 -66)"/><path class="cls-2" d="M695.17,633.57h.13a1.42,1.42,0,0,1,.78,1.24h.13c.11,0,.35-.31.73-.85.07,0,.15.09.26.26v.07a7.31,7.31,0,0,1-1.05,1.77v.13h.26a12.72,12.72,0,0,0,2-.59c.38.17.58.3.59.39q0,.53-.66.6v2.3c0,.1.61.21,1.84.32a.83.83,0,0,1,.26.52v.07c0,.13-.09.2-.26.2-.93-.09-1.47-.13-1.64-.13-.12,2.26-.32,3.58-.59,3.94a6.62,6.62,0,0,1-.2,1.11.58.58,0,0,1,.06.26c0,.27-.1.4-.19.4h-.07c0-3,.07-4.82.07-5.58a.06.06,0,0,1-.07-.07l-1.44.33v.66c0,1.05-.11,1.58-.33,1.58h-.19a6.5,6.5,0,0,1-.4-2.11.37.37,0,0,0-.19.07c-1.88-.08-2.83-.28-2.83-.59v-.14c0-.06.07-.12.2-.19a9.93,9.93,0,0,0,1,.13c1.31,0,2-.15,2-.46a17.52,17.52,0,0,0,.19-2h-.06c-.7.08-1.09.13-1.19.13-.78,0-1.18-.18-1.18-.53,0-.13.7-.29,2.1-.46a1,1,0,0,0,.33-.79A10.35,10.35,0,0,1,695,634v-.19C695,633.7,695,633.64,695.17,633.57Zm.91,3.54v.14a.9.9,0,0,1,.27.51c-.05.69-.07,1.2-.07,1.52.05,0,.07,0,.07.06.83-.18,1.24-.32,1.24-.39v-.26q0-.57-.06-1.77a.07.07,0,0,1-.07-.07A7.51,7.51,0,0,1,696.08,637.11Z" transform="translate(-344.69 -66)"/><path class="cls-2" d="M706.9,634.34h.18q.13,0,.27.6a8,8,0,0,0-.92,1.53l.13.26-.06.34.18.1a1.84,1.84,0,0,1,.72-.21h.7c.2.18.31.26.35.26h.12v-.3c0-.23,0-.6-.07-1.1l.22-.15.56.5c0-.13.14-.22.41-.26q.75.39.75.87a13,13,0,0,0-.33,1.45v.12h.13l.86-.8h.09a.37.37,0,0,1,.23.35,1.83,1.83,0,0,1-.75,1.27h-.78s-.09-.06-.14-.17v-2.13h-.25c-.21.07-.31.28-.31.63v1.78c0,.06-.15.11-.46.15-.15-.16-.23-.27-.23-.35s0-.68.07-1.37l-.33.07c0-.08-.09-.12-.25-.12-.89.23-1.38.44-1.49.62v.35l.07.5h.9s.13.1.28.3v.18c0,.1-.37.26-1.11.49l-.08.49v.13a.87.87,0,0,0,.23.52,11.86,11.86,0,0,0,4.63-2.11h.11c.05,0,.19.19.42.56a5.77,5.77,0,0,1-1.18,2.2v.56a19.28,19.28,0,0,1,2.1,1.84l.06.34-.1,0h-.37a6.54,6.54,0,0,1-1.23-1l-1-.63c-.4.81-.91,1.21-1.55,1.21h-.11l-.17-.23v-.09a3.79,3.79,0,0,0,1-1.13v-.17a3.3,3.3,0,0,0-1.5-.94c-.8.2-1.21.39-1.22.58.13,1.51.19,2.36.19,2.52l-.09,0h-.32c-.27,0-.41-.8-.41-2.39-.08-.2-.18-.3-.31-.3a4.61,4.61,0,0,0-.73.07.61.61,0,0,1-.67-.56v0c0-.05.06-.1.17-.15H706c-.09-1.22-.14-2.07-.14-2.54l.07-.33-.2-1.23h-.18l-.31.06c-.15-.16-.23-.27-.23-.34A9.55,9.55,0,0,1,706.9,634.34Zm2.4,7.16a.89.89,0,0,0,.69.39l.61-.95v-.2h-.13Z" transform="translate(-344.69 -66)"/><path class="cls-2" d="M720.16,643.36h0a.79.79,0,0,0-.55-.32v-.11s.05-.11.16-.17,0,0-.05,0a32.64,32.64,0,0,1,1.09-4.49,4.52,4.52,0,0,0,.28-.88s-.06,0-.06-.05a4,4,0,0,1-1.2.11A.79.79,0,0,1,719,637v-.27l.23-.22a.66.66,0,0,0,.35.11,5.31,5.31,0,0,0,2-.33h.17c0,.06,0,.15.17.27l-.06.11c0,.11.07.17.1.17a32.13,32.13,0,0,0-1.41,4.92,6.25,6.25,0,0,0-.06.87l.06.49Z" transform="translate(-344.69 -66)"/><path class="cls-2" d="M737.35,637c.45,0,.75.6.91,1.78a9.83,9.83,0,0,0,.13,1.05c-.06.39-.26.59-.58.59h-.2c-.16,0-.27-.79-.33-2.36-.07,0-.13-.29-.2-.86Zm1.77-2.88c.53,0,.88.87,1,2.62,0,.39.07.59.19.59a17.26,17.26,0,0,1,3.22-.66c.74,0,1.12.4,1.12,1.19l-.07.26a.06.06,0,0,0,.07.07,34.54,34.54,0,0,0-.4,4.13l.07.46c-.09.2-.17.31-.26.33l-.4-.2a12.17,12.17,0,0,0-3,.72h-.4c-.13,0-.19-.17-.19-.39v-.06c0-.25.85-.53,2.56-.86.44,0,.65-.13.65-.26a.6.6,0,0,0-.06-.27,12.59,12.59,0,0,1,.19-1.37h-.06l-1.84.46a.64.64,0,0,1-.39-.33v-.2c0-.17.65-.37,2-.59a.4.4,0,0,0,.19.07c.24,0,.45-.51.66-1.51a4.5,4.5,0,0,0,.07-.72l-.2-.13-2.75.59H741a1.35,1.35,0,0,1-.66-.2v1.25a11.67,11.67,0,0,1-1.5,5.51,1.12,1.12,0,0,1-.66.39h-.07c-.13,0-.19-.19-.19-.59a14.31,14.31,0,0,0,1.44-6.23v-.07a8.91,8.91,0,0,0-.06-.92l.06-.13a24.17,24.17,0,0,1-.52-2.75Z" transform="translate(-344.69 -66)"/><path class="cls-2" d="M752,633.57h.13a1.43,1.43,0,0,1,.79,1.24h.13c.11,0,.35-.31.72-.85.07,0,.16.09.26.26v.07a7.46,7.46,0,0,1-1,1.77v.13h.25a12.72,12.72,0,0,0,2-.59c.38.17.58.3.59.39q0,.53-.66.6v2.3c0,.1.62.21,1.84.32a.78.78,0,0,1,.26.52v.07c0,.13-.08.2-.26.2-.92-.09-1.47-.13-1.64-.13-.12,2.26-.31,3.58-.59,3.94a7.33,7.33,0,0,1-.19,1.11.58.58,0,0,1,.06.26c0,.27-.11.4-.19.4h-.07c0-3,.07-4.82.07-5.58,0,0-.07,0-.07-.07l-1.44.33v.66c0,1.05-.11,1.58-.33,1.58h-.2a6.86,6.86,0,0,1-.4-2.11.4.4,0,0,0-.19.07c-1.88-.08-2.82-.28-2.82-.59v-.14c0-.06.06-.12.2-.19.56.09.88.13,1,.13,1.31,0,2-.15,2-.46a17.52,17.52,0,0,0,.19-2h-.06l-1.18.13c-.79,0-1.19-.18-1.19-.53,0-.13.7-.29,2.1-.46a1,1,0,0,0,.33-.79,10.35,10.35,0,0,1-.59-1.64v-.19C751.81,633.7,751.88,633.64,752,633.57Zm.92,3.54v.14a.94.94,0,0,1,.26.51c0,.69-.07,1.2-.07,1.52,0,0,.07,0,.07.06.83-.18,1.25-.32,1.25-.39v-.26c0-.38,0-1-.07-1.77,0,0-.06,0-.06-.07A7.66,7.66,0,0,1,752.93,637.11Z" transform="translate(-344.69 -66)"/><path class="cls-2" d="M763.74,634.34h.18q.14,0,.27.6a7.57,7.57,0,0,0-.91,1.53l.13.26-.07.34.18.1a1.83,1.83,0,0,1,.73-.21h.69a1.22,1.22,0,0,0,.35.26h.12v-.3c0-.23,0-.6-.07-1.1l.22-.15.57.5c0-.13.13-.22.41-.26.49.26.74.55.74.87a13,13,0,0,0-.33,1.45v.12h.13l.86-.8H768a.38.38,0,0,1,.24.35,1.85,1.85,0,0,1-.76,1.27h-.77s-.09-.06-.15-.17v-2.13h-.25c-.21.07-.31.28-.31.63v1.78c0,.06-.15.11-.46.15-.15-.16-.23-.27-.23-.35s0-.68.08-1.37l-.34.07c0-.08-.08-.12-.25-.12-.89.23-1.38.44-1.49.62v.35l.07.5h.9s.13.1.28.3v.18c0,.1-.37.26-1.11.49l-.07.49v.13a.85.85,0,0,0,.22.52,11.79,11.79,0,0,0,4.63-2.11h.12s.18.19.41.56a5.77,5.77,0,0,1-1.18,2.2v.56a19.28,19.28,0,0,1,2.1,1.84l.06.34-.1,0h-.37a6.7,6.7,0,0,1-1.22-1l-1-.63a1.76,1.76,0,0,1-1.55,1.21h-.11l-.17-.23v-.09a3.79,3.79,0,0,0,1-1.13v-.17a3.32,3.32,0,0,0-1.49-.94c-.81.2-1.21.39-1.23.58.13,1.51.19,2.36.19,2.52l-.09,0h-.32c-.27,0-.41-.8-.41-2.39-.07-.2-.18-.3-.3-.3a4.51,4.51,0,0,0-.73.07.6.6,0,0,1-.67-.56v0c0-.05,0-.1.16-.15h1.48c-.09-1.22-.13-2.07-.13-2.54l.06-.33-.2-1.23h-.18l-.31.06c-.15-.16-.23-.27-.23-.34A9.8,9.8,0,0,1,763.74,634.34Zm2.41,7.16a.86.86,0,0,0,.68.39l.61-.95v-.2h-.12Z" transform="translate(-344.69 -66)"/><path class="cls-2" d="M777.05,643.61h-.38a1,1,0,0,1-.82-1v-.27a3.59,3.59,0,0,1,.49-1.58.41.41,0,0,1,.22-.33,10.28,10.28,0,0,1,.71-1.21v-.05c-.91-.55-1.37-1.11-1.37-1.7v-.1a2.35,2.35,0,0,0,.28-.55,4.28,4.28,0,0,1,1.36-.77,2.1,2.1,0,0,1,1.26.77,1.45,1.45,0,0,0,.11.38,2.08,2.08,0,0,1-.61,1.63.55.55,0,0,1,0,.18,2.28,2.28,0,0,1,.87,1.36.37.37,0,0,1,0,.17l0,.27A2.68,2.68,0,0,1,777.05,643.61Zm-.27-.6c1.13-.46,1.69-1.13,1.69-2a1.61,1.61,0,0,0-.66-1.53,7.12,7.12,0,0,0-1.09,1.92,4.11,4.11,0,0,1-.28,1,.79.79,0,0,0,.28.66Zm.82-4.43c.1,0,.23-.16.38-.38a.67.67,0,0,1-.12-.33c.06,0,.12-.11.18-.34.07,0,.1,0,.1-.1v-.27a1,1,0,0,0-.65-.44c-.59.39-.88.64-.88.76,0,.4.29.73.88,1C777.5,638.54,777.53,638.58,777.6,638.58Z" transform="translate(-344.69 -66)"/><line class="cls-1" x1="225.31" y1="36" x2="225.31" y2="98"/></svg>