<svg id="图层_1" data-name="图层 1" xmlns="http://www.w3.org/2000/svg" viewBox="0 0 37 253"><defs><style>.cls-1{fill:none;stroke:#3ea69f;stroke-miterlimit:10;}.cls-2{fill:#3ea69f;}</style></defs><circle class="cls-1" cx="18.5" cy="18.5" r="18"/><path class="cls-2" d="M114.2,98.69h1l.09,1.15h.06a3.53,3.53,0,0,1,2.56-1.32c1.61,0,2.36,1,2.36,2.75v4.23h-1.17v-4.08c0-1.28-.44-1.89-1.55-1.89-.81,0-1.36.41-2.14,1.22v4.75H114.2Z" transform="translate(-107 -83)"/><path class="cls-2" d="M122.49,100.44h6v.87h-6Z" transform="translate(-107 -83)"/><path class="cls-2" d="M131.06,104.53h2.58V98h-2v-.76a6.4,6.4,0,0,0,2.3-.66h.87v8h2.32v1h-6.06Z" transform="translate(-107 -83)"/><circle class="cls-1" cx="18.5" cy="93.5" r="18"/><path class="cls-2" d="M114.2,173.69h1l.09,1.15h.06a3.53,3.53,0,0,1,2.56-1.32c1.61,0,2.36,1,2.36,2.75v4.23h-1.17v-4.08c0-1.28-.44-1.89-1.55-1.89-.81,0-1.36.41-2.14,1.22v4.75H114.2Z" transform="translate(-107 -83)"/><path class="cls-2" d="M122.49,175.44h6v.87h-6Z" transform="translate(-107 -83)"/><path class="cls-2" d="M130.72,179.81c3-2.67,4.68-4.24,4.68-5.73,0-1-.61-1.73-1.93-1.73a3.05,3.05,0,0,0-2.14,1.06l-.68-.66a4,4,0,0,1,3-1.35,2.6,2.6,0,0,1,2.91,2.63c0,1.68-1.68,3.35-4.1,5.55.56-.05,1.13-.07,1.66-.07H137v1h-6.29Z" transform="translate(-107 -83)"/><line class="cls-1" x1="18.5" y1="75" x2="18.5" y2="49.04"/><path class="cls-2" d="M125.5,126a30.1,30.1,0,0,0,4.76,8.55l-4.76-1.72-4.75,1.72A30.31,30.31,0,0,0,125.5,126Z" transform="translate(-107 -83)"/><circle class="cls-1" cx="18.5" cy="234.5" r="18"/><path class="cls-2" d="M120.69,316.76c0-4.49,1.83-6.91,4.81-6.91s4.81,2.42,4.81,6.91-1.83,7-4.81,7S120.69,321.21,120.69,316.76Zm8,0c0-3.84-1.32-5.5-3.19-5.5s-3.19,1.66-3.19,5.5,1.32,5.59,3.19,5.59S128.69,320.6,128.69,316.76Zm-4.49-.15a1.3,1.3,0,1,1,1.3,1.41A1.3,1.3,0,0,1,124.2,316.61Z" transform="translate(-107 -83)"/><line class="cls-1" x1="18.5" y1="216" x2="18.5" y2="190.04"/><path class="cls-2" d="M125.5,267a30.1,30.1,0,0,0,4.76,8.55l-4.76-1.72-4.75,1.72A30.31,30.31,0,0,0,125.5,267Z" transform="translate(-107 -83)"/><line class="cls-1" x1="18.5" y1="149" x2="18.5" y2="123.04"/><path class="cls-2" d="M125.5,200a30.1,30.1,0,0,0,4.76,8.55l-4.76-1.72-4.75,1.72A30.31,30.31,0,0,0,125.5,200Z" transform="translate(-107 -83)"/><circle class="cls-2" cx="18.5" cy="156.5" r="1.5"/><circle class="cls-2" cx="18.5" cy="165.5" r="1.5"/><circle class="cls-2" cx="18.5" cy="174.5" r="1.5"/></svg>