<svg id="图层_1" data-name="图层 1" xmlns="http://www.w3.org/2000/svg" viewBox="0 0 615 292.94"><defs><style>.cls-1{fill:none;stroke:#3ea69f;stroke-miterlimit:10;}.cls-2{fill:#3ea69f;}</style></defs><circle class="cls-1" cx="421.5" cy="87.5" r="18"/><path class="cls-2" d="M574.24,191.05h3.86v-9.82h-3v-1.14a9.5,9.5,0,0,0,3.44-1h1.3v12h3.49v1.45h-9.09Z" transform="translate(-157 -99)"/><circle class="cls-1" cx="30.5" cy="238.5" r="18"/><path class="cls-2" d="M183.24,342.05h3.86v-9.83h-3v-1.13a9.5,9.5,0,0,0,3.44-1h1.3v11.95h3.49v1.45h-9.09Z" transform="translate(-157 -99)"/><circle class="cls-1" cx="507.5" cy="87.5" r="18"/><path class="cls-2" d="M659.73,191.47c4.54-4,7-6.36,7-8.59,0-1.53-.93-2.6-2.9-2.6a4.58,4.58,0,0,0-3.21,1.6l-1-1a6,6,0,0,1,4.43-2c2.69,0,4.37,1.58,4.37,4s-2.52,5-6.16,8.31c.84-.06,1.7-.1,2.5-.1h4.39v1.49h-9.43Z" transform="translate(-157 -99)"/><circle class="cls-1" cx="18.5" cy="18.5" r="18"/><path class="cls-2" d="M170.69,116.76c0-4.49,1.83-6.91,4.81-6.91s4.81,2.42,4.81,6.91-1.83,7-4.81,7S170.69,121.21,170.69,116.76Zm8,0c0-3.84-1.32-5.5-3.19-5.5s-3.19,1.66-3.19,5.5,1.32,5.59,3.19,5.59S178.69,120.6,178.69,116.76Zm-4.49-.15a1.3,1.3,0,1,1,1.3,1.41A1.3,1.3,0,0,1,174.2,116.61Z" transform="translate(-157 -99)"/><circle class="cls-1" cx="68.5" cy="18.5" r="18"/><path class="cls-2" d="M221.24,122.05h3.86v-9.82h-3v-1.14a9.5,9.5,0,0,0,3.44-1h1.3v12h3.49v1.45h-9.09Z" transform="translate(-157 -99)"/><circle class="cls-1" cx="241.5" cy="87.5" r="18"/><path class="cls-2" d="M394.24,191.05h3.86v-9.82h-3v-1.14a9.5,9.5,0,0,0,3.44-1h1.3v12h3.49v1.45h-9.09Z" transform="translate(-157 -99)"/><circle class="cls-1" cx="150.5" cy="18.5" r="18"/><path class="cls-2" d="M296.2,114.69h1l.09,1.15h.06a3.53,3.53,0,0,1,2.56-1.32c1.61,0,2.36,1,2.36,2.75v4.23h-1.17v-4.08c0-1.28-.44-1.89-1.55-1.89-.81,0-1.36.41-2.14,1.22v4.75H296.2Z" transform="translate(-157 -99)"/><path class="cls-2" d="M304.49,116.44h6v.87h-6Z" transform="translate(-157 -99)"/><path class="cls-2" d="M313.06,120.53h2.58V114h-2v-.76a6.4,6.4,0,0,0,2.3-.66h.87v8h2.32v1h-6.06Z" transform="translate(-157 -99)"/><circle class="cls-1" cx="128.5" cy="238.5" r="18"/><path class="cls-2" d="M280.4,341.86l.88-1.13a5.41,5.41,0,0,0,3.84,1.57c1.83,0,3.19-.94,3.19-2.43s-1.34-2.67-4.85-2.67v-1.32c3.17,0,4.39-1.09,4.39-2.5s-1.11-2.1-2.73-2.1a5.12,5.12,0,0,0-3.3,1.34l-.92-1.09a6.51,6.51,0,0,1,4.28-1.68c2.52,0,4.43,1.24,4.43,3.4,0,1.62-1.19,2.65-2.85,3.2v.08c1.78.38,3.32,1.55,3.32,3.4,0,2.37-2.19,3.82-4.85,3.82A6.54,6.54,0,0,1,280.4,341.86Z" transform="translate(-157 -99)"/><circle class="cls-1" cx="79.67" cy="239" r="18"/><path class="cls-2" d="M231.9,343c4.53-4,7-6.36,7-8.59,0-1.53-.92-2.6-2.9-2.6a4.58,4.58,0,0,0-3.21,1.6l-1-1a6,6,0,0,1,4.43-2c2.69,0,4.37,1.58,4.37,3.95s-2.52,5-6.15,8.31c.84-.06,1.7-.1,2.5-.1h4.39V344H231.9Z" transform="translate(-157 -99)"/><line class="cls-1" x1="79.67" y1="221" x2="79.67" y2="195.04"/><path class="cls-2" d="M236.67,288a30.31,30.31,0,0,0,4.75,8.55l-4.75-1.72-4.76,1.72A30.59,30.59,0,0,0,236.67,288Z" transform="translate(-157 -99)"/><circle class="cls-2" cx="98.5" cy="18.5" r="1.5"/><circle class="cls-2" cx="108.5" cy="18.5" r="1.5"/><circle class="cls-2" cx="118.5" cy="18.5" r="1.5"/><circle class="cls-1" cx="241.5" cy="18.5" r="18"/><path class="cls-2" d="M393.69,116.76c0-4.49,1.83-6.91,4.81-6.91s4.81,2.42,4.81,6.91-1.83,7-4.81,7S393.69,121.21,393.69,116.76Zm8,0c0-3.84-1.32-5.5-3.19-5.5s-3.19,1.66-3.19,5.5,1.32,5.59,3.19,5.59S401.69,120.6,401.69,116.76Zm-4.49-.15a1.3,1.3,0,1,1,1.3,1.41A1.3,1.3,0,0,1,397.2,116.61Z" transform="translate(-157 -99)"/><circle class="cls-1" cx="291.5" cy="18.5" r="18"/><path class="cls-2" d="M443.73,122.47c4.54-4,7-6.36,7-8.59,0-1.53-.93-2.6-2.9-2.6a4.58,4.58,0,0,0-3.21,1.6l-1-1a6,6,0,0,1,4.43-2c2.69,0,4.37,1.58,4.37,4,0,2.52-2.52,5-6.16,8.31.84-.06,1.7-.1,2.5-.1h4.39v1.49h-9.43Z" transform="translate(-157 -99)"/><circle class="cls-1" cx="373.5" cy="18.5" r="18"/><path class="cls-2" d="M519.2,114.69h1l.09,1.15h.06a3.53,3.53,0,0,1,2.56-1.32c1.61,0,2.36,1,2.36,2.75v4.23h-1.17v-4.08c0-1.28-.44-1.89-1.55-1.89-.81,0-1.36.41-2.14,1.22v4.75H519.2Z" transform="translate(-157 -99)"/><path class="cls-2" d="M527.49,116.44h6v.87h-6Z" transform="translate(-157 -99)"/><path class="cls-2" d="M536.06,120.53h2.58V114h-2v-.76a6.4,6.4,0,0,0,2.3-.66h.87v8h2.32v1h-6.06Z" transform="translate(-157 -99)"/><circle class="cls-2" cx="321.5" cy="18.5" r="1.5"/><circle class="cls-2" cx="331.5" cy="18.5" r="1.5"/><circle class="cls-2" cx="341.5" cy="18.5" r="1.5"/><line class="cls-1" x1="242" y1="70" x2="242" y2="47.04"/><path class="cls-2" d="M399,140a30.1,30.1,0,0,0,4.76,8.55L399,146.83l-4.75,1.72A30.31,30.31,0,0,0,399,140Z" transform="translate(-157 -99)"/><circle class="cls-1" cx="464.5" cy="18.5" r="18"/><path class="cls-2" d="M616.69,116.76c0-4.49,1.83-6.91,4.81-6.91s4.81,2.42,4.81,6.91-1.83,7-4.81,7S616.69,121.21,616.69,116.76Zm8,0c0-3.84-1.32-5.5-3.19-5.5s-3.19,1.66-3.19,5.5,1.32,5.59,3.19,5.59S624.69,120.6,624.69,116.76Zm-4.49-.15a1.3,1.3,0,1,1,1.3,1.41A1.3,1.3,0,0,1,620.2,116.61Z" transform="translate(-157 -99)"/><circle class="cls-1" cx="514.5" cy="18.5" r="18"/><path class="cls-2" d="M666.4,121.86l.88-1.13a5.41,5.41,0,0,0,3.84,1.57c1.83,0,3.19-.94,3.19-2.43s-1.34-2.67-4.85-2.67v-1.32c3.17,0,4.39-1.09,4.39-2.5s-1.11-2.1-2.73-2.1a5.12,5.12,0,0,0-3.3,1.34l-.92-1.09a6.51,6.51,0,0,1,4.28-1.68c2.52,0,4.43,1.24,4.43,3.4,0,1.62-1.19,2.65-2.85,3.2v.08c1.78.38,3.32,1.55,3.32,3.4,0,2.37-2.19,3.82-4.85,3.82A6.54,6.54,0,0,1,666.4,121.86Z" transform="translate(-157 -99)"/><circle class="cls-1" cx="596.5" cy="18.5" r="18"/><path class="cls-2" d="M742.2,114.69h1l.09,1.15h.06a3.53,3.53,0,0,1,2.56-1.32c1.61,0,2.36,1,2.36,2.75v4.23h-1.17v-4.08c0-1.28-.44-1.89-1.55-1.89-.81,0-1.36.41-2.14,1.22v4.75H742.2Z" transform="translate(-157 -99)"/><path class="cls-2" d="M750.49,116.44h6v.87h-6Z" transform="translate(-157 -99)"/><path class="cls-2" d="M759.06,120.53h2.58V114h-2v-.76a6.4,6.4,0,0,0,2.3-.66h.87v8h2.32v1h-6.06Z" transform="translate(-157 -99)"/><circle class="cls-2" cx="544.5" cy="18.5" r="1.5"/><circle class="cls-2" cx="554.5" cy="18.5" r="1.5"/><circle class="cls-2" cx="564.5" cy="18.5" r="1.5"/><circle class="cls-1" cx="78.5" cy="166.5" r="18"/><path class="cls-2" d="M230.69,264.76c0-4.49,1.83-6.91,4.81-6.91s4.81,2.42,4.81,6.91-1.83,7-4.81,7S230.69,269.21,230.69,264.76Zm8,0c0-3.84-1.32-5.5-3.19-5.5s-3.19,1.66-3.19,5.5,1.32,5.59,3.19,5.59S238.69,268.6,238.69,264.76Zm-4.49-.15a1.3,1.3,0,1,1,1.3,1.41A1.3,1.3,0,0,1,234.2,264.61Z" transform="translate(-157 -99)"/><circle class="cls-1" cx="128.5" cy="166.5" r="18"/><path class="cls-2" d="M286.93,262.28c0-.73.06-1.63.1-2.37h-.1c-.44.65-.93,1.3-1.37,1.95L282,266.4h8.69v1.4H280v-1.15l6.68-8.55h1.86v13.4h-1.63Z" transform="translate(-157 -99)"/><circle class="cls-1" cx="210.5" cy="166.5" r="18"/><path class="cls-2" d="M356.2,262.69h1l.09,1.15h.06a3.53,3.53,0,0,1,2.56-1.32c1.61,0,2.36,1,2.36,2.75v4.23h-1.17v-4.08c0-1.28-.44-1.89-1.55-1.89-.81,0-1.36.41-2.14,1.22v4.75H356.2Z" transform="translate(-157 -99)"/><path class="cls-2" d="M364.49,264.44h6v.87h-6Z" transform="translate(-157 -99)"/><path class="cls-2" d="M373.06,268.53h2.58V262h-2v-.76a6.4,6.4,0,0,0,2.3-.66h.87v8h2.32v1h-6.06Z" transform="translate(-157 -99)"/><circle class="cls-2" cx="158.5" cy="166.5" r="1.5"/><circle class="cls-2" cx="168.5" cy="166.5" r="1.5"/><circle class="cls-2" cx="178.5" cy="166.5" r="1.5"/><line class="cls-1" x1="430.99" y1="72.21" x2="449.04" y2="46.44"/><path class="cls-2" d="M609.5,140.5a30,30,0,0,0-1,9.73l-2.91-4.14-4.88-1.32A30.1,30.1,0,0,0,609.5,140.5Z" transform="translate(-157 -99)"/><line class="cls-1" x1="498.01" y1="72.21" x2="480.85" y2="46.52"/><path class="cls-2" d="M634.5,140.5a30.21,30.21,0,0,0,8.7,4.47l-4.91,1.21-3,4.07A30.26,30.26,0,0,0,634.5,140.5Z" transform="translate(-157 -99)"/><line class="cls-1" x1="38.44" y1="222.35" x2="62.65" y2="193.15"/><path class="cls-2" d="M223.5,287.5a30,30,0,0,0-1.79,9.62l-2.57-4.36-4.76-1.71A30.42,30.42,0,0,0,223.5,287.5Z" transform="translate(-157 -99)"/><line class="cls-1" x1="120.56" y1="222.35" x2="95.43" y2="193.08"/><path class="cls-2" d="M248.5,287.5a30.28,30.28,0,0,0,9.18,3.39L253,292.68l-2.49,4.4A30.31,30.31,0,0,0,248.5,287.5Z" transform="translate(-157 -99)"/><circle class="cls-1" cx="331.5" cy="238.5" r="18"/><path class="cls-2" d="M484.24,342.05h3.86v-9.83h-3v-1.13a9.5,9.5,0,0,0,3.44-1h1.3v11.95h3.49v1.45h-9.09Z" transform="translate(-157 -99)"/><circle class="cls-1" cx="429.5" cy="238.5" r="18"/><path class="cls-2" d="M581.4,341.86l.88-1.13a5.41,5.41,0,0,0,3.84,1.57c1.83,0,3.19-.94,3.19-2.43s-1.34-2.67-4.85-2.67v-1.32c3.17,0,4.39-1.09,4.39-2.5s-1.11-2.1-2.73-2.1a5.12,5.12,0,0,0-3.3,1.34l-.92-1.09a6.51,6.51,0,0,1,4.28-1.68c2.52,0,4.43,1.24,4.43,3.4,0,1.62-1.19,2.65-2.85,3.2v.08c1.78.38,3.32,1.55,3.32,3.4,0,2.37-2.19,3.82-4.85,3.82A6.54,6.54,0,0,1,581.4,341.86Z" transform="translate(-157 -99)"/><circle class="cls-1" cx="380.67" cy="239" r="18"/><path class="cls-2" d="M532.9,343c4.53-4,7-6.36,7-8.59,0-1.53-.92-2.6-2.9-2.6a4.58,4.58,0,0,0-3.21,1.6l-1-1a6,6,0,0,1,4.43-2c2.69,0,4.37,1.58,4.37,3.95s-2.52,5-6.15,8.31c.84-.06,1.7-.1,2.5-.1h4.39V344H532.9Z" transform="translate(-157 -99)"/><line class="cls-1" x1="380.67" y1="221" x2="380.67" y2="195.04"/><path class="cls-2" d="M537.67,288a30.31,30.31,0,0,0,4.75,8.55l-4.75-1.72-4.76,1.72A30.59,30.59,0,0,0,537.67,288Z" transform="translate(-157 -99)"/><circle class="cls-1" cx="379.5" cy="166.5" r="18"/><path class="cls-2" d="M531.69,264.76c0-4.49,1.83-6.91,4.81-6.91s4.81,2.42,4.81,6.91-1.83,7-4.81,7S531.69,269.21,531.69,264.76Zm8,0c0-3.84-1.32-5.5-3.19-5.5s-3.19,1.66-3.19,5.5,1.32,5.59,3.19,5.59S539.69,268.6,539.69,264.76Zm-4.49-.15a1.3,1.3,0,1,1,1.3,1.41A1.3,1.3,0,0,1,535.2,264.61Z" transform="translate(-157 -99)"/><circle class="cls-1" cx="511.5" cy="238.5" r="18"/><path class="cls-2" d="M657.2,334.69h1l.09,1.15h.06a3.53,3.53,0,0,1,2.56-1.32c1.61,0,2.36,1,2.36,2.75v4.23h-1.17v-4.08c0-1.28-.44-1.89-1.55-1.89-.81,0-1.36.41-2.14,1.22v4.75H657.2Z" transform="translate(-157 -99)"/><path class="cls-2" d="M665.49,336.44h6v.87h-6Z" transform="translate(-157 -99)"/><path class="cls-2" d="M674.06,340.53h2.58V334h-2v-.76a6.4,6.4,0,0,0,2.3-.66h.87v8h2.32v1h-6.06Z" transform="translate(-157 -99)"/><circle class="cls-2" cx="459.5" cy="238.5" r="1.5"/><circle class="cls-2" cx="469.5" cy="238.5" r="1.5"/><circle class="cls-2" cx="479.5" cy="238.5" r="1.5"/><line class="cls-1" x1="339.44" y1="222.35" x2="363.65" y2="193.15"/><path class="cls-2" d="M524.5,287.5a30,30,0,0,0-1.79,9.62l-2.57-4.36-4.76-1.71A30.42,30.42,0,0,0,524.5,287.5Z" transform="translate(-157 -99)"/><line class="cls-1" x1="421.56" y1="222.35" x2="396.43" y2="193.08"/><path class="cls-2" d="M549.5,287.5a30.28,30.28,0,0,0,9.18,3.39L554,292.68l-2.49,4.4A30.31,30.31,0,0,0,549.5,287.5Z" transform="translate(-157 -99)"/><line class="cls-1" x1="500.58" y1="224.2" x2="409.51" y2="183.46"/><path class="cls-2" d="M561,280a30.32,30.32,0,0,0,9.74-.85l-3.51,3.64-.37,5A30.32,30.32,0,0,0,561,280Z" transform="translate(-157 -99)"/><path class="cls-2" d="M230.79,178.38h.13c.07,0,.16.09.26.26v.07a26.11,26.11,0,0,1-1.57,2.82l-.07.33v.06c.18-.17.31-.26.4-.26.7,0,1.05.12,1.05.26v.13c0,.12-.18.21-.53.27h-.26c-.32,0-.49-.11-.52-.33l-.14.06a1.73,1.73,0,0,1,.07.47h.46a1,1,0,0,1,.85.52v.07a.12.12,0,0,1-.13.13l-1.18-.2c-.07,3.24-.21,4.86-.4,4.86h-.13c-.17-.06-.26-.26-.26-.6v-2.55c0-.35,0-.82.06-1.38v-.07h-.06a6.35,6.35,0,0,1-.85,1.77h-.13c-.18-.09-.27-.2-.27-.32q0-1.25,2.3-5.25h-.06a8.62,8.62,0,0,1-3,.85c-.2-.09-.31-.17-.32-.27V180a7.19,7.19,0,0,1,2.09-.71A19.21,19.21,0,0,1,230.79,178.38Zm-2.56-1.84h.2a9.52,9.52,0,0,1,1.64,1.58v.19c0,.07-.07.13-.2.2-.47,0-1.08-.55-1.83-1.64v-.13C228,176.68,228.1,176.61,228.23,176.54Zm7.68,2.83H236q.12,0,.27.39-.47,2.3-.92,6l-.26.19h-.27a4.4,4.4,0,0,1-1-1.31c0-.09.05-.13.13-.13a3.79,3.79,0,0,0,.78.59,13.89,13.89,0,0,0,.53-3.28,10.87,10.87,0,0,0,.33-1.78,7.43,7.43,0,0,0-1.9.8v.06a.75.75,0,0,0,.06.33,7,7,0,0,1-1.32,3.8l-.39.2a.49.49,0,0,1-.06-.2,13.91,13.91,0,0,0,1.24-4.13h-.06a4,4,0,0,1-.6.07h-.13c-.22,0-.35-.07-.39-.2v-.2c0-.07.09-.15.26-.26l.26.06Z" transform="translate(-157 -99)"/><path class="cls-2" d="M242,177.88q.28,0,.33.39v.11a13.15,13.15,0,0,1-.83,2.93h0a1.78,1.78,0,0,1,.57-.16h.22v0a2.21,2.21,0,0,1-.85.65.5.5,0,0,0-.31.37,6.24,6.24,0,0,1-.32.79c.12,0,.42.28.91.84l.77-2.4a.3.3,0,0,1,.27-.19h0q.16,0,.21.21v.1a11.5,11.5,0,0,1-.82,3,6.23,6.23,0,0,1,1.08,2.35.24.24,0,0,1-.21.16c-.21,0-.54-.44-1-1.3a4.47,4.47,0,0,0-.27-.44c-.42.67-.76,1-1,1h0c-.19,0-.29-.11-.29-.24q.32,0,.9-1.47a7.37,7.37,0,0,0-.84-1.13.39.39,0,0,1-.22-.39,2.06,2.06,0,0,1,.1-.63q-.28.17-1.5,1s-.06,0-.12,0-.27-.14-.27-.28v0c0-.26.56-.68,1.69-1.24a2.82,2.82,0,0,1,.44-.26c.6-1.8.94-2.88,1-3.23s.09-.46.28-.51Zm3.42-.49h0c.18,0,.28.18.32.53V178a8.42,8.42,0,0,1-.76,2.52h0a12.67,12.67,0,0,0,1.62-1,.43.43,0,0,1-.18-.32v0c0-.22.15-.34.34-.34h.06a5.61,5.61,0,0,1,1.75,1.25c.14.11.22.2.22.27v0c0,.14-.09.2-.2.2a7.72,7.72,0,0,1-1.73-.85h0a12.88,12.88,0,0,1-2.15,1.64l-.14,0c-.3,0-.45-.11-.45-.34v-.2s.26-.76.79-2.12a11.38,11.38,0,0,0,.27-1.18A.28.28,0,0,1,245.4,177.39Zm-.61,4.33c.17,0,.27.27.3.8,0,.2.06.47.09.83a10.09,10.09,0,0,1,2.86-1.06c.19,0,.34.17.43.51s-.58,1.42-1.73,2.86h0l.18,0c.27.05.4.13.4.26V186c0,.23-.44.42-1.32.55-.21,0-.34-.16-.38-.49v0q0-.15.78-1l.84-1.21a3.94,3.94,0,0,0,.35-.72h0a24.24,24.24,0,0,0-2.36,1l.37,2.7a.17.17,0,0,1-.17.13h-.08q-.19,0-.57-1.29l-.26-1.37c-.07,0-.13-.09-.17-.29a.41.41,0,0,1,.11-.25c-.05-.57-.07-.94-.07-1.12v-.34c0-.38.11-.57.35-.57Z" transform="translate(-157 -99)"/><path class="cls-2" d="M252.85,178c.48.1.72.47.72,1.12h.2c.87,0,1.31.65,1.31,2a4.5,4.5,0,0,0-.07.72v1.37a2.56,2.56,0,0,0,.14.6c0,.48-.29.72-.86.72-.61.44-.92.73-.92.85,0,.27-.06.4-.19.4h-.27c-.14,0-.25-.27-.33-.8v-4.19Q252.58,178,252.85,178Zm.59,2.1v2c0,.1.26.21.79.33h.13l.06-.8v-.45c-.07-1-.23-1.45-.45-1.45S253.46,180,253.44,180.09Zm0,2.95v.4a.52.52,0,0,1,0,.52v.14a.13.13,0,0,0,.13.13c.52-.15.79-.28.79-.4v-.2l-.07-.46h.07c0-.17-.2-.26-.52-.26h-.27C253.48,182.93,253.44,183,253.44,183Zm5.3-6.7c.18.06.26.26.26.59v1.71h.07a2.51,2.51,0,0,0,1.18-.85.46.46,0,0,1,.26-.07.43.43,0,0,1,.4.27v.32a11.8,11.8,0,0,1-2,1.18v.66c0,1.53.05,4.11.13,7.74l-.26.2c-.35,0-.76-.61-1.25-1.84a12.12,12.12,0,0,1-1-1.7l.13-.07a13.2,13.2,0,0,1,1.58,2.17l.13-.07c-.05-.94-.07-1.64-.07-2.1v-4.59a.12.12,0,0,0-.13-.13,8.77,8.77,0,0,1-2.7,1.18h-.06c-.06,0-.13-.07-.2-.2v-.2c.08-.08,1-.56,2.89-1.44.13-.1.2-.17.2-.2C258.35,177.2,258.48,176.34,258.74,176.34Zm-3,6.07c1.66.06,2.49.21,2.49.46v.06c-.06.18-.26.27-.59.27h-.13c-1.36-.06-2-.22-2-.46v-.13C255.43,182.5,255.52,182.43,255.7,182.41Z" transform="translate(-157 -99)"/><path class="cls-2" d="M411.16,220.78v-3.63h1v3.49c0,1.1.39,1.62,1.35,1.62a2.32,2.32,0,0,0,1.81-1.06v-4h1V223h-.82l-.09-1h-.05a2.81,2.81,0,0,1-2.17,1.17C411.79,223.13,411.16,222.31,411.16,220.78Z" transform="translate(-157 -99)"/><path class="cls-2" d="M418.55,217.15h.82l.08,1h.05a3,3,0,0,1,2.19-1.13c1.38,0,2,.82,2,2.35V223h-1v-3.49c0-1.1-.38-1.62-1.33-1.62-.7,0-1.16.35-1.84,1V223h-1Z" transform="translate(-157 -99)"/><path class="cls-2" d="M428.41,218h-2.7v-.81h3.7V223h-1Zm-.39-2.8a.79.79,0,1,1,.79.77A.74.74,0,0,1,428,215.16Z" transform="translate(-157 -99)"/><path class="cls-2" d="M432.55,220.08a2.88,2.88,0,1,1,2.88,3A2.86,2.86,0,0,1,432.55,220.08Zm4.74,0c0-1.34-.74-2.24-1.86-2.24s-1.86.9-1.86,2.24.75,2.22,1.86,2.22S437.29,221.41,437.29,220.08Z" transform="translate(-157 -99)"/><path class="cls-2" d="M440.15,217.15H441l.08,1h.05a3,3,0,0,1,2.19-1.13c1.38,0,2,.82,2,2.35V223h-1v-3.49c0-1.1-.38-1.62-1.33-1.62-.7,0-1.16.35-1.83,1V223h-1Z" transform="translate(-157 -99)"/><path class="cls-2" d="M448.73,219.65a6.68,6.68,0,0,1,2.69-5.45l.55.51a6.37,6.37,0,0,0,0,9.88l-.55.5A6.66,6.66,0,0,1,448.73,219.65Z" transform="translate(-157 -99)"/><path class="cls-2" d="M454.29,219.13c0-2.56,1-3.94,2.74-3.94s2.75,1.38,2.75,3.94-1,4-2.75,4S454.29,221.68,454.29,219.13Zm4.56,0c0-2.19-.75-3.14-1.82-3.14s-1.82.95-1.82,3.14.75,3.19,1.82,3.19S458.85,221.33,458.85,219.13Zm-2.56-.08a.75.75,0,1,1,.74.8A.74.74,0,0,1,456.29,219.05Z" transform="translate(-157 -99)"/><path class="cls-2" d="M463,224.91a2.15,2.15,0,0,0,1.52-2.09l-.22-1.11.67.95a.83.83,0,0,1-.67.28.86.86,0,0,1-.94-.9.9.9,0,0,1,1-.92c.71,0,1.08.59,1.08,1.54a3,3,0,0,1-2.11,2.88Z" transform="translate(-157 -99)"/><path class="cls-2" d="M476.2,222.16h2.2v-5.62h-1.71v-.64a5.46,5.46,0,0,0,2-.57h.74v6.83h2V223H476.2Z" transform="translate(-157 -99)"/><path class="cls-2" d="M483.7,224.59a6.37,6.37,0,0,0,0-9.88l.55-.51a6.87,6.87,0,0,1,0,10.89Z" transform="translate(-157 -99)"/><path class="cls-2" d="M491.78,224.91a2.13,2.13,0,0,0,1.51-2.09l-.21-1.11.67.95a.83.83,0,0,1-.67.28.86.86,0,0,1-.94-.9.9.9,0,0,1,1-.92c.71,0,1.08.59,1.08,1.54a3,3,0,0,1-2.11,2.88Zm.28-7.1a1,1,0,1,1,1.94,0,1,1,0,1,1-1.94,0Z" transform="translate(-157 -99)"/><path class="cls-2" d="M411.09,233.53c0-2.56,1-3.94,2.74-3.94s2.75,1.38,2.75,3.94-1,4-2.75,4S411.09,236.08,411.09,233.53Zm4.57,0c0-2.19-.76-3.14-1.83-3.14s-1.82,1-1.82,3.14.76,3.19,1.82,3.19S415.66,235.73,415.66,233.53Zm-2.57-.08a.75.75,0,1,1,.74.8A.74.74,0,0,1,413.09,233.45Z" transform="translate(-157 -99)"/><path class="cls-2" d="M425.65,231.77h5.16v.74h-5.16Zm0,2.57h5.16v.74h-5.16Z" transform="translate(-157 -99)"/><path class="cls-2" d="M440.27,231.62l1.69-.07h3.39v.81h-5.08Zm1.67-.56a2.13,2.13,0,0,1,2.35-2.36A4.35,4.35,0,0,1,446,229l-.23.74a3.22,3.22,0,0,0-1.36-.28c-1,0-1.46.59-1.46,1.53v6.35h-1Z" transform="translate(-157 -99)"/><path class="cls-2" d="M450,232.36h-2.7v-.81H451v5.83h-1Zm-.39-2.8a.79.79,0,1,1,.79.77A.74.74,0,0,1,449.62,229.56Z" transform="translate(-157 -99)"/><path class="cls-2" d="M454.55,231.55h.81l.09,1h.05a3,3,0,0,1,2.19-1.13c1.38,0,2,.82,2,2.35v3.62h-1v-3.49c0-1.1-.38-1.62-1.33-1.62-.7,0-1.16.35-1.84,1v4.06h-1Z" transform="translate(-157 -99)"/><path class="cls-2" d="M461.35,234.48a2.81,2.81,0,0,1,2.64-3.07,2.51,2.51,0,0,1,1.75.74h0l0-1.06v-2.25h1v8.54h-.81l-.09-.76h0a2.82,2.82,0,0,1-1.91.91C462.36,237.53,461.35,236.42,461.35,234.48Zm4.37,1.34v-2.9a2.17,2.17,0,0,0-1.52-.67,2,2,0,0,0-1.83,2.22c0,1.39.65,2.22,1.72,2.22A2.21,2.21,0,0,0,465.72,235.82Z" transform="translate(-157 -99)"/><path class="cls-2" d="M470.33,234.05A6.71,6.71,0,0,1,473,228.6l.56.51a6.37,6.37,0,0,0,0,9.88l-.56.5A6.68,6.68,0,0,1,470.33,234.05Z" transform="translate(-157 -99)"/><path class="cls-2" d="M475.88,233.53c0-2.56,1.05-3.94,2.75-3.94s2.75,1.38,2.75,3.94-1.05,4-2.75,4S475.88,236.08,475.88,233.53Zm4.57,0c0-2.19-.75-3.14-1.82-3.14s-1.82,1-1.82,3.14.75,3.19,1.82,3.19S480.45,235.73,480.45,233.53Zm-2.56-.08a.75.75,0,1,1,.74.8A.74.74,0,0,1,477.89,233.45Z" transform="translate(-157 -99)"/><path class="cls-2" d="M483.7,239a6.37,6.37,0,0,0,0-9.88l.55-.51a6.87,6.87,0,0,1,0,10.89Z" transform="translate(-157 -99)"/><path class="cls-2" d="M491.78,239.31a2.13,2.13,0,0,0,1.51-2.09l-.21-1.11.67.95a.83.83,0,0,1-.67.28.86.86,0,0,1-.94-.9.9.9,0,0,1,1-.92c.71,0,1.08.59,1.08,1.54a3,3,0,0,1-2.11,2.88Zm.28-7.1a1,1,0,1,1,1,1A1,1,0,0,1,492.06,232.21Z" transform="translate(-157 -99)"/><path class="cls-2" d="M622.16,220.78v-3.63h1v3.49c0,1.1.39,1.62,1.35,1.62a2.32,2.32,0,0,0,1.81-1.06v-4h1V223h-.82l-.09-1h0a2.81,2.81,0,0,1-2.17,1.17C622.79,223.13,622.16,222.31,622.16,220.78Z" transform="translate(-157 -99)"/><path class="cls-2" d="M629.55,217.15h.82l.08,1h0a3,3,0,0,1,2.19-1.13c1.38,0,2,.82,2,2.35V223h-1v-3.49c0-1.1-.38-1.62-1.33-1.62-.7,0-1.16.35-1.84,1V223h-1Z" transform="translate(-157 -99)"/><path class="cls-2" d="M639.41,218h-2.7v-.81h3.7V223h-1Zm-.39-2.8a.79.79,0,1,1,.79.77A.74.74,0,0,1,639,215.16Z" transform="translate(-157 -99)"/><path class="cls-2" d="M643.55,220.08a2.88,2.88,0,1,1,2.88,3A2.86,2.86,0,0,1,643.55,220.08Zm4.74,0c0-1.34-.74-2.24-1.86-2.24s-1.86.9-1.86,2.24.75,2.22,1.86,2.22S648.29,221.41,648.29,220.08Z" transform="translate(-157 -99)"/><path class="cls-2" d="M651.15,217.15H652l.09,1h.05a3,3,0,0,1,2.19-1.13c1.38,0,2,.82,2,2.35V223h-1v-3.49c0-1.1-.38-1.62-1.33-1.62-.7,0-1.16.35-1.84,1V223h-1Z" transform="translate(-157 -99)"/><path class="cls-2" d="M659.73,219.65a6.68,6.68,0,0,1,2.69-5.45l.55.51a6.37,6.37,0,0,0,0,9.88l-.55.5A6.66,6.66,0,0,1,659.73,219.65Z" transform="translate(-157 -99)"/><path class="cls-2" d="M665.29,219.13c0-2.56,1-3.94,2.74-3.94s2.75,1.38,2.75,3.94-1,4-2.75,4S665.29,221.68,665.29,219.13Zm4.56,0c0-2.19-.75-3.14-1.82-3.14s-1.82.95-1.82,3.14.75,3.19,1.82,3.19S669.85,221.33,669.85,219.13Zm-2.56-.08a.75.75,0,1,1,.74.8A.74.74,0,0,1,667.29,219.05Z" transform="translate(-157 -99)"/><path class="cls-2" d="M674,224.91a2.15,2.15,0,0,0,1.52-2.09l-.22-1.11.67.95a.83.83,0,0,1-.67.28.86.86,0,0,1-.94-.9.9.9,0,0,1,1-.92c.71,0,1.08.59,1.08,1.54a3,3,0,0,1-2.11,2.88Z" transform="translate(-157 -99)"/><path class="cls-2" d="M686.91,222.4c2.59-2.29,4-3.64,4-4.91,0-.87-.52-1.49-1.65-1.49a2.68,2.68,0,0,0-1.84.91l-.57-.56a3.42,3.42,0,0,1,2.53-1.16,2.23,2.23,0,0,1,2.49,2.25c0,1.44-1.44,2.87-3.51,4.75.48,0,1-.06,1.43-.06h2.5V223h-5.38Z" transform="translate(-157 -99)"/><path class="cls-2" d="M694.7,224.59a6.37,6.37,0,0,0,0-9.88l.55-.51a6.87,6.87,0,0,1,0,10.89Z" transform="translate(-157 -99)"/><path class="cls-2" d="M702.78,224.91a2.13,2.13,0,0,0,1.51-2.09l-.21-1.11.67.95a.83.83,0,0,1-.67.28.86.86,0,0,1-.94-.9.9.9,0,0,1,1-.92c.71,0,1.08.59,1.08,1.54a3,3,0,0,1-2.11,2.88Zm.28-7.1a1,1,0,1,1,1.94,0,1,1,0,1,1-1.94,0Z" transform="translate(-157 -99)"/><path class="cls-2" d="M622.09,233.53c0-2.56,1-3.94,2.74-3.94s2.75,1.38,2.75,3.94-1,4-2.75,4S622.09,236.08,622.09,233.53Zm4.57,0c0-2.19-.76-3.14-1.83-3.14s-1.82,1-1.82,3.14.76,3.19,1.82,3.19S626.66,235.73,626.66,233.53Zm-2.57-.08a.75.75,0,1,1,.74.8A.74.74,0,0,1,624.09,233.45Z" transform="translate(-157 -99)"/><path class="cls-2" d="M636.65,231.77h5.16v.74h-5.16Zm0,2.57h5.16v.74h-5.16Z" transform="translate(-157 -99)"/><path class="cls-2" d="M651.27,231.62l1.69-.07h3.39v.81h-5.08Zm1.67-.56a2.13,2.13,0,0,1,2.35-2.36A4.35,4.35,0,0,1,657,229l-.23.74a3.22,3.22,0,0,0-1.36-.28c-1,0-1.46.59-1.46,1.53v6.35h-1Z" transform="translate(-157 -99)"/><path class="cls-2" d="M661,232.36h-2.7v-.81H662v5.83h-1Zm-.39-2.8a.79.79,0,1,1,.79.77A.74.74,0,0,1,660.62,229.56Z" transform="translate(-157 -99)"/><path class="cls-2" d="M665.55,231.55h.82l.08,1h0a3,3,0,0,1,2.19-1.13c1.38,0,2,.82,2,2.35v3.62h-1v-3.49c0-1.1-.38-1.62-1.33-1.62-.7,0-1.16.35-1.84,1v4.06h-1Z" transform="translate(-157 -99)"/><path class="cls-2" d="M672.35,234.48a2.81,2.81,0,0,1,2.64-3.07,2.51,2.51,0,0,1,1.75.74h0l0-1.06v-2.25h1v8.54h-.81l-.09-.76h0a2.82,2.82,0,0,1-1.91.91C673.36,237.53,672.35,236.42,672.35,234.48Zm4.37,1.34v-2.9a2.17,2.17,0,0,0-1.52-.67,2,2,0,0,0-1.83,2.22c0,1.39.65,2.22,1.72,2.22A2.21,2.21,0,0,0,676.72,235.82Z" transform="translate(-157 -99)"/><path class="cls-2" d="M681.33,234.05A6.71,6.71,0,0,1,684,228.6l.56.51a6.37,6.37,0,0,0,0,9.88l-.56.5A6.68,6.68,0,0,1,681.33,234.05Z" transform="translate(-157 -99)"/><path class="cls-2" d="M686.88,233.53c0-2.56,1-3.94,2.75-3.94s2.75,1.38,2.75,3.94-1,4-2.75,4S686.88,236.08,686.88,233.53Zm4.57,0c0-2.19-.75-3.14-1.82-3.14s-1.82,1-1.82,3.14.75,3.19,1.82,3.19S691.45,235.73,691.45,233.53Zm-2.56-.08a.75.75,0,1,1,.74.8A.74.74,0,0,1,688.89,233.45Z" transform="translate(-157 -99)"/><path class="cls-2" d="M694.7,239a6.37,6.37,0,0,0,0-9.88l.55-.51a6.87,6.87,0,0,1,0,10.89Z" transform="translate(-157 -99)"/><path class="cls-2" d="M702.78,239.31a2.13,2.13,0,0,0,1.51-2.09l-.21-1.11.67.95a.83.83,0,0,1-.67.28.86.86,0,0,1-.94-.9.9.9,0,0,1,1-.92c.71,0,1.08.59,1.08,1.54a3,3,0,0,1-2.11,2.88Zm.28-7.1a1,1,0,1,1,1,1A1,1,0,0,1,703.06,232.21Z" transform="translate(-157 -99)"/><path class="cls-2" d="M231.16,372.78v-3.63h1v3.49c0,1.1.39,1.62,1.35,1.62a2.32,2.32,0,0,0,1.81-1.06v-4.05h1V375h-.82l-.09-1h0a2.81,2.81,0,0,1-2.17,1.17C231.79,375.13,231.16,374.31,231.16,372.78Z" transform="translate(-157 -99)"/><path class="cls-2" d="M238.55,369.15h.82l.08,1h.05a3,3,0,0,1,2.19-1.13c1.38,0,2,.82,2,2.35V375h-1v-3.49c0-1.1-.38-1.62-1.33-1.62-.7,0-1.16.35-1.84,1.05V375h-1Z" transform="translate(-157 -99)"/><path class="cls-2" d="M248.41,370h-2.7v-.81h3.7V375h-1Zm-.39-2.8a.79.79,0,1,1,.79.77A.74.74,0,0,1,248,367.16Z" transform="translate(-157 -99)"/><path class="cls-2" d="M252.55,372.08a2.88,2.88,0,1,1,2.88,3.05A2.86,2.86,0,0,1,252.55,372.08Zm4.74,0c0-1.34-.74-2.24-1.86-2.24s-1.86.9-1.86,2.24.75,2.22,1.86,2.22S257.29,373.41,257.29,372.08Z" transform="translate(-157 -99)"/><path class="cls-2" d="M260.15,369.15H261l.08,1h.05a3,3,0,0,1,2.19-1.13c1.38,0,2,.82,2,2.35V375h-1v-3.49c0-1.1-.38-1.62-1.33-1.62-.7,0-1.16.35-1.83,1.05V375h-1Z" transform="translate(-157 -99)"/><path class="cls-2" d="M268.73,371.65a6.68,6.68,0,0,1,2.69-5.45l.55.51a6.37,6.37,0,0,0,0,9.88l-.55.5A6.66,6.66,0,0,1,268.73,371.65Z" transform="translate(-157 -99)"/><path class="cls-2" d="M274.29,371.13c0-2.56,1-3.94,2.74-3.94s2.75,1.38,2.75,3.94-1,4-2.75,4S274.29,373.68,274.29,371.13Zm4.56,0c0-2.19-.75-3.14-1.82-3.14s-1.82.95-1.82,3.14.75,3.19,1.82,3.19S278.85,373.33,278.85,371.13Zm-2.56-.08a.75.75,0,1,1,.74.8A.74.74,0,0,1,276.29,371.05Z" transform="translate(-157 -99)"/><path class="cls-2" d="M283,376.91a2.15,2.15,0,0,0,1.52-2.09l-.22-1.11.67,1a.83.83,0,0,1-.67.28.86.86,0,0,1-.94-.9.9.9,0,0,1,1-.92c.71,0,1.08.59,1.08,1.54a3,3,0,0,1-2.11,2.88Z" transform="translate(-157 -99)"/><path class="cls-2" d="M295.72,374.05l.5-.65a3.09,3.09,0,0,0,2.2.9c1,0,1.82-.54,1.82-1.39s-.77-1.52-2.77-1.52v-.76c1.81,0,2.5-.62,2.5-1.43s-.63-1.2-1.55-1.2a2.94,2.94,0,0,0-1.89.77l-.53-.62a3.74,3.74,0,0,1,2.45-1c1.44,0,2.53.71,2.53,1.94,0,.92-.68,1.51-1.63,1.82V371a2.12,2.12,0,0,1,1.9,1.94c0,1.36-1.25,2.19-2.77,2.19A3.76,3.76,0,0,1,295.72,374.05Z" transform="translate(-157 -99)"/><path class="cls-2" d="M303.7,376.59a6.37,6.37,0,0,0,0-9.88l.55-.51a6.87,6.87,0,0,1,0,10.89Z" transform="translate(-157 -99)"/><path class="cls-2" d="M311.78,376.91a2.13,2.13,0,0,0,1.51-2.09l-.21-1.11.67,1a.83.83,0,0,1-.67.28.86.86,0,0,1-.94-.9.9.9,0,0,1,1-.92c.71,0,1.08.59,1.08,1.54a3,3,0,0,1-2.11,2.88Zm.28-7.1a1,1,0,1,1,1.94,0,1,1,0,1,1-1.94,0Z" transform="translate(-157 -99)"/><path class="cls-2" d="M231.09,385.53c0-2.56,1-3.94,2.74-3.94s2.75,1.38,2.75,3.94-1,4-2.75,4S231.09,388.08,231.09,385.53Zm4.57,0c0-2.19-.76-3.14-1.83-3.14s-1.82.95-1.82,3.14.76,3.19,1.82,3.19S235.66,387.73,235.66,385.53Zm-2.57-.08a.75.75,0,1,1,.74.8A.74.74,0,0,1,233.09,385.45Z" transform="translate(-157 -99)"/><path class="cls-2" d="M245.65,383.77h5.16v.74h-5.16Zm0,2.57h5.16v.74h-5.16Z" transform="translate(-157 -99)"/><path class="cls-2" d="M260.27,383.62l1.69-.07h3.39v.81h-5.08Zm1.67-.56a2.13,2.13,0,0,1,2.35-2.36A4.35,4.35,0,0,1,266,381l-.23.74a3.22,3.22,0,0,0-1.36-.28c-1,0-1.46.59-1.46,1.53v6.35h-1Z" transform="translate(-157 -99)"/><path class="cls-2" d="M270,384.36h-2.7v-.81H271v5.83h-1Zm-.39-2.8a.79.79,0,1,1,.79.77A.74.74,0,0,1,269.62,381.56Z" transform="translate(-157 -99)"/><path class="cls-2" d="M274.55,383.55h.81l.09,1h.05a3,3,0,0,1,2.19-1.13c1.38,0,2,.82,2,2.35v3.62h-1v-3.49c0-1.1-.38-1.62-1.33-1.62-.7,0-1.16.35-1.84,1.05v4.06h-1Z" transform="translate(-157 -99)"/><path class="cls-2" d="M281.35,386.48a2.81,2.81,0,0,1,2.64-3.07,2.51,2.51,0,0,1,1.75.74h0l0-1.06v-2.25h1v8.54h-.81l-.09-.76h0a2.82,2.82,0,0,1-1.91.91C282.36,389.53,281.35,388.42,281.35,386.48Zm4.37,1.34v-2.9a2.17,2.17,0,0,0-1.52-.67,2,2,0,0,0-1.83,2.22c0,1.39.65,2.22,1.72,2.22A2.21,2.21,0,0,0,285.72,387.82Z" transform="translate(-157 -99)"/><path class="cls-2" d="M290.33,386.05A6.71,6.71,0,0,1,293,380.6l.56.51a6.37,6.37,0,0,0,0,9.88l-.56.5A6.68,6.68,0,0,1,290.33,386.05Z" transform="translate(-157 -99)"/><path class="cls-2" d="M295.88,385.53c0-2.56,1.05-3.94,2.75-3.94s2.75,1.38,2.75,3.94-1.05,4-2.75,4S295.88,388.08,295.88,385.53Zm4.57,0c0-2.19-.75-3.14-1.82-3.14s-1.82.95-1.82,3.14.75,3.19,1.82,3.19S300.45,387.73,300.45,385.53Zm-2.56-.08a.75.75,0,1,1,.74.8A.74.74,0,0,1,297.89,385.45Z" transform="translate(-157 -99)"/><path class="cls-2" d="M303.7,391a6.37,6.37,0,0,0,0-9.88l.55-.51a6.87,6.87,0,0,1,0,10.89Z" transform="translate(-157 -99)"/><path class="cls-2" d="M311.78,391.31a2.13,2.13,0,0,0,1.51-2.09l-.21-1.11.67.95a.83.83,0,0,1-.67.28.86.86,0,0,1-.94-.9.9.9,0,0,1,1-.92c.71,0,1.08.59,1.08,1.54a3,3,0,0,1-2.11,2.88Zm.28-7.1a1,1,0,1,1,1,1A1,1,0,0,1,312.06,384.21Z" transform="translate(-157 -99)"/><path class="cls-2" d="M525.16,372.78v-3.63h1v3.49c0,1.1.39,1.62,1.35,1.62a2.32,2.32,0,0,0,1.81-1.06v-4.05h1V375h-.82l-.09-1h0a2.81,2.81,0,0,1-2.17,1.17C525.79,375.13,525.16,374.31,525.16,372.78Z" transform="translate(-157 -99)"/><path class="cls-2" d="M532.55,369.15h.82l.08,1h0a3,3,0,0,1,2.19-1.13c1.38,0,2,.82,2,2.35V375h-1v-3.49c0-1.1-.38-1.62-1.33-1.62-.7,0-1.16.35-1.84,1.05V375h-1Z" transform="translate(-157 -99)"/><path class="cls-2" d="M542.41,370h-2.7v-.81h3.7V375h-1Zm-.39-2.8a.79.79,0,1,1,.79.77A.74.74,0,0,1,542,367.16Z" transform="translate(-157 -99)"/><path class="cls-2" d="M546.55,372.08a2.88,2.88,0,1,1,2.88,3.05A2.86,2.86,0,0,1,546.55,372.08Zm4.74,0c0-1.34-.74-2.24-1.86-2.24s-1.86.9-1.86,2.24.75,2.22,1.86,2.22S551.29,373.41,551.29,372.08Z" transform="translate(-157 -99)"/><path class="cls-2" d="M554.15,369.15H555l.08,1h.05a3,3,0,0,1,2.19-1.13c1.38,0,2,.82,2,2.35V375h-1v-3.49c0-1.1-.38-1.62-1.33-1.62-.7,0-1.16.35-1.83,1.05V375h-1Z" transform="translate(-157 -99)"/><path class="cls-2" d="M562.73,371.65a6.68,6.68,0,0,1,2.69-5.45l.55.51a6.37,6.37,0,0,0,0,9.88l-.55.5A6.66,6.66,0,0,1,562.73,371.65Z" transform="translate(-157 -99)"/><path class="cls-2" d="M568.29,371.13c0-2.56,1-3.94,2.74-3.94s2.75,1.38,2.75,3.94-1,4-2.75,4S568.29,373.68,568.29,371.13Zm4.56,0c0-2.19-.75-3.14-1.82-3.14s-1.82.95-1.82,3.14.75,3.19,1.82,3.19S572.85,373.33,572.85,371.13Zm-2.56-.08a.75.75,0,1,1,.74.8A.74.74,0,0,1,570.29,371.05Z" transform="translate(-157 -99)"/><path class="cls-2" d="M577,376.91a2.15,2.15,0,0,0,1.52-2.09l-.22-1.11.67,1a.83.83,0,0,1-.67.28.86.86,0,0,1-.94-.9.9.9,0,0,1,1-.92c.71,0,1.08.59,1.08,1.54a3,3,0,0,1-2.11,2.88Z" transform="translate(-157 -99)"/><path class="cls-2" d="M590.15,369.15H591l.09,1h.05a3,3,0,0,1,2.19-1.13c1.38,0,2,.82,2,2.35V375h-1v-3.49c0-1.1-.38-1.62-1.33-1.62-.7,0-1.16.35-1.84,1.05V375h-1Z" transform="translate(-157 -99)"/><path class="cls-2" d="M597.25,370.65h5.16v.75h-5.16Z" transform="translate(-157 -99)"/><path class="cls-2" d="M604.6,374.16h2.2v-5.62h-1.71v-.64a5.33,5.33,0,0,0,2-.57h.75v6.83h2V375H604.6Z" transform="translate(-157 -99)"/><path class="cls-2" d="M612.1,376.59a6.37,6.37,0,0,0,0-9.88l.55-.51a6.87,6.87,0,0,1,0,10.89Z" transform="translate(-157 -99)"/><path class="cls-2" d="M620.18,376.91a2.15,2.15,0,0,0,1.52-2.09l-.22-1.11.67,1a.83.83,0,0,1-.67.28.86.86,0,0,1-.94-.9.9.9,0,0,1,1-.92c.71,0,1.08.59,1.08,1.54a3,3,0,0,1-2.11,2.88Zm.28-7.1a1,1,0,1,1,1.94,0,1,1,0,1,1-1.94,0Z" transform="translate(-157 -99)"/><path class="cls-2" d="M525.09,385.53c0-2.56,1-3.94,2.74-3.94s2.75,1.38,2.75,3.94-1,4-2.75,4S525.09,388.08,525.09,385.53Zm4.57,0c0-2.19-.76-3.14-1.83-3.14s-1.82.95-1.82,3.14.76,3.19,1.82,3.19S529.66,387.73,529.66,385.53Zm-2.57-.08a.75.75,0,1,1,.74.8A.74.74,0,0,1,527.09,385.45Z" transform="translate(-157 -99)"/><path class="cls-2" d="M539.65,383.77h5.16v.74h-5.16Zm0,2.57h5.16v.74h-5.16Z" transform="translate(-157 -99)"/><path class="cls-2" d="M554.27,383.62l1.69-.07h3.39v.81h-5.08Zm1.67-.56a2.13,2.13,0,0,1,2.35-2.36A4.35,4.35,0,0,1,560,381l-.23.74a3.22,3.22,0,0,0-1.36-.28c-1,0-1.46.59-1.46,1.53v6.35h-1Z" transform="translate(-157 -99)"/><path class="cls-2" d="M564,384.36h-2.7v-.81H565v5.83h-1Zm-.39-2.8a.79.79,0,1,1,.79.77A.74.74,0,0,1,563.62,381.56Z" transform="translate(-157 -99)"/><path class="cls-2" d="M568.55,383.55h.81l.09,1h0a3,3,0,0,1,2.19-1.13c1.38,0,2,.82,2,2.35v3.62h-1v-3.49c0-1.1-.38-1.62-1.33-1.62-.7,0-1.16.35-1.84,1.05v4.06h-1Z" transform="translate(-157 -99)"/><path class="cls-2" d="M575.35,386.48a2.81,2.81,0,0,1,2.64-3.07,2.51,2.51,0,0,1,1.75.74h0l0-1.06v-2.25h1v8.54h-.81l-.09-.76h0a2.82,2.82,0,0,1-1.91.91C576.36,389.53,575.35,388.42,575.35,386.48Zm4.37,1.34v-2.9a2.17,2.17,0,0,0-1.52-.67,2,2,0,0,0-1.83,2.22c0,1.39.65,2.22,1.72,2.22A2.21,2.21,0,0,0,579.72,387.82Z" transform="translate(-157 -99)"/><path class="cls-2" d="M584.33,386.05A6.71,6.71,0,0,1,587,380.6l.56.51a6.37,6.37,0,0,0,0,9.88l-.56.5A6.68,6.68,0,0,1,584.33,386.05Z" transform="translate(-157 -99)"/><path class="cls-2" d="M589.88,385.53c0-2.56,1-3.94,2.75-3.94s2.75,1.38,2.75,3.94-1,4-2.75,4S589.88,388.08,589.88,385.53Zm4.57,0c0-2.19-.75-3.14-1.82-3.14s-1.82.95-1.82,3.14.75,3.19,1.82,3.19S594.45,387.73,594.45,385.53Zm-2.56-.08a.75.75,0,1,1,.74.8A.74.74,0,0,1,591.89,385.45Z" transform="translate(-157 -99)"/><path class="cls-2" d="M597.7,391a6.37,6.37,0,0,0,0-9.88l.55-.51a6.87,6.87,0,0,1,0,10.89Z" transform="translate(-157 -99)"/><path class="cls-2" d="M605.78,391.31a2.13,2.13,0,0,0,1.51-2.09l-.21-1.11.67.95a.83.83,0,0,1-.67.28.86.86,0,0,1-.94-.9.9.9,0,0,1,1-.92c.71,0,1.08.59,1.08,1.54a3,3,0,0,1-2.11,2.88Zm.28-7.1a1,1,0,1,1,1,1A1,1,0,0,1,606.06,384.21Z" transform="translate(-157 -99)"/></svg>