<svg id="图层_1" data-name="图层 1" xmlns="http://www.w3.org/2000/svg" viewBox="0 0 741 228.87"><defs><style>.cls-1{fill:none;}.cls-1,.cls-3{stroke:#3ea69f;stroke-miterlimit:10;}.cls-2{fill:#3ea69f;}.cls-3{fill:#fff;}</style></defs><circle class="cls-1" cx="64.5" cy="22.5" r="18"/><path class="cls-2" d="M202.69,111.76c0-4.49,1.83-6.91,4.81-6.91s4.81,2.42,4.81,6.91-1.83,7-4.81,7S202.69,116.21,202.69,111.76Zm8,0c0-3.84-1.32-5.5-3.19-5.5s-3.19,1.66-3.19,5.5,1.32,5.59,3.19,5.59S210.69,115.6,210.69,111.76Zm-4.49-.15a1.3,1.3,0,1,1,1.3,1.41A1.3,1.3,0,0,1,206.2,111.61Z" transform="translate(-143 -90)"/><circle class="cls-1" cx="64.5" cy="81.5" r="18"/><path class="cls-2" d="M203.24,176.05h3.86v-9.82h-3v-1.14a9.5,9.5,0,0,0,3.44-1h1.3v12h3.49v1.45h-9.09Z" transform="translate(-143 -90)"/><circle class="cls-1" cx="64.5" cy="167.5" r="18"/><path class="cls-2" d="M208.93,254.28c0-.73.06-1.64.1-2.37h-.1c-.44.65-.93,1.3-1.37,2L204,258.4h8.69v1.4H202v-1.15l6.68-8.55h1.86v13.4h-1.63Z" transform="translate(-143 -90)"/><circle class="cls-1" cx="18.5" cy="124.5" r="18"/><path class="cls-2" d="M156.73,219.47c4.54-4,7-6.36,7-8.59,0-1.53-.93-2.6-2.9-2.6a4.58,4.58,0,0,0-3.21,1.6l-1-1a6,6,0,0,1,4.43-2c2.69,0,4.37,1.58,4.37,4s-2.52,5-6.16,8.31c.84-.06,1.7-.1,2.5-.1h4.39v1.49h-9.43Z" transform="translate(-143 -90)"/><circle class="cls-1" cx="109.5" cy="124.5" r="18"/><path class="cls-2" d="M247.4,218.86l.88-1.13a5.41,5.41,0,0,0,3.84,1.57c1.83,0,3.19-.94,3.19-2.43s-1.34-2.67-4.85-2.67v-1.32c3.17,0,4.39-1.09,4.39-2.5s-1.11-2.1-2.73-2.1a5.12,5.12,0,0,0-3.3,1.34l-.92-1.09a6.51,6.51,0,0,1,4.28-1.68c2.52,0,4.43,1.24,4.43,3.4,0,1.62-1.19,2.65-2.85,3.2v.08c1.78.38,3.32,1.55,3.32,3.4,0,2.37-2.19,3.82-4.85,3.82A6.54,6.54,0,0,1,247.4,218.86Z" transform="translate(-143 -90)"/><circle class="cls-1" cx="182.5" cy="124.5" r="18"/><path class="cls-2" d="M320.38,218.93l.86-1.16A5.31,5.31,0,0,0,325,219.3a3.11,3.11,0,0,0,3.38-3c0-1.85-1.31-2.92-3.28-2.92a5,5,0,0,0-2.73.8l-.92-.59.44-6.45h7.58v1.52h-6.05l-.36,3.94a5.84,5.84,0,0,1,2.48-.54c2.56,0,4.6,1.3,4.6,4.2s-2.39,4.53-5,4.53A6.72,6.72,0,0,1,320.38,218.93Z" transform="translate(-143 -90)"/><circle class="cls-1" cx="225.5" cy="81.5" r="18"/><path class="cls-2" d="M371.38,165.62h-7.71V164.1h9.7v1.08c-3.55,4-4.41,7.07-4.62,12.32h-1.83A17.9,17.9,0,0,1,371.38,165.62Z" transform="translate(-143 -90)"/><circle class="cls-1" cx="225.5" cy="22.5" r="18"/><path class="cls-2" d="M363.63,115.08c0-1.85,1.43-2.9,2.87-3.57v-.09a3.75,3.75,0,0,1-2-3.12c0-2.06,1.74-3.45,4.13-3.45,2.63,0,4.16,1.49,4.16,3.57a4.18,4.18,0,0,1-2,3.19v.09c1.47.73,2.63,1.57,2.63,3.48s-1.74,3.57-4.81,3.57S363.63,117.2,363.63,115.08Zm8.06,0c0-1.85-1.87-2.33-4.2-3.11-1.3.7-2.29,1.56-2.29,2.9s1.33,2.54,3.38,2.54S371.69,116.51,371.69,115.12Zm-.44-6.61a2.39,2.39,0,0,0-2.69-2.36,2.22,2.22,0,0,0-2.5,2.15c0,1.59,1.54,2.26,3.53,2.89A3.39,3.39,0,0,0,371.25,108.51Z" transform="translate(-143 -90)"/><circle class="cls-1" cx="284.5" cy="22.5" r="18"/><path class="cls-2" d="M422.86,117.35l1-1.1a4,4,0,0,0,2.67,1c2.16,0,4.07-1.53,4.07-6,0-3.3-1.28-5.06-3.48-5.06a2.77,2.77,0,0,0-2.84,2.92A2.57,2.57,0,0,0,427.1,112a4.69,4.69,0,0,0,3.49-1.89l.06,1.37a5.55,5.55,0,0,1-3.89,1.82,3.79,3.79,0,0,1-4.15-4.13,4.32,4.32,0,0,1,4.45-4.31c2.92,0,5.14,2.14,5.14,6.45,0,5.37-2.71,7.45-5.6,7.45A5.44,5.44,0,0,1,422.86,117.35Z" transform="translate(-143 -90)"/><circle class="cls-1" cx="225.5" cy="167.5" r="18"/><path class="cls-2" d="M363.82,257.31c0-5.38,2.68-7.46,5.6-7.46a5.32,5.32,0,0,1,3.74,1.43l-1,1.09a3.93,3.93,0,0,0-2.66-1.07c-2.19,0-4.08,1.53-4.08,6,0,3.29,1.26,5.08,3.49,5.08a2.78,2.78,0,0,0,2.81-2.94,2.55,2.55,0,0,0-2.83-2.84,4.73,4.73,0,0,0-3.51,1.89l-.06-1.36a5.68,5.68,0,0,1,3.88-1.83,3.81,3.81,0,0,1,4.18,4.14,4.32,4.32,0,0,1-4.47,4.3C366,263.75,363.82,261.61,363.82,257.31Z" transform="translate(-143 -90)"/><line class="cls-3" x1="64.5" y1="40.5" x2="64.5" y2="63.5"/><circle class="cls-1" cx="386.5" cy="18.5" r="18"/><path class="cls-2" d="M524.69,107.76c0-4.49,1.83-6.91,4.81-6.91s4.81,2.42,4.81,6.91-1.83,7-4.81,7S524.69,112.21,524.69,107.76Zm8,0c0-3.84-1.32-5.5-3.19-5.5s-3.19,1.66-3.19,5.5,1.32,5.59,3.19,5.59S532.69,111.6,532.69,107.76Zm-4.49-.15a1.3,1.3,0,1,1,1.3,1.41A1.3,1.3,0,0,1,528.2,107.61Z" transform="translate(-143 -90)"/><circle class="cls-1" cx="386.5" cy="77.5" r="18"/><path class="cls-2" d="M525.24,172.05h3.86v-9.82h-3v-1.14a9.5,9.5,0,0,0,3.44-1h1.3v12h3.49v1.45h-9.09Z" transform="translate(-143 -90)"/><line class="cls-3" x1="386.5" y1="36.5" x2="386.5" y2="59.5"/><line class="cls-3" x1="51.26" y1="93.69" x2="31.86" y2="112.44"/><line class="cls-3" x1="77.74" y1="93.69" x2="96.14" y2="112.44"/><line class="cls-3" x1="96.14" y1="136.56" x2="77.74" y2="155.31"/><line class="cls-3" x1="31.86" y1="136.56" x2="51.26" y2="155.31"/><circle class="cls-1" cx="446.5" cy="102.5" r="18"/><path class="cls-2" d="M585.24,197.05h3.86v-9.82h-3v-1.14a9.5,9.5,0,0,0,3.44-1h1.3v12h3.49v1.45h-9.09Z" transform="translate(-143 -90)"/><circle class="cls-1" cx="446.5" cy="188.5" r="18"/><path class="cls-2" d="M590.93,275.28c0-.73.06-1.64.1-2.37h-.1c-.44.65-.93,1.3-1.37,1.95L586,279.4h8.69v1.4H584v-1.15l6.68-8.55h1.86v13.4h-1.63Z" transform="translate(-143 -90)"/><circle class="cls-1" cx="400.5" cy="145.5" r="18"/><path class="cls-2" d="M538.73,240.47c4.54-4,7-6.36,7-8.59,0-1.53-.93-2.6-2.9-2.6a4.58,4.58,0,0,0-3.21,1.6l-1-1a6,6,0,0,1,4.43-2c2.69,0,4.37,1.58,4.37,4s-2.52,5-6.16,8.31c.84-.06,1.7-.1,2.5-.1h4.39v1.49h-9.43Z" transform="translate(-143 -90)"/><circle class="cls-1" cx="491.5" cy="145.5" r="18"/><path class="cls-2" d="M629.4,239.86l.88-1.13a5.41,5.41,0,0,0,3.84,1.57c1.83,0,3.19-.94,3.19-2.43s-1.34-2.67-4.85-2.67v-1.32c3.17,0,4.39-1.09,4.39-2.5s-1.11-2.1-2.73-2.1a5.12,5.12,0,0,0-3.3,1.34l-.92-1.09a6.51,6.51,0,0,1,4.28-1.68c2.52,0,4.43,1.24,4.43,3.4,0,1.62-1.19,2.65-2.85,3.2v.08c1.78.38,3.32,1.55,3.32,3.4,0,2.37-2.19,3.82-4.85,3.82A6.54,6.54,0,0,1,629.4,239.86Z" transform="translate(-143 -90)"/><line class="cls-3" x1="433.26" y1="114.69" x2="413.86" y2="133.44"/><line class="cls-3" x1="459.74" y1="114.69" x2="478.14" y2="133.44"/><line class="cls-3" x1="478.14" y1="157.56" x2="459.74" y2="176.31"/><line class="cls-3" x1="413.86" y1="157.56" x2="433.26" y2="176.31"/><line class="cls-3" x1="127.5" y1="124.5" x2="164.5" y2="124.5"/><circle class="cls-1" cx="468.5" cy="29.5" r="18"/><path class="cls-2" d="M606.4,123.86l.88-1.13a5.41,5.41,0,0,0,3.84,1.57c1.83,0,3.19-.94,3.19-2.43s-1.34-2.67-4.85-2.67v-1.32c3.17,0,4.39-1.09,4.39-2.5s-1.11-2.1-2.73-2.1a5.12,5.12,0,0,0-3.3,1.34l-.92-1.09a6.51,6.51,0,0,1,4.28-1.68c2.52,0,4.43,1.24,4.43,3.4,0,1.62-1.19,2.65-2.85,3.2v.08c1.78.38,3.32,1.55,3.32,3.4,0,2.37-2.19,3.82-4.85,3.82A6.54,6.54,0,0,1,606.4,123.86Z" transform="translate(-143 -90)"/><circle class="cls-1" cx="541.5" cy="29.5" r="18"/><path class="cls-2" d="M679.38,123.93l.86-1.16A5.31,5.31,0,0,0,684,124.3a3.11,3.11,0,0,0,3.38-3c0-1.85-1.31-2.92-3.28-2.92a5,5,0,0,0-2.73.8l-.92-.59.44-6.45h7.58v1.52h-6l-.36,3.94a5.84,5.84,0,0,1,2.48-.54c2.56,0,4.6,1.3,4.6,4.2s-2.39,4.53-4.95,4.53A6.72,6.72,0,0,1,679.38,123.93Z" transform="translate(-143 -90)"/><line class="cls-3" x1="486.5" y1="29.5" x2="523.5" y2="29.5"/><line class="cls-3" x1="195.86" y1="112.44" x2="212.26" y2="93.69"/><line class="cls-3" x1="195.86" y1="136.56" x2="212.26" y2="155.31"/><line class="cls-3" x1="225.5" y1="99.5" x2="225.5" y2="149.5"/><circle class="cls-1" cx="549.5" cy="120.5" r="18"/><path class="cls-2" d="M687.38,214.93l.86-1.16A5.31,5.31,0,0,0,692,215.3a3.11,3.11,0,0,0,3.38-3c0-1.85-1.31-2.92-3.28-2.92a5,5,0,0,0-2.73.8l-.92-.59.44-6.45h7.58v1.52h-6l-.36,3.94a5.84,5.84,0,0,1,2.48-.54c2.56,0,4.6,1.3,4.6,4.2s-2.39,4.53-4.95,4.53A6.74,6.74,0,0,1,687.38,214.93Z" transform="translate(-143 -90)"/><circle class="cls-1" cx="592.5" cy="77.5" r="18"/><path class="cls-2" d="M738.38,161.62h-7.71V160.1h9.7v1.08c-3.55,4-4.41,7.07-4.62,12.32h-1.83A17.9,17.9,0,0,1,738.38,161.62Z" transform="translate(-143 -90)"/><circle class="cls-1" cx="592.5" cy="163.5" r="18"/><path class="cls-2" d="M730.82,253.31c0-5.38,2.68-7.46,5.6-7.46a5.32,5.32,0,0,1,3.74,1.43l-1,1.09a3.93,3.93,0,0,0-2.66-1.07c-2.19,0-4.07,1.53-4.07,6,0,3.29,1.25,5.08,3.48,5.08a2.78,2.78,0,0,0,2.81-2.94,2.55,2.55,0,0,0-2.83-2.84,4.73,4.73,0,0,0-3.51,1.89l-.06-1.36a5.68,5.68,0,0,1,3.88-1.83,3.81,3.81,0,0,1,4.18,4.14,4.32,4.32,0,0,1-4.47,4.3C733,259.75,730.82,257.61,730.82,253.31Z" transform="translate(-143 -90)"/><line class="cls-3" x1="562.86" y1="108.44" x2="579.26" y2="89.69"/><line class="cls-3" x1="562.86" y1="132.56" x2="579.26" y2="151.31"/><line class="cls-3" x1="592.5" y1="95.5" x2="592.5" y2="145.5"/><line class="cls-3" x1="239.26" y1="69.9" x2="273.26" y2="36.56"/><circle class="cls-1" cx="663.5" cy="156.5" r="18"/><path class="cls-2" d="M809.38,240.62h-7.71V239.1h9.7v1.08c-3.55,4-4.41,7.07-4.62,12.32h-1.83A17.9,17.9,0,0,1,809.38,240.62Z" transform="translate(-143 -90)"/><circle class="cls-1" cx="722.5" cy="97.5" r="18"/><path class="cls-2" d="M860.86,192.35l1-1.1a4,4,0,0,0,2.67,1.05c2.16,0,4.07-1.53,4.07-6,0-3.3-1.28-5.06-3.48-5.06a2.77,2.77,0,0,0-2.84,2.92A2.57,2.57,0,0,0,865.1,187a4.69,4.69,0,0,0,3.49-1.89l.06,1.37a5.55,5.55,0,0,1-3.89,1.82,3.79,3.79,0,0,1-4.15-4.13,4.32,4.32,0,0,1,4.45-4.31c2.92,0,5.14,2.14,5.14,6.45,0,5.37-2.71,7.45-5.6,7.45A5.44,5.44,0,0,1,860.86,192.35Z" transform="translate(-143 -90)"/><line class="cls-3" x1="677.26" y1="144.9" x2="711.26" y2="111.56"/><line class="cls-3" x1="225.5" y1="40.5" x2="225.5" y2="63.5"/><circle class="cls-1" cx="658.5" cy="88.5" r="18"/><path class="cls-2" d="M804.38,172.62h-7.71V171.1h9.7v1.08c-3.55,4-4.41,7.07-4.62,12.32h-1.83A17.9,17.9,0,0,1,804.38,172.62Z" transform="translate(-143 -90)"/><circle class="cls-1" cx="658.5" cy="29.5" r="18"/><path class="cls-2" d="M796.63,122.08c0-1.85,1.43-2.9,2.87-3.57v-.09a3.75,3.75,0,0,1-2-3.12c0-2.06,1.74-3.45,4.13-3.45,2.63,0,4.16,1.49,4.16,3.57a4.18,4.18,0,0,1-2,3.19v.09c1.47.73,2.63,1.57,2.63,3.48s-1.74,3.57-4.81,3.57S796.63,124.2,796.63,122.08Zm8.06,0c0-1.85-1.87-2.33-4.2-3.11-1.3.7-2.29,1.56-2.29,2.9s1.33,2.54,3.38,2.54S804.69,123.51,804.69,122.12Zm-.44-6.61a2.39,2.39,0,0,0-2.69-2.36,2.22,2.22,0,0,0-2.5,2.15c0,1.59,1.54,2.26,3.53,2.89A3.39,3.39,0,0,0,804.25,115.51Z" transform="translate(-143 -90)"/><line class="cls-3" x1="658.5" y1="47.5" x2="658.5" y2="70.5"/><path class="cls-2" d="M247.84,304.19a.48.48,0,0,1,.27.5v.15a4.75,4.75,0,0,0-.59,1.88c.06,0,.08,0,.08.12a7.31,7.31,0,0,1,2.24-.45l.13.18v.18l-1.27.76v2.07a.7.7,0,0,1,.33.1l1.67-.5a.77.77,0,0,1,.2.49v.17c0,.22-.71.54-2.11.94v1l.09.69c1.55-.24,2.71-.38,3.49-.43l.13.19v.14c0,.25-.62.5-1.84.77a12.65,12.65,0,0,1-1.78.51l-.09.57v.09c0,.23,0,.34.08.34,0,1.06-.16,1.6-.34,1.6h-.08a.62.62,0,0,1-.58-.28v-.31a4.14,4.14,0,0,0-.09-.84,2.73,2.73,0,0,0,.09-.76V314l-.13-.24a4.86,4.86,0,0,0-.9.17c-.89-.13-1.34-.3-1.34-.5v-.33c0-.1.08-.15.25-.17l.59.08q1.53-.16,1.53-.66a3.43,3.43,0,0,0,.07-.77v-.26a.22.22,0,0,0-.25-.25h-.09a17.47,17.47,0,0,1-2.1.25l-.83-.09a29.52,29.52,0,0,0-1.29,4.14v.15c1,.3,2.78.95,5.48,2h.2l.6-.33h.05c.06,0,.09,0,.09.08-.05.61-.34.92-.84.92h-.42a36.52,36.52,0,0,1-4.11-1.43,12,12,0,0,0-2.15-.42q0,.17-.27.33h-.14a.07.07,0,0,1-.08-.08v-.16a3.17,3.17,0,0,1,.58-1.48,30.31,30.31,0,0,0,1.36-3.92.24.24,0,0,0-.26-.27h-.84a.61.61,0,0,1-.59-.35v-.15c0-.05.09-.13.28-.24h1.74a1.37,1.37,0,0,1,.73.33h.15a3.87,3.87,0,0,0,1.18-2.2c-2.55,0-3.83-.43-3.83-1.29a.45.45,0,0,1,.17,0,17.16,17.16,0,0,1,2,.71c0-.19.63-.32,1.9-.38a5,5,0,0,0,.54-1.66C247.21,304.59,247.51,304.19,247.84,304.19ZM246.39,310h.29c.79,0,1.19-.19,1.19-.43l-.09-.76a.72.72,0,0,1,.09-.24,2.83,2.83,0,0,1-.09-.68h-.35C247.19,307.9,246.84,308.6,246.39,310Z" transform="translate(-143 -90)"/><path class="cls-2" d="M264.4,303.42c.67.08,1,.33,1,.76s-.54,1.09-1.61,2.2a3.56,3.56,0,0,1,.68.93,8.73,8.73,0,0,1,2-.51h.5c.51,0,.76.59.76,1.77.1,2.11.35,4.73.76,7.84v.18c0,.12-.14.2-.42.25a7.81,7.81,0,0,1-1.86-2.28l.17-.08,1,.76h.17a41.57,41.57,0,0,1-.67-7.34l.08-.42-.17-.09c-1.24.26-1.85.46-1.85.59v2.28h.08a12.35,12.35,0,0,1,1.68-.25v.16c0,.13-.57.46-1.68,1-.06.17-.11.26-.17.26l.09.42v.34a9.32,9.32,0,0,0,1.52-.43l.08.18a9.59,9.59,0,0,0-1.69,1.51l.09.42v2.37h-.09c-.19,0-.44-.87-.76-2.61a3.61,3.61,0,0,0-1.52.59v.84h.17c0-.17,0-.26.17-.26h.17a16,16,0,0,0-.17,2.54,8,8,0,0,0,4,1.09c0,.06.08.08.24.08v.26q-1.12.09-1.68.09H265c-1.29,0-3.21-1-5.74-3l-.42-.08c-.26,1.18-.51,1.77-.76,1.77h-.26c-.14,0-.22-.11-.25-.34q0-.69,2.7-7.6v-.08h-.08a8.47,8.47,0,0,1-2.37.85c-.25-.11-.39-.23-.42-.34,0-.29,1.1-.77,3.29-1.44.34,0,.51.12.51.26v.59l-1.94,5.15V315c0,.18.93.8,2.78,1.86v-.08c-.07-.87-.13-1.38-.16-1.52.05-.48.08-.85.08-1.1q0-6.75.42-6.75h.16l.35.25a2.29,2.29,0,0,1,.59-.09v-.07c-.68-.73-1-1.24-1-1.52v-.17c0-.14.11-.23.33-.26.39.08.59.19.59.34q1.35-1,1.35-1.77c-.46,0-1.31.22-2.53.5H262c-.09,0-.2-.11-.34-.33S262.54,303.69,264.4,303.42Zm-5.83,2.37h.26c1.36.54,2.09.93,2.19,1.18v.16c0,.09-.11.18-.34.26-1.52-.52-2.28-.89-2.28-1.1V306C258.42,305.84,258.48,305.79,258.57,305.79Zm4.05,3v1.94c0,.11.08.17.17.17,1-.13,1.52-.44,1.52-.92s0-1.19.09-1.95C263.21,308.06,262.62,308.32,262.62,308.82Zm0,2.71v1.93h.09c1.07-.49,1.6-.91,1.6-1.26v-.08c0-.51-.12-.77-.26-.77h-1.26C262.68,311.37,262.62,311.43,262.62,311.53Z" transform="translate(-143 -90)"/><path class="cls-2" d="M281.68,304.77a2,2,0,0,1,1,1.77v.26c-.11,3-.16,4.64-.16,5V314a13.36,13.36,0,0,0,.08,1.52c-.1,1-.21,1.45-.36,1.45H282c-.71-.68-1.2-1-1.48-1a18.62,18.62,0,0,1-2.94.93h-.25c-.06,0-.16-.09-.27-.29v-.31a9.46,9.46,0,0,1,2.45-1q0-.15.33-.15V315c-.07-.21-.26-.31-.57-.31h-.76a.09.09,0,0,1-.1-.1v-.5c0-.07,0-.11.1-.11h.33c1,.06,1.45.34,1.45.85.73.08,1.1.36,1.1.84h.16a.21.21,0,0,0,.24-.24v-2.64a5.32,5.32,0,0,0-2.18-1.14c-.19,0-.36.24-.5.7.62.39.94.74.94,1.06,0,.07-.06.1-.18.1l-1.15-.35a1.05,1.05,0,0,1-.48.6h-.41c-.34,0-.52-.15-.52-.44.3,0,.7-.72,1.21-2.14a10.67,10.67,0,0,0-2-.78v-.11a18.61,18.61,0,0,1,.68-3.07l-.31-.21c-.63,0-.94.16-.94.33,0,.4.06,1.16.17,2.27H276a27.94,27.94,0,0,1,.19,3.87v1l.08.49a7,7,0,0,0-.17,1.29,4,4,0,0,1,.09.73,1,1,0,0,1-.46.54h-.15c-.05,0-.17-.13-.35-.38,0-.82,0-2,.08-3.42l.1-.18-.1-.19a58,58,0,0,0-.49-7.87l.1-.05h.13a1.07,1.07,0,0,1,.54.84A47,47,0,0,0,281.68,304.77Zm-4,4H278a6.71,6.71,0,0,1,2.09-1.43h.15a1,1,0,0,1,.44.93l-.87,2.61H280a4.47,4.47,0,0,0,1.78.68.79.79,0,0,1,.08-.31c0-.11,0-.16-.08-.16l.16-2.39c0-.1,0-.15-.07-.15l.07-.35v-1.69c0-.32-.11-.52-.32-.58-1.93.51-2.92.76-3,.76A3.5,3.5,0,0,0,277.72,308.72Zm0,1v.36l1,.15h.22a5.74,5.74,0,0,0,.75-1.58v-.2C279.29,308.46,278.64,308.88,277.73,309.73Z" transform="translate(-143 -90)"/><path class="cls-2" d="M637.84,304.19a.48.48,0,0,1,.27.5v.15a4.75,4.75,0,0,0-.59,1.88c.06,0,.08,0,.08.12a7.31,7.31,0,0,1,2.24-.45l.13.18v.18l-1.27.76v2.07a.7.7,0,0,1,.33.1l1.67-.5a.77.77,0,0,1,.2.49v.17c0,.22-.71.54-2.11.94v1l.09.69c1.55-.24,2.71-.38,3.49-.43l.13.19v.14c0,.25-.62.5-1.84.77a12.65,12.65,0,0,1-1.78.51l-.09.57v.09c0,.23,0,.34.08.34,0,1.06-.16,1.6-.34,1.6h-.08a.62.62,0,0,1-.58-.28v-.31a4.14,4.14,0,0,0-.09-.84,2.73,2.73,0,0,0,.09-.76V314l-.13-.24a4.86,4.86,0,0,0-.9.17c-.89-.13-1.34-.3-1.34-.5v-.33c0-.1.08-.15.25-.17l.59.08q1.53-.16,1.53-.66a3.43,3.43,0,0,0,.07-.77v-.26a.22.22,0,0,0-.25-.25h-.09a17.47,17.47,0,0,1-2.1.25l-.83-.09a29.52,29.52,0,0,0-1.29,4.14v.15c1,.3,2.78.95,5.48,2h.2l.6-.33h.05c.06,0,.09,0,.09.08,0,.61-.34.92-.84.92h-.42a36.52,36.52,0,0,1-4.11-1.43,12,12,0,0,0-2.15-.42q0,.17-.27.33h-.14a.07.07,0,0,1-.08-.08v-.16a3.17,3.17,0,0,1,.58-1.48,30.31,30.31,0,0,0,1.36-3.92.24.24,0,0,0-.26-.27h-.84a.61.61,0,0,1-.59-.35v-.15c0-.05.09-.13.28-.24h1.74a1.37,1.37,0,0,1,.73.33h.15a3.87,3.87,0,0,0,1.18-2.2c-2.55,0-3.83-.43-3.83-1.29a.45.45,0,0,1,.17,0,17.16,17.16,0,0,1,2,.71c0-.19.63-.32,1.9-.38a5,5,0,0,0,.54-1.66C637.21,304.59,637.51,304.19,637.84,304.19ZM636.39,310h.29c.79,0,1.19-.19,1.19-.43l-.09-.76a.72.72,0,0,1,.09-.24,2.83,2.83,0,0,1-.09-.68h-.35C637.19,307.9,636.84,308.6,636.39,310Z" transform="translate(-143 -90)"/><path class="cls-2" d="M654.4,303.42c.67.08,1,.33,1,.76s-.54,1.09-1.61,2.2a3.56,3.56,0,0,1,.68.93,8.73,8.73,0,0,1,2-.51h.5c.51,0,.76.59.76,1.77.1,2.11.35,4.73.76,7.84v.18c0,.12-.14.2-.42.25a7.81,7.81,0,0,1-1.86-2.28l.17-.08,1,.76h.17a41.57,41.57,0,0,1-.67-7.34l.08-.42-.17-.09c-1.24.26-1.85.46-1.85.59v2.28h.08a12.35,12.35,0,0,1,1.68-.25v.16c0,.13-.57.46-1.68,1-.06.17-.11.26-.17.26l.09.42v.34a9.32,9.32,0,0,0,1.52-.43l.08.18a9.59,9.59,0,0,0-1.69,1.51l.09.42v2.37h-.09c-.19,0-.44-.87-.76-2.61a3.61,3.61,0,0,0-1.52.59v.84h.17c0-.17.05-.26.17-.26h.17a16,16,0,0,0-.17,2.54,8,8,0,0,0,4,1.09c0,.06.08.08.24.08v.26q-1.12.09-1.68.09H655c-1.29,0-3.21-1-5.74-3l-.42-.08c-.26,1.18-.51,1.77-.76,1.77h-.26c-.14,0-.22-.11-.25-.34q0-.69,2.7-7.6v-.08h-.08a8.47,8.47,0,0,1-2.37.85c-.25-.11-.39-.23-.42-.34,0-.29,1.1-.77,3.29-1.44.34,0,.51.12.51.26v.59l-1.94,5.15V315c0,.18.93.8,2.78,1.86v-.08c-.07-.87-.13-1.38-.16-1.52,0-.48.08-.85.08-1.1q0-6.75.42-6.75h.16l.35.25a2.29,2.29,0,0,1,.59-.09v-.07c-.68-.73-1-1.24-1-1.52v-.17c0-.14.11-.23.33-.26.39.08.59.19.59.34q1.35-1,1.35-1.77c-.46,0-1.31.22-2.53.5H652c-.09,0-.2-.11-.34-.33S652.54,303.69,654.4,303.42Zm-5.83,2.37h.26c1.36.54,2.09.93,2.19,1.18v.16c0,.09-.11.18-.34.26-1.52-.52-2.28-.89-2.28-1.1V306C648.42,305.84,648.48,305.79,648.57,305.79Zm4,3v1.94c0,.11.08.17.17.17,1-.13,1.52-.44,1.52-.92s0-1.19.09-1.95C653.21,308.06,652.62,308.32,652.62,308.82Zm0,2.71v1.93h.09c1.07-.49,1.6-.91,1.6-1.26v-.08c0-.51-.12-.77-.26-.77h-1.26C652.68,311.37,652.62,311.43,652.62,311.53Z" transform="translate(-143 -90)"/><path class="cls-2" d="M671.68,304.77a2,2,0,0,1,1,1.77v.26c-.11,3-.16,4.64-.16,5V314a13.36,13.36,0,0,0,.08,1.52c-.1,1-.21,1.45-.36,1.45H672c-.71-.68-1.2-1-1.48-1a18.62,18.62,0,0,1-2.94.93h-.25c-.06,0-.16-.09-.27-.29v-.31a9.46,9.46,0,0,1,2.45-1q0-.15.33-.15V315c-.07-.21-.26-.31-.57-.31h-.76a.09.09,0,0,1-.1-.1v-.5c0-.07,0-.11.1-.11h.33c1,.06,1.45.34,1.45.85.73.08,1.1.36,1.1.84h.16a.21.21,0,0,0,.24-.24v-2.64a5.32,5.32,0,0,0-2.18-1.14c-.19,0-.36.24-.5.7.62.39.94.74.94,1.06,0,.07-.06.1-.18.1l-1.15-.35a1.05,1.05,0,0,1-.48.6h-.41c-.34,0-.52-.15-.52-.44.3,0,.7-.72,1.21-2.14a10.67,10.67,0,0,0-2-.78v-.11a18.61,18.61,0,0,1,.68-3.07l-.31-.21c-.63,0-.94.16-.94.33,0,.4.06,1.16.17,2.27H666a27.94,27.94,0,0,1,.19,3.87v1l.08.49a7,7,0,0,0-.17,1.29,4,4,0,0,1,.09.73,1,1,0,0,1-.46.54h-.15c-.05,0-.17-.13-.35-.38,0-.82,0-2,.08-3.42l.1-.18-.1-.19a58,58,0,0,0-.49-7.87l.1-.05h.13a1.07,1.07,0,0,1,.54.84A47,47,0,0,0,671.68,304.77Zm-4,4H668a6.71,6.71,0,0,1,2.09-1.43h.15a1,1,0,0,1,.44.93l-.87,2.61H670a4.47,4.47,0,0,0,1.78.68.79.79,0,0,1,.08-.31c0-.11,0-.16-.08-.16l.16-2.39c0-.1,0-.15-.07-.15l.07-.35v-1.69c0-.32-.11-.52-.32-.58-1.93.51-2.92.76-3,.76A3.5,3.5,0,0,0,667.72,308.72Zm0,1v.36l1,.15h.22a5.74,5.74,0,0,0,.75-1.58v-.2C669.29,308.46,668.64,308.88,667.73,309.73Z" transform="translate(-143 -90)"/><path class="cls-2" d="M682.18,305.05h.23c.05,0,.14.13.28.38v.15c0,.32-.5.9-1.5,1.73a1.47,1.47,0,0,0-.44.81c.1.59.21.89.31.89a22.43,22.43,0,0,0,2.36-.66,1,1,0,0,1,.7.94,21.43,21.43,0,0,1-.17,2.18,6.85,6.85,0,0,1,3.38,1.57l.08.39c0,.07-.15.14-.44.19A11.88,11.88,0,0,1,684,312h-.25v.41a12.24,12.24,0,0,0,.17,1.66,10.75,10.75,0,0,0-1.51,2.43,5.9,5.9,0,0,1-.88.74h-.25c-.35,0-.53-.77-.53-2.3q-.24-6.39-1.36-6.39l-.16-.54C679.26,307.81,680.23,306.82,682.18,305.05Zm-.72,4.85s-.07-.08-.21-.08-.06.17-.18.17l.43,2a.75.75,0,0,0-.08.29l.29.21h.95c.17,0,.42-1,.75-2.89l-.24-.11A8.23,8.23,0,0,1,681.46,309.9Zm.21,3.78v1.7l.11.22c.26,0,.71-.44,1.38-1.32a3,3,0,0,1-.18-.92h-.15C682.06,313.36,681.67,313.47,681.67,313.68Zm3.83-8a2.09,2.09,0,0,1,.31.36v.16a11.78,11.78,0,0,0-.42,3v.3l.47.09a11.41,11.41,0,0,0,3.22-1.42c.57.3.86.68.86,1.11a26.81,26.81,0,0,1-1,4.88v1.37a1.67,1.67,0,0,1-.55,1.29h-.06a5.36,5.36,0,0,1-2.65-2.09l-.21-.28.09,0a11.74,11.74,0,0,1,2.12,1,16.76,16.76,0,0,0,.71-3.19,10.87,10.87,0,0,0,.67-2.47v-.32a10.19,10.19,0,0,0-2.27,1l-.57.08h-.51q-.88,0-1.2-1.29C684.5,306.85,684.83,305.64,685.5,305.64Z" transform="translate(-143 -90)"/><path class="cls-2" d="M699.12,316.23c-.79-.56-1.19-1.61-1.19-3.16v-.43a18.44,18.44,0,0,1,1.19-5.27c.25-.42.44-.63.56-.63s.34.23.5.63v.14a9.56,9.56,0,0,0-1.13,3.45h.07l.36-.07c1.5.12,2.25.63,2.25,1.54v.21a4.94,4.94,0,0,1-1.49,3.17A2,2,0,0,1,699.12,316.23Zm.15-1.06c.37,0,.88-.58,1.53-1.75a2.53,2.53,0,0,0,.15-.64v-.07c0-.42-.3-.7-.91-.84v-.07a.46.46,0,0,1-.21.07l-.15-.07a1.18,1.18,0,0,0-.91,1.12v.92C699,314.73,699.12,315.17,699.27,315.17Z" transform="translate(-143 -90)"/><path class="cls-2" d="M713.91,304.14h.25c.21.41,1,.81,2.2,1.18,2.14.68,3.21,1.19,3.21,1.52V307l-.18.09h-.16a13.68,13.68,0,0,0-4-1.27c.22,3.82.34,6.13.34,6.92q-.37,5.4-.76,5.4a6,6,0,0,1-.17-1.77v-4.9a24.31,24.31,0,0,0-.42-5.81h-.09q-.52.69-2.78,4.55a2.66,2.66,0,0,0-.67.42l-.18-.08q0-.63,2.79-5.48A.91.91,0,0,1,713.91,304.14Z" transform="translate(-143 -90)"/><path class="cls-2" d="M730.17,307.31h.09q.66.33.66.42v.17a18.81,18.81,0,0,1-1.6,3.37,17.64,17.64,0,0,0,1.36,2.2v.08c0,.12-.06.17-.18.17h-.17c-.49-.34-1-.74-1.52-1.18a7.83,7.83,0,0,1-1.68,2.11H727c-.14,0-.23-.11-.25-.34a18.4,18.4,0,0,0,1.18-3,9.28,9.28,0,0,1-1.52-1.69l-.42.09h-.09a.83.83,0,0,1-.42-.51c.14-.39.7-.59,1.69-.59A14.74,14.74,0,0,1,730.17,307.31Zm-2.37,2.2a2,2,0,0,0,.68.84c.14,0,.39-.51.76-1.52A2.78,2.78,0,0,0,727.8,309.51Zm7.34-2a1.65,1.65,0,0,1,.77.51v.07a22.37,22.37,0,0,1-1.69,3.47.63.63,0,0,0-.09.33l2.2,2.71v.08a.56.56,0,0,1-.59.34c-.42,0-1.1-.68-2-2h-.25a8.53,8.53,0,0,1-1.27,2h-.33c-.09,0-.17-.08-.26-.25a18.29,18.29,0,0,0,1.1-3.12l-1.78-2.2v-.51c0-.11.08-.17.18-.17h.08a4,4,0,0,1,.76.09A26.57,26.57,0,0,1,735.14,307.48Zm-2.53,2.1v.26a4.18,4.18,0,0,0,.68.84h.17l.84-1.35V309h-.08A3.73,3.73,0,0,1,732.61,309.58Z" transform="translate(-143 -90)"/><path class="cls-2" d="M747.4,304.19a.48.48,0,0,1,.28.5v.15a4.59,4.59,0,0,0-.59,1.88s.08,0,.08.12a7.25,7.25,0,0,1,2.24-.45l.12.18v.18l-1.27.76v2.07a.77.77,0,0,1,.34.1l1.66-.5a.77.77,0,0,1,.2.49v.17c0,.22-.7.54-2.11.94v1l.1.69c1.54-.24,2.7-.38,3.49-.43l.12.19v.14c0,.25-.61.5-1.84.77a12.11,12.11,0,0,1-1.78.51l-.09.57v.09c0,.23,0,.34.08.34,0,1.06-.15,1.6-.33,1.6H748a.63.63,0,0,1-.59-.28v-.31a4.14,4.14,0,0,0-.09-.84,2.73,2.73,0,0,0,.09-.76V314l-.12-.24a4.85,4.85,0,0,0-.91.17c-.89-.13-1.33-.3-1.33-.5v-.33c0-.1.08-.15.24-.17l.59.08q1.53-.16,1.53-.66a3.37,3.37,0,0,0,.08-.77v-.26c0-.17-.09-.25-.26-.25h-.08a17.93,17.93,0,0,1-2.1.25l-.83-.09a29.52,29.52,0,0,0-1.29,4.14v.15c.95.3,2.78.95,5.47,2h.2l.6-.33h.06c.05,0,.08,0,.08.08-.05.61-.33.92-.84.92h-.41a35.88,35.88,0,0,1-4.12-1.43,11.91,11.91,0,0,0-2.14-.42q0,.17-.27.33h-.14c-.06,0-.08,0-.08-.08v-.16a3,3,0,0,1,.58-1.48,29.63,29.63,0,0,0,1.35-3.92c0-.18-.08-.27-.25-.27h-.85a.62.62,0,0,1-.59-.35v-.15c0-.05.1-.13.28-.24h1.74a1.37,1.37,0,0,1,.73.33h.15a3.87,3.87,0,0,0,1.18-2.2c-2.55,0-3.82-.43-3.82-1.29a.41.41,0,0,1,.16,0,16.48,16.48,0,0,1,2,.71c0-.19.64-.32,1.9-.38a5.2,5.2,0,0,0,.55-1.66C746.77,304.59,747.08,304.19,747.4,304.19ZM746,310h.29c.79,0,1.19-.19,1.19-.43l-.09-.76a.72.72,0,0,1,.09-.24,2.83,2.83,0,0,1-.09-.68H747C746.75,307.9,746.4,308.6,746,310Z" transform="translate(-143 -90)"/><path class="cls-2" d="M764,303.42c.68.08,1,.33,1,.76s-.53,1.09-1.61,2.2c.07,0,.29.31.68.93a8.9,8.9,0,0,1,2-.51h.5c.51,0,.77.59.77,1.77.1,2.11.35,4.73.75,7.84v.18c0,.12-.14.2-.42.25a7.85,7.85,0,0,1-1.85-2.28l.16-.08,1,.76h.17a42.54,42.54,0,0,1-.67-7.34l.08-.42-.16-.09c-1.24.26-1.86.46-1.86.59v2.28h.08a12.62,12.62,0,0,1,1.69-.25v.16c0,.13-.57.46-1.69,1,0,.17-.11.26-.17.26l.09.42v.34a9.06,9.06,0,0,0,1.52-.43l.08.18a10.09,10.09,0,0,0-1.69,1.51l.09.42v2.37h-.09c-.18,0-.44-.87-.75-2.61a3.54,3.54,0,0,0-1.52.59v.84h.16c0-.17.06-.26.17-.26h.18a16.62,16.62,0,0,0-.18,2.54,8.06,8.06,0,0,0,4,1.09c0,.06.09.08.25.08v.26c-.76.06-1.32.09-1.69.09h-.5q-1.93,0-5.74-3l-.42-.08c-.25,1.18-.5,1.77-.76,1.77h-.25c-.14,0-.23-.11-.26-.34q0-.69,2.7-7.6v-.08h-.08a8.35,8.35,0,0,1-2.36.85c-.26-.11-.4-.23-.42-.34,0-.29,1.09-.77,3.28-1.44.34,0,.51.12.51.26v.59l-1.94,5.15V315q0,.27,2.79,1.86v-.08c-.08-.87-.13-1.38-.17-1.52.05-.48.08-.85.08-1.1q0-6.75.42-6.75h.17l.34.25a2.29,2.29,0,0,1,.59-.09v-.07c-.67-.73-1-1.24-1-1.52v-.17c0-.14.11-.23.33-.26.4.08.59.19.59.34.9-.66,1.36-1.25,1.36-1.77-.47,0-1.31.22-2.54.5h-.25q-.13,0-.33-.33C761.18,304,762.1,303.69,764,303.42Zm-5.83,2.37h.26c1.36.54,2.1.93,2.2,1.18v.16c0,.09-.12.18-.35.26-1.51-.52-2.27-.89-2.27-1.1V306C758,305.84,758,305.79,758.13,305.79Zm4.06,3v1.94c0,.11.07.17.16.17,1-.13,1.52-.44,1.52-.92s0-1.19.09-1.95C762.78,308.06,762.19,308.32,762.19,308.82Zm0,2.71v1.93h.08c1.07-.49,1.6-.91,1.6-1.26v-.08c0-.51-.12-.77-.25-.77h-1.27A.17.17,0,0,0,762.19,311.53Z" transform="translate(-143 -90)"/><path class="cls-2" d="M777.44,304h.13a13.41,13.41,0,0,1,2.75,3.34,42.6,42.6,0,0,1,3.36,3.68v.17c0,.07,0,.11-.17.11a16.22,16.22,0,0,1-5.21-5.41h-.18v.32c0,.87-.9,2.87-2.71,6v.1c0,.15.11.23.24.23h.42a35.41,35.41,0,0,0,5.83-1.61h.16a1.18,1.18,0,0,1,.87.56,17.65,17.65,0,0,1-.76,3.16,11.72,11.72,0,0,1-1.24,3.67h-.63a6.3,6.3,0,0,1-2.68-2.19h-.15c-.71.9-1.21,1.35-1.48,1.35-.07,0-.11,0-.11-.09a18.78,18.78,0,0,0,1.88-4.13h-.18a9.3,9.3,0,0,1-1.34.17,13.29,13.29,0,0,0-1.56-.26c-.55.79-1,1.18-1.31,1.18h-.16c-.14,0-.2-.21-.2-.56.47-.17,1.2-1.3,2.18-3.39a8.54,8.54,0,0,0,1.61-4.26l-.08-.47.3-.22h.48a7.72,7.72,0,0,1-.19-1.37Zm.34,11.56v.19c0,.42.75.87,2.25,1.32h.21a43.31,43.31,0,0,0,1.72-5l-.23-.12q-2.94.61-2.94,1.77A20.49,20.49,0,0,0,777.78,315.56Z" transform="translate(-143 -90)"/><path class="cls-2" d="M797,310.31a.78.78,0,0,1,.5.42q0,.43-2.53,3.72v.07a23.88,23.88,0,0,0,3.3,2.37l.25.33v.09c0,.08-.09.17-.25.26a13.46,13.46,0,0,1-4-2.2h-.09q-2.14,2.56-3.12,2.7c-.22,0-.39-.23-.51-.67a7.7,7.7,0,0,0,2.36-2.2c.22-.34.36-.51.43-.51a23.05,23.05,0,0,0-3.38-2.78,1,1,0,0,1-.17-.51c0-.08.09-.16.26-.25h.59Q791.19,311.15,797,310.31Zm-3.71-6.08h.34q.12,0,.42.42v.26a6,6,0,0,1-.17,1.43H794a15.19,15.19,0,0,0,1.86-.42l.25.33v.26c0,.26-.76.63-2.27,1.1a19.82,19.82,0,0,0-.85,2.7l-.16.08c-.23-.07-.35-.33-.35-.76a6,6,0,0,1,.17-1.77c-1.35-.12-2-.43-2-.93l.25-.17H792c.68,0,1-.19,1-.59a6.24,6.24,0,0,0,.08-1.09v-.59C793.07,304.41,793.16,304.32,793.33,304.23Zm-1.27,7.85v.08c1,1.07,1.66,1.61,2,1.61a19.63,19.63,0,0,0,1.77-2.2v-.17C793.46,311.86,792.19,312.08,792.06,312.08Z" transform="translate(-143 -90)"/></svg>