<svg id="图层_1" data-name="图层 1" xmlns="http://www.w3.org/2000/svg" viewBox="0 0 245.29 269.19"><defs><style>.cls-1{fill:none;stroke:#3ea69f;stroke-miterlimit:10;}.cls-2{fill:#3ea69f;}</style></defs><circle class="cls-1" cx="27.79" cy="43.15" r="18"/><path class="cls-2" d="M346.08,101.56c0-4.49,1.82-6.9,4.81-6.9s4.8,2.41,4.8,6.9-1.82,7-4.8,7S346.08,106,346.08,101.56Zm8,0c0-3.84-1.33-5.5-3.19-5.5s-3.2,1.66-3.2,5.5,1.33,5.59,3.2,5.59S354.08,105.41,354.08,101.56Zm-4.5-.14a1.31,1.31,0,1,1,1.31,1.4A1.31,1.31,0,0,1,349.58,101.42Z" transform="translate(-323.1 -59.15)"/><circle class="cls-1" cx="27.79" cy="120.15" r="18"/><path class="cls-2" d="M346.62,183.85h3.87V174h-3v-1.14a9.72,9.72,0,0,0,3.45-1h1.3v11.94h3.48v1.45h-9.09Z" transform="translate(-323.1 -59.15)"/><circle class="cls-1" cx="27.79" cy="185.15" r="18"/><path class="cls-2" d="M346.12,249.27c4.53-4,7-6.36,7-8.58,0-1.54-.92-2.61-2.9-2.61a4.64,4.64,0,0,0-3.21,1.6l-1-1a6,6,0,0,1,4.43-2c2.69,0,4.37,1.57,4.37,3.94,0,2.52-2.52,5-6.15,8.32.84-.07,1.7-.11,2.5-.11h4.39v1.49h-9.43Z" transform="translate(-323.1 -59.15)"/><path class="cls-2" d="M334.57,314.21c.28.14.42.25.43.33v.51a7.31,7.31,0,0,1-1.78,1.27c-.22.34-.41.51-.59.51V317c.1.56.24.85.42.85,2.44-.91,3.73-1.36,3.89-1.36.7,0,1.17.45,1.43,1.36v.67a51.85,51.85,0,0,1-.42,5.4l.09.17a4,4,0,0,0-.09.67c.06.5.09.78.09.85-.14.45-.25.67-.35.67h-.16c-.27,0-.8-.45-1.6-1.35a16.27,16.27,0,0,0-2.71,1.1q0,.93-.42.93c-.5,0-.76-.37-.76-1.1l-.16-2a9,9,0,0,0,.08-1.34c0-.06,0-.09-.08-.09L332,322v-2.45c0-1-.09-1.52-.25-1.52a2.54,2.54,0,0,1-.68.51c-.23-.09-.34-.17-.34-.25v-.17c0-.71,1.24-2,3.72-3.88Zm-1.52,5.57h.09l3-.77c.25.11.39.23.42.35v.33a9.48,9.48,0,0,1-3.38,1.43l-.09.42v.26l.09.17c1-.28,1.84-.51,2.61-.68.23.09.35.17.35.25v.17c0,.41-.88.86-2.62,1.36h-.34l-.09.42v1c0,.11.08.17.17.17a9.57,9.57,0,0,1,1.61-.43h.42a8,8,0,0,1,1.52.43h.08l.59-6.25c-.06-.56-.18-.84-.33-.84a25.85,25.85,0,0,1-4.06,1.52Z" transform="translate(-323.1 -59.15)"/><path class="cls-2" d="M349.38,312.82a1.2,1.2,0,0,1,.42.75L348,315.26v.26a17.31,17.31,0,0,0,3.8-1.1c.45.15.67,1.19.67,3.13v1.6l.08.42h.17l.77-.76h.16l.68.76h.08l.93-.76h.09v.08c-.51,1.41-1,2.11-1.52,2.11-1,.67-1.44,1.17-1.44,1.52v4.05q0,1.77-.42,1.77h-.34a7.75,7.75,0,0,1-2-1.86s.08,0,.08-.07a6.3,6.3,0,0,0,1.61.75l.07-.17v-.93q0-.88.09-2.7h-.09q-.11,0-3.54,3.47a3.06,3.06,0,0,1-.75.24h-.09c-.11,0-.17-.08-.17-.24,1.75-2.22,2.62-3.34,2.62-3.38a.08.08,0,0,1-.09-.09,17.74,17.74,0,0,1-3.71.94h-.17c-.09,0-.2-.12-.34-.35v-.08c0-.18.93-.58,2.79-1.18a.73.73,0,0,1,.08-.26c-.05-.78-.08-1.28-.08-1.51a38.43,38.43,0,0,0,.42-4l.26-.17c.44.1.67.43.67,1h2.28v-.67c0-.9-.08-1.35-.25-1.35a14.35,14.35,0,0,1-3.3.59h-.84c-.43,0-.68-.11-.76-.33v-.43C348.15,313.75,349.11,312.82,349.38,312.82Zm-.93,9.61v.18c2.14-.7,3.21-1.21,3.21-1.52v-.68c0-.11-.08-.17-.25-.17-1.69.43-2.54.77-2.54,1Zm.68-2.86v.25h.08c1.63-.17,2.45-.4,2.45-.67v-.51c0-.12-.06-.17-.18-.17-1.51.14-2.27.34-2.27.59Z" transform="translate(-323.1 -59.15)"/><path class="cls-2" d="M363.68,315.52l.08.16v.26c-.21.33-.41.5-.59.5-.05,1.08-.08,1.79-.08,2.11.06,0,.08,0,.08.09a4.35,4.35,0,0,1,.76-.17l.09.17v.07c0,.11-.31.42-.93.94v2a8.28,8.28,0,0,0,1.86-.92l.08.16c-1.72,2-2.84,3-3.38,3h-.42a.72.72,0,0,1-.42-.59,7.42,7.42,0,0,1,1.61-.85l-.09-.51a14.33,14.33,0,0,1,.17-1.85.15.15,0,0,1-.17-.17,4.65,4.65,0,0,1-.93.17c-.34,0-.5-.2-.5-.59a3,3,0,0,1,1.52-.42v-1.69l.08-.42-.17-.09h-.93a.7.7,0,0,1-.67-.42v-.17C360.73,316.07,361.72,315.81,363.68,315.52Zm.93-2.2a5.67,5.67,0,0,0,1.85.59h.18a8.92,8.92,0,0,0,1.6-.5.84.84,0,0,1,.42.5,19.08,19.08,0,0,1-1.27,2.45c0,.64.51,1.12,1.52,1.43,1.66,1,2.56,1.87,2.7,2.45q-.17.38-.33.42h-.18a12.69,12.69,0,0,0-3.29-2l-.08.16v.59c0,.19-.06,1.4-.17,3.63v1.43a8.14,8.14,0,0,1-.08,1.1,4.24,4.24,0,0,1,.08.93c0,.9-.08,1.35-.25,1.35-.51-.07-.76-.32-.76-.76V326a32.49,32.49,0,0,1,.17-3.88.07.07,0,0,0-.08-.08l.08-1v-2.45h-.08l-.68.93-.17.08h-.17c-.39,0-.59-.17-.59-.5a15.79,15.79,0,0,1,1.69-3.8V315c-1.63-.21-2.45-.66-2.45-1.36v-.08C364.27,313.43,364.38,313.35,364.61,313.32Z" transform="translate(-323.1 -59.15)"/><path class="cls-2" d="M529.41,243.23c.33,0,.5.11.5.33a15.73,15.73,0,0,0-.24,1.94,6.86,6.86,0,0,1,2.35-.58h.26q.11,0,.42.42v.42a14.27,14.27,0,0,1-1.6,3.71c0,.19-.23.55-.68,1.1-.73,1.51-1.32,2.27-1.77,2.27a.48.48,0,0,1-.08-.24c.89-1.89,1.34-2.87,1.34-3-1.18-.79-1.76-1.27-1.76-1.44V248a23,23,0,0,0,.75-3.55C529.11,243.63,529.28,243.23,529.41,243.23Zm-.25,4.64,1.09.75h.08a10.53,10.53,0,0,0,1.44-2.86v-.09c-1.63.47-2.45.84-2.45,1.1A5.89,5.89,0,0,0,529.16,247.87Zm5.06-.17.25.34v.25a14.13,14.13,0,0,1-1.52,3.89H533a12,12,0,0,1,3.29-1.61c.39.14.59.33.59.59a48.19,48.19,0,0,1-4.06,8c-.36.51-.7.77-1,.77h-.25c-.19,0-.33-.31-.42-.94v-.84h.25a5.48,5.48,0,0,1,.26.68,9.12,9.12,0,0,0,1.6-2.79,13.67,13.67,0,0,1-1.77-1h-.25c-.4.5-.73.76-1,.76a.6.6,0,0,1-.16-.34,5.43,5.43,0,0,1,.67-1.52l-.08-.16v-.26a8,8,0,0,0,1.76-2.86,21.38,21.38,0,0,1,1.52-2.88A.73.73,0,0,1,534.22,247.7Zm-2.37,6.5a13.08,13.08,0,0,1,1.86,1h.09a11,11,0,0,0,1.68-3.38c-1,.64-2.18,1.28-3.46,1.95A.93.93,0,0,0,531.85,254.2Z" transform="translate(-323.1 -59.15)"/><path class="cls-2" d="M549.12,246.35h.33s.22.17.51.51c1.12-.13,1.74-.22,1.85-.26.36.11.55.26.59.43v.33c0,.17-.9.39-2.7.68l-.08.16V249l1.94-.18q.84.33.84,1v.67c-.66,2.42-1.14,3.63-1.43,3.63h-.17l-.42-.42a1.45,1.45,0,0,0-.84,1.18V255l.08.17a1.39,1.39,0,0,1,.67-.17h.51c.11,0,.17.09.17.26a3.14,3.14,0,0,1-1.27,1.1.73.73,0,0,0-.08.33v.09c.76-.06,1.24-.09,1.43-.09l1.44.17.59-.08.08.17v.25c-.1.5-.21.76-.34.76a5.93,5.93,0,0,0-1.59-.34,9.85,9.85,0,0,0-2.71.76,9.76,9.76,0,0,1-1.69.17.85.85,0,0,1-.5-.43V258c0-.31.73-.57,2.19-.76.12-.14.17-.22.17-.25v-.25l-.76-.42s-.08,0-.08-.09v-.17a.79.79,0,0,1,.76-.42v-.76c0-.12-.37-.26-1.1-.42,0-.06,0-.09-.08-.09s-.18.08-.18.17v.93c0,.11,0,.17-.16.17-.51,0-.76-.59-.76-1.78-.11-1-.23-2.53-.34-4.72.08-.22.17-.34.25-.34h.17c.17.05.37.37.6.93,1.17-.14,1.76-.39,1.76-.75v-.09c0-.39-.14-.61-.42-.68a32.2,32.2,0,0,1-3.8.26h-.25a.87.87,0,0,1-.76-.51v-.25c0-.26,1.61-.45,4.81-.6A2.45,2.45,0,0,0,549.12,246.35Zm.42-1.69h.16c.09,0,.2.11.34.34v.25c0,.19-.87.55-2.61,1.1q-1.21,0-1.44-.51v-.34a.15.15,0,0,1,.17-.16h.42A13.48,13.48,0,0,0,549.54,244.66ZM547,251.08v.33c1.17-.12,1.76-.29,1.76-.51v-.33h-.08Q547,250.78,547,251.08Zm.16.75a2.15,2.15,0,0,0-.16.85c0,.81.08,1.26.08,1.35h.08a9.13,9.13,0,0,1,1.44-.6.67.67,0,0,0,.08-.33v-.85l-.08-.16-.43.08h-.25A1.33,1.33,0,0,1,547.17,251.83Zm2.45,1.18h.16c.46,0,.8-.34,1-1a.15.15,0,0,0-.17-.17h-.25C549.87,251.83,549.62,252.23,549.62,253Zm.16-2.11c0,.19.45.33,1.36.42a3.8,3.8,0,0,0,.51-1.51v-.09c-1.25.2-1.87.45-1.87.76Z" transform="translate(-323.1 -59.15)"/><path class="cls-2" d="M567.06,245.2a2,2,0,0,1,1,1.77v.26c-.11,3-.17,4.64-.17,5v2.2c0,.49,0,1,.08,1.52-.09,1-.21,1.45-.35,1.45h-.31q-1.05-1-1.47-1a19,19,0,0,1-2.94.93h-.25c-.07,0-.16-.09-.28-.29v-.31a9.66,9.66,0,0,1,2.46-1q0-.15.33-.15v-.17c-.07-.21-.26-.32-.57-.32h-.77a.08.08,0,0,1-.09-.09v-.5c0-.07,0-.11.09-.11h.34c1,.06,1.45.34,1.45.85.73.08,1.1.36,1.1.84h.15a.21.21,0,0,0,.24-.24v-2.64a5.28,5.28,0,0,0-2.17-1.14c-.2,0-.37.23-.51.7.63.38.94.74.94,1.06,0,.07-.06.1-.17.1l-1.16-.35a1,1,0,0,1-.48.6h-.4c-.35,0-.52-.15-.52-.45q.44,0,1.2-2.13a10.13,10.13,0,0,0-2-.78v-.11a19.17,19.17,0,0,1,.69-3.07l-.32-.21q-.93.08-.93.33c0,.4.06,1.15.17,2.27,0,0,0,0-.1,0a30,30,0,0,1,.18,3.87v1l.08.49a7.4,7.4,0,0,0-.16,1.28,4,4,0,0,1,.08.74,1,1,0,0,1-.45.54H561s-.17-.13-.35-.38c0-.82,0-2,.08-3.42l.09-.18-.09-.19a57.79,57.79,0,0,0-.5-7.87l.11,0h.13a1.07,1.07,0,0,1,.54.84A46.62,46.62,0,0,0,567.06,245.2Zm-3.95,4h.28a6.72,6.72,0,0,1,2.08-1.43h.15a1,1,0,0,1,.45.93l-.87,2.61h.17a4.49,4.49,0,0,0,1.77.68.64.64,0,0,1,.09-.31c0-.11,0-.17-.08-.17l.16-2.38c0-.1,0-.15-.07-.15l.07-.35v-1.69c0-.32-.11-.52-.33-.58-1.92.51-2.91.76-3,.76A3.54,3.54,0,0,0,563.11,249.15Zm0,1v.36l1,.15h.22a5.73,5.73,0,0,0,.76-1.58v-.2C564.68,248.89,564,249.31,563.12,250.16Z" transform="translate(-323.1 -59.15)"/><line class="cls-1" x1="28.29" y1="137.65" x2="28.29" y2="157.62"/><path class="cls-2" d="M351.39,222.8a30.15,30.15,0,0,0-4.76-8.54l4.76,1.72,4.75-1.72A30.12,30.12,0,0,0,351.39,222.8Z" transform="translate(-323.1 -59.15)"/><circle class="cls-1" cx="226.79" cy="78.15" r="18"/><path class="cls-2" d="M545.62,141.85h3.87V132h-3v-1.14a9.72,9.72,0,0,0,3.45-1h1.3v11.94h3.48v1.45h-9.09Z" transform="translate(-323.1 -59.15)"/><circle class="cls-1" cx="226.79" cy="143.15" r="18"/><path class="cls-2" d="M545.12,207.27c4.53-4,7-6.36,7-8.58,0-1.54-.92-2.61-2.9-2.61a4.64,4.64,0,0,0-3.21,1.6l-1-1a6,6,0,0,1,4.43-2c2.69,0,4.37,1.57,4.37,3.94,0,2.52-2.52,5-6.15,8.32.84-.07,1.7-.11,2.5-.11h4.39v1.49h-9.43Z" transform="translate(-323.1 -59.15)"/><path class="cls-1" d="M337,113.73c-17.78,14-14.89,33.21-8.15,43.11" transform="translate(-323.1 -59.15)"/><path class="cls-2" d="M332.89,161.3a30.68,30.68,0,0,0-9.22-3.28l4.71-1.84,2.43-4.44A30.22,30.22,0,0,0,332.89,161.3Z" transform="translate(-323.1 -59.15)"/><path class="cls-1" d="M365.6,169.3c17.78-14,14.89-33.21,8.15-43.1" transform="translate(-323.1 -59.15)"/><path class="cls-2" d="M369.69,121.73a30.15,30.15,0,0,0,9.22,3.28l-4.71,1.85-2.43,4.43A30.28,30.28,0,0,0,369.69,121.73Z" transform="translate(-323.1 -59.15)"/><path class="cls-1" d="M362.55,88.6c24.51-35-36.3-38.33-25.7-9.53" transform="translate(-323.1 -59.15)"/><path class="cls-2" d="M339.5,84.5a30.37,30.37,0,0,0-8-5.68l5-.49,3.55-3.59A30.2,30.2,0,0,0,339.5,84.5Z" transform="translate(-323.1 -59.15)"/><path class="cls-1" d="M340.47,258.65c-24.51,35,36.29,38.33,25.7,9.53" transform="translate(-323.1 -59.15)"/><path class="cls-2" d="M363.52,262.75a30.32,30.32,0,0,0,8,5.68l-5,.48-3.56,3.6A29.92,29.92,0,0,0,363.52,262.75Z" transform="translate(-323.1 -59.15)"/><line class="cls-1" x1="226.4" y1="96.35" x2="226.4" y2="125.35"/><line class="cls-1" x1="231.38" y1="95.56" x2="231.38" y2="125.74"/><line class="cls-1" x1="221.19" y1="95.56" x2="221.19" y2="125.74"/></svg>