<svg xmlns="http://www.w3.org/2000/svg" viewBox="0 0 689.38 381.83"><defs><style>.a{fill:#3ea69f;}</style></defs><path class="a" d="M71.25,115.42h5.68v1H72.42v2.87h3.81v1H72.42v3.33h4.65v1H71.25Z" transform="translate(-71.25 -109.75)"/><path class="a" d="M79.17,122.85c0-1.53,1.43-2.27,4.94-2.55a1.61,1.61,0,0,0-1.8-1.71,4.73,4.73,0,0,0-2.38.81l-.47-.78a6,6,0,0,1,3-1,2.53,2.53,0,0,1,2.78,2.8v4.17h-1l-.1-.92h0a4.55,4.55,0,0,1-2.67,1.09C80.22,124.78,79.17,124.07,79.17,122.85Zm4.94,0v-1.76c-2.91.22-3.79.8-3.79,1.69s.7,1.08,1.48,1.08A3.67,3.67,0,0,0,84.11,122.83Z" transform="translate(-71.25 -109.75)"/><path class="a" d="M88.48,117.81h1l.11,1.61h0a3.58,3.58,0,0,1,3-1.78,2.86,2.86,0,0,1,1.34.28l-.26,1a3.53,3.53,0,0,0-1.27-.22,3.2,3.2,0,0,0-2.8,2v4H88.48Z" transform="translate(-71.25 -109.75)"/><path class="a" d="M98.29,122.33v-6.75H95.88v-.94h3.58v7.77a1.23,1.23,0,0,0,1.34,1.4,3.11,3.11,0,0,0,1.28-.3l.29.87a4.22,4.22,0,0,1-1.82.4C99.09,124.78,98.29,123.94,98.29,122.33Z" transform="translate(-71.25 -109.75)"/><path class="a" d="M107.66,118.74h-3.15v-.93h4.31v6.8h-1.16Zm-.46-3.26a.93.93,0,1,1,.92.9A.87.87,0,0,1,107.2,115.48Z" transform="translate(-71.25 -109.75)"/><path class="a" d="M112.6,121.2a3.42,3.42,0,0,1,3.48-3.56,2.92,2.92,0,0,1,3.1,3.19,4.49,4.49,0,0,1-.05.7h-5.76v-.89h5.07l-.29.32c0-1.61-.8-2.41-2.05-2.41a2.4,2.4,0,0,0-2.35,2.65,2.47,2.47,0,0,0,2.66,2.66,3.71,3.71,0,0,0,2.07-.65l.42.76a4.64,4.64,0,0,1-2.63.81A3.45,3.45,0,0,1,112.6,121.2Z" transform="translate(-71.25 -109.75)"/><path class="a" d="M121,123.72l.54-.77a4.82,4.82,0,0,0,3,.92c1.15,0,1.71-.48,1.71-1.05s-.27-.88-2.12-1.26-2.66-1-2.66-2,1-1.93,2.83-1.93a5,5,0,0,1,2.75.87l-.56.74a4,4,0,0,0-2.28-.72c-1.15,0-1.57.47-1.57,1s.58.84,2,1.14c2.25.49,2.8,1,2.8,2.1s-1.08,2-3,2A6,6,0,0,1,121,123.72Z" transform="translate(-71.25 -109.75)"/><path class="a" d="M131.33,122v-3.23H129.4v-.86l2-.07.15-2.19h1v2.19h3.33v.93H132.5V122c0,1.22.4,1.85,1.72,1.85a4.49,4.49,0,0,0,1.62-.31l.26.86a6.08,6.08,0,0,1-2.13.4C132,124.78,131.33,123.65,131.33,122Z" transform="translate(-71.25 -109.75)"/><path class="a" d="M719,111.24l.09.2a23.49,23.49,0,0,0-.2,2.76.86.86,0,0,0,.3.1,3.76,3.76,0,0,1,1.28-.7h.39c0-.19.07-.29.2-.29h.1l.2.1a1.89,1.89,0,0,0-.3,1v.1a7.45,7.45,0,0,0,.89,2.36,5,5,0,0,0,1.37-.69l.11.2a6.53,6.53,0,0,1-.89,1.28l.4,1.37H723l.89-.58.09.19c-.09,0-.35.37-.79,1.09.29.85.52,1.27.7,1.27h.19c.78-1.83,1.5-2.74,2.17-2.74l.19.09a39.67,39.67,0,0,1-2.16,3.84c.53,1.52.89,2.31,1.09,2.36h.28c1.14-2.19,1.87-3.38,2.18-3.55h.09v.11a19.13,19.13,0,0,1-2.06,5.11l-.21.11h-.28c-.28,0-.8-1-1.58-3h-.3c-.77.72-1.29,1.08-1.57,1.08h-.2c-.09,0-.25-.17-.5-.49v-.2a2.39,2.39,0,0,0,2-1.37c-.36-1.18-.72-1.78-1.07-1.78,0,.31-.89.61-2.66.89h-.4l-.2-.1q-.66,5-1,5.22l-.19.09c-.4-.15-.6-.37-.6-.68l.69-4.82v-1.28c0-.07,0-.11.1-.11-.09-.39-.29-.58-.59-.58a24.29,24.29,0,0,1-1.68,4l-.49.1a.79.79,0,0,1-.09-.3,28.26,28.26,0,0,1,2.36-5.9,1.19,1.19,0,0,0,.59-1v-.29c0-.13-.1-.2-.29-.2-2.1,0-3.15-.16-3.15-.49s.16-.46.49-.6c1,.07,1.78.11,2.26.11s.89-.79.89-2.36C718.31,111.6,718.57,111.24,719,111.24Zm-.11,4.33v2a7.27,7.27,0,0,1-.1,1.08c.36,1.19.88,1.78,1.58,1.78h.39c.92-.29,1.39-.62,1.39-1l-.6-1.17a6.26,6.26,0,0,0-1.57.49h-.2c-.09,0-.19-.1-.29-.3v-.1c0-.15.59-.44,1.67-.88v-.2a9.25,9.25,0,0,0-1.28-2.37Q718.88,114.88,718.88,115.57Zm3.75-2.95q.9.16,3.25,3.54a.1.1,0,0,1-.1.11c-.68,0-1.8-1.09-3.35-3.25v-.2C722.45,112.68,722.52,112.62,722.63,112.62Z" transform="translate(-71.25 -109.75)"/><path class="a" d="M93.13,152.21h.19q.17,0,.39.39v.1a39.37,39.37,0,0,1-2.36,4.24l-.1.49v.09q.41-.39.6-.39c1.05,0,1.58.17,1.58.39v.2c0,.17-.27.3-.79.4h-.4c-.48,0-.74-.17-.78-.5l-.21.1a2.67,2.67,0,0,1,.1.69H92a1.58,1.58,0,0,1,1.28.78v.11a.17.17,0,0,1-.19.19l-1.78-.3q-.15,7.29-.59,7.29h-.19c-.27-.08-.4-.38-.4-.89v-3.83c0-.53,0-1.22.1-2.07v-.1h-.1a9.56,9.56,0,0,1-1.28,2.66H88.7c-.27-.14-.4-.3-.4-.49,0-1.24,1.15-3.86,3.44-7.88h-.09a12.82,12.82,0,0,1-4.43,1.28c-.3-.13-.46-.26-.49-.4v-.19a11.36,11.36,0,0,1,3.15-1.08A26.77,26.77,0,0,1,93.13,152.21Zm-3.85-2.76h.3A13.39,13.39,0,0,1,92,151.81v.3q0,.13-.3.3c-.69,0-1.61-.82-2.74-2.47v-.19C89,149.65,89.09,149.56,89.28,149.45Zm11.53,4.24h.09c.11,0,.24.19.4.58-.46,2.3-.93,5.32-1.38,9.07l-.39.28h-.4a6.51,6.51,0,0,1-1.57-2c0-.13.08-.19.19-.19a6.11,6.11,0,0,0,1.18.89c.15,0,.42-1.64.79-4.92a14.91,14.91,0,0,0,.49-2.67A12.27,12.27,0,0,0,97.36,156v.1a.94.94,0,0,0,.1.49,10.55,10.55,0,0,1-2,5.71l-.59.3a.69.69,0,0,1-.1-.3c1.24-3.05,1.87-5.12,1.87-6.2h-.1a5.6,5.6,0,0,1-.89.1h-.19c-.35,0-.54-.1-.59-.3v-.3q0-.15.39-.39l.39.1Z" transform="translate(-71.25 -109.75)"/><path class="a" d="M109.9,151.46c.3,0,.47.2.51.59v.15a19.75,19.75,0,0,1-1.24,4.4h0a2.72,2.72,0,0,1,.85-.24h.33v0a3.33,3.33,0,0,1-1.28,1,.77.77,0,0,0-.47.55,7.8,7.8,0,0,1-.47,1.19q.27,0,1.35,1.26l1.16-3.6a.48.48,0,0,1,.41-.29h.06c.16,0,.27.11.32.32V157a17.33,17.33,0,0,1-1.24,4.52,9.5,9.5,0,0,1,1.63,3.52.35.35,0,0,1-.33.23q-.47,0-1.44-1.95c-.26-.43-.4-.65-.41-.65-.63,1-1.14,1.51-1.54,1.51h0c-.3,0-.44-.17-.44-.35q.48,0,1.35-2.22a11.25,11.25,0,0,0-1.26-1.69.57.57,0,0,1-.33-.58,3.34,3.34,0,0,1,.15-.95c-.29.17-1,.66-2.25,1.45a.34.34,0,0,1-.17,0c-.28-.08-.41-.22-.41-.42v-.08c0-.4.84-1,2.53-1.87,0,0,.22-.14.65-.38q1.36-4,1.54-4.85c0-.44.14-.69.41-.76Zm5.14-.74h.06c.27,0,.43.27.47.79v.1a12.86,12.86,0,0,1-1.12,3.78h.06a19.4,19.4,0,0,0,2.42-1.57.6.6,0,0,1-.27-.47v-.06c.06-.34.22-.5.5-.5h.1a8.17,8.17,0,0,1,2.62,1.86c.22.17.33.31.33.41v0q0,.3-.3.3a12,12,0,0,1-2.59-1.27h0a19.7,19.7,0,0,1-3.22,2.45l-.21.06c-.46,0-.69-.17-.69-.5v-.3c0-.08.4-1.14,1.19-3.19a14,14,0,0,0,.41-1.77A.46.46,0,0,1,115,150.72Zm-.91,6.49c.25,0,.4.41.44,1.21.05.29.1.71.14,1.25a14.8,14.8,0,0,1,4.29-1.59c.29,0,.51.25.65.77q0,1.05-2.6,4.27h.08l.27,0c.4.06.59.19.59.39v.11c0,.35-.66.63-2,.83-.31,0-.5-.24-.56-.73v-.07a5.52,5.52,0,0,1,1.16-1.44l1.26-1.81a6.68,6.68,0,0,0,.53-1.08h0a37.47,37.47,0,0,0-3.53,1.53l.55,4c-.06.14-.14.21-.26.21H115c-.19,0-.48-.65-.86-1.95l-.38-2c-.12,0-.21-.15-.27-.44a.67.67,0,0,1,.18-.38q-.12-1.27-.12-1.68v-.5q0-.87.54-.87Z" transform="translate(-71.25 -109.75)"/><path class="a" d="M74.9,187.13c.16,0,.3.4.4,1.18l.49-.09c.13,0,.2.09.2.2v.09a6.52,6.52,0,0,0-1.88,3.74v.1h.1c.4,0,.69-.65.88-2l.3-.19c.13,0,.23.39.3,1.18h.1c.59,0,1.11-.56,1.57-1.67.87-1.31,1.46-2,1.77-2l.11.19-.11.69A56,56,0,0,1,84.85,191l.09.2v.1c-.13.26-.3.4-.49.4a59.2,59.2,0,0,0-5.7-2.18h-.11a14.29,14.29,0,0,1-2.07,2.86c-.1,0-.23-.13-.39-.4-.18,0-.41.24-.69.7v.78h.1l1.08-.69h.2v.2a5.36,5.36,0,0,0-1.57,2.26v4.63q0,.13-.3.3h-.19c-.27-.09-.4-.39-.4-.89v-.19c.13-2.12.19-3.27.19-3.45v-.29h-.09a6.84,6.84,0,0,1-2.07,1h-.39q-.15,0-.3-.3v-.1a15.74,15.74,0,0,1,2.57-1.67,1.23,1.23,0,0,0,.49-1H74.7l-1.67.89c-.3-.13-.46-.27-.49-.4v-.09a10.14,10.14,0,0,0,1.38-3.45c-.07,0-.1,0-.1-.1l-.89.29c-.26-.1-.39-.2-.39-.29v-.3a8.7,8.7,0,0,1,1.67-1.18C74.46,187.63,74.69,187.13,74.9,187.13Zm6.2,3.55v.2a19.76,19.76,0,0,1-2.65,1.67,2,2,0,0,0-.3,1.28,3.06,3.06,0,0,1,1.37-.49h.11c.09,0,.19.1.29.3v1.76l-.1.7c.92,0,1.39-.66,1.39-2,0-.43.09-.66.28-.7s.2.1.3.3V194c0,.7,0,1.74-.09,3.15l-.3.2h-.1c-.2-.06-.3-.26-.3-.59v-.68c0-.14-.06-.21-.19-.21a9.2,9.2,0,0,1-1,1.28c0,.11.1.87.3,2.27v.3c0,.09-.1.19-.3.29-.33-.13-.49-.33-.49-.59,0-.07,0-.1.1-.1-.16-1.12-.29-1.67-.4-1.67l-1.27.78.09.69v.69c0,.09-.1.19-.29.3-.46,0-.69-1.12-.69-3.35a15.07,15.07,0,0,1,.69-4h-.1c-.09,0-.19-.1-.29-.29v-.1c0-.19,1.11-.75,3.34-1.67Zm-3.44,6.1v.79h.1a4.91,4.91,0,0,0,1.37-1.08v-.2l-.1-.19C78.12,196.42,77.66,196.65,77.66,196.78Zm.1-1.18v.2a7.88,7.88,0,0,0,1.27-.3v-.19l.1-1-.19-.1A1.39,1.39,0,0,0,77.76,195.6ZM83,192.35c.1,0,.24.13.4.39v.3c-.13,1.59-.2,2.48-.2,2.66v.4a17.62,17.62,0,0,0,.69,4.22v.21c0,.08-.1.18-.3.28h-.19A12.1,12.1,0,0,1,81,198.65a.2.2,0,0,1,.21-.2c0,.13.55.43,1.67.89v-.1a6,6,0,0,1-.2-.89c-.07-2.62-.1-4.52-.1-5.7Z" transform="translate(-71.25 -109.75)"/><path class="a" d="M94.14,187.19l.29.39q-1,5.19-1,5.71c.07,0,.1,0,.1.1a8.94,8.94,0,0,0,2.85-1.19v-2.46c0-.34,0-.9-.1-1.67l.49-.3c.53,0,.79,1.28.79,3.85q1.68-.69,1.77-.69h.11c.13,0,.19.08.19.19v.1a5.67,5.67,0,0,1-2.07,1.57v.39a29.83,29.83,0,0,1-.19,3.85c.06,0,.1,0,.1.09,1.57-.52,2.36-.88,2.36-1.08a.64.64,0,0,1,.68-.49c.11,0,.24.13.4.39v2.86c0,1.32-.16,2.07-.49,2.26-.29,0-.49-.72-.59-2.16v-1.78h-.3c-1.58.66-2.47,1.22-2.66,1.68a.66.66,0,0,0-.39-.2A14,14,0,0,1,93,200.07h-.5c-.08,0-.25-.16-.49-.49v-.49a17.72,17.72,0,0,1,1.28-4.62v-.1c-.5,0-.79-.32-.89-1v-.21Q93.2,187.2,94.14,187.19Zm-.39,7.18a1.7,1.7,0,0,0,.19.59c0,.24-.26,1.52-.79,3.84v.1a36,36,0,0,0,3.45-1.48c-.06-1-.1-1.71-.1-2.16v-1.48a.18.18,0,0,0-.2-.2A9,9,0,0,1,93.75,194.37Zm7.28-7.48h.1c.06,0,.22.16.49.49-.33,4.72-.59,7.09-.79,7.09h-.1c-.33,0-.49-.95-.49-2.85v-.4C100.24,188.33,100.5,186.89,101,186.89Z" transform="translate(-71.25 -109.75)"/><path class="a" d="M113.23,189.41H115l2.35,5.77c.4,1,.78,2,1.13,3h.09c.35-1,.69-2,1.11-3l2.35-5.77h1.68l-4.24,10.2h-1.95Z" transform="translate(-71.25 -109.75)"/><path class="a" d="M127.74,199.21c0-2.75,1.33-4.32,3.34-4.32s3.34,1.57,3.34,4.32-1.32,4.37-3.34,4.37S127.74,202,127.74,199.21Zm5.36,0c0-2.18-.82-3.23-2-3.23s-2,1.05-2,3.23.81,3.3,2,3.3S133.1,201.42,133.1,199.21Z" transform="translate(-71.25 -109.75)"/><path class="a" d="M74.9,223.13c.16,0,.3.4.4,1.18l.49-.09c.13,0,.2.09.2.2v.09a6.52,6.52,0,0,0-1.88,3.74v.1h.1c.4,0,.69-.65.88-2l.3-.19c.13,0,.23.39.3,1.18h.1c.59,0,1.11-.56,1.57-1.67.87-1.31,1.46-2,1.77-2l.11.19-.11.69A56,56,0,0,1,84.85,227l.09.2v.1c-.13.26-.3.4-.49.4a59.2,59.2,0,0,0-5.7-2.18h-.11a14.29,14.29,0,0,1-2.07,2.86c-.1,0-.23-.13-.39-.4-.18,0-.41.24-.69.7v.78h.1l1.08-.69h.2v.2a5.36,5.36,0,0,0-1.57,2.26v4.63q0,.13-.3.3h-.19c-.27-.09-.4-.39-.4-.89v-.19c.13-2.12.19-3.27.19-3.45v-.29h-.09a6.84,6.84,0,0,1-2.07,1h-.39q-.15,0-.3-.3v-.1a15.74,15.74,0,0,1,2.57-1.67,1.23,1.23,0,0,0,.49-1H74.7l-1.67.89c-.3-.13-.46-.27-.49-.4v-.09a10.14,10.14,0,0,0,1.38-3.45c-.07,0-.1,0-.1-.1l-.89.29c-.26-.1-.39-.2-.39-.29v-.3a8.7,8.7,0,0,1,1.67-1.18C74.46,223.63,74.69,223.13,74.9,223.13Zm6.2,3.55v.2a19.76,19.76,0,0,1-2.65,1.67,2,2,0,0,0-.3,1.28,3.06,3.06,0,0,1,1.37-.49h.11c.09,0,.19.1.29.3v1.76l-.1.7c.92,0,1.39-.66,1.39-2,0-.43.09-.66.28-.7s.2.1.3.3V230c0,.7,0,1.74-.09,3.15l-.3.2h-.1c-.2-.06-.3-.26-.3-.59v-.68c0-.14-.06-.21-.19-.21a9.2,9.2,0,0,1-1,1.28c0,.11.1.87.3,2.27v.3c0,.09-.1.19-.3.29-.33-.13-.49-.33-.49-.59,0-.07,0-.1.1-.1-.16-1.12-.29-1.67-.4-1.67l-1.27.78.09.69v.69c0,.09-.1.19-.29.3-.46,0-.69-1.12-.69-3.35a15.07,15.07,0,0,1,.69-4h-.1c-.09,0-.19-.1-.29-.29v-.1c0-.19,1.11-.75,3.34-1.67Zm-3.44,6.1v.79h.1a4.91,4.91,0,0,0,1.37-1.08v-.2l-.1-.19C78.12,232.42,77.66,232.65,77.66,232.78Zm.1-1.18v.2a7.88,7.88,0,0,0,1.27-.3v-.19l.1-1-.19-.1A1.39,1.39,0,0,0,77.76,231.6ZM83,228.35c.1,0,.24.13.4.39v.3c-.13,1.59-.2,2.48-.2,2.66v.4a17.62,17.62,0,0,0,.69,4.22v.21c0,.08-.1.18-.3.28h-.19A12.1,12.1,0,0,1,81,234.65a.2.2,0,0,1,.21-.2c0,.13.55.43,1.67.89v-.1a6,6,0,0,1-.2-.89c-.07-2.62-.1-4.52-.1-5.7Z" transform="translate(-71.25 -109.75)"/><path class="a" d="M94.14,223.19l.29.39q-1,5.19-1,5.71c.07,0,.1,0,.1.1a8.94,8.94,0,0,0,2.85-1.19v-2.46c0-.34,0-.9-.1-1.67l.49-.3c.53,0,.79,1.28.79,3.85q1.68-.69,1.77-.69h.11c.13,0,.19.08.19.19v.1a5.67,5.67,0,0,1-2.07,1.57v.39a29.83,29.83,0,0,1-.19,3.85c.06,0,.1,0,.1.09,1.57-.52,2.36-.88,2.36-1.08a.64.64,0,0,1,.68-.49c.11,0,.24.13.4.39v2.86c0,1.32-.16,2.07-.49,2.26-.29,0-.49-.72-.59-2.16v-1.78h-.3c-1.58.66-2.47,1.22-2.66,1.68a.66.66,0,0,0-.39-.2A14,14,0,0,1,93,236.07h-.5c-.08,0-.25-.16-.49-.49v-.49a17.72,17.72,0,0,1,1.28-4.62v-.1c-.5,0-.79-.32-.89-1v-.21Q93.2,223.2,94.14,223.19Zm-.39,7.18a1.7,1.7,0,0,0,.19.59c0,.24-.26,1.52-.79,3.84v.1a36,36,0,0,0,3.45-1.48c-.06-1-.1-1.71-.1-2.16v-1.48a.18.18,0,0,0-.2-.2A9,9,0,0,1,93.75,230.37Zm7.28-7.48h.1c.06,0,.22.16.49.49-.33,4.72-.59,7.09-.79,7.09h-.1c-.33,0-.49-.95-.49-2.85v-.4C100.24,224.33,100.5,222.89,101,222.89Z" transform="translate(-71.25 -109.75)"/><path class="a" d="M113.23,225.41H115l2.35,5.77c.4,1,.78,2,1.13,3h.09c.35-1,.69-2,1.11-3l2.35-5.77h1.68l-4.24,10.2h-1.95Z" transform="translate(-71.25 -109.75)"/><path class="a" d="M127.76,238l.89-.7a2.71,2.71,0,0,0,2.28,1.22c1,0,1.85-.52,1.85-1.45s-.88-1.45-2.75-1.45v-.86c1.66,0,2.44-.65,2.44-1.49s-.68-1.28-1.68-1.28a2.54,2.54,0,0,0-1.89,1l-.8-.72a3.58,3.58,0,0,1,2.88-1.36c1.53,0,2.83.84,2.83,2.2,0,1-.55,1.6-1.64,2a2.09,2.09,0,0,1,2,2c0,1.52-1.4,2.46-3.1,2.46A3.88,3.88,0,0,1,127.76,238Z" transform="translate(-71.25 -109.75)"/><path class="a" d="M74.9,259.13c.16,0,.3.4.4,1.18l.49-.09c.13,0,.2.09.2.2v.09a6.52,6.52,0,0,0-1.88,3.74v.1h.1c.4,0,.69-.65.88-2l.3-.19c.13,0,.23.39.3,1.18h.1c.59,0,1.11-.56,1.57-1.67.87-1.31,1.46-2,1.77-2l.11.19-.11.69A56,56,0,0,1,84.85,263l.09.2v.1c-.13.26-.3.4-.49.4a59.2,59.2,0,0,0-5.7-2.18h-.11a14.29,14.29,0,0,1-2.07,2.86c-.1,0-.23-.13-.39-.4-.18,0-.41.24-.69.7v.78h.1l1.08-.69h.2v.2a5.36,5.36,0,0,0-1.57,2.26v4.63q0,.14-.3.3h-.19c-.27-.09-.4-.39-.4-.89v-.19c.13-2.12.19-3.27.19-3.45v-.29h-.09a6.84,6.84,0,0,1-2.07,1h-.39q-.15,0-.3-.3v-.1a15.74,15.74,0,0,1,2.57-1.67,1.23,1.23,0,0,0,.49-1H74.7l-1.67.89c-.3-.13-.46-.27-.49-.4v-.09a10.14,10.14,0,0,0,1.38-3.45c-.07,0-.1,0-.1-.1l-.89.29c-.26-.1-.39-.2-.39-.29v-.3a8.7,8.7,0,0,1,1.67-1.18C74.46,259.63,74.69,259.13,74.9,259.13Zm6.2,3.55v.2a19.76,19.76,0,0,1-2.65,1.67,2,2,0,0,0-.3,1.28,3.06,3.06,0,0,1,1.37-.49h.11c.09,0,.19.1.29.3v1.76l-.1.7c.92,0,1.39-.66,1.39-2,0-.43.09-.66.28-.7s.2.1.3.3V266c0,.7,0,1.74-.09,3.15l-.3.2h-.1c-.2-.06-.3-.26-.3-.59v-.68c0-.14-.06-.21-.19-.21a9.2,9.2,0,0,1-1,1.28c0,.11.1.87.3,2.27v.3c0,.09-.1.19-.3.29-.33-.13-.49-.33-.49-.59,0-.07,0-.1.1-.1-.16-1.12-.29-1.67-.4-1.67l-1.27.78.09.69v.69c0,.09-.1.19-.29.3-.46,0-.69-1.12-.69-3.35a15.07,15.07,0,0,1,.69-4h-.1c-.09,0-.19-.1-.29-.29v-.1c0-.19,1.11-.75,3.34-1.67Zm-3.44,6.1v.79h.1a4.91,4.91,0,0,0,1.37-1.08v-.2l-.1-.19C78.12,268.42,77.66,268.65,77.66,268.78Zm.1-1.18v.2a7.88,7.88,0,0,0,1.27-.3v-.19l.1-1-.19-.1A1.39,1.39,0,0,0,77.76,267.6ZM83,264.35c.1,0,.24.13.4.39v.3c-.13,1.59-.2,2.48-.2,2.66v.4a17.62,17.62,0,0,0,.69,4.22v.21c0,.08-.1.18-.3.28h-.19A12.1,12.1,0,0,1,81,270.65a.2.2,0,0,1,.21-.2c0,.13.55.43,1.67.89v-.1a6,6,0,0,1-.2-.89c-.07-2.62-.1-4.52-.1-5.7Z" transform="translate(-71.25 -109.75)"/><path class="a" d="M94.14,259.19l.29.39q-1,5.19-1,5.71c.07,0,.1,0,.1.1a8.94,8.94,0,0,0,2.85-1.19v-2.46c0-.34,0-.9-.1-1.67l.49-.3c.53,0,.79,1.28.79,3.85q1.68-.69,1.77-.69h.11c.13,0,.19.08.19.19v.1a5.67,5.67,0,0,1-2.07,1.57v.39a29.83,29.83,0,0,1-.19,3.85c.06,0,.1,0,.1.09,1.57-.52,2.36-.88,2.36-1.08a.64.64,0,0,1,.68-.49c.11,0,.24.13.4.39v2.86c0,1.32-.16,2.07-.49,2.26-.29,0-.49-.72-.59-2.16v-1.78h-.3c-1.58.66-2.47,1.22-2.66,1.68a.66.66,0,0,0-.39-.2A14,14,0,0,1,93,272.07h-.5c-.08,0-.25-.16-.49-.49v-.49a17.72,17.72,0,0,1,1.28-4.62v-.1c-.5,0-.79-.32-.89-1v-.21Q93.2,259.2,94.14,259.19Zm-.39,7.18a1.7,1.7,0,0,0,.19.59c0,.24-.26,1.52-.79,3.84v.1a36,36,0,0,0,3.45-1.48c-.06-1-.1-1.71-.1-2.16v-1.48a.18.18,0,0,0-.2-.2A9,9,0,0,1,93.75,266.37Zm7.28-7.48h.1c.06,0,.22.16.49.49-.33,4.72-.59,7.09-.79,7.09h-.1c-.33,0-.49-1-.49-2.85v-.4C100.24,260.33,100.5,258.89,101,258.89Z" transform="translate(-71.25 -109.75)"/><path class="a" d="M113.23,261.41H115l2.35,5.77c.4,1,.78,2,1.13,3h.09c.35-1,.69-2,1.11-3l2.35-5.77h1.68l-4.24,10.2h-1.95Z" transform="translate(-71.25 -109.75)"/><path class="a" d="M127.76,274l.89-.7a2.68,2.68,0,0,0,2.33,1.22,1.79,1.79,0,0,0,1.89-1.8,1.82,1.82,0,0,0-2-1.79,2.5,2.5,0,0,0-1.66.65l-.67-.46.4-4h4.89v1.2H130l-.21,2a3.61,3.61,0,0,1,1.51-.31,2.67,2.67,0,0,1,2.9,2.75,2.87,2.87,0,0,1-3.15,2.81A3.89,3.89,0,0,1,127.76,274Z" transform="translate(-71.25 -109.75)"/><path class="a" d="M74.9,295.13c.16,0,.3.4.4,1.18l.49-.09c.13,0,.2.09.2.2v.09a6.52,6.52,0,0,0-1.88,3.74v.1h.1c.4,0,.69-.65.88-2l.3-.19c.13,0,.23.39.3,1.18h.1c.59,0,1.11-.56,1.57-1.67.87-1.31,1.46-2,1.77-2l.11.19-.11.69A56,56,0,0,1,84.85,299l.09.2v.1c-.13.26-.3.4-.49.4a59.2,59.2,0,0,0-5.7-2.18h-.11a14.29,14.29,0,0,1-2.07,2.86c-.1,0-.23-.13-.39-.4-.18,0-.41.24-.69.7v.78h.1l1.08-.69h.2v.2a5.36,5.36,0,0,0-1.57,2.26v4.63q0,.14-.3.3h-.19c-.27-.09-.4-.39-.4-.89v-.19c.13-2.12.19-3.27.19-3.45v-.29h-.09a6.84,6.84,0,0,1-2.07,1h-.39q-.15,0-.3-.3v-.1a15.74,15.74,0,0,1,2.57-1.67,1.23,1.23,0,0,0,.49-1H74.7l-1.67.89c-.3-.13-.46-.27-.49-.4v-.09a10.14,10.14,0,0,0,1.38-3.45c-.07,0-.1,0-.1-.1l-.89.29c-.26-.1-.39-.2-.39-.29v-.3a8.7,8.7,0,0,1,1.67-1.18C74.46,295.63,74.69,295.13,74.9,295.13Zm6.2,3.55v.2a19.76,19.76,0,0,1-2.65,1.67,2,2,0,0,0-.3,1.28,3.06,3.06,0,0,1,1.37-.49h.11c.09,0,.19.1.29.3v1.76l-.1.7c.92,0,1.39-.66,1.39-2,0-.43.09-.66.28-.7s.2.1.3.3v.3c0,.69,0,1.73-.09,3.14l-.3.2h-.1c-.2-.06-.3-.26-.3-.59v-.68c0-.14-.06-.21-.19-.21a9.2,9.2,0,0,1-1,1.28c0,.11.1.87.3,2.27v.3c0,.09-.1.19-.3.29-.33-.13-.49-.33-.49-.59,0-.07,0-.1.1-.1-.16-1.12-.29-1.67-.4-1.67l-1.27.79.09.68v.69c0,.09-.1.19-.29.3-.46,0-.69-1.12-.69-3.35a15.07,15.07,0,0,1,.69-4h-.1c-.09,0-.19-.1-.29-.29v-.1c0-.19,1.11-.75,3.34-1.67Zm-3.44,6.1v.79h.1a4.91,4.91,0,0,0,1.37-1.08v-.2l-.1-.19C78.12,304.42,77.66,304.65,77.66,304.78Zm.1-1.18v.2a7.88,7.88,0,0,0,1.27-.3v-.19l.1-1-.19-.1A1.39,1.39,0,0,0,77.76,303.6ZM83,300.35c.1,0,.24.13.4.39v.3c-.13,1.59-.2,2.48-.2,2.66v.4a17.62,17.62,0,0,0,.69,4.22v.21c0,.09-.1.18-.3.28h-.19A12.1,12.1,0,0,1,81,306.65a.19.19,0,0,1,.21-.19c0,.12.55.42,1.67.88v-.1a5.7,5.7,0,0,1-.2-.89c-.07-2.62-.1-4.52-.1-5.7Z" transform="translate(-71.25 -109.75)"/><path class="a" d="M94.14,295.19l.29.39q-1,5.19-1,5.71c.07,0,.1,0,.1.1a8.94,8.94,0,0,0,2.85-1.19v-2.46c0-.34,0-.9-.1-1.67l.49-.3c.53,0,.79,1.28.79,3.85q1.68-.69,1.77-.69h.11c.13,0,.19.08.19.19v.1a5.67,5.67,0,0,1-2.07,1.57v.39a29.83,29.83,0,0,1-.19,3.85c.06,0,.1,0,.1.09,1.57-.52,2.36-.88,2.36-1.08a.64.64,0,0,1,.68-.49c.11,0,.24.13.4.39v2.86c0,1.32-.16,2.07-.49,2.26-.29,0-.49-.72-.59-2.16v-1.78h-.3c-1.58.66-2.47,1.22-2.66,1.68a.66.66,0,0,0-.39-.2A14.25,14.25,0,0,1,93,308.08h-.5c-.08,0-.25-.17-.49-.5v-.49a17.72,17.72,0,0,1,1.28-4.62v-.1c-.5,0-.79-.32-.89-1v-.21Q93.2,295.2,94.14,295.19Zm-.39,7.18a1.7,1.7,0,0,0,.19.59c0,.24-.26,1.52-.79,3.84v.1a36,36,0,0,0,3.45-1.48c-.06-1-.1-1.71-.1-2.16v-1.48a.18.18,0,0,0-.2-.2A9,9,0,0,1,93.75,302.37Zm7.28-7.48h.1c.06,0,.22.16.49.49-.33,4.72-.59,7.09-.79,7.09h-.1c-.33,0-.49-1-.49-2.85v-.4C100.24,296.33,100.5,294.89,101,294.89Z" transform="translate(-71.25 -109.75)"/><path class="a" d="M113.23,297.41H115l2.35,5.77c.4,1,.78,2,1.13,3h.09c.35-1,.69-2,1.11-3l2.35-5.77h1.68l-4.24,10.2h-1.95Z" transform="translate(-71.25 -109.75)"/><path class="a" d="M128.1,310.55c2.81-2.39,4.3-3.57,4.3-4.8a1.63,1.63,0,0,0-1.78-1.71,2.49,2.49,0,0,0-2,1.18l-.8-.73a3.57,3.57,0,0,1,3-1.6c1.74,0,2.94.92,2.94,2.67,0,1.57-1.47,2.75-3.47,4.61h3.87v1.16h-6Z" transform="translate(-71.25 -109.75)"/><path class="a" d="M74.9,331.13c.16,0,.3.4.4,1.18l.49-.09c.13,0,.2.09.2.2v.09a6.52,6.52,0,0,0-1.88,3.74v.1h.1c.4,0,.69-.65.88-2l.3-.19c.13,0,.23.39.3,1.18h.1c.59,0,1.11-.56,1.57-1.67.87-1.31,1.46-2,1.77-2l.11.19-.11.69A56,56,0,0,1,84.85,335l.09.2v.1c-.13.26-.3.4-.49.4a59.2,59.2,0,0,0-5.7-2.18h-.11a14.29,14.29,0,0,1-2.07,2.86c-.1,0-.23-.13-.39-.4-.18,0-.41.24-.69.7v.78h.1l1.08-.69h.2v.2a5.36,5.36,0,0,0-1.57,2.26v4.63q0,.14-.3.3h-.19c-.27-.09-.4-.39-.4-.89v-.19c.13-2.12.19-3.27.19-3.45v-.29h-.09a6.84,6.84,0,0,1-2.07,1h-.39q-.15,0-.3-.3v-.1a15.74,15.74,0,0,1,2.57-1.67,1.23,1.23,0,0,0,.49-1H74.7l-1.67.89c-.3-.13-.46-.27-.49-.4v-.09a10.14,10.14,0,0,0,1.38-3.45c-.07,0-.1,0-.1-.1l-.89.29c-.26-.1-.39-.2-.39-.29v-.3a8.7,8.7,0,0,1,1.67-1.18C74.46,331.63,74.69,331.13,74.9,331.13Zm6.2,3.55v.2a19.76,19.76,0,0,1-2.65,1.67,2,2,0,0,0-.3,1.28,3.06,3.06,0,0,1,1.37-.49h.11c.09,0,.19.1.29.3v1.76l-.1.7c.92,0,1.39-.66,1.39-2,0-.43.09-.66.28-.7s.2.1.3.3v.3c0,.69,0,1.73-.09,3.14l-.3.2h-.1c-.2-.06-.3-.26-.3-.59v-.68c0-.14-.06-.21-.19-.21a9.2,9.2,0,0,1-1,1.28c0,.11.1.87.3,2.27v.3c0,.09-.1.19-.3.29-.33-.13-.49-.33-.49-.59,0-.07,0-.1.1-.1-.16-1.12-.29-1.67-.4-1.67l-1.27.79.09.68v.69c0,.09-.1.19-.29.3-.46,0-.69-1.12-.69-3.35a15.07,15.07,0,0,1,.69-4h-.1c-.09,0-.19-.1-.29-.29v-.1c0-.19,1.11-.75,3.34-1.67Zm-3.44,6.1v.79h.1a4.91,4.91,0,0,0,1.37-1.08v-.2l-.1-.19C78.12,340.42,77.66,340.65,77.66,340.78Zm.1-1.18v.2a7.88,7.88,0,0,0,1.27-.3v-.19l.1-1-.19-.1A1.39,1.39,0,0,0,77.76,339.6ZM83,336.35c.1,0,.24.13.4.39v.3c-.13,1.59-.2,2.48-.2,2.66v.4a17.62,17.62,0,0,0,.69,4.22v.21c0,.09-.1.18-.3.28h-.19A12.1,12.1,0,0,1,81,342.65a.19.19,0,0,1,.21-.19c0,.12.55.42,1.67.88v-.1a5.7,5.7,0,0,1-.2-.89c-.07-2.62-.1-4.52-.1-5.7Z" transform="translate(-71.25 -109.75)"/><path class="a" d="M94.14,331.19l.29.39c-.65,3.46-1,5.37-1,5.71.07,0,.1,0,.1.1a8.94,8.94,0,0,0,2.85-1.19v-2.46c0-.34,0-.9-.1-1.67l.49-.3c.53,0,.79,1.28.79,3.85q1.68-.69,1.77-.69h.11c.13,0,.19.08.19.19v.1a5.67,5.67,0,0,1-2.07,1.57v.39a29.83,29.83,0,0,1-.19,3.85c.06,0,.1,0,.1.09,1.57-.52,2.36-.88,2.36-1.08a.64.64,0,0,1,.68-.49c.11,0,.24.13.4.39v2.86c0,1.32-.16,2.07-.49,2.26-.29,0-.49-.72-.59-2.16v-1.78h-.3c-1.58.66-2.47,1.22-2.66,1.68a.66.66,0,0,0-.39-.2A14.25,14.25,0,0,1,93,344.08h-.5c-.08,0-.25-.17-.49-.5v-.49a17.72,17.72,0,0,1,1.28-4.62v-.1c-.5,0-.79-.32-.89-1v-.21Q93.2,331.2,94.14,331.19Zm-.39,7.18a1.7,1.7,0,0,0,.19.59c0,.24-.26,1.52-.79,3.84v.1a36,36,0,0,0,3.45-1.48c-.06-1-.1-1.71-.1-2.16v-1.48a.18.18,0,0,0-.2-.2A9,9,0,0,1,93.75,338.37Zm7.28-7.48h.1c.06,0,.22.16.49.49-.33,4.72-.59,7.09-.79,7.09h-.1c-.33,0-.49-1-.49-2.85v-.4C100.24,332.33,100.5,330.89,101,330.89Z" transform="translate(-71.25 -109.75)"/><path class="a" d="M113.23,333.41H115l2.35,5.77c.4,1,.78,2,1.13,3h.09c.35-1,.69-2,1.11-3l2.35-5.77h1.68l-4.24,10.2h-1.95Z" transform="translate(-71.25 -109.75)"/><path class="a" d="M128.46,346.17h6.32v1.16h-6.32Zm2.58-5.29h-2.21V340a4.94,4.94,0,0,0,2.46-.86h1.11v8.19H131Z" transform="translate(-71.25 -109.75)"/><path class="a" d="M74.9,367.13c.16,0,.3.4.4,1.18l.49-.09c.13,0,.2.09.2.2v.09a6.52,6.52,0,0,0-1.88,3.74v.1h.1c.4,0,.69-.65.88-2l.3-.19c.13,0,.23.39.3,1.18h.1c.59,0,1.11-.56,1.57-1.67.87-1.31,1.46-2,1.77-2l.11.19-.11.69A56,56,0,0,1,84.85,371l.09.2v.1c-.13.26-.3.4-.49.4a59.2,59.2,0,0,0-5.7-2.18h-.11a14.29,14.29,0,0,1-2.07,2.86c-.1,0-.23-.13-.39-.4-.18,0-.41.24-.69.7v.78h.1l1.08-.69h.2v.2a5.36,5.36,0,0,0-1.57,2.26v4.63q0,.14-.3.3h-.19c-.27-.09-.4-.39-.4-.89v-.19c.13-2.12.19-3.27.19-3.45v-.29h-.09a6.84,6.84,0,0,1-2.07,1h-.39q-.15,0-.3-.3v-.1a15.74,15.74,0,0,1,2.57-1.67,1.23,1.23,0,0,0,.49-1H74.7l-1.67.89c-.3-.13-.46-.27-.49-.4v-.09a10.14,10.14,0,0,0,1.38-3.45c-.07,0-.1,0-.1-.1l-.89.29c-.26-.1-.39-.2-.39-.29v-.3a8.7,8.7,0,0,1,1.67-1.18C74.46,367.63,74.69,367.13,74.9,367.13Zm6.2,3.55v.2a19.76,19.76,0,0,1-2.65,1.67,2,2,0,0,0-.3,1.28,3.06,3.06,0,0,1,1.37-.49h.11c.09,0,.19.1.29.3v1.76l-.1.7c.92,0,1.39-.66,1.39-2,0-.43.09-.66.28-.7s.2.1.3.3v.3c0,.69,0,1.73-.09,3.14l-.3.2h-.1c-.2-.06-.3-.26-.3-.59v-.68c0-.14-.06-.21-.19-.21a9.2,9.2,0,0,1-1,1.28c0,.11.1.87.3,2.27v.3c0,.09-.1.19-.3.29-.33-.13-.49-.33-.49-.59,0-.07,0-.1.1-.1-.16-1.12-.29-1.67-.4-1.67l-1.27.79.09.68v.69c0,.09-.1.19-.29.3-.46,0-.69-1.12-.69-3.35a15.07,15.07,0,0,1,.69-4h-.1c-.09,0-.19-.1-.29-.29v-.1c0-.19,1.11-.75,3.34-1.67Zm-3.44,6.1v.79h.1a4.91,4.91,0,0,0,1.37-1.08v-.2l-.1-.19C78.12,376.42,77.66,376.65,77.66,376.78Zm.1-1.18v.2a7.88,7.88,0,0,0,1.27-.3v-.19l.1-1-.19-.1A1.39,1.39,0,0,0,77.76,375.6ZM83,372.35c.1,0,.24.13.4.39v.3c-.13,1.59-.2,2.48-.2,2.66v.4a17.62,17.62,0,0,0,.69,4.22v.21c0,.09-.1.18-.3.28h-.19A12.1,12.1,0,0,1,81,378.65a.19.19,0,0,1,.21-.19c0,.12.55.42,1.67.88v-.1a5.7,5.7,0,0,1-.2-.89c-.07-2.62-.1-4.52-.1-5.7Z" transform="translate(-71.25 -109.75)"/><path class="a" d="M94.14,367.19l.29.39c-.65,3.46-1,5.37-1,5.71.07,0,.1,0,.1.1a8.94,8.94,0,0,0,2.85-1.19v-2.46c0-.34,0-.9-.1-1.67l.49-.3c.53,0,.79,1.28.79,3.85q1.68-.69,1.77-.69h.11c.13,0,.19.08.19.19v.1a5.67,5.67,0,0,1-2.07,1.57v.39a29.83,29.83,0,0,1-.19,3.85c.06,0,.1,0,.1.09,1.57-.52,2.36-.88,2.36-1.08a.64.64,0,0,1,.68-.49c.11,0,.24.13.4.39v2.86c0,1.32-.16,2.07-.49,2.26-.29,0-.49-.72-.59-2.16v-1.78h-.3c-1.58.66-2.47,1.22-2.66,1.68a.66.66,0,0,0-.39-.2A14.25,14.25,0,0,1,93,380.08h-.5c-.08,0-.25-.17-.49-.5v-.49a17.72,17.72,0,0,1,1.28-4.62v-.1c-.5,0-.79-.32-.89-1v-.21Q93.2,367.2,94.14,367.19Zm-.39,7.18a1.7,1.7,0,0,0,.19.59c0,.24-.26,1.52-.79,3.84v.1a36,36,0,0,0,3.45-1.48c-.06-1-.1-1.71-.1-2.16v-1.48a.18.18,0,0,0-.2-.2A9,9,0,0,1,93.75,374.37Zm7.28-7.48h.1c.06,0,.22.16.49.49-.33,4.72-.59,7.09-.79,7.09h-.1c-.33,0-.49-1-.49-2.85v-.4C100.24,368.33,100.5,366.89,101,366.89Z" transform="translate(-71.25 -109.75)"/><path class="a" d="M113.23,369.41H115l2.35,5.77c.4,1,.78,2,1.13,3h.09c.35-1,.69-2,1.11-3l2.35-5.77h1.68l-4.24,10.2h-1.95Z" transform="translate(-71.25 -109.75)"/><path class="a" d="M127.89,380.45l3.21-5.56,1,.55-2.75,4.74h5.12v1h-6.59Zm4.16-2.7h1.21v5.58h-1.21Z" transform="translate(-71.25 -109.75)"/><path class="a" d="M74.9,403.13c.16,0,.3.4.4,1.18l.49-.09c.13,0,.2.09.2.2v.09a6.52,6.52,0,0,0-1.88,3.74v.1h.1c.4,0,.69-.65.88-2l.3-.19c.13,0,.23.39.3,1.18h.1c.59,0,1.11-.56,1.57-1.67.87-1.31,1.46-2,1.77-2l.11.19-.11.69A56,56,0,0,1,84.85,407l.09.2v.1c-.13.26-.3.4-.49.4a59.2,59.2,0,0,0-5.7-2.18h-.11a14.29,14.29,0,0,1-2.07,2.86c-.1,0-.23-.13-.39-.4-.18,0-.41.24-.69.7v.78h.1l1.08-.69h.2v.2a5.36,5.36,0,0,0-1.57,2.26v4.63q0,.14-.3.3h-.19c-.27-.09-.4-.39-.4-.89v-.19c.13-2.12.19-3.27.19-3.45v-.29h-.09a6.84,6.84,0,0,1-2.07,1h-.39q-.15,0-.3-.3v-.1a15.74,15.74,0,0,1,2.57-1.67,1.23,1.23,0,0,0,.49-1H74.7l-1.67.89c-.3-.13-.46-.27-.49-.4v-.09a10.14,10.14,0,0,0,1.38-3.45c-.07,0-.1,0-.1-.1l-.89.29c-.26-.1-.39-.2-.39-.29v-.3a8.7,8.7,0,0,1,1.67-1.18C74.46,403.63,74.69,403.13,74.9,403.13Zm6.2,3.55v.2a19.76,19.76,0,0,1-2.65,1.67,2,2,0,0,0-.3,1.28,3.06,3.06,0,0,1,1.37-.49h.11c.09,0,.19.1.29.3v1.76l-.1.7c.92,0,1.39-.66,1.39-2,0-.43.09-.66.28-.7s.2.1.3.3v.3c0,.69,0,1.73-.09,3.14l-.3.2h-.1c-.2-.06-.3-.26-.3-.59v-.68c0-.14-.06-.21-.19-.21a9.2,9.2,0,0,1-1,1.28c0,.11.1.87.3,2.27v.3c0,.09-.1.19-.3.29-.33-.13-.49-.33-.49-.59,0-.07,0-.1.1-.1-.16-1.12-.29-1.67-.4-1.67l-1.27.79.09.68v.69c0,.09-.1.19-.29.3-.46,0-.69-1.12-.69-3.35a15.07,15.07,0,0,1,.69-4h-.1c-.09,0-.19-.1-.29-.29v-.1c0-.19,1.11-.75,3.34-1.67Zm-3.44,6.1v.79h.1a4.91,4.91,0,0,0,1.37-1.08v-.2l-.1-.19C78.12,412.42,77.66,412.65,77.66,412.78Zm.1-1.18v.2a7.88,7.88,0,0,0,1.27-.3v-.19l.1-1-.19-.1A1.39,1.39,0,0,0,77.76,411.6ZM83,408.35c.1,0,.24.13.4.39v.3c-.13,1.59-.2,2.48-.2,2.66v.4a17.62,17.62,0,0,0,.69,4.22v.21c0,.09-.1.18-.3.28h-.19A12.1,12.1,0,0,1,81,414.65a.19.19,0,0,1,.21-.19c0,.12.55.42,1.67.88v-.1a5.7,5.7,0,0,1-.2-.89c-.07-2.62-.1-4.52-.1-5.7Z" transform="translate(-71.25 -109.75)"/><path class="a" d="M94.14,403.19l.29.39c-.65,3.46-1,5.37-1,5.71.07,0,.1,0,.1.1a8.94,8.94,0,0,0,2.85-1.19v-2.46c0-.34,0-.9-.1-1.67l.49-.3c.53,0,.79,1.28.79,3.85q1.68-.69,1.77-.69h.11c.13,0,.19.08.19.19v.1a5.67,5.67,0,0,1-2.07,1.57v.39a29.83,29.83,0,0,1-.19,3.85c.06,0,.1,0,.1.09,1.57-.52,2.36-.88,2.36-1.08a.64.64,0,0,1,.68-.49c.11,0,.24.13.4.39v2.86c0,1.32-.16,2.07-.49,2.26-.29,0-.49-.72-.59-2.16v-1.78h-.3c-1.58.66-2.47,1.22-2.66,1.68a.66.66,0,0,0-.39-.2A14.25,14.25,0,0,1,93,416.08h-.5c-.08,0-.25-.17-.49-.5v-.49a17.72,17.72,0,0,1,1.28-4.62v-.1c-.5,0-.79-.32-.89-1v-.21Q93.2,403.2,94.14,403.19Zm-.39,7.18a1.7,1.7,0,0,0,.19.59c0,.24-.26,1.52-.79,3.84v.1a36,36,0,0,0,3.45-1.48c-.06-1-.1-1.71-.1-2.16v-1.48a.18.18,0,0,0-.2-.2A9,9,0,0,1,93.75,410.37Zm7.28-7.48h.1c.06,0,.22.16.49.49-.33,4.72-.59,7.09-.79,7.09h-.1c-.33,0-.49-1-.49-2.85v-.4C100.24,404.33,100.5,402.89,101,402.89Z" transform="translate(-71.25 -109.75)"/><path class="a" d="M113.23,405.41H115l2.35,5.77c.4,1,.78,2,1.13,3h.09c.35-1,.69-2,1.11-3l2.35-5.77h1.68l-4.24,10.2h-1.95Z" transform="translate(-71.25 -109.75)"/><path class="a" d="M132.7,412.32h-4.64v-1.18h6.15v.76a11.67,11.67,0,0,0-2.81,7.43H130A12.09,12.09,0,0,1,132.7,412.32Z" transform="translate(-71.25 -109.75)"/><path class="a" d="M74.9,439.13c.16,0,.3.4.4,1.18l.49-.09c.13,0,.2.09.2.2v.09a6.52,6.52,0,0,0-1.88,3.74v.1h.1c.4,0,.69-.65.88-2l.3-.19c.13,0,.23.39.3,1.18h.1c.59,0,1.11-.56,1.57-1.67.87-1.31,1.46-2,1.77-2l.11.19-.11.69A56,56,0,0,1,84.85,443l.09.2v.1c-.13.26-.3.4-.49.4a59.2,59.2,0,0,0-5.7-2.18h-.11a14.29,14.29,0,0,1-2.07,2.86c-.1,0-.23-.13-.39-.4-.18,0-.41.24-.69.7v.78h.1l1.08-.69h.2v.2a5.36,5.36,0,0,0-1.57,2.26v4.63q0,.14-.3.3h-.19c-.27-.09-.4-.39-.4-.89v-.19c.13-2.12.19-3.27.19-3.45v-.29h-.09a6.84,6.84,0,0,1-2.07,1h-.39q-.15,0-.3-.3v-.1a15.74,15.74,0,0,1,2.57-1.67,1.23,1.23,0,0,0,.49-1H74.7l-1.67.89c-.3-.13-.46-.27-.49-.4v-.09a10.14,10.14,0,0,0,1.38-3.45c-.07,0-.1,0-.1-.1l-.89.29c-.26-.1-.39-.2-.39-.29v-.3a8.7,8.7,0,0,1,1.67-1.18C74.46,439.63,74.69,439.13,74.9,439.13Zm6.2,3.55v.2a19.76,19.76,0,0,1-2.65,1.67,2,2,0,0,0-.3,1.28,3.06,3.06,0,0,1,1.37-.49h.11c.09,0,.19.1.29.3v1.76l-.1.7c.92,0,1.39-.66,1.39-2,0-.43.09-.66.28-.7s.2.1.3.3v.3c0,.69,0,1.73-.09,3.14l-.3.2h-.1c-.2-.06-.3-.26-.3-.59v-.68c0-.14-.06-.21-.19-.21a9.2,9.2,0,0,1-1,1.28c0,.11.1.87.3,2.27v.3c0,.09-.1.19-.3.29-.33-.13-.49-.33-.49-.59,0-.07,0-.1.1-.1-.16-1.12-.29-1.67-.4-1.67l-1.27.79.09.68v.69c0,.09-.1.19-.29.3-.46,0-.69-1.12-.69-3.35a15.07,15.07,0,0,1,.69-4h-.1c-.09,0-.19-.1-.29-.29v-.1c0-.19,1.11-.75,3.34-1.67Zm-3.44,6.1v.79h.1a4.91,4.91,0,0,0,1.37-1.08v-.2l-.1-.19C78.12,448.42,77.66,448.65,77.66,448.78Zm.1-1.18v.2a7.88,7.88,0,0,0,1.27-.3v-.19l.1-1-.19-.1A1.39,1.39,0,0,0,77.76,447.6ZM83,444.35c.1,0,.24.13.4.39v.3c-.13,1.59-.2,2.48-.2,2.66v.4a17.62,17.62,0,0,0,.69,4.22v.21c0,.09-.1.18-.3.28h-.19A12.1,12.1,0,0,1,81,450.65a.19.19,0,0,1,.21-.19c0,.12.55.42,1.67.88v-.1a5.7,5.7,0,0,1-.2-.89c-.07-2.62-.1-4.52-.1-5.7Z" transform="translate(-71.25 -109.75)"/><path class="a" d="M94.14,439.19l.29.39c-.65,3.46-1,5.37-1,5.71.07,0,.1,0,.1.1a8.94,8.94,0,0,0,2.85-1.19v-2.46c0-.34,0-.9-.1-1.67l.49-.3c.53,0,.79,1.28.79,3.85q1.68-.69,1.77-.69h.11c.13,0,.19.08.19.19v.1a5.67,5.67,0,0,1-2.07,1.57v.39a29.83,29.83,0,0,1-.19,3.85c.06,0,.1,0,.1.09,1.57-.52,2.36-.88,2.36-1.08a.64.64,0,0,1,.68-.49c.11,0,.24.13.4.39v2.86c0,1.32-.16,2.07-.49,2.26-.29,0-.49-.72-.59-2.16v-1.78h-.3c-1.58.66-2.47,1.22-2.66,1.68a.66.66,0,0,0-.39-.2A14.25,14.25,0,0,1,93,452.08h-.5c-.08,0-.25-.17-.49-.5v-.49a17.72,17.72,0,0,1,1.28-4.62v-.1c-.5,0-.79-.32-.89-1v-.21Q93.2,439.2,94.14,439.19Zm-.39,7.18a1.7,1.7,0,0,0,.19.59c0,.24-.26,1.52-.79,3.84v.1a36,36,0,0,0,3.45-1.48c-.06-1-.1-1.71-.1-2.16v-1.48a.18.18,0,0,0-.2-.2A9,9,0,0,1,93.75,446.37Zm7.28-7.48h.1c.06,0,.22.16.49.49-.33,4.72-.59,7.09-.79,7.09h-.1c-.33,0-.49-1-.49-2.85v-.4C100.24,440.33,100.5,438.89,101,438.89Z" transform="translate(-71.25 -109.75)"/><path class="a" d="M113.23,441.41H115l2.35,5.77c.4,1,.78,2,1.13,3h.09c.35-1,.69-2,1.11-3l2.35-5.77h1.68l-4.24,10.2h-1.95Z" transform="translate(-71.25 -109.75)"/><path class="a" d="M128,451.47c0-3.11,1.64-4.58,3.78-4.58a3.61,3.61,0,0,1,2.23.65l-.57.95a2.61,2.61,0,0,0-1.62-.51c-1.44,0-2.56,1.16-2.56,3.61,0,1.93.88,2.92,2.12,2.92a1.61,1.61,0,0,0,1.68-1.68,1.59,1.59,0,0,0-1.76-1.66,2.64,2.64,0,0,0-2.12,1l0-1a3.25,3.25,0,0,1,2.41-1,2.5,2.5,0,0,1,2.77,2.62,2.79,2.79,0,0,1-2.92,2.77C129.28,455.58,128,454,128,451.47Z" transform="translate(-71.25 -109.75)"/><path class="a" d="M74.9,475.13c.16,0,.3.4.4,1.18l.49-.09c.13,0,.2.09.2.2v.09a6.52,6.52,0,0,0-1.88,3.74v.1h.1c.4,0,.69-.65.88-2l.3-.19c.13,0,.23.39.3,1.18h.1c.59,0,1.11-.56,1.57-1.67.87-1.31,1.46-2,1.77-2l.11.19-.11.69A56,56,0,0,1,84.85,479l.09.2v.1c-.13.26-.3.4-.49.4a59.2,59.2,0,0,0-5.7-2.18h-.11a14.29,14.29,0,0,1-2.07,2.86c-.1,0-.23-.13-.39-.4-.18,0-.41.24-.69.7v.78h.1l1.08-.69h.2v.2a5.36,5.36,0,0,0-1.57,2.26v4.63q0,.14-.3.3h-.19c-.27-.09-.4-.39-.4-.89v-.19c.13-2.12.19-3.27.19-3.45v-.29h-.09a6.84,6.84,0,0,1-2.07,1h-.39q-.15,0-.3-.3v-.1a15.74,15.74,0,0,1,2.57-1.67,1.23,1.23,0,0,0,.49-1H74.7l-1.67.89c-.3-.13-.46-.27-.49-.4v-.09a10.14,10.14,0,0,0,1.38-3.45c-.07,0-.1,0-.1-.1l-.89.29c-.26-.1-.39-.2-.39-.29v-.3a8.7,8.7,0,0,1,1.67-1.18C74.46,475.63,74.69,475.13,74.9,475.13Zm6.2,3.55v.2a19.76,19.76,0,0,1-2.65,1.67,2,2,0,0,0-.3,1.28,3.06,3.06,0,0,1,1.37-.49h.11c.09,0,.19.1.29.3v1.76l-.1.7c.92,0,1.39-.66,1.39-2,0-.43.09-.66.28-.7s.2.1.3.3v.3c0,.69,0,1.73-.09,3.14l-.3.2h-.1c-.2-.06-.3-.26-.3-.59v-.68c0-.14-.06-.21-.19-.21a9.2,9.2,0,0,1-1,1.28c0,.11.1.87.3,2.27v.3c0,.09-.1.19-.3.29-.33-.13-.49-.33-.49-.59,0-.07,0-.1.1-.1-.16-1.12-.29-1.67-.4-1.67l-1.27.79.09.68v.69c0,.09-.1.19-.29.3-.46,0-.69-1.12-.69-3.35a15.07,15.07,0,0,1,.69-4h-.1c-.09,0-.19-.1-.29-.29v-.1c0-.19,1.11-.75,3.34-1.67Zm-3.44,6.1v.79h.1a4.91,4.91,0,0,0,1.37-1.08v-.2l-.1-.19C78.12,484.42,77.66,484.65,77.66,484.78Zm.1-1.18v.2a7.88,7.88,0,0,0,1.27-.3v-.19l.1-1-.19-.1A1.39,1.39,0,0,0,77.76,483.6ZM83,480.35c.1,0,.24.13.4.39v.3c-.13,1.59-.2,2.48-.2,2.66v.4a17.62,17.62,0,0,0,.69,4.22v.21c0,.09-.1.18-.3.28h-.19A12.1,12.1,0,0,1,81,486.65a.19.19,0,0,1,.21-.19c0,.12.55.42,1.67.88v-.1a5.7,5.7,0,0,1-.2-.89c-.07-2.62-.1-4.52-.1-5.7Z" transform="translate(-71.25 -109.75)"/><path class="a" d="M94.14,475.19l.29.39c-.65,3.46-1,5.37-1,5.71.07,0,.1,0,.1.1a8.94,8.94,0,0,0,2.85-1.19v-2.46c0-.34,0-.9-.1-1.67l.49-.3c.53,0,.79,1.28.79,3.85q1.68-.69,1.77-.69h.11c.13,0,.19.08.19.19v.1a5.67,5.67,0,0,1-2.07,1.57v.39a29.83,29.83,0,0,1-.19,3.85c.06,0,.1,0,.1.09,1.57-.52,2.36-.88,2.36-1.08a.64.64,0,0,1,.68-.49c.11,0,.24.13.4.39v2.86c0,1.32-.16,2.07-.49,2.26-.29,0-.49-.72-.59-2.16v-1.78h-.3c-1.58.66-2.47,1.22-2.66,1.68a.66.66,0,0,0-.39-.2A14.25,14.25,0,0,1,93,488.08h-.5c-.08,0-.25-.17-.49-.5v-.49a17.72,17.72,0,0,1,1.28-4.62v-.1c-.5,0-.79-.32-.89-1v-.21Q93.2,475.2,94.14,475.19Zm-.39,7.18a1.7,1.7,0,0,0,.19.59c0,.24-.26,1.52-.79,3.84v.1a36,36,0,0,0,3.45-1.48c-.06-1-.1-1.71-.1-2.16v-1.48a.18.18,0,0,0-.2-.2A9,9,0,0,1,93.75,482.37Zm7.28-7.48h.1c.06,0,.22.16.49.49-.33,4.72-.59,7.09-.79,7.09h-.1c-.33,0-.49-1-.49-2.85v-.4C100.24,476.33,100.5,474.89,101,474.89Z" transform="translate(-71.25 -109.75)"/><path class="a" d="M113.23,477.41H115l2.35,5.77c.4,1,.78,2,1.13,3h.09c.35-1,.69-2,1.11-3l2.35-5.77h1.68l-4.24,10.2h-1.95Z" transform="translate(-71.25 -109.75)"/><path class="a" d="M128,489.33a2.56,2.56,0,0,1,1.77-2.3v-.09c-.93-.52-1.43-1-1.43-1.89,0-1.28,1.09-2.16,2.77-2.16s2.81.84,2.81,2.16a2.22,2.22,0,0,1-1.45,2v.08c1.18.52,1.73,1.15,1.73,2.18,0,1.3-1.18,2.29-3.09,2.29S128,490.57,128,489.33Zm4.94-.1c0-1-1.12-1.26-2.33-1.74-.95.48-1.33,1.05-1.33,1.74s.59,1.39,1.83,1.39S132.89,490,132.89,489.23Zm-.28-4.11c0-.74-.58-1.2-1.57-1.2s-1.49.5-1.49,1.17c0,.82.82,1.2,2,1.58C132.38,486.1,132.61,485.66,132.61,485.12Z" transform="translate(-71.25 -109.75)"/><path class="a" d="M178.07,109.75h5.82v1h-4.43v16.09h4.43v1h-5.82Z" transform="translate(-71.25 -109.75)"/><path class="a" d="M187.44,117.87c0-4.49,1.83-6.9,4.81-6.9s4.81,2.41,4.81,6.9-1.83,7-4.81,7S187.44,122.32,187.44,117.87Zm8,0c0-3.84-1.32-5.5-3.19-5.5s-3.19,1.66-3.19,5.5,1.32,5.59,3.19,5.59S195.44,121.72,195.44,117.87Zm-4.49-.14a1.3,1.3,0,1,1,1.3,1.4A1.3,1.3,0,0,1,191,117.73Z" transform="translate(-71.25 -109.75)"/><path class="a" d="M200.61,126.82H205V110.73h-4.43v-1h5.81v18h-5.81Z" transform="translate(-71.25 -109.75)"/><path class="a" d="M187.44,156.87c0-4.49,1.83-6.9,4.81-6.9s4.81,2.41,4.81,6.9-1.83,7-4.81,7S187.44,161.32,187.44,156.87Zm8,0c0-3.84-1.32-5.5-3.19-5.5s-3.19,1.66-3.19,5.5,1.32,5.59,3.19,5.59S195.44,160.72,195.44,156.87Zm-4.49-.14a1.3,1.3,0,1,1,1.3,1.4A1.3,1.3,0,0,1,191,156.73Z" transform="translate(-71.25 -109.75)"/><path class="a" d="M245.44,156.87c0-4.49,1.83-6.9,4.81-6.9s4.81,2.41,4.81,6.9-1.83,7-4.81,7S245.44,161.32,245.44,156.87Zm8,0c0-3.84-1.32-5.5-3.19-5.5s-3.19,1.66-3.19,5.5,1.32,5.59,3.19,5.59S253.44,160.72,253.44,156.87Zm-4.49-.14a1.3,1.3,0,1,1,1.3,1.4A1.3,1.3,0,0,1,249,156.73Z" transform="translate(-71.25 -109.75)"/><path class="a" d="M303.44,156.87c0-4.49,1.83-6.9,4.81-6.9s4.81,2.41,4.81,6.9-1.83,7-4.81,7S303.44,161.32,303.44,156.87Zm8,0c0-3.84-1.32-5.5-3.19-5.5s-3.19,1.66-3.19,5.5,1.32,5.59,3.19,5.59S311.44,160.72,311.44,156.87Zm-4.49-.14a1.3,1.3,0,1,1,1.3,1.4A1.3,1.3,0,0,1,307,156.73Z" transform="translate(-71.25 -109.75)"/><path class="a" d="M361.44,156.87c0-4.49,1.83-6.9,4.81-6.9s4.81,2.41,4.81,6.9-1.83,7-4.81,7S361.44,161.32,361.44,156.87Zm8,0c0-3.84-1.32-5.5-3.19-5.5s-3.19,1.66-3.19,5.5,1.32,5.59,3.19,5.59S369.44,160.72,369.44,156.87Zm-4.49-.14a1.3,1.3,0,1,1,1.3,1.4A1.3,1.3,0,0,1,365,156.73Z" transform="translate(-71.25 -109.75)"/><path class="a" d="M419.44,156.87c0-4.49,1.83-6.9,4.81-6.9s4.81,2.41,4.81,6.9-1.83,7-4.81,7S419.44,161.32,419.44,156.87Zm8,0c0-3.84-1.32-5.5-3.19-5.5s-3.19,1.66-3.19,5.5,1.32,5.59,3.19,5.59S427.44,160.72,427.44,156.87Zm-4.49-.14a1.3,1.3,0,1,1,1.3,1.4A1.3,1.3,0,0,1,423,156.73Z" transform="translate(-71.25 -109.75)"/><path class="a" d="M477.44,156.87c0-4.49,1.83-6.9,4.81-6.9s4.81,2.41,4.81,6.9-1.83,7-4.81,7S477.44,161.32,477.44,156.87Zm8,0c0-3.84-1.32-5.5-3.19-5.5s-3.19,1.66-3.19,5.5,1.32,5.59,3.19,5.59S485.44,160.72,485.44,156.87Zm-4.49-.14a1.3,1.3,0,1,1,1.3,1.4A1.3,1.3,0,0,1,481,156.73Z" transform="translate(-71.25 -109.75)"/><path class="a" d="M535.44,156.87c0-4.49,1.83-6.9,4.81-6.9s4.81,2.41,4.81,6.9-1.83,7-4.81,7S535.44,161.32,535.44,156.87Zm8,0c0-3.84-1.32-5.5-3.19-5.5s-3.19,1.66-3.19,5.5,1.32,5.59,3.19,5.59S543.44,160.72,543.44,156.87Zm-4.49-.14a1.3,1.3,0,1,1,1.3,1.4A1.3,1.3,0,0,1,539,156.73Z" transform="translate(-71.25 -109.75)"/><path class="a" d="M593.44,156.87c0-4.49,1.83-6.9,4.81-6.9s4.81,2.41,4.81,6.9-1.83,7-4.81,7S593.44,161.32,593.44,156.87Zm8,0c0-3.84-1.32-5.5-3.19-5.5s-3.19,1.66-3.19,5.5,1.32,5.59,3.19,5.59S601.44,160.72,601.44,156.87Zm-4.49-.14a1.3,1.3,0,1,1,1.3,1.4A1.3,1.3,0,0,1,597,156.73Z" transform="translate(-71.25 -109.75)"/><path class="a" d="M651.44,156.87c0-4.49,1.83-6.9,4.81-6.9s4.81,2.41,4.81,6.9-1.83,7-4.81,7S651.44,161.32,651.44,156.87Zm8,0c0-3.84-1.32-5.5-3.19-5.5s-3.19,1.66-3.19,5.5,1.32,5.59,3.19,5.59S659.44,160.72,659.44,156.87Zm-4.49-.14a1.3,1.3,0,1,1,1.3,1.4A1.3,1.3,0,0,1,655,156.73Z" transform="translate(-71.25 -109.75)"/><path class="a" d="M707.07,148.75h5.82v1h-4.43v16.09h4.43v1h-5.82Z" transform="translate(-71.25 -109.75)"/><path class="a" d="M716.44,156.87c0-4.49,1.83-6.9,4.81-6.9s4.81,2.41,4.81,6.9-1.83,7-4.81,7S716.44,161.32,716.44,156.87Zm8,0c0-3.84-1.32-5.5-3.19-5.5s-3.19,1.66-3.19,5.5,1.32,5.59,3.19,5.59S724.44,160.72,724.44,156.87Zm-4.49-.14a1.3,1.3,0,1,1,1.3,1.4A1.3,1.3,0,0,1,720,156.73Z" transform="translate(-71.25 -109.75)"/><path class="a" d="M729.61,165.82H734V149.73h-4.43v-1h5.81V166.8h-5.81Z" transform="translate(-71.25 -109.75)"/><path class="a" d="M681.87,184.75h5.82v1h-4.43v16.09h4.43v1h-5.82Z" transform="translate(-71.25 -109.75)"/><path class="a" d="M691,198l.88-1.14a5.41,5.41,0,0,0,3.84,1.58c1.83,0,3.19-.95,3.19-2.44s-1.34-2.67-4.85-2.67V192c3.17,0,4.39-1.09,4.39-2.5s-1.11-2.1-2.73-2.1a5.08,5.08,0,0,0-3.3,1.35l-.92-1.09a6.46,6.46,0,0,1,4.28-1.68c2.52,0,4.43,1.23,4.43,3.4,0,1.61-1.19,2.64-2.85,3.19v.08c1.78.38,3.31,1.56,3.31,3.4,0,2.38-2.18,3.83-4.84,3.83A6.57,6.57,0,0,1,691,198Z" transform="translate(-71.25 -109.75)"/><path class="a" d="M706.46,203c1.79-.79,2.67-1.93,2.65-3.67l-.38-1.93,1.18,1.66a1.66,1.66,0,0,1-2.82-1.1,1.57,1.57,0,0,1,1.68-1.59c1.24,0,1.89,1,1.89,2.69a5.17,5.17,0,0,1-3.69,5Z" transform="translate(-71.25 -109.75)"/><path class="a" d="M716.48,198.58c4.54-4,7-6.36,7-8.58,0-1.54-.92-2.61-2.89-2.61a4.66,4.66,0,0,0-3.22,1.6l-1-1a5.94,5.94,0,0,1,4.43-2c2.68,0,4.36,1.57,4.36,3.94,0,2.52-2.52,5-6.15,8.32.84-.07,1.7-.11,2.5-.11h4.39v1.49h-9.43Z" transform="translate(-71.25 -109.75)"/><path class="a" d="M731.66,203c1.79-.79,2.67-1.93,2.65-3.67l-.38-1.93,1.18,1.66a1.66,1.66,0,0,1-2.82-1.1,1.57,1.57,0,0,1,1.68-1.59c1.24,0,1.89,1,1.89,2.69a5.17,5.17,0,0,1-3.69,5Z" transform="translate(-71.25 -109.75)"/><path class="a" d="M742.19,198.16h3.86v-9.82h-3V187.2a9.73,9.73,0,0,0,3.44-1h1.3v11.94h3.49v1.45h-9.09Z" transform="translate(-71.25 -109.75)"/><path class="a" d="M754.81,201.82h4.43V185.73h-4.43v-1h5.81V202.8h-5.81Z" transform="translate(-71.25 -109.75)"/><path class="a" d="M681.87,220.75h5.82v1h-4.43v16.09h4.43v1h-5.82Z" transform="translate(-71.25 -109.75)"/><path class="a" d="M690.92,234l.87-1.16a5.31,5.31,0,0,0,3.77,1.54,3.12,3.12,0,0,0,3.39-3c0-1.85-1.31-2.92-3.28-2.92a5,5,0,0,0-2.73.8l-.92-.59.44-6.44H700v1.51h-6l-.36,4a5.7,5.7,0,0,1,2.48-.55c2.56,0,4.6,1.3,4.6,4.2s-2.39,4.54-5,4.54A6.76,6.76,0,0,1,690.92,234Z" transform="translate(-71.25 -109.75)"/><path class="a" d="M706.46,239c1.79-.79,2.67-1.93,2.65-3.67l-.38-1.93,1.18,1.66a1.66,1.66,0,0,1-2.82-1.1,1.57,1.57,0,0,1,1.68-1.59c1.24,0,1.89,1,1.89,2.69a5.17,5.17,0,0,1-3.69,5Z" transform="translate(-71.25 -109.75)"/><path class="a" d="M716.48,234.58c4.54-4,7-6.36,7-8.58,0-1.54-.92-2.61-2.89-2.61a4.66,4.66,0,0,0-3.22,1.6l-1-1a5.94,5.94,0,0,1,4.43-2c2.68,0,4.36,1.57,4.36,3.94,0,2.52-2.52,5-6.15,8.32.84-.07,1.7-.11,2.5-.11h4.39v1.49h-9.43Z" transform="translate(-71.25 -109.75)"/><path class="a" d="M731.66,239c1.79-.79,2.67-1.93,2.65-3.67l-.38-1.93,1.18,1.66a1.66,1.66,0,0,1-2.82-1.1,1.57,1.57,0,0,1,1.68-1.59c1.24,0,1.89,1,1.89,2.69a5.17,5.17,0,0,1-3.69,5Z" transform="translate(-71.25 -109.75)"/><path class="a" d="M742.19,234.16h3.86v-9.82h-3V223.2a9.73,9.73,0,0,0,3.44-1h1.3v11.94h3.49v1.45h-9.09Z" transform="translate(-71.25 -109.75)"/><path class="a" d="M754.81,237.82h4.43V221.73h-4.43v-1h5.81V238.8h-5.81Z" transform="translate(-71.25 -109.75)"/><path class="a" d="M694.47,256.75h5.82v1h-4.43v16.09h4.43v1h-5.82Z" transform="translate(-71.25 -109.75)"/><path class="a" d="M703.88,270.58c4.54-4,7-6.36,7-8.58,0-1.54-.92-2.61-2.89-2.61a4.64,4.64,0,0,0-3.22,1.6l-1-1a5.94,5.94,0,0,1,4.43-2c2.68,0,4.36,1.57,4.36,3.94s-2.52,5-6.15,8.32c.84-.07,1.7-.11,2.5-.11h4.39v1.49h-9.43Z" transform="translate(-71.25 -109.75)"/><path class="a" d="M719.06,275c1.79-.79,2.67-1.93,2.65-3.67l-.38-1.93,1.18,1.66a1.66,1.66,0,0,1-2.82-1.1,1.57,1.57,0,0,1,1.68-1.59c1.24,0,1.89,1,1.89,2.69a5.17,5.17,0,0,1-3.69,5Z" transform="translate(-71.25 -109.75)"/><path class="a" d="M729.59,270.16h3.86v-9.82h-3V259.2a9.73,9.73,0,0,0,3.44-1h1.3v11.94h3.49v1.45h-9.09Z" transform="translate(-71.25 -109.75)"/><path class="a" d="M742.21,273.82h4.43V257.73h-4.43v-1H748V274.8h-5.81Z" transform="translate(-71.25 -109.75)"/><path class="a" d="M707.07,292.75h5.82v1h-4.43v16.09h4.43v1h-5.82Z" transform="translate(-71.25 -109.75)"/><path class="a" d="M717,306.17h3.86v-9.83h-3V295.2a9.73,9.73,0,0,0,3.44-1h1.3v11.95h3.49v1.44H717Z" transform="translate(-71.25 -109.75)"/><path class="a" d="M729.61,309.82H734V293.73h-4.43v-1h5.81V310.8h-5.81Z" transform="translate(-71.25 -109.75)"/><path class="a" d="M707.07,328.75h5.82v1h-4.43v16.08h4.43v1h-5.82Z" transform="translate(-71.25 -109.75)"/><path class="a" d="M722.68,334.4c0-.74.06-1.64.1-2.38h-.1c-.45.65-.93,1.31-1.37,2l-3.61,4.53h8.69v1.41H715.77v-1.16l6.68-8.54h1.86v13.39h-1.63Z" transform="translate(-71.25 -109.75)"/><path class="a" d="M729.61,345.82H734V329.74h-4.43v-1h5.81V346.8h-5.81Z" transform="translate(-71.25 -109.75)"/><path class="a" d="M694.47,364.75h5.82v1h-4.43v16.08h4.43v1h-5.82Z" transform="translate(-71.25 -109.75)"/><path class="a" d="M711.52,367.73h-7.7v-1.51h9.7v1.07c-3.55,4-4.41,7.07-4.62,12.32h-1.83A17.91,17.91,0,0,1,711.52,367.73Z" transform="translate(-71.25 -109.75)"/><path class="a" d="M719.06,383c1.79-.79,2.67-1.93,2.65-3.67l-.38-1.93,1.18,1.66a1.66,1.66,0,0,1-2.82-1.09,1.57,1.57,0,0,1,1.68-1.6c1.24,0,1.89,1,1.89,2.69a5.17,5.17,0,0,1-3.69,5Z" transform="translate(-71.25 -109.75)"/><path class="a" d="M729.17,373.42c0-5.38,2.68-7.45,5.6-7.45a5.36,5.36,0,0,1,3.74,1.42l-1,1.1a3.9,3.9,0,0,0-2.66-1.07c-2.19,0-4.08,1.53-4.08,6,0,3.3,1.26,5.08,3.49,5.08a2.78,2.78,0,0,0,2.81-2.94,2.54,2.54,0,0,0-2.83-2.83,4.69,4.69,0,0,0-3.51,1.89l-.06-1.37a5.68,5.68,0,0,1,3.88-1.83,3.81,3.81,0,0,1,4.18,4.14,4.33,4.33,0,0,1-4.47,4.31C731.37,379.87,729.17,377.72,729.17,373.42Z" transform="translate(-71.25 -109.75)"/><path class="a" d="M742.21,381.82h4.43V365.74h-4.43v-1H748V382.8h-5.81Z" transform="translate(-71.25 -109.75)"/><path class="a" d="M707.07,400.75h5.82v1h-4.43v16.08h4.43v1h-5.82Z" transform="translate(-71.25 -109.75)"/><path class="a" d="M716.57,409.42c0-5.38,2.68-7.45,5.6-7.45a5.36,5.36,0,0,1,3.74,1.42l-1,1.1a3.88,3.88,0,0,0-2.66-1.07c-2.19,0-4.08,1.53-4.08,6,0,3.3,1.26,5.08,3.49,5.08a2.78,2.78,0,0,0,2.81-2.94,2.54,2.54,0,0,0-2.83-2.83,4.69,4.69,0,0,0-3.51,1.89l-.06-1.37a5.68,5.68,0,0,1,3.88-1.83,3.81,3.81,0,0,1,4.18,4.14,4.33,4.33,0,0,1-4.47,4.31C718.77,415.87,716.57,413.72,716.57,409.42Z" transform="translate(-71.25 -109.75)"/><path class="a" d="M729.61,417.82H734V401.74h-4.43v-1h5.81V418.8h-5.81Z" transform="translate(-71.25 -109.75)"/><path class="a" d="M707.07,436.75h5.82v1h-4.43v16.08h4.43v1h-5.82Z" transform="translate(-71.25 -109.75)"/><path class="a" d="M716.38,448.19c0-1.85,1.42-2.9,2.87-3.57v-.08a3.77,3.77,0,0,1-2-3.13c0-2.06,1.74-3.44,4.13-3.44,2.63,0,4.16,1.49,4.16,3.57a4.21,4.21,0,0,1-2,3.19v.08c1.47.74,2.63,1.58,2.63,3.49s-1.74,3.57-4.81,3.57S716.38,450.31,716.38,448.19Zm8.06,0c0-1.84-1.87-2.33-4.2-3.1-1.3.69-2.29,1.55-2.29,2.89s1.32,2.54,3.38,2.54S724.44,449.62,724.44,448.23Zm-.44-6.61a2.39,2.39,0,0,0-2.69-2.35,2.22,2.22,0,0,0-2.5,2.14c0,1.59,1.54,2.27,3.53,2.9A3.41,3.41,0,0,0,724,441.62Z" transform="translate(-71.25 -109.75)"/><path class="a" d="M729.61,453.82H734V437.74h-4.43v-1h5.81V454.8h-5.81Z" transform="translate(-71.25 -109.75)"/><path class="a" d="M187.44,192.87c0-4.49,1.83-6.9,4.81-6.9s4.81,2.41,4.81,6.9-1.83,7-4.81,7S187.44,197.32,187.44,192.87Zm8,0c0-3.84-1.32-5.5-3.19-5.5s-3.19,1.66-3.19,5.5,1.32,5.59,3.19,5.59S195.44,196.72,195.44,192.87Zm-4.49-.14a1.3,1.3,0,1,1,1.3,1.4A1.3,1.3,0,0,1,191,192.73Z" transform="translate(-71.25 -109.75)"/><path class="a" d="M245.57,193.42c0-5.38,2.68-7.45,5.6-7.45a5.31,5.31,0,0,1,3.74,1.42l-1,1.1a3.89,3.89,0,0,0-2.66-1.08c-2.19,0-4.08,1.54-4.08,6,0,3.3,1.26,5.08,3.49,5.08a2.78,2.78,0,0,0,2.81-2.94,2.54,2.54,0,0,0-2.83-2.83,4.69,4.69,0,0,0-3.51,1.89l-.06-1.37a5.68,5.68,0,0,1,3.88-1.83,3.81,3.81,0,0,1,4.18,4.14,4.33,4.33,0,0,1-4.47,4.31C247.77,199.87,245.57,197.72,245.57,193.42Z" transform="translate(-71.25 -109.75)"/><path class="a" d="M309.68,190.4c0-.74.06-1.64.1-2.38h-.1c-.45.65-.93,1.31-1.37,2l-3.61,4.53h8.69v1.41H302.77v-1.16l6.68-8.54h1.86v13.39h-1.63Z" transform="translate(-71.25 -109.75)"/><path class="a" d="M361.12,198l.87-1.16a5.32,5.32,0,0,0,3.78,1.54,3.12,3.12,0,0,0,3.38-3c0-1.85-1.31-2.92-3.28-2.92a5.06,5.06,0,0,0-2.73.8l-.92-.59.44-6.44h7.58v1.51h-6.05l-.36,4a5.7,5.7,0,0,1,2.48-.55c2.56,0,4.6,1.3,4.6,4.2s-2.39,4.54-5,4.54A6.76,6.76,0,0,1,361.12,198Z" transform="translate(-71.25 -109.75)"/><path class="a" d="M419.44,192.87c0-4.49,1.83-6.9,4.81-6.9s4.81,2.41,4.81,6.9-1.83,7-4.81,7S419.44,197.32,419.44,192.87Zm8,0c0-3.84-1.32-5.5-3.19-5.5s-3.19,1.66-3.19,5.5,1.32,5.59,3.19,5.59S427.44,196.72,427.44,192.87Zm-4.49-.14a1.3,1.3,0,1,1,1.3,1.4A1.3,1.3,0,0,1,423,192.73Z" transform="translate(-71.25 -109.75)"/><path class="a" d="M477.44,192.87c0-4.49,1.83-6.9,4.81-6.9s4.81,2.41,4.81,6.9-1.83,7-4.81,7S477.44,197.32,477.44,192.87Zm8,0c0-3.84-1.32-5.5-3.19-5.5s-3.19,1.66-3.19,5.5,1.32,5.59,3.19,5.59S485.44,196.72,485.44,192.87Zm-4.49-.14a1.3,1.3,0,1,1,1.3,1.4A1.3,1.3,0,0,1,481,192.73Z" transform="translate(-71.25 -109.75)"/><path class="a" d="M535.44,192.87c0-4.49,1.83-6.9,4.81-6.9s4.81,2.41,4.81,6.9-1.83,7-4.81,7S535.44,197.32,535.44,192.87Zm8,0c0-3.84-1.32-5.5-3.19-5.5s-3.19,1.66-3.19,5.5,1.32,5.59,3.19,5.59S543.44,196.72,543.44,192.87Zm-4.49-.14a1.3,1.3,0,1,1,1.3,1.4A1.3,1.3,0,0,1,539,192.73Z" transform="translate(-71.25 -109.75)"/><path class="a" d="M593.44,192.87c0-4.49,1.83-6.9,4.81-6.9s4.81,2.41,4.81,6.9-1.83,7-4.81,7S593.44,197.32,593.44,192.87Zm8,0c0-3.84-1.32-5.5-3.19-5.5s-3.19,1.66-3.19,5.5,1.32,5.59,3.19,5.59S601.44,196.72,601.44,192.87Zm-4.49-.14a1.3,1.3,0,1,1,1.3,1.4A1.3,1.3,0,0,1,597,192.73Z" transform="translate(-71.25 -109.75)"/><path class="a" d="M651.44,192.87c0-4.49,1.83-6.9,4.81-6.9s4.81,2.41,4.81,6.9-1.83,7-4.81,7S651.44,197.32,651.44,192.87Zm8,0c0-3.84-1.32-5.5-3.19-5.5s-3.19,1.66-3.19,5.5,1.32,5.59,3.19,5.59S659.44,196.72,659.44,192.87Zm-4.49-.14a1.3,1.3,0,1,1,1.3,1.4A1.3,1.3,0,0,1,655,192.73Z" transform="translate(-71.25 -109.75)"/><path class="a" d="M187.44,228.87c0-4.49,1.83-6.9,4.81-6.9s4.81,2.41,4.81,6.9-1.83,7-4.81,7S187.44,233.32,187.44,228.87Zm8,0c0-3.84-1.32-5.5-3.19-5.5s-3.19,1.66-3.19,5.5,1.32,5.59,3.19,5.59S195.44,232.72,195.44,228.87Zm-4.49-.14a1.3,1.3,0,1,1,1.3,1.4A1.3,1.3,0,0,1,191,228.73Z" transform="translate(-71.25 -109.75)"/><path class="a" d="M245.57,229.42c0-5.38,2.68-7.45,5.6-7.45a5.31,5.31,0,0,1,3.74,1.42l-1,1.1a3.89,3.89,0,0,0-2.66-1.08c-2.19,0-4.08,1.54-4.08,6,0,3.3,1.26,5.08,3.49,5.08a2.78,2.78,0,0,0,2.81-2.94,2.54,2.54,0,0,0-2.83-2.83,4.69,4.69,0,0,0-3.51,1.89l-.06-1.37a5.68,5.68,0,0,1,3.88-1.83,3.81,3.81,0,0,1,4.18,4.14,4.33,4.33,0,0,1-4.47,4.31C247.77,235.87,245.57,233.72,245.57,229.42Z" transform="translate(-71.25 -109.75)"/><path class="a" d="M309.68,226.4c0-.74.06-1.64.1-2.38h-.1c-.45.65-.93,1.31-1.37,2l-3.61,4.53h8.69v1.41H302.77v-1.16l6.68-8.54h1.86v13.39h-1.63Z" transform="translate(-71.25 -109.75)"/><path class="a" d="M361.12,234l.87-1.16a5.32,5.32,0,0,0,3.78,1.54,3.12,3.12,0,0,0,3.38-3c0-1.85-1.31-2.92-3.28-2.92a5.06,5.06,0,0,0-2.73.8l-.92-.59.44-6.44h7.58v1.51h-6.05l-.36,4a5.7,5.7,0,0,1,2.48-.55c2.56,0,4.6,1.3,4.6,4.2s-2.39,4.54-5,4.54A6.76,6.76,0,0,1,361.12,234Z" transform="translate(-71.25 -109.75)"/><path class="a" d="M419.44,228.87c0-4.49,1.83-6.9,4.81-6.9s4.81,2.41,4.81,6.9-1.83,7-4.81,7S419.44,233.32,419.44,228.87Zm8,0c0-3.84-1.32-5.5-3.19-5.5s-3.19,1.66-3.19,5.5,1.32,5.59,3.19,5.59S427.44,232.72,427.44,228.87Zm-4.49-.14a1.3,1.3,0,1,1,1.3,1.4A1.3,1.3,0,0,1,423,228.73Z" transform="translate(-71.25 -109.75)"/><path class="a" d="M485.12,223.73h-7.7v-1.51h9.7v1.07c-3.55,4.05-4.41,7.07-4.62,12.32h-1.83A17.91,17.91,0,0,1,485.12,223.73Z" transform="translate(-71.25 -109.75)"/><path class="a" d="M535.44,228.87c0-4.49,1.83-6.9,4.81-6.9s4.81,2.41,4.81,6.9-1.83,7-4.81,7S535.44,233.32,535.44,228.87Zm8,0c0-3.84-1.32-5.5-3.19-5.5s-3.19,1.66-3.19,5.5,1.32,5.59,3.19,5.59S543.44,232.72,543.44,228.87Zm-4.49-.14a1.3,1.3,0,1,1,1.3,1.4A1.3,1.3,0,0,1,539,228.73Z" transform="translate(-71.25 -109.75)"/><path class="a" d="M593.44,228.87c0-4.49,1.83-6.9,4.81-6.9s4.81,2.41,4.81,6.9-1.83,7-4.81,7S593.44,233.32,593.44,228.87Zm8,0c0-3.84-1.32-5.5-3.19-5.5s-3.19,1.66-3.19,5.5,1.32,5.59,3.19,5.59S601.44,232.72,601.44,228.87Zm-4.49-.14a1.3,1.3,0,1,1,1.3,1.4A1.3,1.3,0,0,1,597,228.73Z" transform="translate(-71.25 -109.75)"/><path class="a" d="M651.44,228.87c0-4.49,1.83-6.9,4.81-6.9s4.81,2.41,4.81,6.9-1.83,7-4.81,7S651.44,233.32,651.44,228.87Zm8,0c0-3.84-1.32-5.5-3.19-5.5s-3.19,1.66-3.19,5.5,1.32,5.59,3.19,5.59S659.44,232.72,659.44,228.87Zm-4.49-.14a1.3,1.3,0,1,1,1.3,1.4A1.3,1.3,0,0,1,655,228.73Z" transform="translate(-71.25 -109.75)"/><path class="a" d="M187.44,264.87c0-4.49,1.83-6.9,4.81-6.9s4.81,2.41,4.81,6.9-1.83,7-4.81,7S187.44,269.32,187.44,264.87Zm8,0c0-3.84-1.32-5.5-3.19-5.5s-3.19,1.66-3.19,5.5,1.32,5.59,3.19,5.59S195.44,268.72,195.44,264.87Zm-4.49-.14a1.3,1.3,0,1,1,1.3,1.4A1.3,1.3,0,0,1,191,264.73Z" transform="translate(-71.25 -109.75)"/><path class="a" d="M245.57,265.42c0-5.38,2.68-7.45,5.6-7.45a5.31,5.31,0,0,1,3.74,1.42l-1,1.1a3.89,3.89,0,0,0-2.66-1.08c-2.19,0-4.08,1.54-4.08,6,0,3.3,1.26,5.08,3.49,5.08a2.78,2.78,0,0,0,2.81-2.94,2.54,2.54,0,0,0-2.83-2.83,4.69,4.69,0,0,0-3.51,1.89l-.06-1.37a5.68,5.68,0,0,1,3.88-1.83,3.81,3.81,0,0,1,4.18,4.14,4.33,4.33,0,0,1-4.47,4.31C247.77,271.87,245.57,269.72,245.57,265.42Z" transform="translate(-71.25 -109.75)"/><path class="a" d="M309.68,262.4c0-.74.06-1.64.1-2.38h-.1c-.45.65-.93,1.31-1.37,2l-3.61,4.53h8.69v1.41H302.77v-1.16l6.68-8.54h1.86v13.39h-1.63Z" transform="translate(-71.25 -109.75)"/><path class="a" d="M361.12,270l.87-1.16a5.32,5.32,0,0,0,3.78,1.54,3.12,3.12,0,0,0,3.38-3.05c0-1.85-1.31-2.92-3.28-2.92a5.06,5.06,0,0,0-2.73.8l-.92-.59.44-6.44h7.58v1.51h-6.05l-.36,3.95a5.7,5.7,0,0,1,2.48-.55c2.56,0,4.6,1.3,4.6,4.2s-2.39,4.54-5,4.54A6.76,6.76,0,0,1,361.12,270Z" transform="translate(-71.25 -109.75)"/><path class="a" d="M419.44,264.87c0-4.49,1.83-6.9,4.81-6.9s4.81,2.41,4.81,6.9-1.83,7-4.81,7S419.44,269.32,419.44,264.87Zm8,0c0-3.84-1.32-5.5-3.19-5.5s-3.19,1.66-3.19,5.5,1.32,5.59,3.19,5.59S427.44,268.72,427.44,264.87Zm-4.49-.14a1.3,1.3,0,1,1,1.3,1.4A1.3,1.3,0,0,1,423,264.73Z" transform="translate(-71.25 -109.75)"/><path class="a" d="M485.12,259.73h-7.7v-1.51h9.7v1.07c-3.55,4-4.41,7.07-4.62,12.32h-1.83A17.91,17.91,0,0,1,485.12,259.73Z" transform="translate(-71.25 -109.75)"/><path class="a" d="M535.44,264.87c0-4.49,1.83-6.9,4.81-6.9s4.81,2.41,4.81,6.9-1.83,7-4.81,7S535.44,269.32,535.44,264.87Zm8,0c0-3.84-1.32-5.5-3.19-5.5s-3.19,1.66-3.19,5.5,1.32,5.59,3.19,5.59S543.44,268.72,543.44,264.87Zm-4.49-.14a1.3,1.3,0,1,1,1.3,1.4A1.3,1.3,0,0,1,539,264.73Z" transform="translate(-71.25 -109.75)"/><path class="a" d="M587.69,270.16h3.86v-9.82h-3V259.2a9.73,9.73,0,0,0,3.44-1h1.3v11.94h3.49v1.45h-9.09Z" transform="translate(-71.25 -109.75)"/><path class="a" d="M600.29,270.16h3.86v-9.82h-3V259.2a9.73,9.73,0,0,0,3.44-1h1.3v11.94h3.49v1.45h-9.09Z" transform="translate(-71.25 -109.75)"/><path class="a" d="M651.44,264.87c0-4.49,1.83-6.9,4.81-6.9s4.81,2.41,4.81,6.9-1.83,7-4.81,7S651.44,269.32,651.44,264.87Zm8,0c0-3.84-1.32-5.5-3.19-5.5s-3.19,1.66-3.19,5.5,1.32,5.59,3.19,5.59S659.44,268.72,659.44,264.87Zm-4.49-.14a1.3,1.3,0,1,1,1.3,1.4A1.3,1.3,0,0,1,655,264.73Z" transform="translate(-71.25 -109.75)"/><path class="a" d="M187.44,300.87c0-4.49,1.83-6.9,4.81-6.9s4.81,2.41,4.81,6.9-1.83,7-4.81,7S187.44,305.33,187.44,300.87Zm8,0c0-3.84-1.32-5.5-3.19-5.5s-3.19,1.66-3.19,5.5,1.32,5.59,3.19,5.59S195.44,304.72,195.44,300.87Zm-4.49-.14a1.3,1.3,0,1,1,1.3,1.4A1.3,1.3,0,0,1,191,300.73Z" transform="translate(-71.25 -109.75)"/><path class="a" d="M245.57,301.42c0-5.38,2.68-7.45,5.6-7.45a5.31,5.31,0,0,1,3.74,1.42l-1,1.1a3.89,3.89,0,0,0-2.66-1.08c-2.19,0-4.08,1.54-4.08,6,0,3.3,1.26,5.08,3.49,5.08a2.78,2.78,0,0,0,2.81-2.94,2.54,2.54,0,0,0-2.83-2.83,4.69,4.69,0,0,0-3.51,1.89l-.06-1.37a5.68,5.68,0,0,1,3.88-1.83,3.81,3.81,0,0,1,4.18,4.14,4.33,4.33,0,0,1-4.47,4.31C247.77,307.87,245.57,305.72,245.57,301.42Z" transform="translate(-71.25 -109.75)"/><path class="a" d="M309.68,298.4c0-.74.06-1.64.1-2.38h-.1c-.45.65-.93,1.31-1.37,2l-3.61,4.53h8.69v1.41H302.77v-1.16l6.68-8.54h1.86v13.39h-1.63Z" transform="translate(-71.25 -109.75)"/><path class="a" d="M361.12,306l.87-1.16a5.32,5.32,0,0,0,3.78,1.54,3.12,3.12,0,0,0,3.38-3.05c0-1.85-1.31-2.92-3.28-2.92a5.06,5.06,0,0,0-2.73.8l-.92-.59.44-6.44h7.58v1.51h-6.05l-.36,3.95a5.7,5.7,0,0,1,2.48-.55c2.56,0,4.6,1.3,4.6,4.2s-2.39,4.54-5,4.54A6.76,6.76,0,0,1,361.12,306Z" transform="translate(-71.25 -109.75)"/><path class="a" d="M245.57,337.42c0-5.38,2.68-7.45,5.6-7.45a5.36,5.36,0,0,1,3.74,1.42l-1,1.1a3.88,3.88,0,0,0-2.66-1.07c-2.19,0-4.08,1.53-4.08,6,0,3.3,1.26,5.08,3.49,5.08a2.78,2.78,0,0,0,2.81-2.94,2.54,2.54,0,0,0-2.83-2.83,4.69,4.69,0,0,0-3.51,1.89l-.06-1.37a5.68,5.68,0,0,1,3.88-1.83,3.81,3.81,0,0,1,4.18,4.14,4.33,4.33,0,0,1-4.47,4.31C247.77,343.87,245.57,341.72,245.57,337.42Z" transform="translate(-71.25 -109.75)"/><path class="a" d="M309.68,334.4c0-.74.06-1.64.1-2.38h-.1c-.45.65-.93,1.31-1.37,2l-3.61,4.53h8.69v1.41H302.77v-1.16l6.68-8.54h1.86v13.39h-1.63Z" transform="translate(-71.25 -109.75)"/><path class="a" d="M361.12,342l.87-1.16a5.32,5.32,0,0,0,3.78,1.54,3.12,3.12,0,0,0,3.38-3.05c0-1.85-1.31-2.92-3.28-2.92a5.06,5.06,0,0,0-2.73.8l-.92-.59.44-6.44h7.58v1.51h-6.05l-.36,3.95a5.7,5.7,0,0,1,2.48-.55c2.56,0,4.6,1.3,4.6,4.2s-2.39,4.54-5,4.54A6.76,6.76,0,0,1,361.12,342Z" transform="translate(-71.25 -109.75)"/><path class="a" d="M245.57,373.42c0-5.38,2.68-7.45,5.6-7.45a5.36,5.36,0,0,1,3.74,1.42l-1,1.1a3.88,3.88,0,0,0-2.66-1.07c-2.19,0-4.08,1.53-4.08,6,0,3.3,1.26,5.08,3.49,5.08a2.78,2.78,0,0,0,2.81-2.94,2.54,2.54,0,0,0-2.83-2.83,4.69,4.69,0,0,0-3.51,1.89l-.06-1.37a5.68,5.68,0,0,1,3.88-1.83,3.81,3.81,0,0,1,4.18,4.14,4.33,4.33,0,0,1-4.47,4.31C247.77,379.87,245.57,377.72,245.57,373.42Z" transform="translate(-71.25 -109.75)"/><path class="a" d="M309.68,370.4c0-.74.06-1.64.1-2.38h-.1c-.45.65-.93,1.31-1.37,2l-3.61,4.53h8.69v1.41H302.77v-1.16l6.68-8.54h1.86v13.39h-1.63Z" transform="translate(-71.25 -109.75)"/><path class="a" d="M361.12,378l.87-1.16a5.32,5.32,0,0,0,3.78,1.54,3.12,3.12,0,0,0,3.38-3.05c0-1.85-1.31-2.92-3.28-2.92a5.06,5.06,0,0,0-2.73.8l-.92-.59.44-6.44h7.58v1.51h-6.05l-.36,3.95a5.7,5.7,0,0,1,2.48-.55c2.56,0,4.6,1.3,4.6,4.2s-2.39,4.54-5,4.54A6.76,6.76,0,0,1,361.12,378Z" transform="translate(-71.25 -109.75)"/><path class="a" d="M245.57,409.42c0-5.38,2.68-7.45,5.6-7.45a5.36,5.36,0,0,1,3.74,1.42l-1,1.1a3.88,3.88,0,0,0-2.66-1.07c-2.19,0-4.08,1.53-4.08,6,0,3.3,1.26,5.08,3.49,5.08a2.78,2.78,0,0,0,2.81-2.94,2.54,2.54,0,0,0-2.83-2.83,4.69,4.69,0,0,0-3.51,1.89l-.06-1.37a5.68,5.68,0,0,1,3.88-1.83,3.81,3.81,0,0,1,4.18,4.14,4.33,4.33,0,0,1-4.47,4.31C247.77,415.87,245.57,413.72,245.57,409.42Z" transform="translate(-71.25 -109.75)"/><path class="a" d="M309.68,406.4c0-.74.06-1.64.1-2.38h-.1c-.45.65-.93,1.31-1.37,2l-3.61,4.53h8.69v1.41H302.77v-1.16l6.68-8.54h1.86v13.39h-1.63Z" transform="translate(-71.25 -109.75)"/><path class="a" d="M361.12,414l.87-1.16a5.32,5.32,0,0,0,3.78,1.54,3.12,3.12,0,0,0,3.38-3.05c0-1.85-1.31-2.92-3.28-2.92a5.06,5.06,0,0,0-2.73.8l-.92-.59.44-6.44h7.58v1.51h-6.05l-.36,3.95a5.7,5.7,0,0,1,2.48-.55c2.56,0,4.6,1.3,4.6,4.2s-2.39,4.54-5,4.54A6.76,6.76,0,0,1,361.12,414Z" transform="translate(-71.25 -109.75)"/><path class="a" d="M245.57,445.42c0-5.38,2.68-7.45,5.6-7.45a5.36,5.36,0,0,1,3.74,1.42l-1,1.1a3.88,3.88,0,0,0-2.66-1.07c-2.19,0-4.08,1.53-4.08,6,0,3.3,1.26,5.08,3.49,5.08a2.78,2.78,0,0,0,2.81-2.94,2.54,2.54,0,0,0-2.83-2.83,4.69,4.69,0,0,0-3.51,1.89l-.06-1.37a5.68,5.68,0,0,1,3.88-1.83,3.81,3.81,0,0,1,4.18,4.14,4.33,4.33,0,0,1-4.47,4.31C247.77,451.87,245.57,449.72,245.57,445.42Z" transform="translate(-71.25 -109.75)"/><path class="a" d="M309.68,442.4c0-.74.06-1.64.1-2.38h-.1c-.45.65-.93,1.31-1.37,2l-3.61,4.53h8.69v1.41H302.77v-1.16l6.68-8.54h1.86v13.39h-1.63Z" transform="translate(-71.25 -109.75)"/><path class="a" d="M361.12,450l.87-1.16a5.32,5.32,0,0,0,3.78,1.54,3.12,3.12,0,0,0,3.38-3.05c0-1.85-1.31-2.92-3.28-2.92a5.06,5.06,0,0,0-2.73.8l-.92-.59.44-6.44h7.58v1.51h-6.05l-.36,3.95a5.7,5.7,0,0,1,2.48-.55c2.56,0,4.6,1.3,4.6,4.2s-2.39,4.54-5,4.54A6.76,6.76,0,0,1,361.12,450Z" transform="translate(-71.25 -109.75)"/><path class="a" d="M419.12,306l.87-1.16a5.32,5.32,0,0,0,3.78,1.54,3.12,3.12,0,0,0,3.38-3.05c0-1.85-1.31-2.92-3.28-2.92a5.06,5.06,0,0,0-2.73.8l-.92-.59.44-6.44h7.58v1.51h-6.05l-.36,3.95a5.7,5.7,0,0,1,2.48-.55c2.56,0,4.6,1.3,4.6,4.2s-2.39,4.54-5,4.54A6.76,6.76,0,0,1,419.12,306Z" transform="translate(-71.25 -109.75)"/><path class="a" d="M485.12,295.73h-7.7v-1.51h9.7v1.07c-3.55,4-4.41,7.07-4.62,12.32h-1.83A17.91,17.91,0,0,1,485.12,295.73Z" transform="translate(-71.25 -109.75)"/><path class="a" d="M485.12,331.73h-7.7v-1.51h9.7v1.07c-3.55,4-4.41,7.07-4.62,12.32h-1.83A17.91,17.91,0,0,1,485.12,331.73Z" transform="translate(-71.25 -109.75)"/><path class="a" d="M485.12,367.73h-7.7v-1.51h9.7v1.07c-3.55,4-4.41,7.07-4.62,12.32h-1.83A17.91,17.91,0,0,1,485.12,367.73Z" transform="translate(-71.25 -109.75)"/><path class="a" d="M485.12,403.73h-7.7v-1.51h9.7v1.07c-3.55,4-4.41,7.07-4.62,12.32h-1.83A17.91,17.91,0,0,1,485.12,403.73Z" transform="translate(-71.25 -109.75)"/><path class="a" d="M485.12,439.73h-7.7v-1.51h9.7v1.07c-3.55,4-4.41,7.07-4.62,12.32h-1.83A17.91,17.91,0,0,1,485.12,439.73Z" transform="translate(-71.25 -109.75)"/><path class="a" d="M427.12,331.73h-7.7v-1.51h9.7v1.07c-3.55,4-4.41,7.07-4.62,12.32h-1.83A17.91,17.91,0,0,1,427.12,331.73Z" transform="translate(-71.25 -109.75)"/><path class="a" d="M427.12,367.73h-7.7v-1.51h9.7v1.07c-3.55,4-4.41,7.07-4.62,12.32h-1.83A17.91,17.91,0,0,1,427.12,367.73Z" transform="translate(-71.25 -109.75)"/><path class="a" d="M427.12,403.73h-7.7v-1.51h9.7v1.07c-3.55,4-4.41,7.07-4.62,12.32h-1.83A17.91,17.91,0,0,1,427.12,403.73Z" transform="translate(-71.25 -109.75)"/><path class="a" d="M427.12,439.73h-7.7v-1.51h9.7v1.07c-3.55,4-4.41,7.07-4.62,12.32h-1.83A17.91,17.91,0,0,1,427.12,439.73Z" transform="translate(-71.25 -109.75)"/><path class="a" d="M535.44,300.87c0-4.49,1.83-6.9,4.81-6.9s4.81,2.41,4.81,6.9-1.83,7-4.81,7S535.44,305.33,535.44,300.87Zm8,0c0-3.84-1.32-5.5-3.19-5.5s-3.19,1.66-3.19,5.5,1.32,5.59,3.19,5.59S543.44,304.72,543.44,300.87Zm-4.49-.14a1.3,1.3,0,1,1,1.3,1.4A1.3,1.3,0,0,1,539,300.73Z" transform="translate(-71.25 -109.75)"/><path class="a" d="M587.69,306.17h3.86v-9.83h-3V295.2a9.73,9.73,0,0,0,3.44-1h1.3v11.95h3.49v1.44h-9.09Z" transform="translate(-71.25 -109.75)"/><path class="a" d="M600.29,306.17h3.86v-9.83h-3V295.2a9.73,9.73,0,0,0,3.44-1h1.3v11.95h3.49v1.44h-9.09Z" transform="translate(-71.25 -109.75)"/><path class="a" d="M651.44,300.87c0-4.49,1.83-6.9,4.81-6.9s4.81,2.41,4.81,6.9-1.83,7-4.81,7S651.44,305.33,651.44,300.87Zm8,0c0-3.84-1.32-5.5-3.19-5.5s-3.19,1.66-3.19,5.5,1.32,5.59,3.19,5.59S659.44,304.72,659.44,300.87Zm-4.49-.14a1.3,1.3,0,1,1,1.3,1.4A1.3,1.3,0,0,1,655,300.73Z" transform="translate(-71.25 -109.75)"/><path class="a" d="M187.44,336.87c0-4.49,1.83-6.9,4.81-6.9s4.81,2.41,4.81,6.9-1.83,7-4.81,7S187.44,341.33,187.44,336.87Zm8,0c0-3.84-1.32-5.5-3.19-5.5s-3.19,1.66-3.19,5.5,1.32,5.59,3.19,5.59S195.44,340.72,195.44,336.87Zm-4.49-.14a1.3,1.3,0,1,1,1.3,1.4A1.3,1.3,0,0,1,191,336.73Z" transform="translate(-71.25 -109.75)"/><path class="a" d="M535.44,336.87c0-4.49,1.83-6.9,4.81-6.9s4.81,2.41,4.81,6.9-1.83,7-4.81,7S535.44,341.33,535.44,336.87Zm8,0c0-3.84-1.32-5.5-3.19-5.5s-3.19,1.66-3.19,5.5,1.32,5.59,3.19,5.59S543.44,340.72,543.44,336.87Zm-4.49-.14a1.3,1.3,0,1,1,1.3,1.4A1.3,1.3,0,0,1,539,336.73Z" transform="translate(-71.25 -109.75)"/><path class="a" d="M587.69,342.17h3.86v-9.83h-3v-1.13a9.71,9.71,0,0,0,3.44-1h1.3v11.95h3.49v1.44h-9.09Z" transform="translate(-71.25 -109.75)"/><path class="a" d="M600.29,342.17h3.86v-9.83h-3v-1.13a9.71,9.71,0,0,0,3.44-1h1.3v11.95h3.49v1.44h-9.09Z" transform="translate(-71.25 -109.75)"/><path class="a" d="M651.44,336.87c0-4.49,1.83-6.9,4.81-6.9s4.81,2.41,4.81,6.9-1.83,7-4.81,7S651.44,341.33,651.44,336.87Zm8,0c0-3.84-1.32-5.5-3.19-5.5s-3.19,1.66-3.19,5.5,1.32,5.59,3.19,5.59S659.44,340.72,659.44,336.87Zm-4.49-.14a1.3,1.3,0,1,1,1.3,1.4A1.3,1.3,0,0,1,655,336.73Z" transform="translate(-71.25 -109.75)"/><path class="a" d="M187.44,372.87c0-4.49,1.83-6.9,4.81-6.9s4.81,2.41,4.81,6.9-1.83,7-4.81,7S187.44,377.33,187.44,372.87Zm8,0c0-3.84-1.32-5.5-3.19-5.5s-3.19,1.66-3.19,5.5,1.32,5.59,3.19,5.59S195.44,376.72,195.44,372.87Zm-4.49-.14a1.3,1.3,0,1,1,1.3,1.4A1.3,1.3,0,0,1,191,372.73Z" transform="translate(-71.25 -109.75)"/><path class="a" d="M529.69,378.17h3.86v-9.83h-3v-1.13a9.71,9.71,0,0,0,3.44-1h1.3v11.95h3.49v1.44h-9.09Z" transform="translate(-71.25 -109.75)"/><path class="a" d="M541.87,373.42c0-5.38,2.68-7.45,5.6-7.45a5.36,5.36,0,0,1,3.74,1.42l-1,1.1a3.9,3.9,0,0,0-2.66-1.07c-2.19,0-4.08,1.53-4.08,6,0,3.3,1.26,5.08,3.49,5.08a2.78,2.78,0,0,0,2.81-2.94,2.54,2.54,0,0,0-2.83-2.83,4.69,4.69,0,0,0-3.51,1.89l-.06-1.37a5.68,5.68,0,0,1,3.88-1.83,3.81,3.81,0,0,1,4.18,4.14,4.33,4.33,0,0,1-4.47,4.31C544.07,379.87,541.87,377.72,541.87,373.42Z" transform="translate(-71.25 -109.75)"/><path class="a" d="M587.69,378.17h3.86v-9.83h-3v-1.13a9.71,9.71,0,0,0,3.44-1h1.3v11.95h3.49v1.44h-9.09Z" transform="translate(-71.25 -109.75)"/><path class="a" d="M606,370.4c0-.74.06-1.64.1-2.38H606c-.44.65-.93,1.31-1.37,2L601,374.51h8.69v1.41H599.07v-1.16l6.67-8.54h1.87v13.39H606Z" transform="translate(-71.25 -109.75)"/><path class="a" d="M651.44,372.87c0-4.49,1.83-6.9,4.81-6.9s4.81,2.41,4.81,6.9-1.83,7-4.81,7S651.44,377.33,651.44,372.87Zm8,0c0-3.84-1.32-5.5-3.19-5.5s-3.19,1.66-3.19,5.5,1.32,5.59,3.19,5.59S659.44,376.72,659.44,372.87Zm-4.49-.14a1.3,1.3,0,1,1,1.3,1.4A1.3,1.3,0,0,1,655,372.73Z" transform="translate(-71.25 -109.75)"/><path class="a" d="M187.44,408.87c0-4.49,1.83-6.9,4.81-6.9s4.81,2.41,4.81,6.9-1.83,7-4.81,7S187.44,413.33,187.44,408.87Zm8,0c0-3.84-1.32-5.5-3.19-5.5s-3.19,1.66-3.19,5.5,1.32,5.59,3.19,5.59S195.44,412.72,195.44,408.87Zm-4.49-.14a1.3,1.3,0,1,1,1.3,1.4A1.3,1.3,0,0,1,191,408.73Z" transform="translate(-71.25 -109.75)"/><path class="a" d="M529.69,414.17h3.86v-9.83h-3v-1.13a9.71,9.71,0,0,0,3.44-1h1.3v11.95h3.49v1.44h-9.09Z" transform="translate(-71.25 -109.75)"/><path class="a" d="M541.87,409.42c0-5.38,2.68-7.45,5.6-7.45a5.36,5.36,0,0,1,3.74,1.42l-1,1.1a3.9,3.9,0,0,0-2.66-1.07c-2.19,0-4.08,1.53-4.08,6,0,3.3,1.26,5.08,3.49,5.08a2.78,2.78,0,0,0,2.81-2.94,2.54,2.54,0,0,0-2.83-2.83,4.69,4.69,0,0,0-3.51,1.89l-.06-1.37a5.68,5.68,0,0,1,3.88-1.83,3.81,3.81,0,0,1,4.18,4.14,4.33,4.33,0,0,1-4.47,4.31C544.07,415.87,541.87,413.72,541.87,409.42Z" transform="translate(-71.25 -109.75)"/><path class="a" d="M587.69,414.17h3.86v-9.83h-3v-1.13a9.71,9.71,0,0,0,3.44-1h1.3v11.95h3.49v1.44h-9.09Z" transform="translate(-71.25 -109.75)"/><path class="a" d="M606,406.4c0-.74.06-1.64.1-2.38H606c-.44.65-.93,1.31-1.37,2L601,410.51h8.69v1.41H599.07v-1.16l6.67-8.54h1.87v13.39H606Z" transform="translate(-71.25 -109.75)"/><path class="a" d="M645.69,414.17h3.86v-9.83h-3v-1.13a9.71,9.71,0,0,0,3.44-1h1.3v11.95h3.49v1.44h-9.09Z" transform="translate(-71.25 -109.75)"/><path class="a" d="M657.87,409.42c0-5.38,2.68-7.45,5.6-7.45a5.36,5.36,0,0,1,3.74,1.42l-1,1.1a3.9,3.9,0,0,0-2.66-1.07c-2.19,0-4.08,1.53-4.08,6,0,3.3,1.26,5.08,3.49,5.08a2.78,2.78,0,0,0,2.81-2.94,2.54,2.54,0,0,0-2.83-2.83,4.69,4.69,0,0,0-3.51,1.89l-.06-1.37a5.68,5.68,0,0,1,3.88-1.83,3.81,3.81,0,0,1,4.18,4.14,4.33,4.33,0,0,1-4.47,4.31C660.07,415.87,657.87,413.72,657.87,409.42Z" transform="translate(-71.25 -109.75)"/><path class="a" d="M187.44,444.87c0-4.49,1.83-6.9,4.81-6.9s4.81,2.41,4.81,6.9-1.83,7-4.81,7S187.44,449.33,187.44,444.87Zm8,0c0-3.84-1.32-5.5-3.19-5.5s-3.19,1.66-3.19,5.5,1.32,5.59,3.19,5.59S195.44,448.72,195.44,444.87Zm-4.49-.14a1.3,1.3,0,1,1,1.3,1.4A1.3,1.3,0,0,1,191,444.73Z" transform="translate(-71.25 -109.75)"/><path class="a" d="M529.69,450.17h3.86v-9.83h-3v-1.13a9.71,9.71,0,0,0,3.44-1h1.3v11.95h3.49v1.44h-9.09Z" transform="translate(-71.25 -109.75)"/><path class="a" d="M541.87,445.42c0-5.38,2.68-7.45,5.6-7.45a5.36,5.36,0,0,1,3.74,1.42l-1,1.1a3.9,3.9,0,0,0-2.66-1.07c-2.19,0-4.08,1.53-4.08,6,0,3.3,1.26,5.08,3.49,5.08a2.78,2.78,0,0,0,2.81-2.94,2.54,2.54,0,0,0-2.83-2.83,4.69,4.69,0,0,0-3.51,1.89l-.06-1.37a5.68,5.68,0,0,1,3.88-1.83,3.81,3.81,0,0,1,4.18,4.14,4.33,4.33,0,0,1-4.47,4.31C544.07,451.87,541.87,449.72,541.87,445.42Z" transform="translate(-71.25 -109.75)"/><path class="a" d="M587.69,450.17h3.86v-9.83h-3v-1.13a9.71,9.71,0,0,0,3.44-1h1.3v11.95h3.49v1.44h-9.09Z" transform="translate(-71.25 -109.75)"/><path class="a" d="M606,442.4c0-.74.06-1.64.1-2.38H606c-.44.65-.93,1.31-1.37,2L601,446.51h8.69v1.41H599.07v-1.16l6.67-8.54h1.87v13.39H606Z" transform="translate(-71.25 -109.75)"/><path class="a" d="M645.69,450.17h3.86v-9.83h-3v-1.13a9.71,9.71,0,0,0,3.44-1h1.3v11.95h3.49v1.44h-9.09Z" transform="translate(-71.25 -109.75)"/><path class="a" d="M657.68,448.19c0-1.85,1.42-2.9,2.87-3.57v-.08a3.77,3.77,0,0,1-2-3.13c0-2.06,1.74-3.44,4.13-3.44,2.63,0,4.16,1.49,4.16,3.57a4.21,4.21,0,0,1-2,3.19v.08c1.47.74,2.63,1.58,2.63,3.49s-1.74,3.57-4.81,3.57S657.68,450.31,657.68,448.19Zm8.06,0c0-1.84-1.87-2.33-4.2-3.1-1.3.69-2.29,1.55-2.29,2.89s1.32,2.54,3.38,2.54S665.74,449.62,665.74,448.23Zm-.44-6.61a2.39,2.39,0,0,0-2.69-2.35,2.22,2.22,0,0,0-2.5,2.14c0,1.59,1.53,2.27,3.53,2.9A3.41,3.41,0,0,0,665.3,441.62Z" transform="translate(-71.25 -109.75)"/><path class="a" d="M236.07,109.75h5.82v1h-4.43v16.09h4.43v1h-5.82Z" transform="translate(-71.25 -109.75)"/><path class="a" d="M246,123.16h3.86v-9.82h-3V112.2a9.73,9.73,0,0,0,3.44-1h1.3v11.94h3.49v1.45H246Z" transform="translate(-71.25 -109.75)"/><path class="a" d="M258.61,126.82H263V110.73h-4.43v-1h5.81v18h-5.81Z" transform="translate(-71.25 -109.75)"/><path class="a" d="M294.07,109.75h5.82v1h-4.43v16.09h4.43v1h-5.82Z" transform="translate(-71.25 -109.75)"/><path class="a" d="M303.48,123.58c4.54-4,7-6.36,7-8.58,0-1.54-.92-2.61-2.89-2.61a4.66,4.66,0,0,0-3.22,1.6l-1-1a5.94,5.94,0,0,1,4.43-2c2.68,0,4.36,1.57,4.36,3.94,0,2.52-2.52,5-6.15,8.32.84-.07,1.7-.11,2.5-.11h4.39v1.49h-9.43Z" transform="translate(-71.25 -109.75)"/><path class="a" d="M316.61,126.82H321V110.73h-4.43v-1h5.81v18h-5.81Z" transform="translate(-71.25 -109.75)"/><path class="a" d="M352.07,109.75h5.82v1h-4.43v16.09h4.43v1h-5.82Z" transform="translate(-71.25 -109.75)"/><path class="a" d="M361.15,123l.88-1.14a5.41,5.41,0,0,0,3.84,1.58c1.83,0,3.19-1,3.19-2.44s-1.34-2.67-4.85-2.67V117c3.17,0,4.39-1.09,4.39-2.5s-1.11-2.1-2.73-2.1a5.08,5.08,0,0,0-3.3,1.35l-.92-1.09a6.46,6.46,0,0,1,4.28-1.68c2.52,0,4.43,1.23,4.43,3.4,0,1.61-1.19,2.64-2.85,3.19v.08c1.78.38,3.32,1.56,3.32,3.4,0,2.38-2.19,3.83-4.86,3.83A6.58,6.58,0,0,1,361.15,123Z" transform="translate(-71.25 -109.75)"/><path class="a" d="M374.61,126.82H379V110.73h-4.43v-1h5.81v18h-5.81Z" transform="translate(-71.25 -109.75)"/><path class="a" d="M410.07,109.75h5.82v1h-4.43v16.09h4.43v1h-5.82Z" transform="translate(-71.25 -109.75)"/><path class="a" d="M425.68,115.4c0-.74.06-1.64.1-2.38h-.1c-.45.65-.93,1.31-1.37,2l-3.61,4.53h8.69v1.41H418.77v-1.16l6.68-8.54h1.86v13.39h-1.63Z" transform="translate(-71.25 -109.75)"/><path class="a" d="M432.61,126.82H437V110.73h-4.43v-1h5.81v18h-5.81Z" transform="translate(-71.25 -109.75)"/><path class="a" d="M468.07,109.75h5.82v1h-4.43v16.09h4.43v1h-5.82Z" transform="translate(-71.25 -109.75)"/><path class="a" d="M477.12,123l.87-1.16a5.32,5.32,0,0,0,3.78,1.54,3.12,3.12,0,0,0,3.38-3c0-1.85-1.31-2.92-3.28-2.92a5.06,5.06,0,0,0-2.73.8l-.92-.59.44-6.44h7.58v1.51h-6.05l-.36,4a5.7,5.7,0,0,1,2.48-.55c2.56,0,4.6,1.3,4.6,4.2s-2.39,4.54-5,4.54A6.76,6.76,0,0,1,477.12,123Z" transform="translate(-71.25 -109.75)"/><path class="a" d="M490.61,126.82H495V110.73h-4.43v-1h5.81v18h-5.81Z" transform="translate(-71.25 -109.75)"/><path class="a" d="M526.07,109.75h5.82v1h-4.43v16.09h4.43v1h-5.82Z" transform="translate(-71.25 -109.75)"/><path class="a" d="M535.57,118.42c0-5.38,2.68-7.45,5.6-7.45a5.31,5.31,0,0,1,3.74,1.42l-1,1.1a3.89,3.89,0,0,0-2.66-1.08c-2.19,0-4.08,1.54-4.08,6,0,3.3,1.26,5.08,3.49,5.08a2.78,2.78,0,0,0,2.81-2.94,2.54,2.54,0,0,0-2.83-2.83,4.69,4.69,0,0,0-3.51,1.89l-.06-1.37a5.68,5.68,0,0,1,3.88-1.83,3.81,3.81,0,0,1,4.18,4.14,4.33,4.33,0,0,1-4.47,4.31C537.77,124.87,535.57,122.72,535.57,118.42Z" transform="translate(-71.25 -109.75)"/><path class="a" d="M548.61,126.82H553V110.73h-4.43v-1h5.81v18h-5.81Z" transform="translate(-71.25 -109.75)"/><path class="a" d="M584.07,109.75h5.82v1h-4.43v16.09h4.43v1h-5.82Z" transform="translate(-71.25 -109.75)"/><path class="a" d="M601.12,112.73h-7.7v-1.51h9.7v1.07c-3.55,4-4.41,7.07-4.62,12.32h-1.83A17.91,17.91,0,0,1,601.12,112.73Z" transform="translate(-71.25 -109.75)"/><path class="a" d="M606.61,126.82H611V110.73h-4.43v-1h5.81v18h-5.81Z" transform="translate(-71.25 -109.75)"/><path class="a" d="M642.07,109.75h5.82v1h-4.43v16.09h4.43v1h-5.82Z" transform="translate(-71.25 -109.75)"/><path class="a" d="M651.38,121.19c0-1.85,1.42-2.9,2.87-3.57v-.08a3.77,3.77,0,0,1-2-3.13c0-2.06,1.74-3.44,4.13-3.44,2.63,0,4.16,1.49,4.16,3.57a4.21,4.21,0,0,1-2,3.19v.08c1.47.74,2.63,1.58,2.63,3.49s-1.74,3.57-4.81,3.57S651.38,123.31,651.38,121.19Zm8.06,0c0-1.84-1.87-2.33-4.2-3.1-1.3.69-2.29,1.55-2.29,2.89s1.32,2.54,3.38,2.54S659.44,122.62,659.44,121.23Zm-.44-6.61a2.39,2.39,0,0,0-2.69-2.35,2.22,2.22,0,0,0-2.5,2.14c0,1.59,1.54,2.27,3.53,2.9A3.41,3.41,0,0,0,659,114.62Z" transform="translate(-71.25 -109.75)"/><path class="a" d="M664.61,126.82H669V110.73h-4.43v-1h5.81v18h-5.81Z" transform="translate(-71.25 -109.75)"/></svg>