<svg id="图层_1" data-name="图层 1" xmlns="http://www.w3.org/2000/svg" viewBox="0 0 385.5 188.12"><defs><style>.cls-1{fill:#3ea69f;}.cls-2{fill:none;stroke:#3ea69f;stroke-miterlimit:10;}</style></defs><path class="cls-1" d="M313.11,131.89h6v1h-4.58v16.64h4.58v1h-6Z" transform="translate(-301 -121)"/><path class="cls-1" d="M322.8,140.3c0-4.65,1.89-7.15,5-7.15s5,2.5,5,7.15-1.89,7.24-5,7.24S322.8,144.91,322.8,140.3Zm8.27,0c0-4-1.36-5.69-3.3-5.69s-3.3,1.72-3.3,5.69,1.37,5.78,3.3,5.78S331.07,144.28,331.07,140.3Zm-4.64-.15a1.35,1.35,0,1,1,2.69,0,1.35,1.35,0,1,1-2.69,0Z" transform="translate(-301 -121)"/><path class="cls-1" d="M336.42,149.56H341V132.92h-4.58v-1h6v18.69h-6Z" transform="translate(-301 -121)"/><path class="cls-1" d="M313.11,161.89h6v1h-4.58v16.64h4.58v1h-6Z" transform="translate(-301 -121)"/><path class="cls-1" d="M323.36,175.78h4V165.61h-3.11v-1.17a10.34,10.34,0,0,0,3.57-1h1.34v12.36h3.61v1.5h-9.41Z" transform="translate(-301 -121)"/><path class="cls-1" d="M336.42,179.56H341V162.92h-4.58v-1h6v18.69h-6Z" transform="translate(-301 -121)"/><path class="cls-1" d="M313.11,191.89h6v1h-4.58v16.64h4.58v1h-6Z" transform="translate(-301 -121)"/><path class="cls-1" d="M322.84,206.21c4.69-4.15,7.26-6.58,7.26-8.88,0-1.59-1-2.7-3-2.7a4.78,4.78,0,0,0-3.33,1.65l-1-1a6.19,6.19,0,0,1,4.59-2.11c2.78,0,4.52,1.63,4.52,4.09s-2.61,5.19-6.37,8.6c.87-.06,1.76-.1,2.58-.1h4.55v1.54h-9.76Z" transform="translate(-301 -121)"/><path class="cls-1" d="M336.42,209.56H341V192.92h-4.58v-1h6v18.69h-6Z" transform="translate(-301 -121)"/><path class="cls-1" d="M313.11,221.89h6v1h-4.58v16.64h4.58v1h-6Z" transform="translate(-301 -121)"/><path class="cls-1" d="M322.49,235.58l.91-1.17a5.63,5.63,0,0,0,4,1.63c1.89,0,3.3-1,3.3-2.52s-1.39-2.76-5-2.76v-1.37c3.28,0,4.55-1.13,4.55-2.59s-1.16-2.17-2.83-2.17A5.26,5.26,0,0,0,324,226l-1-1.13a6.74,6.74,0,0,1,4.44-1.74c2.6,0,4.58,1.29,4.58,3.52,0,1.68-1.24,2.74-2.95,3.31v.08c1.84.4,3.43,1.61,3.43,3.52,0,2.46-2.26,4-5,4A6.81,6.81,0,0,1,322.49,235.58Z" transform="translate(-301 -121)"/><path class="cls-1" d="M336.42,239.56H341V222.92h-4.58v-1h6v18.69h-6Z" transform="translate(-301 -121)"/><path class="cls-1" d="M313.11,251.89h6v1h-4.58v16.64h4.58v1h-6Z" transform="translate(-301 -121)"/><path class="cls-1" d="M329.25,257.74c0-.76.06-1.7.11-2.46h-.11c-.46.68-1,1.35-1.41,2L324.1,262h9v1.45h-11v-1.19l6.91-8.84h1.93v13.86h-1.69Z" transform="translate(-301 -121)"/><path class="cls-1" d="M336.42,269.56H341V252.92h-4.58v-1h6v18.69h-6Z" transform="translate(-301 -121)"/><path class="cls-1" d="M362.47,145.65l.89-1.2a5.53,5.53,0,0,0,3.91,1.59,3.22,3.22,0,0,0,3.5-3.15c0-1.91-1.35-3-3.39-3a5.16,5.16,0,0,0-2.82.82l-1-.6.46-6.67h7.84V135h-6.26l-.37,4.08a6.08,6.08,0,0,1,2.57-.56c2.65,0,4.76,1.35,4.76,4.35s-2.48,4.69-5.13,4.69A7,7,0,0,1,362.47,145.65Z" transform="translate(-301 -121)"/><path class="cls-1" d="M362.73,173.74c0-1.92,1.48-3,3-3.7V170a3.91,3.91,0,0,1-2.11-3.24c0-2.13,1.8-3.57,4.28-3.57,2.72,0,4.3,1.55,4.3,3.7a4.34,4.34,0,0,1-2.1,3.3v.09c1.52.76,2.71,1.63,2.71,3.61s-1.8,3.69-5,3.69S362.73,175.93,362.73,173.74Zm8.34,0c0-1.91-1.93-2.41-4.34-3.22-1.35.72-2.37,1.61-2.37,3s1.37,2.63,3.5,2.63S371.07,175.21,371.07,173.78Zm-.45-6.84a2.47,2.47,0,0,0-2.78-2.44,2.3,2.3,0,0,0-2.59,2.22c0,1.65,1.59,2.34,3.65,3A3.53,3.53,0,0,0,370.62,166.94Z" transform="translate(-301 -121)"/><path class="cls-1" d="M356.84,205.78h4V195.61h-3.11v-1.17a10.27,10.27,0,0,0,3.57-1h1.35v12.36h3.6v1.5h-9.41Z" transform="translate(-301 -121)"/><path class="cls-1" d="M369.88,205.78h4V195.61h-3.11v-1.17a10.2,10.2,0,0,0,3.56-1h1.35v12.36h3.61v1.5h-9.41Z" transform="translate(-301 -121)"/><path class="cls-1" d="M356.84,235.78h4V225.61h-3.11v-1.17a10.27,10.27,0,0,0,3.57-1h1.35v12.36h3.6v1.5h-9.41Z" transform="translate(-301 -121)"/><path class="cls-1" d="M375.77,227.74c0-.76.06-1.7.11-2.46h-.11c-.46.68-1,1.35-1.41,2l-3.74,4.7h9v1.45h-11v-1.19l6.91-8.84h1.93v13.86h-1.69Z" transform="translate(-301 -121)"/><path class="cls-1" d="M356.84,265.78h4V255.61h-3.11v-1.17a10.27,10.27,0,0,0,3.57-1h1.35v12.36h3.6v1.5h-9.41Z" transform="translate(-301 -121)"/><path class="cls-1" d="M377.27,255h-8v-1.56h10v1.1c-3.67,4.2-4.56,7.33-4.78,12.76h-1.89A18.54,18.54,0,0,1,377.27,255Z" transform="translate(-301 -121)"/><path class="cls-1" d="M413.11,131.89h6v1h-4.58v16.64h4.58v1h-6Z" transform="translate(-301 -121)"/><path class="cls-1" d="M422.47,145.65l.89-1.2a5.53,5.53,0,0,0,3.91,1.59,3.22,3.22,0,0,0,3.5-3.15c0-1.91-1.35-3-3.39-3a5.16,5.16,0,0,0-2.82.82l-1-.6.46-6.67h7.84V135h-6.26l-.37,4.08a6.08,6.08,0,0,1,2.57-.56c2.65,0,4.76,1.35,4.76,4.35s-2.48,4.69-5.13,4.69A7,7,0,0,1,422.47,145.65Z" transform="translate(-301 -121)"/><path class="cls-1" d="M436.42,149.56H441V132.92h-4.58v-1h6v18.69h-6Z" transform="translate(-301 -121)"/><path class="cls-1" d="M413.11,161.89h6v1h-4.58v16.64h4.58v1h-6Z" transform="translate(-301 -121)"/><path class="cls-1" d="M422.93,170.87c0-5.56,2.78-7.72,5.8-7.72a5.53,5.53,0,0,1,3.87,1.48l-1,1.13a4.12,4.12,0,0,0-2.76-1.11c-2.26,0-4.22,1.59-4.22,6.22,0,3.41,1.31,5.26,3.61,5.26a2.88,2.88,0,0,0,2.91-3,2.63,2.63,0,0,0-2.93-2.93,4.83,4.83,0,0,0-3.63,2l-.07-1.42a5.88,5.88,0,0,1,4-1.89c2.57,0,4.33,1.44,4.33,4.28a4.47,4.47,0,0,1-4.63,4.46C425.21,177.54,422.93,175.32,422.93,170.87Z" transform="translate(-301 -121)"/><path class="cls-1" d="M436.42,179.56H441V162.92h-4.58v-1h6v18.69h-6Z" transform="translate(-301 -121)"/><path class="cls-1" d="M413.11,191.89h6v1h-4.58v16.64h4.58v1h-6Z" transform="translate(-301 -121)"/><path class="cls-1" d="M430.75,195h-8v-1.56h10v1.1c-3.67,4.2-4.56,7.33-4.78,12.76h-1.89A18.54,18.54,0,0,1,430.75,195Z" transform="translate(-301 -121)"/><path class="cls-1" d="M436.42,209.56H441V192.92h-4.58v-1h6v18.69h-6Z" transform="translate(-301 -121)"/><path class="cls-1" d="M413.11,221.89h6v1h-4.58v16.64h4.58v1h-6Z" transform="translate(-301 -121)"/><path class="cls-1" d="M422.73,233.74c0-1.92,1.48-3,3-3.7V230a3.91,3.91,0,0,1-2.11-3.24c0-2.13,1.8-3.57,4.28-3.57,2.72,0,4.3,1.55,4.3,3.7a4.34,4.34,0,0,1-2.1,3.3v.09c1.52.76,2.71,1.63,2.71,3.6s-1.8,3.7-5,3.7S422.73,235.93,422.73,233.74Zm8.34,0c0-1.91-1.93-2.41-4.34-3.22-1.35.72-2.37,1.61-2.37,3s1.37,2.63,3.5,2.63S431.07,235.21,431.07,233.78Zm-.45-6.84a2.47,2.47,0,0,0-2.78-2.44,2.3,2.3,0,0,0-2.59,2.22c0,1.65,1.59,2.34,3.65,3A3.53,3.53,0,0,0,430.62,226.94Z" transform="translate(-301 -121)"/><path class="cls-1" d="M436.42,239.56H441V222.92h-4.58v-1h6v18.69h-6Z" transform="translate(-301 -121)"/><path class="cls-1" d="M413.11,251.89h6v1h-4.58v16.64h4.58v1h-6Z" transform="translate(-301 -121)"/><path class="cls-1" d="M423,266.08l1-1.13a4.08,4.08,0,0,0,2.76,1.09c2.24,0,4.21-1.59,4.21-6.21,0-3.42-1.32-5.24-3.6-5.24a2.87,2.87,0,0,0-2.94,3,2.66,2.66,0,0,0,3,2.93,4.86,4.86,0,0,0,3.61-2L431,260a5.74,5.74,0,0,1-4,1.89c-2.56,0-4.3-1.43-4.3-4.28a4.47,4.47,0,0,1,4.61-4.46c3,0,5.32,2.22,5.32,6.68,0,5.56-2.8,7.71-5.8,7.71A5.57,5.57,0,0,1,423,266.08Z" transform="translate(-301 -121)"/><path class="cls-1" d="M436.42,269.56H441V252.92h-4.58v-1h6v18.69h-6Z" transform="translate(-301 -121)"/><path class="cls-1" d="M463.36,145.78h4V135.61h-3.11v-1.17a10.34,10.34,0,0,0,3.57-1h1.34v12.36h3.61v1.5h-9.41Z" transform="translate(-301 -121)"/><path class="cls-1" d="M462.84,176.21c4.69-4.15,7.26-6.58,7.26-8.88,0-1.59-1-2.7-3-2.7a4.78,4.78,0,0,0-3.33,1.65l-1-1a6.19,6.19,0,0,1,4.59-2.11c2.78,0,4.52,1.63,4.52,4.09s-2.61,5.19-6.37,8.6c.87-.06,1.76-.1,2.58-.1h4.55v1.54h-9.76Z" transform="translate(-301 -121)"/><path class="cls-1" d="M462.49,205.58l.91-1.17a5.63,5.63,0,0,0,4,1.63c1.89,0,3.3-1,3.3-2.52s-1.39-2.76-5-2.76v-1.37c3.28,0,4.55-1.13,4.55-2.58s-1.16-2.18-2.83-2.18A5.26,5.26,0,0,0,464,196l-1-1.13a6.74,6.74,0,0,1,4.44-1.74c2.6,0,4.58,1.29,4.58,3.52,0,1.68-1.24,2.74-2.95,3.31v.08c1.84.4,3.43,1.61,3.43,3.52,0,2.46-2.26,4-5,4A6.81,6.81,0,0,1,462.49,205.58Z" transform="translate(-301 -121)"/><path class="cls-1" d="M462.8,230.3c0-4.65,1.89-7.15,5-7.15s5,2.5,5,7.15-1.89,7.24-5,7.24S462.8,234.91,462.8,230.3Zm8.27,0c0-4-1.36-5.69-3.3-5.69s-3.3,1.72-3.3,5.69,1.37,5.78,3.3,5.78S471.07,234.28,471.07,230.3Zm-4.64-.15a1.35,1.35,0,1,1,2.69,0,1.35,1.35,0,1,1-2.69,0Z" transform="translate(-301 -121)"/><path class="cls-1" d="M462.84,266.21c4.69-4.15,7.26-6.58,7.26-8.88,0-1.59-1-2.7-3-2.7a4.78,4.78,0,0,0-3.33,1.65l-1-1a6.19,6.19,0,0,1,4.59-2.11c2.78,0,4.52,1.63,4.52,4.09s-2.61,5.19-6.37,8.6c.87-.06,1.76-.1,2.58-.1h4.55v1.54h-9.76Z" transform="translate(-301 -121)"/><path class="cls-1" d="M506.59,131.89h6v1H508v16.64h4.59v1h-6Z" transform="translate(-301 -121)"/><path class="cls-1" d="M516.84,145.78h4V135.61h-3.11v-1.17a10.27,10.27,0,0,0,3.57-1h1.34v12.36h3.61v1.5h-9.41Z" transform="translate(-301 -121)"/><path class="cls-1" d="M529.31,140.3c0-4.65,1.89-7.15,5-7.15s5,2.5,5,7.15-1.89,7.24-5,7.24S529.31,144.91,529.31,140.3Zm8.28,0c0-4-1.37-5.69-3.3-5.69s-3.3,1.72-3.3,5.69,1.37,5.78,3.3,5.78S537.59,144.28,537.59,140.3Zm-4.65-.15a1.35,1.35,0,1,1,2.7,0,1.35,1.35,0,1,1-2.7,0Z" transform="translate(-301 -121)"/><path class="cls-1" d="M542.94,149.56h4.58V132.92h-4.58v-1h6v18.69h-6Z" transform="translate(-301 -121)"/><path class="cls-1" d="M506.59,161.89h6v1H508v16.64h4.59v1h-6Z" transform="translate(-301 -121)"/><path class="cls-1" d="M516.84,175.78h4V165.61h-3.11v-1.17a10.27,10.27,0,0,0,3.57-1h1.34v12.36h3.61v1.5h-9.41Z" transform="translate(-301 -121)"/><path class="cls-1" d="M529.88,175.78h4V165.61h-3.11v-1.17a10.2,10.2,0,0,0,3.56-1h1.35v12.36h3.61v1.5h-9.41Z" transform="translate(-301 -121)"/><path class="cls-1" d="M542.94,179.56h4.58V162.92h-4.58v-1h6v18.69h-6Z" transform="translate(-301 -121)"/><path class="cls-1" d="M506.59,191.89h6v1H508v16.64h4.59v1h-6Z" transform="translate(-301 -121)"/><path class="cls-1" d="M516.84,205.78h4V195.61h-3.11v-1.17a10.27,10.27,0,0,0,3.57-1h1.34v12.36h3.61v1.5h-9.41Z" transform="translate(-301 -121)"/><path class="cls-1" d="M529.36,206.21c4.69-4.15,7.26-6.58,7.26-8.88,0-1.59-1-2.7-3-2.7a4.78,4.78,0,0,0-3.33,1.65l-1-1a6.18,6.18,0,0,1,4.58-2.11c2.79,0,4.52,1.63,4.52,4.09s-2.6,5.19-6.36,8.6c.87-.06,1.76-.1,2.58-.1h4.54v1.54h-9.75Z" transform="translate(-301 -121)"/><path class="cls-1" d="M542.94,209.56h4.58V192.92h-4.58v-1h6v18.69h-6Z" transform="translate(-301 -121)"/><path class="cls-1" d="M506.59,221.89h6v1H508v16.64h4.59v1h-6Z" transform="translate(-301 -121)"/><path class="cls-1" d="M516.84,235.78h4V225.61h-3.11v-1.17a10.27,10.27,0,0,0,3.57-1h1.34v12.36h3.61v1.5h-9.41Z" transform="translate(-301 -121)"/><path class="cls-1" d="M529,235.58l.91-1.17a5.63,5.63,0,0,0,4,1.63c1.89,0,3.3-1,3.3-2.52s-1.39-2.76-5-2.76v-1.37c3.28,0,4.54-1.13,4.54-2.59s-1.15-2.17-2.82-2.17a5.26,5.26,0,0,0-3.41,1.39l-1-1.13a6.71,6.71,0,0,1,4.43-1.74c2.61,0,4.59,1.29,4.59,3.52,0,1.68-1.24,2.74-3,3.31v.08c1.85.4,3.44,1.61,3.44,3.52,0,2.46-2.26,4-5,4A6.81,6.81,0,0,1,529,235.58Z" transform="translate(-301 -121)"/><path class="cls-1" d="M542.94,239.56h4.58V222.92h-4.58v-1h6v18.69h-6Z" transform="translate(-301 -121)"/><path class="cls-1" d="M506.59,251.89h6v1H508v16.64h4.59v1h-6Z" transform="translate(-301 -121)"/><path class="cls-1" d="M516.84,265.78h4V255.61h-3.11v-1.17a10.27,10.27,0,0,0,3.57-1h1.34v12.36h3.61v1.5h-9.41Z" transform="translate(-301 -121)"/><path class="cls-1" d="M535.77,257.74c0-.76.06-1.7.11-2.46h-.11c-.46.68-1,1.35-1.41,2l-3.74,4.7h9v1.45h-11v-1.19l6.91-8.84h1.93v13.86h-1.69Z" transform="translate(-301 -121)"/><path class="cls-1" d="M542.94,269.56h4.58V252.92h-4.58v-1h6v18.69h-6Z" transform="translate(-301 -121)"/><path class="cls-1" d="M562.49,145.58l.91-1.17a5.63,5.63,0,0,0,4,1.63c1.89,0,3.3-1,3.3-2.52s-1.39-2.76-5-2.76v-1.37c3.28,0,4.55-1.13,4.55-2.58s-1.16-2.18-2.83-2.18A5.26,5.26,0,0,0,564,136l-1-1.13a6.74,6.74,0,0,1,4.44-1.74c2.6,0,4.58,1.29,4.58,3.52,0,1.68-1.24,2.74-2.95,3.31v.08c1.84.4,3.43,1.61,3.43,3.52,0,2.46-2.26,4-5,4A6.81,6.81,0,0,1,562.49,145.58Z" transform="translate(-301 -121)"/><path class="cls-1" d="M481.89,298.15c0-4.61,2.63-7.39,6.32-7.39a5.22,5.22,0,0,1,3.93,1.74l-1,1.15a3.72,3.72,0,0,0-2.89-1.28c-2.67,0-4.41,2.2-4.41,5.74s1.59,5.82,4.37,5.82a3.55,3.55,0,0,0,2.45-.82v-3.72H487.8v-1.5h4.52v6a6,6,0,0,1-4.26,1.65C484.47,305.54,481.89,302.8,481.89,298.15Z" transform="translate(-301 -121)"/><path class="cls-1" d="M497.57,307.93h6.54v1.19h-6.54Zm2.68-5.48H498v-.91a5.07,5.07,0,0,0,2.54-.89h1.15v8.47h-1.41Z" transform="translate(-301 -121)"/><path class="cls-1" d="M562.8,170.3c0-4.65,1.89-7.15,5-7.15s5,2.5,5,7.15-1.89,7.24-5,7.24S562.8,174.91,562.8,170.3Zm8.27,0c0-4-1.36-5.69-3.3-5.69s-3.3,1.72-3.3,5.69,1.37,5.78,3.3,5.78S571.07,174.28,571.07,170.3Zm-4.64-.15a1.35,1.35,0,1,1,2.69,0,1.35,1.35,0,1,1-2.69,0Z" transform="translate(-301 -121)"/><path class="cls-1" d="M563.36,205.78h4V195.61h-3.11v-1.17a10.34,10.34,0,0,0,3.57-1h1.34v12.36h3.61v1.5h-9.41Z" transform="translate(-301 -121)"/><path class="cls-1" d="M562.49,235.58l.91-1.17a5.63,5.63,0,0,0,4,1.63c1.89,0,3.3-1,3.3-2.52s-1.39-2.76-5-2.76v-1.37c3.28,0,4.55-1.13,4.55-2.59s-1.16-2.17-2.83-2.17A5.26,5.26,0,0,0,564,226l-1-1.13a6.74,6.74,0,0,1,4.44-1.74c2.6,0,4.58,1.29,4.58,3.52,0,1.68-1.24,2.74-2.95,3.31v.08c1.84.4,3.43,1.61,3.43,3.52,0,2.46-2.26,4-5,4A6.81,6.81,0,0,1,562.49,235.58Z" transform="translate(-301 -121)"/><path class="cls-1" d="M562.8,260.3c0-4.65,1.89-7.15,5-7.15s5,2.5,5,7.15-1.89,7.24-5,7.24S562.8,264.91,562.8,260.3Zm8.27,0c0-4-1.36-5.69-3.3-5.69s-3.3,1.72-3.3,5.69,1.37,5.78,3.3,5.78S571.07,264.28,571.07,260.3Zm-4.64-.15a1.35,1.35,0,1,1,2.69,0,1.35,1.35,0,1,1-2.69,0Z" transform="translate(-301 -121)"/><path class="cls-1" d="M606.59,131.89h6v1H608v16.64h4.59v1h-6Z" transform="translate(-301 -121)"/><path class="cls-1" d="M616.84,145.78h4V135.61h-3.11v-1.17a10.27,10.27,0,0,0,3.57-1h1.34v12.36h3.61v1.5h-9.41Z" transform="translate(-301 -121)"/><path class="cls-1" d="M629,145.65l.89-1.2a5.49,5.49,0,0,0,3.91,1.59,3.22,3.22,0,0,0,3.5-3.15c0-1.91-1.35-3-3.39-3a5.16,5.16,0,0,0-2.82.82l-1-.6.46-6.67h7.84V135h-6.26l-.37,4.08a6.08,6.08,0,0,1,2.57-.56c2.65,0,4.76,1.35,4.76,4.35s-2.48,4.69-5.13,4.69A7,7,0,0,1,629,145.65Z" transform="translate(-301 -121)"/><path class="cls-1" d="M642.94,149.56h4.58V132.92h-4.58v-1h6v18.69h-6Z" transform="translate(-301 -121)"/><path class="cls-1" d="M606.59,161.89h6v1H608v16.64h4.59v1h-6Z" transform="translate(-301 -121)"/><path class="cls-1" d="M616.84,175.78h4V165.61h-3.11v-1.17a10.27,10.27,0,0,0,3.57-1h1.34v12.36h3.61v1.5h-9.41Z" transform="translate(-301 -121)"/><path class="cls-1" d="M629.45,170.87c0-5.56,2.78-7.72,5.8-7.72a5.53,5.53,0,0,1,3.87,1.48l-1,1.13a4.12,4.12,0,0,0-2.76-1.11c-2.26,0-4.22,1.59-4.22,6.22,0,3.41,1.3,5.26,3.61,5.26a2.88,2.88,0,0,0,2.91-3,2.63,2.63,0,0,0-2.93-2.93,4.83,4.83,0,0,0-3.63,2l-.07-1.42a5.88,5.88,0,0,1,4-1.89c2.57,0,4.33,1.44,4.33,4.28a4.48,4.48,0,0,1-4.63,4.46C631.73,177.54,629.45,175.32,629.45,170.87Z" transform="translate(-301 -121)"/><path class="cls-1" d="M642.94,179.56h4.58V162.92h-4.58v-1h6v18.69h-6Z" transform="translate(-301 -121)"/><path class="cls-1" d="M663.36,145.78h4V135.61h-3.11v-1.17a10.34,10.34,0,0,0,3.57-1h1.34v12.36h3.61v1.5h-9.41Z" transform="translate(-301 -121)"/><path class="cls-1" d="M662.84,176.21c4.69-4.15,7.26-6.58,7.26-8.88,0-1.59-1-2.7-3-2.7a4.8,4.8,0,0,0-3.33,1.65l-1-1a6.19,6.19,0,0,1,4.59-2.11c2.78,0,4.52,1.63,4.52,4.09s-2.61,5.19-6.37,8.6c.87-.06,1.76-.1,2.58-.1h4.55v1.54h-9.76Z" transform="translate(-301 -121)"/><rect class="cls-2" x="0.5" y="0.5" width="384.5" height="159"/></svg>