<svg id="图层_1" data-name="图层 1" xmlns="http://www.w3.org/2000/svg" viewBox="0 0 599.22 84.56"><defs><style>.cls-1{fill:none;}.cls-1,.cls-3{stroke:#3ea69f;stroke-miterlimit:10;}.cls-2,.cls-3{fill:#3ea69f;}</style></defs><rect class="cls-1" x="0.5" y="50.91" width="88.47" height="32.96"/><line class="cls-1" x1="56.6" y1="50.91" x2="56.6" y2="83.87"/><rect class="cls-1" x="153.15" y="50.91" width="125.61" height="32.96"/><line class="cls-1" x1="222.25" y1="50.91" x2="222.25" y2="83.87"/><line class="cls-1" x1="71.62" y1="68.26" x2="131.5" y2="68.26"/><path class="cls-2" d="M260.28,125.71a30.31,30.31,0,0,0-8.55,4.75l1.72-4.75L251.73,121A30.34,30.34,0,0,0,260.28,125.71Z" transform="translate(-122.74 -57.45)"/><line class="cls-1" x1="311.15" y1="68.26" x2="257.26" y2="68.26"/><path class="cls-2" d="M439.93,125.71a30.45,30.45,0,0,1-8.55-4.76l1.72,4.76-1.72,4.75A30.18,30.18,0,0,1,439.93,125.71Z" transform="translate(-122.74 -57.45)"/><line class="cls-1" x1="450.15" y1="68.26" x2="419.26" y2="68.26"/><path class="cls-2" d="M578.93,125.71a30.45,30.45,0,0,1-8.55-4.76l1.72,4.76-1.72,4.75A30.18,30.18,0,0,1,578.93,125.71Z" transform="translate(-122.74 -57.45)"/><rect class="cls-1" x="470.36" y="51.1" width="128.36" height="32.96"/><line class="cls-1" x1="526.46" y1="51.1" x2="526.46" y2="84.06"/><path class="cls-2" d="M661.34,117.64h2.54l3.6,7.64,1.23,2.91h.06c-.1-1.39-.33-3.11-.33-4.63v-5.92h2.31v13.61h-2.54l-3.6-7.65-1.23-2.9h-.06c.1,1.45.33,3.09.33,4.59v6h-2.31Z" transform="translate(-122.74 -57.45)"/><path class="cls-2" d="M673.77,126.06v-8.42h2.44v8.59c0,2.21.9,3.16,2.35,3.16s2.4-.95,2.4-3.16v-8.59h2.33v8.42c0,3.71-1.74,5.44-4.73,5.44S673.77,129.77,673.77,126.06Z" transform="translate(-122.74 -57.45)"/><path class="cls-2" d="M687.28,117.64h2.41v11.57h6.38v2h-8.79Z" transform="translate(-122.74 -57.45)"/><path class="cls-2" d="M699.77,117.64h2.4v11.57h6.39v2h-8.79Z" transform="translate(-122.74 -57.45)"/><circle class="cls-3" cx="341.76" cy="68.05" r="2"/><circle class="cls-3" cx="368.76" cy="68.05" r="2"/><circle class="cls-3" cx="395.76" cy="68.05" r="2"/><path class="cls-2" d="M139.84,67V62.13h-2.9v-1.3l3-.11.23-3.27h1.45v3.27h5v1.41h-5V67c0,1.82.61,2.77,2.58,2.77a6.8,6.8,0,0,0,2.44-.46l.38,1.28a9.05,9.05,0,0,1-3.19.61C140.8,71.18,139.84,69.48,139.84,67Z" transform="translate(-122.74 -57.45)"/><path class="cls-2" d="M149.37,65.84a5.05,5.05,0,1,1,10.08,0,5,5,0,1,1-10.08,0Zm8.3,0c0-2.35-1.31-3.92-3.26-3.92s-3.25,1.57-3.25,3.92,1.3,3.89,3.25,3.89S157.67,68.17,157.67,65.84Z" transform="translate(-122.74 -57.45)"/><path class="cls-2" d="M162.67,60.72h1.42l.15,1.3h.06a5.44,5.44,0,0,1,3.53-1.55c2.75,0,4.22,2,4.22,5.21,0,3.46-2.18,5.5-4.64,5.5a4.84,4.84,0,0,1-3-1.33h-.05l.09,1.94v3.44h-1.74Zm7.6,5c0-2.25-.84-3.74-2.88-3.74a4.33,4.33,0,0,0-3,1.51v5.08a4.25,4.25,0,0,0,2.71,1.18C168.92,69.71,170.27,68.2,170.27,65.68Z" transform="translate(-122.74 -57.45)"/><path class="cls-2" d="M281.47,96.51A3.42,3.42,0,0,1,284.94,93a2.93,2.93,0,0,1,3.11,3.19,4.35,4.35,0,0,1-.06.7h-5.75V96h5.07l-.3.32c0-1.61-.8-2.41-2-2.41a2.4,2.4,0,0,0-2.36,2.65,2.47,2.47,0,0,0,2.67,2.66,3.66,3.66,0,0,0,2.07-.65l.42.76a4.64,4.64,0,0,1-2.63.81A3.44,3.44,0,0,1,281.47,96.51Z" transform="translate(-122.74 -57.45)"/><path class="cls-2" d="M292.36,97.64V90.89H290V90h3.57v7.78a1.23,1.23,0,0,0,1.35,1.4,3.06,3.06,0,0,0,1.27-.31l.3.87a4.23,4.23,0,0,1-1.83.4C293.16,100.09,292.36,99.25,292.36,97.64Z" transform="translate(-122.74 -57.45)"/><path class="cls-2" d="M298.27,96.51A3.42,3.42,0,0,1,301.74,93a2.93,2.93,0,0,1,3.11,3.19,4.35,4.35,0,0,1-.06.7H299V96h5.07l-.3.32c0-1.61-.8-2.41-2-2.41a2.4,2.4,0,0,0-2.36,2.65,2.47,2.47,0,0,0,2.67,2.66,3.66,3.66,0,0,0,2.07-.65l.42.76a4.64,4.64,0,0,1-2.63.81A3.44,3.44,0,0,1,298.27,96.51Z" transform="translate(-122.74 -57.45)"/><path class="cls-2" d="M306.53,93.12h.92l.1.89h0A1.68,1.68,0,0,1,309.13,93c.67,0,1.09.39,1.29,1.18.39-.73.81-1.18,1.6-1.18,1,0,1.51.74,1.51,2.1v4.87h-1.15V95.13c0-.78-.22-1.19-.73-1.19s-.73.35-1.09,1v4.93H309.5V95.13c0-.78-.2-1.19-.71-1.19s-.78.35-1.12,1v4.93h-1.14Z" transform="translate(-122.74 -57.45)"/><path class="cls-2" d="M315.07,96.51A3.42,3.42,0,0,1,318.54,93a2.93,2.93,0,0,1,3.11,3.19,4.35,4.35,0,0,1-.06.7h-5.75V96h5.07l-.3.32c0-1.61-.8-2.41-2-2.41a2.4,2.4,0,0,0-2.36,2.65,2.47,2.47,0,0,0,2.67,2.66,3.66,3.66,0,0,0,2.07-.65l.42.76a4.64,4.64,0,0,1-2.63.81A3.44,3.44,0,0,1,315.07,96.51Z" transform="translate(-122.74 -57.45)"/><path class="cls-2" d="M323.82,93.12h.95l.1,1.15h.05A3.52,3.52,0,0,1,327.49,93c1.61,0,2.35,1,2.35,2.74v4.23h-1.16V95.85c0-1.29-.45-1.89-1.56-1.89A2.88,2.88,0,0,0,325,95.18v4.74h-1.16Z" transform="translate(-122.74 -57.45)"/><path class="cls-2" d="M333.8,97.28V94.06h-1.93v-.87l2-.07.15-2.19h1v2.19h3.33v.94H335v3.23c0,1.22.41,1.85,1.72,1.85a4.55,4.55,0,0,0,1.63-.31l.25.86a6,6,0,0,1-2.13.4C334.44,100.09,333.8,99,333.8,97.28Z" transform="translate(-122.74 -57.45)"/><path class="cls-2" d="M359,97.64V90.89h-2.41V90h3.57v7.78a1.23,1.23,0,0,0,1.35,1.4,3.06,3.06,0,0,0,1.27-.31l.3.87a4.23,4.23,0,0,1-1.83.4C359.76,100.09,359,99.25,359,97.64Z" transform="translate(-122.74 -57.45)"/><path class="cls-2" d="M368.33,94.06h-3.16v-.94h4.32v6.8h-1.16Zm-.47-3.27a.93.93,0,0,1,1.85,0,.93.93,0,0,1-1.85,0Z" transform="translate(-122.74 -57.45)"/><path class="cls-2" d="M373.62,93.12h.95l.1,1.15h.05A3.52,3.52,0,0,1,377.29,93c1.61,0,2.35,1,2.35,2.74v4.23h-1.16V95.85c0-1.29-.45-1.89-1.56-1.89a2.88,2.88,0,0,0-2.14,1.22v4.74h-1.16Z" transform="translate(-122.74 -57.45)"/><path class="cls-2" d="M382.18,90h1.17v6.74h0l3.66-3.57h1.33l-5,5v1.84h-1.17Zm2.62,6.36.7-.76,3.25,4.37h-1.29Z" transform="translate(-122.74 -57.45)"/><line class="cls-1" x1="31.76" y1="20.55" x2="31.76" y2="36.52"/><path class="cls-2" d="M154.5,100a30.1,30.1,0,0,0-4.76-8.55l4.76,1.72,4.75-1.72A30.31,30.31,0,0,0,154.5,100Z" transform="translate(-122.74 -57.45)"/></svg>