<svg id="图层_1" data-name="图层 1" xmlns="http://www.w3.org/2000/svg" viewBox="0 0 199.51 33.96"><defs><style>.cls-1{fill:none;stroke:#3ea69f;stroke-miterlimit:10;}.cls-2{fill:#3ea69f;}</style></defs><rect class="cls-1" x="0.5" y="0.5" width="198.51" height="32.96"/><line class="cls-1" x1="64.71" y1="0.5" x2="64.71" y2="33.46"/><line class="cls-1" x1="135.71" y1="0.5" x2="135.71" y2="33.46"/><path class="cls-2" d="M548.31,202c0-2.94,2.23-4.61,4.88-4.61a4.4,4.4,0,0,1,3.18,1.28l-.74.95a3.6,3.6,0,0,0-2.39-1,3.21,3.21,0,0,0-3.4,3.37,3.17,3.17,0,0,0,3.36,3.33,4.17,4.17,0,0,0,2.7-1.1l.67,1a5.18,5.18,0,0,1-3.47,1.37C550.36,206.61,548.31,204.94,548.31,202Z" transform="translate(-536.99 -183.21)"/><path class="cls-2" d="M558.75,202a4.33,4.33,0,1,1,4.32,4.57A4.28,4.28,0,0,1,558.75,202Zm7.11,0c0-2-1.12-3.37-2.79-3.37s-2.79,1.35-2.79,3.37,1.11,3.33,2.79,3.33S565.86,204,565.86,202Z" transform="translate(-536.99 -183.21)"/><path class="cls-2" d="M569.69,202a4.4,4.4,0,0,1,4.47-4.57,3.76,3.76,0,0,1,4,4.1,5.48,5.48,0,0,1-.07.9h-7.4v-1.15h6.52l-.38.42c0-2.08-1-3.1-2.63-3.1a3.08,3.08,0,0,0-3,3.4,3.17,3.17,0,0,0,3.42,3.42,4.71,4.71,0,0,0,2.66-.83l.54,1a6,6,0,0,1-3.38,1A4.43,4.43,0,0,1,569.69,202Z" transform="translate(-536.99 -183.21)"/><path class="cls-2" d="M581.12,197.73l2.54-.09h5.09v1.21h-7.63Zm2.5-.82a3.2,3.2,0,0,1,3.53-3.55,6.51,6.51,0,0,1,2.52.5l-.34,1.12a4.67,4.67,0,0,0-2-.41,2,2,0,0,0-2.2,2.28v9.54h-1.48Z" transform="translate(-536.99 -183.21)"/><path class="cls-2" d="M610.09,202a4.4,4.4,0,0,1,4.47-4.57,3.76,3.76,0,0,1,4,4.1,5.48,5.48,0,0,1-.07.9h-7.4v-1.15h6.52l-.38.42c0-2.08-1-3.1-2.63-3.1a3.08,3.08,0,0,0-3,3.4,3.17,3.17,0,0,0,3.42,3.42,4.71,4.71,0,0,0,2.66-.83l.54,1a6,6,0,0,1-3.38,1A4.43,4.43,0,0,1,610.09,202Z" transform="translate(-536.99 -183.21)"/><path class="cls-2" d="M624.13,201.86l-3.06-4.22h1.64l1.38,1.91c.31.49.67,1,1,1.48h.07c.33-.47.69-1,1-1.49l1.3-1.9h1.58L626,202l3.35,4.41h-1.66l-1.51-2c-.38-.49-.78-1.08-1.15-1.59h-.08c-.36.53-.72,1.05-1.08,1.61l-1.44,2h-1.58Z" transform="translate(-536.99 -183.21)"/><path class="cls-2" d="M632.14,197.64h1.22l.13,1.12h0a4.68,4.68,0,0,1,3-1.33c2.36,0,3.62,1.74,3.62,4.46,0,3-1.87,4.72-4,4.72a4.14,4.14,0,0,1-2.61-1.13h0l.07,1.65v3h-1.49Zm6.52,4.25c0-1.92-.72-3.2-2.47-3.2a3.71,3.71,0,0,0-2.56,1.3v4.35a3.65,3.65,0,0,0,2.33,1C637.51,205.35,638.66,204.05,638.66,201.89Z" transform="translate(-536.99 -183.21)"/><path class="cls-2" d="M642.35,202a4.33,4.33,0,1,1,4.32,4.57A4.28,4.28,0,0,1,642.35,202Zm7.11,0c0-2-1.12-3.37-2.79-3.37s-2.79,1.35-2.79,3.37,1.11,3.33,2.79,3.33S649.46,204,649.46,202Z" transform="translate(-536.99 -183.21)"/><path class="cls-2" d="M653.74,197.64H655l.13,1.48h.07a4.56,4.56,0,0,1,3.3-1.69c2.07,0,3,1.22,3,3.53v5.43H660v-5.23c0-1.66-.58-2.44-2-2.44-1,0-1.75.53-2.76,1.57v6.1h-1.49Z" transform="translate(-536.99 -183.21)"/><path class="cls-2" d="M686.29,203.46v-8.68H683.2v-1.2h4.59v10a1.58,1.58,0,0,0,1.73,1.8,4,4,0,0,0,1.64-.4l.38,1.12a5.4,5.4,0,0,1-2.35.52C687.32,206.61,686.29,205.53,686.29,203.46Z" transform="translate(-536.99 -183.21)"/><path class="cls-2" d="M698.34,198.85h-4.05v-1.21h5.54v8.75h-1.49Zm-.6-4.19a1.19,1.19,0,0,1,2.38,0,1.19,1.19,0,0,1-2.38,0Z" transform="translate(-536.99 -183.21)"/><path class="cls-2" d="M705.14,197.64h1.22l.13,1.48h.07a4.56,4.56,0,0,1,3.3-1.69c2.07,0,3,1.22,3,3.53v5.43h-1.49v-5.23c0-1.66-.58-2.44-2-2.44-1,0-1.75.53-2.76,1.57v6.1h-1.49Z" transform="translate(-536.99 -183.21)"/><path class="cls-2" d="M716.16,193.58h1.49v8.66h.07l4.7-4.6h1.71L717.65,204v2.37h-1.49Zm3.36,8.17.9-1,4.18,5.61h-1.66Z" transform="translate(-536.99 -183.21)"/></svg>