<svg id="图层_1" data-name="图层 1" xmlns="http://www.w3.org/2000/svg" viewBox="0 0 685.72 110.96"><defs><style>.cls-1,.cls-3{fill:none;stroke:#3ea69f;stroke-miterlimit:10;}.cls-2,.cls-4{fill:#3ea69f;}.cls-3{stroke-dasharray:9 9;}.cls-4{font-size:41.45px;font-family:HanyiSentyDiary, Hanyi Senty Diary;}</style></defs><rect class="cls-1" x="98.91" y="0.5" width="88.47" height="32.96"/><line class="cls-1" x1="155.01" y1="0.5" x2="155.01" y2="33.46"/><path class="cls-2" d="M224.23,148.42h-.07l-.17,1.17h-1.44V134.12h1.81v4.22l-.09,2h.07a5.17,5.17,0,0,1,3.54-1.61c2.84,0,4.39,2.11,4.39,5.37,0,3.61-2.26,5.71-4.76,5.71A5.22,5.22,0,0,1,224.23,148.42Zm6.19-4.26c0-2.32-.87-3.87-3-3.87a4.47,4.47,0,0,0-3.08,1.57v5.26a4.4,4.4,0,0,0,2.85,1.21C229,148.33,230.42,146.77,230.42,144.16Z" transform="translate(-113.78 -126)"/><path class="cls-2" d="M235.31,146.86c0-2.37,2.22-3.52,7.67-4a2.51,2.51,0,0,0-2.8-2.65,7.37,7.37,0,0,0-3.7,1.26l-.71-1.22a9.25,9.25,0,0,1,4.71-1.52c2.89,0,4.3,1.72,4.3,4.35v6.47h-1.5l-.15-1.43h-.06a7.15,7.15,0,0,1-4.15,1.69C236.94,149.85,235.31,148.75,235.31,146.86Zm7.67,0V144.1c-4.52.34-5.89,1.24-5.89,2.63,0,1.19,1.09,1.67,2.3,1.67A5.77,5.77,0,0,0,243,146.83Z" transform="translate(-113.78 -126)"/><path class="cls-2" d="M251.08,145.49v-5h-3v-1.35l3.07-.11.24-3.39h1.5V139h5.17v1.46h-5.17v5c0,1.89.63,2.87,2.67,2.87a7,7,0,0,0,2.52-.48l.39,1.32a9.14,9.14,0,0,1-3.3.63C252.08,149.85,251.08,148.09,251.08,145.49Z" transform="translate(-113.78 -126)"/><rect class="cls-1" x="251.56" y="0.5" width="88.47" height="32.96"/><line class="cls-1" x1="307.66" y1="0.5" x2="307.66" y2="33.46"/><path class="cls-2" d="M374.92,144.34c0-3.55,2.69-5.57,5.89-5.57a5.34,5.34,0,0,1,3.84,1.55l-.89,1.15a4.35,4.35,0,0,0-2.89-1.2,3.88,3.88,0,0,0-4.1,4.07,3.83,3.83,0,0,0,4.06,4,5,5,0,0,0,3.26-1.33l.8,1.17a6.25,6.25,0,0,1-4.19,1.65C377.4,149.85,374.92,147.83,374.92,144.34Z" transform="translate(-113.78 -126)"/><path class="cls-2" d="M388,146.86c0-2.37,2.21-3.52,7.67-4a2.51,2.51,0,0,0-2.81-2.65,7.36,7.36,0,0,0-3.69,1.26l-.72-1.22a9.33,9.33,0,0,1,4.72-1.52c2.89,0,4.3,1.72,4.3,4.35v6.47h-1.5l-.15-1.43h-.07a7.1,7.1,0,0,1-4.15,1.69C389.59,149.85,388,148.75,388,146.86Zm7.67,0V144.1c-4.52.34-5.89,1.24-5.89,2.63,0,1.19,1.08,1.67,2.3,1.67A5.77,5.77,0,0,0,395.63,146.83Z" transform="translate(-113.78 -126)"/><path class="cls-2" d="M403.73,145.49v-5h-3v-1.35l3.07-.11.24-3.39h1.49V139h5.18v1.46h-5.18v5c0,1.89.63,2.87,2.68,2.87a7,7,0,0,0,2.52-.48l.39,1.32a9.19,9.19,0,0,1-3.3.63C404.73,149.85,403.73,148.09,403.73,145.49Z" transform="translate(-113.78 -126)"/><rect class="cls-1" x="404.21" y="0.5" width="88.47" height="32.96"/><line class="cls-1" x1="460.31" y1="0.5" x2="460.31" y2="33.46"/><path class="cls-2" d="M527.37,148.2l.83-1.19a7.53,7.53,0,0,0,4.58,1.43c1.79,0,2.66-.74,2.66-1.63s-.42-1.37-3.29-1.95-4.12-1.5-4.12-3.09,1.5-3,4.39-3a7.89,7.89,0,0,1,4.25,1.35l-.87,1.15a6.23,6.23,0,0,0-3.54-1.11c-1.78,0-2.43.72-2.43,1.53s.91,1.3,3.08,1.76c3.5.76,4.35,1.62,4.35,3.25s-1.67,3.15-4.69,3.15A9.32,9.32,0,0,1,527.37,148.2Z" transform="translate(-113.78 -126)"/><path class="cls-2" d="M540.61,146.86c0-2.37,2.21-3.52,7.67-4a2.51,2.51,0,0,0-2.81-2.65,7.33,7.33,0,0,0-3.69,1.26l-.72-1.22a9.33,9.33,0,0,1,4.72-1.52c2.89,0,4.3,1.72,4.3,4.35v6.47h-1.5l-.15-1.43h-.07a7.1,7.1,0,0,1-4.15,1.69C542.24,149.85,540.61,148.75,540.61,146.86Zm7.67,0V144.1c-4.52.34-5.89,1.24-5.89,2.63,0,1.19,1.08,1.67,2.3,1.67A5.77,5.77,0,0,0,548.28,146.83Z" transform="translate(-113.78 -126)"/><path class="cls-2" d="M556.38,145.49v-5h-3v-1.35l3.07-.11.23-3.39h1.5V139h5.18v1.46h-5.18v5c0,1.89.63,2.87,2.68,2.87a7,7,0,0,0,2.52-.48l.39,1.32a9.2,9.2,0,0,1-3.31.63C557.38,149.85,556.38,148.09,556.38,145.49Z" transform="translate(-113.78 -126)"/><rect class="cls-1" x="332.21" y="77.5" width="88.47" height="32.96"/><line class="cls-1" x1="388.31" y1="77.5" x2="388.31" y2="110.46"/><path class="cls-2" d="M455.09,216h1.44l.15,1.39h0a2.63,2.63,0,0,1,2.41-1.65c1.05,0,1.7.61,2,1.83.61-1.13,1.26-1.83,2.48-1.83,1.48,0,2.35,1.15,2.35,3.26v7.56h-1.79v-7.43c0-1.21-.34-1.84-1.13-1.84s-1.13.54-1.69,1.63v7.64H459.7v-7.43c0-1.21-.31-1.84-1.09-1.84s-1.22.54-1.74,1.63v7.64h-1.78Z" transform="translate(-113.78 -126)"/><path class="cls-2" d="M468.61,223.86c0-2.37,2.21-3.52,7.67-4a2.51,2.51,0,0,0-2.81-2.65,7.33,7.33,0,0,0-3.69,1.26l-.72-1.22a9.33,9.33,0,0,1,4.72-1.52c2.89,0,4.3,1.72,4.3,4.35v6.47h-1.5l-.15-1.43h-.07a7.11,7.11,0,0,1-4.15,1.7C470.24,226.86,468.61,225.75,468.61,223.86Zm7.67,0V221.1c-4.52.34-5.89,1.24-5.89,2.63,0,1.19,1.08,1.67,2.3,1.67A5.77,5.77,0,0,0,476.28,223.83Z" transform="translate(-113.78 -126)"/><path class="cls-2" d="M484.38,222.49v-5h-3v-1.35l3.07-.11.23-3.39h1.5V216h5.18v1.46h-5.18v5c0,1.89.63,2.87,2.68,2.87a7,7,0,0,0,2.52-.48l.39,1.32a9.19,9.19,0,0,1-3.31.64C485.38,226.86,484.38,225.09,484.38,222.49Z" transform="translate(-113.78 -126)"/><rect class="cls-1" x="556.85" y="0.5" width="128.36" height="32.96"/><line class="cls-1" x1="612.95" y1="0.5" x2="612.95" y2="33.46"/><path class="cls-2" d="M679.56,139h1.85l2.44,6c.41,1.06.8,2.11,1.17,3.13h.09c.36-1,.71-2.07,1.15-3.13l2.43-6h1.74L686,149.59h-2Z" transform="translate(-113.78 -126)"/><path class="cls-2" d="M693.25,146.86c0-2.37,2.22-3.52,7.67-4a2.5,2.5,0,0,0-2.8-2.65,7.3,7.3,0,0,0-3.69,1.26l-.72-1.22a9.32,9.32,0,0,1,4.71-1.52c2.89,0,4.31,1.72,4.31,4.35v6.47h-1.5l-.15-1.43H701a7.1,7.1,0,0,1-4.15,1.69C694.88,149.85,693.25,148.75,693.25,146.86Zm7.67,0V144.1c-4.52.34-5.88,1.24-5.88,2.63,0,1.19,1.08,1.67,2.3,1.67A5.75,5.75,0,0,0,700.92,146.83Z" transform="translate(-113.78 -126)"/><path class="cls-2" d="M709,145.49v-5h-3v-1.35l3.06-.11.24-3.39h1.5V139H716v1.46h-5.17v5c0,1.89.63,2.87,2.67,2.87a7,7,0,0,0,2.52-.48l.4,1.32a9.2,9.2,0,0,1-3.31.63C710,149.85,709,148.09,709,145.49Z" transform="translate(-113.78 -126)"/><path class="cls-2" d="M738.87,135.59h2.55l3.59,7.65,1.24,2.9h.06c-.1-1.39-.33-3.11-.33-4.63v-5.92h2.3V149.2h-2.54l-3.6-7.65-1.23-2.9h-.06c.1,1.45.33,3.09.33,4.6v5.95h-2.31Z" transform="translate(-113.78 -126)"/><path class="cls-2" d="M751.31,144v-8.42h2.43v8.6c0,2.2.91,3.15,2.36,3.15s2.39-1,2.39-3.15v-8.6h2.34V144c0,3.71-1.75,5.44-4.73,5.44S751.31,147.72,751.31,144Z" transform="translate(-113.78 -126)"/><path class="cls-2" d="M764.81,135.59h2.41v11.57h6.38v2h-8.79Z" transform="translate(-113.78 -126)"/><path class="cls-2" d="M777.3,135.59h2.41v11.57h6.38v2H777.3Z" transform="translate(-113.78 -126)"/><line class="cls-1" x1="170.03" y1="17.85" x2="229.91" y2="17.85"/><path class="cls-2" d="M349.73,143.85a30.18,30.18,0,0,0-8.55,4.75l1.72-4.75-1.72-4.76A30.2,30.2,0,0,0,349.73,143.85Z" transform="translate(-113.78 -126)"/><line class="cls-1" x1="47.22" y1="17.85" x2="77.26" y2="17.85"/><path class="cls-2" d="M197.08,143.85a30.18,30.18,0,0,0-8.55,4.75l1.72-4.75-1.72-4.76A30.2,30.2,0,0,0,197.08,143.85Z" transform="translate(-113.78 -126)"/><line class="cls-3" x1="322.68" y1="17.85" x2="382.56" y2="17.85"/><path class="cls-2" d="M502.38,143.85a30.18,30.18,0,0,0-8.55,4.75l1.72-4.75-1.72-4.76A30.2,30.2,0,0,0,502.38,143.85Z" transform="translate(-113.78 -126)"/><line class="cls-1" x1="475.33" y1="17.85" x2="535.21" y2="17.85"/><path class="cls-2" d="M655,143.85a30.12,30.12,0,0,0-8.54,4.75l1.72-4.75-1.72-4.76A30.15,30.15,0,0,0,655,143.85Z" transform="translate(-113.78 -126)"/><path class="cls-2" d="M113.78,139h1.48l.15,1.35h.07a5.64,5.64,0,0,1,3.65-1.61c2.84,0,4.37,2.11,4.37,5.39,0,3.59-2.26,5.69-4.81,5.69a5,5,0,0,1-3.15-1.36h0l.09,2v3.56h-1.81Zm7.87,5.13c0-2.32-.87-3.87-3-3.87a4.47,4.47,0,0,0-3.08,1.57v5.26a4.37,4.37,0,0,0,2.8,1.21C120.26,148.33,121.65,146.77,121.65,144.16Z" transform="translate(-113.78 -126)"/><path class="cls-2" d="M129.27,145.49v-5h-3v-1.35l3.06-.11.24-3.39h1.5V139h5.17v1.46h-5.17v5c0,1.89.63,2.87,2.67,2.87a7,7,0,0,0,2.52-.48l.39,1.32a9.14,9.14,0,0,1-3.3.63C130.27,149.85,129.27,148.09,129.27,145.49Z" transform="translate(-113.78 -126)"/><path class="cls-2" d="M141,139h1.49l.18,2.5h0a5.59,5.59,0,0,1,4.72-2.76,4.37,4.37,0,0,1,2.08.44l-.41,1.54a5.29,5.29,0,0,0-2-.35c-1.58,0-3.08.81-4.34,3v6.17H141Z" transform="translate(-113.78 -126)"/><line class="cls-1" x1="322.72" y1="17.5" x2="337.84" y2="63.76"/><path class="cls-2" d="M453.5,195.5a30.31,30.31,0,0,0-7.18-6.65l5.06.16,4-3.11A30.26,30.26,0,0,0,453.5,195.5Z" transform="translate(-113.78 -126)"/><line class="cls-1" x1="423.82" y1="49.04" x2="403.72" y2="95.5"/><path class="cls-2" d="M540,169.5a30.07,30.07,0,0,1-7.76,6l5,.31,3.68,3.46A30.24,30.24,0,0,1,540,169.5Z" transform="translate(-113.78 -126)"/><text class="cls-4" transform="translate(426.57 74.7)">①</text><text class="cls-4" transform="translate(296.57 63.7)">②</text></svg>