<svg id="图层_1" data-name="图层 1" xmlns="http://www.w3.org/2000/svg" viewBox="0 0 259.2 227.01"><defs><style>.cls-1{fill:none;stroke:#3ea69f;stroke-miterlimit:10;}.cls-2{fill:#3ea69f;}</style></defs><circle class="cls-1" cx="27.79" cy="18.5" r="18"/><path class="cls-2" d="M300.77,110.1c0-4.49,1.83-6.9,4.81-6.9s4.81,2.41,4.81,6.9-1.83,7-4.81,7S300.77,114.55,300.77,110.1Zm8,0c0-3.84-1.32-5.5-3.19-5.5s-3.19,1.66-3.19,5.5,1.32,5.59,3.19,5.59S308.77,114,308.77,110.1Zm-4.49-.14a1.3,1.3,0,1,1,1.3,1.4A1.31,1.31,0,0,1,304.28,110Z" transform="translate(-277.8 -92.34)"/><circle class="cls-1" cx="27.79" cy="95.5" r="18"/><path class="cls-2" d="M301.32,192.39h3.86v-9.82h-3v-1.14a9.73,9.73,0,0,0,3.44-1h1.3v11.94h3.49v1.45h-9.09Z" transform="translate(-277.8 -92.34)"/><circle class="cls-1" cx="27.79" cy="160.5" r="18"/><path class="cls-2" d="M300.81,257.81c4.54-4,7-6.36,7-8.58,0-1.54-.93-2.61-2.9-2.61a4.62,4.62,0,0,0-3.21,1.6l-1-1a6,6,0,0,1,4.43-2c2.69,0,4.37,1.57,4.37,3.94,0,2.52-2.52,5-6.16,8.32.84-.07,1.7-.11,2.5-.11h4.39v1.49h-9.43Z" transform="translate(-277.8 -92.34)"/><path class="cls-2" d="M298.27,310.05c0-3.82,2.18-6.13,5.24-6.13a4.34,4.34,0,0,1,3.26,1.45l-.87.95a3.05,3.05,0,0,0-2.39-1.06c-2.22,0-3.66,1.82-3.66,4.75s1.32,4.83,3.62,4.83a3,3,0,0,0,2-.69v-3.08h-2.34v-1.24h3.74v5a5,5,0,0,1-3.53,1.37C300.41,316.17,298.27,313.9,298.27,310.05Z" transform="translate(-277.8 -92.34)"/><path class="cls-2" d="M310.67,318l.76-.6a2.33,2.33,0,0,0,2,1.05c.86,0,1.58-.45,1.58-1.25s-.75-1.24-2.35-1.24v-.74c1.42,0,2.08-.55,2.08-1.27s-.57-1.1-1.44-1.1a2.22,2.22,0,0,0-1.62.84l-.68-.61a3.06,3.06,0,0,1,2.47-1.17c1.31,0,2.43.72,2.43,1.89,0,.85-.47,1.37-1.41,1.73a1.81,1.81,0,0,1,1.68,1.73c0,1.29-1.21,2.11-2.67,2.11A3.32,3.32,0,0,1,310.67,318Z" transform="translate(-277.8 -92.34)"/><path class="cls-2" d="M420.74,266.93l.31.38v.31c0,.2-1,.44-2.95.72v.14a19,19,0,0,0,.61,2.68c1.53-.19,2.3-.55,2.3-1.08q0-1.29.69-1.29c.07,0,.16.09.27.29v1.06h.15a17.78,17.78,0,0,0,2.19-.5c.58.27.87.58.87.94a40.79,40.79,0,0,1-1.18,6.07c0,1.45-.12,2.19-.37,2.23q-1.47,0-3.06-2a.48.48,0,0,1-.07-.26l.09-.05a4.19,4.19,0,0,0,2.21,1c.16,0,.38-1,.64-3,.12,0,.18-.17.18-.52a4.58,4.58,0,0,0-1.88-.95,4.62,4.62,0,0,1-.9,2.11h-.14a10.69,10.69,0,0,0-2-.59c-.12,1.12-.47,1.68-1,1.68h0s0-.08-.07-.08l.33-1.38-.09-.43v-.74c0-.29,0-.73-.09-1.33h-1.13a1.83,1.83,0,0,1-.09.39q.18,3.89.34,5.91c0,.41-.16.62-.36.62-.47,0-.7-1.17-.7-3.49q-.16-.94-.5-5.81a.43.43,0,0,1,.43-.37c.53.23.79.79.79,1.69h.92l.22-.11a22,22,0,0,1-.25-2.4v-.57c-.74,0-1.1-.23-1.1-.69q.12-.36.36-.36C417.6,267.19,419,267.1,420.74,266.93Zm-2.05,5.51v.25c0,.7.63,1.27,1.89,1.69v-.16l.26-2.32-.22-.12h-.19Q418.69,272.11,418.69,272.44Zm3.12-.76V272l1.89,1.38h.15a8.4,8.4,0,0,0,.44-2.68C422.64,271,421.81,271.37,421.81,271.68Z" transform="translate(-277.8 -92.34)"/><path class="cls-2" d="M434.9,266.11h.26c.21.41.94.81,2.19,1.18,2.14.68,3.21,1.19,3.21,1.52V269l-.17.09h-.17a13.66,13.66,0,0,0-4-1.27q.33,5.73.33,6.92-.37,5.4-.76,5.4a6.17,6.17,0,0,1-.16-1.77v-4.9a23.74,23.74,0,0,0-.43-5.82h-.08q-.53.71-2.79,4.56a2.26,2.26,0,0,0-.67.42l-.17-.08q0-.63,2.78-5.49A.88.88,0,0,1,434.9,266.11Z" transform="translate(-277.8 -92.34)"/><path class="cls-2" d="M447.87,267.71c1.41.16,2.11.61,2.11,1.36a4.6,4.6,0,0,1-.67,1.94c.37.45.62.68.75.68a.9.9,0,0,1,.42-.18q.51,0,.51.93h.17c1.13-.27,1.69-.49,1.69-.68,0-.82.17-1.3.51-1.43h.17c.08,0,.2.11.33.34v.08l-.08.85c.05,0,.08,0,.08.09l.59-.09h.34a.94.94,0,0,1,.92.51v.42c0,.35-.58,1.19-1.76,2.53a3.74,3.74,0,0,0-.51,2.11v.5h.09l1.85-1.26v-.76c0-.11.07-.17.17-.17h.09q.93,0,1.68,1.35v.34c0,.11-.05.17-.16.17h-.09a2,2,0,0,1-.93-.42,18.1,18.1,0,0,1-2,1.59,3,3,0,0,1-2.1,1.19c-.15,0-.29-.14-.43-.42,0-.21.27-.52.76-.93l.25-2.2h-.67c-.08,0-.16-.08-.25-.25v-.08c0-.27.36-.7,1.09-1.27,0-.9-.09-1.35-.17-1.35-.95.15-1.43.32-1.43.51v.16a5.5,5.5,0,0,0,.34,2c0,.08-.09.16-.25.25H451c-.26,0-.48-.34-.67-1h-.09c-.45,2.64-.81,4-1.09,4H449c-1.68-.73-2.53-1.63-2.53-2.69l.18-.08c.95,1.06,1.6,1.6,1.93,1.6a6.83,6.83,0,0,0,.85-3l-1.27.42h-.42c-.17-.05-.25-.22-.25-.51.85-1.46,1.27-2.22,1.27-2.27s-.09,0-.09-.08l-.17.08c-.45-.1-.67-.21-.67-.34v-.34a6.88,6.88,0,0,0,1.26-2.86c-1-.3-1.52-.53-1.52-.68v-.33C447.53,268,447.65,267.85,447.87,267.71Zm1.94,4.48a8.63,8.63,0,0,1-.76,1.68h.76l.25.17h.09V274a17.23,17.23,0,0,0-.17-1.77Zm.67-5.65c.28,0,.56.47.85,1.43h.17a2.12,2.12,0,0,1,1.18-.5,1.44,1.44,0,0,1,.68.59v.07c0,.73-.62,1.75-1.86,3.05a.6.6,0,0,0-.34.16h-.09q-.21,0-.33-.84l.09-.33c0-.12-.26-1.25-.77-3.38Zm.93,2.95v.42h.22a1.8,1.8,0,0,0,1.07-1.71Q452,268.37,451.41,269.49ZM453.6,273v.92h.09a3.22,3.22,0,0,0,1.18-1.26l-.17-.08C454,272.64,453.6,272.78,453.6,273Z" transform="translate(-277.8 -92.34)"/><path class="cls-2" d="M468.4,266.16c.18.07.27.23.27.5v.15a4.75,4.75,0,0,0-.59,1.88c.05,0,.08,0,.08.12a7.6,7.6,0,0,1,2.24-.46l.12.19v.18l-1.26.76v2.07a.73.73,0,0,1,.33.1l1.66-.5a.74.74,0,0,1,.21.49v.17c0,.22-.71.53-2.11.94v1l.09.69c1.54-.24,2.71-.38,3.49-.43l.13.19v.14c0,.25-.62.5-1.84.76a9.93,9.93,0,0,1-1.79.51l-.08.58v.09c0,.22,0,.34.08.34-.05,1.06-.16,1.6-.34,1.6H469a.67.67,0,0,1-.59-.28v-.31a5,5,0,0,0-.08-.84,3.22,3.22,0,0,0,.08-.76v-.11l-.12-.24a4.68,4.68,0,0,0-.9.17c-.9-.13-1.34-.3-1.34-.5V275c0-.1.08-.15.25-.17l.58.08q1.53-.17,1.53-.66a2.89,2.89,0,0,0,.08-.77v-.26a.22.22,0,0,0-.25-.25h-.09a17.47,17.47,0,0,1-2.1.25l-.83-.1a29.86,29.86,0,0,0-1.29,4.15v.15c1,.3,2.78.95,5.48,2h.2l.6-.33h0c.06,0,.09,0,.09.08-.06.61-.34.92-.85.92h-.41a36.52,36.52,0,0,1-4.11-1.43,12.11,12.11,0,0,0-2.15-.42q0,.16-.27.33h-.14a.07.07,0,0,1-.08-.08v-.16a3.07,3.07,0,0,1,.58-1.48,29.63,29.63,0,0,0,1.35-3.92c0-.18-.08-.27-.25-.27h-.84a.61.61,0,0,1-.59-.35v-.15c0-.05.09-.13.28-.24h1.74a1.37,1.37,0,0,1,.73.33h.15a3.84,3.84,0,0,0,1.17-2.2c-2.54,0-3.82-.43-3.82-1.29a.45.45,0,0,1,.17-.05,17.16,17.16,0,0,1,2,.71c0-.19.63-.32,1.9-.38a5,5,0,0,0,.54-1.66C467.77,266.56,468.07,266.16,468.4,266.16ZM467,272h.29c.79-.05,1.18-.19,1.18-.44l-.08-.75a.63.63,0,0,1,.08-.24,2.79,2.79,0,0,1-.08-.68H468C467.75,269.87,467.4,270.57,467,272Z" transform="translate(-277.8 -92.34)"/><path class="cls-2" d="M485,265.39c.67.08,1,.33,1,.76s-.54,1.09-1.61,2.2a3.42,3.42,0,0,1,.67.93,9.08,9.08,0,0,1,2-.51h.51c.51,0,.76.59.76,1.77.1,2.11.35,4.73.76,7.84v.18c0,.12-.14.2-.43.24a7.74,7.74,0,0,1-1.85-2.27l.17-.08,1,.76h.16a42.51,42.51,0,0,1-.66-7.34l.08-.43-.17-.08c-1.24.26-1.86.46-1.86.59v2.28h.08a12.62,12.62,0,0,1,1.69-.25v.16c0,.13-.57.46-1.69,1-.05.17-.1.26-.16.26l.08.42v.33a8,8,0,0,0,1.52-.42l.08.18a9.71,9.71,0,0,0-1.68,1.51l.08.42v2.37h-.08c-.19,0-.44-.87-.76-2.61a3.73,3.73,0,0,0-1.52.58V277h.17c0-.17,0-.26.16-.26h.18a16.56,16.56,0,0,0-.18,2.53,8,8,0,0,0,4,1.1c0,.06.08.08.24.08v.26c-.75.06-1.32.08-1.68.08h-.51c-1.28,0-3.2-1-5.73-2.95l-.43-.09c-.25,1.19-.5,1.78-.75,1.78h-.26c-.14,0-.22-.11-.25-.34q0-.69,2.7-7.6v-.08h-.08a8.47,8.47,0,0,1-2.37.85c-.26-.11-.4-.23-.42-.35,0-.28,1.1-.76,3.29-1.43.34,0,.51.12.51.26v.59l-1.94,5.15V277c0,.18.92.79,2.78,1.85v-.07a13.26,13.26,0,0,0-.17-1.52,9.3,9.3,0,0,0,.08-1.1q0-6.75.43-6.75h.16l.35.25a2.22,2.22,0,0,1,.58-.09v-.08c-.67-.72-1-1.23-1-1.52v-.16c0-.14.11-.23.34-.26.39.08.59.19.59.34q1.35-1,1.35-1.77c-.46.05-1.31.22-2.53.5h-.26c-.08,0-.2-.11-.33-.33S483.1,265.66,485,265.39Zm-5.83,2.37h.25c1.37.54,2.1.93,2.2,1.17v.17c0,.09-.11.17-.34.26-1.52-.53-2.28-.89-2.28-1.1v-.34C479,267.81,479,267.76,479.13,267.76Zm4.05,3v1.94c0,.11.07.17.17.17,1-.13,1.52-.44,1.52-.92s0-1.19.09-2C483.77,270,483.18,270.29,483.18,270.79Zm0,2.71v1.93h.09c1.06-.49,1.6-.91,1.6-1.27v-.08c0-.5-.12-.76-.26-.76h-1.26C483.24,273.34,483.18,273.4,483.18,273.5Z" transform="translate(-277.8 -92.34)"/><path class="cls-2" d="M498.43,266h.13a13.34,13.34,0,0,1,2.75,3.35,41.94,41.94,0,0,1,3.37,3.68v.17c0,.07-.06.11-.18.11a16.41,16.41,0,0,1-5.21-5.41h-.18v.32q0,1.31-2.7,6v.1a.23.23,0,0,0,.24.23h.42a35.15,35.15,0,0,0,5.82-1.61h.16a1.16,1.16,0,0,1,.87.55,18.2,18.2,0,0,1-.75,3.17,12,12,0,0,1-1.24,3.67h-.64a6.3,6.3,0,0,1-2.68-2.19h-.15c-.71.9-1.21,1.35-1.48,1.35-.07,0-.11,0-.11-.09a18.31,18.31,0,0,0,1.88-4.13h-.17a9.56,9.56,0,0,1-1.35.17,13.64,13.64,0,0,0-1.55-.26c-.55.79-1,1.18-1.32,1.18h-.16c-.13,0-.2-.21-.2-.56.47-.17,1.2-1.3,2.19-3.4a8.61,8.61,0,0,0,1.61-4.25l-.08-.47.3-.22h.47a8.48,8.48,0,0,1-.18-1.37Zm.34,11.57v.18c0,.43.75.87,2.25,1.33h.21a44.72,44.72,0,0,0,1.73-5l-.23-.12c-2,.41-3,1-3,1.77C499.75,275.71,499.42,276.32,498.77,277.53Z" transform="translate(-277.8 -92.34)"/><path class="cls-2" d="M518,272.27a.85.85,0,0,1,.5.43c0,.29-.85,1.53-2.53,3.71v.08a22.89,22.89,0,0,0,3.29,2.37l.25.33v.09c0,.08-.08.17-.25.25-.67-.08-2-.82-4-2.19h-.09Q513,279.91,512,280c-.22,0-.39-.23-.51-.67a8,8,0,0,0,2.37-2.2q.32-.51.42-.51a23.05,23.05,0,0,0-3.38-2.78,1,1,0,0,1-.16-.51c0-.08.08-.16.25-.25h.59Q512.19,273.12,518,272.27Zm-3.72-6.07h.34q.12,0,.42.42v.26a5.55,5.55,0,0,1-.17,1.43H515a15.26,15.26,0,0,0,1.85-.42l.26.33v.26c0,.26-.76.63-2.28,1.1a19,19,0,0,0-.84,2.69l-.17.09c-.23-.07-.34-.33-.34-.76a6.08,6.08,0,0,1,.16-1.77c-1.34-.12-2-.43-2-.93l.26-.17H513c.67,0,1-.19,1-.59a6.44,6.44,0,0,0,.07-1.1v-.58C514.06,266.37,514.15,266.29,514.32,266.2Zm-1.27,7.85v.08c1,1.07,1.66,1.61,2,1.61a19.63,19.63,0,0,0,1.77-2.2v-.17C514.45,273.82,513.18,274.05,513.05,274.05Z" transform="translate(-277.8 -92.34)"/><line class="cls-1" x1="28.29" y1="113" x2="28.29" y2="132.96"/><path class="cls-2" d="M306.08,231.34a29.91,29.91,0,0,0-4.76-8.54l4.76,1.72,4.76-1.72A29.91,29.91,0,0,0,306.08,231.34Z" transform="translate(-277.8 -92.34)"/><path class="cls-1" d="M291.67,122.27c-17.77,14-14.89,33.21-8.15,43.11" transform="translate(-277.8 -92.34)"/><path class="cls-2" d="M287.58,169.84a30.63,30.63,0,0,0-9.21-3.28l4.7-1.84,2.44-4.44A30.21,30.21,0,0,0,287.58,169.84Z" transform="translate(-277.8 -92.34)"/><path class="cls-1" d="M320.3,177.84c17.77-14,14.88-33.21,8.15-43.1" transform="translate(-277.8 -92.34)"/><path class="cls-2" d="M324.39,130.27a30,30,0,0,0,9.21,3.28l-4.71,1.85-2.43,4.43A30.27,30.27,0,0,0,324.39,130.27Z" transform="translate(-277.8 -92.34)"/><circle class="cls-1" cx="152.7" cy="57.16" r="18"/><path class="cls-2" d="M425.69,148.76c0-4.49,1.83-6.91,4.81-6.91s4.81,2.42,4.81,6.91-1.83,7-4.81,7S425.69,153.21,425.69,148.76Zm8,0c0-3.84-1.32-5.5-3.19-5.5s-3.19,1.66-3.19,5.5,1.32,5.59,3.19,5.59S433.69,152.6,433.69,148.76Zm-4.49-.15a1.3,1.3,0,1,1,1.3,1.41A1.3,1.3,0,0,1,429.2,148.61Z" transform="translate(-277.8 -92.34)"/><circle class="cls-1" cx="152.7" cy="134.16" r="18"/><path class="cls-2" d="M426.24,231.05h3.86v-9.82h-3v-1.14a9.5,9.5,0,0,0,3.44-1h1.3v12h3.49v1.45h-9.09Z" transform="translate(-277.8 -92.34)"/><circle class="cls-1" cx="240.7" cy="95.16" r="18"/><path class="cls-2" d="M513.73,192.47c4.54-4,7-6.36,7-8.59,0-1.53-.93-2.6-2.9-2.6a4.58,4.58,0,0,0-3.21,1.6l-1-1a6,6,0,0,1,4.43-2c2.69,0,4.37,1.58,4.37,4s-2.52,5-6.16,8.31c.84-.06,1.7-.1,2.5-.1h4.39v1.49h-9.43Z" transform="translate(-277.8 -92.34)"/><path class="cls-1" d="M416.59,160.93c-17.77,14-14.89,33.21-8.15,43.1" transform="translate(-277.8 -92.34)"/><path class="cls-2" d="M412.5,208.5a30.06,30.06,0,0,0-9.22-3.28l4.71-1.85,2.44-4.43A30.27,30.27,0,0,0,412.5,208.5Z" transform="translate(-277.8 -92.34)"/><path class="cls-1" d="M445.21,216.5c17.78-14,14.89-33.21,8.16-43.11" transform="translate(-277.8 -92.34)"/><path class="cls-2" d="M449.31,168.93a30.53,30.53,0,0,0,9.21,3.28l-4.71,1.84-2.43,4.44A30.21,30.21,0,0,0,449.31,168.93Z" transform="translate(-277.8 -92.34)"/></svg>