<svg id="图层_1" data-name="图层 1" xmlns="http://www.w3.org/2000/svg" viewBox="0 0 512.41 146.48"><defs><style>.cls-1{fill:none;stroke:#3ea69f;stroke-miterlimit:10;}.cls-2{fill:#3ea69f;}</style></defs><circle class="cls-1" cx="18.5" cy="94.04" r="18"/><path class="cls-2" d="M245.41,238.27c0-5.38,2.68-7.46,5.6-7.46a5.32,5.32,0,0,1,3.74,1.43l-1,1.09a3.93,3.93,0,0,0-2.66-1.07c-2.19,0-4.08,1.54-4.08,6,0,3.29,1.26,5.08,3.49,5.08a2.78,2.78,0,0,0,2.81-2.94,2.54,2.54,0,0,0-2.83-2.83,4.71,4.71,0,0,0-3.51,1.88l-.06-1.36a5.68,5.68,0,0,1,3.88-1.83,3.81,3.81,0,0,1,4.18,4.14,4.32,4.32,0,0,1-4.47,4.3C247.61,244.71,245.41,242.57,245.41,238.27Z" transform="translate(-231.59 -144.43)"/><circle class="cls-1" cx="95.18" cy="20.5" r="18"/><path class="cls-2" d="M322,164.19c0-4.5,1.83-6.91,4.81-6.91s4.81,2.41,4.81,6.91-1.83,7-4.81,7S322,168.64,322,164.19Zm8,0c0-3.85-1.32-5.51-3.19-5.51s-3.19,1.66-3.19,5.51,1.32,5.58,3.19,5.58S330,168,330,164.19Zm-4.49-.15a1.3,1.3,0,1,1,1.3,1.41A1.31,1.31,0,0,1,325.47,164Z" transform="translate(-231.59 -144.43)"/><circle class="cls-1" cx="169.5" cy="93.04" r="18"/><path class="cls-2" d="M396.22,240c0-1.85,1.43-2.9,2.87-3.57v-.08a3.78,3.78,0,0,1-2-3.13c0-2.06,1.74-3.45,4.13-3.45,2.63,0,4.16,1.49,4.16,3.57a4.21,4.21,0,0,1-2,3.2v.08c1.47.73,2.63,1.57,2.63,3.48s-1.74,3.57-4.81,3.57S396.22,242.16,396.22,240Zm8.06,0c0-1.85-1.87-2.33-4.2-3.11-1.3.7-2.29,1.56-2.29,2.9s1.33,2.54,3.38,2.54S404.28,241.47,404.28,240.08Zm-.44-6.61a2.38,2.38,0,0,0-2.69-2.35,2.22,2.22,0,0,0-2.5,2.14c0,1.59,1.54,2.27,3.53,2.9A3.42,3.42,0,0,0,403.84,233.47Z" transform="translate(-231.59 -144.43)"/><line class="cls-1" x1="70.67" y1="42.31" x2="26" y2="77.54"/><path class="cls-2" d="M307,183a30.32,30.32,0,0,1-9.66,1.56l4.3,2.67,1.59,4.8A30.31,30.31,0,0,1,307,183Z" transform="translate(-231.59 -144.43)"/><line class="cls-1" x1="121.91" y1="42.6" x2="161" y2="77.54"/><path class="cls-2" d="M349,183a30.16,30.16,0,0,1,3.2,9.24l1.89-4.69,4.45-2.4A30,30,0,0,1,349,183Z" transform="translate(-231.59 -144.43)"/><circle class="cls-1" cx="93.91" cy="93.07" r="18"/><path class="cls-2" d="M328.38,231.62h-7.71V230.1h9.7v1.08c-3.55,4-4.41,7.07-4.62,12.32h-1.83A17.9,17.9,0,0,1,328.38,231.62Z" transform="translate(-231.59 -144.43)"/><line class="cls-1" x1="93.91" y1="75.07" x2="93.91" y2="49.11"/><path class="cls-2" d="M325.5,187.5a30.1,30.1,0,0,0,4.76,8.55l-4.76-1.72-4.75,1.72A30.31,30.31,0,0,0,325.5,187.5Z" transform="translate(-231.59 -144.43)"/><circle class="cls-1" cx="241.91" cy="93.07" r="18"/><path class="cls-2" d="M469.24,242.05h3.86v-9.83h-3v-1.13a9.5,9.5,0,0,0,3.44-1h1.3v12h3.49v1.45h-9.09Z" transform="translate(-231.59 -144.43)"/><circle class="cls-1" cx="286.18" cy="18.5" r="18"/><path class="cls-2" d="M519.2,159.71c0-.74.06-1.64.1-2.37h-.1c-.44.65-.93,1.3-1.37,1.95l-3.61,4.53h8.69v1.41H512.29v-1.15l6.68-8.55h1.87v13.4H519.2Z" transform="translate(-231.59 -144.43)"/><circle class="cls-1" cx="330.91" cy="93.07" r="18"/><path class="cls-2" d="M557.86,242.34l1-1.09a4,4,0,0,0,2.67,1.05c2.16,0,4.07-1.53,4.07-6,0-3.3-1.28-5.06-3.48-5.06a2.77,2.77,0,0,0-2.84,2.92A2.57,2.57,0,0,0,562.1,237a4.69,4.69,0,0,0,3.49-1.89l.06,1.37a5.55,5.55,0,0,1-3.89,1.82,3.79,3.79,0,0,1-4.15-4.13,4.32,4.32,0,0,1,4.45-4.31c2.92,0,5.14,2.14,5.14,6.45,0,5.37-2.71,7.45-5.6,7.45A5.4,5.4,0,0,1,557.86,242.34Z" transform="translate(-231.59 -144.43)"/><line class="cls-1" x1="267.6" y1="41.92" x2="249.41" y2="76.57"/><path class="cls-2" d="M502,181a30.33,30.33,0,0,1-8.18,5.36l5,.68,3.41,3.74A30.18,30.18,0,0,1,502,181Z" transform="translate(-231.59 -144.43)"/><line class="cls-1" x1="303.73" y1="42.62" x2="325.41" y2="75.57"/><path class="cls-2" d="M532,182a29.94,29.94,0,0,1,.72,9.75l3-4.05,4.92-1.17A30.36,30.36,0,0,1,532,182Z" transform="translate(-231.59 -144.43)"/><circle class="cls-1" cx="404.91" cy="93.07" r="18"/><path class="cls-2" d="M631.4,241.86l.88-1.13a5.41,5.41,0,0,0,3.84,1.57c1.83,0,3.19-.94,3.19-2.43s-1.34-2.67-4.85-2.67v-1.32c3.17,0,4.39-1.09,4.39-2.5s-1.11-2.1-2.73-2.1a5.07,5.07,0,0,0-3.29,1.34l-.93-1.09a6.51,6.51,0,0,1,4.28-1.68c2.52,0,4.43,1.24,4.43,3.4,0,1.62-1.19,2.65-2.85,3.2v.08c1.78.38,3.32,1.55,3.32,3.4,0,2.37-2.19,3.82-4.85,3.82A6.54,6.54,0,0,1,631.4,241.86Z" transform="translate(-231.59 -144.43)"/><circle class="cls-1" cx="449.18" cy="18.5" r="18"/><path class="cls-2" d="M676,167.9c4.54-4,7-6.37,7-8.59,0-1.53-.93-2.6-2.9-2.6a4.61,4.61,0,0,0-3.21,1.59l-1-1a6,6,0,0,1,4.43-2c2.69,0,4.37,1.57,4.37,3.95s-2.52,5-6.16,8.31c.84-.06,1.71-.11,2.5-.11h4.39v1.5H676Z" transform="translate(-231.59 -144.43)"/><circle class="cls-1" cx="493.91" cy="93.07" r="18"/><path class="cls-2" d="M720.38,241.92l.86-1.15A5.31,5.31,0,0,0,725,242.3a3.11,3.11,0,0,0,3.38-3c0-1.85-1.31-2.92-3.28-2.92a5,5,0,0,0-2.73.8l-.92-.59.44-6.45h7.58v1.52h-6l-.36,3.94a5.84,5.84,0,0,1,2.48-.54c2.56,0,4.6,1.3,4.6,4.2s-2.39,4.53-4.95,4.53A6.68,6.68,0,0,1,720.38,241.92Z" transform="translate(-231.59 -144.43)"/><line class="cls-1" x1="430.6" y1="41.92" x2="412.41" y2="76.57"/><path class="cls-2" d="M665,181a30.33,30.33,0,0,1-8.18,5.36l5,.68,3.41,3.74A30.18,30.18,0,0,1,665,181Z" transform="translate(-231.59 -144.43)"/><line class="cls-1" x1="466.73" y1="42.62" x2="488.41" y2="75.57"/><path class="cls-2" d="M695,182a29.94,29.94,0,0,1,.72,9.75l3-4.05,4.92-1.17A30.36,30.36,0,0,1,695,182Z" transform="translate(-231.59 -144.43)"/><path class="cls-2" d="M316.91,286l.9-1a5,5,0,0,0,3.45,1.45c1.62,0,2.56-.77,2.56-1.85,0-1.26-.92-1.62-2.11-2.13l-1.71-.75c-1.17-.47-2.54-1.3-2.54-3s1.62-3.14,3.88-3.14a5.16,5.16,0,0,1,3.63,1.46l-.79,1a4.16,4.16,0,0,0-2.9-1.1c-1.37,0-2.28.65-2.28,1.72s1.09,1.54,2.1,1.94l1.66.74c1.46.57,2.61,1.4,2.61,3.15s-1.59,3.37-4.18,3.37A6,6,0,0,1,316.91,286Z" transform="translate(-231.59 -144.43)"/><path class="cls-2" d="M329.65,289.7h5.42v1h-5.42Zm2.22-4.54H330v-.76a4.19,4.19,0,0,0,2.1-.73h1v7h-1.17Z" transform="translate(-231.59 -144.43)"/><path class="cls-2" d="M507.91,286l.9-1a5,5,0,0,0,3.45,1.45c1.62,0,2.56-.77,2.56-1.85,0-1.26-.92-1.62-2.11-2.13l-1.71-.75c-1.17-.47-2.54-1.3-2.54-3s1.62-3.14,3.88-3.14a5.16,5.16,0,0,1,3.63,1.46l-.79,1a4.16,4.16,0,0,0-2.9-1.1c-1.37,0-2.28.65-2.28,1.72s1.09,1.54,2.1,1.94l1.66.74c1.46.57,2.61,1.4,2.61,3.15s-1.59,3.37-4.18,3.37A6,6,0,0,1,507.91,286Z" transform="translate(-231.59 -144.43)"/><path class="cls-2" d="M520.34,290c2.42-2,3.7-3.06,3.7-4.12a1.4,1.4,0,0,0-1.53-1.46,2.14,2.14,0,0,0-1.7,1l-.68-.63a3.06,3.06,0,0,1,2.54-1.37,2.23,2.23,0,0,1,2.52,2.29c0,1.35-1.26,2.35-3,4h3.31v1h-5.11Z" transform="translate(-231.59 -144.43)"/><path class="cls-2" d="M670.91,286l.9-1a5,5,0,0,0,3.45,1.45c1.62,0,2.56-.77,2.56-1.85,0-1.26-.92-1.62-2.11-2.13l-1.71-.75c-1.17-.47-2.54-1.3-2.54-3s1.62-3.14,3.88-3.14a5.16,5.16,0,0,1,3.63,1.46l-.79,1a4.16,4.16,0,0,0-2.9-1.1c-1.37,0-2.28.65-2.28,1.72s1.09,1.54,2.1,1.94l1.66.74c1.46.57,2.61,1.4,2.61,3.15s-1.58,3.37-4.18,3.37A6,6,0,0,1,670.91,286Z" transform="translate(-231.59 -144.43)"/><path class="cls-2" d="M683.06,289.54l.75-.6a2.33,2.33,0,0,0,2,1c.86,0,1.58-.44,1.58-1.24s-.76-1.24-2.36-1.24v-.74c1.42,0,2.09-.56,2.09-1.28s-.58-1.1-1.44-1.1a2.2,2.2,0,0,0-1.62.85l-.69-.61a3.09,3.09,0,0,1,2.47-1.17c1.32,0,2.43.72,2.43,1.89,0,.85-.47,1.37-1.4,1.73a1.8,1.8,0,0,1,1.67,1.73c0,1.29-1.2,2.1-2.66,2.1A3.32,3.32,0,0,1,683.06,289.54Z" transform="translate(-231.59 -144.43)"/></svg>