<svg xmlns="http://www.w3.org/2000/svg" viewBox="0 0 196.92 76"><defs><style>.a{fill:#3ea69f;}</style></defs><path class="a" d="M139,52a38,38,0,1,1-38-38A38,38,0,0,1,139,52ZM78.58,38.88a12.58,12.58,0,0,1,.54,1.62c.06.54-.37.81-.27,1.14s.87-1,1-1.41.7-.76,1-.54-.16,2,0,2.32a7.07,7.07,0,0,1,.37,1.84,10.76,10.76,0,0,0-.75,2.33,2.58,2.58,0,0,0,1.08,2.27,7.72,7.72,0,0,0,2.48.7c.54.16.33,1.57.44,2.43a34.58,34.58,0,0,1,.38,4.49c0,2,.86,3.68.91,4.43s.28,3.52.28,4.65,0,3.68,0,4.49-.49.7-.92,1.14.27,1.08.32,1.51,2.16.38,2.81.32a2,2,0,0,0,1.41-1.51c0-.54.21-2.11.21-3s-.1-3.51,0-4.48.54-1.9,1.14-1.67a20.87,20.87,0,0,0,3.08,0c1,.06.54,1.34.75,2.58a26.49,26.49,0,0,1,.11,3.74c.06,1.45.06,2.75-.27,3.19s-.38.7-.27,1.56,1.41.6,2.11.54,2.22-.43,2.38-1.13a7.9,7.9,0,0,0-.43-2.76,12.79,12.79,0,0,1-.17-3.19c.11-.54.54-5,.54-5.35s.11-.49.71-.49A25.46,25.46,0,0,0,103,59.53c1.4-.43,4.27-1,5.24-1.3s1.14-.48,1.41-.1a22.54,22.54,0,0,0,2.54,2.48c.86.71.86,1.68,1.08,2.6a2.1,2.1,0,0,1-.87,2.11c-.54.43-.26.65.11,1.18s2.06.11,2.7.06.76-.92.76-1.62a14.48,14.48,0,0,1-.21-2.27,20.1,20.1,0,0,1,.21-2.27c.17-.55.71.64,2,1.52s1.3,2,1.68,3a6.94,6.94,0,0,1,.48,2.65c0,.54-.27.71-.7,1s.32,1.13.92,1.08,1.94-.16,2.27-.76A4.66,4.66,0,0,0,123,66.4c-.11-.81-1-3-1-3.57a7.49,7.49,0,0,0-1.46-3.35c-.86-1.14-.48-2.44-.86-4s-.6-4.92-.76-5.95-1.84-3-2.11-4.16,2.6-4.17,3.9-8.22-3-5.73-4.49-6.44-2.87-.91-3.35-.32,2.16,3,2.86,3.51a5.15,5.15,0,0,1,1.52,3.57c0,1.41-2.76,4.92-4.06,6.06s-2.11.27-4.59.16-5.84,1.62-7.85,2.05-3.67-.64-5-.75-1.62-.65-2.81-1.14-.86-1.67-1.08-2.11S93,42.83,93.29,43s0-.86.16-1.73a3.53,3.53,0,0,1,1.08-2c.65-.81-.37-1.41-.7-1.62a19.87,19.87,0,0,0-3.57-1.14c-1.08-.21-1.08.06-1.68.22s-1.72-.38-3.13-.32a2.64,2.64,0,0,1-2.16-.6c-.33-.27-1.14-.16-2,.27s-1.75-.07-2.27.33A2.78,2.78,0,0,0,78.58,38.88Z" transform="translate(-63 -14)"/><path class="a" d="M188.16,42.8c0-1.79-.21-2.91-.61-3.38a3.88,3.88,0,0,0-1.76-.94,7.49,7.49,0,0,0-1.9-.42c-.13,0-.2-.26-.23-.77a1.73,1.73,0,0,1,.09-1c2.87.25,4.94.37,6.19.37.78,0,1.85-.05,3.21-.16l2.6-.21a1.92,1.92,0,0,1,.19.84c0,.59-.08.89-.24.89a4.83,4.83,0,0,0-3.89,1.55c-.44.53-.65,1.67-.65,3.42V60.84q0,1.69.18,6.57a2.13,2.13,0,0,1-1.17.18c-.37,0-.86-.36-1.45-1.08L169.64,42.8v18a9.16,9.16,0,0,0,.37,3.33,3.1,3.1,0,0,0,2,1.24,9,9,0,0,0,2.25.44c.1,0,.15.27.17.8a3.07,3.07,0,0,1-.07,1c-.28,0-1.21-.07-2.77-.19s-2.75-.19-3.56-.19-1.84.06-3.09.16l-2.72.22c-.1-.1-.14-.38-.14-.85s0-.89.14-.89a7.33,7.33,0,0,0,1.07-.09,5.64,5.64,0,0,0,1.55-.54A3,3,0,0,0,166.17,64a7.77,7.77,0,0,0,.47-3.42V42.19a5.63,5.63,0,0,0-.7-3.33c-.16-.22-.71-.41-1.64-.56a13.81,13.81,0,0,0-2.07-.24c-.12,0-.2-.26-.23-.77s0-.84.14-1l3,.21c1.48.11,2.63.16,3.44.16a39.88,39.88,0,0,0,4.6-.37,32.63,32.63,0,0,0,3.11,4.61q2.32,3,6,7.48t5.81,7.31a10.57,10.57,0,0,0,.1-1.92Z" transform="translate(-63 -14)"/><path class="a" d="M201.58,49.5a11.4,11.4,0,0,1,15.61,0,10.48,10.48,0,0,1,0,15.09,11.41,11.41,0,0,1-15.64,0,10.47,10.47,0,0,1,0-15.09Zm7.15-.52a2.81,2.81,0,0,0-2.25,1.08,5.62,5.62,0,0,0-1.17,2.46,15.28,15.28,0,0,0-.28,3.07q0,9.52,4.83,9.52a3,3,0,0,0,2.88-1.92,10.36,10.36,0,0,0,.92-4.5Q213.66,49,208.73,49Z" transform="translate(-63 -14)"/><path class="a" d="M226.22,50h-3.05c-.25,0-.37-.48-.37-1.45a1,1,0,0,1,.09-.51,26.38,26.38,0,0,0,4.22-2.54c.47-.34,1-.78,1.64-1.33s1.16-1,1.62-1.41l.72-.63a2.19,2.19,0,0,1,.8.16q.42.16.42.36v4.59h5.06c.25,0,.38.16.38.47a5.11,5.11,0,0,1-.47,2.29h-5V61.12c0,2.38.85,3.57,2.53,3.57a4.74,4.74,0,0,0,1.29-.17,4,4,0,0,0,.92-.35,2,2,0,0,1,.37-.19c.13,0,.26.16.4.47a1.94,1.94,0,0,1,.21.71c0,.37-.64.89-1.92,1.54a7.94,7.94,0,0,1-3.61,1,6.49,6.49,0,0,1-4.43-1.62c-1.24-1.08-1.85-2.82-1.85-5.23Z" transform="translate(-63 -14)"/><path class="a" d="M250.59,46.41a8.56,8.56,0,0,1,6.78,2.92,9.11,9.11,0,0,1,2.55,6,1.73,1.73,0,0,1-.44,1.41,3.24,3.24,0,0,1-1.76.33h-10.6c-.18,0-.28.11-.28.32a7.69,7.69,0,0,0,1.43,4.55,4.74,4.74,0,0,0,4.1,2,10.93,10.93,0,0,0,4.93-1.25q.56-.34,1.5-1c.28.12.42.42.42.89a2,2,0,0,1-.19.94,7.4,7.4,0,0,1-2.81,2.67A9.32,9.32,0,0,1,251,67.69a10.12,10.12,0,0,1-7.43-3.14A10.34,10.34,0,0,1,240.42,57a10.73,10.73,0,0,1,2.81-7.55A9.56,9.56,0,0,1,250.59,46.41ZM250.36,49a2.79,2.79,0,0,0-2.67,1.76,7.83,7.83,0,0,0-.85,3.45c0,.18.11.28.33.28h6c.44,0,.66-.3.66-.89a5.53,5.53,0,0,0-1-3.19A2.88,2.88,0,0,0,250.36,49Z" transform="translate(-63 -14)"/></svg>