<svg id="图层_1" data-name="图层 1" xmlns="http://www.w3.org/2000/svg" viewBox="0 0 292 332.96"><defs><style>.cls-1{fill:none;stroke:#3ea69f;stroke-miterlimit:10;}.cls-2{fill:#3ea69f;}</style></defs><circle class="cls-1" cx="169.5" cy="91.46" r="18"/><path class="cls-2" d="M499.08,148.54l2.29-3.46L498,143.61l.34-1,3.51,1.15.16-4h1l.17,4,3.51-1.15.33,1-3.4,1.47,2.29,3.46-.9.63-2.52-3.34L500,149.17Z" transform="translate(-333 -54.04)"/><circle class="cls-1" cx="221.18" cy="18.5" r="18"/><path class="cls-2" d="M553.49,72.26h-3.82V71h3.82V66.87h1.38V71h3.82v1.3h-3.82v4.1h-1.38Z" transform="translate(-333 -54.04)"/><line class="cls-1" x1="209" y1="31.96" x2="178" y2="75.96"/><circle class="cls-1" cx="119.5" cy="166.46" r="18"/><path class="cls-2" d="M449.08,223.54l2.29-3.46L448,218.61l.34-1,3.51,1.15.16-4h1l.17,4,3.51-1.15.33,1-3.4,1.47,2.29,3.46-.9.63-2.52-3.34L450,224.17Z" transform="translate(-333 -54.04)"/><line class="cls-1" x1="159" y1="106.96" x2="128" y2="150.96"/><circle class="cls-1" cx="69.5" cy="240.46" r="18"/><path class="cls-2" d="M405.17,285.59h1.55l-6.89,18.27h-1.55Z" transform="translate(-333 -54.04)"/><line class="cls-1" x1="109" y1="180.96" x2="78" y2="224.96"/><circle class="cls-1" cx="18.5" cy="314.46" r="18"/><path class="cls-2" d="M350.49,360.73h2l4.64,13.77h-1.89l-2.38-7.68c-.48-1.54-.94-3.05-1.36-4.64h-.08c-.44,1.59-.89,3.1-1.37,4.64l-2.41,7.68h-1.81Zm-2.18,8.16h6.32v1.43h-6.32Z" transform="translate(-333 -54.04)"/><line class="cls-1" x1="58" y1="254.96" x2="27" y2="298.96"/><circle class="cls-1" cx="273.5" cy="91.46" r="18"/><path class="cls-2" d="M602.59,137.73h8.53v1.49h-6.76v4.3h5.71V145h-5.71v5h7v1.49h-8.74Z" transform="translate(-333 -54.04)"/><line class="cls-1" x1="234" y1="31.96" x2="265" y2="75.96"/><circle class="cls-1" cx="219.5" cy="166.46" r="18"/><path class="cls-2" d="M548,212.73h3.4c4.13,0,6.38,2.45,6.38,6.82s-2.25,6.95-6.3,6.95H548Zm3.27,12.32c3.13,0,4.68-2,4.68-5.5s-1.55-5.37-4.68-5.37h-1.51v10.87Z" transform="translate(-333 -54.04)"/><line class="cls-1" x1="180" y1="106.96" x2="211" y2="150.96"/><circle class="cls-1" cx="169.5" cy="240.46" r="18"/><path class="cls-2" d="M497.56,293.61c0-4.43,2.59-7.14,6.18-7.14a5.17,5.17,0,0,1,3.78,1.68l-1,1.12a3.68,3.68,0,0,0-2.77-1.24c-2.63,0-4.35,2.12-4.35,5.54s1.72,5.63,4.35,5.63a4,4,0,0,0,3.08-1.51l1,1.07a5.31,5.31,0,0,1-4.26,2C500.17,300.75,497.56,298.11,497.56,293.61Z" transform="translate(-333 -54.04)"/><line class="cls-1" x1="130" y1="180.96" x2="161" y2="224.96"/><circle class="cls-1" cx="119.5" cy="314.46" r="18"/><path class="cls-2" d="M448.28,360.73h3.9c2.82,0,4.73.94,4.73,3.36a3,3,0,0,1-2.42,3v.08c2,.32,3.2,1.41,3.2,3.3,0,2.71-2.1,4-5.19,4h-4.22Zm3.61,5.79c2.35,0,3.3-.75,3.3-2.29s-1.1-2-3.22-2h-2v4.32Zm.36,6.51c2.35,0,3.71-.78,3.71-2.65,0-1.7-1.3-2.39-3.71-2.39H450v5Z" transform="translate(-333 -54.04)"/><line class="cls-1" x1="80" y1="254.96" x2="111" y2="298.96"/></svg>