<svg id="图层_1" data-name="图层 1" xmlns="http://www.w3.org/2000/svg" viewBox="0 0 613.65 284.58"><defs><style>.cls-1{fill:none;stroke:#3ea69f;stroke-miterlimit:10;}.cls-2{fill:#3ea69f;}</style></defs><rect class="cls-1" x="157.5" y="0.5" width="377.65" height="32.96"/><line class="cls-1" x1="221.71" y1="0.5" x2="221.71" y2="33.46"/><line class="cls-1" x1="292.71" y1="0.5" x2="292.71" y2="33.46"/><line class="cls-1" x1="414.71" y1="0.5" x2="414.71" y2="33.46"/><path class="cls-2" d="M471.8,84.89a.54.54,0,0,1,.42.59v.09a8.79,8.79,0,0,1-1.77,2.36V88l1.27-.33.08.16c0,.61-.62,1.06-1.86,1.36H469v1.17h.08l3.3-.58h.42c.11,0,.16.07.16.16q0,.51-.93.93l-.16.59v.08h.33a.71.71,0,0,1,.68.42v.09c0,.15-.4.37-1.1.68a3.25,3.25,0,0,1-.08.75.79.79,0,0,1,.08.26,10.31,10.31,0,0,0,1.69-.59h.08v.08a2.71,2.71,0,0,1-1.35,1.52.72.72,0,0,0-.42.68V97h.34a17.25,17.25,0,0,0,3.45-3,10.51,10.51,0,0,0-.66-2.1l.16-.09a20.24,20.24,0,0,0,1.69,2.27v.18q0,.36-3.72,3.54a4.36,4.36,0,0,1-1.43.33h-.25c-.09,0-.2-.11-.34-.33V95.6a.14.14,0,0,0-.16-.16,8.54,8.54,0,0,1-1.61.25l-.5-.42h-.09v.08c-.19,1.92-.36,2.87-.5,2.87h-.35c-.08,0-.2-.11-.33-.34v-.5l.59-6.5V86.24q-.51-.33-.51-.42v-.25c0-.26,1.24-.45,3.72-.59C471.3,84.92,471.46,84.89,471.8,84.89Zm-3.12,10,.16.08c1.47-.27,2.2-.6,2.2-1-.09-.68-.2-1-.33-1l-.85.08c-.25-.11-.39-.22-.42-.34v-.17c0-.14.48-.37,1.44-.67a.74.74,0,0,0,.07-.34v-.34c-1.28.06-1.93.23-1.93.51C468.9,93.18,468.79,94.24,468.68,94.85Zm.34-7c1.07-.82,1.6-1.44,1.6-1.85-1,.09-1.52.23-1.52.42C469.05,87.07,469,87.55,469,87.84Z" transform="translate(-283.35 -73.21)"/><path class="cls-2" d="M541.44,86.16h.17a1.11,1.11,0,0,1,.51.85,24.16,24.16,0,0,1-.26,2.61H542a10.79,10.79,0,0,0,2.95-1.35l.08.17v.33c0,.67-.93,1.34-2.78,2V91c2.63,2.48,4,3.83,4,4v.34c-.1.5-.22.75-.34.75h-.08a8.4,8.4,0,0,0-2-2.35l-2.28-1.94q-1.91,4.7-2.53,5.31a1.48,1.48,0,0,1-.93.34h-.08a.56.56,0,0,1-.59-.34V97c.56-.27,1.2-1.25,1.93-3a14.4,14.4,0,0,1,1-2.35v-.34a9.12,9.12,0,0,1-1.35.16H538q-1.86-.1-1.86-.66a.88.88,0,0,1,.34-.51l.85.08h1.77V90.3c-1.13-.88-1.69-1.53-1.69-2v-.08c0-.08.08-.16.25-.25.41.06,1.06.76,1.94,2.11l.43.08c.73,0,1.1-1,1.1-3Q541.29,86.16,541.44,86.16Zm-2.87-.51a5.51,5.51,0,0,1,1.6,1.27V87c0,.11,0,.17-.16.17h-.17a5.39,5.39,0,0,1-1.61-1v-.25C538.23,85.77,538.35,85.68,538.57,85.65Z" transform="translate(-283.35 -73.21)"/><path class="cls-2" d="M613.44,86.16h.17a1.11,1.11,0,0,1,.51.85,24.16,24.16,0,0,1-.26,2.61H614a10.79,10.79,0,0,0,2.95-1.35l.08.17v.33c0,.67-.93,1.34-2.78,2V91c2.63,2.48,4,3.83,4,4v.34c-.1.5-.22.75-.34.75h-.08a8.4,8.4,0,0,0-2-2.35l-2.28-1.94q-1.91,4.7-2.53,5.31a1.48,1.48,0,0,1-.93.34h-.08a.56.56,0,0,1-.59-.34V97c.56-.27,1.2-1.25,1.93-3a14.4,14.4,0,0,1,1-2.35v-.34a9.12,9.12,0,0,1-1.35.16H610q-1.86-.1-1.86-.66a.88.88,0,0,1,.34-.51l.85.08h1.77V90.3c-1.13-.88-1.69-1.53-1.69-2v-.08c0-.08.08-.16.25-.25.41.06,1.06.76,1.94,2.11l.43.08c.73,0,1.1-1,1.1-3Q613.29,86.16,613.44,86.16Zm-2.87-.51a5.51,5.51,0,0,1,1.6,1.27V87c0,.11,0,.17-.16.17h-.17a5.39,5.39,0,0,1-1.61-1v-.25C610.23,85.77,610.35,85.68,610.57,85.65Z" transform="translate(-283.35 -73.21)"/><path class="cls-2" d="M626.54,85.46h.23c.06,0,.15.13.28.38V86c0,.32-.5.9-1.5,1.73a1.54,1.54,0,0,0-.44.81c.11.6.21.9.32.9s.92-.23,2.35-.67a1,1,0,0,1,.71.95,19.41,19.41,0,0,1-.18,2.17,6.81,6.81,0,0,1,3.38,1.57l.08.4c0,.07-.14.13-.44.18a11.82,11.82,0,0,1-2.93-1.61h-.26v.41a14.19,14.19,0,0,0,.17,1.66,10.48,10.48,0,0,0-1.5,2.43,5.9,5.9,0,0,1-.88.74h-.26c-.35,0-.52-.77-.52-2.3Q624.91,89,623.78,89l-.15-.54Q623.63,88.12,626.54,85.46Zm-.72,4.85s-.07-.08-.21-.08a.15.15,0,0,1-.17.17l.43,2a.55.55,0,0,0-.08.29l.29.2H627c.16,0,.41-1,.74-2.88l-.23-.12A8.41,8.41,0,0,1,625.82,90.31Zm.21,3.78v1.7l.12.22c.25,0,.71-.44,1.37-1.32a3,3,0,0,1-.18-.91h-.15C626.42,93.78,626,93.88,626,94.09Zm3.84-8a2.28,2.28,0,0,1,.3.36v.16a11.78,11.78,0,0,0-.42,3.05v.31l.48.08a11.41,11.41,0,0,0,3.21-1.42c.58.31.86.68.86,1.12a25.87,25.87,0,0,1-1,4.87V96a1.67,1.67,0,0,1-.55,1.29h0A5.37,5.37,0,0,1,630,95.15l-.21-.28.09,0a12.1,12.1,0,0,1,2.13,1,16.82,16.82,0,0,0,.7-3.19,10.74,10.74,0,0,0,.68-2.46v-.33a10.37,10.37,0,0,0-2.28,1l-.57.08h-.5c-.59,0-1-.43-1.21-1.29C628.86,87.27,629.2,86.05,629.87,86.05Z" transform="translate(-283.35 -73.21)"/><path class="cls-2" d="M644.2,84.68l.26.33c0,.18-.34.46-1,.85l-1.09,3.37h.16a4.52,4.52,0,0,1,2.11-.75l.17.25v.08a19.73,19.73,0,0,1-1.18,3.46c.08,0,.16.09.25.26a1.66,1.66,0,0,0-.92,1.18c-.68,1.38-1.14,2.12-1.36,2.19h-.08c-.11,0-.17-.08-.17-.25l1.18-3v-.08h-.25a2.69,2.69,0,0,1-1.1-.34c-.37,1.12-.66,1.68-.84,1.68s-.23-.16-.34-.42q1.86-4.76,2.61-7.17v-.17c-1.5.45-2.32.68-2.44.68h-.33c-.09,0-.17-.09-.26-.26v-.16q0-.41,4.48-1.69Zm-2.78,7.08.51-.08a2.67,2.67,0,0,1,.92.17c.23-.5.54-1.29.93-2.36h-.09a6.87,6.87,0,0,0-1.85.93A12.55,12.55,0,0,1,641.42,91.76Zm7.5-6.4c.48,0,.85.39,1.1,1.17q-.33,5.86-.33,9v1.1c0,1.24-.15,1.85-.35,1.85H649a21.42,21.42,0,0,1-2.62-3.63v-.16h.09a17.11,17.11,0,0,1,2.44,2.44H649V95.39q0-2.49-.09-6.16c.12-.91.2-1.84.26-2.78a2.79,2.79,0,0,0-.59-.76Q648.59,85.56,648.92,85.36ZM647.07,89h.08c.23.07.34.32.34.75v2.45a.56.56,0,0,1-.34.59c-.31,0-.48-.79-.51-2.36C646.7,89.46,646.84,89,647.07,89Z" transform="translate(-283.35 -73.21)"/><path class="cls-2" d="M657.23,84.94c.28,0,.42.08.42.16,0,.48-.08.87-.08,1.16l.23.12h.87a.52.52,0,0,1,.59.58c0,.06,0,.08-.07.08a4.71,4.71,0,0,0-1-.16c-.84,0-1.27.59-1.27,1.77v.18c.06,0,.08,0,.08.11a4.43,4.43,0,0,1,1.11-.29h.66q.18.06.18.42v.14a2.81,2.81,0,0,0-.59,1.47.27.27,0,0,0,.29.26l.32-.42a.88.88,0,0,1-.1-.23,4.61,4.61,0,0,1,1.78-.62,1.58,1.58,0,0,1,.71.42h.26a4.52,4.52,0,0,0,.62-1.7l-1.1.09h0a1.79,1.79,0,0,0-1.34-.67l-.05-.11v-.15s.06-.1.19-.16h.32a1.66,1.66,0,0,1,.9.34c1.2-.14,1.8-.58,1.8-1.35.17-.56.42-.85.75-.85.11,0,.17.09.17.26a5,5,0,0,1-.29,1c.08,0,.12,0,.12.11a5,5,0,0,1,1.26-.19c.06,0,.09,0,.09.08V87c0,.09-.25.26-.74.53a7,7,0,0,0-.35,2.17v.27a.24.24,0,0,0,.26.24,4.39,4.39,0,0,0,1.29-.92h0s.1.06.17.18v.46A5.62,5.62,0,0,1,664,91.21l-.09.55v.88l.11.24,1.07-.09h.66a.62.62,0,0,1,.35.59v.08a.07.07,0,0,1-.08.08h-.77c-.89,0-1.34.27-1.34.69a5,5,0,0,1,.08.65c-.16.68-.4,1-.71,1-.2-.21-.29-.32-.29-.32a8.49,8.49,0,0,0,.16-1.63,13.18,13.18,0,0,1-1.35.1h-.33a.78.78,0,0,1-.68-.44v-.23c0-.06,0-.09.08-.09h.5l.52.09q1.17-.18,1.17-.42V91.6h-.18a5.72,5.72,0,0,1-1.59.34h-.14l-.23-.12a14.3,14.3,0,0,0-1.23,2.54c1.34.82,2.48,1.47,3.43,2a7.47,7.47,0,0,0,1.57.44l.42-.26h.15s.1.11.16.33a.58.58,0,0,1-.58.51c-1.34,0-3.28-.85-5.8-2.54h-.19c-.19,0-.39.54-.59,1.59-.66,1.19-1.19,1.79-1.59,1.79a.67.67,0,0,1-.43-.35v0a12.61,12.61,0,0,0,.92-4.82c.06,0,.09-.08.09-.23l-.25-.12a6.36,6.36,0,0,1-1.11.17h-.51s-.13-.09-.24-.27v-.15q0-.24,1.77-.42c0-.12.17-.24.5-.35V91c0-.29,0-.74.1-1.36h-.18c-.77.06-1.24.08-1.39.08l-.21-.27v-.14c0-.1.25-.18.76-.27v-.15c0-.23,0-.35-.08-.35C656.68,86.15,657,84.94,657.23,84.94Zm1,7.42c0,.12,0,.18.08.18a12.91,12.91,0,0,0-.16,1.8,6.28,6.28,0,0,0,2-2.78,1.18,1.18,0,0,0,.34-.8v-.25h-.16c-.77,0-1.48.55-2.12,1.67Zm4-1.77v.17h.36a1,1,0,0,0,.58-1v-.93h-.18C662.84,88.82,662.58,89.41,662.29,90.59Z" transform="translate(-283.35 -73.21)"/><path class="cls-2" d="M733.8,84.89a.54.54,0,0,1,.42.59v.09a8.79,8.79,0,0,1-1.77,2.36V88l1.27-.33.08.16c0,.61-.62,1.06-1.86,1.36H731v1.17h.08l3.3-.58h.42c.11,0,.16.07.16.16q0,.51-.93.93l-.16.59v.08h.33a.71.71,0,0,1,.68.42v.09c0,.15-.4.37-1.1.68a3.25,3.25,0,0,1-.08.75.79.79,0,0,1,.08.26,10.31,10.31,0,0,0,1.69-.59h.08v.08a2.71,2.71,0,0,1-1.35,1.52.72.72,0,0,0-.42.68V97h.34a17.25,17.25,0,0,0,3.45-3,10.51,10.51,0,0,0-.66-2.1l.16-.09a20.24,20.24,0,0,0,1.69,2.27v.18q0,.36-3.72,3.54a4.36,4.36,0,0,1-1.43.33h-.25c-.09,0-.2-.11-.34-.33V95.6a.14.14,0,0,0-.16-.16,8.54,8.54,0,0,1-1.61.25l-.5-.42h-.09v.08c-.19,1.92-.36,2.87-.5,2.87h-.35c-.08,0-.2-.11-.33-.34v-.5l.59-6.5V86.24q-.51-.33-.51-.42v-.25c0-.26,1.24-.45,3.72-.59C733.3,84.92,733.46,84.89,733.8,84.89Zm-3.12,10,.16.08c1.47-.27,2.2-.6,2.2-1-.09-.68-.2-1-.33-1l-.85.08c-.25-.11-.39-.22-.42-.34v-.17c0-.14.48-.37,1.44-.67a.74.74,0,0,0,.07-.34v-.34c-1.28.06-1.93.23-1.93.51C730.9,93.18,730.79,94.24,730.68,94.85Zm.34-7c1.07-.82,1.6-1.44,1.6-1.85-1,.09-1.52.23-1.52.42C731.05,87.07,731,87.55,731,87.84Z" transform="translate(-283.35 -73.21)"/><path class="cls-2" d="M747.54,85.46h.22c.06,0,.15.13.28.38V86c0,.32-.5.9-1.5,1.73a1.54,1.54,0,0,0-.44.81c.11.6.21.9.32.9s.92-.23,2.35-.67a1,1,0,0,1,.71.95,19.41,19.41,0,0,1-.18,2.17,6.87,6.87,0,0,1,3.39,1.57l.07.4c0,.07-.14.13-.43.18a11.7,11.7,0,0,1-2.94-1.61h-.26v.41a14.19,14.19,0,0,0,.17,1.66,10.85,10.85,0,0,0-1.5,2.43,5.9,5.9,0,0,1-.88.74h-.25c-.36,0-.53-.77-.53-2.3Q745.9,89,744.78,89l-.16-.54C744.62,88.22,745.59,87.23,747.54,85.46Zm-.73,4.85s-.07-.08-.21-.08a.15.15,0,0,1-.17.17l.43,2a.67.67,0,0,0-.08.29l.29.2H748q.24,0,.75-2.88l-.24-.12A8.26,8.26,0,0,1,746.81,90.31Zm.22,3.78v1.7l.11.22c.25,0,.71-.44,1.37-1.32a3,3,0,0,1-.18-.91h-.14C747.41,93.78,747,93.88,747,94.09Zm3.83-8a2.87,2.87,0,0,1,.31.36v.16a11.39,11.39,0,0,0-.43,3.05v.31l.48.08a11.41,11.41,0,0,0,3.21-1.42c.58.31.87.68.87,1.12a26.77,26.77,0,0,1-1,4.87V96a1.68,1.68,0,0,1-.56,1.29h-.05A5.37,5.37,0,0,1,751,95.15l-.21-.28.09,0a12.1,12.1,0,0,1,2.13,1,16.82,16.82,0,0,0,.7-3.19,10.74,10.74,0,0,0,.68-2.46v-.33a10.37,10.37,0,0,0-2.28,1l-.57.08h-.5q-.88,0-1.2-1.29C749.86,87.27,750.19,86.05,750.86,86.05Z" transform="translate(-283.35 -73.21)"/><path class="cls-2" d="M763.71,85.31a1,1,0,0,1,.59.68c0,.78-1,2-2.95,3.8l-.51.07-.16-.24c0-.6.58-1.44,1.76-2.53C763.06,86,763.48,85.36,763.71,85.31Zm.42,3q.23,0,.42.42a9.08,9.08,0,0,1-1.69,3.46,7.59,7.59,0,0,1,.43,2.19c0,1.91-.17,2.87-.5,2.87h-.26a.58.58,0,0,1-.33-.6c0-1,0-2.09.16-3.19a.67.67,0,0,1-.08-.35h-.17l-.51.35h-.42c-.08,0-.16-.09-.25-.26v-.09c0-.52.45-1.14,1.35-1.85.9-2,1.5-3,1.77-3Zm6.67-.34.08.17v.67a4.62,4.62,0,0,1-1.69,1.52,11.71,11.71,0,0,1,.42,3.55c0,2.64-.23,4-.58,4h-.26l-2.95-2v-.08a.16.16,0,0,1,.17-.17l2.36.59h.09V96c0-.74.08-1.1.16-1.1s0-.08-.08-.08c.06-.68.08-1.18.08-1.52a5.07,5.07,0,0,0-.25-2.2,8.74,8.74,0,0,1-2.7,1.19c-.67-.08-1-.28-1-.59s.87-.8,2.62-1.36a25,25,0,0,0,3.37-2.44Zm-4.9-1.69c2.08,0,3.13.23,3.13.67v.26l-.17.25-.42-.09h-1.27l-.51.09c-.63-.22-1-.42-1-.59v-.09C765.69,86.41,765.77,86.24,765.9,86.24Z" transform="translate(-283.35 -73.21)"/><path class="cls-2" d="M778.21,84.94c.28,0,.42.08.42.16,0,.48-.08.87-.08,1.16l.23.12h.87a.52.52,0,0,1,.59.58c0,.06,0,.08-.07.08a4.63,4.63,0,0,0-1-.16q-1.26,0-1.26,1.77v.18s.08,0,.08.11a4.5,4.5,0,0,1,1.1-.29h.66q.18.06.18.42v.14a2.81,2.81,0,0,0-.59,1.47.27.27,0,0,0,.3.26l.31-.42a.88.88,0,0,1-.1-.23,4.61,4.61,0,0,1,1.78-.62,1.53,1.53,0,0,1,.71.42h.26a4.34,4.34,0,0,0,.62-1.7l-1.1.09h0a1.77,1.77,0,0,0-1.34-.67l-.05-.11v-.15s.07-.1.2-.16h.31a1.66,1.66,0,0,1,.91.34c1.19-.14,1.79-.58,1.79-1.35.17-.56.42-.85.76-.85.11,0,.16.09.16.26a4.32,4.32,0,0,1-.29,1c.08,0,.13,0,.13.11a4.87,4.87,0,0,1,1.25-.19c.06,0,.09,0,.09.08V87c0,.09-.25.26-.74.53a7,7,0,0,0-.35,2.17v.27a.24.24,0,0,0,.26.24,4.53,4.53,0,0,0,1.3-.92h0s.1.06.17.18v.46A5.62,5.62,0,0,1,785,91.21l-.09.55v.88l.12.24,1.07-.09h.65a.62.62,0,0,1,.35.59v.08a.07.07,0,0,1-.08.08h-.76q-1.35.06-1.35.69a5,5,0,0,1,.08.65c-.16.68-.4,1-.71,1-.2-.21-.29-.32-.29-.32a8.49,8.49,0,0,0,.16-1.63,13.18,13.18,0,0,1-1.35.1h-.33a.79.79,0,0,1-.68-.44v-.23c0-.06,0-.09.08-.09h.5l.52.09c.78-.12,1.18-.26,1.18-.42V91.6h-.19a5.72,5.72,0,0,1-1.59.34h-.14l-.23-.12a14.3,14.3,0,0,0-1.23,2.54c1.34.82,2.48,1.47,3.43,2a7.47,7.47,0,0,0,1.57.44l.42-.26h.15s.1.11.16.33a.58.58,0,0,1-.58.51q-2,0-5.8-2.54h-.19c-.19,0-.39.54-.59,1.59-.66,1.19-1.19,1.79-1.59,1.79a.69.69,0,0,1-.43-.35v0a12.61,12.61,0,0,0,.92-4.82c.06,0,.09-.08.09-.23l-.25-.12a6.42,6.42,0,0,1-1.1.17h-.51c-.06,0-.14-.09-.25-.27v-.15q0-.24,1.77-.42c0-.12.17-.24.51-.35V91c0-.29,0-.74.09-1.36h-.18c-.77.06-1.23.08-1.39.08l-.21-.27v-.14c0-.1.25-.18.76-.27v-.15c0-.23,0-.35-.08-.35C777.67,86.15,777.94,84.94,778.21,84.94Zm1,7.42c0,.12,0,.18.08.18a12.91,12.91,0,0,0-.16,1.8,6.28,6.28,0,0,0,2-2.78,1.2,1.2,0,0,0,.35-.8v-.25h-.17c-.77,0-1.47.55-2.12,1.67Zm4-1.77v.17h.36a1,1,0,0,0,.58-1v-.93H784C783.82,88.82,783.57,89.41,783.27,90.59Z" transform="translate(-283.35 -73.21)"/><rect class="cls-1" x="157.5" y="66.5" width="136.65" height="32.96"/><line class="cls-1" x1="193.71" y1="66.5" x2="193.71" y2="99.46"/><line class="cls-1" x1="227.71" y1="66.5" x2="227.71" y2="99.46"/><line class="cls-1" x1="261.71" y1="66.5" x2="261.71" y2="99.46"/><path class="cls-2" d="M490.51,156.62c0-3.86,1.57-5.93,4.12-5.93s4.13,2.07,4.13,5.93-1.57,6-4.13,6S490.51,160.43,490.51,156.62Zm6.86,0c0-3.3-1.14-4.72-2.74-4.72s-2.73,1.42-2.73,4.72,1.13,4.78,2.73,4.78S497.37,159.91,497.37,156.62Zm-3.85-.13a1.12,1.12,0,1,1,1.11,1.21A1.12,1.12,0,0,1,493.52,156.49Z" transform="translate(-283.35 -73.21)"/><rect class="cls-1" x="0.5" y="126.5" width="136.65" height="32.96"/><line class="cls-1" x1="36.71" y1="126.5" x2="36.71" y2="159.46"/><line class="cls-1" x1="70.71" y1="126.5" x2="70.71" y2="159.46"/><line class="cls-1" x1="104.71" y1="126.5" x2="104.71" y2="159.46"/><path class="cls-2" d="M298.51,216.62c0-3.86,1.57-5.93,4.12-5.93s4.13,2.07,4.13,5.93-1.57,6-4.13,6S298.51,220.43,298.51,216.62Zm6.86,0c0-3.3-1.14-4.72-2.74-4.72s-2.73,1.42-2.73,4.72,1.13,4.78,2.73,4.78S305.37,219.91,305.37,216.62Zm-3.85-.13a1.12,1.12,0,1,1,1.11,1.21A1.12,1.12,0,0,1,301.52,216.49Z" transform="translate(-283.35 -73.21)"/><rect class="cls-1" x="316.5" y="126.5" width="136.65" height="32.96"/><line class="cls-1" x1="352.71" y1="126.5" x2="352.71" y2="159.46"/><line class="cls-1" x1="386.71" y1="126.5" x2="386.71" y2="159.46"/><line class="cls-1" x1="420.71" y1="126.5" x2="420.71" y2="159.46"/><path class="cls-2" d="M614.51,216.62c0-3.86,1.57-5.93,4.12-5.93s4.13,2.07,4.13,5.93-1.57,6-4.13,6S614.51,220.43,614.51,216.62Zm6.86,0c0-3.3-1.14-4.72-2.74-4.72s-2.73,1.42-2.73,4.72,1.13,4.78,2.73,4.78S621.37,219.91,621.37,216.62Zm-3.85-.13a1.12,1.12,0,1,1,1.11,1.21A1.12,1.12,0,0,1,617.52,216.49Z" transform="translate(-283.35 -73.21)"/><path class="cls-2" d="M650,220.15h3.31v-8.42h-2.57v-1a8.43,8.43,0,0,0,2.95-.84h1.12v10.24h3v1.24H650Z" transform="translate(-283.35 -73.21)"/><path class="cls-2" d="M676.05,212.84H677l2.1,4.12.63,1.36h0c0-.65-.11-1.39-.11-2.08v-3.4h.8v6.55h-.92l-2.1-4.11-.63-1.36h0c0,.67.11,1.37.11,2.05v3.42h-.8Z" transform="translate(-283.35 -73.21)"/><path class="cls-2" d="M682,216.92v-4.08h.85v4.1c0,1.35.59,1.84,1.37,1.84s1.39-.49,1.39-1.84v-4.1h.81v4.08c0,1.87-.92,2.6-2.2,2.6S682,218.79,682,216.92Z" transform="translate(-283.35 -73.21)"/><path class="cls-2" d="M688.57,212.84h.83v5.85h3.24v.7h-4.07Z" transform="translate(-283.35 -73.21)"/><path class="cls-2" d="M694.57,212.84h.83v5.85h3.24v.7h-4.07Z" transform="translate(-283.35 -73.21)"/><path class="cls-2" d="M709.05,212.84H710l2.1,4.12.63,1.36h0c0-.65-.11-1.39-.11-2.08v-3.4h.8v6.55h-.92l-2.1-4.11-.63-1.36h0c0,.67.11,1.37.11,2.05v3.42h-.8Z" transform="translate(-283.35 -73.21)"/><path class="cls-2" d="M715,216.92v-4.08h.85v4.1c0,1.35.59,1.84,1.37,1.84s1.39-.49,1.39-1.84v-4.1h.81v4.08c0,1.87-.92,2.6-2.2,2.6S715,218.79,715,216.92Z" transform="translate(-283.35 -73.21)"/><path class="cls-2" d="M721.57,212.84h.83v5.85h3.24v.7h-4.07Z" transform="translate(-283.35 -73.21)"/><path class="cls-2" d="M727.57,212.84h.83v5.85h3.24v.7h-4.07Z" transform="translate(-283.35 -73.21)"/><rect class="cls-1" x="0.5" y="174.5" width="136.65" height="32.96"/><line class="cls-1" x1="36.71" y1="174.5" x2="36.71" y2="207.46"/><line class="cls-1" x1="70.71" y1="174.5" x2="70.71" y2="207.46"/><line class="cls-1" x1="104.71" y1="174.5" x2="104.71" y2="207.46"/><path class="cls-2" d="M299,269.15h3.31v-8.42h-2.57v-1a8.43,8.43,0,0,0,2.95-.84h1.11v10.24h3v1.24H299Z" transform="translate(-283.35 -73.21)"/><rect class="cls-1" x="157.5" y="174.5" width="136.65" height="32.96"/><line class="cls-1" x1="193.71" y1="174.5" x2="193.71" y2="207.46"/><path class="cls-2" d="M517.05,260.84H518l2.1,4.12.63,1.36h0c0-.65-.11-1.39-.11-2.08v-3.4h.8v6.55h-.92l-2.1-4.11-.63-1.36h0c0,.67.11,1.37.11,2.05v3.42h-.8Z" transform="translate(-283.35 -73.21)"/><path class="cls-2" d="M523,264.92v-4.08h.85v4.1c0,1.35.59,1.84,1.37,1.84s1.39-.49,1.39-1.84v-4.1h.81v4.08c0,1.87-.92,2.6-2.2,2.6S523,266.79,523,264.92Z" transform="translate(-283.35 -73.21)"/><path class="cls-2" d="M529.57,260.84h.83v5.85h3.24v.7h-4.07Z" transform="translate(-283.35 -73.21)"/><path class="cls-2" d="M535.57,260.84h.83v5.85h3.24v.7h-4.07Z" transform="translate(-283.35 -73.21)"/><line class="cls-1" x1="227.71" y1="174.5" x2="227.71" y2="207.46"/><line class="cls-1" x1="261.71" y1="174.5" x2="261.71" y2="207.46"/><path class="cls-2" d="M456,269.15h3.31v-8.42h-2.57v-1a8.43,8.43,0,0,0,2.95-.84h1.11v10.24h3v1.24H456Z" transform="translate(-283.35 -73.21)"/><path class="cls-2" d="M489.51,264.62c0-3.86,1.57-5.93,4.12-5.93s4.13,2.07,4.13,5.93-1.57,6-4.13,6S489.51,268.43,489.51,264.62Zm6.86,0c0-3.3-1.14-4.72-2.74-4.72s-2.73,1.42-2.73,4.72,1.13,4.78,2.73,4.78S496.37,267.91,496.37,264.62Zm-3.85-.13a1.12,1.12,0,1,1,1.11,1.21A1.12,1.12,0,0,1,492.52,264.49Z" transform="translate(-283.35 -73.21)"/><path class="cls-2" d="M836.05,260.84H837l2.1,4.12.63,1.36h0c0-.65-.11-1.39-.11-2.08v-3.4h.8v6.55h-.92l-2.1-4.11-.63-1.36h0c0,.67.11,1.37.11,2.05v3.42h-.8Z" transform="translate(-283.35 -73.21)"/><path class="cls-2" d="M842,264.92v-4.08h.85v4.1c0,1.35.59,1.84,1.37,1.84s1.39-.49,1.39-1.84v-4.1h.81v4.08c0,1.87-.92,2.6-2.2,2.6S842,266.79,842,264.92Z" transform="translate(-283.35 -73.21)"/><path class="cls-2" d="M848.57,260.84h.83v5.85h3.24v.7h-4.07Z" transform="translate(-283.35 -73.21)"/><path class="cls-2" d="M854.57,260.84h.83v5.85h3.24v.7h-4.07Z" transform="translate(-283.35 -73.21)"/><path class="cls-2" d="M870.05,260.84H871l2.1,4.12.63,1.36h0c0-.65-.11-1.39-.11-2.08v-3.4h.8v6.55h-.92l-2.1-4.11-.63-1.36h0c0,.67.11,1.37.11,2.05v3.42h-.8Z" transform="translate(-283.35 -73.21)"/><path class="cls-2" d="M876,264.92v-4.08h.85v4.1c0,1.35.59,1.84,1.37,1.84s1.39-.49,1.39-1.84v-4.1h.81v4.08c0,1.87-.92,2.6-2.2,2.6S876,266.79,876,264.92Z" transform="translate(-283.35 -73.21)"/><path class="cls-2" d="M882.57,260.84h.83v5.85h3.24v.7h-4.07Z" transform="translate(-283.35 -73.21)"/><path class="cls-2" d="M888.57,260.84h.83v5.85h3.24v.7h-4.07Z" transform="translate(-283.35 -73.21)"/><rect class="cls-1" x="476.5" y="174.5" width="136.65" height="32.96"/><line class="cls-1" x1="512.71" y1="174.5" x2="512.71" y2="207.46"/><line class="cls-1" x1="546.71" y1="174.5" x2="546.71" y2="207.46"/><line class="cls-1" x1="580.71" y1="174.5" x2="580.71" y2="207.46"/><path class="cls-2" d="M775,269.15h3.31v-8.42h-2.57v-1a8.43,8.43,0,0,0,2.95-.84h1.12v10.24h3v1.24H775Z" transform="translate(-283.35 -73.21)"/><path class="cls-2" d="M809.54,269.51c3.89-3.44,6-5.45,6-7.36,0-1.32-.79-2.23-2.49-2.23a4,4,0,0,0-2.75,1.36l-.86-.84a5.08,5.08,0,0,1,3.79-1.75c2.31,0,3.75,1.35,3.75,3.39s-2.16,4.3-5.28,7.13c.72-.06,1.46-.09,2.15-.09h3.76v1.27h-8.09Z" transform="translate(-283.35 -73.21)"/><path class="cls-2" d="M393.05,309.84H394l2.1,4.12.63,1.36h0c0-.65-.11-1.39-.11-2.08v-3.4h.8v6.55h-.92l-2.1-4.11-.63-1.36h0c0,.67.11,1.37.11,2.05v3.42h-.8Z" transform="translate(-283.35 -73.21)"/><path class="cls-2" d="M399,313.92v-4.08h.85v4.1c0,1.35.59,1.84,1.37,1.84s1.39-.49,1.39-1.84v-4.1h.81v4.08c0,1.87-.92,2.6-2.2,2.6S399,315.79,399,313.92Z" transform="translate(-283.35 -73.21)"/><path class="cls-2" d="M405.57,309.84h.83v5.85h3.24v.7h-4.07Z" transform="translate(-283.35 -73.21)"/><path class="cls-2" d="M411.57,309.84h.83v5.85h3.24v.7h-4.07Z" transform="translate(-283.35 -73.21)"/><rect class="cls-1" x="0.5" y="222.5" width="136.65" height="32.96"/><line class="cls-1" x1="36.71" y1="222.5" x2="36.71" y2="255.46"/><line class="cls-1" x1="70.71" y1="222.5" x2="70.71" y2="255.46"/><line class="cls-1" x1="104.71" y1="222.5" x2="104.71" y2="255.46"/><path class="cls-2" d="M298.54,317.51c3.89-3.44,6-5.45,6-7.36,0-1.32-.79-2.23-2.49-2.23a4,4,0,0,0-2.75,1.36l-.87-.84a5.12,5.12,0,0,1,3.8-1.75c2.31,0,3.75,1.35,3.75,3.39s-2.16,4.3-5.28,7.13c.72-.06,1.46-.09,2.15-.09h3.76v1.27h-8.09Z" transform="translate(-283.35 -73.21)"/><rect class="cls-1" x="316.5" y="66.5" width="136.65" height="32.96"/><line class="cls-1" x1="352.71" y1="66.5" x2="352.71" y2="99.46"/><line class="cls-1" x1="386.71" y1="66.5" x2="386.71" y2="99.46"/><line class="cls-1" x1="420.71" y1="66.5" x2="420.71" y2="99.46"/><path class="cls-2" d="M650,160.15h3.31v-8.42h-2.57v-1a8.43,8.43,0,0,0,2.95-.84h1.12v10.24h3v1.25H650Z" transform="translate(-283.35 -73.21)"/><rect class="cls-1" x="476.5" y="66.5" width="136.65" height="32.96"/><line class="cls-1" x1="512.71" y1="66.5" x2="512.71" y2="99.46"/><line class="cls-1" x1="546.71" y1="66.5" x2="546.71" y2="99.46"/><line class="cls-1" x1="580.71" y1="66.5" x2="580.71" y2="99.46"/><path class="cls-2" d="M809.54,161.51c3.89-3.44,6-5.45,6-7.36,0-1.32-.79-2.23-2.49-2.23a4,4,0,0,0-2.75,1.36l-.86-.84a5.08,5.08,0,0,1,3.79-1.75c2.31,0,3.75,1.35,3.75,3.39s-2.16,4.3-5.28,7.13c.72-.06,1.46-.09,2.15-.09h3.76v1.28h-8.09Z" transform="translate(-283.35 -73.21)"/><line class="cls-1" x1="244.65" y1="82.79" x2="244.65" y2="160.75"/><path class="cls-2" d="M528,240a30.1,30.1,0,0,0-4.76-8.55l4.76,1.72,4.75-1.72A30.31,30.31,0,0,0,528,240Z" transform="translate(-283.35 -73.21)"/><line class="cls-1" x1="121.15" y1="143.29" x2="301.11" y2="143.29"/><path class="cls-2" d="M590.5,216.5a30.1,30.1,0,0,0-8.55,4.76l1.72-4.76L582,211.75A30.31,30.31,0,0,0,590.5,216.5Z" transform="translate(-283.35 -73.21)"/><line class="cls-1" x1="121.15" y1="191.29" x2="143.11" y2="191.29"/><path class="cls-2" d="M432.5,264.5a30.1,30.1,0,0,0-8.55,4.76l1.72-4.76L424,259.75A30.31,30.31,0,0,0,432.5,264.5Z" transform="translate(-283.35 -73.21)"/><line class="cls-1" x1="278.15" y1="191.29" x2="463.11" y2="191.29"/><path class="cls-2" d="M752.5,264.5a30.1,30.1,0,0,0-8.55,4.76l1.72-4.76L744,259.75A30.31,30.31,0,0,0,752.5,264.5Z" transform="translate(-283.35 -73.21)"/><line class="cls-1" x1="403.15" y1="83.29" x2="403.15" y2="112.25"/><path class="cls-2" d="M686.5,191.5a30.1,30.1,0,0,0-4.76-8.55l4.76,1.72,4.75-1.72A30.31,30.31,0,0,0,686.5,191.5Z" transform="translate(-283.35 -73.21)"/><line class="cls-1" x1="564.15" y1="83.29" x2="564.15" y2="160.25"/><path class="cls-2" d="M847.5,239.5a30.1,30.1,0,0,0-4.76-8.55l4.76,1.72,4.75-1.72A30.31,30.31,0,0,0,847.5,239.5Z" transform="translate(-283.35 -73.21)"/><path class="cls-2" d="M606.18,348.49c0-3.82,2.18-6.12,5.24-6.12a4.34,4.34,0,0,1,3.26,1.44l-.86.95a3.09,3.09,0,0,0-2.4-1.06c-2.21,0-3.65,1.82-3.65,4.75s1.31,4.83,3.62,4.83a2.89,2.89,0,0,0,2-.69v-3.07h-2.34v-1.25h3.75v5a5,5,0,0,1-3.53,1.37C608.33,354.61,606.18,352.34,606.18,348.49Z" transform="translate(-283.35 -73.21)"/><path class="cls-2" d="M618.59,356.43l.75-.59a2.35,2.35,0,0,0,2,1c.86,0,1.58-.45,1.58-1.24s-.76-1.25-2.36-1.25v-.73c1.42,0,2.09-.56,2.09-1.28s-.58-1.1-1.44-1.1a2.18,2.18,0,0,0-1.62.85l-.68-.62a3.09,3.09,0,0,1,2.46-1.17c1.32,0,2.43.72,2.43,1.89,0,.85-.47,1.37-1.4,1.73a1.8,1.8,0,0,1,1.67,1.73c0,1.3-1.2,2.11-2.66,2.11A3.31,3.31,0,0,1,618.59,356.43Z" transform="translate(-283.35 -73.21)"/></svg>