<svg id="图层_1" data-name="图层 1" xmlns="http://www.w3.org/2000/svg" viewBox="0 0 842 285.89"><defs><style>.cls-1{fill:none;}.cls-1,.cls-3{stroke:#3ea69f;stroke-miterlimit:10;}.cls-2{fill:#3ea69f;}.cls-3{fill:#fff;}</style></defs><circle class="cls-1" cx="95.5" cy="18.5" r="18"/><path class="cls-2" d="M273.69,72.76c0-4.49,1.83-6.91,4.81-6.91s4.81,2.42,4.81,6.91-1.83,7-4.81,7S273.69,77.21,273.69,72.76Zm8,0c0-3.84-1.32-5.5-3.19-5.5s-3.19,1.66-3.19,5.5,1.32,5.59,3.19,5.59S281.69,76.6,281.69,72.76Zm-4.49-.15A1.3,1.3,0,1,1,278.5,74,1.3,1.3,0,0,1,277.2,72.61Z" transform="translate(-183 -55)"/><circle class="cls-1" cx="18.5" cy="127.5" r="18"/><path class="cls-2" d="M196.38,186.93l.86-1.16A5.31,5.31,0,0,0,201,187.3a3.11,3.11,0,0,0,3.38-3c0-1.85-1.31-2.92-3.28-2.92a5,5,0,0,0-2.73.8l-.92-.59.44-6.45h7.58v1.52h-6.05l-.36,3.94a5.84,5.84,0,0,1,2.48-.54c2.56,0,4.6,1.3,4.6,4.2s-2.39,4.53-4.95,4.53A6.72,6.72,0,0,1,196.38,186.93Z" transform="translate(-183 -55)"/><circle class="cls-1" cx="70.5" cy="203.5" r="18"/><path class="cls-2" d="M254.93,255.28c0-.73.06-1.64.1-2.37h-.1c-.44.65-.93,1.3-1.37,2L250,259.4h8.69v1.4H248v-1.15l6.68-8.55h1.86v13.4h-1.63Z" transform="translate(-183 -55)"/><circle class="cls-1" cx="124.5" cy="127.5" r="18"/><path class="cls-2" d="M302.82,182.31c0-5.38,2.68-7.46,5.6-7.46a5.32,5.32,0,0,1,3.74,1.43l-1,1.09a3.93,3.93,0,0,0-2.66-1.07c-2.19,0-4.08,1.53-4.08,6,0,3.29,1.26,5.08,3.49,5.08a2.78,2.78,0,0,0,2.81-2.94,2.55,2.55,0,0,0-2.83-2.84,4.73,4.73,0,0,0-3.51,1.89l-.06-1.36a5.68,5.68,0,0,1,3.88-1.83,3.81,3.81,0,0,1,4.18,4.14,4.32,4.32,0,0,1-4.47,4.3C305,188.75,302.82,186.61,302.82,182.31Z" transform="translate(-183 -55)"/><circle class="cls-1" cx="168.5" cy="60.5" r="18"/><path class="cls-2" d="M347.24,120.05h3.86v-9.82h-3v-1.14a9.5,9.5,0,0,0,3.44-1h1.3v12h3.49v1.45h-9.09Z" transform="translate(-183 -55)"/><circle class="cls-1" cx="213.5" cy="127.5" r="18"/><path class="cls-2" d="M391.73,187.47c4.54-4,7-6.36,7-8.59,0-1.53-.93-2.6-2.9-2.6a4.58,4.58,0,0,0-3.21,1.6l-1-1a6,6,0,0,1,4.43-2c2.69,0,4.37,1.58,4.37,4s-2.52,5-6.16,8.31c.84-.06,1.7-.1,2.5-.1h4.39v1.49h-9.43Z" transform="translate(-183 -55)"/><circle class="cls-1" cx="150.5" cy="225.5" r="18"/><path class="cls-2" d="M328.4,284.86l.88-1.13a5.41,5.41,0,0,0,3.84,1.57c1.83,0,3.19-.94,3.19-2.43s-1.34-2.67-4.85-2.67v-1.32c3.17,0,4.39-1.09,4.39-2.5s-1.11-2.1-2.73-2.1a5.12,5.12,0,0,0-3.3,1.34l-.92-1.09a6.51,6.51,0,0,1,4.28-1.68c2.52,0,4.43,1.24,4.43,3.4,0,1.62-1.19,2.65-2.85,3.2v.08c1.78.38,3.32,1.55,3.32,3.4,0,2.37-2.19,3.82-4.85,3.82A6.54,6.54,0,0,1,328.4,284.86Z" transform="translate(-183 -55)"/><line class="cls-3" x1="111.19" y1="27.32" x2="152.51" y2="52.24"/><line class="cls-3" x1="178.58" y1="75.41" x2="203.18" y2="112.76"/><line class="cls-3" x1="129.79" y1="144.71" x2="145.08" y2="208.33"/><line class="cls-3" x1="203.18" y1="142.24" x2="160.73" y2="210.69"/><line class="cls-3" x1="113.5" y1="141.74" x2="81.78" y2="189.48"/><line class="cls-3" x1="29.5" y1="141.74" x2="60.57" y2="188.49"/><line class="cls-3" x1="87.47" y1="209.5" x2="132.95" y2="221.5"/><line class="cls-3" x1="27.18" y1="111.73" x2="83.07" y2="31.52"/><line class="cls-3" x1="158.42" y1="75.41" x2="134.82" y2="112.76"/><path class="cls-2" d="M315.86,88.15c2.59-2.29,4-3.64,4-4.91,0-.87-.53-1.49-1.66-1.49a2.61,2.61,0,0,0-1.83.92l-.58-.57a3.43,3.43,0,0,1,2.53-1.16,2.22,2.22,0,0,1,2.49,2.25c0,1.44-1.43,2.87-3.51,4.75.48,0,1-.06,1.43-.06h2.5v.85h-5.38Z" transform="translate(-183 -55)"/><path class="cls-2" d="M323,86.78a2.33,2.33,0,0,1,1.64-2v0a2.14,2.14,0,0,1-1.16-1.78,2.09,2.09,0,0,1,2.36-2c1.5,0,2.38.85,2.38,2a2.39,2.39,0,0,1-1.17,1.82v0c.84.42,1.5.9,1.5,2s-1,2-2.74,2S323,88,323,86.78Zm4.6,0c0-1-1.06-1.33-2.39-1.77-.75.39-1.31.89-1.31,1.65s.75,1.45,1.93,1.45S327.6,87.59,327.6,86.8ZM327.35,83a1.36,1.36,0,0,0-1.53-1.34,1.27,1.27,0,0,0-1.43,1.23c0,.91.88,1.29,2,1.65A2,2,0,0,0,327.35,83Z" transform="translate(-183 -55)"/><path class="cls-2" d="M380.15,147.91h2.2v-5.62h-1.71v-.64a5.46,5.46,0,0,0,2-.57h.74v6.83h2v.82h-5.19Z" transform="translate(-183 -55)"/><path class="cls-2" d="M387.11,145.2c0-3.07,1.53-4.26,3.2-4.26a3.06,3.06,0,0,1,2.13.81l-.55.63a2.26,2.26,0,0,0-1.52-.61c-1.25,0-2.33.87-2.33,3.43,0,1.88.72,2.9,2,2.9a1.59,1.59,0,0,0,1.61-1.68A1.46,1.46,0,0,0,390,144.8a2.68,2.68,0,0,0-2,1.08l0-.78a3.23,3.23,0,0,1,2.22-1,2.17,2.17,0,0,1,2.39,2.36,2.47,2.47,0,0,1-2.56,2.46C388.37,148.88,387.11,147.65,387.11,145.2Z" transform="translate(-183 -55)"/><path class="cls-2" d="M221.15,122.91h2.2v-5.62h-1.71v-.64a5.46,5.46,0,0,0,2-.57h.74v6.83h2v.82h-5.19Z" transform="translate(-183 -55)"/><path class="cls-2" d="M228,119.88c0-2.56,1-3.94,2.74-3.94s2.75,1.38,2.75,3.94-1.05,4-2.75,4S228,122.43,228,119.88Zm4.56,0c0-2.19-.75-3.14-1.82-3.14s-1.82,1-1.82,3.14.75,3.19,1.82,3.19S232.6,122.08,232.6,119.88ZM230,119.8a.75.75,0,1,1,.74.8A.74.74,0,0,1,230,119.8Z" transform="translate(-183 -55)"/><path class="cls-2" d="M213.86,231.15c2.59-2.29,4-3.64,4-4.91,0-.87-.53-1.49-1.66-1.49a2.61,2.61,0,0,0-1.83.92l-.58-.57a3.43,3.43,0,0,1,2.53-1.16,2.22,2.22,0,0,1,2.49,2.25c0,1.44-1.43,2.87-3.51,4.75.48,0,1-.06,1.43-.06h2.5v.85h-5.38Z" transform="translate(-183 -55)"/><path class="cls-2" d="M220.86,230.83l.49-.66a3,3,0,0,0,2.16.88,1.78,1.78,0,0,0,1.93-1.74,1.66,1.66,0,0,0-1.87-1.67,2.85,2.85,0,0,0-1.56.46l-.53-.34.25-3.68h4.33V225h-3.45l-.21,2.25a3.33,3.33,0,0,1,1.42-.31,2.32,2.32,0,0,1,2.62,2.4,2.63,2.63,0,0,1-2.83,2.59A3.81,3.81,0,0,1,220.86,230.83Z" transform="translate(-183 -55)"/><path class="cls-2" d="M265.86,217.15c2.59-2.29,4-3.64,4-4.91,0-.87-.53-1.49-1.66-1.49a2.61,2.61,0,0,0-1.83.92l-.58-.57a3.43,3.43,0,0,1,2.53-1.16,2.22,2.22,0,0,1,2.49,2.25c0,1.44-1.43,2.87-3.51,4.75.48,0,1-.06,1.43-.06h2.5v.85h-5.38Z" transform="translate(-183 -55)"/><path class="cls-2" d="M276.6,212.47c0-.42,0-.94.06-1.36h-.06c-.25.38-.53.75-.78,1.12l-2.07,2.59h5v.8h-6.07V215l3.82-4.88h1.06v7.65h-.93Z" transform="translate(-183 -55)"/><path class="cls-2" d="M285.86,281.15c2.59-2.29,4-3.64,4-4.91,0-.87-.53-1.49-1.66-1.49a2.61,2.61,0,0,0-1.83.92l-.58-.57a3.43,3.43,0,0,1,2.53-1.16,2.22,2.22,0,0,1,2.49,2.25c0,1.44-1.43,2.87-3.51,4.75.48,0,1-.06,1.43-.06h2.5v.85h-5.38Z" transform="translate(-183 -55)"/><path class="cls-2" d="M293.06,281.15c2.59-2.29,4-3.64,4-4.91,0-.87-.52-1.49-1.65-1.49a2.65,2.65,0,0,0-1.84.92l-.57-.57a3.42,3.42,0,0,1,2.53-1.16,2.23,2.23,0,0,1,2.49,2.25c0,1.44-1.44,2.87-3.51,4.75.48,0,1-.06,1.43-.06h2.5v.85h-5.38Z" transform="translate(-183 -55)"/><path class="cls-2" d="M325.15,230.91h2.2v-5.62h-1.71v-.64a5.46,5.46,0,0,0,2-.57h.74v6.83h2v.82h-5.19Z" transform="translate(-183 -55)"/><path class="cls-2" d="M332,229.78a2.33,2.33,0,0,1,1.64-2v-.05a2.14,2.14,0,0,1-1.16-1.78,2.09,2.09,0,0,1,2.36-2c1.5,0,2.38.85,2.38,2a2.39,2.39,0,0,1-1.17,1.82v0c.84.42,1.5.9,1.5,2s-1,2-2.74,2S332,231,332,229.78Zm4.6,0c0-1.05-1.06-1.33-2.39-1.77-.75.39-1.31.89-1.31,1.65s.75,1.45,1.93,1.45S336.6,230.59,336.6,229.8Zm-.25-3.77a1.36,1.36,0,0,0-1.53-1.35,1.27,1.27,0,0,0-1.43,1.23c0,.91.88,1.29,2,1.65A1.94,1.94,0,0,0,336.35,226Z" transform="translate(-183 -55)"/><path class="cls-2" d="M369.15,239.91h2.2v-5.62h-1.71v-.64a5.46,5.46,0,0,0,2-.57h.74v6.83h2v.82h-5.19Z" transform="translate(-183 -55)"/><path class="cls-2" d="M376.06,240.15c2.59-2.29,4-3.64,4-4.91,0-.87-.52-1.49-1.65-1.49a2.65,2.65,0,0,0-1.84.92l-.57-.57a3.42,3.42,0,0,1,2.53-1.16,2.23,2.23,0,0,1,2.49,2.25c0,1.44-1.44,2.87-3.51,4.75.48,0,1-.06,1.43-.06h2.5v.85h-5.38Z" transform="translate(-183 -55)"/><path class="cls-2" d="M312.15,147.91h2.2v-5.62h-1.71v-.64a5.46,5.46,0,0,0,2-.57h.74v6.83h2v.82h-5.19Z" transform="translate(-183 -55)"/><path class="cls-2" d="M322.6,143.47c0-.42,0-.94.06-1.36h-.06c-.25.38-.53.75-.78,1.12l-2.07,2.59h5v.8h-6.07V146l3.82-4.88h1.06v7.65h-.93Z" transform="translate(-183 -55)"/><path class="cls-2" d="M303.79,325.52a2,2,0,0,1,1,1.77v.26c-.11,3-.16,4.64-.16,5v2.2c0,.49,0,1,.07,1.52-.09,1-.21,1.45-.35,1.45h-.3c-.71-.68-1.2-1-1.48-1a18.62,18.62,0,0,1-2.94.93h-.25c-.07,0-.16-.09-.27-.29V337a9.46,9.46,0,0,1,2.45-1q0-.15.33-.15v-.17c-.07-.21-.26-.31-.57-.31h-.76c-.07,0-.1,0-.1-.1v-.5c0-.07,0-.11.1-.11h.33c1,.06,1.45.34,1.45.85.73.08,1.1.36,1.1.84h.16c.16,0,.23-.08.23-.24v-2.64a5.09,5.09,0,0,0-2.17-1.13q-.3,0-.51.69c.63.39.94.74.94,1.06,0,.07-.05.1-.17.1l-1.15-.35a1,1,0,0,1-.49.6h-.4c-.35,0-.52-.15-.52-.44.29,0,.7-.72,1.21-2.14a10.67,10.67,0,0,0-2-.78V331a18.37,18.37,0,0,1,.68-3.06l-.32-.22q-.93.07-.93.33c0,.4.06,1.16.17,2.28h-.1a27.94,27.94,0,0,1,.19,3.87v1l.08.49a6.11,6.11,0,0,0-.17,1.29,4,4,0,0,1,.09.73,1,1,0,0,1-.46.54h-.15c-.05,0-.17-.13-.35-.38,0-.82,0-2,.08-3.42l.1-.18-.1-.18a59.68,59.68,0,0,0-.49-7.88l.1-.05h.13a1.07,1.07,0,0,1,.54.84A47,47,0,0,0,303.79,325.52Zm-4,4h.28a6.72,6.72,0,0,1,2.08-1.43h.15a1,1,0,0,1,.45.93l-.87,2.61h.17a4.34,4.34,0,0,0,1.77.68A.67.67,0,0,1,304,332c0-.11,0-.16-.08-.16l.16-2.39c0-.1,0-.15-.07-.15l.07-.35v-1.69c0-.32-.11-.52-.32-.58-1.93.51-2.92.76-3,.76A3.5,3.5,0,0,0,299.83,329.47Zm0,1v.37l1,.14H301a5.59,5.59,0,0,0,.76-1.58v-.2C301.4,329.21,300.75,329.63,299.84,330.48Z" transform="translate(-183 -55)"/><circle class="cls-1" cx="396.5" cy="18.5" r="18"/><path class="cls-2" d="M574.69,72.76c0-4.49,1.83-6.91,4.81-6.91s4.81,2.42,4.81,6.91-1.83,7-4.81,7S574.69,77.21,574.69,72.76Zm8,0c0-3.84-1.32-5.5-3.19-5.5s-3.19,1.66-3.19,5.5,1.32,5.59,3.19,5.59S582.69,76.6,582.69,72.76Zm-4.49-.15A1.3,1.3,0,1,1,579.5,74,1.3,1.3,0,0,1,578.2,72.61Z" transform="translate(-183 -55)"/><circle class="cls-1" cx="319.5" cy="127.5" r="18"/><path class="cls-2" d="M497.38,186.93l.86-1.16A5.31,5.31,0,0,0,502,187.3a3.11,3.11,0,0,0,3.38-3c0-1.85-1.31-2.92-3.28-2.92a5,5,0,0,0-2.73.8l-.92-.59.44-6.45h7.58v1.52h-6.05l-.36,3.94a5.84,5.84,0,0,1,2.48-.54c2.56,0,4.6,1.3,4.6,4.2s-2.39,4.53-5,4.53A6.72,6.72,0,0,1,497.38,186.93Z" transform="translate(-183 -55)"/><circle class="cls-1" cx="371.5" cy="203.5" r="18"/><path class="cls-2" d="M555.93,255.28c0-.73.06-1.64.1-2.37h-.1c-.44.65-.93,1.3-1.37,2L551,259.4h8.69v1.4H549v-1.15l6.68-8.55h1.86v13.4h-1.63Z" transform="translate(-183 -55)"/><circle class="cls-1" cx="425.5" cy="127.5" r="18"/><path class="cls-2" d="M603.82,182.31c0-5.38,2.68-7.46,5.6-7.46a5.32,5.32,0,0,1,3.74,1.43l-1,1.09a3.93,3.93,0,0,0-2.66-1.07c-2.19,0-4.07,1.53-4.07,6,0,3.29,1.25,5.08,3.48,5.08a2.78,2.78,0,0,0,2.81-2.94,2.55,2.55,0,0,0-2.83-2.84,4.73,4.73,0,0,0-3.51,1.89l-.06-1.36a5.68,5.68,0,0,1,3.88-1.83,3.81,3.81,0,0,1,4.18,4.14,4.32,4.32,0,0,1-4.47,4.3C606,188.75,603.82,186.61,603.82,182.31Z" transform="translate(-183 -55)"/><circle class="cls-1" cx="469.5" cy="60.5" r="18"/><path class="cls-2" d="M648.24,120.05h3.86v-9.82h-3v-1.14a9.5,9.5,0,0,0,3.44-1h1.3v12h3.49v1.45h-9.09Z" transform="translate(-183 -55)"/><circle class="cls-1" cx="514.5" cy="127.5" r="18"/><path class="cls-2" d="M692.73,187.47c4.54-4,7-6.36,7-8.59,0-1.53-.93-2.6-2.9-2.6a4.58,4.58,0,0,0-3.21,1.6l-1-1a6,6,0,0,1,4.43-2c2.69,0,4.37,1.58,4.37,4s-2.52,5-6.16,8.31c.84-.06,1.7-.1,2.5-.1h4.39v1.49h-9.43Z" transform="translate(-183 -55)"/><circle class="cls-1" cx="451.5" cy="225.5" r="18"/><path class="cls-2" d="M629.4,284.86l.88-1.13a5.41,5.41,0,0,0,3.84,1.57c1.83,0,3.19-.94,3.19-2.43s-1.34-2.67-4.85-2.67v-1.32c3.17,0,4.39-1.09,4.39-2.5s-1.11-2.1-2.73-2.1a5.12,5.12,0,0,0-3.3,1.34l-.92-1.09a6.51,6.51,0,0,1,4.28-1.68c2.52,0,4.43,1.24,4.43,3.4,0,1.62-1.19,2.65-2.85,3.2v.08c1.78.38,3.32,1.55,3.32,3.4,0,2.37-2.19,3.82-4.85,3.82A6.54,6.54,0,0,1,629.4,284.86Z" transform="translate(-183 -55)"/><line class="cls-3" x1="504.18" y1="142.24" x2="461.73" y2="210.69"/><line class="cls-3" x1="388.47" y1="209.5" x2="433.95" y2="221.5"/><line class="cls-3" x1="328.18" y1="111.73" x2="384.07" y2="31.52"/><line class="cls-3" x1="459.42" y1="75.41" x2="435.82" y2="112.76"/><path class="cls-2" d="M522.15,122.91h2.2v-5.62h-1.71v-.64a5.46,5.46,0,0,0,2-.57h.74v6.83h2v.82h-5.19Z" transform="translate(-183 -55)"/><path class="cls-2" d="M529,119.88c0-2.56,1-3.94,2.74-3.94s2.75,1.38,2.75,3.94-1,4-2.75,4S529,122.43,529,119.88Zm4.56,0c0-2.19-.75-3.14-1.82-3.14s-1.82,1-1.82,3.14.75,3.19,1.82,3.19S533.6,122.08,533.6,119.88ZM531,119.8a.75.75,0,1,1,.74.8A.74.74,0,0,1,531,119.8Z" transform="translate(-183 -55)"/><path class="cls-2" d="M610.11,336.24h-.56a2.52,2.52,0,0,1-.43-.92c.15,0,.22-.21.22-.56v-1l.07-.42-.07-.14.07-.28a.61.61,0,0,0-.07-.28c.09-.91.14-2.08.14-3.52v-.28a.78.78,0,0,1,.36-.63h.2q.08,0,.36.42l-.07.49c-.05,3.46-.08,5.74-.08,6.82C610.16,336,610.11,336.05,610.11,336.24Z" transform="translate(-183 -55)"/><path class="cls-2" d="M586.86,281.15c2.59-2.29,4-3.64,4-4.91,0-.87-.53-1.49-1.66-1.49a2.61,2.61,0,0,0-1.83.92l-.58-.57a3.43,3.43,0,0,1,2.53-1.16,2.22,2.22,0,0,1,2.49,2.25c0,1.44-1.43,2.87-3.51,4.75.48,0,1-.06,1.43-.06h2.5v.85h-5.38Z" transform="translate(-183 -55)"/><path class="cls-2" d="M594.06,281.15c2.59-2.29,4-3.64,4-4.91,0-.87-.52-1.49-1.65-1.49a2.65,2.65,0,0,0-1.84.92l-.57-.57a3.42,3.42,0,0,1,2.53-1.16,2.23,2.23,0,0,1,2.49,2.25c0,1.44-1.44,2.87-3.51,4.75.48,0,1-.06,1.43-.06h2.5v.85h-5.38Z" transform="translate(-183 -55)"/><path class="cls-2" d="M670.15,239.91h2.2v-5.62h-1.71v-.64a5.46,5.46,0,0,0,2-.57h.74v6.83h2v.82h-5.19Z" transform="translate(-183 -55)"/><path class="cls-2" d="M677.06,240.15c2.59-2.29,4-3.64,4-4.91,0-.87-.52-1.49-1.65-1.49a2.65,2.65,0,0,0-1.84.92l-.57-.57a3.43,3.43,0,0,1,2.53-1.16,2.23,2.23,0,0,1,2.49,2.25c0,1.44-1.44,2.87-3.51,4.75.48,0,1-.06,1.43-.06h2.5v.85h-5.38Z" transform="translate(-183 -55)"/><path class="cls-2" d="M613.15,147.91h2.2v-5.62h-1.71v-.64a5.46,5.46,0,0,0,2-.57h.74v6.83h2v.82h-5.19Z" transform="translate(-183 -55)"/><path class="cls-2" d="M623.6,143.47c0-.42,0-.94.06-1.36h-.06c-.25.38-.53.75-.78,1.12l-2.07,2.59h5v.8h-6.07V146l3.81-4.88h1.07v7.65h-.93Z" transform="translate(-183 -55)"/><circle class="cls-1" cx="705.5" cy="18.5" r="18"/><path class="cls-2" d="M883.69,72.76c0-4.49,1.83-6.91,4.81-6.91s4.81,2.42,4.81,6.91-1.83,7-4.81,7S883.69,77.21,883.69,72.76Zm8,0c0-3.84-1.32-5.5-3.19-5.5s-3.19,1.66-3.19,5.5,1.32,5.59,3.19,5.59S891.69,76.6,891.69,72.76Zm-4.49-.15A1.3,1.3,0,1,1,888.5,74,1.3,1.3,0,0,1,887.2,72.61Z" transform="translate(-183 -55)"/><circle class="cls-1" cx="628.5" cy="127.5" r="18"/><path class="cls-2" d="M806.38,186.93l.86-1.16A5.31,5.31,0,0,0,811,187.3a3.11,3.11,0,0,0,3.38-3c0-1.85-1.31-2.92-3.28-2.92a5,5,0,0,0-2.73.8l-.92-.59.44-6.45h7.58v1.52h-6l-.36,3.94a5.84,5.84,0,0,1,2.48-.54c2.56,0,4.6,1.3,4.6,4.2s-2.39,4.53-4.95,4.53A6.72,6.72,0,0,1,806.38,186.93Z" transform="translate(-183 -55)"/><circle class="cls-1" cx="680.5" cy="203.5" r="18"/><path class="cls-2" d="M864.93,255.28c0-.73.06-1.64.1-2.37h-.1c-.44.65-.93,1.3-1.37,2L860,259.4h8.69v1.4H858v-1.15l6.68-8.55h1.86v13.4h-1.63Z" transform="translate(-183 -55)"/><circle class="cls-1" cx="734.5" cy="127.5" r="18"/><path class="cls-2" d="M912.82,182.31c0-5.38,2.68-7.46,5.6-7.46a5.32,5.32,0,0,1,3.74,1.43l-1,1.09a3.93,3.93,0,0,0-2.66-1.07c-2.19,0-4.07,1.53-4.07,6,0,3.29,1.25,5.08,3.48,5.08a2.78,2.78,0,0,0,2.81-2.94,2.55,2.55,0,0,0-2.83-2.84,4.73,4.73,0,0,0-3.51,1.89l-.06-1.36a5.68,5.68,0,0,1,3.88-1.83,3.81,3.81,0,0,1,4.18,4.14,4.32,4.32,0,0,1-4.47,4.3C915,188.75,912.82,186.61,912.82,182.31Z" transform="translate(-183 -55)"/><circle class="cls-1" cx="778.5" cy="60.5" r="18"/><path class="cls-2" d="M957.24,120.05h3.86v-9.82h-3v-1.14a9.5,9.5,0,0,0,3.44-1h1.3v12h3.49v1.45h-9.09Z" transform="translate(-183 -55)"/><circle class="cls-1" cx="823.5" cy="127.5" r="18"/><path class="cls-2" d="M1001.73,187.47c4.54-4,7-6.36,7-8.59,0-1.53-.93-2.6-2.9-2.6a4.58,4.58,0,0,0-3.21,1.6l-1-1a6,6,0,0,1,4.43-2c2.69,0,4.37,1.58,4.37,4s-2.52,5-6.16,8.31c.84-.06,1.7-.1,2.5-.1h4.39v1.49h-9.43Z" transform="translate(-183 -55)"/><circle class="cls-1" cx="760.5" cy="225.5" r="18"/><path class="cls-2" d="M938.4,284.86l.88-1.13a5.41,5.41,0,0,0,3.84,1.57c1.83,0,3.19-.94,3.19-2.43s-1.34-2.67-4.85-2.67v-1.32c3.17,0,4.39-1.09,4.39-2.5s-1.11-2.1-2.73-2.1a5.12,5.12,0,0,0-3.3,1.34l-.92-1.09a6.51,6.51,0,0,1,4.28-1.68c2.52,0,4.43,1.24,4.43,3.4,0,1.62-1.19,2.65-2.85,3.2v.08c1.78.38,3.32,1.55,3.32,3.4,0,2.37-2.19,3.82-4.85,3.82A6.54,6.54,0,0,1,938.4,284.86Z" transform="translate(-183 -55)"/><line class="cls-3" x1="788.58" y1="75.41" x2="813.18" y2="112.76"/><line class="cls-3" x1="813.18" y1="142.24" x2="770.73" y2="210.69"/><line class="cls-3" x1="639.5" y1="141.74" x2="670.57" y2="188.49"/><line class="cls-3" x1="697.47" y1="209.5" x2="742.95" y2="221.5"/><line class="cls-3" x1="637.18" y1="111.73" x2="693.07" y2="31.52"/><line class="cls-3" x1="768.42" y1="75.41" x2="744.82" y2="112.76"/><path class="cls-2" d="M990.15,147.91h2.2v-5.62h-1.71v-.64a5.46,5.46,0,0,0,2-.57h.74v6.83h2v.82h-5.19Z" transform="translate(-183 -55)"/><path class="cls-2" d="M997.11,145.2c0-3.07,1.53-4.26,3.2-4.26a3.06,3.06,0,0,1,2.13.81l-.55.63a2.24,2.24,0,0,0-1.52-.61c-1.25,0-2.33.87-2.33,3.43,0,1.88.72,2.9,2,2.9a1.59,1.59,0,0,0,1.61-1.68,1.46,1.46,0,0,0-1.62-1.62,2.68,2.68,0,0,0-2,1.08l0-.78a3.23,3.23,0,0,1,2.22-1,2.17,2.17,0,0,1,2.39,2.36,2.47,2.47,0,0,1-2.56,2.46C998.37,148.88,997.11,147.65,997.11,145.2Z" transform="translate(-183 -55)"/><path class="cls-2" d="M831.15,122.91h2.2v-5.62h-1.71v-.64a5.46,5.46,0,0,0,2-.57h.74v6.83h2v.82h-5.19Z" transform="translate(-183 -55)"/><path class="cls-2" d="M838,119.88c0-2.56,1-3.94,2.74-3.94s2.75,1.38,2.75,3.94-1,4-2.75,4S838,122.43,838,119.88Zm4.56,0c0-2.19-.75-3.14-1.82-3.14s-1.82,1-1.82,3.14.75,3.19,1.82,3.19S842.6,122.08,842.6,119.88ZM840,119.8a.75.75,0,1,1,.74.8A.74.74,0,0,1,840,119.8Z" transform="translate(-183 -55)"/><path class="cls-2" d="M864.89,327.65q.39.15.42.33v.33a19.5,19.5,0,0,1-4.89,2.2.08.08,0,0,1-.09.09l.09.17V331c0,.28,0,.7-.09,1.27l.18.08h.58a9.59,9.59,0,0,0-.25-1.6c0-.16.14-.3.42-.43.51,0,.76.87.76,2.61l-.08.51v.94l.08.16a1.9,1.9,0,0,1,1-.42,5.18,5.18,0,0,1-1,1.1q.6,4.54.6,5.31l-.43.34h-.42c-.23,0-.45-.62-.68-1.85l.34-.18a21.27,21.27,0,0,1-.17-2.78c-.06,0-.09,0-.09-.08-.45.35-1.3,1.08-2.53,2.19h-.17a.5.5,0,0,1-.33-.42,6,6,0,0,1,1-1.19v-.67l.26-5.07h-.09a18.68,18.68,0,0,1-2.19.43.74.74,0,0,1-.68-.43v-.16c0-.22.62-.42,1.86-.59A62.5,62.5,0,0,0,864.89,327.65Zm-5.48-4.73c.25,0,.42.36.5,1.1h.17a10,10,0,0,1,3-.85h.08c.35,0,.58.25.67.76-.85,2.82-1.38,4.28-1.6,4.38a.64.64,0,0,1-.34.09c0-.08-.08-.17-.25-.25a6,6,0,0,0-1.77,1.35h-.34a.73.73,0,0,1-.43-.68v-.51c-.16-2.31-.24-3.82-.24-4.55v-.25A.52.52,0,0,1,859.41,322.92Zm.59,2.78c0,.11.07.17.16.17l1.36-.09c.22.06.33.18.33.34.11,0,.31-.56.59-1.68v-.09A23.12,23.12,0,0,1,860,325Zm.08,1.27a5.75,5.75,0,0,0,.25.92c.9-.13,1.35-.29,1.35-.5a5.49,5.49,0,0,1,.17-.84h-.17A3.62,3.62,0,0,1,860.08,327Zm.93,7.5c0,.08-.31.34-.93.77v.59h.08c.62-.38,1-.63,1-.77v-.42C861.17,334.53,861.12,334.47,861,334.47Zm-.85-1v.59L861,334h.08V333H861C860.44,333.25,860.16,333.39,860.16,333.46Zm6.42-2.86c.39,0,.59.17.59.5-1.13,2.32-1.69,3.53-1.69,3.63a7.42,7.42,0,0,1,1.85,1.69v.25a.55.55,0,0,1-.58.34c-.94-1.07-1.56-1.6-1.86-1.6-.52.78-1,1.17-1.43,1.17q-.39-.15-.42-.33V336l1.26-1.27a3.37,3.37,0,0,0-1.26-1.18l-.51.08h-.09c-.08,0-.16-.08-.25-.25v-.25a31.38,31.38,0,0,1,4.3-2.53ZM864.05,333v.17c0,.07.22.29.67.68h.17a9,9,0,0,0,.76-1.69h-.08C864.68,332.72,864.17,333,864.05,333Z" transform="translate(-183 -55)"/><path class="cls-2" d="M872.06,329.19h.25a2.3,2.3,0,0,1,.51,1.61v1.1c0,1.91-.2,2.86-.59,2.86H872a.56.56,0,0,1-.33-.58c.11-1.16.17-1.95.17-2.37v-2.36C871.81,329.37,871.89,329.28,872.06,329.19Zm4.39-3.71a5.09,5.09,0,0,1,1.52,4.13v.94q0,2.55-.42,7.5c-.19.17-.33.26-.43.26a13.79,13.79,0,0,1-2.36-3,2.83,2.83,0,0,0-.25-.75h.08a22.11,22.11,0,0,1,1.86,1.94h.17L877,330a15.28,15.28,0,0,0-.67-4.47Zm3.8,3.63q.87,0,3.54,3.46a.58.58,0,0,1-.34.6,17.33,17.33,0,0,1-3.37-3.56,2.13,2.13,0,0,1-.09-.33Z" transform="translate(-183 -55)"/><path class="cls-2" d="M891.67,325.74h.17a.7.7,0,0,1,.51.68,25.74,25.74,0,0,1-1.52,2.44,4.65,4.65,0,0,1,.75,2.2v.07Q891.47,337,891,337h-.16a.54.54,0,0,1-.59-.42,29.65,29.65,0,0,0,.59-4.64v-1.43c-.11-.63-.3-.94-.59-.94-1,1.34-1.65,2-1.86,2l-.43.08-.24-.33v-.17A38.7,38.7,0,0,1,891.67,325.74Zm1.69-.26q.63.61,1.6,4.64.43,0,1.77-1.26H897c-.38,1.52-.8,2.27-1.27,2.27a1.74,1.74,0,0,0-.42.68l.84,5h.17a20.63,20.63,0,0,0,2.7-3.62l.26-.26.07.17q-1.74,5.06-2.61,5.06c0,.11-.05.17-.16.17-.74,0-1.1-.26-1.1-.76a44.64,44.64,0,0,0-1-5.32h-.09a13.6,13.6,0,0,1-1.78.51q-.75,0-.75-.42c0-.2.83-.74,2.36-1.61v-.16c-.39-1.8-.79-3.35-1.18-4.64C893.13,325.65,893.24,325.51,893.36,325.48Zm2.86.94h.26a12.19,12.19,0,0,1,1.26,1.93c0,.12,0,.17-.16.17h-.09a17.64,17.64,0,0,1-1.43-1.68v-.26C896.07,326.47,896.13,326.42,896.22,326.42Z" transform="translate(-183 -55)"/><path class="cls-2" d="M907.19,325h.17a.72.72,0,0,1,.42.6q0,1.2-2.44,4v.09h.25c.57,0,.85.42.85,1.27q-.23,5.47-.6,5.48h-.33c-.13,0-.22-.14-.26-.42.23-2.49.34-4.18.34-5.06v-.34c0-.11-.08-.17-.25-.17a14.08,14.08,0,0,0-2.11.93l-.17-.26V331q3.95-4.2,4.05-5.4c-.12-.14-.17-.22-.17-.25v-.09C906.94,325.15,907,325.06,907.19,325Zm3.12-.75.26.51c0,.09-.28.88-.85,2.35a6.49,6.49,0,0,1,1.27-.16h1.43q3.21.42,3.21.84V328c0,.09-.09.17-.25.26a11.82,11.82,0,0,1-1.86-.34h-.17V328a2.56,2.56,0,0,1,.34,1.44v.42q0,8.63-1.35,9.7l-.08-.16v-.09a61.45,61.45,0,0,0,.58-8.19V329c0-.4-.25-.59-.75-.59v-.34c0-.11.08-.17.25-.17v-.17h-.42c-.06,0-.09,0-.09-.08l-.16.08h-1.1l-.17.09a9.78,9.78,0,0,1,.17,1.94c0,.83,0,2-.09,3.38a10.44,10.44,0,0,1,.09,1.51c-.11.25-.22.4-.34.42h-.08c-.26,0-.43-.56-.51-1.69.06-.73.08-1.32.08-1.77v-3.71h-.08c-.44,0-.81.42-1.09,1.26-.47.68-.75,1-.85,1h-.17a.15.15,0,0,1-.17-.17c0-.47.73-2,2.2-4.64C909.74,324.61,910,324.22,910.31,324.22Z" transform="translate(-183 -55)"/><path class="cls-2" d="M921.78,326.12c.57,0,.85.47.85,1.43v.09c0,.47,0,1.17-.09,2.11.06,0,.09,0,.09.08q1.26-.29,1.26-.51v-.93q.09-2.19.51-2.19h.25c.2,0,.34.37.42,1.09-.05.9-.08,1.44-.08,1.61h.08a3,3,0,0,0,1.27-.59h.17c.17,0,.25.26.25.67a2.71,2.71,0,0,1-1.69,1.35v1.95h.09a5.91,5.91,0,0,1,1.1-.17c.08,0,.16.08.25.25q0,.61-1.44,1.35v1.52h.09l1.52-.25a19.52,19.52,0,0,1,3.45,1.77v.42a.15.15,0,0,1-.17.17h-.33a7.42,7.42,0,0,1-2.78-1.35h-.17a22.65,22.65,0,0,0-2.37,1,23,23,0,0,0-2.61.67c-.06,0-.08,0-.08-.08l-.43.08H921c-.57,0-.85-.25-.85-.75a8.06,8.06,0,0,1,2.78-.77c.56-.24.84-.4.84-.5v-1.43q0-.21-1.17-.42l-.09-.18v-.5c.06-.17.23-.25.51-.25h.67c.1,0,.18-.14.26-.43a4,4,0,0,1-.09-.75v-.09a.08.08,0,0,1,.09-.09c-.06-.44-.14-.67-.26-.67q-1.68,0-1.68,1c-.19.56-.47.84-.85.84s-.42-.13-.42-.26a25.83,25.83,0,0,0,.76-6.16A.76.76,0,0,0,921.78,326.12Z" transform="translate(-183 -55)"/><path class="cls-2" d="M937.77,326.71a6.19,6.19,0,0,0,1.93.68l1.78-.25.17.25v.08c0,.09-.31.31-.93.68a32.41,32.41,0,0,1,4,4.05h.08c1.11-1.3,1.84-1.94,2.2-1.94l.08.16v.26a8.18,8.18,0,0,0-1.69,2.36c1.3,1.95,1.94,3.5,1.94,4.64v.17c0,.09-.11.2-.33.34h-.17c-.19,0-.53-.84-1-2.53a5.54,5.54,0,0,0-1.1-1.77h-.17c-1.28,2.25-2.1,3.37-2.44,3.37l-.09-.17V337q0-1,2.11-3.88V333a19.41,19.41,0,0,0-4.56-4.55c-1.18.17-1.77.42-1.77.76-.22,1.66-.33,2.67-.33,3h.07a27.07,27.07,0,0,0,4.14-1.69.44.44,0,0,1,.43.5c-.74,1.93-1.44,4-2.11,6.16l-.35.26h-.33a10.92,10.92,0,0,1-1.78-3.12l.18-.09,1.6,2h.09q0-.22,1.68-4.72h-.08a13.48,13.48,0,0,1-3.71,1.52l-.6,6.75-.25.17h-.08c-.09,0-.2-.12-.34-.35v-.33a66.36,66.36,0,0,1,1-10.21.54.54,0,0,0-.25-.08,4.27,4.27,0,0,0-.85.08c-1-.1-1.43-.26-1.43-.5v-.17l.17-.26.42.08c1.41,0,2.11-.14,2.11-.42C937.34,327.11,937.51,326.71,937.77,326.71Zm.25.94V328c.08,0,.16-.09.25-.26v-.25h-.08C938.07,327.49,938,327.55,938,327.65Zm5.06-3.89h.51a5.26,5.26,0,0,1,2.2,2.62v.08l-.18.09c-.27,0-1-.68-2.28-2-.07,0-.21-.14-.42-.43v-.16C942.93,323.82,943,323.76,943.08,323.76Z" transform="translate(-183 -55)"/><path class="cls-2" d="M954.4,326.42a4.84,4.84,0,0,1,.92,1.52c0,.08-.22.34-.68.75V330a1.33,1.33,0,0,0,.18.68V331a2.66,2.66,0,0,1,1.6.93.15.15,0,0,1-.17.17h-.51c-.07,0-.37-.06-.92-.17v1.18c0,.57,0,1.27.08,2.11,0,.45-.14.67-.26.67h-.07c-.25,0-.45-1.18-.59-3.54-.8,1-1.36,1.52-1.69,1.52l-.09-.17a10.59,10.59,0,0,1,1.69-2.87v-1.1l-.09-.59a11.29,11.29,0,0,1-2.27.68c-.26-.11-.4-.22-.43-.33v-.09a6.65,6.65,0,0,1,1.86-.68c.55-.21.83-.38.84-.5v-.93Q953.8,326.42,954.4,326.42Zm6.92.84h.16c.19,0,.33.34.42,1V329h.17l.26-.17c.11,0,.16.07.16.17s-.16.27-.5.59v5.57a.74.74,0,0,0,.08.34.73.73,0,0,0-.08.33V336a1.9,1.9,0,0,1,.42,1c-.08.22-.17.33-.25.33h-.26a13.52,13.52,0,0,0-2.53-2.69v-.09l.09-.17a8.9,8.9,0,0,0,1.77.84v-.08c-.05-2-.08-3.57-.08-4.72l-.09-.43a15.7,15.7,0,0,0-2.7,1l-.16.58.59.51.58-.08c.74.05,1.1.17,1.1.34s-.53.33-1.61.5a2.4,2.4,0,0,0-1.09-.42c-.3.5-.5.75-.59.76h-.25a7.52,7.52,0,0,0,.33-1.26v-.09c-.67-.26-1-.6-1-1v-.09c0-.11.08-.17.17-.17a4.43,4.43,0,0,1,1,.51h.26a10.51,10.51,0,0,0,.33-1.35v-.17l-1.69.68-.16-.26V330c0-.23.7-.57,2.11-1,.19,0,.36.22.51.67a.64.64,0,0,0-.09.34v.16h.16a15.54,15.54,0,0,0,2.29-.75l-.09-.85v-.75C961.1,327.43,961.18,327.26,961.32,327.26Z" transform="translate(-183 -55)"/><path class="cls-2" d="M823.86,231.15c2.59-2.29,4-3.64,4-4.91,0-.87-.53-1.49-1.66-1.49a2.61,2.61,0,0,0-1.83.92l-.58-.57a3.43,3.43,0,0,1,2.53-1.16,2.22,2.22,0,0,1,2.49,2.25c0,1.44-1.44,2.87-3.51,4.75.48,0,1-.06,1.43-.06h2.5v.85h-5.38Z" transform="translate(-183 -55)"/><path class="cls-2" d="M830.86,230.83l.49-.66a3,3,0,0,0,2.16.88,1.78,1.78,0,0,0,1.93-1.74,1.66,1.66,0,0,0-1.87-1.67,2.85,2.85,0,0,0-1.56.46l-.53-.34.25-3.68h4.33V225h-3.45l-.21,2.25a3.33,3.33,0,0,1,1.42-.31,2.32,2.32,0,0,1,2.62,2.4,2.63,2.63,0,0,1-2.83,2.59A3.81,3.81,0,0,1,830.86,230.83Z" transform="translate(-183 -55)"/><path class="cls-2" d="M895.86,281.15c2.59-2.29,4-3.64,4-4.91,0-.87-.53-1.49-1.66-1.49a2.61,2.61,0,0,0-1.83.92l-.58-.57a3.43,3.43,0,0,1,2.53-1.16,2.22,2.22,0,0,1,2.49,2.25c0,1.44-1.44,2.87-3.51,4.75.48,0,1-.06,1.43-.06h2.5v.85h-5.38Z" transform="translate(-183 -55)"/><path class="cls-2" d="M903.06,281.15c2.59-2.29,4-3.64,4-4.91,0-.87-.52-1.49-1.65-1.49a2.65,2.65,0,0,0-1.84.92l-.57-.57a3.43,3.43,0,0,1,2.53-1.16,2.23,2.23,0,0,1,2.49,2.25c0,1.44-1.44,2.87-3.51,4.75.48,0,1-.06,1.43-.06h2.5v.85h-5.38Z" transform="translate(-183 -55)"/><path class="cls-2" d="M979.15,239.91h2.2v-5.62h-1.71v-.64a5.46,5.46,0,0,0,2-.57h.74v6.83h2v.82h-5.19Z" transform="translate(-183 -55)"/><path class="cls-2" d="M986.06,240.15c2.59-2.29,4-3.64,4-4.91,0-.87-.52-1.49-1.65-1.49a2.65,2.65,0,0,0-1.84.92l-.57-.57a3.43,3.43,0,0,1,2.53-1.16,2.23,2.23,0,0,1,2.49,2.25c0,1.44-1.44,2.87-3.51,4.75.48,0,1-.06,1.43-.06h2.5v.85h-5.38Z" transform="translate(-183 -55)"/><path class="cls-2" d="M922.15,147.91h2.2v-5.62h-1.71v-.64a5.46,5.46,0,0,0,2-.57h.74v6.83h2v.82h-5.19Z" transform="translate(-183 -55)"/><path class="cls-2" d="M932.6,143.47c0-.42,0-.94.06-1.36h-.06c-.25.38-.53.75-.78,1.12l-2.07,2.59h5v.8h-6.07V146l3.81-4.88h1.07v7.65h-.93Z" transform="translate(-183 -55)"/></svg>