<svg xmlns="http://www.w3.org/2000/svg" viewBox="0 0 589.7 356.34"><defs><style>.a{fill:none;stroke:#3ea69f;stroke-miterlimit:10;}.b{fill:#3ea69f;}</style></defs><rect class="a" x="191.2" y="56.88" width="189" height="32.96"/><line class="a" x1="303.3" y1="56.88" x2="303.3" y2="89.84"/><line class="a" x1="247.3" y1="56.88" x2="247.3" y2="89.84"/><path class="b" d="M293.92,156.64c0-4.65,1.89-7.15,5-7.15s5,2.5,5,7.15-1.89,7.23-5,7.23S293.92,161.24,293.92,156.64Zm8.28,0c0-4-1.37-5.69-3.3-5.69s-3.31,1.71-3.31,5.69,1.37,5.78,3.31,5.78S302.2,160.61,302.2,156.64Zm-4.65-.15a1.35,1.35,0,1,1,1.35,1.45A1.36,1.36,0,0,1,297.55,156.49Z" transform="translate(-80.3 -83.64)"/><path class="b" d="M350.05,157.2c0-5.56,2.78-7.71,5.8-7.71a5.49,5.49,0,0,1,3.87,1.48l-1,1.13A4.07,4.07,0,0,0,356,151c-2.26,0-4.21,1.59-4.21,6.21,0,3.41,1.3,5.26,3.6,5.26a2.88,2.88,0,0,0,2.91-3,2.63,2.63,0,0,0-2.93-2.93,4.86,4.86,0,0,0-3.63,1.95l-.06-1.41a5.86,5.86,0,0,1,4-1.89c2.56,0,4.32,1.43,4.32,4.28a4.47,4.47,0,0,1-4.63,4.45C352.33,163.87,350.05,161.66,350.05,157.2Z" transform="translate(-80.3 -83.64)"/><path class="b" d="M399.74,149.61h2.54l3.6,7.64,1.23,2.91h.06c-.1-1.39-.33-3.11-.33-4.63v-5.92h2.31v13.61h-2.54l-3.6-7.65-1.24-2.9h-.06c.11,1.45.33,3.09.33,4.59v6h-2.3Z" transform="translate(-80.3 -83.64)"/><path class="b" d="M412.17,158v-8.42h2.44v8.6c0,2.2.9,3.15,2.35,3.15s2.4-1,2.4-3.15v-8.6h2.33V158c0,3.71-1.75,5.44-4.73,5.44S412.17,161.74,412.17,158Z" transform="translate(-80.3 -83.64)"/><path class="b" d="M425.68,149.61h2.4v11.57h6.39v2h-8.79Z" transform="translate(-80.3 -83.64)"/><path class="b" d="M438.17,149.61h2.4v11.57H447v2h-8.79Z" transform="translate(-80.3 -83.64)"/><rect class="a" x="191.2" y="94.88" width="189" height="32.96"/><line class="a" x1="303.3" y1="94.88" x2="303.3" y2="127.84"/><line class="a" x1="247.3" y1="94.88" x2="247.3" y2="127.84"/><path class="b" d="M293.92,194.64c0-4.65,1.89-7.15,5-7.15s5,2.5,5,7.15-1.89,7.23-5,7.23S293.92,199.24,293.92,194.64Zm8.28,0c0-4-1.37-5.69-3.3-5.69s-3.31,1.71-3.31,5.69,1.37,5.78,3.31,5.78S302.2,198.61,302.2,194.64Zm-4.65-.15a1.35,1.35,0,1,1,1.35,1.45A1.36,1.36,0,0,1,297.55,194.49Z" transform="translate(-80.3 -83.64)"/><path class="b" d="M356.37,192.07c0-.76.07-1.69.11-2.45h-.11c-.45.67-.95,1.35-1.41,2l-3.74,4.69h9v1.46h-11v-1.2l6.9-8.84h1.94v13.86h-1.7Z" transform="translate(-80.3 -83.64)"/><path class="b" d="M399.74,187.61h2.54l3.6,7.64,1.23,2.91h.06c-.1-1.39-.33-3.11-.33-4.63v-5.92h2.31v13.61h-2.54l-3.6-7.65-1.24-2.9h-.06c.11,1.45.33,3.09.33,4.59v6h-2.3Z" transform="translate(-80.3 -83.64)"/><path class="b" d="M412.17,196v-8.42h2.44v8.6c0,2.2.9,3.15,2.35,3.15s2.4-1,2.4-3.15v-8.6h2.33V196c0,3.71-1.75,5.44-4.73,5.44S412.17,199.74,412.17,196Z" transform="translate(-80.3 -83.64)"/><path class="b" d="M425.68,187.61h2.4v11.57h6.39v2h-8.79Z" transform="translate(-80.3 -83.64)"/><path class="b" d="M438.17,187.61h2.4v11.57H447v2h-8.79Z" transform="translate(-80.3 -83.64)"/><rect class="a" x="191.2" y="132.88" width="189" height="32.96"/><line class="a" x1="303.3" y1="132.88" x2="303.3" y2="165.84"/><line class="a" x1="247.3" y1="132.88" x2="247.3" y2="165.84"/><path class="b" d="M293.92,232.64c0-4.65,1.89-7.15,5-7.15s5,2.5,5,7.15-1.89,7.23-5,7.23S293.92,237.24,293.92,232.64Zm8.28,0c0-4-1.37-5.69-3.3-5.69s-3.31,1.71-3.31,5.69,1.37,5.78,3.31,5.78S302.2,236.61,302.2,232.64Zm-4.65-.15a1.35,1.35,0,1,1,1.35,1.45A1.36,1.36,0,0,1,297.55,232.49Z" transform="translate(-80.3 -83.64)"/><path class="b" d="M349.59,238l.9-1.19a5.53,5.53,0,0,0,3.91,1.58,3.21,3.21,0,0,0,3.49-3.15c0-1.91-1.34-3-3.38-3a5.2,5.2,0,0,0-2.83.83l-1-.61.46-6.67H359v1.56h-6.26l-.37,4.09a5.88,5.88,0,0,1,2.56-.57c2.65,0,4.76,1.35,4.76,4.35s-2.48,4.69-5.13,4.69A7,7,0,0,1,349.59,238Z" transform="translate(-80.3 -83.64)"/><path class="b" d="M399.74,225.61h2.54l3.6,7.64,1.23,2.91h.06c-.1-1.39-.33-3.11-.33-4.63v-5.92h2.31v13.61h-2.54l-3.6-7.65-1.24-2.9h-.06c.11,1.45.33,3.09.33,4.59v6h-2.3Z" transform="translate(-80.3 -83.64)"/><path class="b" d="M412.17,234v-8.42h2.44v8.6c0,2.2.9,3.15,2.35,3.15s2.4-1,2.4-3.15v-8.6h2.33V234c0,3.71-1.75,5.44-4.73,5.44S412.17,237.74,412.17,234Z" transform="translate(-80.3 -83.64)"/><path class="b" d="M425.68,225.61h2.4v11.57h6.39v2h-8.79Z" transform="translate(-80.3 -83.64)"/><path class="b" d="M438.17,225.61h2.4v11.57H447v2h-8.79Z" transform="translate(-80.3 -83.64)"/><rect class="a" x="191.2" y="208.88" width="189" height="32.96"/><line class="a" x1="303.3" y1="208.88" x2="303.3" y2="241.84"/><line class="a" x1="247.3" y1="208.88" x2="247.3" y2="241.84"/><path class="b" d="M293.62,313.92l.91-1.17a5.63,5.63,0,0,0,4,1.63c1.89,0,3.3-1,3.3-2.53s-1.39-2.76-5-2.76v-1.36c3.28,0,4.54-1.13,4.54-2.59s-1.15-2.17-2.82-2.17a5.23,5.23,0,0,0-3.42,1.39l-.95-1.13a6.71,6.71,0,0,1,4.43-1.74c2.61,0,4.59,1.28,4.59,3.52,0,1.67-1.24,2.74-3,3.3v.09c1.85.39,3.43,1.61,3.43,3.52,0,2.46-2.26,3.95-5,3.95A6.78,6.78,0,0,1,293.62,313.92Z" transform="translate(-80.3 -83.64)"/><path class="b" d="M350,314.55c4.7-4.15,7.26-6.59,7.26-8.89,0-1.58-1-2.69-3-2.69a4.78,4.78,0,0,0-3.32,1.65l-1-1a6.17,6.17,0,0,1,4.58-2.11c2.78,0,4.52,1.63,4.52,4.09s-2.61,5.19-6.37,8.6c.87-.07,1.76-.11,2.59-.11h4.54v1.54H350Z" transform="translate(-80.3 -83.64)"/><path class="b" d="M399.74,301.61h2.54l3.6,7.64,1.23,2.91h.06c-.1-1.39-.33-3.11-.33-4.63v-5.92h2.31v13.61h-2.54l-3.6-7.65-1.24-2.9h-.06c.11,1.45.33,3.09.33,4.59v6h-2.3Z" transform="translate(-80.3 -83.64)"/><path class="b" d="M412.17,310v-8.42h2.44v8.6c0,2.2.9,3.15,2.35,3.15s2.4-.95,2.4-3.15v-8.6h2.33V310c0,3.71-1.75,5.44-4.73,5.44S412.17,313.74,412.17,310Z" transform="translate(-80.3 -83.64)"/><path class="b" d="M425.68,301.61h2.4v11.57h6.39v2h-8.79Z" transform="translate(-80.3 -83.64)"/><path class="b" d="M438.17,301.61h2.4v11.57H447v2h-8.79Z" transform="translate(-80.3 -83.64)"/><rect class="a" x="191.2" y="246.88" width="189" height="32.96"/><line class="a" x1="303.3" y1="246.88" x2="303.3" y2="279.84"/><line class="a" x1="247.3" y1="246.88" x2="247.3" y2="279.84"/><path class="b" d="M300.37,344.08c0-.77.07-1.7.11-2.46h-.11c-.45.67-.95,1.35-1.41,2l-3.74,4.69h9v1.46h-11v-1.2l6.9-8.84h1.94v13.86h-1.7Z" transform="translate(-80.3 -83.64)"/><path class="b" d="M350.09,352.42l1-1.13a4.12,4.12,0,0,0,2.76,1.09c2.24,0,4.22-1.59,4.22-6.22,0-3.41-1.33-5.24-3.61-5.24a2.87,2.87,0,0,0-2.93,3,2.66,2.66,0,0,0,3,2.94,4.86,4.86,0,0,0,3.61-2l.07,1.41a5.72,5.72,0,0,1-4,1.89c-2.57,0-4.31-1.43-4.31-4.28a4.46,4.46,0,0,1,4.61-4.45c3,0,5.32,2.22,5.32,6.67,0,5.56-2.8,7.71-5.8,7.71A5.65,5.65,0,0,1,350.09,352.42Z" transform="translate(-80.3 -83.64)"/><path class="b" d="M399.74,339.61h2.54l3.6,7.64,1.23,2.91h.06c-.1-1.39-.33-3.11-.33-4.63v-5.92h2.31v13.61h-2.54l-3.6-7.65-1.24-2.9h-.06c.11,1.45.33,3.09.33,4.59v6h-2.3Z" transform="translate(-80.3 -83.64)"/><path class="b" d="M412.17,348v-8.42h2.44v8.6c0,2.2.9,3.15,2.35,3.15s2.4-.95,2.4-3.15v-8.6h2.33V348c0,3.71-1.75,5.44-4.73,5.44S412.17,351.74,412.17,348Z" transform="translate(-80.3 -83.64)"/><path class="b" d="M425.68,339.61h2.4v11.57h6.39v2h-8.79Z" transform="translate(-80.3 -83.64)"/><path class="b" d="M438.17,339.61h2.4v11.57H447v2h-8.79Z" transform="translate(-80.3 -83.64)"/><path class="b" d="M80.3,112.05h1.85l2.43,6c.41,1.06.8,2.11,1.17,3.13h.09c.37-1,.72-2.07,1.15-3.13l2.44-6h1.73l-4.39,10.56h-2Z" transform="translate(-80.3 -83.64)"/><path class="b" d="M95.31,122.2c0-2.85,1.37-4.48,3.46-4.48s3.45,1.63,3.45,4.48-1.37,4.52-3.45,4.52S95.31,125.09,95.31,122.2Zm5.54,0c0-2.26-.84-3.35-2.08-3.35s-2.09,1.09-2.09,3.35.85,3.41,2.09,3.41S100.85,124.48,100.85,122.2Z" transform="translate(-80.3 -83.64)"/><path class="b" d="M124.37,90.22a3.53,3.53,0,0,1,3.8-3.58,3.47,3.47,0,0,1,2.47,1l-.57.74a2.84,2.84,0,0,0-1.86-.77,2.5,2.5,0,0,0-2.65,2.62,2.46,2.46,0,0,0,2.62,2.59,3.21,3.21,0,0,0,2.1-.85l.52.76a4.08,4.08,0,0,1-2.7,1.06A3.44,3.44,0,0,1,124.37,90.22Z" transform="translate(-80.3 -83.64)"/><path class="b" d="M132.49,90.22a3.37,3.37,0,1,1,3.36,3.56A3.33,3.33,0,0,1,132.49,90.22Zm5.53,0c0-1.57-.87-2.62-2.17-2.62s-2.17,1.05-2.17,2.62.87,2.59,2.17,2.59S138,91.78,138,90.22Z" transform="translate(-80.3 -83.64)"/><path class="b" d="M141.13,91V86.81h1.16v4.07c0,1.28.45,1.89,1.57,1.89A2.69,2.69,0,0,0,146,91.53V86.81h1.17v6.8h-1l-.1-1.19h0a3.33,3.33,0,0,1-2.54,1.36C141.87,93.78,141.13,92.83,141.13,91Z" transform="translate(-80.3 -83.64)"/><path class="b" d="M149.75,86.81h.95l.1,1.14h.06a3.52,3.52,0,0,1,2.56-1.31c1.61,0,2.35,1,2.35,2.74v4.23h-1.16V89.54c0-1.29-.45-1.89-1.55-1.89-.82,0-1.36.4-2.15,1.21v4.75h-1.16Z" transform="translate(-80.3 -83.64)"/><path class="b" d="M159.73,91V87.74H157.8v-.86l2-.07.15-2.19h1v2.19h3.33v.93H160.9V91c0,1.22.4,1.85,1.72,1.85a4.49,4.49,0,0,0,1.62-.31l.26.86a6.08,6.08,0,0,1-2.13.4C160.38,93.78,159.73,92.65,159.73,91Z" transform="translate(-80.3 -83.64)"/><path class="b" d="M274.75,86.81h1.19l1.57,3.85c.27.68.52,1.36.76,2h.05c.24-.65.46-1.33.74-2l1.57-3.85h1.12l-2.83,6.8h-1.3Z" transform="translate(-80.3 -83.64)"/><path class="b" d="M283.4,90.2a3.42,3.42,0,0,1,3.48-3.56A2.93,2.93,0,0,1,290,89.83a4.35,4.35,0,0,1-.06.7h-5.76v-.89h5.07L289,90c0-1.61-.8-2.41-2.05-2.41a2.4,2.4,0,0,0-2.35,2.65,2.47,2.47,0,0,0,2.66,2.66,3.77,3.77,0,0,0,2.08-.65l.42.76a4.7,4.7,0,0,1-2.64.81A3.45,3.45,0,0,1,283.4,90.2Z" transform="translate(-80.3 -83.64)"/><path class="b" d="M292.88,86.81h1l.11,1.61h0a3.58,3.58,0,0,1,3-1.78,2.86,2.86,0,0,1,1.34.28l-.26,1a3.53,3.53,0,0,0-1.27-.22,3.2,3.2,0,0,0-2.8,2v4h-1.16Z" transform="translate(-80.3 -83.64)"/><path class="b" d="M302.13,91V87.74H300.2v-.86l2-.07.15-2.19h1v2.19h3.33v.93H303.3V91c0,1.22.4,1.85,1.72,1.85a4.49,4.49,0,0,0,1.62-.31l.26.86a6.08,6.08,0,0,1-2.13.4C302.78,93.78,302.13,92.65,302.13,91Z" transform="translate(-80.3 -83.64)"/><path class="b" d="M308.6,90.2a3.42,3.42,0,0,1,3.48-3.56,2.93,2.93,0,0,1,3.11,3.19,4.35,4.35,0,0,1-.06.7h-5.76v-.89h5.07l-.29.32c0-1.61-.8-2.41-2-2.41a2.4,2.4,0,0,0-2.35,2.65,2.47,2.47,0,0,0,2.66,2.66,3.77,3.77,0,0,0,2.08-.65l.42.76a4.7,4.7,0,0,1-2.64.81A3.45,3.45,0,0,1,308.6,90.2Z" transform="translate(-80.3 -83.64)"/><path class="b" d="M319.52,90.08l-2.38-3.27h1.28l1.08,1.48a13.85,13.85,0,0,0,.79,1.15h.06l.77-1.16,1-1.47h1.23L321,90.18l2.61,3.43h-1.29L321.09,92c-.29-.37-.6-.84-.89-1.23h-.06c-.28.41-.56.81-.84,1.25l-1.12,1.55H317Z" transform="translate(-80.3 -83.64)"/><path class="b" d="M343.49,90.22a3.27,3.27,0,0,1,3.08-3.58,2.94,2.94,0,0,1,2.05.87h0l-.05-1.25V83.64h1.16v10h-.95l-.1-.89h0a3.28,3.28,0,0,1-2.23,1.06C344.67,93.78,343.49,92.49,343.49,90.22Zm5.1,1.57V88.4a2.54,2.54,0,0,0-1.78-.78,2.31,2.31,0,0,0-2.13,2.59c0,1.62.76,2.59,2,2.59A2.57,2.57,0,0,0,348.59,91.79Z" transform="translate(-80.3 -83.64)"/><path class="b" d="M352.13,91V86.81h1.16v4.07c0,1.28.45,1.89,1.57,1.89A2.69,2.69,0,0,0,357,91.53V86.81h1.17v6.8h-1l-.1-1.19H357a3.33,3.33,0,0,1-2.54,1.36C352.87,93.78,352.13,92.83,352.13,91Z" transform="translate(-80.3 -83.64)"/><path class="b" d="M361.48,86.81h1l.11,1.61h0a3.58,3.58,0,0,1,3-1.78,2.86,2.86,0,0,1,1.34.28l-.26,1a3.53,3.53,0,0,0-1.27-.22,3.2,3.2,0,0,0-2.8,2v4h-1.16Z" transform="translate(-80.3 -83.64)"/><path class="b" d="M80.3,150.05h1.85l2.43,6c.41,1.06.8,2.11,1.17,3.13h.09c.37-1,.72-2.07,1.15-3.13l2.44-6h1.73l-4.39,10.56h-2Z" transform="translate(-80.3 -83.64)"/><path class="b" d="M96.05,163.26h6.54v1.2H96.05Zm2.67-5.47H96.44v-.91A5.09,5.09,0,0,0,99,156h1.16v8.48H98.72Z" transform="translate(-80.3 -83.64)"/><path class="b" d="M80.3,188.05h1.85l2.43,6c.41,1.06.8,2.11,1.17,3.13h.09c.37-1,.72-2.07,1.15-3.13l2.44-6h1.73l-4.39,10.56h-2Z" transform="translate(-80.3 -83.64)"/><path class="b" d="M95.68,201.66c2.91-2.48,4.46-3.7,4.46-5a1.68,1.68,0,0,0-1.85-1.76,2.58,2.58,0,0,0-2,1.22l-.83-.76a3.72,3.72,0,0,1,3.07-1.66c1.8,0,3,1,3,2.76,0,1.63-1.52,2.85-3.59,4.78h4v1.2H95.77Z" transform="translate(-80.3 -83.64)"/><path class="b" d="M80.3,226.05h1.85l2.43,6c.41,1.06.8,2.11,1.17,3.13h.09c.37-1,.72-2.07,1.15-3.13l2.44-6h1.73l-4.39,10.56h-2Z" transform="translate(-80.3 -83.64)"/><path class="b" d="M95.33,239.07l.92-.72a2.8,2.8,0,0,0,2.37,1.26c1,0,1.91-.54,1.91-1.5s-.91-1.5-2.85-1.5v-.89c1.72,0,2.52-.67,2.52-1.54s-.69-1.33-1.74-1.33a2.66,2.66,0,0,0-1.95,1l-.83-.74a3.73,3.73,0,0,1,3-1.42c1.59,0,2.93.87,2.93,2.29,0,1-.56,1.65-1.69,2.08a2.18,2.18,0,0,1,2,2.09c0,1.56-1.46,2.54-3.22,2.54A4,4,0,0,1,95.33,239.07Z" transform="translate(-80.3 -83.64)"/><rect class="a" x="400.2" y="170.88" width="189" height="32.96"/><line class="a" x1="512.3" y1="170.88" x2="512.3" y2="203.84"/><line class="a" x1="456.3" y1="170.88" x2="456.3" y2="203.84"/><path class="b" d="M503,276.55c4.7-4.15,7.26-6.59,7.26-8.89,0-1.58-1-2.69-3-2.69a4.78,4.78,0,0,0-3.32,1.65l-1-1a6.17,6.17,0,0,1,4.58-2.11c2.78,0,4.52,1.63,4.52,4.08,0,2.61-2.61,5.2-6.37,8.61.87-.07,1.76-.11,2.59-.11h4.54v1.54H503Z" transform="translate(-80.3 -83.64)"/><path class="b" d="M559.49,276.11h4V265.94h-3.1v-1.17a10,10,0,0,0,3.56-1h1.35v12.36h3.6v1.5h-9.4Z" transform="translate(-80.3 -83.64)"/><path class="b" d="M608.74,263.61h2.54l3.6,7.64,1.23,2.91h.06c-.1-1.39-.33-3.11-.33-4.63v-5.92h2.31v13.61h-2.54l-3.6-7.65-1.24-2.9h-.06c.11,1.45.33,3.09.33,4.59v6h-2.3Z" transform="translate(-80.3 -83.64)"/><path class="b" d="M621.17,272v-8.42h2.44v8.6c0,2.2.9,3.15,2.35,3.15s2.4-.95,2.4-3.15v-8.6h2.33V272c0,3.71-1.75,5.44-4.73,5.44S621.17,275.74,621.17,272Z" transform="translate(-80.3 -83.64)"/><path class="b" d="M634.68,263.61h2.4v11.57h6.39v2h-8.79Z" transform="translate(-80.3 -83.64)"/><path class="b" d="M647.17,263.61h2.4v11.57H656v2h-8.79Z" transform="translate(-80.3 -83.64)"/><rect class="a" x="191.2" y="170.88" width="143" height="32.96"/><line class="a" x1="303.3" y1="170.88" x2="303.3" y2="203.84"/><line class="a" x1="247.3" y1="170.88" x2="247.3" y2="203.84"/><path class="b" d="M294.49,276.11h4V265.94h-3.1v-1.17a10,10,0,0,0,3.56-1h1.35v12.36h3.6v1.5h-9.4Z" transform="translate(-80.3 -83.64)"/><path class="b" d="M350.49,276.11h4V265.94h-3.1v-1.17a10,10,0,0,0,3.56-1h1.35v12.36h3.6v1.5h-9.4Z" transform="translate(-80.3 -83.64)"/><line class="a" x1="319.67" y1="188.23" x2="379.55" y2="188.23"/><path class="b" d="M465.89,271.87a30.18,30.18,0,0,0-8.55,4.75l1.72-4.75-1.72-4.76A30.2,30.2,0,0,0,465.89,271.87Z" transform="translate(-80.3 -83.64)"/><rect class="a" x="36.55" y="56.88" width="88.47" height="32.96"/><line class="a" x1="92.65" y1="56.88" x2="92.65" y2="89.84"/><path class="b" d="M139.84,162.11h4V151.94h-3.11v-1.17a10,10,0,0,0,3.56-1h1.35v12.36h3.61v1.5h-9.41Z" transform="translate(-80.3 -83.64)"/><line class="a" x1="107.67" y1="74.23" x2="167.55" y2="74.23"/><path class="b" d="M253.89,157.87a30.18,30.18,0,0,0-8.55,4.75l1.72-4.75-1.72-4.76A30.2,30.2,0,0,0,253.89,157.87Z" transform="translate(-80.3 -83.64)"/><rect class="a" x="36.55" y="94.88" width="88.47" height="32.96"/><line class="a" x1="92.65" y1="94.88" x2="92.65" y2="127.84"/><path class="b" d="M139.84,200.11h4V189.94h-3.11v-1.17a10,10,0,0,0,3.56-1h1.35v12.36h3.61v1.5h-9.41Z" transform="translate(-80.3 -83.64)"/><line class="a" x1="107.67" y1="112.23" x2="167.55" y2="112.23"/><path class="b" d="M253.89,195.87a30.18,30.18,0,0,0-8.55,4.75l1.72-4.75-1.72-4.76A30.2,30.2,0,0,0,253.89,195.87Z" transform="translate(-80.3 -83.64)"/><rect class="a" x="36.55" y="132.88" width="88.47" height="32.96"/><line class="a" x1="92.65" y1="132.88" x2="92.65" y2="165.84"/><path class="b" d="M139.84,238.11h4V227.94h-3.11v-1.17a10,10,0,0,0,3.56-1h1.35v12.36h3.61v1.5h-9.41Z" transform="translate(-80.3 -83.64)"/><line class="a" x1="107.67" y1="150.23" x2="167.55" y2="150.23"/><path class="b" d="M253.89,233.87a30.18,30.18,0,0,0-8.55,4.75l1.72-4.75-1.72-4.76A30.2,30.2,0,0,0,253.89,233.87Z" transform="translate(-80.3 -83.64)"/><rect class="a" x="36.55" y="170.88" width="88.47" height="32.96"/><line class="a" x1="92.65" y1="170.88" x2="92.65" y2="203.84"/><path class="b" d="M139.32,276.55c4.69-4.15,7.25-6.59,7.25-8.89,0-1.58-.95-2.69-3-2.69a4.78,4.78,0,0,0-3.33,1.65l-1-1a6.18,6.18,0,0,1,4.58-2.11c2.78,0,4.52,1.63,4.52,4.08,0,2.61-2.6,5.2-6.36,8.61.86-.07,1.76-.11,2.58-.11h4.54v1.54h-9.75Z" transform="translate(-80.3 -83.64)"/><path class="b" d="M80.3,264.05h1.85l2.43,6c.41,1.06.8,2.11,1.17,3.13h.09c.37-1,.72-2.07,1.15-3.13l2.44-6h1.73l-4.39,10.56h-2Z" transform="translate(-80.3 -83.64)"/><path class="b" d="M95.46,275.48l3.33-5.76,1,.57L97,275.2h5.3v1H95.46Zm4.31-2.8H101v5.78H99.77Z" transform="translate(-80.3 -83.64)"/><path class="b" d="M80.3,302.05h1.85l2.43,6c.41,1.06.8,2.11,1.17,3.13h.09c.37-1,.72-2.07,1.15-3.13l2.44-6h1.73l-4.39,10.56h-2Z" transform="translate(-80.3 -83.64)"/><path class="b" d="M95.33,315.07l.92-.72a2.76,2.76,0,0,0,2.41,1.26,1.84,1.84,0,0,0,2-1.87,1.87,1.87,0,0,0-2.08-1.84,2.6,2.6,0,0,0-1.72.67l-.69-.48.41-4.1h5.06v1.23H97.66l-.22,2.07A3.71,3.71,0,0,1,99,311a2.76,2.76,0,0,1,3,2.85,3,3,0,0,1-3.25,2.91A4,4,0,0,1,95.33,315.07Z" transform="translate(-80.3 -83.64)"/><path class="b" d="M80.3,340.05h1.85l2.43,6c.41,1.06.8,2.11,1.17,3.13h.09c.37-1,.72-2.07,1.15-3.13l2.44-6h1.73l-4.39,10.56h-2Z" transform="translate(-80.3 -83.64)"/><path class="b" d="M95.53,350.46c0-3.21,1.69-4.74,3.91-4.74a3.7,3.7,0,0,1,2.3.68l-.58,1a2.74,2.74,0,0,0-1.68-.53c-1.49,0-2.65,1.2-2.65,3.74,0,2,.92,3,2.2,3a1.66,1.66,0,0,0,1.74-1.74,1.64,1.64,0,0,0-1.83-1.71,2.76,2.76,0,0,0-2.19,1.06l0-1a3.37,3.37,0,0,1,2.5-1,2.58,2.58,0,0,1,2.87,2.71,2.89,2.89,0,0,1-3,2.87C96.9,354.72,95.53,353.11,95.53,350.46Z" transform="translate(-80.3 -83.64)"/><path class="b" d="M80.3,378.05h1.85l2.43,6c.41,1.06.8,2.11,1.17,3.13h.09c.37-1,.72-2.07,1.15-3.13l2.44-6h1.73l-4.39,10.56h-2Z" transform="translate(-80.3 -83.64)"/><path class="b" d="M100.44,385.2h-4.8V384H102v.78a12.24,12.24,0,0,0-2.91,7.69H97.62A12.47,12.47,0,0,1,100.44,385.2Z" transform="translate(-80.3 -83.64)"/><line class="a" x1="107.67" y1="188.23" x2="167.55" y2="188.23"/><path class="b" d="M253.89,271.87a30.18,30.18,0,0,0-8.55,4.75l1.72-4.75-1.72-4.76A30.2,30.2,0,0,0,253.89,271.87Z" transform="translate(-80.3 -83.64)"/><rect class="a" x="400.2" y="322.88" width="189" height="32.96"/><line class="a" x1="512.3" y1="322.88" x2="512.3" y2="355.84"/><line class="a" x1="456.3" y1="322.88" x2="456.3" y2="355.84"/><path class="b" d="M510.87,417.32h-8v-1.57h10v1.11c-3.67,4.19-4.56,7.32-4.78,12.75h-1.89A18.5,18.5,0,0,1,510.87,417.32Z" transform="translate(-80.3 -83.64)"/><path class="b" d="M565.37,420.08c0-.77.07-1.7.11-2.46h-.11c-.45.67-1,1.35-1.41,2l-3.74,4.69h9v1.46h-11v-1.2l6.9-8.84h1.94v13.86h-1.7Z" transform="translate(-80.3 -83.64)"/><path class="b" d="M608.74,415.61h2.54l3.6,7.64,1.23,2.91h.06c-.1-1.39-.33-3.11-.33-4.63v-5.92h2.31v13.61h-2.54l-3.6-7.65-1.24-2.9h-.06c.11,1.45.33,3.09.33,4.59v6h-2.3Z" transform="translate(-80.3 -83.64)"/><path class="b" d="M621.17,424v-8.42h2.44v8.6c0,2.2.9,3.15,2.35,3.15s2.4-.95,2.4-3.15v-8.6h2.33V424c0,3.71-1.75,5.44-4.73,5.44S621.17,427.74,621.17,424Z" transform="translate(-80.3 -83.64)"/><path class="b" d="M634.68,415.61h2.4v11.57h6.39v2h-8.79Z" transform="translate(-80.3 -83.64)"/><path class="b" d="M647.17,415.61h2.4v11.57H656v2h-8.79Z" transform="translate(-80.3 -83.64)"/><rect class="a" x="191.2" y="322.88" width="143" height="32.96"/><line class="a" x1="303.3" y1="322.88" x2="303.3" y2="355.84"/><line class="a" x1="247.3" y1="322.88" x2="247.3" y2="355.84"/><path class="b" d="M294.05,423.2c0-5.56,2.78-7.71,5.8-7.71a5.49,5.49,0,0,1,3.87,1.48l-1,1.13A4.07,4.07,0,0,0,300,417c-2.26,0-4.21,1.59-4.21,6.21,0,3.42,1.3,5.26,3.6,5.26a2.87,2.87,0,0,0,2.91-3,2.63,2.63,0,0,0-2.93-2.93,4.86,4.86,0,0,0-3.63,1.95l-.06-1.41a5.86,5.86,0,0,1,4-1.89c2.56,0,4.32,1.43,4.32,4.28a4.47,4.47,0,0,1-4.63,4.45C296.33,429.87,294.05,427.66,294.05,423.2Z" transform="translate(-80.3 -83.64)"/><path class="b" d="M350,428.55c4.7-4.15,7.26-6.59,7.26-8.89,0-1.58-1-2.69-3-2.69a4.78,4.78,0,0,0-3.32,1.65l-1-1a6.17,6.17,0,0,1,4.58-2.11c2.78,0,4.52,1.63,4.52,4.09s-2.61,5.19-6.37,8.6c.87-.07,1.76-.11,2.59-.11h4.54v1.54H350Z" transform="translate(-80.3 -83.64)"/><line class="a" x1="319.67" y1="340.23" x2="379.55" y2="340.23"/><path class="b" d="M465.89,423.87a30.18,30.18,0,0,0-8.55,4.75l1.72-4.75-1.72-4.76A30.2,30.2,0,0,0,465.89,423.87Z" transform="translate(-80.3 -83.64)"/><rect class="a" x="36.55" y="322.88" width="88.47" height="32.96"/><line class="a" x1="92.65" y1="322.88" x2="92.65" y2="355.84"/><path class="b" d="M139.27,422.64c0-4.65,1.89-7.15,5-7.15s5,2.5,5,7.15-1.89,7.23-5,7.23S139.27,427.25,139.27,422.64Zm8.28,0c0-4-1.37-5.69-3.3-5.69s-3.3,1.71-3.3,5.69,1.37,5.78,3.3,5.78S147.55,426.62,147.55,422.64Zm-4.65-.15a1.35,1.35,0,1,1,1.35,1.45A1.36,1.36,0,0,1,142.9,422.49Z" transform="translate(-80.3 -83.64)"/><line class="a" x1="107.67" y1="340.23" x2="167.55" y2="340.23"/><path class="b" d="M253.89,423.87a30.18,30.18,0,0,0-8.55,4.75l1.72-4.75-1.72-4.76A30.2,30.2,0,0,0,253.89,423.87Z" transform="translate(-80.3 -83.64)"/><rect class="a" x="400.2" y="284.88" width="189" height="32.96"/><line class="a" x1="512.3" y1="284.88" x2="512.3" y2="317.84"/><line class="a" x1="456.3" y1="284.88" x2="456.3" y2="317.84"/><path class="b" d="M502.59,390l.9-1.19a5.53,5.53,0,0,0,3.91,1.59,3.21,3.21,0,0,0,3.49-3.16c0-1.91-1.34-3-3.38-3a5.2,5.2,0,0,0-2.83.83l-1-.61.46-6.67H512v1.57h-6.26l-.37,4.08a5.88,5.88,0,0,1,2.56-.57c2.65,0,4.76,1.35,4.76,4.35s-2.48,4.69-5.13,4.69A7,7,0,0,1,502.59,390Z" transform="translate(-80.3 -83.64)"/><path class="b" d="M565.37,382.08c0-.77.07-1.7.11-2.46h-.11c-.45.67-1,1.35-1.41,2l-3.74,4.69h9v1.46h-11v-1.2l6.9-8.84h1.94v13.86h-1.7Z" transform="translate(-80.3 -83.64)"/><path class="b" d="M608.74,377.61h2.54l3.6,7.64,1.23,2.91h.06c-.1-1.39-.33-3.11-.33-4.63v-5.92h2.31v13.61h-2.54l-3.6-7.65-1.24-2.9h-.06c.11,1.45.33,3.09.33,4.59v6h-2.3Z" transform="translate(-80.3 -83.64)"/><path class="b" d="M621.17,386v-8.42h2.44v8.6c0,2.2.9,3.15,2.35,3.15s2.4-.95,2.4-3.15v-8.6h2.33V386c0,3.71-1.75,5.44-4.73,5.44S621.17,389.74,621.17,386Z" transform="translate(-80.3 -83.64)"/><path class="b" d="M634.68,377.61h2.4v11.57h6.39v2h-8.79Z" transform="translate(-80.3 -83.64)"/><path class="b" d="M647.17,377.61h2.4v11.57H656v2h-8.79Z" transform="translate(-80.3 -83.64)"/><rect class="a" x="191.2" y="284.88" width="143" height="32.96"/><line class="a" x1="303.3" y1="284.88" x2="303.3" y2="317.84"/><line class="a" x1="247.3" y1="284.88" x2="247.3" y2="317.84"/><path class="b" d="M300.37,382.08c0-.77.07-1.7.11-2.46h-.11c-.45.67-.95,1.35-1.41,2l-3.74,4.69h9v1.46h-11v-1.2l6.9-8.84h1.94v13.86h-1.7Z" transform="translate(-80.3 -83.64)"/><path class="b" d="M357.87,379.32h-8v-1.57h10v1.11c-3.67,4.19-4.56,7.32-4.78,12.75h-1.89A18.5,18.5,0,0,1,357.87,379.32Z" transform="translate(-80.3 -83.64)"/><line class="a" x1="319.67" y1="302.23" x2="379.55" y2="302.23"/><path class="b" d="M465.89,385.87a30.18,30.18,0,0,0-8.55,4.75l1.72-4.75-1.72-4.76A30.2,30.2,0,0,0,465.89,385.87Z" transform="translate(-80.3 -83.64)"/><rect class="a" x="36.55" y="284.88" width="88.47" height="32.96"/><line class="a" x1="92.65" y1="284.88" x2="92.65" y2="317.84"/><path class="b" d="M139.84,390.11h4V380h-3.11v-1.18a10,10,0,0,0,3.56-1h1.35v12.36h3.61v1.5h-9.41Z" transform="translate(-80.3 -83.64)"/><line class="a" x1="107.67" y1="302.23" x2="167.55" y2="302.23"/><path class="b" d="M253.89,385.87a30.18,30.18,0,0,0-8.55,4.75l1.72-4.75-1.72-4.76A30.2,30.2,0,0,0,253.89,385.87Z" transform="translate(-80.3 -83.64)"/><rect class="a" x="36.55" y="208.88" width="88.47" height="32.96"/><line class="a" x1="92.65" y1="208.88" x2="92.65" y2="241.84"/><path class="b" d="M139.84,314.11h4V304h-3.11v-1.18a10,10,0,0,0,3.56-1h1.35v12.36h3.61v1.5h-9.41Z" transform="translate(-80.3 -83.64)"/><line class="a" x1="107.67" y1="226.23" x2="167.55" y2="226.23"/><path class="b" d="M253.89,309.87a30.18,30.18,0,0,0-8.55,4.75l1.72-4.75-1.72-4.76A30.2,30.2,0,0,0,253.89,309.87Z" transform="translate(-80.3 -83.64)"/><rect class="a" x="36.55" y="246.88" width="88.47" height="32.96"/><line class="a" x1="92.65" y1="246.88" x2="92.65" y2="279.84"/><path class="b" d="M139.84,352.11h4V342h-3.11v-1.18a10,10,0,0,0,3.56-1h1.35v12.36h3.61v1.5h-9.41Z" transform="translate(-80.3 -83.64)"/><line class="a" x1="107.67" y1="264.23" x2="167.55" y2="264.23"/><path class="b" d="M253.89,347.87a30.18,30.18,0,0,0-8.55,4.75l1.72-4.75-1.72-4.76A30.2,30.2,0,0,0,253.89,347.87Z" transform="translate(-80.3 -83.64)"/><path class="b" d="M80.3,416.05h1.85l2.43,6c.41,1.06.8,2.11,1.17,3.13h.09c.37-1,.72-2.07,1.15-3.13l2.44-6h1.73l-4.39,10.56h-2Z" transform="translate(-80.3 -83.64)"/><path class="b" d="M95.53,428.4a2.67,2.67,0,0,1,1.83-2.4v-.08c-1-.54-1.48-1-1.48-2,0-1.32,1.13-2.24,2.87-2.24s2.91.87,2.91,2.24a2.28,2.28,0,0,1-1.5,2v.09c1.22.55,1.78,1.2,1.78,2.26,0,1.35-1.22,2.37-3.19,2.37S95.53,429.68,95.53,428.4Zm5.11-.11c0-1.07-1.16-1.31-2.42-1.81-1,.5-1.36,1.09-1.36,1.81s.6,1.43,1.89,1.43S100.64,429.07,100.64,428.29Zm-.29-4.26c0-.76-.6-1.24-1.63-1.24s-1.54.52-1.54,1.22.85,1.24,2.07,1.63C100.12,425.05,100.35,424.59,100.35,424Z" transform="translate(-80.3 -83.64)"/><path class="b" d="M189.62,112h2.54l3.6,7.64,1.24,2.91h.06c-.11-1.39-.33-3.11-.33-4.63V112H199v13.61h-2.54l-3.6-7.65-1.23-2.9h-.06c.1,1.45.33,3.09.33,4.59v6h-2.31Z" transform="translate(-80.3 -83.64)"/><path class="b" d="M202.06,120.46V112h2.43v8.6c0,2.2.91,3.15,2.36,3.15s2.39-1,2.39-3.15V112h2.34v8.42c0,3.71-1.75,5.44-4.73,5.44S202.06,124.17,202.06,120.46Z" transform="translate(-80.3 -83.64)"/><path class="b" d="M215.56,112H218v11.57h6.38v2h-8.79Z" transform="translate(-80.3 -83.64)"/><path class="b" d="M228.05,112h2.41v11.57h6.38v2h-8.79Z" transform="translate(-80.3 -83.64)"/><rect class="a" x="36.13" y="18.75" width="136.65" height="32.96"/><line class="a" x1="92.23" y1="18.75" x2="92.23" y2="51.71"/><path class="b" d="M138.54,123.79l.92-1.17a5.59,5.59,0,0,0,4,1.63c1.89,0,3.3-1,3.3-2.52s-1.39-2.76-5-2.76V117.6c3.29,0,4.55-1.13,4.55-2.58s-1.16-2.18-2.83-2.18a5.26,5.26,0,0,0-3.41,1.39l-1-1.13a6.73,6.73,0,0,1,4.44-1.73c2.6,0,4.58,1.28,4.58,3.52,0,1.67-1.24,2.73-3,3.3v.09c1.84.39,3.43,1.6,3.43,3.52,0,2.45-2.26,4-5,4A6.77,6.77,0,0,1,138.54,123.79Z" transform="translate(-80.3 -83.64)"/></svg>