<svg id="图层_1" data-name="图层 1" xmlns="http://www.w3.org/2000/svg" viewBox="0 0 1290.21 363.27"><defs><style>.cls-1,.cls-4{fill:none;}.cls-1,.cls-2,.cls-4{stroke:#3ea69f;stroke-miterlimit:10;}.cls-2{fill:#fff;}.cls-3{fill:#3ea69f;}.cls-4{stroke-dasharray:6 6;}</style></defs><rect class="cls-1" x="668.5" y="0.5" width="261.21" height="42"/><line class="cls-2" x1="767.71" y1="0.27" x2="767.71" y2="42.27"/><line class="cls-2" x1="738.71" y1="1.27" x2="738.71" y2="43.27"/><line class="cls-2" x1="826.71" y1="1.27" x2="826.71" y2="43.27"/><line class="cls-2" x1="857.71" y1="1.27" x2="857.71" y2="43.27"/><path class="cls-3" d="M864.36,101.63l2.53-.09H872v1.21h-7.63Zm2.5-.83a3.2,3.2,0,0,1,3.53-3.54,6.55,6.55,0,0,1,2.52.5l-.34,1.12a4.7,4.7,0,0,0-2-.42c-1.57,0-2.2.89-2.2,2.29v9.54h-1.47Z" transform="translate(-186.79 -81.73)"/><path class="cls-3" d="M874.74,108c0-2,1.84-2.91,6.36-3.27a2.08,2.08,0,0,0-2.33-2.2,6.14,6.14,0,0,0-3.06,1l-.59-1a7.64,7.64,0,0,1,3.91-1.26,3.25,3.25,0,0,1,3.56,3.6v5.36h-1.24l-.13-1.19h-.05a5.9,5.9,0,0,1-3.44,1.41C876.09,110.51,874.74,109.59,874.74,108Zm6.36,0v-2.27c-3.75.29-4.88,1-4.88,2.18,0,1,.9,1.38,1.91,1.38A4.81,4.81,0,0,0,881.1,108Z" transform="translate(-186.79 -81.73)"/><path class="cls-3" d="M888.53,107.36V98.68h-3.1V97.47H890v10a1.58,1.58,0,0,0,1.73,1.8,3.93,3.93,0,0,0,1.64-.4l.38,1.12a5.35,5.35,0,0,1-2.34.52C889.56,110.51,888.53,109.43,888.53,107.36Z" transform="translate(-186.79 -81.73)"/><path class="cls-3" d="M896.18,109.14l.68-1a6.26,6.26,0,0,0,3.8,1.19c1.48,0,2.2-.61,2.2-1.35s-.34-1.14-2.72-1.62-3.42-1.25-3.42-2.56,1.24-2.48,3.64-2.48a6.56,6.56,0,0,1,3.52,1.11l-.71,1a5.18,5.18,0,0,0-2.94-.92c-1.48,0-2,.59-2,1.26s.76,1.08,2.56,1.46c2.9.63,3.6,1.35,3.6,2.7s-1.39,2.61-3.89,2.61A7.66,7.66,0,0,1,896.18,109.14Z" transform="translate(-186.79 -81.73)"/><path class="cls-3" d="M906.92,105.9a4.4,4.4,0,0,1,4.47-4.57,3.76,3.76,0,0,1,4,4.1,7,7,0,0,1-.07.9h-7.4v-1.15h6.51l-.38.41c0-2.07-1-3.09-2.62-3.09a3.08,3.08,0,0,0-3,3.4,3.18,3.18,0,0,0,3.42,3.42,4.75,4.75,0,0,0,2.67-.83l.54,1a6,6,0,0,1-3.39,1.05A4.43,4.43,0,0,1,906.92,105.9Z" transform="translate(-186.79 -81.73)"/><path class="cls-3" d="M1055.36,101.63l2.53-.09h5.1v1.21h-7.63Zm2.5-.83a3.2,3.2,0,0,1,3.53-3.54,6.55,6.55,0,0,1,2.52.5l-.34,1.12a4.7,4.7,0,0,0-2-.42c-1.57,0-2.2.89-2.2,2.29v9.54h-1.47Z" transform="translate(-186.79 -81.73)"/><path class="cls-3" d="M1065.74,108c0-2,1.84-2.91,6.36-3.27a2.08,2.08,0,0,0-2.33-2.2,6.14,6.14,0,0,0-3.06,1l-.59-1a7.64,7.64,0,0,1,3.91-1.26,3.25,3.25,0,0,1,3.56,3.6v5.36h-1.24l-.13-1.19h0a5.9,5.9,0,0,1-3.44,1.41C1067.09,110.51,1065.74,109.59,1065.74,108Zm6.36,0v-2.27c-3.75.29-4.88,1-4.88,2.18,0,1,.9,1.38,1.91,1.38A4.81,4.81,0,0,0,1072.1,108Z" transform="translate(-186.79 -81.73)"/><path class="cls-3" d="M1079.53,107.36V98.68h-3.1V97.47H1081v10a1.58,1.58,0,0,0,1.73,1.8,3.93,3.93,0,0,0,1.64-.4l.38,1.12a5.35,5.35,0,0,1-2.34.52C1080.56,110.51,1079.53,109.43,1079.53,107.36Z" transform="translate(-186.79 -81.73)"/><path class="cls-3" d="M1087.18,109.14l.68-1a6.26,6.26,0,0,0,3.8,1.19c1.48,0,2.2-.61,2.2-1.35s-.34-1.14-2.72-1.62-3.42-1.25-3.42-2.56,1.24-2.48,3.64-2.48a6.56,6.56,0,0,1,3.52,1.11l-.71,1a5.18,5.18,0,0,0-2.94-.92c-1.48,0-2,.59-2,1.26s.76,1.08,2.56,1.46c2.9.63,3.6,1.35,3.6,2.7s-1.39,2.61-3.89,2.61A7.66,7.66,0,0,1,1087.18,109.14Z" transform="translate(-186.79 -81.73)"/><path class="cls-3" d="M1097.92,105.9a4.4,4.4,0,0,1,4.47-4.57,3.76,3.76,0,0,1,4,4.1,7,7,0,0,1-.07.9h-7.4v-1.15h6.51l-.38.41c0-2.07-1-3.09-2.62-3.09a3.08,3.08,0,0,0-3,3.4,3.18,3.18,0,0,0,3.42,3.42,4.75,4.75,0,0,0,2.67-.83l.54,1a6,6,0,0,1-3.39,1.05A4.43,4.43,0,0,1,1097.92,105.9Z" transform="translate(-186.79 -81.73)"/><line class="cls-1" x1="783.21" y1="21.77" x2="811.21" y2="21.77"/><rect class="cls-1" x="554.5" y="80.5" width="261.21" height="42"/><line class="cls-2" x1="653.71" y1="80.27" x2="653.71" y2="122.27"/><line class="cls-2" x1="624.71" y1="81.27" x2="624.71" y2="123.27"/><line class="cls-2" x1="712.71" y1="81.27" x2="712.71" y2="123.27"/><line class="cls-2" x1="743.71" y1="81.27" x2="743.71" y2="123.27"/><path class="cls-3" d="M750.36,181.63l2.53-.09H758v1.21h-7.63Zm2.5-.83a3.2,3.2,0,0,1,3.53-3.54,6.55,6.55,0,0,1,2.52.5l-.34,1.12a4.7,4.7,0,0,0-2-.42c-1.57,0-2.2.89-2.2,2.29v9.54h-1.47Z" transform="translate(-186.79 -81.73)"/><path class="cls-3" d="M760.74,188c0-2,1.84-2.91,6.36-3.27a2.08,2.08,0,0,0-2.33-2.2,6.14,6.14,0,0,0-3.06,1l-.59-1a7.64,7.64,0,0,1,3.91-1.26,3.25,3.25,0,0,1,3.56,3.6v5.36h-1.24l-.13-1.19h-.05a5.9,5.9,0,0,1-3.44,1.41C762.09,190.51,760.74,189.59,760.74,188Zm6.36,0v-2.27c-3.75.29-4.88,1-4.88,2.18,0,1,.9,1.38,1.91,1.38A4.81,4.81,0,0,0,767.1,188Z" transform="translate(-186.79 -81.73)"/><path class="cls-3" d="M774.53,187.36v-8.68h-3.1v-1.21H776v10a1.58,1.58,0,0,0,1.73,1.8,3.93,3.93,0,0,0,1.64-.4l.38,1.12a5.35,5.35,0,0,1-2.34.52C775.56,190.51,774.53,189.43,774.53,187.36Z" transform="translate(-186.79 -81.73)"/><path class="cls-3" d="M782.18,189.14l.68-1a6.26,6.26,0,0,0,3.8,1.19c1.48,0,2.2-.61,2.2-1.35s-.34-1.14-2.72-1.62-3.42-1.25-3.42-2.56,1.24-2.48,3.64-2.48a6.56,6.56,0,0,1,3.52,1.11l-.71,1a5.18,5.18,0,0,0-2.94-.92c-1.48,0-2,.59-2,1.26s.76,1.08,2.56,1.46c2.9.63,3.6,1.35,3.6,2.7s-1.39,2.61-3.89,2.61A7.66,7.66,0,0,1,782.18,189.14Z" transform="translate(-186.79 -81.73)"/><path class="cls-3" d="M792.92,185.9a4.4,4.4,0,0,1,4.47-4.57,3.76,3.76,0,0,1,4,4.1,7,7,0,0,1-.07.9h-7.4v-1.15h6.51l-.38.41c0-2.07-1-3.09-2.62-3.09a3.08,3.08,0,0,0-3,3.4,3.18,3.18,0,0,0,3.42,3.42,4.75,4.75,0,0,0,2.67-.83l.54,1a6,6,0,0,1-3.39,1A4.43,4.43,0,0,1,792.92,185.9Z" transform="translate(-186.79 -81.73)"/><path class="cls-3" d="M865.85,189.05h3.31v-8.43h-2.58v-1a8.49,8.49,0,0,0,3-.84h1.11v10.24h3v1.24h-7.79Z" transform="translate(-186.79 -81.73)"/><path class="cls-3" d="M941.36,181.63l2.53-.09H949v1.21h-7.63Zm2.5-.83a3.2,3.2,0,0,1,3.53-3.54,6.55,6.55,0,0,1,2.52.5l-.34,1.12a4.7,4.7,0,0,0-2-.42c-1.57,0-2.2.89-2.2,2.29v9.54h-1.47Z" transform="translate(-186.79 -81.73)"/><path class="cls-3" d="M951.74,188c0-2,1.84-2.91,6.36-3.27a2.08,2.08,0,0,0-2.33-2.2,6.14,6.14,0,0,0-3.06,1l-.59-1a7.64,7.64,0,0,1,3.91-1.26,3.25,3.25,0,0,1,3.56,3.6v5.36h-1.24l-.13-1.19h-.05a5.9,5.9,0,0,1-3.44,1.41C953.09,190.51,951.74,189.59,951.74,188Zm6.36,0v-2.27c-3.75.29-4.88,1-4.88,2.18,0,1,.9,1.38,1.91,1.38A4.81,4.81,0,0,0,958.1,188Z" transform="translate(-186.79 -81.73)"/><path class="cls-3" d="M965.53,187.36v-8.68h-3.1v-1.21H967v10a1.58,1.58,0,0,0,1.73,1.8,3.93,3.93,0,0,0,1.64-.4l.38,1.12a5.35,5.35,0,0,1-2.34.52C966.56,190.51,965.53,189.43,965.53,187.36Z" transform="translate(-186.79 -81.73)"/><path class="cls-3" d="M973.18,189.14l.68-1a6.26,6.26,0,0,0,3.8,1.19c1.48,0,2.2-.61,2.2-1.35s-.34-1.14-2.72-1.62-3.42-1.25-3.42-2.56,1.24-2.48,3.64-2.48a6.56,6.56,0,0,1,3.52,1.11l-.71,1a5.18,5.18,0,0,0-2.94-.92c-1.48,0-2,.59-2,1.26s.76,1.08,2.56,1.46c2.9.63,3.6,1.35,3.6,2.7s-1.39,2.61-3.89,2.61A7.66,7.66,0,0,1,973.18,189.14Z" transform="translate(-186.79 -81.73)"/><path class="cls-3" d="M983.92,185.9a4.4,4.4,0,0,1,4.47-4.57,3.76,3.76,0,0,1,4,4.1,7,7,0,0,1-.07.9h-7.4v-1.15h6.51l-.38.41c0-2.07-1-3.09-2.62-3.09a3.08,3.08,0,0,0-3,3.4,3.18,3.18,0,0,0,3.42,3.42,4.75,4.75,0,0,0,2.67-.83l.54,1a6,6,0,0,1-3.39,1A4.43,4.43,0,0,1,983.92,185.9Z" transform="translate(-186.79 -81.73)"/><rect class="cls-1" x="255.5" y="160.5" width="261.21" height="42"/><line class="cls-2" x1="354.71" y1="160.27" x2="354.71" y2="202.27"/><line class="cls-2" x1="325.71" y1="161.27" x2="325.71" y2="203.27"/><line class="cls-2" x1="413.71" y1="161.27" x2="413.71" y2="203.27"/><line class="cls-2" x1="444.71" y1="161.27" x2="444.71" y2="203.27"/><path class="cls-3" d="M451.36,261.63l2.53-.09H459v1.21h-7.63Zm2.5-.83a3.2,3.2,0,0,1,3.53-3.54,6.55,6.55,0,0,1,2.52.5l-.34,1.12a4.7,4.7,0,0,0-2-.42,2,2,0,0,0-2.2,2.29v9.54h-1.47Z" transform="translate(-186.79 -81.73)"/><path class="cls-3" d="M461.74,268c0-2,1.84-2.91,6.36-3.27a2.08,2.08,0,0,0-2.33-2.2,6.14,6.14,0,0,0-3.06,1l-.59-1a7.64,7.64,0,0,1,3.91-1.26,3.25,3.25,0,0,1,3.56,3.6v5.36h-1.24l-.13-1.19h-.05a5.87,5.87,0,0,1-3.44,1.41C463.09,270.51,461.74,269.59,461.74,268Zm6.36,0v-2.27c-3.75.29-4.88,1-4.88,2.18,0,1,.9,1.38,1.91,1.38A4.81,4.81,0,0,0,468.1,268Z" transform="translate(-186.79 -81.73)"/><path class="cls-3" d="M475.53,267.36v-8.68h-3.1v-1.21H477v10a1.58,1.58,0,0,0,1.73,1.8,3.93,3.93,0,0,0,1.64-.4l.38,1.12a5.35,5.35,0,0,1-2.34.52C476.56,270.51,475.53,269.43,475.53,267.36Z" transform="translate(-186.79 -81.73)"/><path class="cls-3" d="M483.18,269.14l.68-1a6.26,6.26,0,0,0,3.8,1.19c1.48,0,2.2-.61,2.2-1.35s-.34-1.14-2.72-1.62-3.42-1.25-3.42-2.56,1.24-2.48,3.64-2.48a6.63,6.63,0,0,1,3.53,1.11l-.72,1a5.18,5.18,0,0,0-2.94-.92c-1.48,0-2,.59-2,1.26s.76,1.08,2.56,1.46c2.9.63,3.6,1.35,3.6,2.7s-1.39,2.61-3.89,2.61A7.66,7.66,0,0,1,483.18,269.14Z" transform="translate(-186.79 -81.73)"/><path class="cls-3" d="M493.93,265.9a4.39,4.39,0,0,1,4.46-4.57,3.76,3.76,0,0,1,4,4.1,7,7,0,0,1-.07.9h-7.4v-1.15h6.51l-.37.41c0-2.07-1-3.09-2.63-3.09a3.08,3.08,0,0,0-3,3.4,3.18,3.18,0,0,0,3.42,3.42,4.75,4.75,0,0,0,2.67-.83l.54,1a6,6,0,0,1-3.39,1.05A4.42,4.42,0,0,1,493.93,265.9Z" transform="translate(-186.79 -81.73)"/><path class="cls-3" d="M566.41,269.41c3.89-3.44,6-5.45,6-7.36,0-1.32-.79-2.24-2.49-2.24a4,4,0,0,0-2.75,1.37l-.87-.84a5.12,5.12,0,0,1,3.8-1.75c2.31,0,3.75,1.35,3.75,3.38s-2.16,4.31-5.28,7.13c.72-.05,1.46-.09,2.15-.09h3.76v1.28h-8.09Z" transform="translate(-186.79 -81.73)"/><path class="cls-3" d="M642.36,261.63l2.53-.09H650v1.21h-7.63Zm2.5-.83a3.2,3.2,0,0,1,3.53-3.54,6.55,6.55,0,0,1,2.52.5l-.34,1.12a4.7,4.7,0,0,0-2-.42,2,2,0,0,0-2.2,2.29v9.54h-1.47Z" transform="translate(-186.79 -81.73)"/><path class="cls-3" d="M652.74,268c0-2,1.84-2.91,6.36-3.27a2.08,2.08,0,0,0-2.33-2.2,6.14,6.14,0,0,0-3.06,1l-.59-1a7.64,7.64,0,0,1,3.91-1.26,3.25,3.25,0,0,1,3.56,3.6v5.36h-1.24l-.13-1.19h-.05a5.87,5.87,0,0,1-3.44,1.41C654.09,270.51,652.74,269.59,652.74,268Zm6.36,0v-2.27c-3.75.29-4.88,1-4.88,2.18,0,1,.9,1.38,1.91,1.38A4.81,4.81,0,0,0,659.1,268Z" transform="translate(-186.79 -81.73)"/><path class="cls-3" d="M666.53,267.36v-8.68h-3.1v-1.21H668v10a1.58,1.58,0,0,0,1.73,1.8,3.93,3.93,0,0,0,1.64-.4l.38,1.12a5.35,5.35,0,0,1-2.34.52C667.56,270.51,666.53,269.43,666.53,267.36Z" transform="translate(-186.79 -81.73)"/><path class="cls-3" d="M674.18,269.14l.68-1a6.26,6.26,0,0,0,3.8,1.19c1.48,0,2.2-.61,2.2-1.35s-.34-1.14-2.72-1.62-3.42-1.25-3.42-2.56,1.24-2.48,3.64-2.48a6.63,6.63,0,0,1,3.53,1.11l-.72,1a5.18,5.18,0,0,0-2.94-.92c-1.48,0-2,.59-2,1.26s.76,1.08,2.56,1.46c2.9.63,3.6,1.35,3.6,2.7s-1.39,2.61-3.89,2.61A7.66,7.66,0,0,1,674.18,269.14Z" transform="translate(-186.79 -81.73)"/><path class="cls-3" d="M684.93,265.9a4.39,4.39,0,0,1,4.46-4.57,3.76,3.76,0,0,1,4,4.1,7,7,0,0,1-.07.9h-7.4v-1.15h6.51l-.37.41c0-2.07-1-3.09-2.63-3.09a3.08,3.08,0,0,0-3,3.4,3.18,3.18,0,0,0,3.42,3.42,4.75,4.75,0,0,0,2.67-.83l.54,1a6,6,0,0,1-3.39,1.05A4.42,4.42,0,0,1,684.93,265.9Z" transform="translate(-186.79 -81.73)"/><rect class="cls-1" x="826.5" y="160.5" width="261.21" height="42"/><line class="cls-2" x1="925.71" y1="160.27" x2="925.71" y2="202.27"/><line class="cls-2" x1="896.71" y1="161.27" x2="896.71" y2="203.27"/><line class="cls-2" x1="984.71" y1="161.27" x2="984.71" y2="203.27"/><line class="cls-2" x1="1015.71" y1="161.27" x2="1015.71" y2="203.27"/><path class="cls-3" d="M1022.36,261.63l2.53-.09h5.1v1.21h-7.63Zm2.5-.83a3.2,3.2,0,0,1,3.53-3.54,6.55,6.55,0,0,1,2.52.5l-.34,1.12a4.7,4.7,0,0,0-2-.42c-1.57,0-2.2.89-2.2,2.29v9.54h-1.47Z" transform="translate(-186.79 -81.73)"/><path class="cls-3" d="M1032.74,268c0-2,1.84-2.91,6.36-3.27a2.08,2.08,0,0,0-2.33-2.2,6.14,6.14,0,0,0-3.06,1l-.59-1a7.64,7.64,0,0,1,3.91-1.26,3.25,3.25,0,0,1,3.56,3.6v5.36h-1.24l-.13-1.19h0a5.9,5.9,0,0,1-3.44,1.41C1034.09,270.51,1032.74,269.59,1032.74,268Zm6.36,0v-2.27c-3.75.29-4.88,1-4.88,2.18,0,1,.9,1.38,1.91,1.38A4.81,4.81,0,0,0,1039.1,268Z" transform="translate(-186.79 -81.73)"/><path class="cls-3" d="M1046.53,267.36v-8.68h-3.1v-1.21H1048v10a1.58,1.58,0,0,0,1.73,1.8,3.93,3.93,0,0,0,1.64-.4l.38,1.12a5.35,5.35,0,0,1-2.34.52C1047.56,270.51,1046.53,269.43,1046.53,267.36Z" transform="translate(-186.79 -81.73)"/><path class="cls-3" d="M1054.18,269.14l.68-1a6.26,6.26,0,0,0,3.8,1.19c1.48,0,2.2-.61,2.2-1.35s-.34-1.14-2.72-1.62-3.42-1.25-3.42-2.56,1.24-2.48,3.64-2.48a6.56,6.56,0,0,1,3.52,1.11l-.71,1a5.18,5.18,0,0,0-2.94-.92c-1.48,0-2,.59-2,1.26s.76,1.08,2.56,1.46c2.9.63,3.6,1.35,3.6,2.7s-1.39,2.61-3.89,2.61A7.66,7.66,0,0,1,1054.18,269.14Z" transform="translate(-186.79 -81.73)"/><path class="cls-3" d="M1064.92,265.9a4.4,4.4,0,0,1,4.47-4.57,3.76,3.76,0,0,1,4,4.1,7,7,0,0,1-.07.9h-7.4v-1.15h6.51l-.38.41c0-2.07-1-3.09-2.62-3.09a3.08,3.08,0,0,0-3,3.4,3.18,3.18,0,0,0,3.42,3.42,4.75,4.75,0,0,0,2.67-.83l.54,1a6,6,0,0,1-3.39,1.05A4.43,4.43,0,0,1,1064.92,265.9Z" transform="translate(-186.79 -81.73)"/><path class="cls-3" d="M1138.13,268.89l.75-1a4.66,4.66,0,0,0,3.3,1.35c1.56,0,2.73-.81,2.73-2.09s-1.15-2.29-4.16-2.29v-1.13c2.72,0,3.77-.94,3.77-2.15s-1-1.8-2.34-1.8a4.34,4.34,0,0,0-2.83,1.16l-.79-.94a5.54,5.54,0,0,1,3.67-1.44c2.16,0,3.8,1.06,3.8,2.92,0,1.38-1,2.26-2.45,2.73v.07c1.53.33,2.85,1.34,2.85,2.92,0,2-1.88,3.28-4.16,3.28A5.64,5.64,0,0,1,1138.13,268.89Z" transform="translate(-186.79 -81.73)"/><path class="cls-3" d="M1213.36,261.63l2.53-.09h5.1v1.21h-7.63Zm2.5-.83a3.2,3.2,0,0,1,3.53-3.54,6.55,6.55,0,0,1,2.52.5l-.34,1.12a4.7,4.7,0,0,0-2-.42c-1.57,0-2.2.89-2.2,2.29v9.54h-1.47Z" transform="translate(-186.79 -81.73)"/><path class="cls-3" d="M1223.74,268c0-2,1.84-2.91,6.36-3.27a2.08,2.08,0,0,0-2.33-2.2,6.14,6.14,0,0,0-3.06,1l-.59-1a7.64,7.64,0,0,1,3.91-1.26,3.25,3.25,0,0,1,3.56,3.6v5.36h-1.24l-.13-1.19h0a5.9,5.9,0,0,1-3.44,1.41C1225.09,270.51,1223.74,269.59,1223.74,268Zm6.36,0v-2.27c-3.75.29-4.88,1-4.88,2.18,0,1,.9,1.38,1.91,1.38A4.81,4.81,0,0,0,1230.1,268Z" transform="translate(-186.79 -81.73)"/><path class="cls-3" d="M1237.53,267.36v-8.68h-3.1v-1.21H1239v10a1.58,1.58,0,0,0,1.73,1.8,3.93,3.93,0,0,0,1.64-.4l.38,1.12a5.35,5.35,0,0,1-2.34.52C1238.56,270.51,1237.53,269.43,1237.53,267.36Z" transform="translate(-186.79 -81.73)"/><path class="cls-3" d="M1245.18,269.14l.68-1a6.26,6.26,0,0,0,3.8,1.19c1.48,0,2.2-.61,2.2-1.35s-.34-1.14-2.72-1.62-3.42-1.25-3.42-2.56,1.24-2.48,3.64-2.48a6.56,6.56,0,0,1,3.52,1.11l-.71,1a5.18,5.18,0,0,0-2.94-.92c-1.48,0-2,.59-2,1.26s.76,1.08,2.56,1.46c2.9.63,3.6,1.35,3.6,2.7s-1.39,2.61-3.89,2.61A7.66,7.66,0,0,1,1245.18,269.14Z" transform="translate(-186.79 -81.73)"/><path class="cls-3" d="M1255.92,265.9a4.4,4.4,0,0,1,4.47-4.57,3.76,3.76,0,0,1,4,4.1,7,7,0,0,1-.07.9h-7.4v-1.15h6.51l-.38.41c0-2.07-1-3.09-2.62-3.09a3.08,3.08,0,0,0-3,3.4,3.18,3.18,0,0,0,3.42,3.42,4.75,4.75,0,0,0,2.67-.83l.54,1a6,6,0,0,1-3.39,1.05A4.43,4.43,0,0,1,1255.92,265.9Z" transform="translate(-186.79 -81.73)"/><rect class="cls-1" x="730.5" y="240.5" width="261.21" height="42"/><line class="cls-2" x1="829.71" y1="240.27" x2="829.71" y2="282.27"/><line class="cls-2" x1="800.71" y1="241.27" x2="800.71" y2="283.27"/><line class="cls-2" x1="888.71" y1="241.27" x2="888.71" y2="283.27"/><line class="cls-2" x1="919.71" y1="241.27" x2="919.71" y2="283.27"/><path class="cls-3" d="M933.61,346.89v-4.14h-2.49v-1.12l2.54-.09.2-2.81h1.24v2.81h4.29v1.21H935.1v4.16c0,1.56.53,2.37,2.22,2.37a5.85,5.85,0,0,0,2.09-.39l.32,1.1a7.82,7.82,0,0,1-2.74.52C934.44,350.51,933.61,349.05,933.61,346.89Z" transform="translate(-186.79 -81.73)"/><path class="cls-3" d="M943.31,341.54h1.24l.15,2.07h0a4.62,4.62,0,0,1,3.91-2.28,3.68,3.68,0,0,1,1.73.36L950,343a4.56,4.56,0,0,0-1.62-.28c-1.32,0-2.56.66-3.6,2.5v5.11h-1.5Z" transform="translate(-186.79 -81.73)"/><path class="cls-3" d="M952.89,347v-5.44h1.49v5.24c0,1.64.58,2.43,2,2.43,1,0,1.74-.47,2.72-1.6v-6.07h1.49v8.75h-1.24l-.13-1.53h-.07a4.25,4.25,0,0,1-3.26,1.75C953.84,350.51,952.89,349.28,952.89,347Z" transform="translate(-186.79 -81.73)"/><path class="cls-3" d="M963.52,345.9a4.4,4.4,0,0,1,4.47-4.57,3.76,3.76,0,0,1,4,4.1,7,7,0,0,1-.07.9h-7.41v-1.15H971l-.38.41c0-2.07-1-3.09-2.62-3.09a3.08,3.08,0,0,0-3,3.4,3.18,3.18,0,0,0,3.42,3.42,4.75,4.75,0,0,0,2.67-.83l.54,1a6,6,0,0,1-3.39,1.05A4.43,4.43,0,0,1,963.52,345.9Z" transform="translate(-186.79 -81.73)"/><path class="cls-3" d="M1040.49,345c0-4.61,2.3-6.39,4.8-6.39a4.58,4.58,0,0,1,3.21,1.22l-.83.94a3.37,3.37,0,0,0-2.29-.92c-1.87,0-3.49,1.32-3.49,5.15,0,2.83,1.08,4.36,3,4.36a2.38,2.38,0,0,0,2.41-2.52,2.18,2.18,0,0,0-2.43-2.43,4,4,0,0,0-3,1.62l0-1.17a4.83,4.83,0,0,1,3.33-1.57,3.26,3.26,0,0,1,3.58,3.55,3.71,3.71,0,0,1-3.83,3.69C1042.38,350.51,1040.49,348.67,1040.49,345Z" transform="translate(-186.79 -81.73)"/><path class="cls-3" d="M1124.61,346.89v-4.14h-2.49v-1.12l2.54-.09.2-2.81h1.24v2.81h4.29v1.21h-4.29v4.16c0,1.56.53,2.37,2.22,2.37a5.85,5.85,0,0,0,2.09-.39l.32,1.1a7.82,7.82,0,0,1-2.74.52C1125.44,350.51,1124.61,349.05,1124.61,346.89Z" transform="translate(-186.79 -81.73)"/><path class="cls-3" d="M1134.31,341.54h1.24l.15,2.07h0a4.62,4.62,0,0,1,3.91-2.28,3.68,3.68,0,0,1,1.73.36L1141,343a4.56,4.56,0,0,0-1.62-.28c-1.32,0-2.56.66-3.6,2.5v5.11h-1.5Z" transform="translate(-186.79 -81.73)"/><path class="cls-3" d="M1143.89,347v-5.44h1.49v5.24c0,1.64.58,2.43,2,2.43,1,0,1.74-.47,2.72-1.6v-6.07h1.49v8.75h-1.24l-.13-1.53h-.07a4.25,4.25,0,0,1-3.26,1.75C1144.84,350.51,1143.89,349.28,1143.89,347Z" transform="translate(-186.79 -81.73)"/><path class="cls-3" d="M1154.52,345.9a4.4,4.4,0,0,1,4.47-4.57,3.76,3.76,0,0,1,4,4.1,7,7,0,0,1-.07.9h-7.41v-1.15H1162l-.38.41c0-2.07-1-3.09-2.62-3.09a3.08,3.08,0,0,0-3,3.4,3.18,3.18,0,0,0,3.42,3.42,4.75,4.75,0,0,0,2.67-.83l.54,1a6,6,0,0,1-3.39,1.05A4.43,4.43,0,0,1,1154.52,345.9Z" transform="translate(-186.79 -81.73)"/><rect class="cls-1" x="1028.5" y="240.5" width="261.21" height="42"/><line class="cls-2" x1="1127.71" y1="240.27" x2="1127.71" y2="282.27"/><line class="cls-2" x1="1098.71" y1="241.27" x2="1098.71" y2="283.27"/><line class="cls-2" x1="1186.71" y1="241.27" x2="1186.71" y2="283.27"/><line class="cls-2" x1="1217.71" y1="241.27" x2="1217.71" y2="283.27"/><path class="cls-3" d="M1231.61,346.89v-4.14h-2.49v-1.12l2.54-.09.2-2.81h1.24v2.81h4.29v1.21h-4.29v4.16c0,1.56.53,2.37,2.22,2.37a5.85,5.85,0,0,0,2.09-.39l.32,1.1a7.82,7.82,0,0,1-2.74.52C1232.44,350.51,1231.61,349.05,1231.61,346.89Z" transform="translate(-186.79 -81.73)"/><path class="cls-3" d="M1241.31,341.54h1.24l.15,2.07h0a4.62,4.62,0,0,1,3.91-2.28,3.68,3.68,0,0,1,1.73.36L1248,343a4.56,4.56,0,0,0-1.62-.28c-1.32,0-2.56.66-3.6,2.5v5.11h-1.5Z" transform="translate(-186.79 -81.73)"/><path class="cls-3" d="M1250.89,347v-5.44h1.49v5.24c0,1.64.58,2.43,2,2.43,1,0,1.74-.47,2.72-1.6v-6.07h1.49v8.75h-1.24l-.13-1.53h-.07a4.25,4.25,0,0,1-3.26,1.75C1251.84,350.51,1250.89,349.28,1250.89,347Z" transform="translate(-186.79 -81.73)"/><path class="cls-3" d="M1261.52,345.9a4.4,4.4,0,0,1,4.47-4.57,3.76,3.76,0,0,1,4,4.1,7,7,0,0,1-.07.9h-7.41v-1.15H1269l-.38.41c0-2.07-1-3.09-2.62-3.09a3.08,3.08,0,0,0-3,3.4,3.18,3.18,0,0,0,3.42,3.42,4.75,4.75,0,0,0,2.67-.83l.54,1a6,6,0,0,1-3.39,1.05A4.43,4.43,0,0,1,1261.52,345.9Z" transform="translate(-186.79 -81.73)"/><path class="cls-3" d="M1345,340.1h-6.61v-1.29h8.32v.91c-3,3.48-3.78,6.07-4,10.57h-1.57A15.37,15.37,0,0,1,1345,340.1Z" transform="translate(-186.79 -81.73)"/><path class="cls-3" d="M1422.61,346.89v-4.14h-2.49v-1.12l2.54-.09.2-2.81h1.24v2.81h4.29v1.21h-4.29v4.16c0,1.56.53,2.37,2.22,2.37a5.85,5.85,0,0,0,2.09-.39l.32,1.1a7.82,7.82,0,0,1-2.74.52C1423.44,350.51,1422.61,349.05,1422.61,346.89Z" transform="translate(-186.79 -81.73)"/><path class="cls-3" d="M1432.31,341.54h1.24l.15,2.07h0a4.62,4.62,0,0,1,3.91-2.28,3.68,3.68,0,0,1,1.73.36L1439,343a4.56,4.56,0,0,0-1.62-.28c-1.32,0-2.56.66-3.6,2.5v5.11h-1.5Z" transform="translate(-186.79 -81.73)"/><path class="cls-3" d="M1441.89,347v-5.44h1.49v5.24c0,1.64.58,2.43,2,2.43,1,0,1.74-.47,2.72-1.6v-6.07h1.49v8.75h-1.24l-.13-1.53h-.07a4.25,4.25,0,0,1-3.26,1.75C1442.84,350.51,1441.89,349.28,1441.89,347Z" transform="translate(-186.79 -81.73)"/><path class="cls-3" d="M1452.52,345.9a4.4,4.4,0,0,1,4.47-4.57,3.76,3.76,0,0,1,4,4.1,7,7,0,0,1-.07.9h-7.41v-1.15H1460l-.38.41c0-2.07-1-3.09-2.62-3.09a3.08,3.08,0,0,0-3,3.4,3.18,3.18,0,0,0,3.42,3.42,4.75,4.75,0,0,0,2.67-.83l.54,1a6,6,0,0,1-3.39,1.05A4.43,4.43,0,0,1,1452.52,345.9Z" transform="translate(-186.79 -81.73)"/><rect class="cls-1" x="80.5" y="240.5" width="261.21" height="42"/><line class="cls-2" x1="179.71" y1="240.27" x2="179.71" y2="282.27"/><line class="cls-2" x1="150.71" y1="241.27" x2="150.71" y2="283.27"/><line class="cls-2" x1="238.71" y1="241.27" x2="238.71" y2="283.27"/><line class="cls-2" x1="269.71" y1="241.27" x2="269.71" y2="283.27"/><path class="cls-3" d="M276.36,341.63l2.53-.09H284v1.21h-7.63Zm2.5-.83a3.2,3.2,0,0,1,3.53-3.54,6.55,6.55,0,0,1,2.52.5l-.34,1.12a4.7,4.7,0,0,0-2-.42,2,2,0,0,0-2.2,2.29v9.54h-1.47Z" transform="translate(-186.79 -81.73)"/><path class="cls-3" d="M286.74,348c0-2,1.84-2.91,6.36-3.27a2.08,2.08,0,0,0-2.33-2.2,6.14,6.14,0,0,0-3.06,1l-.59-1a7.64,7.64,0,0,1,3.91-1.26,3.25,3.25,0,0,1,3.56,3.6v5.36h-1.24l-.13-1.19h-.05a5.87,5.87,0,0,1-3.44,1.41C288.09,350.51,286.74,349.59,286.74,348Zm6.36,0v-2.27c-3.75.29-4.88,1-4.88,2.18,0,1,.9,1.38,1.91,1.38A4.81,4.81,0,0,0,293.1,348Z" transform="translate(-186.79 -81.73)"/><path class="cls-3" d="M300.53,347.36v-8.68h-3.1v-1.21H302v10a1.58,1.58,0,0,0,1.73,1.8,3.93,3.93,0,0,0,1.64-.4l.38,1.12a5.35,5.35,0,0,1-2.34.52C301.56,350.51,300.53,349.43,300.53,347.36Z" transform="translate(-186.79 -81.73)"/><path class="cls-3" d="M308.18,349.14l.68-1a6.26,6.26,0,0,0,3.8,1.19c1.48,0,2.2-.61,2.2-1.35s-.34-1.14-2.72-1.62-3.42-1.25-3.42-2.56,1.24-2.48,3.64-2.48a6.63,6.63,0,0,1,3.53,1.11l-.72,1a5.18,5.18,0,0,0-2.94-.92c-1.48,0-2,.59-2,1.26s.76,1.08,2.56,1.46c2.9.63,3.6,1.35,3.6,2.7s-1.39,2.61-3.89,2.61A7.66,7.66,0,0,1,308.18,349.14Z" transform="translate(-186.79 -81.73)"/><path class="cls-3" d="M318.93,345.9a4.39,4.39,0,0,1,4.46-4.57,3.76,3.76,0,0,1,4,4.1,7,7,0,0,1-.07.9h-7.4v-1.15h6.51l-.37.41c0-2.07-1-3.09-2.63-3.09a3.08,3.08,0,0,0-3,3.4,3.18,3.18,0,0,0,3.42,3.42,4.75,4.75,0,0,0,2.67-.83l.54,1a6,6,0,0,1-3.39,1.05A4.42,4.42,0,0,1,318.93,345.9Z" transform="translate(-186.79 -81.73)"/><path class="cls-3" d="M395.73,342.39c0-.63,0-1.41.09-2h-.09c-.38.56-.8,1.12-1.17,1.68l-3.1,3.89h7.45v1.2H389.8v-1l5.73-7.32h1.6v11.48h-1.4Z" transform="translate(-186.79 -81.73)"/><path class="cls-3" d="M467.36,341.63l2.53-.09H475v1.21h-7.63Zm2.5-.83a3.2,3.2,0,0,1,3.53-3.54,6.55,6.55,0,0,1,2.52.5l-.34,1.12a4.7,4.7,0,0,0-2-.42,2,2,0,0,0-2.2,2.29v9.54h-1.47Z" transform="translate(-186.79 -81.73)"/><path class="cls-3" d="M477.74,348c0-2,1.84-2.91,6.36-3.27a2.08,2.08,0,0,0-2.33-2.2,6.14,6.14,0,0,0-3.06,1l-.59-1a7.64,7.64,0,0,1,3.91-1.26,3.25,3.25,0,0,1,3.56,3.6v5.36h-1.24l-.13-1.19h-.05a5.87,5.87,0,0,1-3.44,1.41C479.09,350.51,477.74,349.59,477.74,348Zm6.36,0v-2.27c-3.75.29-4.88,1-4.88,2.18,0,1,.9,1.38,1.91,1.38A4.81,4.81,0,0,0,484.1,348Z" transform="translate(-186.79 -81.73)"/><path class="cls-3" d="M491.53,347.36v-8.68h-3.1v-1.21H493v10a1.58,1.58,0,0,0,1.73,1.8,3.93,3.93,0,0,0,1.64-.4l.38,1.12a5.35,5.35,0,0,1-2.34.52C492.56,350.51,491.53,349.43,491.53,347.36Z" transform="translate(-186.79 -81.73)"/><path class="cls-3" d="M499.18,349.14l.68-1a6.26,6.26,0,0,0,3.8,1.19c1.48,0,2.2-.61,2.2-1.35s-.34-1.14-2.72-1.62-3.42-1.25-3.42-2.56,1.24-2.48,3.64-2.48a6.63,6.63,0,0,1,3.53,1.11l-.72,1a5.18,5.18,0,0,0-2.94-.92c-1.48,0-2,.59-2,1.26s.76,1.08,2.56,1.46c2.9.63,3.6,1.35,3.6,2.7s-1.39,2.61-3.89,2.61A7.66,7.66,0,0,1,499.18,349.14Z" transform="translate(-186.79 -81.73)"/><path class="cls-3" d="M509.93,345.9a4.39,4.39,0,0,1,4.46-4.57,3.76,3.76,0,0,1,4,4.1,7,7,0,0,1-.07.9h-7.4v-1.15h6.51l-.37.41c0-2.07-1-3.09-2.63-3.09a3.08,3.08,0,0,0-3,3.4,3.18,3.18,0,0,0,3.42,3.42,4.75,4.75,0,0,0,2.67-.83l.54,1a6,6,0,0,1-3.39,1.05A4.42,4.42,0,0,1,509.93,345.9Z" transform="translate(-186.79 -81.73)"/><rect class="cls-1" x="0.5" y="320.5" width="261.21" height="42"/><line class="cls-2" x1="99.71" y1="320.27" x2="99.71" y2="362.27"/><line class="cls-2" x1="70.71" y1="321.27" x2="70.71" y2="363.27"/><line class="cls-2" x1="158.71" y1="321.27" x2="158.71" y2="363.27"/><line class="cls-2" x1="189.71" y1="321.27" x2="189.71" y2="363.27"/><path class="cls-3" d="M203.61,426.89v-4.14h-2.49v-1.12l2.54-.09.2-2.81h1.24v2.81h4.29v1.21H205.1v4.16c0,1.56.53,2.37,2.22,2.37a5.85,5.85,0,0,0,2.09-.39l.32,1.1a7.82,7.82,0,0,1-2.74.52C204.44,430.51,203.61,429.05,203.61,426.89Z" transform="translate(-186.79 -81.73)"/><path class="cls-3" d="M213.31,421.54h1.24l.15,2.07h0a4.62,4.62,0,0,1,3.91-2.28,3.68,3.68,0,0,1,1.73.36L220,423a4.56,4.56,0,0,0-1.62-.28c-1.32,0-2.56.66-3.6,2.5v5.11h-1.5Z" transform="translate(-186.79 -81.73)"/><path class="cls-3" d="M222.89,427v-5.44h1.49v5.24c0,1.64.58,2.43,2,2.43,1,0,1.74-.47,2.72-1.6v-6.07h1.49v8.75h-1.24l-.13-1.53h-.07a4.25,4.25,0,0,1-3.26,1.75C223.84,430.51,222.89,429.28,222.89,427Z" transform="translate(-186.79 -81.73)"/><path class="cls-3" d="M233.52,425.9a4.4,4.4,0,0,1,4.47-4.57,3.76,3.76,0,0,1,4,4.1,7,7,0,0,1-.07.9h-7.41v-1.15H241l-.38.41c0-2.07-1-3.09-2.62-3.09a3.08,3.08,0,0,0-3,3.4,3.18,3.18,0,0,0,3.42,3.42,4.75,4.75,0,0,0,2.67-.83l.54,1a6,6,0,0,1-3.39,1.05A4.43,4.43,0,0,1,233.52,425.9Z" transform="translate(-186.79 -81.73)"/><path class="cls-3" d="M311.32,427.36c0-1.59,1.23-2.49,2.47-3.06v-.08a3.22,3.22,0,0,1-1.75-2.68c0-1.76,1.5-3,3.55-3,2.25,0,3.57,1.28,3.57,3.06a3.64,3.64,0,0,1-1.75,2.74v.07c1.26.63,2.25,1.35,2.25,3s-1.49,3.06-4.12,3.06S311.32,429.18,311.32,427.36Zm6.92,0c0-1.58-1.6-2-3.6-2.66-1.12.59-2,1.33-2,2.48s1.14,2.18,2.9,2.18S318.24,428.58,318.24,427.39Zm-.38-5.67a2,2,0,0,0-2.3-2,1.9,1.9,0,0,0-2.15,1.83c0,1.37,1.32,1.95,3,2.49A2.94,2.94,0,0,0,317.86,421.72Z" transform="translate(-186.79 -81.73)"/><path class="cls-3" d="M394.61,426.89v-4.14h-2.48v-1.12l2.53-.09.2-2.81h1.24v2.81h4.29v1.21H396.1v4.16c0,1.56.53,2.37,2.22,2.37a5.85,5.85,0,0,0,2.09-.39l.32,1.1a7.82,7.82,0,0,1-2.74.52C395.44,430.51,394.61,429.05,394.61,426.89Z" transform="translate(-186.79 -81.73)"/><path class="cls-3" d="M404.31,421.54h1.24l.15,2.07h0a4.62,4.62,0,0,1,3.91-2.28,3.68,3.68,0,0,1,1.73.36L411,423a4.56,4.56,0,0,0-1.62-.28c-1.32,0-2.56.66-3.6,2.5v5.11h-1.5Z" transform="translate(-186.79 -81.73)"/><path class="cls-3" d="M413.89,427v-5.44h1.49v5.24c0,1.64.58,2.43,2,2.43,1,0,1.74-.47,2.72-1.6v-6.07h1.49v8.75h-1.24l-.13-1.53h-.07a4.25,4.25,0,0,1-3.26,1.75C414.84,430.51,413.89,429.28,413.89,427Z" transform="translate(-186.79 -81.73)"/><path class="cls-3" d="M424.52,425.9a4.4,4.4,0,0,1,4.47-4.57,3.76,3.76,0,0,1,4,4.1,7,7,0,0,1-.07.9h-7.4v-1.15H432l-.38.41c0-2.07-1-3.09-2.62-3.09a3.08,3.08,0,0,0-3,3.4,3.18,3.18,0,0,0,3.42,3.42,4.75,4.75,0,0,0,2.67-.83l.54,1a6,6,0,0,1-3.39,1.05A4.43,4.43,0,0,1,424.52,425.9Z" transform="translate(-186.79 -81.73)"/><rect class="cls-1" x="318.5" y="319.5" width="261.21" height="42"/><line class="cls-2" x1="417.71" y1="319.27" x2="417.71" y2="361.27"/><line class="cls-2" x1="388.71" y1="320.27" x2="388.71" y2="362.27"/><line class="cls-2" x1="476.71" y1="320.27" x2="476.71" y2="362.27"/><line class="cls-2" x1="507.71" y1="320.27" x2="507.71" y2="362.27"/><path class="cls-3" d="M521.61,425.89v-4.14h-2.49v-1.12l2.54-.09.2-2.81h1.24v2.81h4.29v1.21H523.1v4.16c0,1.56.53,2.37,2.22,2.37a5.85,5.85,0,0,0,2.09-.39l.32,1.1a7.82,7.82,0,0,1-2.74.52C522.44,429.51,521.61,428.05,521.61,425.89Z" transform="translate(-186.79 -81.73)"/><path class="cls-3" d="M531.31,420.54h1.24l.15,2.07h0a4.62,4.62,0,0,1,3.91-2.28,3.68,3.68,0,0,1,1.73.36L538,422a4.56,4.56,0,0,0-1.62-.28c-1.32,0-2.56.66-3.6,2.5v5.11h-1.5Z" transform="translate(-186.79 -81.73)"/><path class="cls-3" d="M540.89,426v-5.44h1.49v5.24c0,1.64.58,2.43,2,2.43,1,0,1.74-.47,2.72-1.6v-6.07h1.49v8.75h-1.24l-.13-1.53h-.07a4.25,4.25,0,0,1-3.26,1.75C541.84,429.51,540.89,428.28,540.89,426Z" transform="translate(-186.79 -81.73)"/><path class="cls-3" d="M551.52,424.9a4.4,4.4,0,0,1,4.47-4.57,3.76,3.76,0,0,1,4,4.1,7,7,0,0,1-.07.9h-7.41v-1.15H559l-.38.41c0-2.07-1-3.09-2.62-3.09a3.08,3.08,0,0,0-3,3.4,3.18,3.18,0,0,0,3.42,3.42,4.75,4.75,0,0,0,2.67-.83l.54,1a6,6,0,0,1-3.39,1.05A4.43,4.43,0,0,1,551.52,424.9Z" transform="translate(-186.79 -81.73)"/><path class="cls-3" d="M629.52,428.3l.83-.93a3.39,3.39,0,0,0,2.29.9c1.85,0,3.49-1.32,3.49-5.15,0-2.83-1.1-4.34-3-4.34a2.37,2.37,0,0,0-2.43,2.5,2.2,2.2,0,0,0,2.45,2.43,4,4,0,0,0,3-1.62l.05,1.17a4.75,4.75,0,0,1-3.33,1.57,3.25,3.25,0,0,1-3.56-3.55,3.69,3.69,0,0,1,3.81-3.69c2.51,0,4.41,1.84,4.41,5.53,0,4.61-2.32,6.39-4.8,6.39A4.62,4.62,0,0,1,629.52,428.3Z" transform="translate(-186.79 -81.73)"/><path class="cls-3" d="M712.61,425.89v-4.14h-2.48v-1.12l2.53-.09.2-2.81h1.24v2.81h4.29v1.21H714.1v4.16c0,1.56.53,2.37,2.22,2.37a5.85,5.85,0,0,0,2.09-.39l.32,1.1a7.82,7.82,0,0,1-2.74.52C713.44,429.51,712.61,428.05,712.61,425.89Z" transform="translate(-186.79 -81.73)"/><path class="cls-3" d="M722.31,420.54h1.24l.15,2.07h0a4.62,4.62,0,0,1,3.91-2.28,3.68,3.68,0,0,1,1.73.36L729,422a4.56,4.56,0,0,0-1.62-.28c-1.32,0-2.56.66-3.6,2.5v5.11h-1.5Z" transform="translate(-186.79 -81.73)"/><path class="cls-3" d="M731.89,426v-5.44h1.49v5.24c0,1.64.58,2.43,2,2.43,1,0,1.74-.47,2.72-1.6v-6.07h1.49v8.75h-1.24l-.13-1.53h-.07a4.25,4.25,0,0,1-3.26,1.75C732.84,429.51,731.89,428.28,731.89,426Z" transform="translate(-186.79 -81.73)"/><path class="cls-3" d="M742.52,424.9a4.4,4.4,0,0,1,4.47-4.57,3.76,3.76,0,0,1,4,4.1,7,7,0,0,1-.07.9h-7.4v-1.15H750l-.38.41c0-2.07-1-3.09-2.62-3.09a3.08,3.08,0,0,0-3,3.4,3.18,3.18,0,0,0,3.42,3.42,4.75,4.75,0,0,0,2.67-.83l.54,1a6,6,0,0,1-3.39,1.05A4.43,4.43,0,0,1,742.52,424.9Z" transform="translate(-186.79 -81.73)"/><rect class="cls-1" x="394.5" y="241.5" width="261.21" height="42"/><line class="cls-2" x1="493.71" y1="241.27" x2="493.71" y2="283.27"/><line class="cls-2" x1="464.71" y1="242.27" x2="464.71" y2="284.27"/><line class="cls-2" x1="552.71" y1="242.27" x2="552.71" y2="284.27"/><line class="cls-2" x1="583.71" y1="242.27" x2="583.71" y2="284.27"/><path class="cls-3" d="M597.61,347.89v-4.14h-2.48v-1.12l2.53-.09.2-2.81h1.24v2.81h4.29v1.21H599.1v4.16c0,1.56.53,2.37,2.22,2.37a5.85,5.85,0,0,0,2.09-.39l.32,1.1a7.82,7.82,0,0,1-2.74.52C598.44,351.51,597.61,350.05,597.61,347.89Z" transform="translate(-186.79 -81.73)"/><path class="cls-3" d="M607.31,342.54h1.24l.15,2.07h0a4.62,4.62,0,0,1,3.91-2.28,3.68,3.68,0,0,1,1.73.36L614,344a4.56,4.56,0,0,0-1.62-.28c-1.32,0-2.56.66-3.6,2.5v5.11h-1.5Z" transform="translate(-186.79 -81.73)"/><path class="cls-3" d="M616.89,348v-5.44h1.49v5.24c0,1.64.58,2.43,2,2.43,1,0,1.74-.47,2.72-1.6v-6.07h1.49v8.75h-1.24l-.13-1.53h-.07a4.25,4.25,0,0,1-3.26,1.75C617.84,351.51,616.89,350.28,616.89,348Z" transform="translate(-186.79 -81.73)"/><path class="cls-3" d="M627.52,346.9a4.4,4.4,0,0,1,4.47-4.57,3.76,3.76,0,0,1,4,4.1,7,7,0,0,1-.07.9h-7.4v-1.15H635l-.38.41c0-2.07-1-3.09-2.62-3.09a3.08,3.08,0,0,0-3,3.4,3.18,3.18,0,0,0,3.42,3.42,4.75,4.75,0,0,0,2.67-.83l.54,1a6,6,0,0,1-3.39,1.05A4.43,4.43,0,0,1,627.52,346.9Z" transform="translate(-186.79 -81.73)"/><path class="cls-3" d="M707.11,349.94l.74-1a4.54,4.54,0,0,0,3.24,1.32,2.67,2.67,0,0,0,2.9-2.61c0-1.59-1.12-2.51-2.81-2.51a4.27,4.27,0,0,0-2.34.69l-.8-.51.38-5.52h6.5v1.29h-5.18l-.31,3.39a4.91,4.91,0,0,1,2.13-.47c2.19,0,3.94,1.11,3.94,3.6a4,4,0,0,1-4.25,3.89A5.78,5.78,0,0,1,707.11,349.94Z" transform="translate(-186.79 -81.73)"/><path class="cls-3" d="M788.61,347.89v-4.14h-2.49v-1.12l2.54-.09.2-2.81h1.24v2.81h4.29v1.21H790.1v4.16c0,1.56.53,2.37,2.22,2.37a5.85,5.85,0,0,0,2.09-.39l.32,1.1a7.82,7.82,0,0,1-2.74.52C789.44,351.51,788.61,350.05,788.61,347.89Z" transform="translate(-186.79 -81.73)"/><path class="cls-3" d="M798.31,342.54h1.24l.15,2.07h0a4.62,4.62,0,0,1,3.91-2.28,3.68,3.68,0,0,1,1.73.36L805,344a4.56,4.56,0,0,0-1.62-.28c-1.32,0-2.56.66-3.6,2.5v5.11h-1.5Z" transform="translate(-186.79 -81.73)"/><path class="cls-3" d="M807.89,348v-5.44h1.49v5.24c0,1.64.58,2.43,2,2.43,1,0,1.74-.47,2.72-1.6v-6.07h1.49v8.75h-1.24l-.13-1.53h-.07a4.25,4.25,0,0,1-3.26,1.75C808.84,351.51,807.89,350.28,807.89,348Z" transform="translate(-186.79 -81.73)"/><path class="cls-3" d="M818.52,346.9a4.4,4.4,0,0,1,4.47-4.57,3.76,3.76,0,0,1,4,4.1,7,7,0,0,1-.07.9h-7.41v-1.15H826l-.38.41c0-2.07-1-3.09-2.62-3.09a3.08,3.08,0,0,0-3,3.4,3.18,3.18,0,0,0,3.42,3.42,4.75,4.75,0,0,0,2.67-.83l.54,1a6,6,0,0,1-3.39,1.05A4.43,4.43,0,0,1,818.52,346.9Z" transform="translate(-186.79 -81.73)"/><line class="cls-1" x1="600.21" y1="7.77" x2="650.17" y2="7.77"/><path class="cls-3" d="M843,89.5a30.1,30.1,0,0,0-8.55,4.76l1.72-4.76-1.72-4.75A30.31,30.31,0,0,0,843,89.5Z" transform="translate(-186.79 -81.73)"/><path class="cls-3" d="M738.51,85.54h1.24l.15,2.07h0a4.62,4.62,0,0,1,3.91-2.28,3.68,3.68,0,0,1,1.73.36L745.23,87a4.56,4.56,0,0,0-1.62-.28c-1.32,0-2.56.66-3.6,2.5v5.11h-1.5Z" transform="translate(-186.79 -81.73)"/><path class="cls-3" d="M747.78,89.94a4.33,4.33,0,1,1,4.32,4.57A4.29,4.29,0,0,1,747.78,89.94Zm7.11,0c0-2-1.11-3.37-2.79-3.37s-2.79,1.35-2.79,3.37,1.12,3.33,2.79,3.33S754.89,91.93,754.89,89.94Z" transform="translate(-186.79 -81.73)"/><path class="cls-3" d="M758.58,89.94a4.33,4.33,0,1,1,4.32,4.57A4.29,4.29,0,0,1,758.58,89.94Zm7.11,0c0-2-1.11-3.37-2.79-3.37s-2.79,1.35-2.79,3.37,1.12,3.33,2.79,3.33S765.69,91.93,765.69,89.94Z" transform="translate(-186.79 -81.73)"/><path class="cls-3" d="M772,90.89V86.75h-2.49V85.63l2.54-.09.2-2.81h1.24v2.81h4.29v1.21H773.5v4.16c0,1.56.53,2.37,2.22,2.37a5.85,5.85,0,0,0,2.09-.39l.32,1.1a7.82,7.82,0,0,1-2.74.52C772.84,94.51,772,93.05,772,90.89Z" transform="translate(-186.79 -81.73)"/><line class="cls-1" x1="753.21" y1="22.27" x2="740.93" y2="63.49"/><path class="cls-3" d="M926,151a30.33,30.33,0,0,0-2.12-9.55l4.07,3,5-.29A30.2,30.2,0,0,0,926,151Z" transform="translate(-186.79 -81.73)"/><line class="cls-1" x1="638.71" y1="108.77" x2="486.53" y2="150.19"/><path class="cls-3" d="M667.5,233.5a30.31,30.31,0,0,0,7-6.83l-.41,5,2.91,4.13A30.32,30.32,0,0,0,667.5,233.5Z" transform="translate(-186.79 -81.73)"/><line class="cls-1" x1="730.71" y1="108.77" x2="867.93" y2="150.03"/><path class="cls-3" d="M1060.5,233.5a30.3,30.3,0,0,0-9.55,2.09l3-4.06-.28-5A30.39,30.39,0,0,0,1060.5,233.5Z" transform="translate(-186.79 -81.73)"/><line class="cls-1" x1="341.71" y1="182.77" x2="321.27" y2="226.31"/><path class="cls-3" d="M505.5,313.5a30.48,30.48,0,0,0-.67-9.76l3.57,3.58,5,.46A30.22,30.22,0,0,0,505.5,313.5Z" transform="translate(-186.79 -81.73)"/><line class="cls-1" x1="428.71" y1="182.77" x2="446.43" y2="226.18"/><path class="cls-3" d="M635.5,313.5a30.41,30.41,0,0,0-7.63-6.12l5-.2,3.75-3.39A30.07,30.07,0,0,0,635.5,313.5Z" transform="translate(-186.79 -81.73)"/><line class="cls-1" x1="165.71" y1="262.77" x2="146.22" y2="305.29"/><path class="cls-3" d="M330.5,392.5a30.12,30.12,0,0,0-.76-9.75l3.6,3.54,5,.42A30.22,30.22,0,0,0,330.5,392.5Z" transform="translate(-186.79 -81.73)"/><line class="cls-1" x1="255.71" y1="262.77" x2="325.63" y2="307.52"/><path class="cls-3" d="M517.5,392.5a30.21,30.21,0,0,0-9.76-.6l4-3.08,1.11-4.93A30.53,30.53,0,0,0,517.5,392.5Z" transform="translate(-186.79 -81.73)"/><line class="cls-1" x1="912.71" y1="182.77" x2="903.92" y2="225.86"/><path class="cls-3" d="M1089.5,313.5a30.21,30.21,0,0,0-3-9.33l4.32,2.64,5-.73A30.3,30.3,0,0,0,1089.5,313.5Z" transform="translate(-186.79 -81.73)"/><line class="cls-1" x1="1000.71" y1="182.77" x2="1047.36" y2="227.59"/><path class="cls-3" d="M1238.5,313.5A30.14,30.14,0,0,0,1229,311l4.54-2.24,2.05-4.62A30.27,30.27,0,0,0,1238.5,313.5Z" transform="translate(-186.79 -81.73)"/><polyline class="cls-1" points="845.71 22.77 845.71 69.77 888.71 69.77 888.71 58.81"/><path class="cls-3" d="M1075.5,134.5a30.1,30.1,0,0,0,4.76,8.55l-4.76-1.72-4.75,1.72A30.31,30.31,0,0,0,1075.5,134.5Z" transform="translate(-186.79 -81.73)"/><polyline class="cls-4" points="85.71 342.77 85.71 303.77 40.71 303.77 40.71 28.77 647.67 28.77"/><path class="cls-3" d="M840.5,110.5a30.1,30.1,0,0,0-8.55,4.76l1.72-4.76L832,105.75A30.31,30.31,0,0,0,840.5,110.5Z" transform="translate(-186.79 -81.73)"/><line class="cls-4" x1="174.71" y1="342.77" x2="193.33" y2="299.32"/><path class="cls-3" d="M382.5,375.5a30.22,30.22,0,0,0,1,9.73l-3.69-3.45-5.05-.3A30,30,0,0,0,382.5,375.5Z" transform="translate(-186.79 -81.73)"/><line class="cls-4" x1="402.71" y1="340.77" x2="335.76" y2="297.07"/><path class="cls-3" d="M517.5,375.5a30.25,30.25,0,0,0,9.76.69l-4,3-1.16,4.92A30.36,30.36,0,0,0,517.5,375.5Z" transform="translate(-186.79 -81.73)"/><polyline class="cls-4" points="493.71 342.77 493.71 298.77 366.71 298.77 366.71 218.81"/><path class="cls-3" d="M553.5,294.5a30.1,30.1,0,0,0,4.76,8.55l-4.76-1.72-4.75,1.72A30.31,30.31,0,0,0,553.5,294.5Z" transform="translate(-186.79 -81.73)"/><line class="cls-4" x1="480.71" y1="261.77" x2="463.89" y2="218.4"/><path class="cls-3" d="M648.5,294.5a30.29,30.29,0,0,0,7.52,6.25l-5,.12-3.81,3.32A30.25,30.25,0,0,0,648.5,294.5Z" transform="translate(-186.79 -81.73)"/><line class="cls-4" x1="567.71" y1="262.77" x2="622.25" y2="140.29"/><path class="cls-3" d="M811.5,216.5a30.32,30.32,0,0,0,.87,9.74l-3.65-3.5-5-.37A30.09,30.09,0,0,0,811.5,216.5Z" transform="translate(-186.79 -81.73)"/><line class="cls-4" x1="815.71" y1="262.77" x2="756.34" y2="140.2"/><path class="cls-3" d="M940.5,216.5a30.26,30.26,0,0,0,8,5.62l-5,.52L940,226.27A30.3,30.3,0,0,0,940.5,216.5Z" transform="translate(-186.79 -81.73)"/><line class="cls-4" x1="902.71" y1="262.77" x2="923.19" y2="218.25"/><path class="cls-3" d="M1112.5,294.5a30.12,30.12,0,0,0,.75,9.75l-3.6-3.55-5-.42A30.22,30.22,0,0,0,1112.5,294.5Z" transform="translate(-186.79 -81.73)"/><line class="cls-4" x1="1114.71" y1="262.77" x2="1064.18" y2="216.83"/><path class="cls-3" d="M1246.5,294.5a30.26,30.26,0,0,0,9.52,2.23l-4.47,2.36-1.92,4.68A30.42,30.42,0,0,0,1246.5,294.5Z" transform="translate(-186.79 -81.73)"/><polyline class="cls-4" points="1201.71 261.77 1201.71 20.77 952.75 22.73"/><path class="cls-3" d="M1133.5,104.5a30.38,30.38,0,0,0,8.51-4.82l-1.68,4.77,1.75,4.74A30,30,0,0,0,1133.5,104.5Z" transform="translate(-186.79 -81.73)"/></svg>