<svg id="图层_1" data-name="图层 1" xmlns="http://www.w3.org/2000/svg" viewBox="0 0 516.11 75.17"><defs><style>.cls-1{fill:none;stroke:#3ea69f;stroke-miterlimit:10;}.cls-2{fill:#3ea69f;}</style></defs><rect class="cls-1" x="62.89" y="41.71" width="105.72" height="32.96"/><line class="cls-1" x1="127.1" y1="41.71" x2="127.1" y2="74.67"/><path class="cls-2" d="M293.92,159.91l-3.06-4.21h1.63l1.39,1.91c.31.49.67,1,1,1.48H295c.32-.47.68-1,1-1.5l1.3-1.89h1.58l-3.1,4.34,3.35,4.41h-1.65l-1.52-2c-.37-.49-.77-1.09-1.15-1.59h-.07c-.36.52-.72,1.05-1.08,1.6l-1.44,2H290.6Z" transform="translate(-203.89 -101)"/><path class="cls-2" d="M303.4,166.65h5.42v1H303.4Zm2.22-4.54h-1.89v-.76a4.19,4.19,0,0,0,2.1-.73h1v7h-1.17Z" transform="translate(-203.89 -101)"/><line class="cls-1" x1="147.11" y1="58.5" x2="198.07" y2="58.5"/><path class="cls-2" d="M408,159.5a30.1,30.1,0,0,0-8.55,4.76l1.72-4.76-1.72-4.75A30.31,30.31,0,0,0,408,159.5Z" transform="translate(-203.89 -101)"/><line class="cls-1" x1="20.11" y1="58.5" x2="42.07" y2="58.5"/><path class="cls-2" d="M252,159.5a30.1,30.1,0,0,0-8.55,4.76l1.72-4.76-1.72-4.75A30.31,30.31,0,0,0,252,159.5Z" transform="translate(-203.89 -101)"/><rect class="cls-1" x="218.89" y="41.71" width="105.72" height="32.96"/><line class="cls-1" x1="283.1" y1="41.71" x2="283.1" y2="74.67"/><path class="cls-2" d="M449.92,159.91l-3.06-4.21h1.63l1.39,1.91c.31.49.67,1,1,1.48H451c.32-.47.68-1,1-1.5l1.3-1.89h1.58l-3.1,4.34,3.35,4.41h-1.65l-1.52-2c-.37-.49-.77-1.09-1.15-1.59h-.07c-.36.52-.72,1.05-1.08,1.6l-1.44,2H446.6Z" transform="translate(-203.89 -101)"/><path class="cls-2" d="M459.1,167c2.41-2.05,3.69-3.06,3.69-4.12a1.4,1.4,0,0,0-1.53-1.46,2.14,2.14,0,0,0-1.7,1l-.68-.63a3.06,3.06,0,0,1,2.54-1.37,2.23,2.23,0,0,1,2.52,2.29c0,1.35-1.26,2.36-3,4h3.31v1h-5.11Z" transform="translate(-203.89 -101)"/><line class="cls-1" x1="303.11" y1="58.5" x2="354.07" y2="58.5"/><path class="cls-2" d="M564,159.5a30.1,30.1,0,0,0-8.55,4.76l1.72-4.76-1.72-4.75A30.31,30.31,0,0,0,564,159.5Z" transform="translate(-203.89 -101)"/><rect class="cls-1" x="373.89" y="41.71" width="105.72" height="32.96"/><line class="cls-1" x1="438.1" y1="41.71" x2="438.1" y2="74.67"/><path class="cls-2" d="M604.92,159.91l-3.06-4.21h1.63l1.39,1.91c.31.49.67,1,1,1.48H606c.32-.47.68-1,1-1.5l1.3-1.89h1.58l-3.1,4.34,3.35,4.41h-1.65l-1.52-2c-.37-.49-.77-1.09-1.15-1.59h-.07c-.36.52-.72,1.05-1.08,1.6l-1.44,2H601.6Z" transform="translate(-203.89 -101)"/><path class="cls-2" d="M613.81,166.49l.75-.6a2.34,2.34,0,0,0,2,1.05c.86,0,1.58-.45,1.58-1.25s-.75-1.24-2.36-1.24v-.74c1.43,0,2.09-.55,2.09-1.27s-.57-1.1-1.44-1.1a2.22,2.22,0,0,0-1.62.84l-.68-.61a3.06,3.06,0,0,1,2.46-1.17c1.32,0,2.43.72,2.43,1.89,0,.85-.46,1.37-1.4,1.73a1.8,1.8,0,0,1,1.67,1.73c0,1.29-1.2,2.1-2.66,2.1A3.31,3.31,0,0,1,613.81,166.49Z" transform="translate(-203.89 -101)"/><polyline class="cls-1" points="458.11 58.5 515.11 58.5 515.61 0.5 97.61 0.5 97.61 23.46"/><path class="cls-2" d="M301.5,130.5a30.1,30.1,0,0,0-4.76-8.55l4.76,1.72,4.75-1.72A30.31,30.31,0,0,0,301.5,130.5Z" transform="translate(-203.89 -101)"/><path class="cls-2" d="M203.89,162.18c0-2,1.84-2.91,6.36-3.27a2.08,2.08,0,0,0-2.32-2.2,6.15,6.15,0,0,0-3.07,1l-.59-1a7.65,7.65,0,0,1,3.91-1.27,3.26,3.26,0,0,1,3.56,3.61v5.36H210.5l-.13-1.19h-.05a5.84,5.84,0,0,1-3.44,1.41C205.24,164.67,203.89,163.75,203.89,162.18Zm6.36,0V159.9c-3.75.28-4.88,1-4.88,2.18,0,1,.9,1.38,1.91,1.38A4.81,4.81,0,0,0,210.25,162.17Z" transform="translate(-203.89 -101)"/></svg>