<svg id="图层_1" data-name="图层 1" xmlns="http://www.w3.org/2000/svg" viewBox="0 0 838.72 83.96"><defs><style>.cls-1,.cls-3{fill:none;stroke:#3ea69f;stroke-miterlimit:10;}.cls-2{fill:#3ea69f;}.cls-3{stroke-dasharray:9 9;}.cls-4{fill:#44beb7;}</style></defs><rect class="cls-1" x="98.91" y="50.5" width="88.47" height="32.96"/><line class="cls-1" x1="155.01" y1="50.5" x2="155.01" y2="83.46"/><path class="cls-2" d="M374.23,148.42h-.07l-.17,1.17h-1.44V134.12h1.81v4.22l-.09,2h.07a5.17,5.17,0,0,1,3.54-1.61c2.84,0,4.39,2.11,4.39,5.37,0,3.61-2.26,5.71-4.76,5.71A5.22,5.22,0,0,1,374.23,148.42Zm6.19-4.26c0-2.32-.87-3.87-3-3.87a4.47,4.47,0,0,0-3.08,1.57v5.26a4.4,4.4,0,0,0,2.85,1.21C379,148.33,380.42,146.77,380.42,144.16Z" transform="translate(-263.78 -76)"/><path class="cls-2" d="M385.31,146.86c0-2.37,2.22-3.52,7.67-4a2.51,2.51,0,0,0-2.8-2.65,7.37,7.37,0,0,0-3.7,1.26l-.71-1.22a9.25,9.25,0,0,1,4.71-1.52c2.89,0,4.3,1.72,4.3,4.35v6.47h-1.5l-.15-1.43h-.06a7.15,7.15,0,0,1-4.15,1.69C386.94,149.85,385.31,148.75,385.31,146.86Zm7.67,0V144.1c-4.52.34-5.89,1.24-5.89,2.63,0,1.19,1.09,1.67,2.3,1.67A5.77,5.77,0,0,0,393,146.83Z" transform="translate(-263.78 -76)"/><path class="cls-2" d="M401.08,145.49v-5h-3v-1.35l3.07-.11.24-3.39h1.5V139h5.17v1.46h-5.17v5c0,1.89.63,2.87,2.67,2.87a7,7,0,0,0,2.52-.48l.39,1.32a9.14,9.14,0,0,1-3.3.63C402.08,149.85,401.08,148.09,401.08,145.49Z" transform="translate(-263.78 -76)"/><rect class="cls-1" x="251.56" y="50.5" width="88.47" height="32.96"/><line class="cls-1" x1="307.66" y1="50.5" x2="307.66" y2="83.46"/><path class="cls-2" d="M524.92,144.34c0-3.55,2.69-5.57,5.89-5.57a5.34,5.34,0,0,1,3.84,1.55l-.89,1.15a4.35,4.35,0,0,0-2.89-1.2,3.88,3.88,0,0,0-4.1,4.07,3.83,3.83,0,0,0,4.06,4,5,5,0,0,0,3.26-1.33l.8,1.17a6.25,6.25,0,0,1-4.19,1.65C527.4,149.85,524.92,147.83,524.92,144.34Z" transform="translate(-263.78 -76)"/><path class="cls-2" d="M538,146.86c0-2.37,2.21-3.52,7.67-4a2.51,2.51,0,0,0-2.81-2.65,7.36,7.36,0,0,0-3.69,1.26l-.72-1.22a9.33,9.33,0,0,1,4.72-1.52c2.89,0,4.3,1.72,4.3,4.35v6.47h-1.5l-.15-1.43h-.07a7.1,7.1,0,0,1-4.15,1.69C539.59,149.85,538,148.75,538,146.86Zm7.67,0V144.1c-4.52.34-5.89,1.24-5.89,2.63,0,1.19,1.08,1.67,2.3,1.67A5.77,5.77,0,0,0,545.63,146.83Z" transform="translate(-263.78 -76)"/><path class="cls-2" d="M553.73,145.49v-5h-3v-1.35l3.07-.11.24-3.39h1.49V139h5.18v1.46h-5.18v5c0,1.89.63,2.87,2.68,2.87a7,7,0,0,0,2.52-.48l.39,1.32a9.19,9.19,0,0,1-3.3.63C554.73,149.85,553.73,148.09,553.73,145.49Z" transform="translate(-263.78 -76)"/><rect class="cls-1" x="557.21" y="50.5" width="88.47" height="32.96"/><line class="cls-1" x1="613.31" y1="50.5" x2="613.31" y2="83.46"/><path class="cls-2" d="M830.37,148.2l.83-1.19a7.53,7.53,0,0,0,4.58,1.43c1.79,0,2.66-.74,2.66-1.63s-.42-1.37-3.29-1.95-4.12-1.5-4.12-3.09,1.5-3,4.39-3a7.89,7.89,0,0,1,4.25,1.35l-.87,1.15a6.23,6.23,0,0,0-3.54-1.11c-1.78,0-2.43.72-2.43,1.53s.91,1.3,3.08,1.76c3.5.76,4.35,1.62,4.35,3.25s-1.67,3.15-4.69,3.15A9.32,9.32,0,0,1,830.37,148.2Z" transform="translate(-263.78 -76)"/><path class="cls-2" d="M843.61,146.86c0-2.37,2.21-3.52,7.67-4a2.51,2.51,0,0,0-2.81-2.65,7.33,7.33,0,0,0-3.69,1.26l-.72-1.22a9.33,9.33,0,0,1,4.72-1.52c2.89,0,4.3,1.72,4.3,4.35v6.47h-1.5l-.15-1.43h-.07a7.1,7.1,0,0,1-4.15,1.69C845.24,149.85,843.61,148.75,843.61,146.86Zm7.67,0V144.1c-4.52.34-5.89,1.24-5.89,2.63,0,1.19,1.08,1.67,2.3,1.67A5.77,5.77,0,0,0,851.28,146.83Z" transform="translate(-263.78 -76)"/><path class="cls-2" d="M859.38,145.49v-5h-3v-1.35l3.07-.11.23-3.39h1.5V139h5.18v1.46h-5.18v5c0,1.89.63,2.87,2.68,2.87a7,7,0,0,0,2.52-.48l.39,1.32a9.2,9.2,0,0,1-3.31.63C860.38,149.85,859.38,148.09,859.38,145.49Z" transform="translate(-263.78 -76)"/><rect class="cls-1" x="404.21" y="50.5" width="88.47" height="32.96"/><line class="cls-1" x1="460.31" y1="50.5" x2="460.31" y2="83.46"/><path class="cls-2" d="M677.09,139h1.44l.15,1.39h0a2.63,2.63,0,0,1,2.41-1.65c1,0,1.7.61,2,1.83.61-1.13,1.26-1.83,2.48-1.83,1.48,0,2.35,1.15,2.35,3.26v7.56h-1.79v-7.43c0-1.21-.34-1.84-1.13-1.84s-1.13.54-1.69,1.63v7.64H681.7v-7.43c0-1.21-.31-1.84-1.09-1.84s-1.22.54-1.74,1.63v7.64h-1.78Z" transform="translate(-263.78 -76)"/><path class="cls-2" d="M690.61,146.86c0-2.37,2.21-3.52,7.67-4a2.51,2.51,0,0,0-2.81-2.65,7.33,7.33,0,0,0-3.69,1.26l-.72-1.22a9.33,9.33,0,0,1,4.72-1.52c2.89,0,4.3,1.72,4.3,4.35v6.47h-1.5l-.15-1.43h-.07a7.1,7.1,0,0,1-4.15,1.69C692.24,149.85,690.61,148.75,690.61,146.86Zm7.67,0V144.1c-4.52.34-5.89,1.24-5.89,2.63,0,1.19,1.08,1.67,2.3,1.67A5.77,5.77,0,0,0,698.28,146.83Z" transform="translate(-263.78 -76)"/><path class="cls-2" d="M706.38,145.49v-5h-3v-1.35l3.07-.11.23-3.39h1.5V139h5.18v1.46h-5.18v5c0,1.89.63,2.87,2.68,2.87a7,7,0,0,0,2.52-.48l.39,1.32a9.2,9.2,0,0,1-3.31.63C707.38,149.85,706.38,148.09,706.38,145.49Z" transform="translate(-263.78 -76)"/><rect class="cls-1" x="709.85" y="50.5" width="128.36" height="32.96"/><line class="cls-1" x1="765.95" y1="50.5" x2="765.95" y2="83.46"/><path class="cls-2" d="M982.56,139h1.85l2.44,6c.41,1.06.8,2.11,1.17,3.13h.09c.36-1,.71-2.07,1.15-3.13l2.43-6h1.74L989,149.59h-2Z" transform="translate(-263.78 -76)"/><path class="cls-2" d="M996.25,146.86c0-2.37,2.22-3.52,7.67-4a2.5,2.5,0,0,0-2.8-2.65,7.3,7.3,0,0,0-3.69,1.26l-.72-1.22a9.32,9.32,0,0,1,4.71-1.52c2.89,0,4.31,1.72,4.31,4.35v6.47h-1.5l-.15-1.43H1004a7.1,7.1,0,0,1-4.15,1.69C997.88,149.85,996.25,148.75,996.25,146.86Zm7.67,0V144.1c-4.52.34-5.88,1.24-5.88,2.63,0,1.19,1.08,1.67,2.3,1.67A5.75,5.75,0,0,0,1003.92,146.83Z" transform="translate(-263.78 -76)"/><path class="cls-2" d="M1012,145.49v-5h-3v-1.35l3.06-.11.24-3.39h1.5V139H1019v1.46h-5.17v5c0,1.89.63,2.87,2.67,2.87a7,7,0,0,0,2.52-.48l.4,1.32a9.2,9.2,0,0,1-3.31.63C1013,149.85,1012,148.09,1012,145.49Z" transform="translate(-263.78 -76)"/><path class="cls-2" d="M1041.87,135.59h2.55l3.59,7.65,1.24,2.9h.06c-.1-1.39-.33-3.11-.33-4.63v-5.92h2.3V149.2h-2.54l-3.6-7.65-1.23-2.9h-.06c.1,1.45.33,3.09.33,4.6v5.95h-2.31Z" transform="translate(-263.78 -76)"/><path class="cls-2" d="M1054.31,144v-8.42h2.43v8.6c0,2.2.91,3.15,2.36,3.15s2.39-1,2.39-3.15v-8.6h2.34V144c0,3.71-1.75,5.44-4.73,5.44S1054.31,147.72,1054.31,144Z" transform="translate(-263.78 -76)"/><path class="cls-2" d="M1067.81,135.59h2.41v11.57h6.38v2h-8.79Z" transform="translate(-263.78 -76)"/><path class="cls-2" d="M1080.3,135.59h2.41v11.57h6.38v2h-8.79Z" transform="translate(-263.78 -76)"/><line class="cls-1" x1="170.03" y1="67.85" x2="229.91" y2="67.85"/><path class="cls-2" d="M499.73,143.85a30.18,30.18,0,0,0-8.55,4.75l1.72-4.75-1.72-4.76A30.2,30.2,0,0,0,499.73,143.85Z" transform="translate(-263.78 -76)"/><line class="cls-1" x1="47.22" y1="67.85" x2="77.26" y2="67.85"/><path class="cls-2" d="M347.08,143.85a30.18,30.18,0,0,0-8.55,4.75l1.72-4.75-1.72-4.76A30.2,30.2,0,0,0,347.08,143.85Z" transform="translate(-263.78 -76)"/><line class="cls-3" x1="382.56" y1="67.85" x2="322.68" y2="67.85"/><path class="cls-2" d="M652.38,143.85a30.45,30.45,0,0,1-8.55-4.76l1.72,4.76-1.72,4.75A30.18,30.18,0,0,1,652.38,143.85Z" transform="translate(-263.78 -76)"/><line class="cls-1" x1="628.33" y1="67.85" x2="688.21" y2="67.85"/><path class="cls-2" d="M958,143.85a30.12,30.12,0,0,0-8.54,4.75l1.72-4.75-1.72-4.76A30.15,30.15,0,0,0,958,143.85Z" transform="translate(-263.78 -76)"/><line class="cls-1" x1="476.33" y1="67.85" x2="536.21" y2="67.85"/><path class="cls-2" d="M806,143.85a30.12,30.12,0,0,0-8.54,4.75l1.72-4.75-1.72-4.76A30.15,30.15,0,0,0,806,143.85Z" transform="translate(-263.78 -76)"/><path class="cls-4" d="M263.78,139h1.48l.15,1.35h.07a5.64,5.64,0,0,1,3.65-1.61c2.84,0,4.37,2.11,4.37,5.39,0,3.59-2.26,5.69-4.81,5.69a5,5,0,0,1-3.15-1.36h0l.09,2v3.56h-1.81Zm7.87,5.13c0-2.32-.87-3.87-3-3.87a4.47,4.47,0,0,0-3.08,1.57v5.26a4.37,4.37,0,0,0,2.8,1.21C270.26,148.33,271.65,146.77,271.65,144.16Z" transform="translate(-263.78 -76)"/><path class="cls-4" d="M279.27,145.49v-5h-3v-1.35l3.06-.11.24-3.39h1.5V139h5.17v1.46h-5.17v5c0,1.89.63,2.87,2.67,2.87a7,7,0,0,0,2.52-.48l.39,1.32a9.14,9.14,0,0,1-3.3.63C280.27,149.85,279.27,148.09,279.27,145.49Z" transform="translate(-263.78 -76)"/><path class="cls-4" d="M291,139h1.49l.18,2.5h0a5.59,5.59,0,0,1,4.72-2.76,4.37,4.37,0,0,1,2.08.44l-.41,1.54a5.29,5.29,0,0,0-2-.35c-1.58,0-3.08.81-4.34,3v6.17H291Z" transform="translate(-263.78 -76)"/><polyline class="cls-1" points="322.68 66.5 322.72 0.5 584.72 0.5 584.72 27.46"/><path class="cls-2" d="M848.5,109.5a30.1,30.1,0,0,0-4.76-8.55l4.76,1.72,4.75-1.72A30.31,30.31,0,0,0,848.5,109.5Z" transform="translate(-263.78 -76)"/></svg>