<svg xmlns="http://www.w3.org/2000/svg" viewBox="0 0 853.56 997.24"><defs><style>.a{fill:none;stroke:#3ea69f;stroke-miterlimit:10;}.b{fill:#3ea69f;}</style></defs><circle class="a" cx="220.15" cy="18.5" r="18"/><path class="b" d="M390.11,160c4.54-4,7-6.36,7-8.59,0-1.53-.93-2.6-2.9-2.6a4.58,4.58,0,0,0-3.21,1.6l-1-1a6,6,0,0,1,4.43-2c2.69,0,4.37,1.58,4.37,4,0,2.52-2.52,5-6.16,8.31.84-.06,1.7-.1,2.5-.1h4.39V161h-9.43Z" transform="translate(-181.03 -136.54)"/><path class="b" d="M402.8,154.85c0-5.38,2.68-7.46,5.6-7.46a5.32,5.32,0,0,1,3.74,1.43l-1,1.09a3.93,3.93,0,0,0-2.66-1.07c-2.19,0-4.08,1.53-4.08,6,0,3.29,1.26,5.08,3.49,5.08a2.78,2.78,0,0,0,2.81-2.94,2.55,2.55,0,0,0-2.83-2.84,4.73,4.73,0,0,0-3.51,1.89l-.06-1.36a5.68,5.68,0,0,1,3.88-1.83,3.81,3.81,0,0,1,4.18,4.14,4.32,4.32,0,0,1-4.47,4.3C405,161.29,402.8,159.15,402.8,154.85Z" transform="translate(-181.03 -136.54)"/><circle class="a" cx="50.06" cy="165.81" r="18"/><path class="b" d="M226.83,306.9h3.86v-9.83h-3v-1.13a9.71,9.71,0,0,0,3.44-1h1.3V306.9h3.49v1.45h-9.09Z" transform="translate(-181.03 -136.54)"/><circle class="a" cx="20.06" cy="242.81" r="18"/><path class="b" d="M190.53,383.9h3.86v-9.83h-3v-1.13a9.71,9.71,0,0,0,3.44-1h1.3V383.9h3.49v1.45h-9.09Z" transform="translate(-181.03 -136.54)"/><path class="b" d="M202.27,383.77l.86-1.15a5.31,5.31,0,0,0,3.78,1.53,3.11,3.11,0,0,0,3.38-3c0-1.85-1.31-2.92-3.28-2.92a5.05,5.05,0,0,0-2.73.79l-.92-.58.44-6.45h7.58v1.51h-6l-.36,4a5.7,5.7,0,0,1,2.48-.55c2.56,0,4.6,1.31,4.6,4.2s-2.39,4.54-5,4.54A6.68,6.68,0,0,1,202.27,383.77Z" transform="translate(-181.03 -136.54)"/><circle class="a" cx="75.06" cy="242.81" r="18"/><path class="b" d="M251.22,376.13c0-.74.06-1.64.1-2.37h-.1c-.44.65-.93,1.3-1.37,1.95l-3.61,4.53h8.69v1.41H244.31V380.5L251,372h1.86v13.4h-1.63Z" transform="translate(-181.03 -136.54)"/><path class="b" d="M257.52,381.92c0-1.84,1.43-2.89,2.87-3.57v-.08a3.75,3.75,0,0,1-2-3.13c0-2.06,1.74-3.44,4.13-3.44,2.63,0,4.16,1.49,4.16,3.57a4.2,4.2,0,0,1-2,3.19v.08c1.47.74,2.63,1.58,2.63,3.49s-1.74,3.57-4.81,3.57S257.52,384,257.52,381.92Zm8.06.05c0-1.85-1.87-2.33-4.2-3.11-1.3.69-2.29,1.55-2.29,2.9s1.33,2.54,3.38,2.54S265.58,383.35,265.58,382Zm-.44-6.62a2.39,2.39,0,0,0-2.69-2.35,2.22,2.22,0,0,0-2.5,2.14c0,1.6,1.54,2.27,3.53,2.9A3.41,3.41,0,0,0,265.14,375.35Z" transform="translate(-181.03 -136.54)"/><circle class="a" cx="109.15" cy="92.5" r="18"/><path class="b" d="M285.06,233.47l.86-1.16a5.31,5.31,0,0,0,3.78,1.53,3.11,3.11,0,0,0,3.38-3c0-1.85-1.31-2.92-3.28-2.92a5,5,0,0,0-2.73.8l-.92-.59.44-6.44h7.58v1.51h-6.05l-.36,3.94a5.84,5.84,0,0,1,2.48-.54c2.56,0,4.6,1.3,4.6,4.2s-2.39,4.53-4.95,4.53A6.72,6.72,0,0,1,285.06,233.47Z" transform="translate(-181.03 -136.54)"/><line class="a" x1="206.17" y1="29.84" x2="120.65" y2="79"/><line class="a" x1="234.12" y1="29.84" x2="319.65" y2="79"/><circle class="a" cx="331.06" cy="92.81" r="18"/><path class="b" d="M508.67,223.46H501V222h9.7V223c-3.55,4-4.41,7.08-4.62,12.33h-1.83A18,18,0,0,1,508.67,223.46Z" transform="translate(-181.03 -136.54)"/><path class="b" d="M521.27,223.46h-7.71V222h9.7V223c-3.55,4-4.41,7.08-4.62,12.33h-1.83A18,18,0,0,1,521.27,223.46Z" transform="translate(-181.03 -136.54)"/><line class="a" x1="43" y1="182.37" x2="26.19" y2="225.88"/><circle class="a" cx="129.47" cy="242.96" r="18"/><path class="b" d="M299.94,384.05h3.86v-9.82h-3v-1.14a9.5,9.5,0,0,0,3.44-1h1.3v11.95H309v1.45h-9.09Z" transform="translate(-181.03 -136.54)"/><path class="b" d="M312.16,384.35l1-1.1a4,4,0,0,0,2.67,1.05c2.16,0,4.07-1.53,4.07-6,0-3.3-1.28-5.06-3.48-5.06a2.77,2.77,0,0,0-2.84,2.92A2.57,2.57,0,0,0,316.4,379a4.69,4.69,0,0,0,3.49-1.89l.06,1.37a5.55,5.55,0,0,1-3.89,1.82,3.79,3.79,0,0,1-4.15-4.13,4.32,4.32,0,0,1,4.45-4.31c2.92,0,5.14,2.14,5.14,6.45,0,5.37-2.71,7.45-5.6,7.45A5.44,5.44,0,0,1,312.16,384.35Z" transform="translate(-181.03 -136.54)"/><line class="a" x1="152.41" y1="182.52" x2="135.6" y2="226.03"/><line class="a" x1="57.29" y1="182.37" x2="68.93" y2="225.88"/><circle class="a" cx="159.06" cy="165.81" r="18"/><path class="b" d="M329.11,302.15c0-5.37,2.68-7.45,5.6-7.45a5.32,5.32,0,0,1,3.74,1.43l-1,1.09a3.93,3.93,0,0,0-2.66-1.07c-2.19,0-4.07,1.53-4.07,6,0,3.3,1.25,5.08,3.48,5.08a2.77,2.77,0,0,0,2.81-2.94,2.54,2.54,0,0,0-2.83-2.83,4.69,4.69,0,0,0-3.51,1.89l-.06-1.37a5.67,5.67,0,0,1,3.88-1.82c2.48,0,4.18,1.38,4.18,4.13a4.32,4.32,0,0,1-4.47,4.31C331.31,308.6,329.11,306.46,329.11,302.15Z" transform="translate(-181.03 -136.54)"/><path class="b" d="M342.13,306.9H346v-9.83h-3v-1.13a9.71,9.71,0,0,0,3.44-1h1.3V306.9h3.49v1.45h-9.09Z" transform="translate(-181.03 -136.54)"/><line class="a" x1="94.88" y1="103.46" x2="57.06" y2="149.22"/><line class="a" x1="123.42" y1="103.46" x2="152.06" y2="149.22"/><circle class="a" cx="272.06" cy="165.81" r="18"/><path class="b" d="M442.53,306.9h3.86v-9.83h-3v-1.13a9.71,9.71,0,0,0,3.44-1h1.3V306.9h3.49v1.45h-9.09Z" transform="translate(-181.03 -136.54)"/><path class="b" d="M455.13,306.9H459v-9.83h-3v-1.13a9.71,9.71,0,0,0,3.44-1h1.3V306.9h3.49v1.45h-9.09Z" transform="translate(-181.03 -136.54)"/><circle class="a" cx="381.06" cy="165.81" r="18"/><path class="b" d="M550.67,306.77l.86-1.15a5.31,5.31,0,0,0,3.78,1.53,3.11,3.11,0,0,0,3.38-3c0-1.85-1.3-2.92-3.28-2.92a5.05,5.05,0,0,0-2.73.79l-.92-.58.44-6.45h7.58v1.51h-6l-.35,4a5.62,5.62,0,0,1,2.47-.55c2.56,0,4.6,1.31,4.6,4.2s-2.39,4.54-5,4.54A6.7,6.7,0,0,1,550.67,306.77Z" transform="translate(-181.03 -136.54)"/><path class="b" d="M563.75,307.19l1-1.09a4,4,0,0,0,2.67,1c2.16,0,4.07-1.53,4.07-6,0-3.3-1.28-5.07-3.48-5.07a2.77,2.77,0,0,0-2.84,2.92,2.57,2.57,0,0,0,2.86,2.84,4.72,4.72,0,0,0,3.49-1.89l.06,1.36a5.52,5.52,0,0,1-3.89,1.83A3.79,3.79,0,0,1,563.5,299a4.31,4.31,0,0,1,4.45-4.3c2.92,0,5.14,2.14,5.14,6.45,0,5.37-2.71,7.45-5.6,7.45A5.4,5.4,0,0,1,563.75,307.19Z" transform="translate(-181.03 -136.54)"/><path class="b" d="M346,153.29h5v.85h-3.8v13.79H351v.85h-5Z" transform="translate(-181.03 -136.54)"/><path class="b" d="M354.53,164.8h3.31v-8.43h-2.57v-1a8.2,8.2,0,0,0,3-.85h1.11V164.8h3V166h-7.79Z" transform="translate(-181.03 -136.54)"/><path class="b" d="M365.34,167.93h3.8V154.14h-3.8v-.85h5v15.49h-5Z" transform="translate(-181.03 -136.54)"/><path class="b" d="M238,222.29h5v.85h-3.8v13.79H243v.85h-5Z" transform="translate(-181.03 -136.54)"/><path class="b" d="M246.09,234.16c3.89-3.44,6-5.46,6-7.37,0-1.31-.79-2.23-2.49-2.23a3.94,3.94,0,0,0-2.75,1.37l-.87-.85a5.14,5.14,0,0,1,3.8-1.74c2.31,0,3.75,1.35,3.75,3.38s-2.16,4.31-5.28,7.13c.72,0,1.46-.09,2.15-.09h3.76V235h-8.09Z" transform="translate(-181.03 -136.54)"/><path class="b" d="M257.34,236.93h3.8V223.14h-3.8v-.85h5v15.49h-5Z" transform="translate(-181.03 -136.54)"/><path class="b" d="M181,295.29h5v.85h-3.8v13.79H186v.85h-5Z" transform="translate(-181.03 -136.54)"/><path class="b" d="M194.41,300.14c0-.63.05-1.41.09-2h-.09c-.38.56-.8,1.12-1.17,1.68l-3.1,3.89h7.45v1.2h-9.11v-1l5.73-7.33h1.6V308h-1.4Z" transform="translate(-181.03 -136.54)"/><path class="b" d="M200.34,309.93h3.8V296.14h-3.8v-.85h5v15.49h-5Z" transform="translate(-181.03 -136.54)"/><path class="b" d="M189,405.29h5v.85h-3.8v13.79H194v.85h-5Z" transform="translate(-181.03 -136.54)"/><path class="b" d="M197,415.11c0-1.59,1.23-2.49,2.47-3.07V412a3.21,3.21,0,0,1-1.74-2.68c0-1.76,1.49-3,3.54-3,2.25,0,3.57,1.28,3.57,3.06a3.6,3.6,0,0,1-1.75,2.73v.08c1.26.63,2.25,1.35,2.25,3s-1.49,3.06-4.12,3.06S197,416.92,197,415.11Zm6.92,0c0-1.58-1.6-2-3.6-2.66-1.12.59-2,1.33-2,2.48s1.14,2.18,2.9,2.18S203.92,416.33,203.92,415.14Zm-.38-5.67a2,2,0,0,0-2.3-2,1.91,1.91,0,0,0-2.15,1.84c0,1.37,1.32,1.94,3,2.48A2.91,2.91,0,0,0,203.54,409.47Z" transform="translate(-181.03 -136.54)"/><path class="b" d="M208.34,419.93h3.8V406.14h-3.8v-.85h5v15.49h-5Z" transform="translate(-181.03 -136.54)"/><path class="b" d="M245,405.29h5v.85h-3.8v13.79H250v.85h-5Z" transform="translate(-181.03 -136.54)"/><path class="b" d="M253.2,417.05l.83-.94a3.41,3.41,0,0,0,2.29.9c1.85,0,3.49-1.31,3.49-5.15,0-2.82-1.1-4.33-3-4.33a2.37,2.37,0,0,0-2.43,2.5,2.2,2.2,0,0,0,2.45,2.43,4,4,0,0,0,3-1.62l.05,1.17a4.75,4.75,0,0,1-3.33,1.57A3.25,3.25,0,0,1,253,410a3.69,3.69,0,0,1,3.81-3.69c2.51,0,4.42,1.83,4.42,5.52,0,4.61-2.33,6.4-4.81,6.4A4.67,4.67,0,0,1,253.2,417.05Z" transform="translate(-181.03 -136.54)"/><path class="b" d="M264.34,419.93h3.8V406.14h-3.8v-.85h5v15.49h-5Z" transform="translate(-181.03 -136.54)"/><path class="b" d="M292.63,405.29h5v.85h-3.8v13.79h3.8v.85h-5Z" transform="translate(-181.03 -136.54)"/><path class="b" d="M301.13,416.8h3.31v-8.43h-2.57v-1a8.2,8.2,0,0,0,2.95-.85h1.11V416.8h3V418h-7.79Z" transform="translate(-181.03 -136.54)"/><path class="b" d="M311.46,412.26c0-3.85,1.56-5.92,4.12-5.92s4.13,2.07,4.13,5.92-1.57,6-4.13,6S311.46,416.08,311.46,412.26Zm6.86,0c0-3.29-1.14-4.72-2.74-4.72s-2.73,1.43-2.73,4.72,1.13,4.79,2.73,4.79S318.32,415.56,318.32,412.26Zm-3.85-.13a1.12,1.12,0,1,1,1.11,1.21A1.11,1.11,0,0,1,314.47,412.13Z" transform="translate(-181.03 -136.54)"/><path class="b" d="M322.74,419.93h3.8V406.14h-3.8v-.85h5v15.49h-5Z" transform="translate(-181.03 -136.54)"/><path class="b" d="M290,295.29h5v.85h-3.8v13.79H295v.85h-5Z" transform="translate(-181.03 -136.54)"/><path class="b" d="M297.79,306.69l.74-1a4.58,4.58,0,0,0,3.24,1.31,2.66,2.66,0,0,0,2.9-2.61c0-1.58-1.12-2.5-2.81-2.5a4.26,4.26,0,0,0-2.34.68l-.79-.5.37-5.53h6.5v1.3h-5.18l-.31,3.38a5.06,5.06,0,0,1,2.13-.46c2.19,0,3.94,1.11,3.94,3.6a4,4,0,0,1-4.25,3.89A5.78,5.78,0,0,1,297.79,306.69Z" transform="translate(-181.03 -136.54)"/><path class="b" d="M309.34,309.93h3.8V296.14h-3.8v-.85h5v15.49h-5Z" transform="translate(-181.03 -136.54)"/><path class="b" d="M403,295.29h5v.85h-3.8v13.79H408v.85h-5Z" transform="translate(-181.03 -136.54)"/><path class="b" d="M411.17,302.73c0-4.61,2.3-6.39,4.8-6.39a4.58,4.58,0,0,1,3.21,1.22l-.83.94a3.37,3.37,0,0,0-2.29-.92c-1.87,0-3.49,1.31-3.49,5.15,0,2.83,1.08,4.36,3,4.36a2.38,2.38,0,0,0,2.41-2.52,2.19,2.19,0,0,0-2.43-2.44,4,4,0,0,0-3,1.63l-.06-1.18a4.88,4.88,0,0,1,3.33-1.56,3.27,3.27,0,0,1,3.59,3.55,3.71,3.71,0,0,1-3.84,3.69C413.06,308.26,411.17,306.42,411.17,302.73Z" transform="translate(-181.03 -136.54)"/><path class="b" d="M422.34,309.93h3.8V296.14h-3.8v-.85h5v15.49h-5Z" transform="translate(-181.03 -136.54)"/><path class="b" d="M514,295.29h5v.85h-3.8v13.79H519v.85h-5Z" transform="translate(-181.03 -136.54)"/><path class="b" d="M528.65,297.85H522v-1.3h8.32v.92c-3,3.48-3.78,6.07-4,10.57h-1.57A15.35,15.35,0,0,1,528.65,297.85Z" transform="translate(-181.03 -136.54)"/><path class="b" d="M533.34,309.93h3.8V296.14h-3.8v-.85h5v15.49h-5Z" transform="translate(-181.03 -136.54)"/><path class="b" d="M459,222.29h5v.85h-3.8v13.79H464v.85h-5Z" transform="translate(-181.03 -136.54)"/><path class="b" d="M466.81,233.64l.75-1a4.66,4.66,0,0,0,3.3,1.35c1.56,0,2.73-.81,2.73-2.08s-1.15-2.29-4.15-2.29V228.5c2.71,0,3.76-.93,3.76-2.14s-1-1.8-2.34-1.8a4.39,4.39,0,0,0-2.83,1.15l-.79-.93a5.56,5.56,0,0,1,3.67-1.44c2.16,0,3.8,1.06,3.8,2.91,0,1.39-1,2.27-2.45,2.74v.07c1.53.33,2.85,1.34,2.85,2.92,0,2-1.88,3.28-4.16,3.28A5.64,5.64,0,0,1,466.81,233.64Z" transform="translate(-181.03 -136.54)"/><path class="b" d="M478.34,236.93h3.8V223.14h-3.8v-.85h5v15.49h-5Z" transform="translate(-181.03 -136.54)"/><line class="a" x1="316.88" y1="103.46" x2="279.06" y2="149.22"/><line class="a" x1="345.42" y1="103.46" x2="374.06" y2="149.22"/><circle class="a" cx="674.15" cy="18.5" r="18"/><path class="b" d="M851.76,149.16h-7.71v-1.51h9.7v1.07c-3.55,4.05-4.41,7.07-4.62,12.32H847.3A17.9,17.9,0,0,1,851.76,149.16Z" transform="translate(-181.03 -136.54)"/><path class="b" d="M864.36,149.16h-7.71v-1.51h9.7v1.07c-3.55,4.05-4.41,7.07-4.62,12.32H859.9A17.9,17.9,0,0,1,864.36,149.16Z" transform="translate(-181.03 -136.54)"/><circle class="a" cx="504.06" cy="165.81" r="18"/><path class="b" d="M680.22,299.13c0-.74.06-1.64.1-2.37h-.1c-.44.65-.93,1.3-1.37,1.95l-3.61,4.53h8.69v1.41H673.31V303.5L680,295h1.86v13.4h-1.63Z" transform="translate(-181.03 -136.54)"/><path class="b" d="M686.52,304.92c0-1.84,1.43-2.89,2.87-3.57v-.08a3.75,3.75,0,0,1-2-3.13c0-2.06,1.74-3.44,4.13-3.44,2.63,0,4.16,1.49,4.16,3.57a4.2,4.2,0,0,1-2,3.19v.08c1.47.74,2.63,1.58,2.63,3.49s-1.74,3.57-4.81,3.57S686.52,307,686.52,304.92Zm8.06.05c0-1.85-1.87-2.33-4.2-3.11-1.3.69-2.29,1.55-2.29,2.9s1.33,2.54,3.38,2.54S694.58,306.35,694.58,305Zm-.44-6.62a2.39,2.39,0,0,0-2.69-2.35,2.22,2.22,0,0,0-2.5,2.14c0,1.6,1.54,2.27,3.53,2.9A3.41,3.41,0,0,0,694.14,298.35Z" transform="translate(-181.03 -136.54)"/><circle class="a" cx="474.06" cy="242.81" r="18"/><path class="b" d="M644.53,383.9h3.86v-9.83h-3v-1.13a9.71,9.71,0,0,0,3.44-1h1.3V383.9h3.49v1.45h-9.09Z" transform="translate(-181.03 -136.54)"/><path class="b" d="M656.27,383.77l.86-1.15a5.31,5.31,0,0,0,3.78,1.53,3.11,3.11,0,0,0,3.38-3c0-1.85-1.31-2.92-3.28-2.92a5.05,5.05,0,0,0-2.73.79l-.92-.58.44-6.45h7.58v1.51h-6l-.36,4a5.7,5.7,0,0,1,2.48-.55c2.56,0,4.6,1.31,4.6,4.2s-2.39,4.54-5,4.54A6.67,6.67,0,0,1,656.27,383.77Z" transform="translate(-181.03 -136.54)"/><circle class="a" cx="529.06" cy="242.81" r="18"/><path class="b" d="M705.83,383.9h3.86v-9.83h-3v-1.13a9.71,9.71,0,0,0,3.44-1h1.3V383.9h3.49v1.45h-9.09Z" transform="translate(-181.03 -136.54)"/><circle class="a" cx="563.15" cy="92.5" r="18"/><path class="b" d="M733.2,228.85c0-5.38,2.68-7.46,5.6-7.46a5.32,5.32,0,0,1,3.74,1.43l-1,1.09a4,4,0,0,0-2.67-1.07c-2.19,0-4.08,1.53-4.08,6,0,3.29,1.26,5.08,3.49,5.08a2.78,2.78,0,0,0,2.81-2.94,2.55,2.55,0,0,0-2.83-2.84,4.73,4.73,0,0,0-3.51,1.89l-.06-1.36a5.68,5.68,0,0,1,3.88-1.83,3.81,3.81,0,0,1,4.18,4.14,4.32,4.32,0,0,1-4.47,4.3C735.4,235.29,733.2,233.15,733.2,228.85Z" transform="translate(-181.03 -136.54)"/><path class="b" d="M746.22,233.59h3.86v-9.82h-3v-1.14a9.73,9.73,0,0,0,3.44-1h1.3v11.94h3.49V235h-9.09Z" transform="translate(-181.03 -136.54)"/><line class="a" x1="660.17" y1="29.84" x2="574.65" y2="79"/><line class="a" x1="688.12" y1="29.84" x2="773.65" y2="79"/><circle class="a" cx="785.06" cy="92.81" r="18"/><path class="b" d="M954.67,233.77l.86-1.15a5.31,5.31,0,0,0,3.78,1.53,3.11,3.11,0,0,0,3.38-3c0-1.85-1.31-2.92-3.28-2.92a5.05,5.05,0,0,0-2.73.79l-.92-.58.44-6.45h7.58v1.51h-6l-.35,3.95a5.62,5.62,0,0,1,2.47-.55c2.56,0,4.6,1.31,4.6,4.2s-2.39,4.54-5,4.54A6.7,6.7,0,0,1,954.67,233.77Z" transform="translate(-181.03 -136.54)"/><path class="b" d="M967.75,234.19l1-1.09a4,4,0,0,0,2.67,1.05c2.16,0,4.07-1.53,4.07-6,0-3.3-1.28-5.07-3.48-5.07a2.77,2.77,0,0,0-2.84,2.92,2.57,2.57,0,0,0,2.86,2.84,4.72,4.72,0,0,0,3.49-1.89l.06,1.36a5.52,5.52,0,0,1-3.89,1.83A3.79,3.79,0,0,1,967.5,226a4.31,4.31,0,0,1,4.45-4.3c2.92,0,5.14,2.14,5.14,6.45,0,5.37-2.71,7.45-5.6,7.45A5.4,5.4,0,0,1,967.75,234.19Z" transform="translate(-181.03 -136.54)"/><line class="a" x1="497" y1="182.37" x2="480.19" y2="225.88"/><circle class="a" cx="583.47" cy="242.96" r="18"/><path class="b" d="M759.38,383.93l.86-1.16A5.31,5.31,0,0,0,764,384.3a3.11,3.11,0,0,0,3.38-3c0-1.85-1.31-2.92-3.28-2.92a5,5,0,0,0-2.73.8l-.92-.59.44-6.45h7.58v1.52h-6l-.36,3.94a5.84,5.84,0,0,1,2.48-.54c2.56,0,4.6,1.3,4.6,4.2s-2.39,4.53-4.95,4.53A6.72,6.72,0,0,1,759.38,383.93Z" transform="translate(-181.03 -136.54)"/><line class="a" x1="606.41" y1="182.52" x2="589.6" y2="226.03"/><line class="a" x1="511.29" y1="182.37" x2="522.93" y2="225.88"/><circle class="a" cx="613.06" cy="165.81" r="18"/><path class="b" d="M783.53,306.9h3.86v-9.83h-3v-1.13a9.71,9.71,0,0,0,3.44-1h1.3V306.9h3.49v1.45h-9.09Z" transform="translate(-181.03 -136.54)"/><path class="b" d="M795.75,307.19l1-1.09a4,4,0,0,0,2.67,1c2.16,0,4.07-1.53,4.07-6,0-3.3-1.28-5.07-3.48-5.07a2.77,2.77,0,0,0-2.84,2.92,2.57,2.57,0,0,0,2.86,2.84,4.72,4.72,0,0,0,3.49-1.89l.06,1.36a5.52,5.52,0,0,1-3.89,1.83A3.79,3.79,0,0,1,795.5,299a4.31,4.31,0,0,1,4.45-4.3c2.92,0,5.14,2.14,5.14,6.45,0,5.37-2.71,7.45-5.6,7.45A5.4,5.4,0,0,1,795.75,307.19Z" transform="translate(-181.03 -136.54)"/><line class="a" x1="548.88" y1="103.46" x2="511.06" y2="149.22"/><line class="a" x1="577.42" y1="103.46" x2="606.06" y2="149.22"/><circle class="a" cx="726.06" cy="165.81" r="18"/><path class="b" d="M896.53,306.9h3.86v-9.83h-3v-1.13a9.71,9.71,0,0,0,3.44-1h1.3V306.9h3.49v1.45h-9.09Z" transform="translate(-181.03 -136.54)"/><path class="b" d="M909.13,306.9H913v-9.83h-3v-1.13a9.71,9.71,0,0,0,3.44-1h1.3V306.9h3.49v1.45h-9.09Z" transform="translate(-181.03 -136.54)"/><circle class="a" cx="835.06" cy="165.81" r="18"/><path class="b" d="M1005,307.32c4.54-4,7-6.36,7-8.59,0-1.53-.93-2.6-2.9-2.6a4.61,4.61,0,0,0-3.21,1.59l-1-1a6,6,0,0,1,4.43-2c2.69,0,4.37,1.57,4.37,3.95s-2.52,5-6.16,8.31c.84-.06,1.7-.1,2.5-.1h4.39v1.49H1005Z" transform="translate(-181.03 -136.54)"/><path class="b" d="M1017.71,302.15c0-5.37,2.68-7.45,5.6-7.45a5.32,5.32,0,0,1,3.74,1.43l-1,1.09a3.93,3.93,0,0,0-2.66-1.07c-2.19,0-4.08,1.53-4.08,6,0,3.3,1.26,5.08,3.49,5.08a2.78,2.78,0,0,0,2.81-2.94,2.54,2.54,0,0,0-2.83-2.83,4.69,4.69,0,0,0-3.51,1.89l-.06-1.37a5.67,5.67,0,0,1,3.88-1.82c2.48,0,4.18,1.38,4.18,4.13a4.32,4.32,0,0,1-4.47,4.31C1019.91,308.6,1017.71,306.46,1017.71,302.15Z" transform="translate(-181.03 -136.54)"/><path class="b" d="M800,153.29h5v.85h-3.8v13.79H805v.85h-5Z" transform="translate(-181.03 -136.54)"/><path class="b" d="M808.53,164.8h3.31v-8.43h-2.57v-1a8.2,8.2,0,0,0,3-.85h1.11V164.8h3V166h-7.79Z" transform="translate(-181.03 -136.54)"/><path class="b" d="M819.34,167.93h3.8V154.14h-3.8v-.85h5v15.49h-5Z" transform="translate(-181.03 -136.54)"/><path class="b" d="M692,222.29h5v.85h-3.8v13.79H697v.85h-5Z" transform="translate(-181.03 -136.54)"/><path class="b" d="M700.09,234.16c3.89-3.44,6-5.46,6-7.37,0-1.31-.79-2.23-2.49-2.23a3.94,3.94,0,0,0-2.75,1.37l-.87-.85a5.14,5.14,0,0,1,3.8-1.74c2.31,0,3.75,1.35,3.75,3.38s-2.16,4.31-5.28,7.13c.72,0,1.46-.09,2.15-.09h3.76V235h-8.09Z" transform="translate(-181.03 -136.54)"/><path class="b" d="M711.34,236.93h3.8V223.14h-3.8v-.85h5v15.49h-5Z" transform="translate(-181.03 -136.54)"/><path class="b" d="M635,295.29h5v.85h-3.8v13.79H640v.85h-5Z" transform="translate(-181.03 -136.54)"/><path class="b" d="M648.41,300.14c0-.63.05-1.41.09-2h-.09c-.38.56-.8,1.12-1.17,1.68l-3.1,3.89h7.45v1.2h-9.11v-1l5.73-7.33h1.6V308h-1.4Z" transform="translate(-181.03 -136.54)"/><path class="b" d="M654.34,309.93h3.8V296.14h-3.8v-.85h5v15.49h-5Z" transform="translate(-181.03 -136.54)"/><path class="b" d="M643,405.29h5v.85h-3.8v13.79H648v.85h-5Z" transform="translate(-181.03 -136.54)"/><path class="b" d="M651,415.11c0-1.59,1.23-2.49,2.47-3.07V412a3.21,3.21,0,0,1-1.74-2.68c0-1.76,1.49-3,3.54-3,2.25,0,3.57,1.28,3.57,3.06a3.6,3.6,0,0,1-1.75,2.73v.08c1.26.63,2.25,1.35,2.25,3s-1.49,3.06-4.12,3.06S651,416.92,651,415.11Zm6.92,0c0-1.58-1.6-2-3.6-2.66-1.12.59-2,1.33-2,2.48s1.13,2.18,2.89,2.18S657.92,416.33,657.92,415.14Zm-.38-5.67a2,2,0,0,0-2.3-2,1.91,1.91,0,0,0-2.15,1.84c0,1.37,1.32,1.94,3,2.48A2.91,2.91,0,0,0,657.54,409.47Z" transform="translate(-181.03 -136.54)"/><path class="b" d="M662.34,419.93h3.8V406.14h-3.8v-.85h5v15.49h-5Z" transform="translate(-181.03 -136.54)"/><path class="b" d="M699,405.29h5v.85h-3.8v13.79H704v.85h-5Z" transform="translate(-181.03 -136.54)"/><path class="b" d="M707.2,417.05l.83-.94a3.41,3.41,0,0,0,2.29.9c1.85,0,3.49-1.31,3.49-5.15,0-2.82-1.1-4.33-3-4.33a2.37,2.37,0,0,0-2.43,2.5,2.2,2.2,0,0,0,2.45,2.43,4,4,0,0,0,3-1.62l0,1.17a4.75,4.75,0,0,1-3.33,1.57A3.25,3.25,0,0,1,707,410a3.69,3.69,0,0,1,3.81-3.69c2.51,0,4.42,1.83,4.42,5.52,0,4.61-2.33,6.4-4.81,6.4A4.67,4.67,0,0,1,707.2,417.05Z" transform="translate(-181.03 -136.54)"/><path class="b" d="M718.34,419.93h3.8V406.14h-3.8v-.85h5v15.49h-5Z" transform="translate(-181.03 -136.54)"/><path class="b" d="M746.63,405.29h5v.85h-3.8v13.79h3.8v.85h-5Z" transform="translate(-181.03 -136.54)"/><path class="b" d="M755.13,416.8h3.31v-8.43h-2.57v-1a8.2,8.2,0,0,0,3-.85h1.11V416.8h3V418h-7.79Z" transform="translate(-181.03 -136.54)"/><path class="b" d="M765.46,412.26c0-3.85,1.57-5.92,4.12-5.92s4.13,2.07,4.13,5.92-1.57,6-4.13,6S765.46,416.08,765.46,412.26Zm6.86,0c0-3.29-1.14-4.72-2.74-4.72s-2.73,1.43-2.73,4.72,1.13,4.79,2.73,4.79S772.32,415.56,772.32,412.26Zm-3.85-.13a1.12,1.12,0,1,1,1.11,1.21A1.11,1.11,0,0,1,768.47,412.13Z" transform="translate(-181.03 -136.54)"/><path class="b" d="M776.75,419.93h3.79V406.14h-3.79v-.85h5v15.49h-5Z" transform="translate(-181.03 -136.54)"/><path class="b" d="M744,295.29h5v.85h-3.8v13.79H749v.85h-5Z" transform="translate(-181.03 -136.54)"/><path class="b" d="M751.79,306.69l.74-1a4.58,4.58,0,0,0,3.24,1.31,2.66,2.66,0,0,0,2.9-2.61c0-1.58-1.12-2.5-2.81-2.5a4.26,4.26,0,0,0-2.34.68l-.79-.5.37-5.53h6.5v1.3h-5.18l-.31,3.38a5.06,5.06,0,0,1,2.13-.46c2.19,0,3.94,1.11,3.94,3.6a4,4,0,0,1-4.25,3.89A5.78,5.78,0,0,1,751.79,306.69Z" transform="translate(-181.03 -136.54)"/><path class="b" d="M763.34,309.93h3.8V296.14h-3.8v-.85h5v15.49h-5Z" transform="translate(-181.03 -136.54)"/><path class="b" d="M857,295.29h5v.85h-3.8v13.79H862v.85h-5Z" transform="translate(-181.03 -136.54)"/><path class="b" d="M865.17,302.73c0-4.61,2.3-6.39,4.8-6.39a4.58,4.58,0,0,1,3.21,1.22l-.83.94a3.37,3.37,0,0,0-2.29-.92c-1.87,0-3.49,1.31-3.49,5.15,0,2.83,1.08,4.36,3,4.36a2.38,2.38,0,0,0,2.41-2.52,2.19,2.19,0,0,0-2.43-2.44,4,4,0,0,0-3,1.63l-.06-1.18a4.88,4.88,0,0,1,3.33-1.56,3.27,3.27,0,0,1,3.59,3.55,3.71,3.71,0,0,1-3.84,3.69C867.06,308.26,865.17,306.42,865.17,302.73Z" transform="translate(-181.03 -136.54)"/><path class="b" d="M876.34,309.93h3.8V296.14h-3.8v-.85h5v15.49h-5Z" transform="translate(-181.03 -136.54)"/><path class="b" d="M968,295.29h5v.85h-3.8v13.79H973v.85h-5Z" transform="translate(-181.03 -136.54)"/><path class="b" d="M982.65,297.85H976v-1.3h8.32v.92c-3,3.48-3.78,6.07-4,10.57h-1.57A15.35,15.35,0,0,1,982.65,297.85Z" transform="translate(-181.03 -136.54)"/><path class="b" d="M987.34,309.93h3.8V296.14h-3.8v-.85h5v15.49h-5Z" transform="translate(-181.03 -136.54)"/><path class="b" d="M913,222.29h5v.85h-3.8v13.79H918v.85h-5Z" transform="translate(-181.03 -136.54)"/><path class="b" d="M920.81,233.64l.75-1a4.66,4.66,0,0,0,3.3,1.35c1.56,0,2.73-.81,2.73-2.08s-1.15-2.29-4.15-2.29V228.5c2.71,0,3.76-.93,3.76-2.14s-1-1.8-2.34-1.8a4.39,4.39,0,0,0-2.83,1.15l-.79-.93a5.56,5.56,0,0,1,3.67-1.44c2.16,0,3.8,1.06,3.8,2.91,0,1.39-1,2.27-2.45,2.74v.07c1.53.33,2.85,1.34,2.85,2.92,0,2-1.88,3.28-4.16,3.28A5.64,5.64,0,0,1,920.81,233.64Z" transform="translate(-181.03 -136.54)"/><path class="b" d="M932.34,236.93h3.8V223.14h-3.8v-.85h5v15.49h-5Z" transform="translate(-181.03 -136.54)"/><line class="a" x1="770.88" y1="103.46" x2="733.06" y2="149.22"/><line class="a" x1="799.42" y1="103.46" x2="828.06" y2="149.22"/><circle class="a" cx="222.15" cy="379.5" r="18"/><path class="b" d="M392.2,515.85c0-5.38,2.68-7.46,5.6-7.46a5.32,5.32,0,0,1,3.74,1.43l-1,1.09a3.93,3.93,0,0,0-2.66-1.07c-2.19,0-4.08,1.53-4.08,6,0,3.29,1.26,5.08,3.49,5.08a2.78,2.78,0,0,0,2.81-2.94,2.55,2.55,0,0,0-2.83-2.84,4.73,4.73,0,0,0-3.51,1.89l-.06-1.36a5.68,5.68,0,0,1,3.88-1.83,3.81,3.81,0,0,1,4.18,4.14,4.32,4.32,0,0,1-4.47,4.3C394.4,522.29,392.2,520.15,392.2,515.85Z" transform="translate(-181.03 -136.54)"/><path class="b" d="M405.22,520.59h3.86v-9.82h-3v-1.14a9.73,9.73,0,0,0,3.44-1h1.3v11.94h3.49V522h-9.09Z" transform="translate(-181.03 -136.54)"/><circle class="a" cx="52.06" cy="526.81" r="18"/><path class="b" d="M222.53,667.9h3.86v-9.83h-3v-1.13a9.71,9.71,0,0,0,3.44-1h1.3V667.9h3.49v1.45h-9.09Z" transform="translate(-181.03 -136.54)"/><path class="b" d="M234.27,667.77l.86-1.15a5.31,5.31,0,0,0,3.78,1.53,3.11,3.11,0,0,0,3.38-3c0-1.85-1.31-2.92-3.28-2.92a5,5,0,0,0-2.73.8l-.92-.59.44-6.45h7.58v1.51h-6l-.36,3.95a5.7,5.7,0,0,1,2.48-.55c2.56,0,4.6,1.31,4.6,4.2s-2.39,4.54-5,4.54A6.68,6.68,0,0,1,234.27,667.77Z" transform="translate(-181.03 -136.54)"/><circle class="a" cx="22.06" cy="603.81" r="18"/><path class="b" d="M198,744.77l.86-1.15a5.31,5.31,0,0,0,3.78,1.53,3.11,3.11,0,0,0,3.38-3c0-1.85-1.3-2.92-3.28-2.92a5,5,0,0,0-2.73.8l-.92-.59.44-6.45h7.58v1.51H201l-.36,3.95a5.7,5.7,0,0,1,2.48-.55c2.56,0,4.6,1.31,4.6,4.2s-2.39,4.54-4.95,4.54A6.7,6.7,0,0,1,198,744.77Z" transform="translate(-181.03 -136.54)"/><circle class="a" cx="77.06" cy="603.81" r="18"/><path class="b" d="M253.83,744.9h3.86v-9.83h-3v-1.13a9.71,9.71,0,0,0,3.44-1h1.3V744.9h3.49v1.45h-9.09Z" transform="translate(-181.03 -136.54)"/><circle class="a" cx="111.15" cy="453.5" r="18"/><path class="b" d="M287.31,586.82c0-.73.06-1.63.1-2.37h-.1c-.44.65-.93,1.3-1.37,1.95l-3.61,4.54H291v1.41H280.4v-1.16l6.68-8.54h1.86V596h-1.63Z" transform="translate(-181.03 -136.54)"/><path class="b" d="M293.61,592.62c0-1.85,1.43-2.9,2.87-3.57V589a3.75,3.75,0,0,1-2-3.12c0-2.06,1.74-3.45,4.13-3.45,2.63,0,4.16,1.49,4.16,3.57a4.18,4.18,0,0,1-2,3.19v.09c1.47.73,2.63,1.57,2.63,3.48s-1.74,3.57-4.81,3.57S293.61,594.74,293.61,592.62Zm8.06,0c0-1.85-1.87-2.33-4.2-3.11-1.3.7-2.29,1.56-2.29,2.9s1.33,2.54,3.38,2.54S301.67,594.05,301.67,592.66Zm-.44-6.61a2.39,2.39,0,0,0-2.69-2.36,2.22,2.22,0,0,0-2.5,2.15c0,1.59,1.54,2.26,3.53,2.89A3.39,3.39,0,0,0,301.23,586.05Z" transform="translate(-181.03 -136.54)"/><line class="a" x1="208.17" y1="390.84" x2="122.65" y2="440"/><line class="a" x1="236.12" y1="390.84" x2="321.65" y2="440"/><circle class="a" cx="333.06" cy="453.81" r="18"/><path class="b" d="M502.67,594.77l.86-1.15a5.31,5.31,0,0,0,3.78,1.53,3.11,3.11,0,0,0,3.38-3c0-1.85-1.3-2.92-3.28-2.92a5.05,5.05,0,0,0-2.73.79l-.92-.58.44-6.45h7.58v1.51h-6l-.35,3.95a5.62,5.62,0,0,1,2.47-.55c2.56,0,4.6,1.31,4.6,4.2s-2.39,4.54-5,4.54A6.7,6.7,0,0,1,502.67,594.77Z" transform="translate(-181.03 -136.54)"/><path class="b" d="M515.75,595.19l1-1.09a4,4,0,0,0,2.67,1c2.16,0,4.07-1.53,4.07-6,0-3.3-1.28-5.07-3.48-5.07a2.77,2.77,0,0,0-2.84,2.92,2.57,2.57,0,0,0,2.86,2.84,4.72,4.72,0,0,0,3.49-1.89l.06,1.36a5.52,5.52,0,0,1-3.89,1.83A3.79,3.79,0,0,1,515.5,587a4.31,4.31,0,0,1,4.45-4.3c2.92,0,5.14,2.14,5.14,6.45,0,5.37-2.71,7.45-5.6,7.45A5.4,5.4,0,0,1,515.75,595.19Z" transform="translate(-181.03 -136.54)"/><line class="a" x1="45" y1="543.37" x2="28.19" y2="586.88"/><path class="b" d="M330.5,740.5a18,18,0,1,1-18-18A18,18,0,0,1,330.5,740.5Zm-25.88,6h1.83c.21-5.25,1.07-8.27,4.62-12.32V733.1h-9.7v1.52h7.71A17.9,17.9,0,0,0,304.62,746.5Zm12.6,0h1.83c.21-5.25,1.07-8.27,4.62-12.32V733.1H314v1.52h7.71A17.9,17.9,0,0,0,317.22,746.5Z" transform="translate(-181.03 -136.54)"/><line class="a" x1="154.41" y1="543.52" x2="137.6" y2="587.03"/><line class="a" x1="59.29" y1="543.37" x2="70.93" y2="586.88"/><circle class="a" cx="161.06" cy="526.81" r="18"/><path class="b" d="M331.53,667.9h3.86v-9.83h-3v-1.13a9.71,9.71,0,0,0,3.44-1h1.3V667.9h3.49v1.45h-9.09Z" transform="translate(-181.03 -136.54)"/><path class="b" d="M343.75,668.19l1-1.09a4,4,0,0,0,2.67,1c2.16,0,4.07-1.53,4.07-6,0-3.3-1.28-5.07-3.48-5.07a2.77,2.77,0,0,0-2.84,2.92,2.57,2.57,0,0,0,2.86,2.84,4.72,4.72,0,0,0,3.49-1.89l.06,1.36a5.52,5.52,0,0,1-3.89,1.83A3.79,3.79,0,0,1,343.5,660a4.31,4.31,0,0,1,4.45-4.3c2.92,0,5.14,2.14,5.14,6.45,0,5.37-2.71,7.45-5.6,7.45A5.4,5.4,0,0,1,343.75,668.19Z" transform="translate(-181.03 -136.54)"/><line class="a" x1="96.88" y1="464.46" x2="59.06" y2="510.22"/><line class="a" x1="125.42" y1="464.46" x2="154.06" y2="510.22"/><circle class="a" cx="274.06" cy="526.81" r="18"/><path class="b" d="M444.53,667.9h3.86v-9.83h-3v-1.13a9.71,9.71,0,0,0,3.44-1h1.3V667.9h3.49v1.45h-9.09Z" transform="translate(-181.03 -136.54)"/><path class="b" d="M457.13,667.9H461v-9.83h-3v-1.13a9.71,9.71,0,0,0,3.44-1h1.3V667.9h3.49v1.45h-9.09Z" transform="translate(-181.03 -136.54)"/><circle class="a" cx="383.06" cy="526.81" r="18"/><path class="b" d="M553,668.32c4.54-4,7-6.36,7-8.59,0-1.53-.93-2.6-2.9-2.6a4.61,4.61,0,0,0-3.21,1.59l-1-1a6,6,0,0,1,4.43-2c2.69,0,4.37,1.57,4.37,3.95s-2.52,5-6.16,8.31c.84-.06,1.7-.1,2.5-.1h4.39v1.49H553Z" transform="translate(-181.03 -136.54)"/><path class="b" d="M565.71,663.15c0-5.37,2.68-7.45,5.6-7.45a5.32,5.32,0,0,1,3.74,1.43l-1,1.09a3.93,3.93,0,0,0-2.66-1.07c-2.19,0-4.08,1.53-4.08,6,0,3.3,1.26,5.08,3.49,5.08a2.78,2.78,0,0,0,2.81-2.94,2.54,2.54,0,0,0-2.83-2.83,4.73,4.73,0,0,0-3.51,1.89l-.06-1.36a5.64,5.64,0,0,1,3.88-1.83c2.48,0,4.18,1.38,4.18,4.13a4.32,4.32,0,0,1-4.47,4.31C567.91,669.6,565.71,667.46,565.71,663.15Z" transform="translate(-181.03 -136.54)"/><path class="b" d="M348,514.29h5v.85h-3.8v13.79H353v.85h-5Z" transform="translate(-181.03 -136.54)"/><path class="b" d="M356.53,525.8h3.31v-8.43h-2.57v-1a8.2,8.2,0,0,0,3-.85h1.11V525.8h3V527h-7.79Z" transform="translate(-181.03 -136.54)"/><path class="b" d="M367.34,528.93h3.8V515.14h-3.8v-.85h5v15.49h-5Z" transform="translate(-181.03 -136.54)"/><path class="b" d="M240,583.29h5v.85h-3.8v13.79H245v.85h-5Z" transform="translate(-181.03 -136.54)"/><path class="b" d="M248.09,595.16c3.89-3.44,6-5.46,6-7.37,0-1.31-.79-2.23-2.49-2.23a3.94,3.94,0,0,0-2.75,1.37l-.87-.85a5.14,5.14,0,0,1,3.8-1.74c2.31,0,3.75,1.35,3.75,3.38s-2.16,4.31-5.28,7.13c.72-.05,1.46-.09,2.15-.09h3.76V596h-8.09Z" transform="translate(-181.03 -136.54)"/><path class="b" d="M259.34,597.93h3.8V584.14h-3.8v-.85h5v15.49h-5Z" transform="translate(-181.03 -136.54)"/><path class="b" d="M183,656.29h5v.85h-3.8v13.79H188v.85h-5Z" transform="translate(-181.03 -136.54)"/><path class="b" d="M196.41,661.14c0-.63.05-1.41.09-2h-.09c-.38.56-.8,1.12-1.17,1.68l-3.1,3.89h7.45v1.2h-9.11v-1l5.73-7.33h1.6V669h-1.4Z" transform="translate(-181.03 -136.54)"/><path class="b" d="M202.34,670.93h3.8V657.14h-3.8v-.85h5v15.49h-5Z" transform="translate(-181.03 -136.54)"/><path class="b" d="M191,766.29h5v.85h-3.8v13.79H196v.85h-5Z" transform="translate(-181.03 -136.54)"/><path class="b" d="M199,776.11c0-1.59,1.23-2.49,2.47-3.07V773a3.21,3.21,0,0,1-1.74-2.68c0-1.76,1.49-2.95,3.54-2.95,2.25,0,3.57,1.28,3.57,3.06a3.6,3.6,0,0,1-1.75,2.73v.08c1.26.63,2.25,1.35,2.25,3s-1.49,3.06-4.12,3.06S199,777.92,199,776.11Zm6.92,0c0-1.58-1.6-2-3.6-2.66-1.12.59-2,1.33-2,2.48s1.14,2.18,2.9,2.18S205.92,777.33,205.92,776.14Zm-.38-5.67a2,2,0,0,0-2.3-2,1.91,1.91,0,0,0-2.15,1.84c0,1.37,1.32,1.94,3,2.48A2.91,2.91,0,0,0,205.54,770.47Z" transform="translate(-181.03 -136.54)"/><path class="b" d="M210.34,780.93h3.8V767.14h-3.8v-.85h5v15.49h-5Z" transform="translate(-181.03 -136.54)"/><path class="b" d="M247,766.29h5v.85h-3.8v13.79H252v.85h-5Z" transform="translate(-181.03 -136.54)"/><path class="b" d="M255.2,778.05l.83-.94a3.41,3.41,0,0,0,2.29.9c1.85,0,3.49-1.31,3.49-5.15,0-2.82-1.1-4.33-3-4.33a2.37,2.37,0,0,0-2.43,2.5,2.2,2.2,0,0,0,2.45,2.43,4,4,0,0,0,3-1.62l.05,1.17a4.75,4.75,0,0,1-3.33,1.57A3.25,3.25,0,0,1,255,771a3.69,3.69,0,0,1,3.81-3.69c2.51,0,4.42,1.83,4.42,5.52,0,4.61-2.33,6.4-4.81,6.4A4.67,4.67,0,0,1,255.2,778.05Z" transform="translate(-181.03 -136.54)"/><path class="b" d="M266.34,780.93h3.8V767.14h-3.8v-.85h5v15.49h-5Z" transform="translate(-181.03 -136.54)"/><path class="b" d="M294.63,766.29h5v.85h-3.8v13.79h3.8v.85h-5Z" transform="translate(-181.03 -136.54)"/><path class="b" d="M303.13,777.8h3.31v-8.43h-2.57v-1a8.2,8.2,0,0,0,2.95-.85h1.11V777.8h3V779h-7.79Z" transform="translate(-181.03 -136.54)"/><path class="b" d="M313.46,773.26c0-3.85,1.56-5.92,4.12-5.92s4.13,2.07,4.13,5.92-1.57,6-4.13,6S313.46,777.08,313.46,773.26Zm6.86,0c0-3.29-1.14-4.72-2.74-4.72s-2.73,1.43-2.73,4.72,1.13,4.79,2.73,4.79S320.32,776.56,320.32,773.26Zm-3.85-.13a1.12,1.12,0,1,1,1.11,1.21A1.11,1.11,0,0,1,316.47,773.13Z" transform="translate(-181.03 -136.54)"/><path class="b" d="M324.74,780.93h3.8V767.14h-3.8v-.85h5v15.49h-5Z" transform="translate(-181.03 -136.54)"/><path class="b" d="M292,656.29h5v.85h-3.8v13.79H297v.85h-5Z" transform="translate(-181.03 -136.54)"/><path class="b" d="M299.79,667.69l.74-1a4.58,4.58,0,0,0,3.24,1.31,2.66,2.66,0,0,0,2.9-2.61c0-1.58-1.12-2.5-2.81-2.5a4.26,4.26,0,0,0-2.34.68l-.79-.5.37-5.53h6.5v1.3h-5.18l-.31,3.38a5.06,5.06,0,0,1,2.13-.46c2.19,0,3.94,1.11,3.94,3.6a4,4,0,0,1-4.25,3.89A5.78,5.78,0,0,1,299.79,667.69Z" transform="translate(-181.03 -136.54)"/><path class="b" d="M311.34,670.93h3.8V657.14h-3.8v-.85h5v15.49h-5Z" transform="translate(-181.03 -136.54)"/><path class="b" d="M405,656.29h5v.85h-3.8v13.79H410v.85h-5Z" transform="translate(-181.03 -136.54)"/><path class="b" d="M413.17,663.73c0-4.61,2.3-6.39,4.8-6.39a4.58,4.58,0,0,1,3.21,1.22l-.83.94a3.37,3.37,0,0,0-2.29-.92c-1.87,0-3.49,1.31-3.49,5.15,0,2.83,1.08,4.36,3,4.36a2.38,2.38,0,0,0,2.41-2.52,2.19,2.19,0,0,0-2.43-2.44,4,4,0,0,0-3,1.62l-.06-1.17a4.88,4.88,0,0,1,3.33-1.56,3.27,3.27,0,0,1,3.59,3.55,3.71,3.71,0,0,1-3.84,3.69C415.06,669.26,413.17,667.42,413.17,663.73Z" transform="translate(-181.03 -136.54)"/><path class="b" d="M424.34,670.93h3.8V657.14h-3.8v-.85h5v15.49h-5Z" transform="translate(-181.03 -136.54)"/><path class="b" d="M516,656.29h5v.85h-3.8v13.79H521v.85h-5Z" transform="translate(-181.03 -136.54)"/><path class="b" d="M530.65,658.85H524v-1.3h8.32v.92c-3,3.48-3.78,6.07-4,10.57h-1.57A15.35,15.35,0,0,1,530.65,658.85Z" transform="translate(-181.03 -136.54)"/><path class="b" d="M535.34,670.93h3.8V657.14h-3.8v-.85h5v15.49h-5Z" transform="translate(-181.03 -136.54)"/><path class="b" d="M461,583.29h5v.85h-3.8v13.79H466v.85h-5Z" transform="translate(-181.03 -136.54)"/><path class="b" d="M468.81,594.64l.75-1a4.66,4.66,0,0,0,3.3,1.35c1.56,0,2.73-.81,2.73-2.08s-1.15-2.29-4.15-2.29V589.5c2.71,0,3.76-.93,3.76-2.14s-1-1.8-2.34-1.8a4.39,4.39,0,0,0-2.83,1.15l-.79-.93a5.56,5.56,0,0,1,3.67-1.44c2.16,0,3.8,1.06,3.8,2.91,0,1.39-1,2.27-2.45,2.74v.07c1.53.33,2.85,1.34,2.85,2.92,0,2-1.88,3.28-4.16,3.28A5.64,5.64,0,0,1,468.81,594.64Z" transform="translate(-181.03 -136.54)"/><path class="b" d="M480.34,597.93h3.8V584.14h-3.8v-.85h5v15.49h-5Z" transform="translate(-181.03 -136.54)"/><line class="a" x1="318.88" y1="464.46" x2="281.06" y2="510.22"/><line class="a" x1="347.42" y1="464.46" x2="376.06" y2="510.22"/><circle class="a" cx="673.15" cy="379.5" r="18"/><path class="b" d="M842.76,520.47l.86-1.16a5.31,5.31,0,0,0,3.78,1.53,3.1,3.1,0,0,0,3.38-3c0-1.85-1.3-2.92-3.28-2.92a5,5,0,0,0-2.73.8l-.92-.59.44-6.44h7.58v1.51h-6l-.36,3.94a5.84,5.84,0,0,1,2.48-.54c2.56,0,4.6,1.3,4.6,4.2s-2.39,4.53-4.95,4.53A6.74,6.74,0,0,1,842.76,520.47Z" transform="translate(-181.03 -136.54)"/><path class="b" d="M855.84,520.89l1-1.1a4,4,0,0,0,2.67,1.05c2.16,0,4.07-1.53,4.07-6,0-3.3-1.28-5.06-3.48-5.06a2.77,2.77,0,0,0-2.84,2.92,2.57,2.57,0,0,0,2.86,2.83,4.69,4.69,0,0,0,3.49-1.89l.06,1.37a5.55,5.55,0,0,1-3.89,1.82,3.79,3.79,0,0,1-4.15-4.13,4.32,4.32,0,0,1,4.45-4.31c2.92,0,5.14,2.14,5.14,6.45,0,5.37-2.71,7.45-5.6,7.45A5.44,5.44,0,0,1,855.84,520.89Z" transform="translate(-181.03 -136.54)"/><circle class="a" cx="503.06" cy="526.81" r="18"/><path class="b" d="M673.53,667.9h3.86v-9.83h-3v-1.13a9.71,9.71,0,0,0,3.44-1h1.3V667.9h3.49v1.45h-9.09Z" transform="translate(-181.03 -136.54)"/><path class="b" d="M685.27,667.77l.86-1.15a5.31,5.31,0,0,0,3.78,1.53,3.11,3.11,0,0,0,3.38-3c0-1.85-1.31-2.92-3.28-2.92a5,5,0,0,0-2.73.8l-.92-.59.44-6.45h7.58v1.51h-6l-.36,3.95a5.7,5.7,0,0,1,2.48-.55c2.56,0,4.6,1.31,4.6,4.2s-2.39,4.54-5,4.54A6.67,6.67,0,0,1,685.27,667.77Z" transform="translate(-181.03 -136.54)"/><circle class="a" cx="473.06" cy="603.81" r="18"/><path class="b" d="M649,744.77l.86-1.15a5.31,5.31,0,0,0,3.78,1.53,3.11,3.11,0,0,0,3.38-3c0-1.85-1.31-2.92-3.28-2.92a5,5,0,0,0-2.73.8l-.92-.59.44-6.45h7.58v1.51H652l-.36,3.95a5.7,5.7,0,0,1,2.48-.55c2.56,0,4.6,1.31,4.6,4.2s-2.39,4.54-5,4.54A6.69,6.69,0,0,1,649,744.77Z" transform="translate(-181.03 -136.54)"/><path class="b" d="M727.09,740.35a18,18,0,1,1-18-18A18,18,0,0,1,727.09,740.35Zm-23.86,6.25a4.32,4.32,0,0,0,4.47-4.31c0-2.75-1.7-4.13-4.18-4.13a5.64,5.64,0,0,0-3.88,1.83l.06,1.36a4.73,4.73,0,0,1,3.51-1.89,2.54,2.54,0,0,1,2.83,2.83,2.78,2.78,0,0,1-2.81,2.94c-2.23,0-3.48-1.78-3.48-5.08,0-4.47,1.88-6,4.07-6a3.93,3.93,0,0,1,2.66,1.07l1-1.09a5.32,5.32,0,0,0-3.74-1.43c-2.92,0-5.6,2.08-5.6,7.45C698.11,744.46,700.31,746.6,703.23,746.6Zm7.9-.25h9.09V744.9h-3.49V733h-1.3a9.71,9.71,0,0,1-3.44,1v1.13h3v9.83h-3.86Z" transform="translate(-181.03 -136.54)"/><circle class="a" cx="562.15" cy="453.5" r="18"/><path class="b" d="M738.31,586.82c0-.73.06-1.63.1-2.37h-.1c-.44.65-.93,1.3-1.37,1.95l-3.61,4.54H742v1.41H731.4v-1.16l6.68-8.54H740V596h-1.64Z" transform="translate(-181.03 -136.54)"/><path class="b" d="M744.61,592.62c0-1.85,1.43-2.9,2.87-3.57V589a3.75,3.75,0,0,1-2-3.12c0-2.06,1.74-3.45,4.13-3.45,2.63,0,4.16,1.49,4.16,3.57a4.19,4.19,0,0,1-2,3.19v.09c1.46.73,2.62,1.57,2.62,3.48s-1.74,3.57-4.81,3.57S744.61,594.74,744.61,592.62Zm8.06,0c0-1.85-1.87-2.33-4.2-3.11-1.3.7-2.29,1.56-2.29,2.9s1.33,2.54,3.38,2.54S752.67,594.05,752.67,592.66Zm-.44-6.61a2.38,2.38,0,0,0-2.69-2.36,2.22,2.22,0,0,0-2.5,2.15c0,1.59,1.54,2.26,3.53,2.89A3.39,3.39,0,0,0,752.23,586.05Z" transform="translate(-181.03 -136.54)"/><line class="a" x1="659.17" y1="390.84" x2="573.65" y2="440"/><line class="a" x1="687.12" y1="390.84" x2="772.65" y2="440"/><circle class="a" cx="784.06" cy="453.81" r="18"/><path class="b" d="M954,595.32c4.54-4,7-6.36,7-8.59,0-1.53-.93-2.6-2.9-2.6a4.61,4.61,0,0,0-3.21,1.59l-1-1a6,6,0,0,1,4.43-2c2.69,0,4.37,1.57,4.37,3.95s-2.52,5-6.16,8.31c.84-.06,1.7-.1,2.5-.1h4.39v1.49H954Z" transform="translate(-181.03 -136.54)"/><path class="b" d="M966.71,590.15c0-5.37,2.68-7.45,5.6-7.45a5.32,5.32,0,0,1,3.74,1.43l-1,1.09a3.93,3.93,0,0,0-2.66-1.07c-2.19,0-4.08,1.53-4.08,6,0,3.3,1.26,5.08,3.49,5.08a2.78,2.78,0,0,0,2.81-2.94,2.54,2.54,0,0,0-2.83-2.83,4.69,4.69,0,0,0-3.51,1.89l-.06-1.37a5.67,5.67,0,0,1,3.88-1.82c2.48,0,4.18,1.38,4.18,4.13a4.32,4.32,0,0,1-4.47,4.31C968.91,596.6,966.71,594.46,966.71,590.15Z" transform="translate(-181.03 -136.54)"/><line class="a" x1="496" y1="543.37" x2="479.19" y2="586.88"/><path class="b" d="M781.5,740.5a18,18,0,1,1-18-18A18,18,0,0,1,781.5,740.5Zm-25.88,6h1.83c.21-5.25,1.07-8.27,4.62-12.32V733.1h-9.7v1.52h7.71A17.9,17.9,0,0,0,755.62,746.5Zm12.6,0h1.83c.21-5.25,1.07-8.27,4.62-12.32V733.1H765v1.52h7.71A17.9,17.9,0,0,0,768.22,746.5Z" transform="translate(-181.03 -136.54)"/><line class="a" x1="605.41" y1="543.52" x2="588.6" y2="587.03"/><line class="a" x1="510.29" y1="543.37" x2="521.93" y2="586.88"/><circle class="a" cx="612.06" cy="526.81" r="18"/><path class="b" d="M782.53,667.9h3.86v-9.83h-3v-1.13a9.71,9.71,0,0,0,3.44-1h1.3V667.9h3.49v1.45h-9.09Z" transform="translate(-181.03 -136.54)"/><path class="b" d="M794.75,668.19l1-1.09a4,4,0,0,0,2.67,1c2.16,0,4.07-1.53,4.07-6,0-3.3-1.28-5.07-3.48-5.07a2.77,2.77,0,0,0-2.84,2.92,2.57,2.57,0,0,0,2.86,2.84,4.72,4.72,0,0,0,3.49-1.89l.06,1.36a5.52,5.52,0,0,1-3.89,1.83A3.79,3.79,0,0,1,794.5,660a4.31,4.31,0,0,1,4.45-4.3c2.92,0,5.14,2.14,5.14,6.45,0,5.37-2.71,7.45-5.6,7.45A5.4,5.4,0,0,1,794.75,668.19Z" transform="translate(-181.03 -136.54)"/><line class="a" x1="547.88" y1="464.46" x2="510.06" y2="510.22"/><line class="a" x1="576.42" y1="464.46" x2="605.06" y2="510.22"/><circle class="a" cx="725.06" cy="526.81" r="18"/><path class="b" d="M895.53,667.9h3.86v-9.83h-3v-1.13a9.71,9.71,0,0,0,3.44-1h1.3V667.9h3.49v1.45h-9.09Z" transform="translate(-181.03 -136.54)"/><path class="b" d="M908.13,667.9H912v-9.83h-3v-1.13a9.71,9.71,0,0,0,3.44-1h1.3V667.9h3.49v1.45h-9.09Z" transform="translate(-181.03 -136.54)"/><circle class="a" cx="834.06" cy="526.81" r="18"/><path class="b" d="M1010.83,667.9h3.86v-9.83h-3v-1.13a9.71,9.71,0,0,0,3.44-1h1.3V667.9h3.49v1.45h-9.09Z" transform="translate(-181.03 -136.54)"/><path class="b" d="M799,514.29h5v.85h-3.8v13.79H804v.85h-5Z" transform="translate(-181.03 -136.54)"/><path class="b" d="M807.53,525.8h3.31v-8.43h-2.57v-1a8.2,8.2,0,0,0,3-.85h1.11V525.8h3V527h-7.79Z" transform="translate(-181.03 -136.54)"/><path class="b" d="M818.34,528.93h3.8V515.14h-3.8v-.85h5v15.49h-5Z" transform="translate(-181.03 -136.54)"/><path class="b" d="M691,583.29h5v.85h-3.8v13.79H696v.85h-5Z" transform="translate(-181.03 -136.54)"/><path class="b" d="M699.09,595.16c3.89-3.44,6-5.46,6-7.37,0-1.31-.79-2.23-2.49-2.23a3.94,3.94,0,0,0-2.75,1.37l-.87-.85a5.14,5.14,0,0,1,3.8-1.74c2.31,0,3.75,1.35,3.75,3.38s-2.16,4.31-5.28,7.13c.72-.05,1.46-.09,2.15-.09h3.76V596h-8.09Z" transform="translate(-181.03 -136.54)"/><path class="b" d="M710.34,597.93h3.8V584.14h-3.8v-.85h5v15.49h-5Z" transform="translate(-181.03 -136.54)"/><path class="b" d="M634,656.29h5v.85h-3.8v13.79H639v.85h-5Z" transform="translate(-181.03 -136.54)"/><path class="b" d="M647.41,661.14c0-.63.05-1.41.09-2h-.09c-.38.56-.8,1.12-1.17,1.68l-3.1,3.89h7.45v1.2h-9.11v-1l5.73-7.33h1.6V669h-1.4Z" transform="translate(-181.03 -136.54)"/><path class="b" d="M653.34,670.93h3.8V657.14h-3.8v-.85h5v15.49h-5Z" transform="translate(-181.03 -136.54)"/><path class="b" d="M642,766.29h5v.85h-3.8v13.79H647v.85h-5Z" transform="translate(-181.03 -136.54)"/><path class="b" d="M650,776.11c0-1.59,1.23-2.49,2.47-3.07V773a3.21,3.21,0,0,1-1.74-2.68c0-1.76,1.49-2.95,3.54-2.95,2.25,0,3.57,1.28,3.57,3.06a3.6,3.6,0,0,1-1.75,2.73v.08c1.26.63,2.25,1.35,2.25,3s-1.49,3.06-4.12,3.06S650,777.92,650,776.11Zm6.92,0c0-1.58-1.6-2-3.6-2.66-1.12.59-2,1.33-2,2.48s1.13,2.18,2.89,2.18S656.92,777.33,656.92,776.14Zm-.38-5.67a2,2,0,0,0-2.3-2,1.91,1.91,0,0,0-2.15,1.84c0,1.37,1.32,1.94,3,2.48A2.91,2.91,0,0,0,656.54,770.47Z" transform="translate(-181.03 -136.54)"/><path class="b" d="M661.34,780.93h3.8V767.14h-3.8v-.85h5v15.49h-5Z" transform="translate(-181.03 -136.54)"/><path class="b" d="M698,766.29h5v.85h-3.8v13.79H703v.85h-5Z" transform="translate(-181.03 -136.54)"/><path class="b" d="M706.2,778.05l.83-.94a3.41,3.41,0,0,0,2.29.9c1.85,0,3.49-1.31,3.49-5.15,0-2.82-1.1-4.33-3-4.33a2.37,2.37,0,0,0-2.43,2.5,2.2,2.2,0,0,0,2.45,2.43,4,4,0,0,0,3-1.62l0,1.17a4.75,4.75,0,0,1-3.33,1.57A3.25,3.25,0,0,1,706,771a3.69,3.69,0,0,1,3.81-3.69c2.51,0,4.42,1.83,4.42,5.52,0,4.61-2.33,6.4-4.81,6.4A4.67,4.67,0,0,1,706.2,778.05Z" transform="translate(-181.03 -136.54)"/><path class="b" d="M717.34,780.93h3.8V767.14h-3.8v-.85h5v15.49h-5Z" transform="translate(-181.03 -136.54)"/><path class="b" d="M745.63,766.29h5v.85h-3.8v13.79h3.8v.85h-5Z" transform="translate(-181.03 -136.54)"/><path class="b" d="M754.13,777.8h3.31v-8.43h-2.57v-1a8.2,8.2,0,0,0,3-.85h1.11V777.8h3V779h-7.79Z" transform="translate(-181.03 -136.54)"/><path class="b" d="M764.46,773.26c0-3.85,1.57-5.92,4.12-5.92s4.13,2.07,4.13,5.92-1.57,6-4.13,6S764.46,777.08,764.46,773.26Zm6.86,0c0-3.29-1.14-4.72-2.74-4.72s-2.73,1.43-2.73,4.72,1.13,4.79,2.73,4.79S771.32,776.56,771.32,773.26Zm-3.85-.13a1.12,1.12,0,1,1,1.11,1.21A1.11,1.11,0,0,1,767.47,773.13Z" transform="translate(-181.03 -136.54)"/><path class="b" d="M775.75,780.93h3.79V767.14h-3.79v-.85h5v15.49h-5Z" transform="translate(-181.03 -136.54)"/><path class="b" d="M743,656.29h5v.85h-3.8v13.79H748v.85h-5Z" transform="translate(-181.03 -136.54)"/><path class="b" d="M750.79,667.69l.74-1a4.58,4.58,0,0,0,3.24,1.31,2.66,2.66,0,0,0,2.9-2.61c0-1.58-1.12-2.5-2.81-2.5a4.26,4.26,0,0,0-2.34.68l-.79-.5.37-5.53h6.5v1.3h-5.18l-.31,3.38a5.06,5.06,0,0,1,2.13-.46c2.19,0,3.94,1.11,3.94,3.6a4,4,0,0,1-4.25,3.89A5.78,5.78,0,0,1,750.79,667.69Z" transform="translate(-181.03 -136.54)"/><path class="b" d="M762.34,670.93h3.8V657.14h-3.8v-.85h5v15.49h-5Z" transform="translate(-181.03 -136.54)"/><path class="b" d="M856,656.29h5v.85h-3.8v13.79H861v.85h-5Z" transform="translate(-181.03 -136.54)"/><path class="b" d="M864.17,663.73c0-4.61,2.3-6.39,4.8-6.39a4.58,4.58,0,0,1,3.21,1.22l-.83.94a3.37,3.37,0,0,0-2.29-.92c-1.87,0-3.49,1.31-3.49,5.15,0,2.83,1.08,4.36,3,4.36a2.38,2.38,0,0,0,2.41-2.52,2.19,2.19,0,0,0-2.43-2.44,4,4,0,0,0-3,1.62l-.06-1.17a4.88,4.88,0,0,1,3.33-1.56,3.27,3.27,0,0,1,3.59,3.55,3.71,3.71,0,0,1-3.84,3.69C866.06,669.26,864.17,667.42,864.17,663.73Z" transform="translate(-181.03 -136.54)"/><path class="b" d="M875.34,670.93h3.8V657.14h-3.8v-.85h5v15.49h-5Z" transform="translate(-181.03 -136.54)"/><path class="b" d="M967,656.29h5v.85h-3.8v13.79H972v.85h-5Z" transform="translate(-181.03 -136.54)"/><path class="b" d="M981.65,658.85H975v-1.3h8.32v.92c-3,3.48-3.78,6.07-4,10.57h-1.57A15.35,15.35,0,0,1,981.65,658.85Z" transform="translate(-181.03 -136.54)"/><path class="b" d="M986.34,670.93h3.8V657.14h-3.8v-.85h5v15.49h-5Z" transform="translate(-181.03 -136.54)"/><path class="b" d="M912,583.29h5v.85h-3.8v13.79H917v.85h-5Z" transform="translate(-181.03 -136.54)"/><path class="b" d="M919.81,594.64l.75-1a4.66,4.66,0,0,0,3.3,1.35c1.56,0,2.73-.81,2.73-2.08s-1.15-2.29-4.15-2.29V589.5c2.71,0,3.76-.93,3.76-2.14s-1-1.8-2.34-1.8a4.39,4.39,0,0,0-2.83,1.15l-.79-.93a5.56,5.56,0,0,1,3.67-1.44c2.16,0,3.8,1.06,3.8,2.91,0,1.39-1,2.27-2.45,2.74v.07c1.53.33,2.85,1.34,2.85,2.92,0,2-1.88,3.28-4.16,3.28A5.64,5.64,0,0,1,919.81,594.64Z" transform="translate(-181.03 -136.54)"/><path class="b" d="M931.34,597.93h3.8V584.14h-3.8v-.85h5v15.49h-5Z" transform="translate(-181.03 -136.54)"/><line class="a" x1="769.88" y1="464.46" x2="732.06" y2="510.22"/><line class="a" x1="798.42" y1="464.46" x2="827.06" y2="510.22"/><circle class="a" cx="222.15" cy="731.5" r="18"/><path class="b" d="M398.31,864.82c0-.73.06-1.63.1-2.37h-.1c-.44.65-.93,1.3-1.37,1.95l-3.61,4.54H402v1.4H391.4v-1.15l6.68-8.55h1.86V874h-1.63Z" transform="translate(-181.03 -136.54)"/><path class="b" d="M404.61,870.62c0-1.85,1.43-2.9,2.87-3.57V867a3.75,3.75,0,0,1-2-3.12c0-2.06,1.74-3.45,4.13-3.45,2.63,0,4.16,1.49,4.16,3.57a4.18,4.18,0,0,1-2,3.19v.09c1.47.73,2.63,1.57,2.63,3.48s-1.74,3.57-4.81,3.57S404.61,872.74,404.61,870.62Zm8.06,0c0-1.85-1.87-2.33-4.2-3.11-1.3.7-2.29,1.56-2.29,2.9s1.33,2.54,3.38,2.54S412.67,872.05,412.67,870.66Zm-.44-6.61a2.39,2.39,0,0,0-2.69-2.36,2.22,2.22,0,0,0-2.5,2.15c0,1.59,1.54,2.26,3.53,2.89A3.39,3.39,0,0,0,412.23,864.05Z" transform="translate(-181.03 -136.54)"/><circle class="a" cx="52.06" cy="878.81" r="18"/><path class="b" d="M222.53,1019.9h3.86v-9.83h-3v-1.13a9.71,9.71,0,0,0,3.44-1h1.3v11.95h3.49v1.45h-9.09Z" transform="translate(-181.03 -136.54)"/><path class="b" d="M234.27,1019.77l.86-1.15a5.31,5.31,0,0,0,3.78,1.53,3.11,3.11,0,0,0,3.38-3c0-1.85-1.31-2.92-3.28-2.92a5,5,0,0,0-2.73.8l-.92-.59.44-6.45h7.58v1.51h-6l-.36,3.95a5.7,5.7,0,0,1,2.48-.55c2.56,0,4.6,1.31,4.6,4.2s-2.39,4.54-5,4.54A6.68,6.68,0,0,1,234.27,1019.77Z" transform="translate(-181.03 -136.54)"/><path class="b" d="M221.09,1092.35a18,18,0,1,1-18-18A18,18,0,0,1,221.09,1092.35Zm-24.59,6.25c2.56,0,4.95-1.64,4.95-4.54s-2-4.2-4.6-4.2a5.62,5.62,0,0,0-2.47.55l.35-4h6.05V1085H193.2l-.44,6.45.92.59a5,5,0,0,1,2.73-.8c2,0,3.28,1.07,3.28,2.92a3.11,3.11,0,0,1-3.38,3,5.31,5.31,0,0,1-3.78-1.53l-.86,1.15A6.7,6.7,0,0,0,196.5,1098.6Zm12,0c2.89,0,5.6-2.08,5.6-7.45,0-4.31-2.22-6.45-5.14-6.45a4.31,4.31,0,0,0-4.45,4.3,3.79,3.79,0,0,0,4.15,4.14,5.52,5.52,0,0,0,3.89-1.83l-.06-1.36a4.72,4.72,0,0,1-3.49,1.89,2.57,2.57,0,0,1-2.86-2.84,2.77,2.77,0,0,1,2.84-2.92c2.2,0,3.48,1.77,3.48,5.07,0,4.47-1.91,6-4.07,6a4,4,0,0,1-2.67-1.05l-1,1.09A5.4,5.4,0,0,0,208.49,1098.6Z" transform="translate(-181.03 -136.54)"/><path class="b" d="M276.09,1092.35a18,18,0,1,1-18-18A18,18,0,0,1,276.09,1092.35Zm-23.86,6.25a4.32,4.32,0,0,0,4.47-4.31c0-2.75-1.7-4.13-4.18-4.13a5.64,5.64,0,0,0-3.88,1.83l.06,1.36a4.73,4.73,0,0,1,3.51-1.89,2.54,2.54,0,0,1,2.83,2.83,2.77,2.77,0,0,1-2.81,2.94c-2.23,0-3.48-1.78-3.48-5.08,0-4.47,1.88-6,4.07-6a3.93,3.93,0,0,1,2.66,1.07l1-1.09a5.32,5.32,0,0,0-3.74-1.43c-2.92,0-5.6,2.08-5.6,7.45C247.11,1096.46,249.31,1098.6,252.23,1098.6Zm7.9-.25h9.09v-1.45h-3.49v-12h-1.3a9.71,9.71,0,0,1-3.44,1v1.13h3v9.83h-3.86Z" transform="translate(-181.03 -136.54)"/><circle class="a" cx="111.15" cy="805.5" r="18"/><path class="b" d="M281.62,946.59h3.86v-9.82h-3v-1.14a9.5,9.5,0,0,0,3.44-1h1.3v12h3.49V948h-9.09Z" transform="translate(-181.03 -136.54)"/><path class="b" d="M293.84,946.89l1-1.1a4,4,0,0,0,2.67,1.05c2.16,0,4.07-1.53,4.07-6,0-3.3-1.28-5.06-3.48-5.06a2.77,2.77,0,0,0-2.84,2.92,2.57,2.57,0,0,0,2.86,2.83,4.69,4.69,0,0,0,3.49-1.89l.06,1.37a5.55,5.55,0,0,1-3.89,1.82,3.79,3.79,0,0,1-4.15-4.13,4.32,4.32,0,0,1,4.45-4.31c2.92,0,5.14,2.14,5.14,6.45,0,5.37-2.71,7.45-5.6,7.45A5.44,5.44,0,0,1,293.84,946.89Z" transform="translate(-181.03 -136.54)"/><line class="a" x1="208.17" y1="742.84" x2="122.65" y2="792"/><line class="a" x1="236.12" y1="742.84" x2="321.65" y2="792"/><circle class="a" cx="333.06" cy="805.81" r="18"/><path class="b" d="M503,947.32c4.54-4,7-6.36,7-8.59,0-1.53-.93-2.6-2.9-2.6a4.61,4.61,0,0,0-3.21,1.59l-1-1a6,6,0,0,1,4.43-2c2.69,0,4.37,1.57,4.37,3.95s-2.52,5-6.16,8.31c.84-.06,1.7-.1,2.5-.1h4.39v1.49H503Z" transform="translate(-181.03 -136.54)"/><path class="b" d="M515.71,942.15c0-5.37,2.68-7.45,5.6-7.45a5.32,5.32,0,0,1,3.74,1.43l-1,1.09a3.93,3.93,0,0,0-2.66-1.07c-2.19,0-4.08,1.53-4.08,6,0,3.3,1.26,5.08,3.49,5.08a2.78,2.78,0,0,0,2.81-2.94,2.54,2.54,0,0,0-2.83-2.83,4.73,4.73,0,0,0-3.51,1.89l-.06-1.36a5.64,5.64,0,0,1,3.88-1.83c2.48,0,4.18,1.38,4.18,4.13a4.32,4.32,0,0,1-4.47,4.31C517.91,948.6,515.71,946.46,515.71,942.15Z" transform="translate(-181.03 -136.54)"/><line class="a" x1="45" y1="895.37" x2="28.19" y2="938.88"/><path class="b" d="M330.5,1092.5a18,18,0,1,1-18-18A18,18,0,0,1,330.5,1092.5Zm-25.88,6h1.83c.21-5.25,1.07-8.27,4.62-12.32v-1.08h-9.7v1.52h7.71A17.9,17.9,0,0,0,304.62,1098.5Zm12.6,0h1.83c.21-5.25,1.07-8.27,4.62-12.32v-1.08H314v1.52h7.71A17.9,17.9,0,0,0,317.22,1098.5Z" transform="translate(-181.03 -136.54)"/><line class="a" x1="154.41" y1="895.52" x2="137.6" y2="939.03"/><line class="a" x1="59.29" y1="895.37" x2="70.93" y2="938.88"/><circle class="a" cx="161.06" cy="878.81" r="18"/><path class="b" d="M337,1019.77l.86-1.15a5.31,5.31,0,0,0,3.78,1.53,3.11,3.11,0,0,0,3.38-3c0-1.85-1.3-2.92-3.28-2.92a5,5,0,0,0-2.73.8l-.92-.59.44-6.45h7.58v1.51H340l-.36,3.95a5.7,5.7,0,0,1,2.48-.55c2.56,0,4.6,1.31,4.6,4.2s-2.39,4.54-4.95,4.54A6.7,6.7,0,0,1,337,1019.77Z" transform="translate(-181.03 -136.54)"/><line class="a" x1="96.88" y1="816.46" x2="59.06" y2="862.22"/><line class="a" x1="125.42" y1="816.46" x2="154.06" y2="862.22"/><circle class="a" cx="274.06" cy="878.81" r="18"/><path class="b" d="M444.53,1019.9h3.86v-9.83h-3v-1.13a9.71,9.71,0,0,0,3.44-1h1.3v11.95h3.49v1.45h-9.09Z" transform="translate(-181.03 -136.54)"/><path class="b" d="M457.13,1019.9H461v-9.83h-3v-1.13a9.71,9.71,0,0,0,3.44-1h1.3v11.95h3.49v1.45h-9.09Z" transform="translate(-181.03 -136.54)"/><circle class="a" cx="383.06" cy="878.81" r="18"/><path class="b" d="M559.83,1019.9h3.86v-9.83h-3v-1.13a9.71,9.71,0,0,0,3.44-1h1.3v11.95h3.49v1.45h-9.09Z" transform="translate(-181.03 -136.54)"/><path class="b" d="M348,866.29h5v.85h-3.8v13.79H353v.85h-5Z" transform="translate(-181.03 -136.54)"/><path class="b" d="M356.53,877.8h3.31v-8.43h-2.57v-1a8.2,8.2,0,0,0,3-.85h1.11V877.8h3V879h-7.79Z" transform="translate(-181.03 -136.54)"/><path class="b" d="M367.34,880.93h3.8V867.14h-3.8v-.85h5v15.49h-5Z" transform="translate(-181.03 -136.54)"/><path class="b" d="M240,935.29h5v.85h-3.8v13.79H245v.85h-5Z" transform="translate(-181.03 -136.54)"/><path class="b" d="M248.09,947.16c3.89-3.44,6-5.46,6-7.37,0-1.31-.79-2.23-2.49-2.23a3.94,3.94,0,0,0-2.75,1.37l-.87-.85a5.14,5.14,0,0,1,3.8-1.74c2.31,0,3.75,1.35,3.75,3.38s-2.16,4.31-5.28,7.13c.72-.05,1.46-.09,2.15-.09h3.76V948h-8.09Z" transform="translate(-181.03 -136.54)"/><path class="b" d="M259.34,949.93h3.8V936.14h-3.8v-.85h5v15.49h-5Z" transform="translate(-181.03 -136.54)"/><path class="b" d="M183,1008.29h5v.85h-3.8v13.79H188v.85h-5Z" transform="translate(-181.03 -136.54)"/><path class="b" d="M196.41,1013.14c0-.63.05-1.41.09-2h-.09c-.38.56-.8,1.12-1.17,1.68l-3.1,3.89h7.45v1.2h-9.11v-1l5.73-7.33h1.6V1021h-1.4Z" transform="translate(-181.03 -136.54)"/><path class="b" d="M202.34,1022.93h3.8v-13.79h-3.8v-.85h5v15.49h-5Z" transform="translate(-181.03 -136.54)"/><path class="b" d="M191,1118.29h5v.85h-3.8v13.79H196v.85h-5Z" transform="translate(-181.03 -136.54)"/><path class="b" d="M199,1128.11c0-1.59,1.23-2.49,2.47-3.07V1125a3.21,3.21,0,0,1-1.74-2.68c0-1.76,1.49-3,3.54-3,2.25,0,3.57,1.28,3.57,3.06a3.6,3.6,0,0,1-1.75,2.73v.08c1.26.63,2.25,1.35,2.25,3s-1.49,3.06-4.12,3.06S199,1129.92,199,1128.11Zm6.92,0c0-1.58-1.6-2-3.6-2.66-1.12.59-2,1.33-2,2.48s1.14,2.18,2.9,2.18S205.92,1129.33,205.92,1128.14Zm-.38-5.67a2,2,0,0,0-2.3-2,1.91,1.91,0,0,0-2.15,1.84c0,1.37,1.32,1.94,3,2.48A2.91,2.91,0,0,0,205.54,1122.47Z" transform="translate(-181.03 -136.54)"/><path class="b" d="M210.34,1132.93h3.8v-13.79h-3.8v-.85h5v15.49h-5Z" transform="translate(-181.03 -136.54)"/><path class="b" d="M247,1118.29h5v.85h-3.8v13.79H252v.85h-5Z" transform="translate(-181.03 -136.54)"/><path class="b" d="M255.2,1130.05l.83-.94a3.41,3.41,0,0,0,2.29.9c1.85,0,3.49-1.31,3.49-5.15,0-2.82-1.1-4.33-3-4.33a2.37,2.37,0,0,0-2.43,2.5,2.2,2.2,0,0,0,2.45,2.43,4,4,0,0,0,3-1.62l.05,1.17a4.75,4.75,0,0,1-3.33,1.57A3.25,3.25,0,0,1,255,1123a3.69,3.69,0,0,1,3.81-3.69c2.51,0,4.42,1.83,4.42,5.52,0,4.61-2.33,6.4-4.81,6.4A4.67,4.67,0,0,1,255.2,1130.05Z" transform="translate(-181.03 -136.54)"/><path class="b" d="M266.34,1132.93h3.8v-13.79h-3.8v-.85h5v15.49h-5Z" transform="translate(-181.03 -136.54)"/><path class="b" d="M294.63,1118.29h5v.85h-3.8v13.79h3.8v.85h-5Z" transform="translate(-181.03 -136.54)"/><path class="b" d="M303.13,1129.8h3.31v-8.43h-2.57v-1a8.2,8.2,0,0,0,2.95-.85h1.11v10.25h3V1131h-7.79Z" transform="translate(-181.03 -136.54)"/><path class="b" d="M313.46,1125.26c0-3.85,1.56-5.92,4.12-5.92s4.13,2.07,4.13,5.92-1.57,6-4.13,6S313.46,1129.08,313.46,1125.26Zm6.86,0c0-3.29-1.14-4.72-2.74-4.72s-2.73,1.43-2.73,4.72,1.13,4.79,2.73,4.79S320.32,1128.56,320.32,1125.26Zm-3.85-.13a1.12,1.12,0,1,1,1.11,1.21A1.11,1.11,0,0,1,316.47,1125.13Z" transform="translate(-181.03 -136.54)"/><path class="b" d="M324.74,1132.93h3.8v-13.79h-3.8v-.85h5v15.49h-5Z" transform="translate(-181.03 -136.54)"/><path class="b" d="M292,1008.29h5v.85h-3.8v13.79H297v.85h-5Z" transform="translate(-181.03 -136.54)"/><path class="b" d="M299.79,1019.69l.74-1a4.58,4.58,0,0,0,3.24,1.31,2.66,2.66,0,0,0,2.9-2.61c0-1.58-1.12-2.5-2.81-2.5a4.26,4.26,0,0,0-2.34.68l-.79-.5.37-5.53h6.5v1.3h-5.18l-.31,3.38a5.06,5.06,0,0,1,2.13-.46c2.19,0,3.94,1.11,3.94,3.6a4,4,0,0,1-4.25,3.89A5.78,5.78,0,0,1,299.79,1019.69Z" transform="translate(-181.03 -136.54)"/><path class="b" d="M311.34,1022.93h3.8v-13.79h-3.8v-.85h5v15.49h-5Z" transform="translate(-181.03 -136.54)"/><path class="b" d="M405,1008.29h5v.85h-3.8v13.79H410v.85h-5Z" transform="translate(-181.03 -136.54)"/><path class="b" d="M413.17,1015.73c0-4.61,2.3-6.39,4.8-6.39a4.58,4.58,0,0,1,3.21,1.22l-.83.94a3.37,3.37,0,0,0-2.29-.92c-1.87,0-3.49,1.31-3.49,5.15,0,2.83,1.08,4.36,3,4.36a2.38,2.38,0,0,0,2.41-2.52,2.19,2.19,0,0,0-2.43-2.44,4,4,0,0,0-3,1.62l-.06-1.17a4.88,4.88,0,0,1,3.33-1.56,3.27,3.27,0,0,1,3.59,3.55,3.71,3.71,0,0,1-3.84,3.69C415.06,1021.26,413.17,1019.42,413.17,1015.73Z" transform="translate(-181.03 -136.54)"/><path class="b" d="M424.34,1022.93h3.8v-13.79h-3.8v-.85h5v15.49h-5Z" transform="translate(-181.03 -136.54)"/><path class="b" d="M516,1008.29h5v.85h-3.8v13.79H521v.85h-5Z" transform="translate(-181.03 -136.54)"/><path class="b" d="M530.65,1010.85H524v-1.3h8.32v.92c-3,3.48-3.78,6.07-4,10.57h-1.57A15.35,15.35,0,0,1,530.65,1010.85Z" transform="translate(-181.03 -136.54)"/><path class="b" d="M535.34,1022.93h3.8v-13.79h-3.8v-.85h5v15.49h-5Z" transform="translate(-181.03 -136.54)"/><path class="b" d="M461,935.29h5v.85h-3.8v13.79H466v.85h-5Z" transform="translate(-181.03 -136.54)"/><path class="b" d="M468.81,946.64l.75-1a4.66,4.66,0,0,0,3.3,1.35c1.56,0,2.73-.81,2.73-2.08s-1.15-2.29-4.15-2.29V941.5c2.71,0,3.76-.93,3.76-2.14s-1-1.8-2.34-1.8a4.39,4.39,0,0,0-2.83,1.15l-.79-.93a5.56,5.56,0,0,1,3.67-1.44c2.16,0,3.8,1.06,3.8,2.91,0,1.39-1,2.27-2.45,2.74v.07c1.53.33,2.85,1.33,2.85,2.92,0,2-1.88,3.28-4.16,3.28A5.64,5.64,0,0,1,468.81,946.64Z" transform="translate(-181.03 -136.54)"/><path class="b" d="M480.34,949.93h3.8V936.14h-3.8v-.85h5v15.49h-5Z" transform="translate(-181.03 -136.54)"/><line class="a" x1="318.88" y1="816.46" x2="281.06" y2="862.22"/><line class="a" x1="347.42" y1="816.46" x2="376.06" y2="862.22"/><circle class="a" cx="673.15" cy="731.5" r="18"/><path class="b" d="M843.11,873c4.54-4,7-6.36,7-8.59,0-1.53-.93-2.6-2.9-2.6a4.58,4.58,0,0,0-3.21,1.6l-1-1a6,6,0,0,1,4.43-2c2.69,0,4.37,1.58,4.37,4s-2.52,5-6.16,8.31c.84-.06,1.7-.1,2.5-.1h4.39V874h-9.43Z" transform="translate(-181.03 -136.54)"/><path class="b" d="M855.8,867.85c0-5.38,2.68-7.46,5.6-7.46a5.32,5.32,0,0,1,3.74,1.43l-1,1.09a3.93,3.93,0,0,0-2.66-1.07c-2.19,0-4.08,1.53-4.08,6,0,3.29,1.26,5.08,3.49,5.08a2.78,2.78,0,0,0,2.81-2.94,2.55,2.55,0,0,0-2.83-2.84,4.73,4.73,0,0,0-3.51,1.89l-.06-1.36a5.68,5.68,0,0,1,3.88-1.83,3.81,3.81,0,0,1,4.18,4.14,4.32,4.32,0,0,1-4.47,4.3C858,874.29,855.8,872.15,855.8,867.85Z" transform="translate(-181.03 -136.54)"/><circle class="a" cx="503.06" cy="878.81" r="18"/><path class="b" d="M673.53,1019.9h3.86v-9.83h-3v-1.13a9.71,9.71,0,0,0,3.44-1h1.3v11.95h3.49v1.45h-9.09Z" transform="translate(-181.03 -136.54)"/><path class="b" d="M685.27,1019.77l.86-1.15a5.31,5.31,0,0,0,3.78,1.53,3.11,3.11,0,0,0,3.38-3c0-1.85-1.31-2.92-3.28-2.92a5,5,0,0,0-2.73.8l-.92-.59.44-6.45h7.58v1.51h-6l-.36,3.95a5.7,5.7,0,0,1,2.48-.55c2.56,0,4.6,1.31,4.6,4.2s-2.39,4.54-5,4.54A6.67,6.67,0,0,1,685.27,1019.77Z" transform="translate(-181.03 -136.54)"/><path class="b" d="M672.09,1092.35a18,18,0,1,1-18-18A18,18,0,0,1,672.09,1092.35Zm-24.59,6.25c2.56,0,5-1.64,5-4.54s-2-4.2-4.6-4.2a5.62,5.62,0,0,0-2.47.55l.35-4h6V1085H644.2l-.44,6.45.92.59a5,5,0,0,1,2.73-.8c2,0,3.28,1.07,3.28,2.92a3.11,3.11,0,0,1-3.38,3,5.31,5.31,0,0,1-3.78-1.53l-.86,1.15A6.7,6.7,0,0,0,647.5,1098.6Zm12,0c2.89,0,5.6-2.08,5.6-7.45,0-4.31-2.22-6.45-5.14-6.45a4.31,4.31,0,0,0-4.45,4.3,3.79,3.79,0,0,0,4.15,4.14,5.52,5.52,0,0,0,3.89-1.83l-.06-1.36a4.72,4.72,0,0,1-3.49,1.89,2.57,2.57,0,0,1-2.86-2.84,2.77,2.77,0,0,1,2.84-2.92c2.2,0,3.48,1.77,3.48,5.07,0,4.47-1.91,6-4.07,6a4,4,0,0,1-2.67-1.05l-1,1.09A5.4,5.4,0,0,0,659.49,1098.6Z" transform="translate(-181.03 -136.54)"/><path class="b" d="M727.09,1092.35a18,18,0,1,1-18-18A18,18,0,0,1,727.09,1092.35Zm-23.86,6.25a4.32,4.32,0,0,0,4.47-4.31c0-2.75-1.7-4.13-4.18-4.13a5.64,5.64,0,0,0-3.88,1.83l.06,1.36a4.73,4.73,0,0,1,3.51-1.89,2.54,2.54,0,0,1,2.83,2.83,2.77,2.77,0,0,1-2.81,2.94c-2.23,0-3.48-1.78-3.48-5.08,0-4.47,1.88-6,4.07-6a3.93,3.93,0,0,1,2.66,1.07l1-1.09a5.32,5.32,0,0,0-3.74-1.43c-2.92,0-5.6,2.08-5.6,7.45C698.11,1096.46,700.31,1098.6,703.23,1098.6Zm7.9-.25h9.09v-1.45h-3.49v-12h-1.3a9.71,9.71,0,0,1-3.44,1v1.13h3v9.83h-3.86Z" transform="translate(-181.03 -136.54)"/><circle class="a" cx="562.15" cy="805.5" r="18"/><path class="b" d="M732.62,946.59h3.86v-9.82h-3v-1.14a9.5,9.5,0,0,0,3.44-1h1.3v12h3.49V948h-9.09Z" transform="translate(-181.03 -136.54)"/><path class="b" d="M744.84,946.89l1-1.1a4,4,0,0,0,2.67,1.05c2.16,0,4.07-1.53,4.07-6,0-3.3-1.28-5.06-3.48-5.06a2.77,2.77,0,0,0-2.84,2.92,2.57,2.57,0,0,0,2.86,2.83,4.69,4.69,0,0,0,3.49-1.89l.06,1.37a5.55,5.55,0,0,1-3.89,1.82,3.79,3.79,0,0,1-4.15-4.13,4.32,4.32,0,0,1,4.45-4.31c2.92,0,5.14,2.14,5.14,6.45,0,5.37-2.71,7.45-5.6,7.45A5.44,5.44,0,0,1,744.84,946.89Z" transform="translate(-181.03 -136.54)"/><line class="a" x1="659.17" y1="742.84" x2="573.65" y2="792"/><line class="a" x1="687.12" y1="742.84" x2="772.65" y2="792"/><circle class="a" cx="784.06" cy="805.81" r="18"/><path class="b" d="M954.53,946.9h3.86v-9.83h-3v-1.13a9.71,9.71,0,0,0,3.44-1h1.3V946.9h3.49v1.45h-9.09Z" transform="translate(-181.03 -136.54)"/><path class="b" d="M967.13,946.9H971v-9.83h-3v-1.13a9.71,9.71,0,0,0,3.44-1h1.3V946.9h3.49v1.45h-9.09Z" transform="translate(-181.03 -136.54)"/><line class="a" x1="496" y1="895.37" x2="479.19" y2="938.88"/><path class="b" d="M781.5,1092.5a18,18,0,1,1-18-18A18,18,0,0,1,781.5,1092.5Zm-25.88,6h1.83c.21-5.25,1.07-8.27,4.62-12.32v-1.08h-9.7v1.52h7.71A17.9,17.9,0,0,0,755.62,1098.5Zm12.6,0h1.83c.21-5.25,1.07-8.27,4.62-12.32v-1.08H765v1.52h7.71A17.9,17.9,0,0,0,768.22,1098.5Z" transform="translate(-181.03 -136.54)"/><line class="a" x1="605.41" y1="895.52" x2="588.6" y2="939.03"/><line class="a" x1="510.29" y1="895.37" x2="521.93" y2="938.88"/><circle class="a" cx="612.06" cy="878.81" r="18"/><path class="b" d="M788,1019.77l.86-1.15a5.31,5.31,0,0,0,3.78,1.53,3.11,3.11,0,0,0,3.38-3c0-1.85-1.31-2.92-3.28-2.92a5,5,0,0,0-2.73.8l-.92-.59.44-6.45h7.58v1.51H791l-.36,3.95a5.7,5.7,0,0,1,2.48-.55c2.56,0,4.6,1.31,4.6,4.2s-2.39,4.54-5,4.54A6.69,6.69,0,0,1,788,1019.77Z" transform="translate(-181.03 -136.54)"/><line class="a" x1="547.88" y1="816.46" x2="510.06" y2="862.22"/><line class="a" x1="576.42" y1="816.46" x2="605.06" y2="862.22"/><circle class="a" cx="725.06" cy="878.81" r="18"/><path class="b" d="M901.83,1019.9h3.86v-9.83h-3v-1.13a9.71,9.71,0,0,0,3.44-1h1.3v11.95h3.49v1.45h-9.09Z" transform="translate(-181.03 -136.54)"/><path class="b" d="M1033.09,1015.35a18,18,0,1,1-18-18A18,18,0,0,1,1033.09,1015.35Zm-22.87,6h1.63V1008H1010l-6.68,8.55v1.15h10.62v-1.4h-8.69l3.61-4.54c.44-.65.93-1.3,1.37-2h.1c0,.73-.08,1.63-.1,2.37Zm11.21.25c3.07,0,4.81-1.58,4.81-3.57s-1.16-2.75-2.63-3.49v-.08a4.2,4.2,0,0,0,2-3.19c0-2.08-1.53-3.57-4.16-3.57-2.39,0-4.13,1.38-4.13,3.44a3.75,3.75,0,0,0,2,3.13v.09c-1.44.67-2.87,1.72-2.87,3.56C1016.52,1020,1018.41,1021.6,1021.43,1021.6Zm0-1.3c-2.05,0-3.38-1.07-3.38-2.54s1-2.21,2.29-2.9c2.33.78,4.2,1.26,4.2,3.11C1024.58,1019.35,1023.45,1020.3,1021.47,1020.3Zm1-6.26c-2-.63-3.53-1.3-3.53-2.9a2.22,2.22,0,0,1,2.5-2.14,2.39,2.39,0,0,1,2.69,2.35A3.41,3.41,0,0,1,1022.48,1014Z" transform="translate(-181.03 -136.54)"/><path class="b" d="M799,866.29h5v.85h-3.8v13.79H804v.85h-5Z" transform="translate(-181.03 -136.54)"/><path class="b" d="M807.53,877.8h3.31v-8.43h-2.57v-1a8.2,8.2,0,0,0,3-.85h1.11V877.8h3V879h-7.79Z" transform="translate(-181.03 -136.54)"/><path class="b" d="M818.34,880.93h3.8V867.14h-3.8v-.85h5v15.49h-5Z" transform="translate(-181.03 -136.54)"/><path class="b" d="M691,935.29h5v.85h-3.8v13.79H696v.85h-5Z" transform="translate(-181.03 -136.54)"/><path class="b" d="M699.09,947.16c3.89-3.44,6-5.46,6-7.37,0-1.31-.79-2.23-2.49-2.23a3.94,3.94,0,0,0-2.75,1.37l-.87-.85a5.14,5.14,0,0,1,3.8-1.74c2.31,0,3.75,1.35,3.75,3.38s-2.16,4.31-5.28,7.13c.72-.05,1.46-.09,2.15-.09h3.76V948h-8.09Z" transform="translate(-181.03 -136.54)"/><path class="b" d="M710.34,949.93h3.8V936.14h-3.8v-.85h5v15.49h-5Z" transform="translate(-181.03 -136.54)"/><path class="b" d="M634,1008.29h5v.85h-3.8v13.79H639v.85h-5Z" transform="translate(-181.03 -136.54)"/><path class="b" d="M647.41,1013.14c0-.63.05-1.41.09-2h-.09c-.38.56-.8,1.12-1.17,1.68l-3.1,3.89h7.45v1.2h-9.11v-1l5.73-7.33h1.6V1021h-1.4Z" transform="translate(-181.03 -136.54)"/><path class="b" d="M653.34,1022.93h3.8v-13.79h-3.8v-.85h5v15.49h-5Z" transform="translate(-181.03 -136.54)"/><path class="b" d="M642,1118.29h5v.85h-3.8v13.79H647v.85h-5Z" transform="translate(-181.03 -136.54)"/><path class="b" d="M650,1128.11c0-1.59,1.23-2.49,2.47-3.07V1125a3.21,3.21,0,0,1-1.74-2.68c0-1.76,1.49-3,3.54-3,2.25,0,3.57,1.28,3.57,3.06a3.6,3.6,0,0,1-1.75,2.73v.08c1.26.63,2.25,1.35,2.25,3s-1.49,3.06-4.12,3.06S650,1129.92,650,1128.11Zm6.92,0c0-1.58-1.6-2-3.6-2.66-1.12.59-2,1.33-2,2.48s1.13,2.18,2.89,2.18S656.92,1129.33,656.92,1128.14Zm-.38-5.67a2,2,0,0,0-2.3-2,1.91,1.91,0,0,0-2.15,1.84c0,1.37,1.32,1.94,3,2.48A2.91,2.91,0,0,0,656.54,1122.47Z" transform="translate(-181.03 -136.54)"/><path class="b" d="M661.34,1132.93h3.8v-13.79h-3.8v-.85h5v15.49h-5Z" transform="translate(-181.03 -136.54)"/><path class="b" d="M698,1118.29h5v.85h-3.8v13.79H703v.85h-5Z" transform="translate(-181.03 -136.54)"/><path class="b" d="M706.2,1130.05l.83-.94a3.41,3.41,0,0,0,2.29.9c1.85,0,3.49-1.31,3.49-5.15,0-2.82-1.1-4.33-3-4.33a2.37,2.37,0,0,0-2.43,2.5,2.2,2.2,0,0,0,2.45,2.43,4,4,0,0,0,3-1.62l0,1.17a4.75,4.75,0,0,1-3.33,1.57A3.25,3.25,0,0,1,706,1123a3.69,3.69,0,0,1,3.81-3.69c2.51,0,4.42,1.83,4.42,5.52,0,4.61-2.33,6.4-4.81,6.4A4.67,4.67,0,0,1,706.2,1130.05Z" transform="translate(-181.03 -136.54)"/><path class="b" d="M717.34,1132.93h3.8v-13.79h-3.8v-.85h5v15.49h-5Z" transform="translate(-181.03 -136.54)"/><path class="b" d="M745.63,1118.29h5v.85h-3.8v13.79h3.8v.85h-5Z" transform="translate(-181.03 -136.54)"/><path class="b" d="M754.13,1129.8h3.31v-8.43h-2.57v-1a8.2,8.2,0,0,0,3-.85h1.11v10.25h3V1131h-7.79Z" transform="translate(-181.03 -136.54)"/><path class="b" d="M764.46,1125.26c0-3.85,1.57-5.92,4.12-5.92s4.13,2.07,4.13,5.92-1.57,6-4.13,6S764.46,1129.08,764.46,1125.26Zm6.86,0c0-3.29-1.14-4.72-2.74-4.72s-2.73,1.43-2.73,4.72,1.13,4.79,2.73,4.79S771.32,1128.56,771.32,1125.26Zm-3.85-.13a1.12,1.12,0,1,1,1.11,1.21A1.11,1.11,0,0,1,767.47,1125.13Z" transform="translate(-181.03 -136.54)"/><path class="b" d="M775.75,1132.93h3.79v-13.79h-3.79v-.85h5v15.49h-5Z" transform="translate(-181.03 -136.54)"/><path class="b" d="M743,1008.29h5v.85h-3.8v13.79H748v.85h-5Z" transform="translate(-181.03 -136.54)"/><path class="b" d="M750.79,1019.69l.74-1a4.58,4.58,0,0,0,3.24,1.31,2.66,2.66,0,0,0,2.9-2.61c0-1.58-1.12-2.5-2.81-2.5a4.26,4.26,0,0,0-2.34.68l-.79-.5.37-5.53h6.5v1.3h-5.18l-.31,3.38a5.06,5.06,0,0,1,2.13-.46c2.19,0,3.94,1.11,3.94,3.6a4,4,0,0,1-4.25,3.89A5.78,5.78,0,0,1,750.79,1019.69Z" transform="translate(-181.03 -136.54)"/><path class="b" d="M762.34,1022.93h3.8v-13.79h-3.8v-.85h5v15.49h-5Z" transform="translate(-181.03 -136.54)"/><path class="b" d="M856,1008.29h5v.85h-3.8v13.79H861v.85h-5Z" transform="translate(-181.03 -136.54)"/><path class="b" d="M864.17,1015.73c0-4.61,2.3-6.39,4.8-6.39a4.58,4.58,0,0,1,3.21,1.22l-.83.94a3.37,3.37,0,0,0-2.29-.92c-1.87,0-3.49,1.31-3.49,5.15,0,2.83,1.08,4.36,3,4.36a2.38,2.38,0,0,0,2.41-2.52,2.19,2.19,0,0,0-2.43-2.44,4,4,0,0,0-3,1.62l-.06-1.17a4.88,4.88,0,0,1,3.33-1.56,3.27,3.27,0,0,1,3.59,3.55,3.71,3.71,0,0,1-3.84,3.69C866.06,1021.26,864.17,1019.42,864.17,1015.73Z" transform="translate(-181.03 -136.54)"/><path class="b" d="M875.34,1022.93h3.8v-13.79h-3.8v-.85h5v15.49h-5Z" transform="translate(-181.03 -136.54)"/><path class="b" d="M967,1008.29h5v.85h-3.8v13.79H972v.85h-5Z" transform="translate(-181.03 -136.54)"/><path class="b" d="M981.65,1010.85H975v-1.3h8.32v.92c-3,3.48-3.78,6.07-4,10.57h-1.57A15.35,15.35,0,0,1,981.65,1010.85Z" transform="translate(-181.03 -136.54)"/><path class="b" d="M986.34,1022.93h3.8v-13.79h-3.8v-.85h5v15.49h-5Z" transform="translate(-181.03 -136.54)"/><path class="b" d="M912,935.29h5v.85h-3.8v13.79H917v.85h-5Z" transform="translate(-181.03 -136.54)"/><path class="b" d="M919.81,946.64l.75-1a4.66,4.66,0,0,0,3.3,1.35c1.56,0,2.73-.81,2.73-2.08s-1.15-2.29-4.15-2.29V941.5c2.71,0,3.76-.93,3.76-2.14s-1-1.8-2.34-1.8a4.39,4.39,0,0,0-2.83,1.15l-.79-.93a5.56,5.56,0,0,1,3.67-1.44c2.16,0,3.8,1.06,3.8,2.91,0,1.39-1,2.27-2.45,2.74v.07c1.53.33,2.85,1.33,2.85,2.92,0,2-1.88,3.28-4.16,3.28A5.64,5.64,0,0,1,919.81,946.64Z" transform="translate(-181.03 -136.54)"/><path class="b" d="M931.34,949.93h3.8V936.14h-3.8v-.85h5v15.49h-5Z" transform="translate(-181.03 -136.54)"/><line class="a" x1="769.88" y1="816.46" x2="732.06" y2="862.22"/><line class="a" x1="798.42" y1="816.46" x2="827.06" y2="862.22"/><path class="b" d="M657.92,448.66h.33c.49,0,.75.9.78,2.69v3.14l.12.78c-.08,0-.12,0-.12.11l.23.11a2.58,2.58,0,0,1,2-.79c.59,0,.89.86.89,2.59v1.78a2.82,2.82,0,0,0,.34,1.12,1.12,1.12,0,0,1-.57.67,1.88,1.88,0,0,1-1-.67c.15,0,.23-.11.23-.33,0-.6,0-1.38-.12-2.36a8.33,8.33,0,0,0,.12-1.23c-.07-.29-.14-.44-.23-.44q-1.91,0-1.91,5c-.15.3-.26.45-.34.45-.59,0-.89-.56-.89-1.68v-.56a15.05,15.05,0,0,1,.34-1.9V454.6a.94.94,0,0,0-.11-.45.92.92,0,0,0,.11-.34.1.1,0,0,0-.11-.11l.11-.56v-.34l-.11-.56h.11L658,452v-1.23a12.49,12.49,0,0,0-.45-1.89Z" transform="translate(-181.03 -136.54)"/><path class="b" d="M664.53,455a1.77,1.77,0,0,1,1.7,1.27v.43c0,.9-.88,1.85-2.65,2.87,0,.92.24,1.38.73,1.38a4.37,4.37,0,0,0,2.45-2.34.1.1,0,0,1-.11-.1,2.7,2.7,0,0,0,.53-.43h.12c.35.19.52.33.52.43V459l-1,1.17c-1,1.2-1.83,1.8-2.56,1.8a1.77,1.77,0,0,1-1.48-.85h-.11v-.21a8.25,8.25,0,0,0-.53-1.91l.22-1.07c0-.07,0-.1-.12-.1C662.29,456,663,455,664.53,455Zm-1.17,2.76.1.21a.85.85,0,0,0-.1.43h.32a4.6,4.6,0,0,0,1.6-1.49q0-1-.75-1h-.32C663.94,455.94,663.66,456.54,663.36,457.75Z" transform="translate(-181.03 -136.54)"/><path class="b" d="M669.79,454.39a4.21,4.21,0,0,1,2.46,1.49l-.67,1.94a.06.06,0,0,0,.07.07l-.07.52c0,1.14.17,1.72.52,1.72s.59.09.59.29a.59.59,0,0,1-.44.6c-.38,0-.83-.3-1.34-.89a1.1,1.1,0,0,0-.23-.82h.15c0-.11-.05-.16-.15-.16-.66,1.19-1.28,1.79-1.86,1.79s-.88-.52-1-1.56l.07-.16a.06.06,0,0,0-.07-.07l.07-.52V457l.07-.16s-.07,0-.07-.07.16-.22.37-.66l-.07-.16v-.14l.3-.45a.07.07,0,0,1-.08-.07c.16-.05.31-.23.44-.53A3.53,3.53,0,0,1,669.79,454.39Zm-1.19,2.91v.89a.65.65,0,0,1-.07.29.73.73,0,0,1,.07.3v.07a.07.07,0,0,1-.07.08c.13.84.28,1.27.45,1.27s.34-.22.66-.67h.08v-.08l-.08-.14a6,6,0,0,0,1.56-3.13v-.44l-1.19-.6c-.58,0-1,.57-1.26,1.7A.69.69,0,0,1,668.6,457.3Z" transform="translate(-181.03 -136.54)"/><path class="b" d="M674,454.36q4,.42,4.12,2l0,.57c-.88,2.18-1.76,3.43-2.64,3.73a5.36,5.36,0,0,0-1.07.9,28,28,0,0,0,0,3.06l.22,2.72a1,1,0,0,0,.14.45c-.06.45-.16.67-.29.67h-.22a1.08,1.08,0,0,1-.63-.79h.12l-.14-.22-.16-2.16,0-3.73a.82.82,0,0,1-.51-.79v-.11c0-.15.09-.23.31-.23h.34c.17-2.81.23-4.47.19-5-.3,0-.46-.11-.48-.34v-.22C673.33,454.84,673.54,454.66,674,454.36Zm1,1.13-.54,4.76h.23c1.71-1.48,2.56-2.62,2.56-3.4l0-.56C676.86,455.76,676.12,455.49,675,455.49Z" transform="translate(-181.03 -136.54)"/><path class="b" d="M681.62,455a4.05,4.05,0,0,0,.85.32v.63h-.53c-.07,0-.1,0-.1-.1a3.35,3.35,0,0,0-2.56,1.38c0,.64.93,1.24,2.77,1.81l.53.53v.32q0,1.27-2.87,3.29a3.16,3.16,0,0,0-.74.11q-.75-.51-.75-1v-.1c0-.15.1-.22.21-.22l.43.43c.65,0,1.61-.82,2.87-2.45v-.32a5.4,5.4,0,0,1-2.87-1.38,3.13,3.13,0,0,1-.64-.84,4.37,4.37,0,0,1,2.45-2.24A6.33,6.33,0,0,1,681.62,455Z" transform="translate(-181.03 -136.54)"/><path class="b" d="M684.62,455.5c2.26,0,3.4.46,3.4,1.39v.63a9.84,9.84,0,0,1-2.66,4.36,2.1,2.1,0,0,1-1.06.32h-.1c-.78-.54-1.17-1.07-1.17-1.6Q683.71,455.5,684.62,455.5Zm.21.95a12.39,12.39,0,0,0-1,3h-.12c.11,1.28.32,1.92.65,1.92h.21q1.51-.66,2.65-3.51v-1.07a3.82,3.82,0,0,0-1.17-.32Z" transform="translate(-181.03 -136.54)"/><path class="b" d="M691.76,454.59c.91,0,1.48.32,1.7,1-.1.28-.2.42-.31.42h-.32l-.42-.32h-.32c-.33,0-.73,1-1.18,3.09,0,1.35-.25,2-.63,2-.1,0-.28-.18-.54-.53v-.54l.33-1.58a3.42,3.42,0,0,0-1.6-2.66v-.11c.07-.22.28-.32.64-.32h.21q1.17.86,1.17,1.38a6.36,6.36,0,0,0,1.07-1.7Z" transform="translate(-181.03 -136.54)"/><path class="b" d="M696.56,451.1c.36.09.53.2.53.32s0,.1-.1.1l.1.22q-.08,1.38-.21,1.38c0,.07,0,.1.11.1a19.26,19.26,0,0,0-.21,2.14c.06,0,.1,0,.1-.12l.53.12h.85c.15,0,.22.09.22.2,0,.32-.57.6-1.7.85a25.72,25.72,0,0,1-.54,4.26h.22c.2,0,.76-.57,1.7-1.7a4.41,4.41,0,0,0,.64-.64c0,.07,0,.1.1.1q-1.74,3.51-3.08,3.51l-.43-.42v-.32a29.27,29.27,0,0,0,.43-4.57l-.74.1h-.75c-.1,0-.24-.17-.42-.52,0-.15.63-.36,1.91-.65l.32-1.17a.1.1,0,0,0-.11-.1C696.15,452.17,696.33,451.1,696.56,451.1Z" transform="translate(-181.03 -136.54)"/><path class="b" d="M712.68,449.75a2.38,2.38,0,0,1,2.46,1.37c0,.11-.2,1-.59,2.76v.1a6,6,0,0,0,.29,1.29l-.1.58c.13.42.2.65.2.69h.29c.15,0,.67-.53,1.58-1.57h.1c.39,0,.59.14.59.3v.09l-1.37,1.58v.29c0,.15.45.61,1.37,1.38v.1h.3q.09-1.15.09-1.68v-.59a.68.68,0,0,1,.7-.4c.16,0,.33.33.49,1-.14,1.12-.21,1.88-.21,2.26v3.55c0,.79-.13,1.18-.39,1.18s-.36-.62-.49-1.86c0,.21-1.9,1-5.71,2.35l-1.37.3h-.5a.68.68,0,0,1-.4-.69,8.2,8.2,0,0,0,.6-2.75v-3.15c-.41,0-.64-.26-.69-.79l.49-.6c-.13-.94-.19-1.43-.19-1.47l.29-.2h.29a2.68,2.68,0,0,1,.69,1.78l2.37-.5v-.79c0-.07-.3-.2-.89-.38v-.21a19.17,19.17,0,0,0,1.28-3.54v-.19a2.75,2.75,0,0,0-1.87-.6,1.08,1.08,0,0,1-.29-.68Zm-1.19,13.58h.1c1.77-.36,2.66-.69,2.66-1a4.47,4.47,0,0,1-1.67-2h-.1c-.59.15-.89.74-.89,1.78C711.53,462.83,711.49,463.23,711.49,463.33Zm.1-5,.11,1.18H712c1.38-.79,2.07-1.47,2.07-2.06h-.19C712.35,457.89,711.59,458.18,711.59,458.31Zm1.58,1.58V460c0,.06.26.29.78.7l.1-.21V459.1H714C713.87,459.1,713.61,459.36,713.17,459.89Zm1.67-1.18a2.36,2.36,0,0,1,.2.69.87.87,0,0,1-.1.39,9,9,0,0,1,.1,1.08v.79l-.1.5.2.09a5.36,5.36,0,0,0,2-1.28l.78.69h.1v-.4c0-1.24-.33-1.86-1-1.86a8.37,8.37,0,0,1-1.87-1.28C715,458.12,714.93,458.31,714.84,458.71Z" transform="translate(-181.03 -136.54)"/><path class="b" d="M730.48,447.7a5.87,5.87,0,0,1,1,1.58l.2.09h.09l.4-.3.59.79a1.15,1.15,0,0,1,.89.6v.29a8,8,0,0,1-2.46,1.77,7.27,7.27,0,0,0-.1,1.08v1c0,.13.08.19.19.19H732c1,0,1.63.2,1.87.6v.09c0,.15-.16.25-.49.3-1.08-.13-1.81-.2-2.16-.2v.11q.09,1.71.09,2.16a.71.71,0,0,0-.09.3l4.62-1.29h.39q.15,0,.3.3,0,.33-2.16,1.08a22.65,22.65,0,0,1-1.48,5.32v.09a5.45,5.45,0,0,1,1.87,1.28v.2q0,.13-.3.3h-.09a18.5,18.5,0,0,1-2.07-.79c-.59,1.38-1.22,2.07-1.87,2.07s-.79-.3-.79-.89l.19-.1h.11l.49.1a3.93,3.93,0,0,0,1-1.77,21.6,21.6,0,0,0-3-1.19l-.1-.19v-.3a16.8,16.8,0,0,0,1-2.46h-.09a9,9,0,0,1-2.76,1h-.3c-.09,0-.19-.09-.29-.28v-.11q0-.3,3.93-1.77a6.23,6.23,0,0,1,.6-1.67l-.1-.2v-1.08c-.13,0-.2,0-.2-.09q-1.33,1.17-1.77,1.17c-.13,0-.2-.06-.2-.19v-.1c1.32-1.71,2-2.86,2-3.45V453H730l-3.15,1.58q-.39-.15-.39-.3v-.19A17.27,17.27,0,0,1,729.3,452c.46-.38.69-.61.69-.68V449C730,448.23,730.15,447.8,730.48,447.7Zm-3.83,2.07h.19c1,1.31,1.77,2,2.27,2v.09a1.4,1.4,0,0,1-.88.3c-.63,0-1.22-.59-1.78-1.78V450C726.47,449.83,726.54,449.77,726.65,449.77Zm2.75,12.4a14,14,0,0,1,2.56.89,21.66,21.66,0,0,0,1.58-4.53h-.2c-2.1.54-3.15,1.06-3.15,1.57A17.05,17.05,0,0,1,729.4,462.17ZM731,449.28v1.07a.82.82,0,0,0,.5-.79l-.39-.28Zm.4,2.06v.1c1-.44,1.48-.74,1.48-.89s-.17-.22-.49-.39A6.08,6.08,0,0,0,731.37,451.34Zm3.26,7.74a.1.1,0,0,1,.09,0,1.68,1.68,0,0,0-.16-.33l-.26-1.4.22.06c.36,0,1.24.88,2.66,2.65a26.82,26.82,0,0,0,2-3.83V456H739a5.44,5.44,0,0,1-2.95,1c-.92,0-1.37-.56-1.37-1.67.19-1.9.42-2.85.68-2.85a.59.59,0,0,1,.5.58l-.3,2.27c.13.41.3.64.49.68h.2a12.54,12.54,0,0,0,4-1.37h.1c.09,0,.18.1.28.3s-.75,1.75-2.25,4.82a4.57,4.57,0,0,0-.49,1.38l2.36,2.95v.1c0,.13-.07.19-.2.19H740c-.44,0-1.2-.66-2.27-2h-.19c-.88,1.25-1.73,1.88-2.56,1.88-.52,0-.79-.33-.79-1l.2-.1c0,.09.17.22.49.4h.1a4.41,4.41,0,0,0,1.57-2.27V461a9.35,9.35,0,0,0-1.77-1.78l-.11.16Z" transform="translate(-181.03 -136.54)"/><path class="b" d="M752,450.64c.33,0,.49.66.49,2,0,.31-.07,1.08-.2,2.32a1.07,1.07,0,0,0,.42.14,13.19,13.19,0,0,1,2.52-.78c.47.22.7.51.7.87v.59q-.39,5.12-.39,6v.2a.31.31,0,0,0,.33.3c1.2-.6,1.86-1,2-1.31a3.4,3.4,0,0,1-1.2-2.54v-.09h0a5.33,5.33,0,0,0,1.86,1.75c.56.35.85.65.85.91,0,.71-1.26,1.47-3.76,2.25h-.25c-.54-.26-.82-.89-.82-1.86,0-.66.17-2.37.5-5.12v-.89h-.22c-1.69.41-2.54.84-2.54,1.28-.07.83-.1,1.34-.1,1.55,1.31.46,2,.79,2,1v.3c0,.05-.13.12-.39.18a8.1,8.1,0,0,0-1.69-.19V462c0,1.31-.16,2-.48,2s-.37-.39-.49-1.17l.1-.49v-3c-.72,0-1.08-.22-1.08-.68q0-.23,1.17-.51v-1.37a4.15,4.15,0,0,0-3,1.74v4.94a.87.87,0,0,1-.51.42c-.37,0-.83-.52-1.37-1.55a4.51,4.51,0,0,0-2.51-1.12,1,1,0,0,1-.33-.64,9.29,9.29,0,0,1,3.74-2.63c.07-1.13.1-2,.1-2.53v-.84a9.84,9.84,0,0,1-2.76.84c-.16,0-.32-.17-.49-.52,0-.21.8-.54,2.39-1,.7-.2,1.05-.6,1.05-1.18,0-1,.15-1.55.44-1.76h.44c.13,0,.2.25.2.68v.29h-.1c0,.29.3.67.89,1.14v0c0,.1-.34.38-1,.84l-.11,3.3h.3c.21,0,.31-.1.31-.3l-.09-.52,2.45-.88c.16-3.26.33-4.89.49-4.89Zm-7,9.83c0,.19.46.54,1.37,1,0,.07.27.24.81.5v-2.81A13.08,13.08,0,0,1,745,460.47Z" transform="translate(-181.03 -136.54)"/><path class="b" d="M767.46,450a1.14,1.14,0,0,1,.69.79c0,.91-1.14,2.39-3.44,4.43l-.6.1-.19-.29c0-.7.69-1.68,2.06-2.95C766.7,450.75,767.19,450.06,767.46,450Zm.49,3.45c.18,0,.34.16.49.49a10.45,10.45,0,0,1-2,4,8.75,8.75,0,0,1,.49,2.56c0,2.23-.19,3.35-.58,3.35h-.3a.68.68,0,0,1-.39-.7,37.22,37.22,0,0,1,.2-3.73.77.77,0,0,1-.1-.4h-.2l-.59.4h-.5c-.08,0-.18-.1-.28-.3v-.1c0-.61.52-1.33,1.57-2.16,1.05-2.3,1.75-3.45,2.07-3.45Zm7.78-.39.09.2V454a5.36,5.36,0,0,1-2,1.77,13.89,13.89,0,0,1,.49,4.14c-.05,3.08-.28,4.63-.69,4.63h-.3l-3.44-2.37v-.1c0-.13.09-.19.2-.19l2.75.69h.1v-.11c0-.85.1-1.28.2-1.28a.08.08,0,0,0-.09-.09q.09-1.19.09-1.77a5.86,5.86,0,0,0-.3-2.57,10,10,0,0,1-3.15,1.39c-.78-.09-1.18-.32-1.18-.69s1-.94,3.06-1.58a30.33,30.33,0,0,0,3.94-2.85Zm-5.71-2c2.43,0,3.64.26,3.64.78v.3l-.19.3-.5-.11H771.5l-.6.11c-.73-.26-1.12-.49-1.18-.69v-.1C769.76,451.28,769.86,451.08,770,451.08Z" transform="translate(-181.03 -136.54)"/><path class="b" d="M782.66,451.18a.83.83,0,0,1,.78.61,13,13,0,0,0-.09,1.36v.21a.29.29,0,0,0,.31.29,54.8,54.8,0,0,1,6.19-1.68c.06,0,.22.18.48.53a5.77,5.77,0,0,1-1.47,3.18q0,.17-.33.21a.47.47,0,0,1,0-.16l.69-2.27v-.21H789a37.64,37.64,0,0,1-4.92,1.57h-.59v.2c0,3.35-.16,5-.39,5H783a.78.78,0,0,1-.69-.51l.11-.66V456.6a3.78,3.78,0,0,1,.09-.88,6.06,6.06,0,0,1-.09-1v-1.38a4.57,4.57,0,0,0-.11-.88Q782.49,451.18,782.66,451.18Zm9.18,5.52h0a21.25,21.25,0,0,1,2.5,2.69q0,1.38-5.31,5.12c0,.11-.13.16-.39.16-.65-.1-1-.23-1-.39v-.4c0-.58,0-1.23.1-2l-.12-.69h-.44a25.17,25.17,0,0,1-1.92,3.54c-.51-.12-.77-.25-.77-.39v-.19a25.85,25.85,0,0,1,.73-2.57H785a4.53,4.53,0,0,1-.87.1h-.69c-.52,0-.79-.22-.79-.68v-.1q0-.31,2.1-.39a10.37,10.37,0,0,0,2.47-1.38,7.6,7.6,0,0,0,2.46-1.28h.25c.07,0,.11,0,.11.08a5.38,5.38,0,0,1-1.58,2v.15a25.31,25.31,0,0,0,.19,2.53,1.13,1.13,0,0,0-.09.52h.23a21.94,21.94,0,0,0,4.32-3.94,15.57,15.57,0,0,1-1.38-2.51Zm-6.92-1c1.78.46,2.67,1,2.67,1.57,0,.06,0,.09-.11.09h-.18c-1.71-.44-2.56-.83-2.56-1.17S784.85,455.72,784.92,455.72Zm0-5.91h.19c1.38.38,2.07,1,2.07,1.76,0,.07-.06.11-.18.11-1.45-.62-2.17-1.21-2.17-1.77A.09.09,0,0,1,784.93,449.81Z" transform="translate(-181.03 -136.54)"/><path class="b" d="M806.64,447.39h.1q.15,0,.39.39a6.31,6.31,0,0,1-.3,1.58H807a16.59,16.59,0,0,0,2.16-.3l.2.3a2.58,2.58,0,0,1-1.58,1v.11q1.47,1.59,1.47,2.16v.3a.17.17,0,0,1-.19.19c-1.57-1.41-2.36-2.23-2.36-2.46-.24,0-.54,1.08-.89,3.25h.1a4.71,4.71,0,0,1,.88-.1h.79q.15,0,.3.3v.19c0,.4-.39,1-1.18,1.87v.1l.2-.1h.38c.1,0,.2.1.3.29v.11a7,7,0,0,1-1.08,1.07v.5c0,.13.09.2.2.2,2.16-.53,3.74-.85,4.73-1a1.21,1.21,0,0,1,1.18.58v.4c0,.35-.53,1.14-1.58,2.36a18.76,18.76,0,0,1-2.76,4.13c-.85-.42-1.27-.94-1.27-1.57h-.1c-.14,0-.2.09-.2.2v3.34c0,.1-.13.24-.4.4h-.19c-.39-.26-.59-.49-.59-.7.06-2.66.09-4.14.09-4.43h-.09a9.86,9.86,0,0,0-1.77,2.27.68.68,0,0,0-.4.19h-.1c-.1,0-.23-.13-.4-.39V464a15,15,0,0,1,2.18-3.44v-.2a10.23,10.23,0,0,1-2.56.69.92.92,0,0,1-.89-.49v-.2c.6-.34,1.26-1.49,2-3.44.3-.39.56-.59.78-.59l.49.09.5-.68c-.09-.33-.18-.49-.29-.49l-.6.1a.09.09,0,0,1-.1-.1,6,6,0,0,1-1.76.19l-.79-.49c-.07.59-.3.89-.69.89a.18.18,0,0,0-.2-.21c.65-3.26,1-5.1,1-5.5v-.6c0-.39.14-.58.3-.58h.4c.1,0,.3.26.58.78l1.67-.2c.3.13.47.27.5.4s-.63.53-1.87,1V451a11.64,11.64,0,0,0,1,2.56h.11c.28,0,.78-1.9,1.47-5.71Zm-4,5.31a7.67,7.67,0,0,1-.6,1.68c.07,0,.11,0,.11.1,1.31-.13,2-.26,2-.39a7.43,7.43,0,0,0-1.38-1.39Zm1,7a1.76,1.76,0,0,0,1.91-1.4c-.08-.31-.16-.46-.25-.46A1.76,1.76,0,0,0,803.65,459.73Zm3-5.09c-.23,0-.36.15-.4.44l.18.44a2.07,2.07,0,0,0,.62-.44A.42.42,0,0,0,806.61,454.64Zm.33,5.05v.11a1.09,1.09,0,0,0,.19.28v.11a1.36,1.36,0,0,1-.39.88,3.42,3.42,0,0,0,1.28,2.26h.09a34.55,34.55,0,0,0,2.66-3.93,4,4,0,0,0,.79-1.08c-.06,0-.09,0-.09-.1A13.42,13.42,0,0,0,806.94,459.69Z" transform="translate(-181.03 -136.54)"/><path class="b" d="M827.5,456.43a12.44,12.44,0,0,0,1.48.11h.2a7.53,7.53,0,0,0,1.08-.11,1.35,1.35,0,0,1,.78.6v.3c0,.09-.09.19-.29.29a80.14,80.14,0,0,0-8.86.5,2.63,2.63,0,0,1-2.46-1.09v-.2c.07-.19.26-.29.59-.29a5.81,5.81,0,0,0,2,.39,32.82,32.82,0,0,1,3.93-.39l.2.1Z" transform="translate(-181.03 -136.54)"/><path class="b" d="M842.36,449.11h.3c.25.48,1.1.94,2.56,1.38q3.75,1.18,3.75,1.77v.2l-.21.1h-.19a15.92,15.92,0,0,0-4.63-1.48q.39,6.69.39,8.07-.44,6.32-.88,6.31a7,7,0,0,1-.2-2.07v-5.72a28.22,28.22,0,0,0-.49-6.78h-.1q-.61.81-3.25,5.31a3,3,0,0,0-.78.49l-.21-.09c0-.49,1.09-2.63,3.26-6.4A1,1,0,0,1,842.36,449.11Z" transform="translate(-181.03 -136.54)"/><path class="b" d="M862.6,449.48c.5,0,.92.5,1.28,1.49a.19.19,0,0,1-.21.21h-.53c-.15.93-.29,1.39-.42,1.39l.1.21v.11l-.1.63a.93.93,0,0,1,.1.32c0,.08,0,.11-.1.11l.1.54v1.27l.1.53h-.1a.75.75,0,0,1,.1.32l1.38-.22c.2,0,.37.18.54.54,0,.4-.43.65-1.27.74l-.22-.11c-.29.11-.43.22-.43.32a7.94,7.94,0,0,0,.22,1.28H863l.11.22a17.85,17.85,0,0,0,.21,2.65c0,.07,0,.11-.1.11l.1.53v1.49l-.1.63.1.22c-.18.56-.39.85-.63.85a1.76,1.76,0,0,1-1.6-.85c0-.13.31-.24,1-.32a1.17,1.17,0,0,1,.22-.85v-1.6c0-.07,0-.1.11-.1a.7.7,0,0,1-.11-.32.1.1,0,0,1,.11-.11l-.11-.64c0-.64-.08-1.71-.22-3.19-.14,0-.2,0-.2-.1a4.44,4.44,0,0,1-1,.21c-1.06-.12-1.59-.26-1.59-.43v-.42c0-.14.09-.21.22-.21h.74a.88.88,0,0,1,.43.1,10.09,10.09,0,0,1,1.27-.21v-.31l-.1-.54h.1l-.1-.21v-1.6l-.12-.74h.12l-.12-.22.12-.63-.12-.22C862.06,450.62,862.34,449.66,862.6,449.48Z" transform="translate(-181.03 -136.54)"/><path class="b" d="M866.88,455.5c2.27,0,3.4.46,3.4,1.39v.63a9.8,9.8,0,0,1-2.65,4.36,2.13,2.13,0,0,1-1.07.32h-.1c-.78-.54-1.17-1.07-1.17-1.6Q866,455.5,866.88,455.5Zm.21.95a12.39,12.39,0,0,0-1,3H866c.1,1.28.32,1.92.64,1.92h.21q1.51-.66,2.66-3.51v-1.07a3.82,3.82,0,0,0-1.17-.32Z" transform="translate(-181.03 -136.54)"/><path class="b" d="M874,454.59a1.59,1.59,0,0,1,1.7,1c-.1.28-.21.42-.32.42h-.32l-.42-.32h-.32c-.33,0-.72,1-1.18,3.09,0,1.35-.25,2-.63,2-.1,0-.27-.18-.53-.53v-.54l.32-1.58a3.42,3.42,0,0,0-1.6-2.66v-.11c.07-.22.28-.32.64-.32h.21q1.17.86,1.17,1.38a6.08,6.08,0,0,0,1.07-1.7Z" transform="translate(-181.03 -136.54)"/><path class="b" d="M887.28,449.3c.3.13.47.26.5.39V450q-.1,1.14-2.37,4.34l-.29.2h-.3c-.09,0-.19-.1-.29-.3v-.49A35.76,35.76,0,0,0,887,449.4.7.7,0,0,0,887.28,449.3Zm1.83,3.4a13.77,13.77,0,0,0-1.14,1.91,4.27,4.27,0,0,0,.1,1.09c-.07.88-.1,1.63-.1,2.26v.79c0,1.08.07,2.56.2,4.43-.07.89-.1,1.51-.1,1.87a.89.89,0,0,1,.1.29l-.2.1h-.59c-.09,0-.25-.17-.5-.5v-.09c.14-1.11.21-1.74.21-1.87v-.78c0-2.44-.07-3.65-.21-3.65l.11-.5v-1.67h-.11c-.63.79-1.12,1.18-1.47,1.18h-.1a.17.17,0,0,1-.19-.19V457a54.48,54.48,0,0,0,3.24-4.92,1.24,1.24,0,0,1,.67-.38Zm1.12,2.08h-.12q-.36-.07-.36-.36v-.13c.07-.25.19-.37.36-.37h.09q-.09-1.74-.33-1.74l-.31,0c-.19,0-.31-.13-.36-.4s.28-.44.83-.76a15.78,15.78,0,0,0,2.25-1.91c0-.19.12-.31.37-.33h0c.29.08.44.22.44.41v.12c-.06.48-.88,1.26-2.48,2.34a2.56,2.56,0,0,1,.5,1.38,1.37,1.37,0,0,0,0,.36h0a.34.34,0,0,1,0,.17c1.13-.41,1.74-.65,1.84-.71a5.32,5.32,0,0,1,.64-1.37c.51-.69.94-1,1.28-1s.61.22.61.44V451c0,.25-.17.4-.49.44a2.48,2.48,0,0,0-.7,1,9.48,9.48,0,0,1,2-.58h.09c.07,0,.15.1.21.31s-.89.78-2.67,1.41c-.09.51-.2,1.26-.33,2.26h0a6.62,6.62,0,0,1,2.2-.89h0c.24,0,.41.23.53.69a11.76,11.76,0,0,1-.06,1.2,0,0,0,0,0,0,0l0,.19a32.79,32.79,0,0,0,1,8c0,.32-.2.51-.61.56-.25,0-.57-.38-1-1.14a5.81,5.81,0,0,1-.69-1.17l-.05,0h0a9.45,9.45,0,0,1-1.86,1.27c0,.06-.07.1-.22.13q-.63-.15-.63-.54V464a1.06,1.06,0,0,1,.13-.34,29.67,29.67,0,0,1-.59-6.22v-.34c0-1,.06-1.47.2-1.47a.45.45,0,0,1,.27-.12c.25,0,.4.22.45.67v0a2.14,2.14,0,0,1,.34-.1,2.7,2.7,0,0,1-.34-1.54c0-.12,0-.3,0-.56h0l-1.5.59c0,.44,0,.73,0,.89q-.21,7.25-.59,7.39a.25.25,0,0,1-.25.18h0c-.28,0-.42-.43-.42-1.28C890,460.25,890.14,457.91,890.23,454.78Zm2.58,2.4q.06,1.23.06,1.95a0,0,0,0,1,0,0,6.28,6.28,0,0,1,2.38-.64.23.23,0,0,0,0-.09q0-.15,0-.78l0-.16a0,0,0,0,0,0,0l.09-1.48h0a9.68,9.68,0,0,1-2.5,1.14Zm.12,2.86c0,.13,0,.43,0,.93h0a6.53,6.53,0,0,1,1.76-.54,4,4,0,0,1,.67.09c-.05-.66-.07-1-.07-1.16a.16.16,0,0,0-.09,0,7.42,7.42,0,0,1-2.35.68Zm.11,1.84a.16.16,0,0,1,0,.08,4.32,4.32,0,0,0,.16,1.34c.66-.39,1.13-.66,1.42-.79a1.94,1.94,0,0,0-.17-.3v-.07c0-.05,0-.07.06-.07h.11a1.2,1.2,0,0,0,.42.26c.37-.1.55-.19.55-.26l-.13-1.13A9.29,9.29,0,0,1,893,461.88Zm2.56.92s0,.08.16.17v-.1l0-.19h0S895.64,462.72,895.6,462.8Z" transform="translate(-181.03 -136.54)"/><path class="b" d="M906.89,451.38l.09.19v.3c-.25.39-.48.59-.69.59-.06,1.26-.1,2.08-.1,2.46.07,0,.1,0,.1.1a6.26,6.26,0,0,1,.89-.2l.1.2v.09c0,.12-.36.49-1.09,1.09v2.36a9.4,9.4,0,0,0,2.18-1.08l.09.19c-2,2.3-3.32,3.45-3.94,3.45H904a.83.83,0,0,1-.49-.69,8.8,8.8,0,0,1,1.87-1l-.1-.6a20,20,0,0,1,.19-2.16.17.17,0,0,1-.19-.19,5.52,5.52,0,0,1-1.09.19c-.39,0-.58-.23-.58-.69a3.56,3.56,0,0,1,1.77-.49v-2l.09-.49-.19-.1h-1.09a.84.84,0,0,1-.78-.49v-.2C903.44,452,904.59,451.73,906.89,451.38Zm1.08-2.56a6.68,6.68,0,0,0,2.16.68h.2a9.28,9.28,0,0,0,1.87-.58,1,1,0,0,1,.49.58,22.52,22.52,0,0,1-1.47,2.86c0,.75.59,1.31,1.77,1.67q2.89,1.85,3.15,2.86c-.13.3-.26.46-.39.49h-.21a14.9,14.9,0,0,0-3.83-2.36l-.1.19v.69c0,.22-.07,1.63-.2,4.24v1.67a9.29,9.29,0,0,1-.09,1.28,4.84,4.84,0,0,1,.09,1.09q0,1.56-.3,1.56c-.58-.08-.88-.37-.88-.88v-1.28a40.06,40.06,0,0,1,.2-4.53c0-.06,0-.09-.1-.09l.1-1.18v-2.86h-.1l-.79,1.08-.19.1h-.21c-.45,0-.68-.2-.68-.59a18.57,18.57,0,0,1,2-4.43v-.3c-1.9-.24-2.85-.76-2.85-1.57v-.1C907.58,449,907.71,448.85,908,448.82Z" transform="translate(-181.03 -136.54)"/><path class="b" d="M927.16,449.71a2,2,0,0,1,.49,1l-2.16,2.85a1.22,1.22,0,0,0-.2.6v.1a.67.67,0,0,0,.39.69,24.57,24.57,0,0,0,5.72-1.48h.29c.15,0,.25.16.3.49-.67.9-2.24,1.59-4.73,2.06H927v.21a7.19,7.19,0,0,1,1.18,3h.1l4.23-1.38H933a.61.61,0,0,1,.69.68c0,.52-.78,1.87-2.36,4-.22.86-.62,1.29-1.19,1.29h-.39a1.07,1.07,0,0,0-.29-.2h-.2c-.07.39-.17.59-.29.59h-.3q-.46,0-1.77-6c-.11,0-.27-.63-.49-1.88l-.2-.09h-.1a.61.61,0,0,0-.68.69q-.4,8-1.09,8h-.49c-.05,0-.15-.09-.3-.28.6-5.13.89-8.32.89-9.56h-.29l-1.18.1c0-.07,0-.1-.11-.1,0-.38,1.25-2,3.75-4.72C926.62,449.91,926.82,449.71,927.16,449.71Zm1.38,11.12.59,2.46q1.32,0,3.65-4.53c-.07,0-.1,0-.1-.09Q928.54,460.08,928.54,460.83Z" transform="translate(-181.03 -136.54)"/><path class="b" d="M943.88,450.17h.26c.06,0,.17.15.33.44v.17c0,.38-.59,1.05-1.75,2a1.76,1.76,0,0,0-.52.95c.13.69.25,1,.37,1a25.49,25.49,0,0,0,2.75-.78,1.21,1.21,0,0,1,.82,1.11,24.43,24.43,0,0,1-.2,2.53c.9,0,2.22.62,3.94,1.84l.1.46c0,.08-.18.15-.52.22a14.15,14.15,0,0,1-3.42-1.88h-.3v.47a16.2,16.2,0,0,0,.2,1.94,12.66,12.66,0,0,0-1.76,2.84,7.61,7.61,0,0,1-1,.86h-.3c-.41,0-.62-.89-.62-2.69-.18-5-.71-7.45-1.58-7.45l-.19-.63C940.47,453.39,941.61,452.23,943.88,450.17Zm-.85,5.66q0-.09-.24-.09c0,.13-.07.19-.21.19l.51,2.33a.69.69,0,0,0-.1.34l.34.23h1.11q.28,0,.87-3.36l-.28-.13A9.39,9.39,0,0,1,943,455.83Zm.25,4.41v2l.13.25c.3,0,.83-.51,1.6-1.53a3.84,3.84,0,0,1-.2-1.07h-.18C943.73,459.87,943.28,460,943.28,460.24Zm4.47-9.38a3.1,3.1,0,0,1,.36.42v.18a13.61,13.61,0,0,0-.49,3.56v.36l.55.1a13.23,13.23,0,0,0,3.75-1.66c.67.35,1,.79,1,1.3a30.62,30.62,0,0,1-1.18,5.69v1.59a1.94,1.94,0,0,1-.65,1.51H951c-.87-.16-1.9-1-3.09-2.44l-.25-.32.1,0a13.7,13.7,0,0,1,2.48,1.21,18.88,18.88,0,0,0,.82-3.72,12.13,12.13,0,0,0,.79-2.87v-.38a11.7,11.7,0,0,0-2.65,1.19l-.67.09H948c-.69,0-1.16-.5-1.41-1.51C946.58,452.27,947,450.86,947.75,450.86Z" transform="translate(-181.03 -136.54)"/><path class="b" d="M968.66,452.32c.3.13.46.26.49.39v.39c-.72.62-2.63,1.47-5.71,2.57a.09.09,0,0,1-.1.1l.1.19v.3c0,.33,0,.82-.1,1.48l.2.09h.69a11.45,11.45,0,0,0-.3-1.87c0-.18.17-.34.49-.49.59,0,.89,1,.89,3l-.1.59v1.09l.1.19a2.19,2.19,0,0,1,1.19-.49,6.11,6.11,0,0,1-1.19,1.28q.69,5.31.69,6.2l-.49.39H965c-.27,0-.53-.72-.79-2.16l.39-.2a24.48,24.48,0,0,1-.2-3.24.1.1,0,0,1-.1-.11c-.53.42-1.52,1.27-3,2.57h-.2c-.26-.14-.39-.3-.39-.5a7.16,7.16,0,0,1,1.18-1.38V462l.3-5.91h-.1a23.23,23.23,0,0,1-2.56.5.88.88,0,0,1-.79-.5v-.19c0-.26.73-.49,2.17-.69A69.85,69.85,0,0,0,968.66,452.32Zm-6.4-5.51c.3,0,.5.42.58,1.28h.21a11.68,11.68,0,0,1,3.45-1h.09c.41,0,.68.3.79.88-1,3.3-1.62,5-1.87,5.12a.77.77,0,0,1-.4.1c0-.09-.1-.19-.3-.29a6.89,6.89,0,0,0-2.06,1.58h-.4a.85.85,0,0,1-.49-.79v-.6c-.19-2.69-.29-4.46-.29-5.31v-.3A.6.6,0,0,1,962.26,446.81Zm.69,3.25c0,.13.08.19.19.19l1.58-.1c.26.07.39.2.39.4.13,0,.36-.66.69-2v-.1a26.69,26.69,0,0,1-2.85.79Zm.1,1.47a5.61,5.61,0,0,0,.29,1.08c1-.15,1.58-.35,1.58-.59a6,6,0,0,1,.19-1h-.19A4.32,4.32,0,0,1,963.05,451.53Zm1.08,8.76c0,.09-.36.39-1.08.89v.69h.09a3.73,3.73,0,0,0,1.18-.89v-.5A.17.17,0,0,0,964.13,460.29Zm-1-1.18v.69l1-.09h.1v-1.09h-.1C963.47,458.86,963.14,459,963.14,459.11Zm7.49-3.34c.45,0,.68.19.68.58q-2,4.06-2,4.24a8.92,8.92,0,0,1,2.16,2v.29a.65.65,0,0,1-.69.39q-1.64-1.86-2.16-1.86c-.61.91-1.17,1.37-1.67,1.37-.3-.12-.47-.25-.49-.39v-.3l1.47-1.47a3.94,3.94,0,0,0-1.47-1.38l-.6.1h-.1c-.09,0-.19-.1-.29-.3v-.29a35.16,35.16,0,0,1,5-3Zm-3,2.85v.19c0,.09.27.35.79.79h.2a9.46,9.46,0,0,0,.88-2h-.09C968.41,458.24,967.82,458.57,967.67,458.62Z" transform="translate(-181.03 -136.54)"/><path class="b" d="M982.74,449.41c.46.31.68,1.66.68,4a15.54,15.54,0,0,0,3.64-1.19h.21c.19,0,.29.13.29.4q-.48,1-3.84,2.27c0,.19-.13.28-.39.28v.11c0,.39,1.08,1.48,3.24,3.25a34.47,34.47,0,0,1,3.65,3.44v.59a.18.18,0,0,1-.2.2h-.09c-.5,0-1.52-.89-3.06-2.66-2.3-2.23-3.65-3.35-4-3.35v.11c-1.05,4.19-2.19,6.94-3.45,8.26h-.2c-.59,0-.92-.39-1-1.18h.49a14.85,14.85,0,0,0,2.07-4.62,34.17,34.17,0,0,0,.88-3.45h-.09a14.93,14.93,0,0,1-3.06.59q-1.47,0-1.47-1l.19-.09h.3q4.83-.45,4.83-1.88.09,0,.09-.39v-3.44Q982.44,449.56,982.74,449.41Z" transform="translate(-181.03 -136.54)"/><path class="b" d="M998.15,453.3h.3c.15,0,.25.16.29.49-.06,1.14-.1,2.06-.1,2.76h.1l1.68-.3.1.19v.21c0,.25-.63.57-1.88,1l-.09,1v2.46h.09l1.58-1.77c.13,0,.2.08.2.19a12,12,0,0,1-3.55,5.41h-.49q-.17,0-.39-.39v-.2a3.07,3.07,0,0,0,1.47-2.75v-.1c-.07-2.26-.1-3.45-.1-3.55l-.49.1h-.39a.83.83,0,0,1-.79-.59v-.09a1,1,0,0,1,1-.5h.6c.15,0,.28-.95.39-2.86C997.87,453.53,998,453.3,998.15,453.3Zm4.53-3.64c.17,0,.3.26.39.79a2.77,2.77,0,0,0-1,.88v.1l.59-.1q1.46,0,3.45,2.37a2.05,2.05,0,0,1,1-.4h.2c.13,0,.19.08.19.19v.21a8.29,8.29,0,0,1-2.26,1.67,7,7,0,0,0-.1,1.07.86.86,0,0,1,.1.3l1.18-.09.29.39v.1c-.07.25-.6.61-1.57,1.08v.49h.2a2.43,2.43,0,0,0,1-.39c.3.12.47.25.49.39,0,.43-.55.89-1.67,1.38v1.77h1.48c1.06,0,1.68.36,1.87,1.09-.1.26-.2.38-.3.38h-.2a1.64,1.64,0,0,0-.88-.38h-.4a30.15,30.15,0,0,0-4.22.88.18.18,0,0,0-.21-.2h-.09c-.08,0-.27.36-.6,1.09l-.19.09h-.19a.9.9,0,0,1-.5-.88c.06-3.93.1-6.36.1-7.28a4.87,4.87,0,0,0-.89-3.35c0-1.06.79-2.24,2.36-3.54A.77.77,0,0,1,1002.68,449.66Zm-1,2.16-.6,1a10.85,10.85,0,0,1,.69,4v3.75a.86.86,0,0,1-.09.39c0,.06,0,.1.09.1l-.09.69v1q0,.15.3.3a8.28,8.28,0,0,1,2.06-.89c0-.13,0-.2-.1-.2l.1-1v-.5c-.79,0-1.18-.26-1.18-.79,0-.1.39-.3,1.18-.58a.88.88,0,0,0,.1-.4v-.19a.18.18,0,0,0-.2-.2h-.79a.84.84,0,0,1-.79-.49v-.3q0-.27,1.68-.39l.1-.2v-1h-.1l-1.29.1a1.36,1.36,0,0,1-.39-.88,4.32,4.32,0,0,1,1.68-.59l.59-1.18v-.1a8.56,8.56,0,0,0-2.56-1.08C1002.09,452.12,1002,452,1001.7,451.82Z" transform="translate(-181.03 -136.54)"/></svg>