<svg xmlns="http://www.w3.org/2000/svg" viewBox="0 0 500.71 261.31"><defs><style>.a{fill:none;stroke:#3ea69f;stroke-miterlimit:10;}.b{fill:#3ea69f;}</style></defs><circle class="a" cx="218.59" cy="18.5" r="18"/><path class="b" d="M612.47,84.31h-7.71V82.8h9.7v1.07c-3.55,4-4.41,7.07-4.62,12.32H608A17.92,17.92,0,0,1,612.47,84.31Z" transform="translate(-391 -71.69)"/><circle class="a" cx="48.5" cy="165.81" r="18"/><path class="b" d="M428.1,241.86l.88-1.13a5.41,5.41,0,0,0,3.84,1.57c1.83,0,3.19-.94,3.19-2.43s-1.34-2.67-4.85-2.67v-1.32c3.17,0,4.39-1.09,4.39-2.5s-1.11-2.1-2.73-2.1a5.12,5.12,0,0,0-3.3,1.34l-.92-1.09a6.51,6.51,0,0,1,4.28-1.68c2.52,0,4.43,1.24,4.43,3.4,0,1.62-1.19,2.65-2.85,3.2v.08c1.78.38,3.32,1.55,3.32,3.4,0,2.37-2.19,3.82-4.85,3.82A6.54,6.54,0,0,1,428.1,241.86Z" transform="translate(-391 -71.69)"/><path class="b" d="M441,236.76c0-4.49,1.83-6.91,4.81-6.91s4.81,2.42,4.81,6.91-1.83,7-4.81,7S441,241.21,441,236.76Zm8,0c0-3.84-1.32-5.5-3.19-5.5s-3.19,1.66-3.19,5.5,1.32,5.59,3.19,5.59S449,240.6,449,236.76Zm-4.49-.15a1.3,1.3,0,1,1,1.3,1.41A1.3,1.3,0,0,1,444.5,236.61Z" transform="translate(-391 -71.69)"/><circle class="a" cx="18.5" cy="242.81" r="18"/><path class="b" d="M404.63,311.28c0-.73.06-1.64.1-2.37h-.1c-.44.65-.93,1.3-1.37,1.95l-3.61,4.54h8.69v1.4H397.72v-1.15l6.68-8.55h1.86v13.4h-1.63Z" transform="translate(-391 -71.69)"/><path class="b" d="M410.68,318.93l.86-1.16a5.31,5.31,0,0,0,3.78,1.53,3.11,3.11,0,0,0,3.38-3c0-1.85-1.31-2.92-3.28-2.92a5,5,0,0,0-2.73.8l-.92-.59.44-6.45h7.58v1.52h-6.05l-.36,3.94a5.84,5.84,0,0,1,2.48-.54c2.56,0,4.6,1.3,4.6,4.2s-2.39,4.53-5,4.53A6.71,6.71,0,0,1,410.68,318.93Z" transform="translate(-391 -71.69)"/><circle class="a" cx="73.5" cy="242.81" r="18"/><path class="b" d="M453.08,318.93l.86-1.16a5.31,5.31,0,0,0,3.78,1.53,3.11,3.11,0,0,0,3.38-3c0-1.85-1.31-2.92-3.28-2.92a5,5,0,0,0-2.73.8l-.92-.59.44-6.45h7.58v1.52h-6.05l-.36,3.94a5.84,5.84,0,0,1,2.48-.54c2.56,0,4.6,1.3,4.6,4.2s-2.39,4.53-4.95,4.53A6.72,6.72,0,0,1,453.08,318.93Z" transform="translate(-391 -71.69)"/><path class="b" d="M466,313.76c0-4.49,1.83-6.91,4.81-6.91s4.81,2.42,4.81,6.91-1.83,7-4.81,7S466,318.21,466,313.76Zm8,0c0-3.84-1.32-5.5-3.19-5.5s-3.19,1.66-3.19,5.5,1.32,5.59,3.19,5.59S474,317.6,474,313.76Zm-4.49-.15a1.3,1.3,0,1,1,1.3,1.41A1.3,1.3,0,0,1,469.5,313.61Z" transform="translate(-391 -71.69)"/><circle class="a" cx="107.59" cy="92.5" r="18"/><path class="b" d="M495.17,158.31h-7.71V156.8h9.7v1.07c-3.55,4-4.41,7.07-4.62,12.32h-1.83A17.92,17.92,0,0,1,495.17,158.31Z" transform="translate(-391 -71.69)"/><path class="b" d="M500.08,163.45c0-4.49,1.83-6.9,4.81-6.9s4.81,2.41,4.81,6.9-1.83,7-4.81,7S500.08,167.9,500.08,163.45Zm8,0c0-3.84-1.32-5.5-3.19-5.5s-3.19,1.66-3.19,5.5S503,169,504.89,169,508.08,167.3,508.08,163.45Zm-4.49-.14a1.3,1.3,0,1,1,1.3,1.4A1.31,1.31,0,0,1,503.59,163.31Z" transform="translate(-391 -71.69)"/><line class="a" x1="204.61" y1="29.84" x2="119.09" y2="79"/><line class="a" x1="232.57" y1="29.84" x2="318.09" y2="79"/><circle class="a" cx="329.5" cy="92.81" r="18"/><path class="b" d="M715.63,161.28c0-.73.06-1.63.1-2.37h-.1c-.44.65-.93,1.3-1.37,2l-3.61,4.54h8.69v1.4H708.72v-1.15l6.68-8.55h1.86v13.4h-1.63Z" transform="translate(-391 -71.69)"/><path class="b" d="M722,163.76c0-4.49,1.83-6.91,4.81-6.91s4.81,2.42,4.81,6.91-1.83,7-4.81,7S722,168.21,722,163.76Zm8,0c0-3.84-1.32-5.5-3.19-5.5s-3.19,1.66-3.19,5.5,1.32,5.59,3.19,5.59S730,167.6,730,163.76Zm-4.49-.15a1.3,1.3,0,1,1,1.3,1.41A1.3,1.3,0,0,1,725.5,163.61Z" transform="translate(-391 -71.69)"/><line class="a" x1="41.44" y1="182.37" x2="24.63" y2="225.88"/><circle class="a" cx="238.5" cy="242.81" r="18"/><path class="b" d="M618.94,319.05h3.86v-9.83h-3v-1.13a9.5,9.5,0,0,0,3.44-1h1.3v11.95H628v1.45h-9.09Z" transform="translate(-391 -71.69)"/><path class="b" d="M631,319.47c4.54-4,7-6.36,7-8.59,0-1.53-.92-2.6-2.89-2.6a4.58,4.58,0,0,0-3.21,1.6l-1-1a6,6,0,0,1,4.43-2c2.68,0,4.36,1.58,4.36,3.95s-2.51,5-6.15,8.31c.84-.06,1.7-.1,2.5-.1h4.39v1.49H631Z" transform="translate(-391 -71.69)"/><line class="a" x1="261.44" y1="182.37" x2="244.63" y2="225.88"/><line class="a" x1="55.73" y1="182.37" x2="67.37" y2="225.88"/><circle class="a" cx="128.5" cy="242.81" r="18"/><path class="b" d="M508.1,318.86l.88-1.13a5.41,5.41,0,0,0,3.84,1.57c1.83,0,3.19-.94,3.19-2.43s-1.34-2.67-4.85-2.67v-1.32c3.17,0,4.39-1.09,4.39-2.5s-1.11-2.1-2.73-2.1a5.12,5.12,0,0,0-3.3,1.34l-.92-1.09a6.51,6.51,0,0,1,4.28-1.68c2.52,0,4.43,1.24,4.43,3.4,0,1.62-1.19,2.65-2.85,3.2v.08c1.78.38,3.32,1.55,3.32,3.4,0,2.37-2.19,3.82-4.85,3.82A6.54,6.54,0,0,1,508.1,318.86Z" transform="translate(-391 -71.69)"/><path class="b" d="M521,313.76c0-4.49,1.83-6.91,4.81-6.91s4.81,2.42,4.81,6.91-1.83,7-4.81,7S521,318.21,521,313.76Zm8,0c0-3.84-1.32-5.5-3.19-5.5s-3.19,1.66-3.19,5.5,1.32,5.59,3.19,5.59S529,317.6,529,313.76Zm-4.49-.15a1.3,1.3,0,1,1,1.3,1.41A1.3,1.3,0,0,1,524.5,313.61Z" transform="translate(-391 -71.69)"/><circle class="a" cx="183.5" cy="242.81" r="18"/><path class="b" d="M563.43,319.47c4.54-4,7-6.36,7-8.59,0-1.53-.93-2.6-2.9-2.6a4.58,4.58,0,0,0-3.21,1.6l-1-1a6,6,0,0,1,4.43-2c2.69,0,4.37,1.58,4.37,3.95s-2.52,5-6.16,8.31c.84-.06,1.7-.1,2.5-.1h4.39v1.49h-9.43Z" transform="translate(-391 -71.69)"/><path class="b" d="M576,313.76c0-4.49,1.83-6.91,4.81-6.91s4.81,2.42,4.81,6.91-1.83,7-4.81,7S576,318.21,576,313.76Zm8,0c0-3.84-1.32-5.5-3.19-5.5s-3.19,1.66-3.19,5.5,1.32,5.59,3.19,5.59S584,317.6,584,313.76Zm-4.49-.15a1.3,1.3,0,1,1,1.3,1.41A1.3,1.3,0,0,1,579.5,313.61Z" transform="translate(-391 -71.69)"/><line class="a" x1="151.44" y1="182.37" x2="134.63" y2="225.88"/><line class="a" x1="165.73" y1="182.37" x2="177.37" y2="225.88"/><circle class="a" cx="296.5" cy="242.81" r="18"/><path class="b" d="M715.36,318.36l.56-1.3a5.44,5.44,0,0,0,2.33.57c2,0,2.56-1,2.56-2.75V305.7h-4.72v-1.4h6.47v10.45c0,2.5-1,4.31-4.29,4.31A6.71,6.71,0,0,1,715.36,318.36Zm4.76-17.55a1.39,1.39,0,0,1,2.77,0,1.39,1.39,0,0,1-2.77,0Z" transform="translate(-391 -71.69)"/><line class="a" x1="278.73" y1="182.37" x2="290.37" y2="225.88"/><circle class="a" cx="157.5" cy="165.81" r="18"/><path class="b" d="M543.86,242.35l1-1.1a4,4,0,0,0,2.67,1.05c2.16,0,4.07-1.53,4.07-6,0-3.3-1.28-5.06-3.48-5.06a2.77,2.77,0,0,0-2.84,2.92A2.57,2.57,0,0,0,548.1,237a4.69,4.69,0,0,0,3.49-1.89l.06,1.37a5.55,5.55,0,0,1-3.89,1.82,3.79,3.79,0,0,1-4.15-4.13,4.32,4.32,0,0,1,4.45-4.31c2.92,0,5.14,2.14,5.14,6.45,0,5.37-2.71,7.45-5.6,7.45A5.44,5.44,0,0,1,543.86,242.35Z" transform="translate(-391 -71.69)"/><line class="a" x1="93.32" y1="103.46" x2="55.5" y2="149.22"/><line class="a" x1="121.86" y1="103.46" x2="150.5" y2="149.22"/><circle class="a" cx="270.5" cy="165.81" r="18"/><path class="b" d="M650.94,242.05h3.86v-9.83h-3v-1.13a9.5,9.5,0,0,0,3.44-1h1.3v12H660v1.45h-9.09Z" transform="translate(-391 -71.69)"/><path class="b" d="M663,236.76c0-4.49,1.83-6.91,4.81-6.91s4.81,2.42,4.81,6.91-1.83,7-4.81,7S663,241.21,663,236.76Zm8,0c0-3.84-1.32-5.5-3.19-5.5s-3.19,1.66-3.19,5.5,1.32,5.59,3.19,5.59S671,240.6,671,236.76Zm-4.49-.15a1.3,1.3,0,1,1,1.3,1.41A1.3,1.3,0,0,1,666.5,236.61Z" transform="translate(-391 -71.69)"/><circle class="a" cx="379.5" cy="165.81" r="18"/><path class="b" d="M759.94,242.05h3.86v-9.83h-3v-1.13a9.5,9.5,0,0,0,3.44-1h1.3v12H769v1.45h-9.09Z" transform="translate(-391 -71.69)"/><path class="b" d="M771.68,241.93l.86-1.16a5.31,5.31,0,0,0,3.78,1.53,3.11,3.11,0,0,0,3.38-3c0-1.85-1.31-2.92-3.28-2.92a5,5,0,0,0-2.73.8l-.92-.59.44-6.45h7.58v1.52h-6l-.36,3.94a5.84,5.84,0,0,1,2.48-.54c2.56,0,4.6,1.3,4.6,4.2s-2.39,4.53-5,4.53A6.73,6.73,0,0,1,771.68,241.93Z" transform="translate(-391 -71.69)"/><line class="a" x1="315.32" y1="103.46" x2="277.5" y2="149.22"/><line class="a" x1="343.86" y1="103.46" x2="372.5" y2="149.22"/><path class="b" d="M852.63,85.59c.3.12.46.25.49.39v.39c-.72.62-2.63,1.47-5.71,2.56,0,.07,0,.11-.1.11l.1.19v.3a14.64,14.64,0,0,1-.1,1.47l.2.1h.69a11.45,11.45,0,0,0-.3-1.87c0-.18.17-.34.49-.49.59,0,.89,1,.89,3l-.1.6v1.09l.1.19a2.19,2.19,0,0,1,1.19-.49,6.11,6.11,0,0,1-1.19,1.28c.46,3.54.69,5.61.69,6.19l-.49.4H849c-.27,0-.53-.72-.79-2.16l.39-.21a24.48,24.48,0,0,1-.2-3.24.09.09,0,0,1-.1-.1c-.53.42-1.52,1.27-2.95,2.57h-.2c-.26-.14-.39-.31-.39-.5A7.16,7.16,0,0,1,845.93,96v-.79l.3-5.91h-.1a23.78,23.78,0,0,1-2.55.5.86.86,0,0,1-.79-.5v-.19q0-.39,2.16-.69A68.38,68.38,0,0,0,852.63,85.59Zm-6.4-5.52c.3,0,.5.43.59,1.29h.2a11.76,11.76,0,0,1,3.45-1h.09c.42,0,.68.3.79.88-1,3.3-1.62,5-1.87,5.12a.74.74,0,0,1-.4.1c0-.09-.1-.19-.3-.29a7.05,7.05,0,0,0-2.06,1.57h-.4a.84.84,0,0,1-.49-.79v-.59c-.19-2.69-.29-4.46-.29-5.31v-.3A.61.61,0,0,1,846.23,80.07Zm.69,3.25c0,.13.08.2.19.2l1.58-.1c.26.07.39.2.39.4.13,0,.36-.66.69-2v-.1a29.27,29.27,0,0,1-2.85.79Zm.1,1.48a6.45,6.45,0,0,0,.29,1.08c1.05-.15,1.58-.35,1.58-.59a5.83,5.83,0,0,1,.19-1h-.19A4.32,4.32,0,0,1,847,84.8Zm1.08,8.76c0,.09-.36.38-1.08.89v.69h.09a3.73,3.73,0,0,0,1.18-.89v-.5A.17.17,0,0,0,848.1,93.56Zm-1-1.18v.69l1-.1h.1V91.89h-.1C847.44,92.13,847.11,92.3,847.11,92.38ZM854.6,89c.46,0,.69.19.69.58-1.32,2.71-2,4.12-2,4.24a9.17,9.17,0,0,1,2.16,2v.3a.65.65,0,0,1-.69.39q-1.63-1.86-2.16-1.86C852,95.56,851.46,96,851,96c-.3-.12-.47-.25-.49-.39v-.3l1.47-1.47a3.94,3.94,0,0,0-1.47-1.38l-.6.09h-.1c-.09,0-.19-.1-.29-.29V92a35.16,35.16,0,0,1,5-2.95Zm-3,2.85v.19c0,.08.26.35.78.79h.2a9.46,9.46,0,0,0,.88-2h-.09Q851.86,91.82,851.65,91.89Z" transform="translate(-391 -71.69)"/><path class="b" d="M861,87.4h.28a2.64,2.64,0,0,1,.6,1.87v1.28c0,2.23-.23,3.35-.69,3.35h-.3a.67.67,0,0,1-.39-.69c.13-1.35.2-2.27.2-2.76V87.69C860.7,87.6,860.8,87.5,861,87.4Zm5.11-4.33c1.19,1,1.78,2.58,1.78,4.82V89c0,2-.17,4.91-.49,8.76a1,1,0,0,1-.5.3,16,16,0,0,1-2.76-3.45,3.32,3.32,0,0,0-.29-.88h.1A29.8,29.8,0,0,1,866.11,96h.2l.39-7.59a18,18,0,0,0-.78-5.21Zm4.43,4.23c.68,0,2.06,1.35,4.14,4a.68.68,0,0,1-.39.7,20.16,20.16,0,0,1-3.94-4.14,2.52,2.52,0,0,1-.1-.39Z" transform="translate(-391 -71.69)"/><path class="b" d="M886.89,82.43h.69c.19,0,.32.27.38.79a5.47,5.47,0,0,1-2.16,2.17A12.18,12.18,0,0,1,884.43,87h.09a2.81,2.81,0,0,1,1.19-.69h.09c.09,0,.25.16.49.49V87a6.49,6.49,0,0,1-2.85,1.87v.1A21.82,21.82,0,0,0,887.77,90l.3.4v.29H888a22.14,22.14,0,0,1-5-.69,9.75,9.75,0,0,0-.3,2.56l.39.3,4.54-1.09h.19c.4.28.59.55.59.79l-2,3.35v.19h.19a23.5,23.5,0,0,1,2.56-2.46c1.71.42,2.56,1,2.56,1.77l-.2.11-2.07-.79h-.09q-3,3.93-4.63,3.93h-.29c-.09,0-.22-.17-.4-.49v-.1a33.23,33.23,0,0,1,2.56-4.52v-.4h-.1a16.32,16.32,0,0,1-3.84.89c-.71,2.76-1.23,4.13-1.58,4.13h-.28c-.1,0-.23-.17-.4-.49v-.1a45.48,45.48,0,0,0,1.38-7.28V87.06a10.14,10.14,0,0,1,.2-2.56c0-.32-.37-.52-1.09-.59a.81.81,0,0,1-.39-.69V83l.09-.21,1.19.1C884.72,82.6,886.42,82.43,886.89,82.43Zm-4.24,4.92h.3a25,25,0,0,0,3.64-3.64v-.29c-2.36.37-3.55.7-3.55,1C882.91,85.73,882.78,86.72,882.65,87.35Z" transform="translate(-391 -71.69)"/><path class="b" d="M852.62,153.59c.31.12.47.25.5.39v.39q-1.1.93-5.71,2.56a.1.1,0,0,1-.11.11l.11.19v.3c0,.33,0,.82-.11,1.47l.21.1h.69a11.45,11.45,0,0,0-.3-1.87c0-.18.16-.34.49-.49.59,0,.88,1,.88,3l-.09.6v1.09l.09.19a2.22,2.22,0,0,1,1.19-.49,6.11,6.11,0,0,1-1.19,1.28c.47,3.54.7,5.61.7,6.19l-.49.4H849q-.39,0-.78-2.16l.38-.21a26.43,26.43,0,0,1-.19-3.24c-.07,0-.1,0-.1-.1-.54.42-1.52,1.27-3,2.57h-.19c-.26-.14-.39-.31-.39-.5a6.74,6.74,0,0,1,1.18-1.38v-.79l.3-5.91h-.11a22.82,22.82,0,0,1-2.55.5.88.88,0,0,1-.79-.5v-.19q0-.39,2.16-.69A68.38,68.38,0,0,0,852.62,153.59Zm-6.39-5.52c.3,0,.49.43.58,1.29H847a11.72,11.72,0,0,1,3.44-1h.09c.42,0,.68.3.79.88-1,3.3-1.61,5-1.86,5.12a.77.77,0,0,1-.4.1c0-.09-.1-.19-.3-.29a6.92,6.92,0,0,0-2.06,1.57h-.4a.83.83,0,0,1-.49-.79v-.59c-.2-2.69-.29-4.46-.29-5.31v-.3A.61.61,0,0,1,846.23,148.07Zm.68,3.25c0,.13.09.2.2.2l1.58-.1c.26.07.39.2.39.4.13,0,.36-.66.68-2v-.1a27.79,27.79,0,0,1-2.85.79Zm.11,1.48a6.49,6.49,0,0,0,.28,1.08c1.06-.15,1.58-.35,1.58-.59a6.36,6.36,0,0,1,.2-1h-.2A4.26,4.26,0,0,1,847,152.8Zm1.07,8.76c0,.09-.36.38-1.07.89v.69h.09a3.87,3.87,0,0,0,1.18-.89v-.5C848.29,161.62,848.22,161.56,848.09,161.56Zm-1-1.18v.69l1-.1h.11v-1.08h-.11C847.44,160.13,847.11,160.3,847.11,160.38Zm7.48-3.34c.46,0,.69.19.69.58q-2,4.06-2,4.24a9.08,9.08,0,0,1,2.17,2v.3a.67.67,0,0,1-.69.39c-1.1-1.24-1.82-1.86-2.17-1.86-.6.91-1.16,1.37-1.67,1.37-.3-.12-.46-.25-.49-.39v-.3l1.48-1.47a3.91,3.91,0,0,0-1.48-1.38l-.59.09h-.11c-.09,0-.18-.1-.28-.29V160a35.38,35.38,0,0,1,5-3Zm-3,2.85v.19c0,.08.26.35.79.79h.19a9.84,9.84,0,0,0,.89-2h-.1C852.38,159.51,851.78,159.84,851.64,159.89Z" transform="translate(-391 -71.69)"/><path class="b" d="M866.7,150.68c.46.31.69,1.66.69,4a15.84,15.84,0,0,0,3.64-1.19h.21c.19,0,.28.13.28.4q-.48,1-3.83,2.27c0,.19-.13.28-.39.28v.1c0,.4,1.08,1.48,3.24,3.26a35.8,35.8,0,0,1,3.65,3.44v.59a.18.18,0,0,1-.21.2h-.09c-.5,0-1.52-.89-3-2.67-2.31-2.22-3.65-3.34-4-3.34v.1q-1.57,6.28-3.45,8.27h-.2c-.59,0-.92-.39-1-1.18h.49a14.37,14.37,0,0,0,2.07-4.63c.59-2.09.89-3.24.89-3.44h-.1a14.63,14.63,0,0,1-3,.58c-1,0-1.48-.32-1.48-1l.2-.09h.29q4.83-.45,4.83-1.88c.07,0,.1-.13.1-.39V151C866.41,150.88,866.5,150.78,866.7,150.68Z" transform="translate(-391 -71.69)"/><path class="b" d="M886.89,150.43h.69c.2,0,.33.27.39.79a5.47,5.47,0,0,1-2.16,2.17,11.88,11.88,0,0,1-1.38,1.57h.09a2.86,2.86,0,0,1,1.19-.69h.1c.09,0,.25.16.49.49v.2a6.49,6.49,0,0,1-2.85,1.87v.1a21.33,21.33,0,0,0,4.33,1.08l.29.4v.29H888a22.07,22.07,0,0,1-5-.69,9.28,9.28,0,0,0-.3,2.56l.39.3,4.53-1.09h.2c.39.28.59.55.59.79l-2,3.35v.19h.2a22.35,22.35,0,0,1,2.56-2.46q2.55.63,2.55,1.77l-.19.11-2.07-.79h-.1q-3,3.93-4.62,3.93h-.3c-.09,0-.22-.17-.4-.49v-.1a33.93,33.93,0,0,1,2.57-4.52v-.4h-.11a16.21,16.21,0,0,1-3.83.89c-.71,2.76-1.24,4.13-1.58,4.13h-.29c-.09,0-.23-.17-.4-.49v-.1a44.79,44.79,0,0,0,1.39-7.28v-3.25a10.31,10.31,0,0,1,.19-2.56c0-.32-.36-.52-1.09-.59a.8.8,0,0,1-.38-.69V151l.09-.21,1.19.1C884.72,150.6,886.43,150.43,886.89,150.43Zm-4.23,4.92h.3a25.57,25.57,0,0,0,3.64-3.64v-.29c-2.37.37-3.55.7-3.55,1C882.92,153.73,882.79,154.72,882.66,155.35Z" transform="translate(-391 -71.69)"/><path class="b" d="M852.63,232.59c.3.12.46.25.49.39v.39c-.72.62-2.63,1.47-5.71,2.56,0,.07,0,.11-.1.11l.1.19v.3a14.64,14.64,0,0,1-.1,1.47l.2.1h.69a11.45,11.45,0,0,0-.3-1.87c0-.18.17-.34.49-.49.59,0,.89,1,.89,3l-.1.6v1.09l.1.19a2.19,2.19,0,0,1,1.19-.49,6.11,6.11,0,0,1-1.19,1.28c.46,3.54.69,5.61.69,6.19l-.49.4H849c-.27,0-.53-.72-.79-2.16l.39-.21a24.48,24.48,0,0,1-.2-3.24.09.09,0,0,1-.1-.1c-.53.42-1.52,1.27-2.95,2.57h-.2c-.26-.14-.39-.31-.39-.5a7.16,7.16,0,0,1,1.18-1.38v-.79l.3-5.91h-.1a23.78,23.78,0,0,1-2.55.5.86.86,0,0,1-.79-.5v-.19q0-.39,2.16-.69A68.38,68.38,0,0,0,852.63,232.59Zm-6.4-5.52c.3,0,.5.43.59,1.29h.2a11.76,11.76,0,0,1,3.45-1h.09c.42,0,.68.3.79.88-1,3.3-1.62,5-1.87,5.12a.74.74,0,0,1-.4.1c0-.09-.1-.19-.3-.29a7.05,7.05,0,0,0-2.06,1.57h-.4a.84.84,0,0,1-.49-.79v-.59c-.19-2.69-.29-4.46-.29-5.31v-.3A.61.61,0,0,1,846.23,227.07Zm.69,3.26c0,.13.08.19.19.19l1.58-.1c.26.07.39.2.39.4.13,0,.36-.66.69-2v-.1a29.27,29.27,0,0,1-2.85.79Zm.1,1.47a6.45,6.45,0,0,0,.29,1.08c1.05-.15,1.58-.35,1.58-.59a5.83,5.83,0,0,1,.19-1h-.19A4.32,4.32,0,0,1,847,231.8Zm1.08,8.76c0,.09-.36.38-1.08.89v.69h.09a3.73,3.73,0,0,0,1.18-.89v-.5A.17.17,0,0,0,848.1,240.56Zm-1-1.18v.69l1-.1h.1v-1.08h-.1C847.44,239.13,847.11,239.3,847.11,239.38ZM854.6,236c.46,0,.69.19.69.58-1.32,2.71-2,4.12-2,4.24a9.17,9.17,0,0,1,2.16,2v.3a.65.65,0,0,1-.69.39q-1.63-1.86-2.16-1.86c-.61.91-1.17,1.37-1.67,1.37-.3-.12-.47-.25-.49-.39v-.3l1.47-1.47a3.94,3.94,0,0,0-1.47-1.38l-.6.09h-.1c-.09,0-.19-.1-.29-.29V239a35.16,35.16,0,0,1,5-3Zm-3,2.85v.19c0,.08.26.35.78.79h.2a9.46,9.46,0,0,0,.88-2h-.09Q851.86,238.82,851.65,238.89Z" transform="translate(-391 -71.69)"/><path class="b" d="M861,234.4h.28a2.64,2.64,0,0,1,.6,1.87v1.28c0,2.23-.23,3.35-.69,3.35h-.3a.67.67,0,0,1-.39-.69c.13-1.35.2-2.27.2-2.76v-2.76C860.7,234.6,860.8,234.5,861,234.4Zm5.11-4.33c1.19,1,1.78,2.58,1.78,4.82V236c0,2-.17,4.91-.49,8.76a1,1,0,0,1-.5.3,16,16,0,0,1-2.76-3.45,3.32,3.32,0,0,0-.29-.88h.1a29.8,29.8,0,0,1,2.16,2.27h.2l.39-7.59a18,18,0,0,0-.78-5.21Zm4.43,4.23c.68,0,2.06,1.35,4.14,4a.68.68,0,0,1-.39.7,20.16,20.16,0,0,1-3.94-4.14,2.52,2.52,0,0,1-.1-.39Z" transform="translate(-391 -71.69)"/><path class="b" d="M886.89,229.43h.69c.19,0,.32.27.38.79a5.47,5.47,0,0,1-2.16,2.17,12.18,12.18,0,0,1-1.37,1.57h.09a2.81,2.81,0,0,1,1.19-.69h.09c.09,0,.25.16.49.49v.2a6.49,6.49,0,0,1-2.85,1.87v.1a21.82,21.82,0,0,0,4.33,1.08l.3.4v.29H888a22.14,22.14,0,0,1-5-.69,9.75,9.75,0,0,0-.3,2.56l.39.3,4.54-1.09h.19c.4.28.59.55.59.79l-2,3.35v.19h.19a23.5,23.5,0,0,1,2.56-2.46c1.71.42,2.56,1,2.56,1.77l-.2.11-2.07-.79h-.09q-3,3.93-4.63,3.93h-.29c-.09,0-.22-.17-.4-.49v-.1a33.23,33.23,0,0,1,2.56-4.52v-.4h-.1a15.83,15.83,0,0,1-3.84.89c-.71,2.76-1.23,4.13-1.58,4.13h-.28c-.1,0-.23-.17-.4-.49v-.1a45.48,45.48,0,0,0,1.38-7.28v-3.25a10.2,10.2,0,0,1,.2-2.56c0-.32-.37-.52-1.09-.59a.81.81,0,0,1-.39-.69V230l.09-.21,1.19.1C884.72,229.6,886.42,229.43,886.89,229.43Zm-4.24,4.92h.3a25,25,0,0,0,3.64-3.64v-.29c-2.36.37-3.55.7-3.55,1C882.91,232.73,882.78,233.72,882.65,234.35Z" transform="translate(-391 -71.69)"/><path class="b" d="M852.62,309.59c.31.12.47.25.5.39v.39q-1.1.93-5.71,2.56a.1.1,0,0,1-.11.11l.11.19v.3c0,.33,0,.82-.11,1.47l.21.1h.69a11.45,11.45,0,0,0-.3-1.87c0-.18.16-.34.49-.49.59,0,.88,1,.88,3l-.09.6v1.09l.09.19a2.22,2.22,0,0,1,1.19-.49,6.11,6.11,0,0,1-1.19,1.28c.47,3.54.7,5.61.7,6.19l-.49.4H849q-.39,0-.78-2.16l.38-.21a26.43,26.43,0,0,1-.19-3.24c-.07,0-.1,0-.1-.1-.54.42-1.52,1.27-3,2.57h-.19c-.26-.14-.39-.31-.39-.5a6.74,6.74,0,0,1,1.18-1.38v-.79l.3-5.91h-.11a22.82,22.82,0,0,1-2.55.5.88.88,0,0,1-.79-.5v-.19q0-.39,2.16-.69A68.38,68.38,0,0,0,852.62,309.59Zm-6.39-5.52c.3,0,.49.43.58,1.29H847a11.72,11.72,0,0,1,3.44-1h.09c.42,0,.68.3.79.88-1,3.3-1.61,5-1.86,5.12a.77.77,0,0,1-.4.1c0-.09-.1-.19-.3-.29a6.92,6.92,0,0,0-2.06,1.57h-.4a.83.83,0,0,1-.49-.79v-.59c-.2-2.69-.29-4.46-.29-5.31v-.3A.61.61,0,0,1,846.23,304.07Zm.68,3.26c0,.13.09.19.2.19l1.58-.1c.26.07.39.2.39.4.13,0,.36-.66.68-2v-.1a27.79,27.79,0,0,1-2.85.79Zm.11,1.47a6.49,6.49,0,0,0,.28,1.08c1.06-.15,1.58-.35,1.58-.59a6.36,6.36,0,0,1,.2-1h-.2A4.26,4.26,0,0,1,847,308.8Zm1.07,8.76c0,.09-.36.38-1.07.89v.69h.09a3.87,3.87,0,0,0,1.18-.89v-.5C848.29,317.62,848.22,317.56,848.09,317.56Zm-1-1.18v.69l1-.1h.11v-1.08h-.11C847.44,316.13,847.11,316.3,847.11,316.38Zm7.48-3.34c.46,0,.69.19.69.58q-2,4.06-2,4.24a9.08,9.08,0,0,1,2.17,2v.3a.67.67,0,0,1-.69.39c-1.1-1.24-1.82-1.86-2.17-1.86-.6.91-1.16,1.37-1.67,1.37-.3-.12-.46-.25-.49-.39v-.3l1.48-1.47a3.91,3.91,0,0,0-1.48-1.38l-.59.09h-.11c-.09,0-.18-.1-.28-.29V316a35.38,35.38,0,0,1,5-2.95Zm-3,2.85v.19c0,.08.26.35.79.79h.19a9.84,9.84,0,0,0,.89-2h-.1C852.38,315.51,851.78,315.84,851.64,315.89Z" transform="translate(-391 -71.69)"/><path class="b" d="M866.7,306.68c.46.31.69,1.66.69,4a15.84,15.84,0,0,0,3.64-1.19h.21c.19,0,.28.13.28.4q-.48,1-3.83,2.27c0,.19-.13.28-.39.28v.1q0,.6,3.24,3.26a35.8,35.8,0,0,1,3.65,3.44v.59a.18.18,0,0,1-.21.2h-.09c-.5,0-1.52-.89-3-2.67-2.31-2.22-3.65-3.34-4-3.34v.1q-1.57,6.29-3.45,8.27h-.2c-.59,0-.92-.39-1-1.18h.49a14.37,14.37,0,0,0,2.07-4.63c.59-2.09.89-3.24.89-3.44h-.1a14.63,14.63,0,0,1-3,.58c-1,0-1.48-.32-1.48-1l.2-.09h.29q4.83-.45,4.83-1.88c.07,0,.1-.13.1-.39V307C866.41,306.88,866.5,306.78,866.7,306.68Z" transform="translate(-391 -71.69)"/><path class="b" d="M886.89,306.43h.69c.2,0,.33.27.39.79a5.47,5.47,0,0,1-2.16,2.17,11.88,11.88,0,0,1-1.38,1.57h.09a2.86,2.86,0,0,1,1.19-.69h.1c.09,0,.25.16.49.49v.2a6.49,6.49,0,0,1-2.85,1.87v.1a21.33,21.33,0,0,0,4.33,1.08l.29.4v.29H888a22.07,22.07,0,0,1-5-.69,9.28,9.28,0,0,0-.3,2.56l.39.3,4.53-1.09h.2c.39.28.59.55.59.79l-2,3.35v.19h.2a22.35,22.35,0,0,1,2.56-2.46q2.55.63,2.55,1.77l-.19.11-2.07-.79h-.1q-3,3.93-4.62,3.93h-.3c-.09,0-.22-.17-.4-.49v-.1a33.93,33.93,0,0,1,2.57-4.52v-.4h-.11a15.73,15.73,0,0,1-3.83.89c-.71,2.76-1.24,4.13-1.58,4.13h-.29c-.09,0-.23-.17-.4-.49v-.1a44.79,44.79,0,0,0,1.39-7.28v-3.25a10.37,10.37,0,0,1,.19-2.56c0-.32-.36-.52-1.09-.59a.8.8,0,0,1-.38-.69V307l.09-.21,1.19.1C884.72,306.6,886.43,306.43,886.89,306.43Zm-4.23,4.92h.3a25.57,25.57,0,0,0,3.64-3.64v-.29c-2.37.37-3.55.7-3.55,1C882.92,309.73,882.79,310.72,882.66,311.35Z" transform="translate(-391 -71.69)"/></svg>