<svg xmlns="http://www.w3.org/2000/svg" viewBox="0 0 398 283.81"><defs><style>.a{fill:none;stroke:#3ea69f;stroke-miterlimit:10;}.b{fill:#3ea69f;}</style></defs><circle class="a" cx="218.59" cy="18.5" r="18"/><circle class="a" cx="48.5" cy="165.81" r="18"/><path class="b" d="M428.94,242.05h3.86v-9.83h-3v-1.13a9.5,9.5,0,0,0,3.44-1h1.3v12H438v1.45h-9.09Z" transform="translate(-391 -71.69)"/><path class="b" d="M441,236.76c0-4.49,1.83-6.91,4.81-6.91s4.81,2.42,4.81,6.91-1.83,7-4.81,7S441,241.21,441,236.76Zm8,0c0-3.84-1.32-5.5-3.19-5.5s-3.19,1.66-3.19,5.5,1.32,5.59,3.19,5.59S449,240.6,449,236.76Zm-4.49-.15a1.3,1.3,0,1,1,1.3,1.41A1.3,1.3,0,0,1,444.5,236.61Z" transform="translate(-391 -71.69)"/><circle class="a" cx="18.5" cy="242.81" r="18"/><path class="b" d="M398.94,319.05h3.86v-9.83h-3v-1.13a9.5,9.5,0,0,0,3.44-1h1.3v11.95H408v1.45h-9.09Z" transform="translate(-391 -71.69)"/><path class="b" d="M410.68,318.93l.86-1.16a5.31,5.31,0,0,0,3.78,1.53,3.11,3.11,0,0,0,3.38-3c0-1.85-1.31-2.92-3.28-2.92a5,5,0,0,0-2.73.8l-.92-.59.44-6.45h7.58v1.52h-6.05l-.36,3.94a5.84,5.84,0,0,1,2.48-.54c2.56,0,4.6,1.3,4.6,4.2s-2.39,4.53-5,4.53A6.71,6.71,0,0,1,410.68,318.93Z" transform="translate(-391 -71.69)"/><circle class="a" cx="73.5" cy="242.81" r="18"/><path class="b" d="M453.94,319.05h3.86v-9.83h-3v-1.13a9.5,9.5,0,0,0,3.44-1h1.3v11.95H463v1.45h-9.09Z" transform="translate(-391 -71.69)"/><path class="b" d="M466.16,319.35l1-1.1a4,4,0,0,0,2.67,1.05c2.16,0,4.07-1.53,4.07-6,0-3.3-1.28-5.06-3.48-5.06a2.77,2.77,0,0,0-2.84,2.92A2.57,2.57,0,0,0,470.4,314a4.69,4.69,0,0,0,3.49-1.89l.06,1.37a5.55,5.55,0,0,1-3.89,1.82,3.79,3.79,0,0,1-4.15-4.13,4.32,4.32,0,0,1,4.45-4.31c2.92,0,5.14,2.14,5.14,6.45,0,5.37-2.71,7.45-5.6,7.45A5.44,5.44,0,0,1,466.16,319.35Z" transform="translate(-391 -71.69)"/><path class="b" d="M465.81,346.7h-4.72v-1.4h6.47v10.2h-1.75Zm-.69-4.89a1.39,1.39,0,0,1,2.77,0,1.39,1.39,0,0,1-2.77,0Z" transform="translate(-391 -71.69)"/><circle class="a" cx="107.59" cy="92.5" r="18"/><path class="b" d="M493.47,168.62l.86-1.16a5.32,5.32,0,0,0,3.78,1.54,3.11,3.11,0,0,0,3.38-3.05c0-1.85-1.3-2.92-3.28-2.92a5.06,5.06,0,0,0-2.73.8l-.92-.59.44-6.44h7.58v1.51h-6.05l-.36,3.95a5.7,5.7,0,0,1,2.48-.55c2.56,0,4.6,1.3,4.6,4.2s-2.39,4.54-4.95,4.54A6.74,6.74,0,0,1,493.47,168.62Z" transform="translate(-391 -71.69)"/><line class="a" x1="204.61" y1="29.84" x2="119.09" y2="79"/><line class="a" x1="232.57" y1="29.84" x2="318.09" y2="79"/><circle class="a" cx="329.5" cy="92.81" r="18"/><path class="b" d="M715.63,161.28c0-.73.06-1.63.1-2.37h-.1c-.44.65-.93,1.3-1.37,2l-3.61,4.54h8.69v1.4H708.72v-1.15l6.68-8.55h1.86v13.4h-1.63Z" transform="translate(-391 -71.69)"/><path class="b" d="M721.68,168.93l.86-1.16a5.31,5.31,0,0,0,3.78,1.53,3.11,3.11,0,0,0,3.38-3c0-1.85-1.31-2.92-3.28-2.92a5,5,0,0,0-2.73.8l-.92-.59.44-6.45h7.58v1.52h-6l-.36,3.94a5.84,5.84,0,0,1,2.48-.54c2.56,0,4.6,1.3,4.6,4.2s-2.39,4.53-5,4.53A6.73,6.73,0,0,1,721.68,168.93Z" transform="translate(-391 -71.69)"/><line class="a" x1="41.44" y1="182.37" x2="24.63" y2="225.88"/><circle class="a" cx="238.5" cy="242.81" r="18"/><path class="b" d="M618.43,319.47c4.54-4,7-6.36,7-8.59,0-1.53-.93-2.6-2.9-2.6a4.58,4.58,0,0,0-3.21,1.6l-1-1a6,6,0,0,1,4.43-2c2.69,0,4.36,1.58,4.36,3.95s-2.51,5-6.15,8.31c.84-.06,1.7-.1,2.5-.1h4.39v1.49h-9.43Z" transform="translate(-391 -71.69)"/><path class="b" d="M631,313.76c0-4.49,1.83-6.91,4.81-6.91s4.81,2.42,4.81,6.91-1.83,7-4.81,7S631,318.21,631,313.76Zm8,0c0-3.84-1.32-5.5-3.19-5.5s-3.19,1.66-3.19,5.5,1.32,5.59,3.19,5.59S639,317.6,639,313.76Zm-4.49-.15a1.3,1.3,0,1,1,1.3,1.41A1.3,1.3,0,0,1,634.5,313.61Z" transform="translate(-391 -71.69)"/><line class="a" x1="261.44" y1="182.37" x2="244.63" y2="225.88"/><line class="a" x1="55.73" y1="182.37" x2="67.37" y2="225.88"/><circle class="a" cx="128.5" cy="242.81" r="18"/><path class="b" d="M514.86,319.35l1-1.1a4,4,0,0,0,2.67,1.05c2.16,0,4.07-1.53,4.07-6,0-3.3-1.28-5.06-3.48-5.06a2.77,2.77,0,0,0-2.84,2.92A2.57,2.57,0,0,0,519.1,314a4.69,4.69,0,0,0,3.49-1.89l.06,1.37a5.55,5.55,0,0,1-3.89,1.82,3.79,3.79,0,0,1-4.15-4.13,4.32,4.32,0,0,1,4.45-4.31c2.92,0,5.14,2.14,5.14,6.45,0,5.37-2.71,7.45-5.6,7.45A5.44,5.44,0,0,1,514.86,319.35Z" transform="translate(-391 -71.69)"/><circle class="a" cx="183.5" cy="242.81" r="18"/><path class="b" d="M563.1,318.86l.88-1.13a5.41,5.41,0,0,0,3.84,1.57c1.83,0,3.19-.94,3.19-2.43s-1.34-2.67-4.85-2.67v-1.32c3.17,0,4.39-1.09,4.39-2.5s-1.11-2.1-2.73-2.1a5.12,5.12,0,0,0-3.3,1.34l-.92-1.09a6.51,6.51,0,0,1,4.28-1.68c2.52,0,4.43,1.24,4.43,3.4,0,1.62-1.19,2.65-2.85,3.2v.08c1.78.38,3.32,1.55,3.32,3.4,0,2.37-2.19,3.82-4.85,3.82A6.54,6.54,0,0,1,563.1,318.86Z" transform="translate(-391 -71.69)"/><path class="b" d="M576,313.76c0-4.49,1.83-6.91,4.81-6.91s4.81,2.42,4.81,6.91-1.83,7-4.81,7S576,318.21,576,313.76Zm8,0c0-3.84-1.32-5.5-3.19-5.5s-3.19,1.66-3.19,5.5,1.32,5.59,3.19,5.59S584,317.6,584,313.76Zm-4.49-.15a1.3,1.3,0,1,1,1.3,1.41A1.3,1.3,0,0,1,579.5,313.61Z" transform="translate(-391 -71.69)"/><line class="a" x1="151.44" y1="182.37" x2="134.63" y2="225.88"/><line class="a" x1="165.73" y1="182.37" x2="177.37" y2="225.88"/><circle class="a" cx="296.5" cy="242.81" r="18"/><path class="b" d="M690.36,290.36l.56-1.3a5.44,5.44,0,0,0,2.33.57c2,0,2.56-1,2.56-2.75V277.7h-4.72v-1.4h6.47v10.45c0,2.5-1,4.31-4.29,4.31A6.71,6.71,0,0,1,690.36,290.36Zm4.76-17.55a1.39,1.39,0,0,1,2.77,0,1.39,1.39,0,0,1-2.77,0Z" transform="translate(-391 -71.69)"/><line class="a" x1="278.73" y1="182.37" x2="290.37" y2="225.88"/><circle class="a" cx="157.5" cy="165.81" r="18"/><path class="b" d="M543.63,240.08c0-1.85,1.43-2.9,2.87-3.57v-.09a3.75,3.75,0,0,1-2-3.12c0-2.06,1.74-3.45,4.13-3.45,2.63,0,4.16,1.49,4.16,3.57a4.18,4.18,0,0,1-2,3.19v.09c1.47.73,2.63,1.57,2.63,3.48s-1.74,3.57-4.81,3.57S543.63,242.2,543.63,240.08Zm8.06,0c0-1.85-1.87-2.33-4.2-3.11-1.3.7-2.29,1.56-2.29,2.9s1.33,2.54,3.38,2.54S551.69,241.51,551.69,240.12Zm-.44-6.61a2.39,2.39,0,0,0-2.69-2.36,2.22,2.22,0,0,0-2.5,2.15c0,1.59,1.54,2.26,3.53,2.89A3.39,3.39,0,0,0,551.25,233.51Z" transform="translate(-391 -71.69)"/><line class="a" x1="93.32" y1="103.46" x2="55.5" y2="149.22"/><line class="a" x1="121.86" y1="103.46" x2="150.5" y2="149.22"/><circle class="a" cx="270.5" cy="165.81" r="18"/><path class="b" d="M650.43,242.47c4.54-4,7-6.36,7-8.59,0-1.53-.93-2.6-2.9-2.6a4.58,4.58,0,0,0-3.21,1.6l-1-1a6,6,0,0,1,4.43-2c2.69,0,4.37,1.58,4.37,4s-2.52,5-6.16,8.31c.84-.06,1.7-.1,2.5-.1h4.39v1.49h-9.43Z" transform="translate(-391 -71.69)"/><path class="b" d="M662.68,241.93l.86-1.16a5.31,5.31,0,0,0,3.78,1.53,3.11,3.11,0,0,0,3.38-3c0-1.85-1.31-2.92-3.28-2.92a5,5,0,0,0-2.73.8l-.92-.59.44-6.45h7.58v1.52h-6l-.36,3.94a5.84,5.84,0,0,1,2.48-.54c2.56,0,4.6,1.3,4.6,4.2s-2.39,4.53-5,4.53A6.73,6.73,0,0,1,662.68,241.93Z" transform="translate(-391 -71.69)"/><circle class="a" cx="379.5" cy="165.81" r="18"/><path class="b" d="M765.63,234.28c0-.73.06-1.64.1-2.37h-.1c-.44.65-.93,1.3-1.37,2l-3.61,4.54h8.69v1.4H758.72v-1.15l6.68-8.55h1.86v13.4h-1.63Z" transform="translate(-391 -71.69)"/><path class="b" d="M772,236.76c0-4.49,1.83-6.91,4.81-6.91s4.81,2.42,4.81,6.91-1.83,7-4.81,7S772,241.21,772,236.76Zm8,0c0-3.84-1.32-5.5-3.19-5.5s-3.19,1.66-3.19,5.5,1.32,5.59,3.19,5.59S780,240.6,780,236.76Zm-4.49-.15a1.3,1.3,0,1,1,1.3,1.41A1.3,1.3,0,0,1,775.5,236.61Z" transform="translate(-391 -71.69)"/><line class="a" x1="315.32" y1="103.46" x2="277.5" y2="149.22"/><line class="a" x1="343.86" y1="103.46" x2="372.5" y2="149.22"/></svg>