<svg id="图层_1" data-name="图层 1" xmlns="http://www.w3.org/2000/svg" viewBox="0 0 387.41 110.54"><defs><style>.cls-1{fill:none;stroke:#3ea69f;stroke-miterlimit:10;}.cls-2{fill:#3ea69f;}</style></defs><circle class="cls-1" cx="18.5" cy="91.81" r="18"/><path class="cls-2" d="M351.87,188.5h3.9c2.82,0,4.73.94,4.73,3.36a3,3,0,0,1-2.42,3v.08c2,.32,3.2,1.41,3.2,3.3,0,2.71-2.1,4-5.19,4h-4.22Zm3.61,5.79c2.35,0,3.3-.75,3.3-2.29s-1.09-2-3.22-2h-1.95v4.32Zm.36,6.51c2.35,0,3.71-.78,3.71-2.65,0-1.7-1.3-2.39-3.71-2.39h-2.23v5Z" transform="translate(-337.59 -104.46)"/><circle class="cls-1" cx="77.59" cy="18.5" r="18"/><path class="cls-2" d="M414.17,115.19h2L420.83,129h-1.89l-2.38-7.68c-.48-1.53-.94-3-1.36-4.64h-.08c-.44,1.59-.89,3.11-1.37,4.64L411.34,129h-1.81ZM412,123.36h6.32v1.43H412Z" transform="translate(-337.59 -104.46)"/><circle class="cls-1" cx="137.91" cy="92.04" r="18"/><path class="cls-2" d="M471,188.73h3.4c4.13,0,6.38,2.45,6.38,6.82s-2.25,6.95-6.3,6.95H471Zm3.27,12.32c3.13,0,4.68-2,4.68-5.5s-1.55-5.37-4.68-5.37h-1.51v10.87Z" transform="translate(-337.59 -104.46)"/><circle class="cls-1" cx="77.91" cy="92.04" r="18"/><path class="cls-2" d="M410.56,195.61c0-4.43,2.59-7.14,6.18-7.14a5.17,5.17,0,0,1,3.78,1.68l-1,1.12a3.68,3.68,0,0,0-2.77-1.24c-2.63,0-4.35,2.12-4.35,5.54s1.72,5.63,4.35,5.63a4,4,0,0,0,3.08-1.51l1,1.07a5.31,5.31,0,0,1-4.26,2C413.17,202.75,410.56,200.11,410.56,195.61Z" transform="translate(-337.59 -104.46)"/><line class="cls-1" x1="63.32" y1="29.46" x2="25.5" y2="75.22"/><line class="cls-1" x1="91.86" y1="29.46" x2="133.41" y2="73.54"/><line class="cls-1" x1="77.91" y1="36.04" x2="77.91" y2="74.04"/><circle class="cls-1" cx="283.91" cy="92.04" r="18"/><path class="cls-2" d="M616.86,188.73h1.78v5.75h5.71v-5.75h1.79V202.5h-1.79V196h-5.71v6.47h-1.78Z" transform="translate(-337.59 -104.46)"/><circle class="cls-1" cx="326.59" cy="18.5" r="18"/><path class="cls-2" d="M659,122.08c0-4.45,2.54-7.14,6.11-7.14a5,5,0,0,1,3.8,1.68l-1,1.11a3.6,3.6,0,0,0-2.8-1.24c-2.58,0-4.26,2.12-4.26,5.55s1.53,5.62,4.22,5.62a3.39,3.39,0,0,0,2.37-.8v-3.59H664.7v-1.44h4.37v5.79a5.79,5.79,0,0,1-4.11,1.6C661.49,129.22,659,126.57,659,122.08Z" transform="translate(-337.59 -104.46)"/><circle class="cls-1" cx="368.91" cy="92.04" r="18"/><path class="cls-2" d="M702.2,201h3.42V190.22H702.2v-1.49h8.6v1.49h-3.42V201h3.42v1.49h-8.6Z" transform="translate(-337.59 -104.46)"/><line class="cls-1" x1="316.41" y1="32.54" x2="289.41" y2="74.54"/><line class="cls-1" x1="336.41" y1="33.54" x2="362.41" y2="75.54"/><circle class="cls-1" cx="210.59" cy="18.5" r="18"/><path class="cls-2" d="M544.27,115.19h8.53v1.49H546V121h5.71v1.49H546v5h7V129h-8.74Z" transform="translate(-337.59 -104.46)"/><circle class="cls-1" cx="210.91" cy="92.04" r="18"/><path class="cls-2" d="M545,188.73h8.46v1.49h-6.69v4.64h5.67v1.49h-5.67v6.15H545Z" transform="translate(-337.59 -104.46)"/><line class="cls-1" x1="210.91" y1="36.04" x2="210.91" y2="74.04"/></svg>