<svg id="图层_1" data-name="图层 1" xmlns="http://www.w3.org/2000/svg" viewBox="0 0 271 333.54"><defs><style>.cls-1{fill:none;stroke:#3ea69f;stroke-miterlimit:10;}.cls-2{fill:#3ea69f;}</style></defs><circle class="cls-1" cx="18.5" cy="92.04" r="18"/><path class="cls-2" d="M333.73,301.47c4.54-4,7-6.36,7-8.59,0-1.53-.93-2.6-2.9-2.6a4.58,4.58,0,0,0-3.21,1.6l-1-1a6,6,0,0,1,4.43-2c2.69,0,4.37,1.58,4.37,3.95s-2.52,5-6.16,8.31c.84-.06,1.7-.1,2.5-.1h4.39v1.49h-9.43Z" transform="translate(-320 -204.46)"/><circle class="cls-1" cx="95.18" cy="18.5" r="18"/><path class="cls-2" d="M410.92,227.52h3.86v-9.83h-3v-1.13a9.71,9.71,0,0,0,3.44-1h1.3v12H420V229h-9.09Z" transform="translate(-320 -204.46)"/><circle class="cls-1" cx="169.5" cy="91.04" r="18"/><path class="cls-2" d="M490.93,292.28c0-.73.06-1.63.1-2.37h-.1c-.44.65-.93,1.3-1.37,1.95L486,296.4h8.69v1.4H484v-1.15l6.68-8.55h1.86v13.4h-1.63Z" transform="translate(-320 -204.46)"/><line class="cls-1" x1="80.91" y1="29.46" x2="26" y2="75.54"/><line class="cls-1" x1="109.45" y1="29.46" x2="161" y2="75.54"/><circle class="cls-1" cx="126.5" cy="165.04" r="18"/><path class="cls-2" d="M441.38,373.93l.86-1.16A5.31,5.31,0,0,0,446,374.3a3.11,3.11,0,0,0,3.38-3c0-1.85-1.31-2.92-3.28-2.92a5,5,0,0,0-2.73.8l-.92-.59.44-6.45h7.58v1.52h-6.05l-.36,3.94a5.84,5.84,0,0,1,2.48-.54c2.56,0,4.6,1.3,4.6,4.2s-2.39,4.53-5,4.53A6.72,6.72,0,0,1,441.38,373.93Z" transform="translate(-320 -204.46)"/><circle class="cls-1" cx="212.5" cy="165.04" r="18"/><path class="cls-2" d="M527.82,369.31c0-5.38,2.68-7.46,5.6-7.46a5.32,5.32,0,0,1,3.74,1.43l-1,1.09a3.93,3.93,0,0,0-2.66-1.07c-2.19,0-4.08,1.53-4.08,6,0,3.29,1.26,5.08,3.49,5.08a2.78,2.78,0,0,0,2.81-2.94,2.55,2.55,0,0,0-2.83-2.84,4.73,4.73,0,0,0-3.51,1.89l-.06-1.36a5.68,5.68,0,0,1,3.88-1.83,3.81,3.81,0,0,1,4.18,4.14,4.32,4.32,0,0,1-4.47,4.3C530,375.75,527.82,373.61,527.82,369.31Z" transform="translate(-320 -204.46)"/><line class="cls-1" x1="160" y1="105.54" x2="133" y2="148.54"/><circle class="cls-1" cx="172.5" cy="241.04" r="18"/><path class="cls-2" d="M495.38,439.62h-7.71V438.1h9.7v1.08c-3.55,4.05-4.41,7.07-4.62,12.32h-1.83A17.9,17.9,0,0,1,495.38,439.62Z" transform="translate(-320 -204.46)"/><line class="cls-1" x1="205" y1="181.54" x2="178" y2="223.54"/><line class="cls-1" x1="180" y1="106.54" x2="206" y2="148.54"/><circle class="cls-1" cx="213.5" cy="315.04" r="18"/><path class="cls-2" d="M528.63,522.08c0-1.85,1.43-2.9,2.87-3.57v-.09a3.75,3.75,0,0,1-2-3.12c0-2.06,1.74-3.45,4.13-3.45,2.63,0,4.16,1.49,4.16,3.57a4.18,4.18,0,0,1-2,3.19v.09c1.47.73,2.63,1.57,2.63,3.48s-1.74,3.57-4.81,3.57S528.63,524.2,528.63,522.08Zm8.06,0c0-1.85-1.87-2.33-4.2-3.11-1.3.7-2.29,1.56-2.29,2.9s1.33,2.54,3.38,2.54S536.69,523.51,536.69,522.12Zm-.44-6.61a2.39,2.39,0,0,0-2.69-2.36,2.22,2.22,0,0,0-2.5,2.15c0,1.59,1.54,2.26,3.53,2.89A3.39,3.39,0,0,0,536.25,515.51Z" transform="translate(-320 -204.46)"/><line class="cls-1" x1="181" y1="256.54" x2="207" y2="298.54"/><circle class="cls-1" cx="57.5" cy="167.04" r="18"/><path class="cls-2" d="M372.4,375.86l.88-1.13a5.41,5.41,0,0,0,3.84,1.57c1.83,0,3.19-.94,3.19-2.43s-1.34-2.67-4.85-2.67v-1.32c3.17,0,4.39-1.09,4.39-2.5s-1.11-2.1-2.73-2.1a5.12,5.12,0,0,0-3.3,1.34l-.92-1.09a6.51,6.51,0,0,1,4.28-1.68c2.52,0,4.43,1.24,4.43,3.4,0,1.62-1.19,2.65-2.85,3.2v.08c1.78.38,3.32,1.55,3.32,3.4,0,2.37-2.19,3.82-4.85,3.82A6.54,6.54,0,0,1,372.4,375.86Z" transform="translate(-320 -204.46)"/><line class="cls-1" x1="25" y1="108.54" x2="51" y2="150.54"/><circle class="cls-1" cx="252.5" cy="240.04" r="18"/><path class="cls-2" d="M567.86,449.35l1-1.1a4,4,0,0,0,2.67,1.05c2.16,0,4.07-1.53,4.07-6,0-3.3-1.28-5.06-3.48-5.06a2.77,2.77,0,0,0-2.84,2.92A2.57,2.57,0,0,0,572.1,444a4.69,4.69,0,0,0,3.49-1.89l.06,1.37a5.55,5.55,0,0,1-3.89,1.82,3.79,3.79,0,0,1-4.15-4.13,4.32,4.32,0,0,1,4.45-4.31c2.92,0,5.14,2.14,5.14,6.45,0,5.37-2.71,7.45-5.6,7.45A5.44,5.44,0,0,1,567.86,449.35Z" transform="translate(-320 -204.46)"/><line class="cls-1" x1="220" y1="181.54" x2="246" y2="223.54"/></svg>