<svg id="图层_1" data-name="图层 1" xmlns="http://www.w3.org/2000/svg" viewBox="0 0 232 333.54"><defs><style>.cls-1{fill:none;stroke:#3ea69f;stroke-miterlimit:10;}.cls-2{fill:#3ea69f;}</style></defs><circle class="cls-1" cx="18.5" cy="92.04" r="18"/><path class="cls-2" d="M334.28,288.73h3.9c2.82,0,4.73.94,4.73,3.36a3,3,0,0,1-2.42,3v.08c2,.32,3.2,1.41,3.2,3.3,0,2.71-2.1,4-5.19,4h-4.22Zm3.61,5.79c2.35,0,3.3-.75,3.3-2.29s-1.1-2-3.22-2h-2v4.32Zm.36,6.51c2.35,0,3.71-.78,3.71-2.65,0-1.7-1.3-2.39-3.71-2.39H336v5Z" transform="translate(-320 -204.46)"/><circle class="cls-1" cx="95.18" cy="18.5" r="18"/><path class="cls-2" d="M414.17,215.19h2L420.83,229h-1.89l-2.38-7.68c-.48-1.53-.94-3.05-1.36-4.64h-.08c-.44,1.59-.89,3.11-1.37,4.64L411.34,229h-1.81ZM412,223.36h6.32v1.43H412Z" transform="translate(-320 -204.46)"/><circle class="cls-1" cx="169.5" cy="91.04" r="18"/><path class="cls-2" d="M485.59,287.73h8.53v1.49h-6.76v4.3h5.71V295h-5.71v5h7v1.49h-8.74Z" transform="translate(-320 -204.46)"/><line class="cls-1" x1="80.91" y1="29.46" x2="26" y2="75.54"/><line class="cls-1" x1="109.45" y1="29.46" x2="161" y2="75.54"/><circle class="cls-1" cx="126.5" cy="165.04" r="18"/><path class="cls-2" d="M443,361.73h8.46v1.49h-6.69v4.64h5.67v1.49h-5.67v6.15H443Z" transform="translate(-320 -204.46)"/><circle class="cls-1" cx="212.5" cy="165.04" r="18"/><path class="cls-2" d="M527.31,368.61c0-4.45,2.54-7.14,6.11-7.14a5.08,5.08,0,0,1,3.8,1.68l-1,1.12a3.58,3.58,0,0,0-2.8-1.24c-2.58,0-4.26,2.12-4.26,5.54s1.53,5.63,4.22,5.63a3.44,3.44,0,0,0,2.37-.8v-3.59H533v-1.45h4.37v5.8a5.79,5.79,0,0,1-4.11,1.59C529.81,375.75,527.31,373.11,527.31,368.61Z" transform="translate(-320 -204.46)"/><line class="cls-1" x1="160" y1="105.54" x2="133" y2="148.54"/><circle class="cls-1" cx="172.5" cy="241.04" r="18"/><path class="cls-2" d="M487.86,437.73h1.78v5.75h5.71v-5.75h1.79V451.5h-1.79V445h-5.71v6.47h-1.78Z" transform="translate(-320 -204.46)"/><line class="cls-1" x1="205" y1="181.54" x2="178" y2="223.54"/><line class="cls-1" x1="180" y1="106.54" x2="206" y2="148.54"/><circle class="cls-1" cx="213.5" cy="315.04" r="18"/><path class="cls-2" d="M529.19,524h3.43V513.22h-3.43v-1.49h8.61v1.49h-3.42V524h3.42v1.49h-8.61Z" transform="translate(-320 -204.46)"/><line class="cls-1" x1="181" y1="256.54" x2="207" y2="298.54"/><circle class="cls-1" cx="57.5" cy="167.04" r="18"/><path class="cls-2" d="M372.56,370.61c0-4.43,2.59-7.14,6.18-7.14a5.17,5.17,0,0,1,3.78,1.68l-1,1.12a3.68,3.68,0,0,0-2.77-1.24c-2.63,0-4.35,2.12-4.35,5.54s1.72,5.63,4.35,5.63a4,4,0,0,0,3.08-1.51l1,1.07a5.31,5.31,0,0,1-4.26,2C375.17,377.75,372.56,375.11,372.56,370.61Z" transform="translate(-320 -204.46)"/><line class="cls-1" x1="25" y1="108.54" x2="51" y2="150.54"/><circle class="cls-1" cx="98.5" cy="242.04" r="18"/><path class="cls-2" d="M414,438.73h3.4c4.13,0,6.38,2.45,6.38,6.82s-2.25,6.95-6.3,6.95H414Zm3.27,12.32c3.13,0,4.68-2,4.68-5.5s-1.55-5.37-4.68-5.37h-1.51v10.87Z" transform="translate(-320 -204.46)"/><line class="cls-1" x1="66" y1="183.54" x2="92" y2="225.54"/></svg>