<svg id="图层_1" data-name="图层 1" xmlns="http://www.w3.org/2000/svg" viewBox="0 0 423 261.31"><defs><style>.cls-1{fill:none;stroke:#3ea69f;stroke-miterlimit:10;}.cls-2{fill:#3ea69f;}</style></defs><circle class="cls-1" cx="218.59" cy="18.5" r="18"/><path class="cls-2" d="M605.33,94.74h3.86V84.92h-3V83.78a9.73,9.73,0,0,0,3.44-1h1.3V94.74h3.49v1.45h-9.09Z" transform="translate(-391 -71.69)"/><circle class="cls-1" cx="48.5" cy="165.81" r="18"/><path class="cls-2" d="M440.93,234.28c0-.73.06-1.64.1-2.37h-.1c-.44.65-.93,1.3-1.37,2L436,238.4h8.69v1.4H434v-1.15l6.68-8.55h1.86v13.4h-1.63Z" transform="translate(-391 -71.69)"/><circle class="cls-1" cx="18.5" cy="242.81" r="18"/><path class="cls-2" d="M404.63,317.08c0-1.85,1.43-2.9,2.87-3.57v-.09a3.75,3.75,0,0,1-2-3.12c0-2.06,1.74-3.45,4.13-3.45,2.63,0,4.16,1.49,4.16,3.57a4.18,4.18,0,0,1-2,3.19v.09c1.47.73,2.63,1.57,2.63,3.48s-1.74,3.57-4.81,3.57S404.63,319.2,404.63,317.08Zm8.06,0c0-1.85-1.87-2.33-4.2-3.11-1.3.7-2.29,1.56-2.29,2.9s1.33,2.54,3.38,2.54S412.69,318.51,412.69,317.12Zm-.44-6.61a2.39,2.39,0,0,0-2.69-2.36,2.22,2.22,0,0,0-2.5,2.15c0,1.59,1.54,2.26,3.53,2.89A3.39,3.39,0,0,0,412.25,310.51Z" transform="translate(-391 -71.69)"/><circle class="cls-1" cx="73.5" cy="242.81" r="18"/><path class="cls-2" d="M459.86,319.35l1-1.1a4,4,0,0,0,2.67,1.05c2.16,0,4.07-1.53,4.07-6,0-3.3-1.28-5.06-3.48-5.06a2.77,2.77,0,0,0-2.84,2.92A2.57,2.57,0,0,0,464.1,314a4.69,4.69,0,0,0,3.49-1.89l.06,1.37a5.55,5.55,0,0,1-3.89,1.82,3.79,3.79,0,0,1-4.15-4.13,4.32,4.32,0,0,1,4.45-4.31c2.92,0,5.14,2.14,5.14,6.45,0,5.37-2.71,7.45-5.6,7.45A5.44,5.44,0,0,1,459.86,319.35Z" transform="translate(-391 -71.69)"/><circle class="cls-1" cx="107.59" cy="92.5" r="18"/><path class="cls-2" d="M493.82,169.16c4.54-4,7-6.36,7-8.58,0-1.54-.93-2.61-2.9-2.61a4.62,4.62,0,0,0-3.21,1.6l-1-1a6,6,0,0,1,4.43-2c2.69,0,4.37,1.57,4.37,3.94s-2.52,5-6.16,8.32c.84-.07,1.7-.11,2.5-.11h4.39v1.49h-9.43Z" transform="translate(-391 -71.69)"/><line class="cls-1" x1="204.61" y1="29.84" x2="119.09" y2="79"/><line class="cls-1" x1="232.57" y1="29.84" x2="318.09" y2="79"/><circle class="cls-1" cx="329.5" cy="92.81" r="18"/><path class="cls-2" d="M715.4,168.86l.88-1.13a5.41,5.41,0,0,0,3.84,1.57c1.83,0,3.19-.94,3.19-2.43s-1.34-2.67-4.85-2.67v-1.32c3.17,0,4.39-1.09,4.39-2.5s-1.11-2.1-2.73-2.1a5.12,5.12,0,0,0-3.3,1.34l-.92-1.09a6.51,6.51,0,0,1,4.28-1.68c2.52,0,4.43,1.24,4.43,3.4,0,1.62-1.19,2.65-2.85,3.2v.08c1.78.38,3.32,1.55,3.32,3.4,0,2.37-2.19,3.82-4.85,3.82A6.54,6.54,0,0,1,715.4,168.86Z" transform="translate(-391 -71.69)"/><line class="cls-1" x1="41.44" y1="182.37" x2="24.63" y2="225.88"/><line class="cls-1" x1="55.73" y1="182.37" x2="67.37" y2="225.88"/><circle class="cls-1" cx="157.5" cy="165.81" r="18"/><path class="cls-2" d="M543.38,241.93l.86-1.16A5.31,5.31,0,0,0,548,242.3a3.11,3.11,0,0,0,3.38-3c0-1.85-1.31-2.92-3.28-2.92a5,5,0,0,0-2.73.8l-.92-.59.44-6.45h7.58v1.52h-6l-.36,3.94a5.84,5.84,0,0,1,2.48-.54c2.56,0,4.6,1.3,4.6,4.2s-2.39,4.53-4.95,4.53A6.72,6.72,0,0,1,543.38,241.93Z" transform="translate(-391 -71.69)"/><circle class="cls-1" cx="127.5" cy="242.81" r="18"/><path class="cls-2" d="M507.94,319.05h3.86v-9.83h-3v-1.13a9.5,9.5,0,0,0,3.44-1h1.3v11.95H517v1.45h-9.09Z" transform="translate(-391 -71.69)"/><path class="cls-2" d="M520,313.76c0-4.49,1.83-6.91,4.81-6.91s4.81,2.42,4.81,6.91-1.83,7-4.81,7S520,318.21,520,313.76Zm8,0c0-3.84-1.32-5.5-3.19-5.5s-3.19,1.66-3.19,5.5,1.32,5.59,3.19,5.59S528,317.6,528,313.76Zm-4.49-.15a1.3,1.3,0,1,1,1.3,1.41A1.3,1.3,0,0,1,523.5,313.61Z" transform="translate(-391 -71.69)"/><circle class="cls-1" cx="182.5" cy="242.81" r="18"/><path class="cls-2" d="M562.94,319.05h3.86v-9.83h-3v-1.13a9.5,9.5,0,0,0,3.44-1h1.3v11.95H572v1.45h-9.09Z" transform="translate(-391 -71.69)"/><path class="cls-2" d="M575.54,319.05h3.86v-9.83h-3v-1.13a9.5,9.5,0,0,0,3.44-1h1.3v11.95h3.49v1.45h-9.09Z" transform="translate(-391 -71.69)"/><line class="cls-1" x1="150.44" y1="182.37" x2="133.63" y2="225.88"/><line class="cls-1" x1="164.73" y1="182.37" x2="176.37" y2="225.88"/><line class="cls-1" x1="93.32" y1="103.46" x2="55.5" y2="149.22"/><line class="cls-1" x1="121.86" y1="103.46" x2="150.5" y2="149.22"/><circle class="cls-1" cx="270.5" cy="165.81" r="18"/><path class="cls-2" d="M656.82,237.31c0-5.38,2.68-7.46,5.6-7.46a5.32,5.32,0,0,1,3.74,1.43l-1,1.09a3.93,3.93,0,0,0-2.66-1.07c-2.19,0-4.07,1.53-4.07,6,0,3.29,1.25,5.08,3.48,5.08a2.78,2.78,0,0,0,2.81-2.94,2.55,2.55,0,0,0-2.83-2.84,4.73,4.73,0,0,0-3.51,1.89l-.06-1.36a5.68,5.68,0,0,1,3.88-1.83,3.81,3.81,0,0,1,4.18,4.14,4.32,4.32,0,0,1-4.47,4.3C659,243.75,656.82,241.61,656.82,237.31Z" transform="translate(-391 -71.69)"/><circle class="cls-1" cx="240.5" cy="242.81" r="18"/><path class="cls-2" d="M620.94,319.05h3.86v-9.83h-3v-1.13a9.5,9.5,0,0,0,3.44-1h1.3v11.95H630v1.45h-9.09Z" transform="translate(-391 -71.69)"/><path class="cls-2" d="M633,319.47c4.54-4,7-6.36,7-8.59,0-1.53-.92-2.6-2.89-2.6a4.58,4.58,0,0,0-3.21,1.6l-1-1a6,6,0,0,1,4.43-2c2.68,0,4.36,1.58,4.36,3.95s-2.51,5-6.15,8.31c.84-.06,1.7-.1,2.5-.1h4.39v1.49H633Z" transform="translate(-391 -71.69)"/><circle class="cls-1" cx="295.5" cy="242.81" r="18"/><path class="cls-2" d="M675.94,319.05h3.86v-9.83h-3v-1.13a9.5,9.5,0,0,0,3.44-1h1.3v11.95H685v1.45h-9.09Z" transform="translate(-391 -71.69)"/><path class="cls-2" d="M687.7,318.86l.88-1.13a5.41,5.41,0,0,0,3.84,1.57c1.83,0,3.19-.94,3.19-2.43s-1.34-2.67-4.85-2.67v-1.32c3.17,0,4.39-1.09,4.39-2.5s-1.11-2.1-2.73-2.1a5.12,5.12,0,0,0-3.3,1.34l-.92-1.09a6.51,6.51,0,0,1,4.28-1.68c2.52,0,4.43,1.24,4.43,3.4,0,1.62-1.19,2.65-2.85,3.2v.08c1.78.38,3.32,1.55,3.32,3.4,0,2.37-2.19,3.82-4.85,3.82A6.54,6.54,0,0,1,687.7,318.86Z" transform="translate(-391 -71.69)"/><line class="cls-1" x1="263.44" y1="182.37" x2="246.63" y2="225.88"/><line class="cls-1" x1="277.73" y1="182.37" x2="289.37" y2="225.88"/><circle class="cls-1" cx="379.5" cy="165.81" r="18"/><path class="cls-2" d="M773.38,231.62h-7.71V230.1h9.7v1.08c-3.55,4-4.41,7.07-4.62,12.32h-1.83A17.9,17.9,0,0,1,773.38,231.62Z" transform="translate(-391 -71.69)"/><circle class="cls-1" cx="349.5" cy="242.81" r="18"/><path class="cls-2" d="M729.94,319.05h3.86v-9.83h-3v-1.13a9.5,9.5,0,0,0,3.44-1h1.3v11.95H739v1.45h-9.09Z" transform="translate(-391 -71.69)"/><path class="cls-2" d="M748.23,311.28c0-.73.06-1.64.1-2.37h-.1c-.44.65-.93,1.3-1.37,1.95l-3.61,4.54h8.69v1.4H741.32v-1.15L748,307.1h1.86v13.4h-1.63Z" transform="translate(-391 -71.69)"/><circle class="cls-1" cx="404.5" cy="242.81" r="18"/><path class="cls-2" d="M784.94,319.05h3.86v-9.83h-3v-1.13a9.5,9.5,0,0,0,3.44-1h1.3v11.95H794v1.45h-9.09Z" transform="translate(-391 -71.69)"/><path class="cls-2" d="M796.68,318.93l.86-1.16a5.31,5.31,0,0,0,3.78,1.53,3.11,3.11,0,0,0,3.38-3c0-1.85-1.31-2.92-3.28-2.92a5,5,0,0,0-2.73.8l-.92-.59.44-6.45h7.58v1.52h-6l-.36,3.94a5.84,5.84,0,0,1,2.48-.54c2.56,0,4.6,1.3,4.6,4.2s-2.39,4.53-5,4.53A6.73,6.73,0,0,1,796.68,318.93Z" transform="translate(-391 -71.69)"/><line class="cls-1" x1="372.44" y1="182.37" x2="355.63" y2="225.88"/><line class="cls-1" x1="386.73" y1="182.37" x2="398.37" y2="225.88"/><line class="cls-1" x1="315.32" y1="103.46" x2="277.5" y2="149.22"/><line class="cls-1" x1="343.86" y1="103.46" x2="372.5" y2="149.22"/></svg>