<svg id="图层_1" data-name="图层 1" xmlns="http://www.w3.org/2000/svg" viewBox="0 0 287.06 339"><defs><style>.cls-1{fill:none;stroke:#3ea69f;stroke-miterlimit:10;}.cls-2{fill:#3ea69f;}</style></defs><circle class="cls-1" cx="168.56" cy="18.5" r="18"/><path class="cls-2" d="M531.86,27.84l-5.81,14.22H525l-5.81-14.22h1.47l4.91,12.33,4.87-12.33Z" transform="translate(-356.94 -18)"/><circle class="cls-1" cx="48.5" cy="165.35" r="18"/><path class="cls-2" d="M411.8,188.91h-1.47l-4.87-12.33-4.91,12.33h-1.47l5.82-14.22H406Z" transform="translate(-356.94 -18)"/><circle class="cls-1" cx="18.5" cy="242.35" r="18"/><path class="cls-2" d="M368.05,261.06l-3.57-4.92h1.91l1.62,2.23c.35.57.77,1.17,1.19,1.72h.09c.38-.55.79-1.18,1.15-1.74l1.51-2.21h1.85l-3.61,5.06,3.91,5.15h-1.94L370.4,264c-.44-.57-.9-1.26-1.34-1.85H369c-.42.61-.84,1.22-1.26,1.87L366,266.35h-1.84Z" transform="translate(-356.94 -18)"/><path class="cls-2" d="M379.12,268.91h6.32v1.15h-6.32Zm2.58-5.29h-2.21v-.88a4.94,4.94,0,0,0,2.46-.86h1.11v8.18H381.7Z" transform="translate(-356.94 -18)"/><circle class="cls-1" cx="73.5" cy="242.35" r="18"/><path class="cls-2" d="M435.63,254.59v5.92h-1.41V256h-9v-1.4Z" transform="translate(-356.94 -18)"/><circle class="cls-1" cx="107.59" cy="92.04" r="18"/><path class="cls-2" d="M470.89,101.38l-5.81,14.22H464l-5.81-14.22h1.47l4.91,12.33,4.87-12.33Z" transform="translate(-356.94 -18)"/><circle class="cls-1" cx="218.56" cy="92.5" r="18"/><path class="cls-2" d="M580.69,104.74v5.92h-1.41v-4.51h-9v-1.41Z" transform="translate(-356.94 -18)"/><line class="cls-1" x1="41.44" y1="181.91" x2="24.63" y2="225.42"/><line class="cls-1" x1="55.73" y1="181.91" x2="67.37" y2="225.42"/><circle class="cls-1" cx="93.56" cy="320.5" r="18"/><path class="cls-2" d="M443.11,339.21l-3.57-4.91h1.91l1.62,2.22a19.55,19.55,0,0,0,1.19,1.72h.09c.37-.54.79-1.17,1.15-1.74l1.51-2.2h1.85l-3.61,5.06,3.9,5.14h-1.93l-1.76-2.35c-.44-.57-.9-1.26-1.34-1.85H444c-.42.61-.84,1.22-1.26,1.87l-1.68,2.33h-1.85Z" transform="translate(-356.94 -18)"/><path class="cls-2" d="M453.82,347.44c2.81-2.39,4.3-3.57,4.3-4.81a1.62,1.62,0,0,0-1.78-1.7,2.5,2.5,0,0,0-2,1.18l-.79-.74a3.58,3.58,0,0,1,3-1.59c1.74,0,2.94.92,2.94,2.66,0,1.58-1.47,2.75-3.47,4.62h3.86v1.16h-6Z" transform="translate(-356.94 -18)"/><line class="cls-1" x1="75.79" y1="260.06" x2="87.43" y2="303.57"/><circle class="cls-1" cx="157.5" cy="165.35" r="18"/><path class="cls-2" d="M520.8,188.91h-1.47l-4.87-12.33-4.91,12.33h-1.47l5.82-14.22H515Z" transform="translate(-356.94 -18)"/><circle class="cls-1" cx="127.5" cy="242.35" r="18"/><path class="cls-2" d="M489.63,254.59v5.92h-1.41V256h-9v-1.4Z" transform="translate(-356.94 -18)"/><circle class="cls-1" cx="182.5" cy="242.35" r="18"/><path class="cls-2" d="M532.05,261.06l-3.57-4.92h1.91l1.62,2.23c.35.57.77,1.17,1.19,1.72h.09c.38-.55.79-1.18,1.15-1.74l1.51-2.21h1.85l-3.61,5.06,3.91,5.15h-1.94L534.4,264c-.44-.57-.9-1.26-1.34-1.85H533c-.42.61-.84,1.22-1.26,1.87L530,266.35h-1.84Z" transform="translate(-356.94 -18)"/><path class="cls-2" d="M542.42,268.72l.88-.69a2.75,2.75,0,0,0,2.29,1.21c1,0,1.85-.52,1.85-1.44s-.88-1.45-2.75-1.45v-.86c1.66,0,2.44-.66,2.44-1.49s-.68-1.29-1.68-1.29a2.54,2.54,0,0,0-1.89,1l-.8-.71a3.58,3.58,0,0,1,2.87-1.37c1.54,0,2.84.84,2.84,2.21,0,1-.55,1.59-1.64,2a2.1,2.1,0,0,1,1.95,2c0,1.51-1.4,2.46-3.1,2.46A3.89,3.89,0,0,1,542.42,268.72Z" transform="translate(-356.94 -18)"/><line class="cls-1" x1="150.44" y1="181.91" x2="133.63" y2="225.42"/><line class="cls-1" x1="164.73" y1="181.91" x2="176.37" y2="225.42"/><circle class="cls-1" cx="150.56" cy="319.5" r="18"/><path class="cls-2" d="M500.11,338.21l-3.57-4.91h1.91l1.62,2.22a19.55,19.55,0,0,0,1.19,1.72h.09c.37-.54.79-1.17,1.15-1.74l1.51-2.2h1.85l-3.61,5.06,3.9,5.14h-1.93l-1.76-2.35c-.44-.57-.9-1.26-1.34-1.85H501c-.42.61-.84,1.22-1.26,1.87l-1.68,2.33h-1.85Z" transform="translate(-356.94 -18)"/><path class="cls-2" d="M511.17,346.06h6.32v1.16h-6.32Zm2.59-5.29h-2.21v-.88A4.94,4.94,0,0,0,514,339h1.11v8.19h-1.36Z" transform="translate(-356.94 -18)"/><line class="cls-1" x1="132.79" y1="259.06" x2="144.43" y2="302.57"/><line class="cls-1" x1="93.32" y1="103" x2="55.5" y2="148.76"/><line class="cls-1" x1="121.86" y1="103" x2="150.5" y2="148.76"/><circle class="cls-1" cx="268.56" cy="165.5" r="18"/><path class="cls-2" d="M618.11,184.21l-3.57-4.91h1.91l1.62,2.22a19.55,19.55,0,0,0,1.19,1.72h.09c.37-.54.79-1.17,1.15-1.74l1.51-2.2h1.85l-3.61,5.06,3.9,5.14h-1.93l-1.76-2.35c-.44-.57-.9-1.26-1.34-1.85H619c-.42.61-.84,1.22-1.26,1.87l-1.68,2.33h-1.85Z" transform="translate(-356.94 -18)"/><path class="cls-2" d="M628.48,191.87l.88-.69a2.74,2.74,0,0,0,2.29,1.22c1,0,1.85-.53,1.85-1.45s-.88-1.45-2.75-1.45v-.86c1.66,0,2.43-.65,2.43-1.49s-.67-1.28-1.68-1.28a2.56,2.56,0,0,0-1.88,1l-.8-.71a3.58,3.58,0,0,1,2.87-1.36c1.54,0,2.84.84,2.84,2.2,0,1-.55,1.6-1.64,2a2.09,2.09,0,0,1,2,2c0,1.51-1.4,2.46-3.1,2.46A3.86,3.86,0,0,1,628.48,191.87Z" transform="translate(-356.94 -18)"/><line class="cls-1" x1="230.06" y1="107" x2="261.56" y2="148.91"/><line class="cls-1" x1="157.5" y1="32.7" x2="119.11" y2="78.21"/><line class="cls-1" x1="179.62" y1="32.7" x2="207.62" y2="78.21"/></svg>