<svg id="图层_1" data-name="图层 1" xmlns="http://www.w3.org/2000/svg" viewBox="0 0 533.6 187.54"><defs><style>.cls-1{fill:none;stroke:#3ea69f;stroke-miterlimit:10;}.cls-2{fill:#3ea69f;}</style></defs><circle class="cls-1" cx="48.5" cy="91.81" r="18"/><path class="cls-2" d="M378.33,202.82h3.87V193h-3v-1.14a9.5,9.5,0,0,0,3.45-1h1.3v11.95h3.48v1.45h-9.09Z" transform="translate(-340.4 -106.46)"/><path class="cls-2" d="M390.07,202.7l.86-1.16a5.33,5.33,0,0,0,3.78,1.53,3.1,3.1,0,0,0,3.38-3c0-1.85-1.3-2.92-3.27-2.92a4.93,4.93,0,0,0-2.73.8l-.93-.59.44-6.45h7.58v1.52h-6l-.36,3.94a5.84,5.84,0,0,1,2.48-.54c2.56,0,4.6,1.3,4.6,4.2s-2.4,4.53-5,4.53A6.76,6.76,0,0,1,390.07,202.7Z" transform="translate(-340.4 -106.46)"/><circle class="cls-1" cx="18.5" cy="168.81" r="18"/><path class="cls-2" d="M348.33,279.82h3.87V270h-3v-1.14a9.72,9.72,0,0,0,3.45-1h1.3v11.94h3.48v1.45h-9.09Z" transform="translate(-340.4 -106.46)"/><path class="cls-2" d="M360.39,274.53c0-4.49,1.82-6.91,4.8-6.91S370,270,370,274.53s-1.82,7-4.81,7S360.39,279,360.39,274.53Zm8,0c0-3.84-1.33-5.5-3.2-5.5s-3.19,1.66-3.19,5.5,1.33,5.59,3.19,5.59S368.39,278.37,368.39,274.53Zm-4.5-.15a1.31,1.31,0,1,1,1.3,1.41A1.3,1.3,0,0,1,363.89,274.38Z" transform="translate(-340.4 -106.46)"/><circle class="cls-1" cx="73.5" cy="168.81" r="18"/><path class="cls-2" d="M403.33,279.82h3.87V270h-3v-1.14a9.72,9.72,0,0,0,3.45-1h1.3v11.94h3.48v1.45h-9.09Z" transform="translate(-340.4 -106.46)"/><path class="cls-2" d="M415.32,277.85c0-1.85,1.43-2.9,2.88-3.57v-.09a3.76,3.76,0,0,1-2-3.12c0-2.06,1.75-3.45,4.14-3.45,2.62,0,4.16,1.49,4.16,3.57a4.21,4.21,0,0,1-2,3.19v.09c1.47.73,2.62,1.57,2.62,3.48s-1.74,3.57-4.8,3.57S415.32,280,415.32,277.85Zm8.07,0c0-1.85-1.87-2.33-4.2-3.11-1.31.7-2.29,1.56-2.29,2.9s1.32,2.54,3.38,2.54S423.39,279.28,423.39,277.89Zm-.45-6.61a2.38,2.38,0,0,0-2.68-2.36,2.22,2.22,0,0,0-2.5,2.15c0,1.59,1.53,2.26,3.53,2.89A3.38,3.38,0,0,0,422.94,271.28Z" transform="translate(-340.4 -106.46)"/><circle class="cls-1" cx="107.59" cy="18.5" r="18"/><path class="cls-2" d="M436.92,129.94c4.53-4,7-6.37,7-8.59,0-1.54-.92-2.61-2.9-2.61a4.62,4.62,0,0,0-3.21,1.6l-1-1a6,6,0,0,1,4.43-2c2.69,0,4.37,1.57,4.37,3.94s-2.52,5-6.15,8.32c.84-.06,1.7-.11,2.5-.11h4.39V131h-9.43Z" transform="translate(-340.4 -106.46)"/><path class="cls-2" d="M449.48,124.22c0-4.49,1.82-6.9,4.8-6.9s4.81,2.41,4.81,6.9-1.82,7-4.81,7S449.48,128.68,449.48,124.22Zm8,0c0-3.84-1.33-5.5-3.2-5.5s-3.19,1.66-3.19,5.5,1.33,5.59,3.19,5.59S457.48,128.07,457.48,124.22Zm-4.5-.14a1.31,1.31,0,1,1,1.3,1.4A1.31,1.31,0,0,1,453,124.08Z" transform="translate(-340.4 -106.46)"/><line class="cls-1" x1="41.44" y1="108.37" x2="24.63" y2="151.88"/><circle class="cls-1" cx="125.91" cy="168.96" r="18"/><path class="cls-2" d="M455.24,280.39c4.53-4,7-6.36,7-8.58,0-1.54-.92-2.61-2.9-2.61a4.62,4.62,0,0,0-3.21,1.6l-1-1a6,6,0,0,1,4.43-2c2.69,0,4.37,1.57,4.37,3.94s-2.52,5-6.15,8.32c.84-.07,1.7-.11,2.5-.11h4.39v1.49h-9.43Z" transform="translate(-340.4 -106.46)"/><path class="cls-2" d="M467.84,280.39c4.53-4,7-6.36,7-8.58,0-1.54-.92-2.61-2.9-2.61a4.62,4.62,0,0,0-3.21,1.6l-1-1a6,6,0,0,1,4.43-2c2.69,0,4.37,1.57,4.37,3.94s-2.52,5-6.15,8.32c.84-.07,1.7-.11,2.5-.11h4.39v1.49h-9.43Z" transform="translate(-340.4 -106.46)"/><line class="cls-1" x1="148.85" y1="108.52" x2="132.04" y2="152.03"/><line class="cls-1" x1="483.85" y1="108.52" x2="467.04" y2="152.03"/><line class="cls-1" x1="55.73" y1="108.37" x2="67.37" y2="151.88"/><circle class="cls-1" cx="515.1" cy="169.04" r="18"/><path class="cls-2" d="M844.33,278.08c0-1.85,1.43-2.9,2.88-3.57v-.09a3.74,3.74,0,0,1-2-3.12c0-2.06,1.74-3.45,4.13-3.45,2.63,0,4.16,1.49,4.16,3.57a4.18,4.18,0,0,1-2,3.19v.09c1.47.73,2.63,1.57,2.63,3.48s-1.74,3.57-4.81,3.57S844.33,280.2,844.33,278.08Zm8.06,0c0-1.85-1.87-2.33-4.2-3.11-1.3.7-2.29,1.56-2.29,2.9s1.33,2.54,3.38,2.54S852.39,279.51,852.39,278.12Zm-.44-6.61a2.39,2.39,0,0,0-2.69-2.36,2.22,2.22,0,0,0-2.5,2.15c0,1.59,1.54,2.26,3.53,2.89A3.39,3.39,0,0,0,852,271.51Z" transform="translate(-340.4 -106.46)"/><path class="cls-2" d="M857,274.76c0-4.49,1.83-6.91,4.81-6.91s4.81,2.42,4.81,6.91-1.83,7-4.81,7S857,279.21,857,274.76Zm8,0c0-3.84-1.32-5.5-3.19-5.5s-3.19,1.66-3.19,5.5,1.32,5.59,3.19,5.59S865,278.6,865,274.76Zm-4.49-.15a1.3,1.3,0,1,1,1.3,1.41A1.3,1.3,0,0,1,860.5,274.61Z" transform="translate(-340.4 -106.46)"/><line class="cls-1" x1="497.34" y1="108.6" x2="508.97" y2="152.11"/><circle class="cls-1" cx="157.5" cy="91.81" r="18"/><path class="cls-2" d="M486.83,203.24c4.53-4,7-6.36,7-8.59,0-1.53-.92-2.6-2.9-2.6a4.58,4.58,0,0,0-3.21,1.6l-1-1a6,6,0,0,1,4.43-2c2.69,0,4.37,1.58,4.37,3.95,0,2.52-2.52,5-6.15,8.31.84-.06,1.7-.1,2.5-.1h4.39v1.49h-9.43Z" transform="translate(-340.4 -106.46)"/><path class="cls-2" d="M499.07,202.7l.86-1.16a5.33,5.33,0,0,0,3.78,1.53,3.1,3.1,0,0,0,3.38-3c0-1.85-1.3-2.92-3.27-2.92a4.93,4.93,0,0,0-2.73.8l-.93-.59.44-6.45h7.58v1.52h-6l-.36,3.94a5.84,5.84,0,0,1,2.48-.54c2.56,0,4.6,1.3,4.6,4.2s-2.4,4.53-5,4.53A6.76,6.76,0,0,1,499.07,202.7Z" transform="translate(-340.4 -106.46)"/><line class="cls-1" x1="93.32" y1="29.46" x2="55.5" y2="75.22"/><line class="cls-1" x1="121.86" y1="29.46" x2="150.5" y2="75.22"/><circle class="cls-1" cx="440.59" cy="18.5" r="18"/><path class="cls-2" d="M770,124.77c0-5.37,2.69-7.45,5.61-7.45a5.38,5.38,0,0,1,3.74,1.42l-1,1.1a4,4,0,0,0-2.67-1.07c-2.18,0-4.07,1.53-4.07,6,0,3.3,1.26,5.08,3.49,5.08a2.78,2.78,0,0,0,2.81-2.94,2.55,2.55,0,0,0-2.84-2.83,4.66,4.66,0,0,0-3.5,1.89l-.06-1.37a5.65,5.65,0,0,1,3.88-1.82c2.48,0,4.18,1.38,4.18,4.13a4.33,4.33,0,0,1-4.47,4.31C772.21,131.22,770,129.07,770,124.77Z" transform="translate(-340.4 -106.46)"/><path class="cls-2" d="M782.48,124.22c0-4.49,1.82-6.9,4.8-6.9s4.81,2.41,4.81,6.9-1.82,7-4.81,7S782.48,128.68,782.48,124.22Zm8,0c0-3.84-1.33-5.5-3.2-5.5s-3.19,1.66-3.19,5.5,1.33,5.59,3.19,5.59S790.48,128.07,790.48,124.22Zm-4.5-.14a1.31,1.31,0,1,1,1.3,1.4A1.31,1.31,0,0,1,786,124.08Z" transform="translate(-340.4 -106.46)"/><circle class="cls-1" cx="458.91" cy="168.96" r="18"/><path class="cls-2" d="M788.32,275.23c0-5.38,2.69-7.45,5.61-7.45a5.33,5.33,0,0,1,3.74,1.42l-1,1.1a3.91,3.91,0,0,0-2.67-1.08c-2.18,0-4.07,1.54-4.07,6,0,3.3,1.26,5.08,3.49,5.08a2.78,2.78,0,0,0,2.81-2.94,2.55,2.55,0,0,0-2.84-2.83,4.66,4.66,0,0,0-3.5,1.89l-.06-1.37a5.65,5.65,0,0,1,3.88-1.82c2.48,0,4.18,1.38,4.18,4.13a4.33,4.33,0,0,1-4.47,4.31C790.53,281.68,788.32,279.53,788.32,275.23Z" transform="translate(-340.4 -106.46)"/><path class="cls-2" d="M800.48,279.85l.86-1.16a5.35,5.35,0,0,0,3.78,1.54,3.11,3.11,0,0,0,3.38-3.05c0-1.85-1.3-2.92-3.27-2.92a5,5,0,0,0-2.73.8l-.93-.59L802,268h7.58v1.51h-6l-.36,3.95a5.7,5.7,0,0,1,2.48-.55c2.56,0,4.6,1.3,4.6,4.2s-2.4,4.54-5,4.54A6.76,6.76,0,0,1,800.48,279.85Z" transform="translate(-340.4 -106.46)"/><circle class="cls-1" cx="490.5" cy="91.81" r="18"/><path class="cls-2" d="M827.47,192.39h-7.7v-1.52h9.7V192c-3.55,4.05-4.41,7.07-4.62,12.32H823A17.89,17.89,0,0,1,827.47,192.39Z" transform="translate(-340.4 -106.46)"/><path class="cls-2" d="M832.39,197.53c0-4.49,1.82-6.91,4.8-6.91S842,193,842,197.53s-1.82,7-4.81,7S832.39,202,832.39,197.53Zm8,0c0-3.84-1.33-5.5-3.2-5.5s-3.19,1.66-3.19,5.5,1.33,5.59,3.19,5.59S840.39,201.37,840.39,197.53Zm-4.5-.15a1.31,1.31,0,1,1,1.3,1.41A1.3,1.3,0,0,1,835.89,197.38Z" transform="translate(-340.4 -106.46)"/><line class="cls-1" x1="454.86" y1="29.46" x2="483.5" y2="75.22"/><circle class="cls-1" cx="249.5" cy="91.81" r="18"/><path class="cls-2" d="M584.77,202.7l.86-1.16a5.35,5.35,0,0,0,3.78,1.53,3.1,3.1,0,0,0,3.38-3c0-1.85-1.3-2.92-3.27-2.92a4.93,4.93,0,0,0-2.73.8l-.93-.59.44-6.45h7.58v1.52h-6l-.36,3.94a5.84,5.84,0,0,1,2.48-.54c2.56,0,4.6,1.3,4.6,4.2s-2.4,4.53-5,4.53A6.76,6.76,0,0,1,584.77,202.7Z" transform="translate(-340.4 -106.46)"/><circle class="cls-1" cx="219.5" cy="168.81" r="18"/><path class="cls-2" d="M555.13,280.24c4.53-4,7-6.36,7-8.59,0-1.53-.92-2.6-2.9-2.6a4.58,4.58,0,0,0-3.21,1.6l-1-1a6,6,0,0,1,4.43-2c2.69,0,4.37,1.58,4.37,3.95s-2.52,5-6.15,8.31c.84-.06,1.7-.1,2.5-.1h4.39v1.49h-9.43Z" transform="translate(-340.4 -106.46)"/><circle class="cls-1" cx="308.59" cy="18.5" r="18"/><path class="cls-2" d="M637.58,129.33l.88-1.14a5.44,5.44,0,0,0,3.85,1.58c1.82,0,3.19-1,3.19-2.44s-1.35-2.66-4.85-2.66v-1.33c3.17,0,4.39-1.09,4.39-2.5s-1.12-2.1-2.73-2.1a5.06,5.06,0,0,0-3.3,1.35l-.92-1.09a6.46,6.46,0,0,1,4.28-1.68c2.52,0,4.43,1.24,4.43,3.4,0,1.61-1.2,2.64-2.86,3.19V124c1.79.38,3.32,1.56,3.32,3.4,0,2.38-2.18,3.83-4.85,3.83A6.6,6.6,0,0,1,637.58,129.33Z" transform="translate(-340.4 -106.46)"/><path class="cls-2" d="M650.48,124.22c0-4.49,1.82-6.9,4.8-6.9s4.81,2.41,4.81,6.9-1.82,7-4.81,7S650.48,128.68,650.48,124.22Zm8,0c0-3.84-1.33-5.5-3.2-5.5s-3.19,1.66-3.19,5.5,1.33,5.59,3.19,5.59S658.48,128.07,658.48,124.22Zm-4.5-.14a1.31,1.31,0,1,1,1.3,1.4A1.31,1.31,0,0,1,654,124.08Z" transform="translate(-340.4 -106.46)"/><line class="cls-1" x1="242.44" y1="108.37" x2="225.63" y2="151.88"/><circle class="cls-1" cx="358.5" cy="91.81" r="18"/><path class="cls-2" d="M694,195.05c0-.73.06-1.63.11-2.37H694c-.44.65-.92,1.3-1.36,1.95l-3.61,4.54h8.69v1.4H687.11v-1.15l6.68-8.55h1.87v13.4H694Z" transform="translate(-340.4 -106.46)"/><path class="cls-2" d="M700.39,197.53c0-4.49,1.82-6.91,4.8-6.91S710,193,710,197.53s-1.82,7-4.81,7S700.39,202,700.39,197.53Zm8,0c0-3.84-1.33-5.5-3.2-5.5s-3.19,1.66-3.19,5.5,1.33,5.59,3.19,5.59S708.39,201.37,708.39,197.53Zm-4.5-.15a1.31,1.31,0,1,1,1.3,1.41A1.3,1.3,0,0,1,703.89,197.38Z" transform="translate(-340.4 -106.46)"/><line class="cls-1" x1="294.32" y1="29.46" x2="256.5" y2="75.22"/><line class="cls-1" x1="322.86" y1="29.46" x2="351.5" y2="75.22"/></svg>