<svg id="图层_1" data-name="图层 1" xmlns="http://www.w3.org/2000/svg" viewBox="0 0 838.71 83.96"><defs><style>.cls-1,.cls-3{fill:none;stroke:#3ea69f;stroke-miterlimit:10;}.cls-2{fill:#3ea69f;}.cls-3{stroke-dasharray:9 9;}.cls-4{fill:#44beb7;}</style></defs><rect class="cls-1" x="98.91" y="50.5" width="88.47" height="32.96"/><line class="cls-1" x1="155.01" y1="50.5" x2="155.01" y2="83.46"/><path class="cls-2" d="M110.45,72.42h-.07l-.17,1.17h-1.44V58.12h1.81v4.22l-.09,2h.07a5.19,5.19,0,0,1,3.54-1.61c2.84,0,4.39,2.11,4.39,5.37,0,3.61-2.26,5.71-4.76,5.71A5.23,5.23,0,0,1,110.45,72.42Zm6.19-4.26c0-2.32-.87-3.87-3-3.87a4.44,4.44,0,0,0-3.08,1.57v5.26a4.34,4.34,0,0,0,2.85,1.21C115.22,72.33,116.64,70.77,116.64,68.16Z"/><path class="cls-2" d="M121.53,70.86c0-2.37,2.22-3.52,7.67-4a2.5,2.5,0,0,0-2.35-2.66,2.26,2.26,0,0,0-.45,0,7.35,7.35,0,0,0-3.7,1.26L122,64.25a9.2,9.2,0,0,1,4.71-1.52c2.89,0,4.3,1.72,4.3,4.35v6.47h-1.5l-.15-1.43h-.06a7.15,7.15,0,0,1-4.15,1.69C123.16,73.85,121.53,72.75,121.53,70.86Zm7.67,0V68.1c-4.52.34-5.89,1.24-5.89,2.63,0,1.19,1.09,1.67,2.3,1.67a5.75,5.75,0,0,0,3.61-1.57Z"/><path class="cls-2" d="M137.3,69.49v-5h-3V63.14l3.07-.11.24-3.39h1.5V63h5.17v1.46h-5.17v5c0,1.89.63,2.87,2.67,2.87a7,7,0,0,0,2.52-.48l.39,1.32a9.08,9.08,0,0,1-3.3.63C138.3,73.85,137.3,72.09,137.3,69.49Z"/><rect class="cls-1" x="251.56" y="50.5" width="88.47" height="32.96"/><line class="cls-1" x1="307.66" y1="50.5" x2="307.66" y2="83.46"/><path class="cls-2" d="M261.14,68.34c0-3.55,2.69-5.57,5.89-5.57a5.35,5.35,0,0,1,3.84,1.55L270,65.47a4.38,4.38,0,0,0-2.89-1.2,3.89,3.89,0,0,0-4.1,3.65,2.94,2.94,0,0,0,0,.42,3.83,3.83,0,0,0,3.65,4h.41A5,5,0,0,0,270.31,71l.8,1.17a6.26,6.26,0,0,1-4.19,1.65C263.62,73.85,261.14,71.83,261.14,68.34Z"/><path class="cls-2" d="M274.22,70.86c0-2.37,2.21-3.52,7.67-4a2.5,2.5,0,0,0-2.35-2.66,2.36,2.36,0,0,0-.46,0,7.38,7.38,0,0,0-3.69,1.26l-.72-1.22a9.36,9.36,0,0,1,4.72-1.52c2.89,0,4.3,1.72,4.3,4.35v6.47h-1.5L282,72.12H282a7.06,7.06,0,0,1-4.15,1.69C275.81,73.85,274.22,72.75,274.22,70.86Zm7.67,0V68.1c-4.52.34-5.89,1.24-5.89,2.63,0,1.19,1.08,1.67,2.3,1.67a5.78,5.78,0,0,0,3.55-1.57Z"/><path class="cls-2" d="M290,69.49v-5h-3V63.14L290,63l.24-3.39h1.49V63h5.18v1.46h-5.18v5c0,1.89.63,2.87,2.68,2.87a7,7,0,0,0,2.52-.48l.39,1.32a9.3,9.3,0,0,1-3.3.63C291,73.85,290,72.09,290,69.49Z"/><rect class="cls-1" x="557.21" y="50.5" width="88.47" height="32.96"/><line class="cls-1" x1="613.31" y1="50.5" x2="613.31" y2="83.46"/><path class="cls-2" d="M566.59,72.2l.83-1.19A7.53,7.53,0,0,0,572,72.44c1.79,0,2.66-.74,2.66-1.63s-.42-1.37-3.29-2-4.12-1.5-4.12-3.09,1.5-3,4.39-3a7.87,7.87,0,0,1,4.25,1.35L575,65.27a6.21,6.21,0,0,0-3.54-1.11c-1.78,0-2.43.72-2.43,1.53s.91,1.3,3.08,1.76c3.5.76,4.35,1.62,4.35,3.25s-1.67,3.15-4.69,3.15A9.3,9.3,0,0,1,566.59,72.2Z"/><path class="cls-2" d="M579.83,70.86c0-2.37,2.21-3.52,7.67-4a2.5,2.5,0,0,0-2.35-2.66,2.36,2.36,0,0,0-.46,0A7.29,7.29,0,0,0,581,65.47l-.72-1.22A9.36,9.36,0,0,1,585,62.73c2.89,0,4.3,1.72,4.3,4.35v6.47h-1.5l-.15-1.43h-.07a7.06,7.06,0,0,1-4.15,1.69C581.46,73.85,579.83,72.75,579.83,70.86Zm7.67,0V68.1c-4.52.34-5.89,1.24-5.89,2.63,0,1.19,1.08,1.67,2.3,1.67a5.77,5.77,0,0,0,3.59-1.57Z"/><path class="cls-2" d="M595.6,69.49v-5h-3V63.14l3.07-.11.23-3.39h1.5V63h5.18v1.46H597.4v5c0,1.89.63,2.87,2.68,2.87a7,7,0,0,0,2.52-.48l.39,1.32a9.18,9.18,0,0,1-3.31.63C596.6,73.85,595.6,72.09,595.6,69.49Z"/><rect class="cls-1" x="404.21" y="50.5" width="88.47" height="32.96"/><line class="cls-1" x1="460.31" y1="50.5" x2="460.31" y2="83.46"/><path class="cls-2" d="M413.31,63h1.44l.15,1.39h0a2.63,2.63,0,0,1,2.41-1.65c1,0,1.7.61,2,1.83.61-1.13,1.26-1.83,2.48-1.83,1.48,0,2.35,1.15,2.35,3.26v7.56h-1.79V66.13c0-1.21-.34-1.84-1.13-1.84s-1.13.54-1.69,1.63v7.64h-1.61V66.13c0-1.21-.31-1.84-1.09-1.84s-1.22.54-1.74,1.63v7.64h-1.78Z"/><path class="cls-2" d="M426.83,70.86c0-2.37,2.21-3.52,7.67-4a2.5,2.5,0,0,0-2.35-2.66,2.36,2.36,0,0,0-.46,0A7.29,7.29,0,0,0,428,65.47l-.72-1.22A9.36,9.36,0,0,1,432,62.73c2.89,0,4.3,1.72,4.3,4.35v6.47h-1.5l-.15-1.43h-.07a7.06,7.06,0,0,1-4.15,1.69C428.46,73.85,426.83,72.75,426.83,70.86Zm7.67,0V68.1c-4.52.34-5.89,1.24-5.89,2.63,0,1.19,1.08,1.67,2.3,1.67a5.77,5.77,0,0,0,3.59-1.57Z"/><path class="cls-2" d="M442.6,69.49v-5h-3V63.14l3.07-.11.23-3.39h1.5V63h5.18v1.46H444.4v5c0,1.89.63,2.87,2.68,2.87a7,7,0,0,0,2.52-.48l.39,1.32a9.18,9.18,0,0,1-3.31.63C443.6,73.85,442.6,72.09,442.6,69.49Z"/><rect class="cls-1" x="709.85" y="50.5" width="128.36" height="32.96"/><line class="cls-1" x1="765.95" y1="50.5" x2="765.95" y2="83.46"/><path class="cls-2" d="M718.78,63h1.85l2.44,6c.41,1.06.8,2.11,1.17,3.13h.09c.36-1,.71-2.07,1.15-3.13l2.43-6h1.74l-4.43,10.59h-2Z"/><path class="cls-2" d="M732.47,70.86c0-2.37,2.22-3.52,7.67-4a2.52,2.52,0,0,0-2.8-2.65,7.29,7.29,0,0,0-3.69,1.26l-.72-1.22a9.29,9.29,0,0,1,4.71-1.52c2.89,0,4.31,1.72,4.31,4.35v6.47h-1.5l-.15-1.43h-.08a7.06,7.06,0,0,1-4.15,1.69C734.1,73.85,732.47,72.75,732.47,70.86Zm7.67,0V68.1c-4.52.34-5.88,1.24-5.88,2.63,0,1.19,1.08,1.67,2.3,1.67a5.72,5.72,0,0,0,3.58-1.57Z"/><path class="cls-2" d="M748.22,69.49v-5h-3V63.14l3.06-.11.24-3.39H750V63h5.2v1.46h-5.17v5c0,1.89.63,2.87,2.67,2.87a7,7,0,0,0,2.52-.48l.4,1.32a9.18,9.18,0,0,1-3.31.63C749.22,73.85,748.22,72.09,748.22,69.49Z"/><path class="cls-2" d="M778.09,59.59h2.55l3.59,7.65,1.24,2.9h.06c-.1-1.39-.33-3.11-.33-4.63V59.59h2.3V73.2H785l-3.6-7.65-1.23-2.9h-.06c.1,1.45.33,3.09.33,4.6v6h-2.31Z"/><path class="cls-2" d="M790.53,68V59.58H793v8.6c0,2.2.91,3.15,2.36,3.15s2.39-1,2.39-3.15v-8.6h2.34V68c0,3.71-1.75,5.44-4.73,5.44S790.53,71.72,790.53,68Z"/><path class="cls-2" d="M804,59.59h2.41V71.16h6.38v2H804Z"/><path class="cls-2" d="M816.52,59.59h2.41V71.16h6.38v2h-8.79Z"/><line class="cls-1" x1="170.03" y1="67.85" x2="229.91" y2="67.85"/><path class="cls-2" d="M236,67.85a30.13,30.13,0,0,0-8.55,4.75l1.72-4.75-1.72-4.76A30.16,30.16,0,0,0,236,67.85Z"/><line class="cls-1" x1="47.22" y1="67.85" x2="77.26" y2="67.85"/><path class="cls-2" d="M83.3,67.85a30.13,30.13,0,0,0-8.55,4.75l1.72-4.75-1.72-4.76A30.16,30.16,0,0,0,83.3,67.85Z"/><line class="cls-3" x1="382.56" y1="67.85" x2="322.68" y2="67.85"/><path class="cls-2" d="M388.6,67.85a30.4,30.4,0,0,1-8.55-4.76l1.72,4.76-1.72,4.75A30.13,30.13,0,0,1,388.6,67.85Z"/><line class="cls-1" x1="628.33" y1="67.85" x2="688.21" y2="67.85"/><path class="cls-2" d="M694.22,67.85a30.07,30.07,0,0,0-8.54,4.75l1.72-4.75-1.72-4.76A30.1,30.1,0,0,0,694.22,67.85Z"/><line class="cls-1" x1="476.33" y1="67.85" x2="536.21" y2="67.85"/><path class="cls-2" d="M542.22,67.85a30.07,30.07,0,0,0-8.54,4.75l1.72-4.75-1.72-4.76A30.1,30.1,0,0,0,542.22,67.85Z"/><path class="cls-4" d="M0,63H1.48l.15,1.35H1.7a5.64,5.64,0,0,1,3.65-1.61c2.84,0,4.37,2.11,4.37,5.39,0,3.59-2.26,5.69-4.81,5.69a5,5,0,0,1-3.15-1.36h0l.09,2V78H0Zm7.87,5.13c0-2.32-.87-3.87-3-3.87a4.44,4.44,0,0,0-3.08,1.57v5.26a4.33,4.33,0,0,0,2.8,1.21c1.89,0,3.28-1.53,3.28-4.14Z"/><path class="cls-4" d="M15.49,69.49v-5h-3V63.14L15.55,63l.24-3.39h1.5V63h5.17v1.46H17.29v5c0,1.89.63,2.87,2.67,2.87a7,7,0,0,0,2.52-.48l.39,1.32a9.08,9.08,0,0,1-3.3.63C16.49,73.85,15.49,72.09,15.49,69.49Z"/><path class="cls-4" d="M27.22,63h1.49l.18,2.5h0a5.6,5.6,0,0,1,4.72-2.76,4.29,4.29,0,0,1,2.08.44l-.41,1.54a5.48,5.48,0,0,0-2-.35c-1.58,0-3.08.81-4.34,3v6.17H27.22Z"/><polyline class="cls-1" points="322.68 66.5 322.72 0.5 584.72 0.5 584.72 27.46"/><path class="cls-2" d="M584.72,33.5A30.16,30.16,0,0,0,580,25l4.76,1.72L589.47,25A30.13,30.13,0,0,0,584.72,33.5Z"/></svg>