<svg id="图层_1" data-name="图层 1" xmlns="http://www.w3.org/2000/svg" viewBox="0 0 466.41 341.46"><defs><style>.cls-1{fill:none;stroke:#3ea69f;stroke-miterlimit:10;}.cls-2{fill:#3ea69f;}</style></defs><circle class="cls-1" cx="48.5" cy="91.81" r="18"/><path class="cls-2" d="M363,126.32c4.54-4,7-6.36,7-8.59,0-1.53-.93-2.6-2.9-2.6a4.61,4.61,0,0,0-3.21,1.59l-1-1a6,6,0,0,1,4.43-2c2.69,0,4.37,1.57,4.37,4s-2.52,5-6.16,8.31c.84-.06,1.7-.1,2.5-.1h4.39v1.49H363Z" transform="translate(-325.59 -29.54)"/><path class="cls-2" d="M375.58,120.61c0-4.5,1.83-6.91,4.81-6.91s4.81,2.41,4.81,6.91-1.83,7-4.81,7S375.58,125.06,375.58,120.61Zm8,0c0-3.85-1.32-5.5-3.19-5.5s-3.19,1.65-3.19,5.5,1.32,5.58,3.19,5.58S383.58,124.45,383.58,120.61Zm-4.49-.15a1.3,1.3,0,1,1,1.3,1.41A1.31,1.31,0,0,1,379.09,120.46Z" transform="translate(-325.59 -29.54)"/><circle class="cls-1" cx="18.5" cy="168.81" r="18"/><path class="cls-2" d="M333.53,202.9h3.86v-9.83h-3v-1.13a9.71,9.71,0,0,0,3.44-1h1.3v12h3.49v1.45h-9.09Z" transform="translate(-325.59 -29.54)"/><path class="cls-2" d="M345.58,197.61c0-4.5,1.83-6.91,4.81-6.91s4.81,2.41,4.81,6.91-1.83,7-4.81,7S345.58,202.06,345.58,197.61Zm8,0c0-3.85-1.32-5.5-3.19-5.5s-3.19,1.65-3.19,5.5,1.32,5.58,3.19,5.58S353.58,201.45,353.58,197.61Zm-4.49-.15a1.3,1.3,0,1,1,1.3,1.41A1.31,1.31,0,0,1,349.09,197.46Z" transform="translate(-325.59 -29.54)"/><circle class="cls-1" cx="73.5" cy="168.81" r="18"/><path class="cls-2" d="M387.69,202.71l.88-1.13a5.41,5.41,0,0,0,3.84,1.57c1.83,0,3.19-.94,3.19-2.44s-1.34-2.66-4.85-2.66v-1.32c3.17,0,4.39-1.1,4.39-2.5s-1.11-2.1-2.73-2.1a5,5,0,0,0-3.29,1.34l-.93-1.09a6.46,6.46,0,0,1,4.28-1.68c2.52,0,4.43,1.24,4.43,3.4,0,1.62-1.19,2.65-2.85,3.19v.09c1.78.37,3.32,1.55,3.32,3.4,0,2.37-2.19,3.82-4.85,3.82A6.54,6.54,0,0,1,387.69,202.71Z" transform="translate(-325.59 -29.54)"/><path class="cls-2" d="M400.58,197.61c0-4.5,1.83-6.91,4.81-6.91s4.81,2.41,4.81,6.91-1.83,7-4.81,7S400.58,202.06,400.58,197.61Zm8,0c0-3.85-1.32-5.5-3.19-5.5s-3.19,1.65-3.19,5.5,1.32,5.58,3.19,5.58S408.58,201.45,408.58,197.61Zm-4.49-.15a1.3,1.3,0,1,1,1.3,1.41A1.31,1.31,0,0,1,404.09,197.46Z" transform="translate(-325.59 -29.54)"/><circle class="cls-1" cx="107.59" cy="18.5" r="18"/><path class="cls-2" d="M428.31,44.82c0-.73.06-1.63.1-2.37h-.1c-.44.65-.93,1.3-1.37,1.95l-3.61,4.54H432v1.41H421.4V49.19l6.68-8.54h1.86V54h-1.63Z" transform="translate(-325.59 -29.54)"/><path class="cls-2" d="M434.67,47.3c0-4.49,1.83-6.91,4.81-6.91s4.81,2.42,4.81,6.91-1.83,7-4.81,7S434.67,51.75,434.67,47.3Zm8,0c0-3.84-1.32-5.5-3.19-5.5s-3.19,1.66-3.19,5.5,1.32,5.59,3.19,5.59S442.67,51.14,442.67,47.3Zm-4.49-.15a1.3,1.3,0,1,1,1.3,1.41A1.3,1.3,0,0,1,438.18,47.15Z" transform="translate(-325.59 -29.54)"/><line class="cls-1" x1="41.44" y1="108.37" x2="24.63" y2="151.88"/><circle class="cls-1" cx="125.91" cy="168.96" r="18"/><path class="cls-2" d="M440.08,202.93l.86-1.16a5.31,5.31,0,0,0,3.78,1.53,3.11,3.11,0,0,0,3.38-3c0-1.85-1.31-2.92-3.28-2.92a5,5,0,0,0-2.73.8l-.92-.59.44-6.45h7.58v1.52h-6.05l-.36,3.94a5.84,5.84,0,0,1,2.48-.54c2.56,0,4.6,1.3,4.6,4.2s-2.39,4.53-4.95,4.53A6.72,6.72,0,0,1,440.08,202.93Z" transform="translate(-325.59 -29.54)"/><path class="cls-2" d="M453,197.76c0-4.49,1.83-6.91,4.81-6.91s4.81,2.42,4.81,6.91-1.83,7-4.81,7S453,202.21,453,197.76Zm8,0c0-3.84-1.32-5.5-3.19-5.5s-3.19,1.66-3.19,5.5,1.32,5.59,3.19,5.59S461,201.6,461,197.76Zm-4.49-.15a1.3,1.3,0,1,1,1.3,1.41A1.3,1.3,0,0,1,456.5,197.61Z" transform="translate(-325.59 -29.54)"/><line class="cls-1" x1="148.85" y1="108.52" x2="132.04" y2="152.03"/><line class="cls-1" x1="55.73" y1="108.37" x2="67.37" y2="151.88"/><circle class="cls-1" cx="182.91" cy="168.96" r="18"/><path class="cls-2" d="M505.08,192.62h-7.71V191.1h9.7v1.08c-3.55,4-4.41,7.07-4.62,12.32h-1.83A17.9,17.9,0,0,1,505.08,192.62Z" transform="translate(-325.59 -29.54)"/><path class="cls-2" d="M510,197.76c0-4.49,1.83-6.91,4.81-6.91s4.81,2.42,4.81,6.91-1.83,7-4.81,7S510,202.21,510,197.76Zm8,0c0-3.84-1.32-5.5-3.19-5.5s-3.19,1.66-3.19,5.5,1.32,5.59,3.19,5.59S518,201.6,518,197.76Zm-4.49-.15a1.3,1.3,0,1,1,1.3,1.41A1.3,1.3,0,0,1,513.5,197.61Z" transform="translate(-325.59 -29.54)"/><line class="cls-1" x1="165.14" y1="108.52" x2="176.78" y2="152.03"/><circle class="cls-1" cx="447.91" cy="168.96" r="18"/><path class="cls-2" d="M770.08,192.62h-7.71V191.1h9.7v1.08c-3.55,4-4.41,7.07-4.62,12.32h-1.83A17.9,17.9,0,0,1,770.08,192.62Z" transform="translate(-325.59 -29.54)"/><path class="cls-2" d="M775,197.76c0-4.49,1.83-6.91,4.81-6.91s4.81,2.42,4.81,6.91-1.83,7-4.81,7S775,202.21,775,197.76Zm8,0c0-3.84-1.32-5.5-3.19-5.5s-3.19,1.66-3.19,5.5,1.32,5.59,3.19,5.59S783,201.6,783,197.76Zm-4.49-.15a1.3,1.3,0,1,1,1.3,1.41A1.3,1.3,0,0,1,778.5,197.61Z" transform="translate(-325.59 -29.54)"/><line class="cls-1" x1="430.14" y1="108.52" x2="441.78" y2="152.03"/><circle class="cls-1" cx="94.91" cy="245.96" r="18"/><path class="cls-2" d="M415.63,272.28c0-.73.06-1.64.1-2.37h-.1c-.44.65-.93,1.3-1.37,1.95l-3.61,4.54h8.69v1.4H408.72v-1.15l6.68-8.55h1.86v13.4h-1.63Z" transform="translate(-325.59 -29.54)"/><path class="cls-2" d="M421.68,279.93l.86-1.16a5.31,5.31,0,0,0,3.78,1.53,3.11,3.11,0,0,0,3.38-3c0-1.85-1.31-2.92-3.28-2.92a5,5,0,0,0-2.73.8l-.92-.59.44-6.45h7.58v1.52h-6.05l-.36,3.94a5.84,5.84,0,0,1,2.48-.54c2.56,0,4.6,1.3,4.6,4.2s-2.39,4.53-5,4.53A6.71,6.71,0,0,1,421.68,279.93Z" transform="translate(-325.59 -29.54)"/><path class="cls-2" d="M493.5,276.25c0,9.53-8.06,17.25-18,17.25s-18-7.72-18-17.25,8.06-17.25,18-17.25S493.5,266.72,493.5,276.25Zm-24.59,6c2.56,0,4.95-1.57,4.95-4.35s-2-4-4.6-4a6,6,0,0,0-2.48.52l.36-3.78h6.05v-1.45h-7.58l-.44,6.18.92.56a5.2,5.2,0,0,1,2.73-.76c2,0,3.28,1,3.28,2.79s-1.52,2.92-3.38,2.92a5.42,5.42,0,0,1-3.78-1.47l-.86,1.11A6.84,6.84,0,0,0,468.91,282.24Zm12.59,0c2.57,0,5-1.57,5-4.35s-2-4-4.6-4a6,6,0,0,0-2.48.52l.36-3.78h6.05v-1.45h-7.58l-.44,6.18.92.56a5.2,5.2,0,0,1,2.73-.76c2,0,3.28,1,3.28,2.79s-1.52,2.92-3.38,2.92a5.42,5.42,0,0,1-3.78-1.47l-.86,1.11A6.84,6.84,0,0,0,481.5,282.24Z" transform="translate(-325.59 -29.54)"/><line class="cls-1" x1="117.85" y1="185.52" x2="101.04" y2="229.03"/><circle class="cls-1" cx="118.91" cy="322.96" r="18"/><path class="cls-2" d="M433.08,356.93l.86-1.16a5.31,5.31,0,0,0,3.78,1.53,3.11,3.11,0,0,0,3.38-3c0-1.85-1.31-2.92-3.28-2.92a5,5,0,0,0-2.73.8l-.92-.59.44-6.45h7.58v1.52h-6.05l-.36,3.94a5.84,5.84,0,0,1,2.48-.54c2.56,0,4.6,1.3,4.6,4.2s-2.39,4.53-4.95,4.53A6.72,6.72,0,0,1,433.08,356.93Z" transform="translate(-325.59 -29.54)"/><path class="cls-2" d="M446,357.47c4.54-4,7-6.36,7-8.59,0-1.53-.93-2.6-2.9-2.6a4.58,4.58,0,0,0-3.21,1.6l-1-1a6,6,0,0,1,4.43-2c2.69,0,4.37,1.58,4.37,3.95s-2.52,5-6.16,8.31c.84-.06,1.7-.1,2.5-.1h4.39v1.49H446Z" transform="translate(-325.59 -29.54)"/><line class="cls-1" x1="141.85" y1="262.52" x2="125.04" y2="306.03"/><line class="cls-1" x1="132.14" y1="185.52" x2="143.78" y2="229.03"/><path class="cls-2" d="M501.09,121.35a18,18,0,1,1-18-18A18,18,0,0,1,501.09,121.35Zm-23.86,6.25a4.32,4.32,0,0,0,4.47-4.31c0-2.75-1.7-4.13-4.18-4.13a5.67,5.67,0,0,0-3.88,1.82l.06,1.37a4.69,4.69,0,0,1,3.51-1.89,2.54,2.54,0,0,1,2.83,2.83,2.77,2.77,0,0,1-2.81,2.94c-2.23,0-3.48-1.78-3.48-5.08,0-4.47,1.88-6,4.07-6a3.93,3.93,0,0,1,2.66,1.07l1-1.09a5.32,5.32,0,0,0-3.74-1.43c-2.92,0-5.6,2.08-5.6,7.45C472.11,125.46,474.31,127.6,477.23,127.6Zm12.16,0c3,0,4.81-2.54,4.81-7s-1.83-6.91-4.81-6.91-4.81,2.41-4.81,6.91S486.41,127.6,489.39,127.6Zm0-1.41c-1.87,0-3.19-1.74-3.19-5.58s1.32-5.5,3.19-5.5,3.19,1.65,3.19,5.5S491.26,126.19,489.39,126.19Zm0-4.32a1.4,1.4,0,1,0-1.3-1.41A1.31,1.31,0,0,0,489.39,121.87Z" transform="translate(-325.59 -29.54)"/><line class="cls-1" x1="93.32" y1="29.46" x2="55.5" y2="75.22"/><line class="cls-1" x1="121.86" y1="29.46" x2="150.5" y2="75.22"/><circle class="cls-1" cx="315.5" cy="91.81" r="18"/><path class="cls-2" d="M630,126.32c4.54-4,7-6.36,7-8.59,0-1.53-.93-2.6-2.9-2.6a4.61,4.61,0,0,0-3.21,1.59l-1-1a6,6,0,0,1,4.43-2c2.69,0,4.37,1.57,4.37,4s-2.52,5-6.16,8.31c.84-.06,1.7-.1,2.5-.1h4.39v1.49H630Z" transform="translate(-325.59 -29.54)"/><path class="cls-2" d="M642.58,120.61c0-4.5,1.83-6.91,4.81-6.91s4.81,2.41,4.81,6.91-1.83,7-4.81,7S642.58,125.06,642.58,120.61Zm8,0c0-3.85-1.32-5.5-3.19-5.5s-3.19,1.65-3.19,5.5,1.32,5.58,3.19,5.58S650.58,124.45,650.58,120.61Zm-4.49-.15a1.3,1.3,0,1,1,1.3,1.41A1.31,1.31,0,0,1,646.09,120.46Z" transform="translate(-325.59 -29.54)"/><circle class="cls-1" cx="285.5" cy="168.81" r="18"/><path class="cls-2" d="M600.53,202.9h3.86v-9.83h-3v-1.13a9.71,9.71,0,0,0,3.44-1h1.3v12h3.49v1.45h-9.09Z" transform="translate(-325.59 -29.54)"/><path class="cls-2" d="M612.58,197.61c0-4.5,1.83-6.91,4.81-6.91s4.81,2.41,4.81,6.91-1.83,7-4.81,7S612.58,202.06,612.58,197.61Zm8,0c0-3.85-1.32-5.5-3.19-5.5s-3.19,1.65-3.19,5.5,1.32,5.58,3.19,5.58S620.58,201.45,620.58,197.61Zm-4.49-.15a1.3,1.3,0,1,1,1.3,1.41A1.31,1.31,0,0,1,616.09,197.46Z" transform="translate(-325.59 -29.54)"/><circle class="cls-1" cx="340.5" cy="168.81" r="18"/><path class="cls-2" d="M654.69,202.71l.88-1.13a5.41,5.41,0,0,0,3.84,1.57c1.83,0,3.19-.94,3.19-2.44s-1.34-2.66-4.85-2.66v-1.32c3.17,0,4.39-1.1,4.39-2.5s-1.11-2.1-2.73-2.1a5,5,0,0,0-3.29,1.34l-.93-1.09a6.46,6.46,0,0,1,4.28-1.68c2.52,0,4.43,1.24,4.43,3.4,0,1.62-1.19,2.65-2.85,3.19v.09c1.78.37,3.32,1.55,3.32,3.4,0,2.37-2.19,3.82-4.85,3.82A6.54,6.54,0,0,1,654.69,202.71Z" transform="translate(-325.59 -29.54)"/><path class="cls-2" d="M667.58,197.61c0-4.5,1.83-6.91,4.81-6.91s4.81,2.41,4.81,6.91-1.83,7-4.81,7S667.58,202.06,667.58,197.61Zm8,0c0-3.85-1.32-5.5-3.19-5.5s-3.19,1.65-3.19,5.5,1.32,5.58,3.19,5.58S675.58,201.45,675.58,197.61Zm-4.49-.15a1.3,1.3,0,1,1,1.3,1.41A1.31,1.31,0,0,1,671.09,197.46Z" transform="translate(-325.59 -29.54)"/><circle class="cls-1" cx="374.59" cy="18.5" r="18"/><path class="cls-2" d="M695.31,44.82c0-.73.06-1.63.1-2.37h-.1c-.44.65-.93,1.3-1.37,1.95l-3.61,4.54H699v1.41H688.4V49.19l6.68-8.54H697V54h-1.64Z" transform="translate(-325.59 -29.54)"/><path class="cls-2" d="M701.67,47.3c0-4.49,1.83-6.91,4.81-6.91s4.81,2.42,4.81,6.91-1.83,7-4.81,7S701.67,51.75,701.67,47.3Zm8,0c0-3.84-1.32-5.5-3.19-5.5s-3.19,1.66-3.19,5.5,1.32,5.59,3.19,5.59S709.67,51.14,709.67,47.3Zm-4.49-.15a1.3,1.3,0,1,1,1.3,1.41A1.3,1.3,0,0,1,705.18,47.15Z" transform="translate(-325.59 -29.54)"/><line class="cls-1" x1="308.44" y1="108.37" x2="291.63" y2="151.88"/><circle class="cls-1" cx="392.91" cy="168.96" r="18"/><path class="cls-2" d="M707.08,202.93l.86-1.16a5.31,5.31,0,0,0,3.78,1.53,3.11,3.11,0,0,0,3.38-3c0-1.85-1.31-2.92-3.28-2.92a5,5,0,0,0-2.73.8l-.92-.59.44-6.45h7.58v1.52h-6.05l-.35,3.94a5.76,5.76,0,0,1,2.47-.54c2.56,0,4.6,1.3,4.6,4.2s-2.39,4.53-5,4.53A6.74,6.74,0,0,1,707.08,202.93Z" transform="translate(-325.59 -29.54)"/><path class="cls-2" d="M720,197.76c0-4.49,1.83-6.91,4.81-6.91s4.81,2.42,4.81,6.91-1.83,7-4.81,7S720,202.21,720,197.76Zm8,0c0-3.84-1.32-5.5-3.19-5.5s-3.19,1.66-3.19,5.5,1.32,5.59,3.19,5.59S728,201.6,728,197.76Zm-4.49-.15a1.3,1.3,0,1,1,1.3,1.41A1.3,1.3,0,0,1,723.5,197.61Z" transform="translate(-325.59 -29.54)"/><line class="cls-1" x1="415.85" y1="108.52" x2="399.04" y2="152.03"/><line class="cls-1" x1="322.73" y1="108.37" x2="334.37" y2="151.88"/><circle class="cls-1" cx="361.91" cy="245.96" r="18"/><path class="cls-2" d="M682.63,272.28c0-.73.06-1.64.1-2.37h-.1c-.44.65-.93,1.3-1.37,1.95l-3.61,4.54h8.69v1.4H675.72v-1.15l6.68-8.55h1.86v13.4h-1.63Z" transform="translate(-325.59 -29.54)"/><path class="cls-2" d="M688.68,279.93l.86-1.16a5.31,5.31,0,0,0,3.78,1.53,3.11,3.11,0,0,0,3.38-3c0-1.85-1.31-2.92-3.28-2.92a5,5,0,0,0-2.73.8l-.92-.59.44-6.45h7.58v1.52h-6l-.36,3.94a5.84,5.84,0,0,1,2.48-.54c2.56,0,4.6,1.3,4.6,4.2s-2.39,4.53-5,4.53A6.71,6.71,0,0,1,688.68,279.93Z" transform="translate(-325.59 -29.54)"/><circle class="cls-1" cx="416.91" cy="245.96" r="18"/><path class="cls-2" d="M731.08,279.93l.86-1.16a5.31,5.31,0,0,0,3.78,1.53,3.11,3.11,0,0,0,3.38-3c0-1.85-1.31-2.92-3.28-2.92a5,5,0,0,0-2.73.8l-.92-.59.44-6.45h7.58v1.52h-6.05l-.35,3.94a5.76,5.76,0,0,1,2.47-.54c2.56,0,4.6,1.3,4.6,4.2s-2.39,4.53-5,4.53A6.74,6.74,0,0,1,731.08,279.93Z" transform="translate(-325.59 -29.54)"/><path class="cls-2" d="M744,280.47c4.54-4,7-6.36,7-8.59,0-1.53-.92-2.6-2.89-2.6a4.58,4.58,0,0,0-3.21,1.6l-1-1a6,6,0,0,1,4.43-2c2.68,0,4.36,1.58,4.36,3.95s-2.51,5-6.15,8.31c.84-.06,1.7-.1,2.5-.1h4.39v1.49H744Z" transform="translate(-325.59 -29.54)"/><line class="cls-1" x1="384.85" y1="185.52" x2="368.04" y2="229.03"/><line class="cls-1" x1="399.14" y1="185.52" x2="410.78" y2="229.03"/><path class="cls-2" d="M768.09,121.35a18,18,0,1,1-18-18A18,18,0,0,1,768.09,121.35ZM743.5,127.6c2.56,0,5-1.64,5-4.54s-2-4.2-4.6-4.2a5.62,5.62,0,0,0-2.47.55l.35-4h6V114H740.2l-.44,6.45.92.58a5.05,5.05,0,0,1,2.73-.79c2,0,3.28,1.07,3.28,2.92a3.11,3.11,0,0,1-3.38,3,5.31,5.31,0,0,1-3.78-1.53l-.86,1.15A6.7,6.7,0,0,0,743.5,127.6Zm12.59,0c2.57,0,5-1.64,5-4.54s-2-4.2-4.6-4.2a5.7,5.7,0,0,0-2.48.55l.36-4h6V114H752.8l-.44,6.45.92.58a5.05,5.05,0,0,1,2.73-.79c2,0,3.28,1.07,3.28,2.92a3.11,3.11,0,0,1-3.38,3,5.31,5.31,0,0,1-3.78-1.53l-.86,1.15A6.67,6.67,0,0,0,756.09,127.6Z" transform="translate(-325.59 -29.54)"/><line class="cls-1" x1="360.32" y1="29.46" x2="322.5" y2="75.22"/><line class="cls-1" x1="388.86" y1="29.46" x2="417.5" y2="75.22"/><line class="cls-1" x1="201.41" y1="236.46" x2="285.37" y2="236.46"/><path class="cls-2" d="M617,266a30.1,30.1,0,0,0-8.55,4.76l1.72-4.76-1.72-4.75A30.31,30.31,0,0,0,617,266Z" transform="translate(-325.59 -29.54)"/><path class="cls-2" d="M550.89,245h.29c.26.09.39.38.39.88v.7l1.87-.6h.1q.16,0,.39.39v4.92q0,.21.21.21c.78-.19,1.18-.35,1.18-.49v-5.13c0-.13.08-.19.19-.19h.3s.2.16.49.49a5.41,5.41,0,0,1,1.38-.2h.59c.59,0,.88,1.28.88,3.84,0,.46.43.69,1.28.69l.11.2a5.06,5.06,0,0,1-1.39.49c.07,1.68.23,4,.49,6.79-.09.27-.19.4-.29.4H559a10,10,0,0,1-1.38-1.68v-.2l1,.3a44.19,44.19,0,0,1-.3-4.82v-.59c0-.13-.1-.2-.3-.2a14.23,14.23,0,0,1-1.77.69V256q0,.15-.3.3h-.19c-.17,0-.3-.26-.39-.79v-3.25a2.67,2.67,0,0,0-1.39.59q.21,3.34.3,3.84a1,1,0,0,1-.49.59h-.2c-.81-.69-1.24-1.25-1.28-1.67l.2-.1.49.3h.3l-.1-1v-1.58c0-.13-.07-.19-.2-.19a3.66,3.66,0,0,1-1.38.49c0,2.3-.22,3.45-.68,3.45h-.2c-.09,0-.19-.1-.29-.3.06-1.1.09-2,.09-2.56v-.19a14.38,14.38,0,0,1-1.67.29c-.72-.09-1.08-.25-1.08-.5s.62-.35,1.87-.49c.64-.24,1-.44,1-.58v-7.09C550.63,245.17,550.73,245,550.89,245Zm1.18,2.16h-.5v5.32c1.06-.28,1.58-.57,1.58-.89V247l-.1-.21A1.89,1.89,0,0,1,552.07,247.13Zm4.82-.19h-.5c-.13,0-.19.08-.19.19v3.55h.19c1.19-.17,1.78-.34,1.78-.49q-.09-3.36-.3-3.36Zm4.23,1.67h.2c.29,0,.49.59.59,1.77V252a.85.85,0,0,1-.39.78h-.2c-.28,0-.45-.56-.5-1.67v-2.16Q560.82,248.76,561.12,248.61Zm2-5.12c.46,0,.72.56.79,1.67q-.39,5.28-.39,8.56a41.77,41.77,0,0,0,.29,5.52q0,.31-.69.69c-.46,0-1-.66-1.57-2l.2-.09.78.49h.1v-1.58a16.6,16.6,0,0,0-.1-2.36c.07-.74.13-4,.2-9.75h.09a2.45,2.45,0,0,1-.19-1Z" transform="translate(-325.59 -29.54)"/><path class="cls-2" d="M568.21,244a16.4,16.4,0,0,0,2.75.2,1.41,1.41,0,0,1,.69,1.28,15.46,15.46,0,0,1-1.28,2.07v.09c1.25-.13,1.88-.32,1.88-.58.08-1.78.38-2.67.88-2.67h.68a.2.2,0,0,1,.2.21l-.09.88c2.36.29,3.54.65,3.54,1.09a1.13,1.13,0,0,1,.49.88v.19c0,.41-.3.74-.88,1a12.76,12.76,0,0,0-.3,2h.1a4.26,4.26,0,0,1,1.08-.3v.2c-.79.84-1.18,1.4-1.18,1.68v1q0,.13,1.38.39c1.7,1.6,2.56,2.55,2.56,2.86,0,.13-.07.19-.2.19q-.76,0-3.44-2.65h-.2c-.07,1-.1,1.71-.1,2.16v2.66q0,.13-.3.3c-.92,0-1.77-.89-2.55-2.66.06,0,.09,0,.09-.1.16,0,.52.33,1.09,1l.49.3c0-.07,0-.1.1-.1q.09-2.12.09-3.15v-1.09l-.19-.28c-1.51.56-2.27,1.18-2.27,1.86-.27,1.64-.56,2.46-.88,2.46s-.69-.16-.69-.49a20.8,20.8,0,0,0,.69-2.56v-.29c-.33-.35-.49-.61-.49-.79,2.11-.7,3.32-1.3,3.64-1.77v-1c0-.13-.1-.19-.3-.19a7.32,7.32,0,0,1-1.77.39c-1-.18-1.57-.41-1.57-.69v-.1c0-.09.1-.19.3-.29H573c2.82-.55,4.23-1.17,4.23-1.88v-.19c-.25-.53-1.49-.79-3.74-.79q-.48,0-.69,1.77a9.8,9.8,0,0,0-2.36,3.35c-.59.52-.89.92-.89,1.19v5c0,1-.13,1.48-.39,1.48h-.1a1.4,1.4,0,0,1-.78-1c.13-1.54.19-2.79.19-3.74v-5.42c0-2.48.2-3.73.59-3.73h.1q.1,0,.69.69c.1,0,.26-.2.49-.59v-.4h-.69c-1.07,0-1.69-.19-1.86-.59v-.39Q567.82,244.13,568.21,244Zm1.18,5.42a3.6,3.6,0,0,1,.29.79h.3a7.47,7.47,0,0,0,.69-1.28l-.2-.11h-.3A.83.83,0,0,0,569.39,249.4Z" transform="translate(-325.59 -29.54)"/><path class="cls-2" d="M591.19,257.64c-.93-.65-1.39-1.88-1.39-3.69v-.49a21.22,21.22,0,0,1,1.39-6.15c.29-.5.51-.74.65-.74s.4.26.59.74v.16a11,11,0,0,0-1.32,4h.08l.42-.08c1.75.14,2.62.74,2.62,1.8v.25a5.76,5.76,0,0,1-1.73,3.69A2.32,2.32,0,0,1,591.19,257.64Zm.17-1.23c.44,0,1-.68,1.79-2.05a2.84,2.84,0,0,0,.18-.74v-.08c0-.49-.36-.82-1.07-1v-.09a.51.51,0,0,1-.24.09l-.18-.09a1.37,1.37,0,0,0-1.05,1.32v1.06C591,255.89,591.2,256.41,591.36,256.41Z" transform="translate(-325.59 -29.54)"/><path class="cls-2" d="M596.26,255.88c-.4,0-.89-.49-1.48-1.48a4.82,4.82,0,0,1-.23-1.31,8.39,8.39,0,0,1,1.05-4.35l.58-.41h.34a4.77,4.77,0,0,1,2.7,1.23l.09.41v.17a12.31,12.31,0,0,1-.82,3.93,3.57,3.57,0,0,1-1.4,1.56A3.23,3.23,0,0,1,596.26,255.88Zm-.08-1.15c.78,0,1.41-.82,1.9-2.45l.32-1.65-.09-.17a.57.57,0,0,0,.09-.32,3,3,0,0,0-1.72-.5h-.08a3.56,3.56,0,0,0-.91,2.55l-.17.09.08.15v1C595.75,254.29,596,254.73,596.18,254.73Z" transform="translate(-325.59 -29.54)"/></svg>