<svg id="图层_1" data-name="图层 1" xmlns="http://www.w3.org/2000/svg" viewBox="0 0 425.02 305.01"><defs><style>.cls-1{fill:none;stroke:#3ea69f;stroke-miterlimit:10;}.cls-2{fill:#3ea69f;}</style></defs><circle class="cls-1" cx="200.5" cy="66.51" r="18"/><path class="cls-2" d="M435.49,100.73h2l4.64,13.77h-1.89l-2.38-7.68c-.48-1.54-.94-3-1.36-4.64h-.08c-.44,1.59-.89,3.1-1.37,4.64l-2.41,7.68h-1.81Zm-2.18,8.16h6.32v1.43h-6.32Z" transform="translate(-236 -41.99)"/><circle class="cls-1" cx="200.5" cy="140.51" r="18"/><path class="cls-2" d="M431.56,181.61c0-4.43,2.59-7.14,6.18-7.14a5.17,5.17,0,0,1,3.78,1.68l-1,1.12a3.68,3.68,0,0,0-2.77-1.24c-2.63,0-4.35,2.12-4.35,5.54s1.72,5.63,4.35,5.63a4,4,0,0,0,3.08-1.51l1,1.07a5.31,5.31,0,0,1-4.26,2C434.17,188.75,431.56,186.11,431.56,181.61Z" transform="translate(-236 -41.99)"/><circle class="cls-1" cx="200.5" cy="214.51" r="18"/><path class="cls-2" d="M431.31,255.61c0-4.45,2.54-7.14,6.11-7.14a5.08,5.08,0,0,1,3.8,1.68l-1,1.12a3.58,3.58,0,0,0-2.8-1.24c-2.58,0-4.26,2.12-4.26,5.54s1.53,5.63,4.22,5.63a3.44,3.44,0,0,0,2.37-.8v-3.59H437v-1.45h4.37v5.8a5.79,5.79,0,0,1-4.11,1.59C433.81,262.75,431.31,260.11,431.31,255.61Z" transform="translate(-236 -41.99)"/><circle class="cls-1" cx="260.5" cy="214.51" r="18"/><path class="cls-2" d="M491.86,248.73h1.78v5.75h5.71v-5.75h1.79V262.5h-1.79V256h-5.71v6.47h-1.78Z" transform="translate(-236 -41.99)"/><circle class="cls-1" cx="260.5" cy="286.51" r="18"/><path class="cls-2" d="M491.71,320.73h2.14l1.94,5.88.67,2.22h.08l.65-2.22,1.95-5.88h2.15V334.5h-1.68v-6.89c0-1.34.21-3.69.29-4.87h-.06l-.78,2.69-2,5.42h-1.26l-1.93-5.42-.8-2.69h0c.12,1.18.29,3.53.29,4.87v6.89h-1.64Z" transform="translate(-236 -41.99)"/><circle class="cls-1" cx="79.5" cy="286.51" r="18"/><path class="cls-2" d="M312,320.73h1.75V333h6.8v1.49H312Z" transform="translate(-236 -41.99)"/><circle class="cls-1" cx="18.5" cy="286.51" r="18"/><path class="cls-2" d="M250.24,320.73H252v6.88h.06l5.78-6.88h2L252,330.11v4.39h-1.78Zm3.9,6.09,1.07-1.39,5.17,9.07h-2Z" transform="translate(-236 -41.99)"/><circle class="cls-1" cx="311.5" cy="214.51" r="18"/><path class="cls-2" d="M543.19,261h3.43V250.22h-3.43v-1.49h8.61v1.49h-3.42V261h3.42v1.49h-8.61Z" transform="translate(-236 -41.99)"/><circle class="cls-1" cx="362.5" cy="214.51" r="18"/><path class="cls-2" d="M593.88,260.46l1.11-1.07a3.59,3.59,0,0,0,3,1.81c2,0,2.84-1,2.84-3.26V250.2H595v-1.49h7.54v9.38c0,2.56-1.15,4.66-4.57,4.66A4.77,4.77,0,0,1,593.88,260.46Z" transform="translate(-236 -41.99)"/><circle class="cls-1" cx="125.5" cy="214.51" r="18"/><path class="cls-2" d="M358,248.73h8.46v1.49h-6.69v4.64h5.67v1.49h-5.67v6.15H358Z" transform="translate(-236 -41.99)"/><circle class="cls-1" cx="50.5" cy="214.51" r="18"/><path class="cls-2" d="M282.59,248.73h8.53v1.49h-6.76v4.3h5.71V256h-5.71v5h7v1.49h-8.74Z" transform="translate(-236 -41.99)"/><circle class="cls-1" cx="311.5" cy="140.51" r="18"/><path class="cls-2" d="M543,174.73h3.4c4.13,0,6.38,2.45,6.38,6.82s-2.25,6.95-6.3,6.95H543Zm3.27,12.32c3.13,0,4.68-2,4.68-5.5s-1.55-5.37-4.68-5.37h-1.51v10.87Z" transform="translate(-236 -41.99)"/><circle class="cls-1" cx="89.5" cy="140.51" r="18"/><path class="cls-2" d="M321.28,174.73h3.9c2.82,0,4.73.94,4.73,3.36a3,3,0,0,1-2.42,3v.08c2,.32,3.2,1.41,3.2,3.3,0,2.71-2.1,4-5.19,4h-4.22Zm3.61,5.79c2.35,0,3.3-.75,3.3-2.29s-1.1-2-3.22-2h-2v4.32Zm.36,6.51c2.35,0,3.71-.78,3.71-2.65,0-1.7-1.3-2.39-3.71-2.39H323v5Z" transform="translate(-236 -41.99)"/><line class="cls-1" x1="186.52" y1="77.85" x2="101" y2="127.01"/><line class="cls-1" x1="200.5" y1="84.51" x2="200.5" y2="122.51"/><line class="cls-1" x1="214.48" y1="77.85" x2="300" y2="127.01"/><line class="cls-1" x1="79.29" y1="155.34" x2="59.23" y2="198.77"/><line class="cls-1" x1="101" y1="155.34" x2="116.77" y2="198.77"/><line class="cls-1" x1="200.5" y1="158.51" x2="200.5" y2="196.51"/><line class="cls-1" x1="300" y1="155.34" x2="269.23" y2="198.77"/><line class="cls-1" x1="311.5" y1="158.51" x2="311.5" y2="196.51"/><line class="cls-1" x1="321.71" y1="155.34" x2="353.77" y2="198.77"/><line class="cls-1" x1="44.3" y1="231.42" x2="26" y2="270.01"/><line class="cls-1" x1="56.7" y1="231.42" x2="70.75" y2="270.01"/><line class="cls-1" x1="260.5" y1="232.51" x2="260.5" y2="268.51"/><path class="cls-2" d="M656.12,42h.68c.2,0,.33.26.4.79A5.63,5.63,0,0,1,655,44.94a11.8,11.8,0,0,1-1.37,1.58h.09a2.87,2.87,0,0,1,1.19-.7H655c.09,0,.25.17.49.49v.21a6.58,6.58,0,0,1-2.85,1.87v.1A23.64,23.64,0,0,0,657,49.57l.3.4v.28h-.1a22.72,22.72,0,0,1-5-.68,9.2,9.2,0,0,0-.3,2.56l.39.3,4.53-1.09h.2c.4.28.59.54.59.79l-2,3.34v.2h.19a20.43,20.43,0,0,1,2.56-2.46c1.71.41,2.56,1,2.56,1.77l-.2.1-2.07-.79h-.09q-3,3.95-4.62,3.94h-.3c-.09,0-.23-.17-.4-.49v-.1a33,33,0,0,1,2.56-4.53v-.4h-.1a16.24,16.24,0,0,1-3.84.9c-.71,2.75-1.23,4.13-1.58,4.13H650c-.1,0-.23-.17-.4-.49v-.11A45.28,45.28,0,0,0,651,49.86V46.61a10.1,10.1,0,0,1,.2-2.55c0-.32-.37-.52-1.09-.6a.78.78,0,0,1-.39-.68v-.2l.09-.2,1.19.1C654,42.15,655.65,42,656.12,42Zm-4.24,4.92h.3a25.54,25.54,0,0,0,3.64-3.64V43c-2.36.38-3.55.71-3.55,1C652.14,45.29,652,46.27,651.88,46.91Z" transform="translate(-236 -41.99)"/><path class="cls-2" d="M433.48,43.71a5.57,5.57,0,0,1,1.07,1.77c0,.11-.26.4-.78.89V48a1.51,1.51,0,0,0,.2.78V49a3.12,3.12,0,0,1,1.87,1.09c0,.13-.07.19-.2.19h-.59a10.43,10.43,0,0,1-1.08-.19v1.37q0,1,.09,2.46c-.06.53-.16.79-.29.79h-.1c-.28,0-.51-1.37-.68-4.13-.93,1.18-1.59,1.78-2,1.78l-.11-.2c0-.34.66-1.46,2-3.35V47.55l-.1-.69a13.33,13.33,0,0,1-2.66.79c-.3-.13-.46-.26-.49-.39v-.1a7.42,7.42,0,0,1,2.17-.79c.65-.25,1-.44,1-.59V44.69C432.78,44,433,43.71,433.48,43.71Zm8.07,1h.19c.22,0,.38.4.49,1.18v.9h.2l.3-.21a.19.19,0,0,1,.19.21c0,.08-.19.31-.58.68v6.49a.84.84,0,0,0,.09.4.86.86,0,0,0-.09.39v.2a2.22,2.22,0,0,1,.49,1.19q-.15.39-.3.39h-.3a15.48,15.48,0,0,0-3-3.15v-.1l.1-.2a10.85,10.85,0,0,0,2.07,1v-.11c-.07-2.33-.1-4.16-.1-5.5l-.1-.49a18.33,18.33,0,0,0-3.15,1.17l-.19.69.68.6.69-.11c.86.07,1.28.21,1.28.4s-.62.39-1.87.59a2.77,2.77,0,0,0-1.27-.49c-.36.58-.59.87-.7.89h-.29a8.51,8.51,0,0,0,.39-1.48v-.1c-.79-.3-1.18-.69-1.18-1.18v-.1c0-.13.09-.2.2-.2a5.14,5.14,0,0,1,1.18.6h.29a12.38,12.38,0,0,0,.39-1.58v-.2l-2,.79-.19-.29v-.11c0-.26.82-.66,2.46-1.18.23,0,.43.27.59.79a.87.87,0,0,0-.1.39V48h.2a19.26,19.26,0,0,0,2.66-.88l-.1-1v-.88Q441.31,44.69,441.55,44.69Z" transform="translate(-236 -41.99)"/><path class="cls-2" d="M655.05,99.41h1a5.14,5.14,0,0,1,4.48,2.69,4.22,4.22,0,0,1,.46,1.73v.86q0,2.28-3.27,5.17A5.76,5.76,0,0,1,654.3,111a4.83,4.83,0,0,1-4.3-2.64,5.5,5.5,0,0,1-.46-1.84v-.86a6.88,6.88,0,0,1,1.61-3.67h.17V102a9.9,9.9,0,0,0-1,3.73,4.67,4.67,0,0,0,3.11,4.49,4.09,4.09,0,0,0,1.2.23h.46q3,0,4.77-4.83a5.29,5.29,0,0,0,.18-1.26q0-2.93-3.62-4a6,6,0,0,0-1-.11h-1A7.7,7.7,0,0,0,651,101v-.13c0-.3.88-.74,2.64-1.31A9.2,9.2,0,0,1,655.05,99.41Zm0,2.92c.1,0,.23.14.4.41a.32.32,0,0,1-.06.16c0,1.84,0,3.26,0,4.26,0,.31-.14.46-.41.46s-.28-.14-.4-.41c.07-.87.11-1.71.11-2.52v-1.61A.86.86,0,0,1,655.05,102.33Z" transform="translate(-236 -41.99)"/><path class="cls-2" d="M655.56,179.35h.23a5.49,5.49,0,0,1,4.48,2.29,4.4,4.4,0,0,1,.75,2.19v.86q0,2.31-3.33,5.23a5.75,5.75,0,0,1-3.27,1.08,4.63,4.63,0,0,1-4.66-3.33,2.94,2.94,0,0,1-.22-1.26v-.75a7,7,0,0,1,1.61-3.67h.17v0a10,10,0,0,0-1,3.73,4.71,4.71,0,0,0,3,4.49,4.21,4.21,0,0,0,1.21.23h.63c1.73,0,3.23-1.43,4.48-4.3a5,5,0,0,0,.35-1.79q0-2.93-3.62-4c-.52-.07-.84-.11-1-.11h-.86A8.41,8.41,0,0,0,651,181v-.13c0-.27.73-.65,2.18-1.14A8.66,8.66,0,0,1,655.56,179.35Zm-.86,3.33c1.08.17,1.61.57,1.61,1.21a6.52,6.52,0,0,1-1.49,2.23s0,.07.06.07l1.2-.29a.36.36,0,0,1,.28.4c0,.25-.32.4-1,.46a4.24,4.24,0,0,1-1.49.4h-.12a.63.63,0,0,1-.29-.35,17.51,17.51,0,0,1,1.68-2l.51-.86c0-.31-.23-.46-.69-.46h-.92a.39.39,0,0,1-.23-.4V183C654,182.79,654.25,182.68,654.7,182.68Z" transform="translate(-236 -41.99)"/><path class="cls-2" d="M655.63,253.35a5.38,5.38,0,0,1,5.16,3.27,5.65,5.65,0,0,1,.23,1.15v.92q0,2.42-3.56,5.39a5.65,5.65,0,0,1-3.11.92c-2.31,0-3.88-1.2-4.7-3.62a3.8,3.8,0,0,1-.11-1v-.75a6,6,0,0,1,1.72-3.67h.06V256a10,10,0,0,0-1,3.86,4.71,4.71,0,0,0,2.88,4.31,3.78,3.78,0,0,0,1.21.28h.86q2.63,0,4.53-4.59a5.32,5.32,0,0,0,.24-1.61,3.88,3.88,0,0,0-2.41-3.45,5.32,5.32,0,0,0-2.36-.57h-.52A8.94,8.94,0,0,0,651,255v-.13a5.74,5.74,0,0,1,3.16-1.37A5.9,5.9,0,0,1,655.63,253.35Zm-1,2.07a1.83,1.83,0,0,1,1.15.8l.24.52a3.79,3.79,0,0,1-.69,1.55v.11q.81,0,1.26,1.26V260c0,.72-.65,1.52-2,2.41h-.16c-.17,0-.34-.12-.53-.35,0-.11.47-.47,1.39-1.09a2,2,0,0,0,.62-1.32.5.5,0,0,0-.28-.46h-.58a4.43,4.43,0,0,0-1.32.46.81.81,0,0,1-.51-.4q0-.15,1.32-1.08a2.73,2.73,0,0,0,.75-1.44v-.12c0-.06-.14-.19-.41-.4h-.4a1.92,1.92,0,0,1-.8.35c-.23-.09-.35-.23-.35-.4S653.8,255.67,654.64,255.42Z" transform="translate(-236 -41.99)"/><path class="cls-2" d="M655.68,325.35a5.57,5.57,0,0,1,4.88,2.75A4.58,4.58,0,0,1,661,330v.69q0,2.37-3.45,5.34a5.79,5.79,0,0,1-3.22,1,4.68,4.68,0,0,1-4.64-3.38,3.72,3.72,0,0,1-.17-1v-.74a6,6,0,0,1,1.66-3.8h.12a10.1,10.1,0,0,0-1,3.8,4.7,4.7,0,0,0,3,4.42,4.06,4.06,0,0,0,1.09.23h.92c1.58,0,3-1.4,4.36-4.19a6.86,6.86,0,0,0,.35-1.84q0-3-3.74-4.08a8.7,8.7,0,0,0-1.21-.11h-.34A9.21,9.21,0,0,0,651,327v-.13a6.07,6.07,0,0,1,3.1-1.37A11.94,11.94,0,0,1,655.68,325.35Zm-.69,2.87a.56.56,0,0,1,.46.57v1.15l-.06.57a.43.43,0,0,0,.17.07,4.57,4.57,0,0,1,.93-.29c.38.09.57.24.57.46s-.38.37-1.15.45a.88.88,0,0,0-.69.92v.29a2.67,2.67,0,0,0,.06.51c-.08.47-.22.7-.4.7s-.46-.34-.46-.57v-1.39h-.69c-.57-.06-.86-.27-.86-.62a16.53,16.53,0,0,0,1.61-2.42C654.53,328.57,654.7,328.44,655,328.22Zm-.8,2.41v.12h.34c.07,0,.11,0,.11-.12v-.69h0A1,1,0,0,0,654.19,330.63Z" transform="translate(-236 -41.99)"/></svg>