<svg id="图层_1" data-name="图层 1" xmlns="http://www.w3.org/2000/svg" viewBox="0 0 381 257"><defs><style>.cls-1{fill:none;stroke:#3ea69f;stroke-miterlimit:10;}.cls-2{fill:#3ea69f;}</style></defs><circle class="cls-1" cx="200.5" cy="18.5" r="18"/><path class="cls-2" d="M435.49,100.73h2l4.64,13.77h-1.89l-2.38-7.68c-.48-1.54-.94-3-1.36-4.64h-.08c-.44,1.59-.89,3.1-1.37,4.64l-2.41,7.68h-1.81Zm-2.18,8.16h6.32v1.43h-6.32Z" transform="translate(-236 -90)"/><circle class="cls-1" cx="200.5" cy="92.5" r="18"/><path class="cls-2" d="M431.56,181.61c0-4.43,2.59-7.14,6.18-7.14a5.17,5.17,0,0,1,3.78,1.68l-1,1.12a3.68,3.68,0,0,0-2.77-1.24c-2.63,0-4.35,2.12-4.35,5.54s1.72,5.63,4.35,5.63a4,4,0,0,0,3.08-1.51l1,1.07a5.31,5.31,0,0,1-4.26,2C434.17,188.75,431.56,186.11,431.56,181.61Z" transform="translate(-236 -90)"/><circle class="cls-1" cx="200.5" cy="166.5" r="18"/><path class="cls-2" d="M431.31,255.61c0-4.45,2.54-7.14,6.11-7.14a5.08,5.08,0,0,1,3.8,1.68l-1,1.12a3.58,3.58,0,0,0-2.8-1.24c-2.58,0-4.26,2.12-4.26,5.54s1.53,5.63,4.22,5.63a3.44,3.44,0,0,0,2.37-.8v-3.59H437v-1.45h4.37v5.8a5.79,5.79,0,0,1-4.11,1.59C433.81,262.75,431.31,260.11,431.31,255.61Z" transform="translate(-236 -90)"/><circle class="cls-1" cx="260.5" cy="166.5" r="18"/><path class="cls-2" d="M491.86,248.73h1.78v5.75h5.71v-5.75h1.79V262.5h-1.79V256h-5.71v6.47h-1.78Z" transform="translate(-236 -90)"/><circle class="cls-1" cx="260.5" cy="238.5" r="18"/><path class="cls-2" d="M491.71,320.73h2.14l1.94,5.88.67,2.22h.08l.65-2.22,1.95-5.88h2.15V334.5h-1.68v-6.89c0-1.34.21-3.69.29-4.87h-.06l-.78,2.69-2,5.42h-1.26l-1.93-5.42-.8-2.69h0c.12,1.18.29,3.53.29,4.87v6.89h-1.64Z" transform="translate(-236 -90)"/><circle class="cls-1" cx="79.5" cy="238.5" r="18"/><path class="cls-2" d="M312,320.73h1.75V333h6.8v1.49H312Z" transform="translate(-236 -90)"/><circle class="cls-1" cx="18.5" cy="238.5" r="18"/><path class="cls-2" d="M250.24,320.73H252v6.88h.06l5.78-6.88h2L252,330.11v4.39h-1.78Zm3.9,6.09,1.07-1.39,5.17,9.07h-2Z" transform="translate(-236 -90)"/><circle class="cls-1" cx="311.5" cy="166.5" r="18"/><path class="cls-2" d="M543.19,261h3.43V250.22h-3.43v-1.49h8.61v1.49h-3.42V261h3.42v1.49h-8.61Z" transform="translate(-236 -90)"/><circle class="cls-1" cx="362.5" cy="166.5" r="18"/><path class="cls-2" d="M593.88,260.46l1.11-1.07a3.59,3.59,0,0,0,3,1.81c2,0,2.84-1,2.84-3.26V250.2H595v-1.49h7.54v9.38c0,2.56-1.15,4.66-4.57,4.66A4.77,4.77,0,0,1,593.88,260.46Z" transform="translate(-236 -90)"/><circle class="cls-1" cx="125.5" cy="166.5" r="18"/><path class="cls-2" d="M358,248.73h8.46v1.49h-6.69v4.64h5.67v1.49h-5.67v6.15H358Z" transform="translate(-236 -90)"/><circle class="cls-1" cx="50.5" cy="166.5" r="18"/><path class="cls-2" d="M282.59,248.73h8.53v1.49h-6.76v4.3h5.71V256h-5.71v5h7v1.49h-8.74Z" transform="translate(-236 -90)"/><circle class="cls-1" cx="311.5" cy="92.5" r="18"/><path class="cls-2" d="M543,174.73h3.4c4.13,0,6.38,2.45,6.38,6.82s-2.25,6.95-6.3,6.95H543Zm3.27,12.32c3.13,0,4.68-2,4.68-5.5s-1.55-5.37-4.68-5.37h-1.51v10.87Z" transform="translate(-236 -90)"/><circle class="cls-1" cx="89.5" cy="92.5" r="18"/><path class="cls-2" d="M321.28,174.73h3.9c2.82,0,4.73.94,4.73,3.36a3,3,0,0,1-2.42,3v.08c2,.32,3.2,1.41,3.2,3.3,0,2.71-2.1,4-5.19,4h-4.22Zm3.61,5.79c2.35,0,3.3-.75,3.3-2.29s-1.1-2-3.22-2h-2v4.32Zm.36,6.51c2.35,0,3.71-.78,3.71-2.65,0-1.7-1.3-2.39-3.71-2.39H323v5Z" transform="translate(-236 -90)"/><line class="cls-1" x1="186.52" y1="29.84" x2="101" y2="79"/><line class="cls-1" x1="79.29" y1="107.32" x2="59.23" y2="150.76"/><line class="cls-1" x1="200.5" y1="110.5" x2="200.5" y2="148.5"/><line class="cls-1" x1="300" y1="107.32" x2="269.23" y2="150.76"/><line class="cls-1" x1="44.3" y1="183.4" x2="26" y2="222"/><line class="cls-1" x1="260.5" y1="184.5" x2="260.5" y2="220.5"/><line class="cls-1" x1="218.5" y1="92.5" x2="293.5" y2="92.5"/><line class="cls-1" x1="107.5" y1="92.5" x2="182.5" y2="92.5"/><line class="cls-1" x1="68.5" y1="166.5" x2="107.5" y2="166.5"/><line class="cls-1" x1="278.5" y1="166.5" x2="293.5" y2="166.5"/><line class="cls-1" x1="329.5" y1="166.5" x2="344.5" y2="166.5"/><line class="cls-1" x1="36.5" y1="238.5" x2="61.5" y2="238.5"/></svg>