<svg xmlns="http://www.w3.org/2000/svg" viewBox="0 0 557 280"><defs><style>.a{fill:none;stroke:#3ea69f;stroke-miterlimit:10;}.b{fill:#3ea69f;}</style></defs><circle class="a" cx="316.1" cy="108.14" r="18"/><path class="b" d="M551,442.56l.86-1.15a5.33,5.33,0,0,0,3.78,1.53,3.11,3.11,0,0,0,3.38-3c0-1.85-1.3-2.92-3.27-2.92a5,5,0,0,0-2.73.79l-.93-.58.44-6.45h7.58v1.51h-6l-.36,3.95a5.7,5.7,0,0,1,2.48-.55c2.56,0,4.59,1.31,4.59,4.2s-2.39,4.54-5,4.54A6.72,6.72,0,0,1,551,442.56Z" transform="translate(-240 -330)"/><circle class="a" cx="316.5" cy="185.5" r="18"/><path class="b" d="M551.82,515.31c0-5.38,2.68-7.46,5.6-7.46a5.32,5.32,0,0,1,3.74,1.43l-1,1.09a3.93,3.93,0,0,0-2.66-1.07c-2.19,0-4.08,1.53-4.08,6,0,3.29,1.26,5.08,3.49,5.08a2.78,2.78,0,0,0,2.81-2.94,2.55,2.55,0,0,0-2.83-2.84,4.73,4.73,0,0,0-3.51,1.89l-.06-1.36a5.68,5.68,0,0,1,3.88-1.83,3.81,3.81,0,0,1,4.18,4.14,4.32,4.32,0,0,1-4.47,4.3C554,521.75,551.82,519.61,551.82,515.31Z" transform="translate(-240 -330)"/><circle class="a" cx="316.5" cy="18.5" r="18"/><path class="b" d="M551.4,352.86l.88-1.13a5.41,5.41,0,0,0,3.84,1.57c1.83,0,3.19-.94,3.19-2.43s-1.34-2.67-4.85-2.67v-1.32c3.17,0,4.39-1.09,4.39-2.5s-1.11-2.1-2.73-2.1a5.12,5.12,0,0,0-3.3,1.34l-.92-1.09a6.51,6.51,0,0,1,4.28-1.68c2.52,0,4.43,1.24,4.43,3.4,0,1.62-1.19,2.65-2.85,3.2v.08c1.78.38,3.32,1.55,3.32,3.4,0,2.37-2.19,3.82-4.85,3.82A6.54,6.54,0,0,1,551.4,352.86Z" transform="translate(-240 -330)"/><circle class="a" cx="408.5" cy="105.5" r="18"/><path class="b" d="M649.93,432.28c0-.73.06-1.63.1-2.37h-.1c-.44.65-.93,1.3-1.37,1.95L645,436.4h8.69v1.4H643v-1.15l6.68-8.55h1.86v13.4h-1.63Z" transform="translate(-240 -330)"/><line class="a" x1="330.47" y1="29.79" x2="396" y2="93"/><circle class="a" cx="75.5" cy="29.5" r="18"/><path class="b" d="M304.94,364.05h3.86v-9.82h-3v-1.14a9.5,9.5,0,0,0,3.44-1h1.3v11.95H314v1.45h-9.09Z" transform="translate(-240 -330)"/><path class="b" d="M317,364.47c4.54-4,7-6.36,7-8.59,0-1.53-.93-2.6-2.9-2.6a4.58,4.58,0,0,0-3.21,1.6l-1-1a6,6,0,0,1,4.43-2c2.69,0,4.37,1.58,4.37,3.95s-2.52,5-6.16,8.31c.84-.06,1.7-.1,2.5-.1h4.39v1.49H317Z" transform="translate(-240 -330)"/><circle class="a" cx="18.5" cy="106.5" r="18"/><path class="b" d="M247.94,441.05h3.86v-9.82h-3v-1.14a9.5,9.5,0,0,0,3.44-1h1.3v11.95H257v1.45h-9.09Z" transform="translate(-240 -330)"/><path class="b" d="M259.68,440.93l.86-1.16a5.31,5.31,0,0,0,3.78,1.53,3.11,3.11,0,0,0,3.38-3c0-1.85-1.31-2.92-3.28-2.92a5,5,0,0,0-2.73.8l-.92-.59.44-6.45h7.58v1.52h-6.05l-.36,3.94a5.84,5.84,0,0,1,2.48-.54c2.56,0,4.6,1.3,4.6,4.2s-2.39,4.53-5,4.53A6.71,6.71,0,0,1,259.68,440.93Z" transform="translate(-240 -330)"/><circle class="a" cx="131.5" cy="106.5" r="18"/><path class="b" d="M360.1,440.86l.88-1.13a5.41,5.41,0,0,0,3.84,1.57c1.83,0,3.19-.94,3.19-2.43s-1.34-2.67-4.85-2.67v-1.32c3.17,0,4.39-1.09,4.39-2.5s-1.11-2.1-2.73-2.1a5.12,5.12,0,0,0-3.3,1.34l-.92-1.09a6.51,6.51,0,0,1,4.28-1.68c2.52,0,4.43,1.24,4.43,3.4,0,1.62-1.19,2.65-2.85,3.2v.08c1.78.38,3.32,1.55,3.32,3.4,0,2.37-2.19,3.82-4.85,3.82A6.54,6.54,0,0,1,360.1,440.86Z" transform="translate(-240 -330)"/><path class="b" d="M373,435.76c0-4.49,1.83-6.91,4.81-6.91s4.81,2.42,4.81,6.91-1.83,7-4.81,7S373,440.21,373,435.76Zm8,0c0-3.84-1.32-5.5-3.19-5.5s-3.19,1.66-3.19,5.5,1.32,5.59,3.19,5.59S381,439.6,381,435.76Zm-4.49-.15a1.3,1.3,0,1,1,1.3,1.41A1.3,1.3,0,0,1,376.5,435.61Z" transform="translate(-240 -330)"/><line class="a" x1="64" y1="44" x2="24.63" y2="89.57"/><circle class="a" cx="538.5" cy="29.5" r="18"/><path class="b" d="M767.94,364.05h3.86v-9.82h-3v-1.14a9.5,9.5,0,0,0,3.44-1h1.3v11.95H777v1.45h-9.09Z" transform="translate(-240 -330)"/><path class="b" d="M780.12,359.31c0-5.38,2.68-7.46,5.6-7.46a5.32,5.32,0,0,1,3.74,1.43l-1,1.09a3.93,3.93,0,0,0-2.66-1.07c-2.19,0-4.08,1.53-4.08,6,0,3.29,1.26,5.08,3.49,5.08a2.78,2.78,0,0,0,2.81-2.94,2.55,2.55,0,0,0-2.83-2.84,4.73,4.73,0,0,0-3.51,1.89l-.06-1.36a5.68,5.68,0,0,1,3.88-1.83,3.81,3.81,0,0,1,4.18,4.14,4.32,4.32,0,0,1-4.47,4.3C782.32,365.75,780.12,363.61,780.12,359.31Z" transform="translate(-240 -330)"/><line class="a" x1="316.5" y1="126.5" x2="316.5" y2="167.5"/><circle class="a" cx="192.1" cy="184.14" r="18"/><path class="b" d="M427.23,516.71c0-1.84,1.43-2.89,2.88-3.56v-.09a3.76,3.76,0,0,1-2-3.13c0-2.05,1.74-3.44,4.14-3.44,2.62,0,4.16,1.49,4.16,3.57a4.22,4.22,0,0,1-2,3.19v.08c1.47.74,2.62,1.58,2.62,3.49s-1.74,3.57-4.8,3.57S427.23,518.83,427.23,516.71Zm8.06,0c0-1.85-1.86-2.33-4.19-3.11-1.31.69-2.29,1.55-2.29,2.9s1.32,2.54,3.38,2.54S435.29,518.14,435.29,516.76Zm-.44-6.62a2.38,2.38,0,0,0-2.68-2.35,2.22,2.22,0,0,0-2.5,2.14c0,1.6,1.53,2.27,3.53,2.9A3.39,3.39,0,0,0,434.85,510.14Z" transform="translate(-240 -330)"/><circle class="a" cx="192.5" cy="261.5" r="18"/><path class="b" d="M421.94,596.05h3.86v-9.83h-3v-1.13a9.5,9.5,0,0,0,3.44-1h1.3v11.95H431v1.45h-9.09Z" transform="translate(-240 -330)"/><path class="b" d="M434,590.76c0-4.49,1.83-6.91,4.81-6.91s4.81,2.42,4.81,6.91-1.83,7-4.81,7S434,595.21,434,590.76Zm8,0c0-3.84-1.32-5.5-3.19-5.5s-3.19,1.66-3.19,5.5,1.32,5.59,3.19,5.59S442,594.6,442,590.76Zm-4.49-.15a1.3,1.3,0,1,1,1.3,1.41A1.3,1.3,0,0,1,437.5,590.61Z" transform="translate(-240 -330)"/><circle class="a" cx="225.19" cy="110.83" r="18"/><path class="b" d="M468.07,435h-7.71v-1.51h9.7v1.07c-3.54,4.05-4.4,7.07-4.61,12.32h-1.83A17.89,17.89,0,0,1,468.07,435Z" transform="translate(-240 -330)"/><circle class="a" cx="254.5" cy="184.5" r="18"/><path class="b" d="M489.86,519.35l1-1.1a4,4,0,0,0,2.67,1c2.16,0,4.07-1.53,4.07-6,0-3.3-1.28-5.06-3.48-5.06a2.77,2.77,0,0,0-2.84,2.92A2.57,2.57,0,0,0,494.1,514a4.69,4.69,0,0,0,3.49-1.89l.06,1.37a5.55,5.55,0,0,1-3.89,1.82,3.79,3.79,0,0,1-4.15-4.13,4.32,4.32,0,0,1,4.45-4.31c2.92,0,5.14,2.14,5.14,6.45,0,5.37-2.71,7.45-5.6,7.45A5.44,5.44,0,0,1,489.86,519.35Z" transform="translate(-240 -330)"/><line class="a" x1="216" y1="126" x2="197" y2="167"/><line class="a" x1="234.47" y1="125.79" x2="248" y2="168"/><line class="a" x1="192.5" y1="202.5" x2="192.5" y2="243.5"/><circle class="a" cx="18.5" cy="180.5" r="18"/><path class="b" d="M247.43,515.47c4.54-4,7-6.36,7-8.59,0-1.53-.93-2.6-2.9-2.6a4.58,4.58,0,0,0-3.21,1.6l-1-1a6,6,0,0,1,4.43-2c2.69,0,4.37,1.58,4.37,3.95s-2.52,5-6.16,8.31c.84-.06,1.7-.1,2.5-.1h4.39v1.49h-9.43Z" transform="translate(-240 -330)"/><path class="b" d="M260,509.76c0-4.49,1.83-6.91,4.81-6.91s4.81,2.42,4.81,6.91-1.83,7-4.81,7S260,514.21,260,509.76Zm8,0c0-3.84-1.32-5.5-3.19-5.5s-3.19,1.66-3.19,5.5,1.32,5.59,3.19,5.59S268,513.6,268,509.76Zm-4.49-.15a1.3,1.3,0,1,1,1.3,1.41A1.3,1.3,0,0,1,263.5,509.61Z" transform="translate(-240 -330)"/><line class="a" x1="18.5" y1="124.5" x2="18.5" y2="162.5"/><line class="a" x1="87.5" y1="43.5" x2="124" y2="90"/><line class="a" x1="302.5" y1="29.5" x2="234.5" y2="95.5"/><line class="a" x1="316.5" y1="36.5" x2="316.5" y2="90.5"/></svg>