<svg xmlns="http://www.w3.org/2000/svg" viewBox="0 0 580.31 188"><defs><style>.a{fill:none;stroke:#3ea69f;stroke-miterlimit:10;}.b{fill:#3ea69f;}</style></defs><circle class="a" cx="110.41" cy="92.14" r="18"/><path class="b" d="M587,518.56l.86-1.15a5.33,5.33,0,0,0,3.78,1.53,3.11,3.11,0,0,0,3.38-3c0-1.85-1.3-2.92-3.27-2.92a4.93,4.93,0,0,0-2.73.8l-.93-.59.44-6.45h7.58v1.51h-6l-.36,4a5.7,5.7,0,0,1,2.48-.55c2.56,0,4.59,1.31,4.59,4.2s-2.39,4.54-5,4.54A6.72,6.72,0,0,1,587,518.56Z" transform="translate(-481.69 -422)"/><circle class="a" cx="110.81" cy="169.5" r="18"/><path class="b" d="M587.82,591.31c0-5.38,2.68-7.46,5.6-7.46a5.32,5.32,0,0,1,3.74,1.43l-1,1.09a3.93,3.93,0,0,0-2.66-1.07c-2.19,0-4.08,1.53-4.08,6,0,3.29,1.26,5.08,3.49,5.08a2.78,2.78,0,0,0,2.81-2.94,2.55,2.55,0,0,0-2.83-2.84,4.73,4.73,0,0,0-3.51,1.89l-.06-1.36a5.68,5.68,0,0,1,3.88-1.83,3.81,3.81,0,0,1,4.18,4.14,4.32,4.32,0,0,1-4.47,4.3C590,597.75,587.82,595.61,587.82,591.31Z" transform="translate(-481.69 -422)"/><circle class="a" cx="169.5" cy="18.83" r="18"/><path class="b" d="M646.09,445.19l.88-1.13a5.43,5.43,0,0,0,3.85,1.57c1.82,0,3.19-.94,3.19-2.43s-1.35-2.67-4.85-2.67v-1.32c3.17,0,4.38-1.09,4.38-2.5s-1.11-2.1-2.72-2.1a5.1,5.1,0,0,0-3.3,1.34l-.92-1.09a6.51,6.51,0,0,1,4.28-1.68c2.52,0,4.43,1.24,4.43,3.4,0,1.62-1.2,2.65-2.86,3.2v.08c1.79.38,3.32,1.55,3.32,3.4,0,2.37-2.18,3.82-4.85,3.82A6.56,6.56,0,0,1,646.09,445.19Z" transform="translate(-481.69 -422)"/><circle class="a" cx="219.41" cy="92.14" r="18"/><path class="b" d="M702.53,510.92c0-.74.06-1.64.11-2.37h-.11c-.44.65-.92,1.3-1.36,1.95L697.56,515h8.69v1.4H695.62v-1.15l6.68-8.55h1.87v13.4h-1.64Z" transform="translate(-481.69 -422)"/><line class="a" x1="155.23" y1="29.79" x2="117.41" y2="75.55"/><line class="a" x1="183.77" y1="29.79" x2="212.41" y2="75.55"/><circle class="a" cx="18.81" cy="92.5" r="18"/><path class="b" d="M489.94,519.05h3.86v-9.83h-3v-1.13a9.5,9.5,0,0,0,3.44-1h1.3v11.95H499v1.45h-9.09Z" transform="translate(-481.69 -422)"/><path class="b" d="M502,513.76c0-4.49,1.83-6.91,4.81-6.91s4.81,2.42,4.81,6.91-1.83,7-4.81,7S502,518.21,502,513.76Zm8,0c0-3.84-1.32-5.5-3.19-5.5s-3.19,1.66-3.19,5.5,1.32,5.59,3.19,5.59S510,517.6,510,513.76Zm-4.49-.15a1.3,1.3,0,1,1,1.3,1.41A1.3,1.3,0,0,1,505.5,513.61Z" transform="translate(-481.69 -422)"/><circle class="a" cx="18.5" cy="18.83" r="18"/><path class="b" d="M495.32,443.41c0-1.85,1.43-2.9,2.88-3.57v-.09a3.76,3.76,0,0,1-2-3.12c0-2.06,1.75-3.45,4.14-3.45,2.62,0,4.16,1.49,4.16,3.57a4.21,4.21,0,0,1-2,3.19V440c1.47.73,2.62,1.57,2.62,3.48s-1.74,3.57-4.8,3.57S495.32,445.53,495.32,443.41Zm8.07,0c0-1.85-1.87-2.33-4.2-3.11-1.31.7-2.29,1.56-2.29,2.9s1.32,2.54,3.38,2.54S503.39,444.84,503.39,443.45Zm-.45-6.61a2.38,2.38,0,0,0-2.68-2.36,2.22,2.22,0,0,0-2.5,2.15c0,1.59,1.53,2.26,3.53,2.89A3.38,3.38,0,0,0,502.94,436.84Z" transform="translate(-481.69 -422)"/><line class="a" x1="110.81" y1="110.5" x2="110.81" y2="151.5"/><circle class="a" cx="315.41" cy="92.14" r="18"/><path class="b" d="M786.54,518.69h3.87v-9.83h-3v-1.13a9.7,9.7,0,0,0,3.45-1h1.3v12h3.48v1.45h-9.09Z" transform="translate(-481.69 -422)"/><path class="b" d="M798.64,519.11c4.53-4,7-6.36,7-8.59,0-1.53-.92-2.6-2.9-2.6a4.61,4.61,0,0,0-3.21,1.59l-1-1a6,6,0,0,1,4.43-2c2.69,0,4.37,1.57,4.37,3.95s-2.52,5-6.15,8.31c.84-.06,1.7-.1,2.5-.1h4.38v1.49h-9.42Z" transform="translate(-481.69 -422)"/><circle class="a" cx="315.81" cy="169.5" r="18"/><path class="b" d="M786.1,595.86l.88-1.13a5.41,5.41,0,0,0,3.84,1.57c1.83,0,3.19-.94,3.19-2.43s-1.34-2.67-4.85-2.67v-1.32c3.17,0,4.39-1.09,4.39-2.5s-1.11-2.1-2.73-2.1a5.07,5.07,0,0,0-3.29,1.34l-.93-1.09a6.51,6.51,0,0,1,4.28-1.68c2.52,0,4.43,1.24,4.43,3.4,0,1.62-1.19,2.65-2.85,3.2v.08c1.78.38,3.32,1.55,3.32,3.4,0,2.37-2.19,3.82-4.85,3.82A6.54,6.54,0,0,1,786.1,595.86Z" transform="translate(-481.69 -422)"/><path class="b" d="M799,590.76c0-4.49,1.83-6.91,4.81-6.91s4.81,2.42,4.81,6.91-1.83,7-4.81,7S799,595.21,799,590.76Zm8,0c0-3.84-1.32-5.5-3.19-5.5s-3.19,1.66-3.19,5.5,1.32,5.59,3.19,5.59S807,594.6,807,590.76Zm-4.49-.15a1.3,1.3,0,1,1,1.3,1.41A1.3,1.3,0,0,1,802.5,590.61Z" transform="translate(-481.69 -422)"/><circle class="a" cx="388.81" cy="18.5" r="18"/><path class="b" d="M866.24,445.05h3.86v-9.82h-3v-1.14a9.5,9.5,0,0,0,3.44-1h1.3v11.95h3.49v1.45h-9.09Z" transform="translate(-481.69 -422)"/><circle class="a" cx="460.81" cy="92.5" r="18"/><path class="b" d="M931.94,519.05h3.86v-9.83h-3v-1.13a9.5,9.5,0,0,0,3.44-1h1.3v11.95H941v1.45h-9.09Z" transform="translate(-481.69 -422)"/><path class="b" d="M944.12,514.31c0-5.38,2.68-7.46,5.6-7.46a5.32,5.32,0,0,1,3.74,1.43l-1,1.09a3.93,3.93,0,0,0-2.66-1.07c-2.19,0-4.08,1.53-4.08,6,0,3.29,1.26,5.08,3.49,5.08a2.78,2.78,0,0,0,2.81-2.94,2.55,2.55,0,0,0-2.83-2.84,4.73,4.73,0,0,0-3.51,1.89l-.06-1.36a5.68,5.68,0,0,1,3.88-1.83,3.81,3.81,0,0,1,4.18,4.14,4.32,4.32,0,0,1-4.47,4.3C946.32,520.75,944.12,518.61,944.12,514.31Z" transform="translate(-481.69 -422)"/><line class="a" x1="376.31" y1="31" x2="327.31" y2="79"/><line class="a" x1="401.31" y1="31" x2="449.31" y2="79"/><line class="a" x1="315.81" y1="110.5" x2="315.81" y2="151.5"/><circle class="a" cx="388.41" cy="92.14" r="18"/><path class="b" d="M873,508.25h-7.71v-1.51H875v1.07c-3.54,4.05-4.4,7.08-4.61,12.33h-1.83A17.94,17.94,0,0,1,873,508.25Z" transform="translate(-481.69 -422)"/><circle class="a" cx="388.81" cy="169.5" r="18"/><path class="b" d="M865.86,596.35l1-1.1a4,4,0,0,0,2.67,1c2.16,0,4.07-1.53,4.07-6,0-3.3-1.28-5.06-3.48-5.06a2.77,2.77,0,0,0-2.84,2.92A2.57,2.57,0,0,0,870.1,591a4.69,4.69,0,0,0,3.49-1.89l.06,1.37a5.55,5.55,0,0,1-3.89,1.82,3.79,3.79,0,0,1-4.15-4.13,4.32,4.32,0,0,1,4.45-4.31c2.92,0,5.14,2.14,5.14,6.45,0,5.37-2.71,7.45-5.6,7.45A5.44,5.44,0,0,1,865.86,596.35Z" transform="translate(-481.69 -422)"/><line class="a" x1="388.81" y1="110.5" x2="388.81" y2="151.5"/><line class="a" x1="18.81" y1="36.5" x2="18.81" y2="74.5"/><circle class="a" cx="561.81" cy="92.5" r="18"/><path class="b" d="M1032.43,519.47c4.54-4,7-6.36,7-8.59,0-1.53-.93-2.6-2.9-2.6a4.58,4.58,0,0,0-3.21,1.6l-1-1a6,6,0,0,1,4.43-2c2.69,0,4.36,1.58,4.36,3.95s-2.51,5-6.15,8.31c.84-.06,1.7-.1,2.5-.1h4.39v1.49h-9.43Z" transform="translate(-481.69 -422)"/><path class="b" d="M1045,513.76c0-4.49,1.83-6.91,4.81-6.91s4.81,2.42,4.81,6.91-1.83,7-4.81,7S1045,518.21,1045,513.76Zm8,0c0-3.84-1.32-5.5-3.19-5.5s-3.19,1.66-3.19,5.5,1.32,5.59,3.19,5.59S1053,517.6,1053,513.76Zm-4.49-.15a1.3,1.3,0,1,1,1.3,1.41A1.3,1.3,0,0,1,1048.5,513.61Z" transform="translate(-481.69 -422)"/><circle class="a" cx="561.5" cy="18.83" r="18"/><path class="b" d="M1032.63,445.38h3.87v-9.82h-3v-1.14a9.72,9.72,0,0,0,3.45-1h1.3v11.94h3.48v1.45h-9.09Z" transform="translate(-481.69 -422)"/><path class="b" d="M1045.23,445.38h3.86v-9.82h-3v-1.14a9.79,9.79,0,0,0,3.45-1h1.3v11.94h3.48v1.45h-9.09Z" transform="translate(-481.69 -422)"/><line class="a" x1="561.81" y1="36.5" x2="561.81" y2="74.5"/><line class="a" x1="388.81" y1="36.5" x2="388.81" y2="74.5"/></svg>