<svg xmlns="http://www.w3.org/2000/svg" viewBox="0 0 849 256.31"><defs><style>.a{fill:none;stroke:#3ea69f;stroke-miterlimit:10;}.b{fill:#3ea69f;}</style></defs><circle class="a" cx="651.59" cy="18.5" r="18"/><path class="b" d="M816.58,82.42h2l4.64,13.77h-1.89L819,88.51c-.48-1.53-.94-3.05-1.36-4.64h-.08c-.45,1.59-.89,3.11-1.37,4.64l-2.41,7.68h-1.81Zm-2.18,8.17h6.32V92H814.4Z" transform="translate(-166 -71.69)"/><path class="b" d="M783.82,89.16c4.54-4,7-6.36,7-8.58,0-1.54-.93-2.61-2.9-2.61a4.62,4.62,0,0,0-3.21,1.6l-1-1a6,6,0,0,1,4.43-2c2.69,0,4.37,1.57,4.37,3.94,0,2.52-2.52,5-6.16,8.32.84-.07,1.7-.11,2.5-.11h4.39v1.49h-9.43Z" transform="translate(-166 -71.69)"/><circle class="a" cx="481.5" cy="165.81" r="18"/><path class="b" d="M643,229.73h3.4c4.13,0,6.38,2.45,6.38,6.82s-2.25,6.95-6.3,6.95H643Zm3.27,12.32c3.13,0,4.68-2,4.68-5.5s-1.55-5.37-4.68-5.37h-1.51v10.87Z" transform="translate(-166 -71.69)"/><path class="b" d="M630.24,212.05h3.86v-9.83h-3v-1.13a9.5,9.5,0,0,0,3.44-1h1.3v12h3.49v1.45h-9.09Z" transform="translate(-166 -71.69)"/><circle class="a" cx="540.59" cy="92.5" r="18"/><path class="b" d="M702.37,156.42h3.9c2.82,0,4.73.94,4.73,3.36a3,3,0,0,1-2.42,3v.09c2,.31,3.2,1.4,3.2,3.29,0,2.71-2.1,4-5.19,4h-4.22Zm3.61,5.79c2.35,0,3.3-.75,3.3-2.28s-1.1-2-3.22-2h-1.95v4.32Zm.36,6.51c2.35,0,3.71-.77,3.71-2.64,0-1.7-1.3-2.4-3.71-2.4h-2.23v5Z" transform="translate(-166 -71.69)"/><path class="b" d="M681.82,143.16c4.54-4,7-6.36,7-8.58,0-1.54-.93-2.61-2.9-2.61a4.62,4.62,0,0,0-3.21,1.6l-1-1a6,6,0,0,1,4.43-2c2.69,0,4.37,1.57,4.37,3.94s-2.52,5-6.16,8.32c.84-.07,1.7-.11,2.5-.11h4.39v1.49h-9.43Z" transform="translate(-166 -71.69)"/><line class="a" x1="637.61" y1="29.84" x2="552.09" y2="79"/><line class="a" x1="665.57" y1="29.84" x2="751.09" y2="79"/><circle class="a" cx="762.5" cy="92.81" r="18"/><path class="b" d="M923.56,163.61c0-4.43,2.59-7.14,6.18-7.14a5.17,5.17,0,0,1,3.78,1.68l-1,1.12a3.69,3.69,0,0,0-2.77-1.24c-2.63,0-4.35,2.12-4.35,5.54s1.72,5.63,4.35,5.63a4,4,0,0,0,3.08-1.51l1,1.07a5.31,5.31,0,0,1-4.26,2C926.17,170.75,923.56,168.11,923.56,163.61Z" transform="translate(-166 -71.69)"/><path class="b" d="M935.24,139.05h3.86v-9.82h-3v-1.14a9.5,9.5,0,0,0,3.44-1h1.3v12h3.49v1.45h-9.09Z" transform="translate(-166 -71.69)"/><line class="a" x1="474.44" y1="182.37" x2="457.63" y2="225.88"/><line class="a" x1="488.73" y1="182.37" x2="500.37" y2="225.88"/><line class="a" x1="584.44" y1="182.37" x2="567.63" y2="225.88"/><line class="a" x1="598.73" y1="182.37" x2="610.37" y2="225.88"/><circle class="a" cx="590.5" cy="165.81" r="18"/><path class="b" d="M752.59,229.73h8.53v1.49h-6.76v4.3h5.71V237h-5.71v5h7v1.49h-8.74Z" transform="translate(-166 -71.69)"/><path class="b" d="M766.24,212.05h3.86v-9.83h-3v-1.13a9.5,9.5,0,0,0,3.44-1h1.3v12h3.49v1.45h-9.09Z" transform="translate(-166 -71.69)"/><line class="a" x1="526.32" y1="103.46" x2="488.5" y2="149.22"/><line class="a" x1="554.86" y1="103.46" x2="583.5" y2="149.22"/><circle class="a" cx="812.5" cy="165.81" r="18"/><path class="b" d="M975,229.73h8.46v1.49h-6.69v4.64h5.67v1.49h-5.67v6.15H975Z" transform="translate(-166 -71.69)"/><path class="b" d="M988.24,212.05h3.86v-9.83h-3v-1.13a9.5,9.5,0,0,0,3.44-1h1.3v12h3.49v1.45h-9.09Z" transform="translate(-166 -71.69)"/><line class="a" x1="748.32" y1="103.46" x2="710.5" y2="149.22"/><line class="a" x1="776.86" y1="103.46" x2="805.5" y2="149.22"/><rect class="b" x="696" y="149.31" width="30" height="30"/><rect class="b" x="599" y="226.31" width="30" height="30"/><rect class="b" x="549" y="226.31" width="30" height="30"/><line class="a" x1="804.44" y1="182.37" x2="787.63" y2="225.88"/><line class="a" x1="818.73" y1="182.37" x2="830.37" y2="225.88"/><rect class="b" x="819" y="226.31" width="30" height="30"/><rect class="b" x="769" y="226.31" width="30" height="30"/><rect class="b" x="491" y="226.31" width="30" height="30"/><rect class="b" x="441" y="226.31" width="30" height="30"/><circle class="a" cx="188.59" cy="18.5" r="18"/><path class="b" d="M353.58,82.42h2l4.64,13.77h-1.89L356,88.51c-.49-1.53-1-3.05-1.37-4.64h-.08c-.44,1.59-.89,3.11-1.37,4.64l-2.41,7.68h-1.81Zm-2.18,8.17h6.32V92H351.4Z" transform="translate(-166 -71.69)"/><circle class="a" cx="18.5" cy="165.81" r="18"/><path class="b" d="M180,229.73h3.4c4.13,0,6.38,2.45,6.38,6.82s-2.25,6.95-6.3,6.95H180Zm3.27,12.32c3.13,0,4.68-2,4.68-5.5s-1.55-5.37-4.68-5.37h-1.51v10.87Z" transform="translate(-166 -71.69)"/><circle class="a" cx="77.59" cy="92.5" r="18"/><path class="b" d="M239.37,156.42h3.9c2.82,0,4.73.94,4.73,3.36a3,3,0,0,1-2.42,3v.09c2,.31,3.2,1.4,3.2,3.29,0,2.71-2.1,4-5.19,4h-4.22Zm3.61,5.79c2.35,0,3.3-.75,3.3-2.28s-1.09-2-3.22-2h-1.95v4.32Zm.36,6.51c2.35,0,3.71-.77,3.71-2.64,0-1.7-1.3-2.4-3.71-2.4h-2.23v5Z" transform="translate(-166 -71.69)"/><line class="a" x1="174.61" y1="29.84" x2="89.09" y2="79"/><line class="a" x1="202.57" y1="29.84" x2="288.09" y2="79"/><circle class="a" cx="299.5" cy="92.81" r="18"/><path class="b" d="M460.56,163.61c0-4.43,2.59-7.14,6.18-7.14a5.17,5.17,0,0,1,3.78,1.68l-1,1.12a3.68,3.68,0,0,0-2.77-1.24c-2.63,0-4.35,2.12-4.35,5.54s1.72,5.63,4.35,5.63a4,4,0,0,0,3.08-1.51l1,1.07a5.31,5.31,0,0,1-4.26,2C463.17,170.75,460.56,168.11,460.56,163.61Z" transform="translate(-166 -71.69)"/><circle class="a" cx="127.5" cy="165.81" r="18"/><path class="b" d="M289.59,229.73h8.53v1.49h-6.76v4.3h5.71V237h-5.71v5h7v1.49h-8.74Z" transform="translate(-166 -71.69)"/><line class="a" x1="63.32" y1="103.46" x2="25.5" y2="149.22"/><line class="a" x1="91.86" y1="103.46" x2="120.5" y2="149.22"/><circle class="a" cx="349.5" cy="165.81" r="18"/><path class="b" d="M512,229.73h8.46v1.49h-6.69v4.64h5.67v1.49h-5.67v6.15H512Z" transform="translate(-166 -71.69)"/><line class="a" x1="313.86" y1="103.46" x2="342.5" y2="149.22"/></svg>