<svg id="图层_1" data-name="图层 1" xmlns="http://www.w3.org/2000/svg" viewBox="0 0 562.09 227.01"><defs><style>.cls-1{fill:none;stroke:#3ea69f;stroke-miterlimit:10;}.cls-2{fill:#3ea69f;}</style></defs><circle class="cls-1" cx="68.5" cy="41.5" r="18"/><path class="cls-2" d="M321.69,121.76c0-4.49,1.83-6.91,4.81-6.91s4.81,2.42,4.81,6.91-1.83,7-4.81,7S321.69,126.21,321.69,121.76Zm8,0c0-3.84-1.32-5.5-3.19-5.5s-3.19,1.66-3.19,5.5,1.32,5.59,3.19,5.59S329.69,125.6,329.69,121.76Zm-4.49-.15a1.3,1.3,0,1,1,1.3,1.41A1.3,1.3,0,0,1,325.2,121.61Z" transform="translate(-258 -81)"/><circle class="cls-1" cx="533.5" cy="18.5" r="18"/><path class="cls-2" d="M786.69,98.76c0-4.49,1.83-6.91,4.81-6.91s4.81,2.42,4.81,6.91-1.83,7-4.81,7S786.69,103.21,786.69,98.76Zm8,0c0-3.84-1.32-5.5-3.19-5.5s-3.19,1.66-3.19,5.5,1.32,5.59,3.19,5.59S794.69,102.6,794.69,98.76Zm-4.49-.15a1.3,1.3,0,1,1,1.3,1.41A1.3,1.3,0,0,1,790.2,98.61Z" transform="translate(-258 -81)"/><circle class="cls-1" cx="533.5" cy="95.5" r="18"/><path class="cls-2" d="M787.24,181.05h3.86v-9.82h-3v-1.14a9.5,9.5,0,0,0,3.44-1h1.3v12h3.49v1.45h-9.09Z" transform="translate(-258 -81)"/><circle class="cls-1" cx="533.5" cy="160.5" r="18"/><path class="cls-2" d="M786.73,246.47c4.54-4,7-6.36,7-8.59,0-1.53-.93-2.6-2.9-2.6a4.58,4.58,0,0,0-3.21,1.6l-1-1a6,6,0,0,1,4.43-2c2.69,0,4.37,1.58,4.37,4s-2.52,5-6.16,8.31c.84-.06,1.7-.1,2.5-.1h4.39v1.49h-9.43Z" transform="translate(-258 -81)"/><circle class="cls-1" cx="68.5" cy="141.5" r="18"/><path class="cls-2" d="M321.4,226.86l.88-1.13a5.41,5.41,0,0,0,3.84,1.57c1.83,0,3.19-.94,3.19-2.43s-1.34-2.67-4.85-2.67v-1.32c3.17,0,4.39-1.09,4.39-2.5s-1.11-2.1-2.73-2.1a5.12,5.12,0,0,0-3.3,1.34l-.92-1.09a6.51,6.51,0,0,1,4.28-1.68c2.52,0,4.43,1.24,4.43,3.4,0,1.62-1.19,2.65-2.85,3.2v.08c1.78.38,3.32,1.55,3.32,3.4,0,2.37-2.19,3.82-4.85,3.82A6.54,6.54,0,0,1,321.4,226.86Z" transform="translate(-258 -81)"/><circle class="cls-1" cx="118.5" cy="91.5" r="18"/><path class="cls-2" d="M371.73,177.47c4.54-4,7-6.36,7-8.59,0-1.53-.93-2.6-2.9-2.6a4.58,4.58,0,0,0-3.21,1.6l-1-1a6,6,0,0,1,4.43-2c2.69,0,4.37,1.58,4.37,4s-2.52,5-6.16,8.31c.84-.06,1.7-.1,2.5-.1h4.39v1.49h-9.43Z" transform="translate(-258 -81)"/><circle class="cls-1" cx="18.5" cy="91.5" r="18"/><path class="cls-2" d="M272.24,177.05h3.86v-9.82h-3v-1.14a9.5,9.5,0,0,0,3.44-1h1.3v12h3.49v1.45h-9.09Z" transform="translate(-258 -81)"/><line class="cls-1" x1="36" y1="92" x2="100" y2="92"/><line class="cls-1" x1="68.5" y1="59.5" x2="68.5" y2="123.5"/><line class="cls-1" x1="55.16" y1="53.58" x2="30.58" y2="78.16"/><line class="cls-1" x1="30.58" y1="104.84" x2="55.16" y2="129.42"/><line class="cls-1" x1="81.84" y1="129.42" x2="106.42" y2="104.84"/><line class="cls-1" x1="106.42" y1="78.16" x2="81.84" y2="53.58"/><circle class="cls-1" cx="235.03" cy="92.5" r="18"/><path class="cls-2" d="M488.77,178.05h3.86v-9.82h-3v-1.14a9.66,9.66,0,0,0,3.44-1h1.31v11.94h3.48v1.45h-9.09Z" transform="translate(-258 -81)"/><circle class="cls-1" cx="311.71" cy="18.97" r="18"/><path class="cls-2" d="M564.91,99.23c0-4.5,1.82-6.91,4.8-6.91s4.81,2.41,4.81,6.91-1.83,7-4.81,7S564.91,103.68,564.91,99.23Zm8,0c0-3.85-1.32-5.5-3.19-5.5s-3.19,1.65-3.19,5.5,1.32,5.58,3.19,5.58S572.9,103.07,572.9,99.23Zm-4.49-.15a1.31,1.31,0,1,1,1.3,1.41A1.31,1.31,0,0,1,568.41,99.08Z" transform="translate(-258 -81)"/><circle class="cls-1" cx="386.03" cy="91.5" r="18"/><path class="cls-2" d="M639.27,177.47c4.53-4,7-6.36,7-8.58,0-1.54-.92-2.61-2.9-2.61a4.62,4.62,0,0,0-3.21,1.6l-1-1a6,6,0,0,1,4.43-2c2.69,0,4.37,1.58,4.37,4s-2.52,5-6.15,8.32c.84-.07,1.7-.11,2.5-.11h4.38v1.49h-9.42Z" transform="translate(-258 -81)"/><line class="cls-1" x1="297.44" y1="29.93" x2="242.53" y2="76"/><line class="cls-1" x1="325.99" y1="29.93" x2="377.53" y2="76"/><circle class="cls-1" cx="342.5" cy="165.5" r="18"/><path class="cls-2" d="M595.38,250.93l.86-1.16A5.31,5.31,0,0,0,600,251.3a3.11,3.11,0,0,0,3.38-3c0-1.85-1.31-2.92-3.28-2.92a5,5,0,0,0-2.73.8l-.92-.59.44-6.45h7.58v1.52h-6l-.36,3.94a5.84,5.84,0,0,1,2.48-.54c2.56,0,4.6,1.3,4.6,4.2s-2.39,4.53-4.95,4.53A6.72,6.72,0,0,1,595.38,250.93Z" transform="translate(-258 -81)"/><circle class="cls-1" cx="429.03" cy="165.5" r="18"/><path class="cls-2" d="M682.35,246.31c0-5.38,2.69-7.46,5.61-7.46a5.31,5.31,0,0,1,3.73,1.43l-1,1.09a4,4,0,0,0-2.67-1.07c-2.18,0-4.07,1.54-4.07,6,0,3.29,1.26,5.08,3.48,5.08a2.79,2.79,0,0,0,2.82-2.94,2.55,2.55,0,0,0-2.84-2.83,4.68,4.68,0,0,0-3.5,1.88l-.07-1.36a5.71,5.71,0,0,1,3.89-1.83,3.81,3.81,0,0,1,4.18,4.14,4.32,4.32,0,0,1-4.48,4.3C684.56,252.75,682.35,250.61,682.35,246.31Z" transform="translate(-258 -81)"/><line class="cls-1" x1="376" y1="106" x2="349" y2="149"/><circle class="cls-1" cx="189.5" cy="165.5" r="18"/><path class="cls-2" d="M442.4,250.86l.88-1.13a5.41,5.41,0,0,0,3.84,1.57c1.83,0,3.19-.94,3.19-2.43s-1.34-2.67-4.85-2.67v-1.32c3.17,0,4.39-1.09,4.39-2.5s-1.11-2.1-2.73-2.1a5.12,5.12,0,0,0-3.3,1.34l-.92-1.09a6.51,6.51,0,0,1,4.28-1.68c2.52,0,4.43,1.24,4.43,3.4,0,1.62-1.19,2.65-2.85,3.2v.08c1.78.38,3.32,1.55,3.32,3.4,0,2.37-2.19,3.82-4.85,3.82A6.54,6.54,0,0,1,442.4,250.86Z" transform="translate(-258 -81)"/><line class="cls-1" x1="223" y1="106" x2="196" y2="149"/><line class="cls-1" x1="396.53" y1="107" x2="422.53" y2="149"/><circle class="cls-1" cx="278.5" cy="165.5" r="18"/><path class="cls-2" d="M537.93,243.28c0-.73.06-1.64.1-2.37h-.1c-.44.65-.93,1.3-1.37,2L533,247.4h8.69v1.4H531v-1.15l6.68-8.55h1.86v13.4h-1.63Z" transform="translate(-258 -81)"/><line class="cls-1" x1="246" y1="107" x2="272" y2="149"/><path class="cls-2" d="M319.19,298.7c0-3.81,2.18-6.12,5.24-6.12a4.37,4.37,0,0,1,3.26,1.44l-.87,1a3.06,3.06,0,0,0-2.39-1.07c-2.22,0-3.66,1.82-3.66,4.76s1.32,4.82,3.62,4.82a3,3,0,0,0,2-.68v-3.08h-2.34v-1.24h3.74v5a5,5,0,0,1-3.53,1.36C321.33,304.82,319.19,302.56,319.19,298.7Z" transform="translate(-258 -81)"/><path class="cls-2" d="M332.18,306.8h5.42v1h-5.42Zm2.22-4.53h-1.89v-.76a4.13,4.13,0,0,0,2.11-.74h.95v7H334.4Z" transform="translate(-258 -81)"/><path class="cls-2" d="M563.19,298.7c0-3.81,2.18-6.12,5.24-6.12a4.37,4.37,0,0,1,3.26,1.44l-.87,1a3.06,3.06,0,0,0-2.39-1.07c-2.22,0-3.66,1.82-3.66,4.76s1.32,4.82,3.62,4.82a3,3,0,0,0,2-.68v-3.08h-2.34v-1.24h3.74v5a5,5,0,0,1-3.53,1.36C565.33,304.82,563.19,302.56,563.19,298.7Z" transform="translate(-258 -81)"/><path class="cls-2" d="M575.88,307.13c2.41-2.05,3.69-3.06,3.69-4.12a1.39,1.39,0,0,0-1.53-1.46,2.11,2.11,0,0,0-1.69,1l-.69-.63a3.06,3.06,0,0,1,2.54-1.37,2.22,2.22,0,0,1,2.52,2.28c0,1.35-1.26,2.36-3,4h3.31v1H576Z" transform="translate(-258 -81)"/><path class="cls-2" d="M784.19,298.7c0-3.81,2.18-6.12,5.24-6.12a4.37,4.37,0,0,1,3.26,1.44l-.87,1a3.06,3.06,0,0,0-2.39-1.07c-2.22,0-3.66,1.82-3.66,4.76s1.32,4.82,3.62,4.82a3,3,0,0,0,2-.68v-3.08h-2.34v-1.24h3.74v5a5,5,0,0,1-3.53,1.36C786.33,304.82,784.19,302.56,784.19,298.7Z" transform="translate(-258 -81)"/><path class="cls-2" d="M796.59,306.64l.76-.59a2.35,2.35,0,0,0,2,1c.86,0,1.58-.45,1.58-1.24s-.75-1.24-2.35-1.24v-.74c1.42,0,2.08-.56,2.08-1.28s-.57-1.1-1.44-1.1a2.23,2.23,0,0,0-1.62.85l-.68-.61a3.06,3.06,0,0,1,2.47-1.17c1.31,0,2.43.72,2.43,1.89,0,.84-.47,1.37-1.41,1.73a1.8,1.8,0,0,1,1.68,1.72c0,1.3-1.21,2.11-2.67,2.11A3.32,3.32,0,0,1,796.59,306.64Z" transform="translate(-258 -81)"/><line class="cls-1" x1="534" y1="113" x2="534" y2="132.96"/><path class="cls-2" d="M792,220a30.1,30.1,0,0,0-4.76-8.55l4.76,1.72,4.75-1.72A30.31,30.31,0,0,0,792,220Z" transform="translate(-258 -81)"/><path class="cls-1" d="M777.59,110.93c-17.77,14-14.89,33.21-8.15,43.1" transform="translate(-258 -81)"/><path class="cls-2" d="M773.5,158.5a30.06,30.06,0,0,0-9.22-3.28l4.71-1.85,2.44-4.43A30.27,30.27,0,0,0,773.5,158.5Z" transform="translate(-258 -81)"/><path class="cls-1" d="M806.21,166.5c17.78-14,14.89-33.21,8.16-43.11" transform="translate(-258 -81)"/><path class="cls-2" d="M810.31,118.93a30.53,30.53,0,0,0,9.21,3.28l-4.71,1.84-2.43,4.44A30.21,30.21,0,0,0,810.31,118.93Z" transform="translate(-258 -81)"/></svg>