<svg id="图层_1" data-name="图层 1" xmlns="http://www.w3.org/2000/svg" viewBox="0 0 715 289.63"><defs><style>.cls-1{fill:none;stroke:#3ea69f;stroke-miterlimit:10;}.cls-2{fill:#3ea69f;}</style></defs><circle class="cls-1" cx="48.5" cy="91.81" r="18"/><path class="cls-2" d="M195.33,170.27h3.86v-9.83h-3v-1.13a9.5,9.5,0,0,0,3.44-1h1.3v12h3.49v1.45h-9.09Z" transform="translate(-151.09 -73.91)"/><circle class="cls-1" cx="18.5" cy="168.81" r="18"/><path class="cls-2" d="M164.49,247.08l.88-1.13a5.41,5.41,0,0,0,3.84,1.57c1.83,0,3.19-.94,3.19-2.43s-1.34-2.67-4.85-2.67V241.1c3.17,0,4.39-1.1,4.39-2.5s-1.11-2.1-2.73-2.1a5.07,5.07,0,0,0-3.29,1.34l-.93-1.09a6.51,6.51,0,0,1,4.28-1.68c2.52,0,4.43,1.24,4.43,3.4,0,1.62-1.19,2.65-2.85,3.19v.09c1.78.38,3.32,1.55,3.32,3.4,0,2.37-2.19,3.82-4.85,3.82A6.54,6.54,0,0,1,164.49,247.08Z" transform="translate(-151.09 -73.91)"/><circle class="cls-1" cx="73.5" cy="168.81" r="18"/><path class="cls-2" d="M226,239.5c0-.73.06-1.64.1-2.37H226c-.44.65-.93,1.3-1.37,2L221,243.62h8.69V245H219.11v-1.15l6.68-8.55h1.86v13.4H226Z" transform="translate(-151.09 -73.91)"/><circle class="cls-1" cx="107.59" cy="18.5" r="18"/><path class="cls-2" d="M253.87,91.67c0-4.49,1.83-6.91,4.81-6.91s4.81,2.42,4.81,6.91-1.83,7-4.81,7S253.87,96.12,253.87,91.67Zm8,0c0-3.84-1.32-5.5-3.19-5.5s-3.19,1.66-3.19,5.5,1.32,5.59,3.19,5.59S261.87,95.51,261.87,91.67Zm-4.49-.14a1.3,1.3,0,1,1,1.3,1.4A1.3,1.3,0,0,1,257.38,91.53Z" transform="translate(-151.09 -73.91)"/><line class="cls-1" x1="41.44" y1="108.37" x2="24.63" y2="151.88"/><line class="cls-1" x1="55.73" y1="108.37" x2="67.37" y2="151.88"/><circle class="cls-1" cx="157.5" cy="91.81" r="18"/><path class="cls-2" d="M303.82,170.69c4.54-4,7-6.36,7-8.59,0-1.53-.93-2.6-2.9-2.6a4.61,4.61,0,0,0-3.21,1.59l-1-1a6,6,0,0,1,4.43-2c2.69,0,4.37,1.58,4.37,4s-2.52,5-6.16,8.31c.84-.06,1.7-.1,2.5-.1h4.39v1.49h-9.43Z" transform="translate(-151.09 -73.91)"/><circle class="cls-1" cx="127.5" cy="168.81" r="18"/><path class="cls-2" d="M273.47,247.14l.86-1.15a5.31,5.31,0,0,0,3.78,1.53,3.1,3.1,0,0,0,3.38-3c0-1.85-1.3-2.92-3.28-2.92a5,5,0,0,0-2.73.8l-.92-.59.44-6.45h7.58v1.51h-6.05l-.36,3.95a5.84,5.84,0,0,1,2.48-.54c2.56,0,4.6,1.3,4.6,4.2S280.86,249,278.3,249A6.7,6.7,0,0,1,273.47,247.14Z" transform="translate(-151.09 -73.91)"/><circle class="cls-1" cx="182.5" cy="168.81" r="18"/><path class="cls-2" d="M328.91,242.52c0-5.37,2.68-7.45,5.6-7.45a5.32,5.32,0,0,1,3.74,1.43l-1,1.09a3.93,3.93,0,0,0-2.66-1.07c-2.19,0-4.08,1.53-4.08,6,0,3.3,1.26,5.09,3.49,5.09a2.78,2.78,0,0,0,2.81-2.94,2.55,2.55,0,0,0-2.83-2.84,4.73,4.73,0,0,0-3.51,1.89l-.06-1.36a5.64,5.64,0,0,1,3.88-1.83,3.81,3.81,0,0,1,4.18,4.14A4.32,4.32,0,0,1,334,249C331.11,249,328.91,246.83,328.91,242.52Z" transform="translate(-151.09 -73.91)"/><circle class="cls-1" cx="100.74" cy="234.48" r="18"/><path class="cls-2" d="M254.71,302.51H247V301h9.7v1.07c-3.55,4.05-4.41,7.08-4.62,12.32h-1.82A17.86,17.86,0,0,1,254.71,302.51Z" transform="translate(-151.09 -73.91)"/><line class="cls-1" x1="150.44" y1="108.37" x2="133.63" y2="151.88"/><line class="cls-1" x1="164.73" y1="108.37" x2="176.37" y2="151.88"/><line class="cls-1" x1="93.32" y1="29.46" x2="55.5" y2="75.22"/><line class="cls-1" x1="121.86" y1="29.46" x2="150.5" y2="75.22"/><line class="cls-1" x1="30.5" y1="182.22" x2="86.45" y2="223.54"/><line class="cls-1" x1="82.74" y1="184.25" x2="93.32" y2="218.09"/><line class="cls-1" x1="118.74" y1="184.25" x2="109.5" y2="218.09"/><line class="cls-1" x1="173.26" y1="184.25" x2="115.03" y2="223.54"/><circle class="cls-1" cx="562.5" cy="91.81" r="18"/><path class="cls-2" d="M709.33,170.27h3.86v-9.83h-3v-1.13a9.5,9.5,0,0,0,3.44-1h1.3v12h3.49v1.45h-9.09Z" transform="translate(-151.09 -73.91)"/><circle class="cls-1" cx="532.5" cy="168.81" r="18"/><path class="cls-2" d="M678.49,247.08l.88-1.13a5.41,5.41,0,0,0,3.84,1.57c1.83,0,3.19-.94,3.19-2.43s-1.34-2.67-4.85-2.67V241.1c3.17,0,4.39-1.1,4.39-2.5s-1.11-2.1-2.73-2.1a5.07,5.07,0,0,0-3.29,1.34l-.93-1.09a6.51,6.51,0,0,1,4.28-1.68c2.52,0,4.43,1.24,4.43,3.4,0,1.62-1.19,2.65-2.85,3.19v.09c1.78.38,3.32,1.55,3.32,3.4,0,2.37-2.19,3.82-4.85,3.82A6.54,6.54,0,0,1,678.49,247.08Z" transform="translate(-151.09 -73.91)"/><circle class="cls-1" cx="587.5" cy="168.81" r="18"/><path class="cls-2" d="M740,239.5c0-.73.06-1.64.1-2.37H740c-.44.65-.93,1.3-1.37,2L735,243.62h8.69V245H733.11v-1.15l6.68-8.55h1.86v13.4H740Z" transform="translate(-151.09 -73.91)"/><circle class="cls-1" cx="621.59" cy="18.5" r="18"/><path class="cls-2" d="M767.87,91.67c0-4.49,1.83-6.91,4.81-6.91s4.81,2.42,4.81,6.91-1.83,7-4.81,7S767.87,96.12,767.87,91.67Zm8,0c0-3.84-1.32-5.5-3.19-5.5s-3.19,1.66-3.19,5.5,1.32,5.59,3.19,5.59S775.87,95.51,775.87,91.67Zm-4.49-.14a1.3,1.3,0,1,1,1.3,1.4A1.3,1.3,0,0,1,771.38,91.53Z" transform="translate(-151.09 -73.91)"/><line class="cls-1" x1="555.44" y1="108.37" x2="538.63" y2="151.88"/><line class="cls-1" x1="569.73" y1="108.37" x2="581.37" y2="151.88"/><circle class="cls-1" cx="671.5" cy="91.81" r="18"/><path class="cls-2" d="M817.82,170.69c4.54-4,7-6.36,7-8.59,0-1.53-.93-2.6-2.9-2.6a4.61,4.61,0,0,0-3.21,1.59l-1-1a6,6,0,0,1,4.43-2c2.69,0,4.37,1.58,4.37,4s-2.52,5-6.16,8.31c.84-.06,1.7-.1,2.5-.1h4.39v1.49h-9.43Z" transform="translate(-151.09 -73.91)"/><circle class="cls-1" cx="641.5" cy="168.81" r="18"/><path class="cls-2" d="M787.47,247.14l.86-1.15a5.31,5.31,0,0,0,3.78,1.53,3.11,3.11,0,0,0,3.38-3c0-1.85-1.3-2.92-3.28-2.92a5,5,0,0,0-2.73.8l-.92-.59.44-6.45h7.58v1.51h-6.05l-.36,3.95a5.84,5.84,0,0,1,2.48-.54c2.56,0,4.6,1.3,4.6,4.2s-2.39,4.53-5,4.53A6.69,6.69,0,0,1,787.47,247.14Z" transform="translate(-151.09 -73.91)"/><circle class="cls-1" cx="696.5" cy="168.81" r="18"/><path class="cls-2" d="M842.91,242.52c0-5.37,2.68-7.45,5.6-7.45a5.32,5.32,0,0,1,3.74,1.43l-1,1.09a4,4,0,0,0-2.67-1.07c-2.19,0-4.08,1.53-4.08,6,0,3.3,1.26,5.09,3.49,5.09a2.78,2.78,0,0,0,2.81-2.94,2.55,2.55,0,0,0-2.83-2.84,4.73,4.73,0,0,0-3.51,1.89l-.06-1.36a5.64,5.64,0,0,1,3.88-1.83,3.81,3.81,0,0,1,4.18,4.14A4.32,4.32,0,0,1,848,249C845.11,249,842.91,246.83,842.91,242.52Z" transform="translate(-151.09 -73.91)"/><circle class="cls-1" cx="614.74" cy="234.48" r="18"/><path class="cls-2" d="M768.71,302.51H761V301h9.7v1.07c-3.55,4.05-4.41,7.08-4.62,12.32h-1.82A17.86,17.86,0,0,1,768.71,302.51Z" transform="translate(-151.09 -73.91)"/><line class="cls-1" x1="664.44" y1="108.37" x2="647.63" y2="151.88"/><line class="cls-1" x1="678.73" y1="108.37" x2="690.37" y2="151.88"/><line class="cls-1" x1="607.32" y1="29.46" x2="569.5" y2="75.22"/><line class="cls-1" x1="635.86" y1="29.46" x2="664.5" y2="75.22"/><line class="cls-1" x1="544.5" y1="182.22" x2="600.45" y2="223.54"/><circle class="cls-1" cx="305.5" cy="91.81" r="18"/><path class="cls-2" d="M452.33,170.27h3.86v-9.83h-3v-1.13a9.5,9.5,0,0,0,3.44-1h1.3v12h3.49v1.45h-9.09Z" transform="translate(-151.09 -73.91)"/><circle class="cls-1" cx="275.5" cy="168.81" r="18"/><path class="cls-2" d="M421.49,247.08l.88-1.13a5.41,5.41,0,0,0,3.84,1.57c1.83,0,3.19-.94,3.19-2.43s-1.34-2.67-4.85-2.67V241.1c3.17,0,4.39-1.1,4.39-2.5s-1.11-2.1-2.73-2.1a5.07,5.07,0,0,0-3.29,1.34l-.93-1.09a6.51,6.51,0,0,1,4.28-1.68c2.52,0,4.43,1.24,4.43,3.4,0,1.62-1.19,2.65-2.85,3.19v.09c1.78.38,3.32,1.55,3.32,3.4,0,2.37-2.19,3.82-4.85,3.82A6.54,6.54,0,0,1,421.49,247.08Z" transform="translate(-151.09 -73.91)"/><circle class="cls-1" cx="330.5" cy="168.81" r="18"/><path class="cls-2" d="M483,239.5c0-.73.06-1.64.1-2.37H483c-.44.65-.93,1.3-1.37,2L478,243.62h8.69V245H476.11v-1.15l6.68-8.55h1.86v13.4H483Z" transform="translate(-151.09 -73.91)"/><circle class="cls-1" cx="364.59" cy="18.5" r="18"/><path class="cls-2" d="M510.87,91.67c0-4.49,1.83-6.91,4.81-6.91s4.81,2.42,4.81,6.91-1.83,7-4.81,7S510.87,96.12,510.87,91.67Zm8,0c0-3.84-1.32-5.5-3.19-5.5s-3.19,1.66-3.19,5.5,1.32,5.59,3.19,5.59S518.87,95.51,518.87,91.67Zm-4.49-.14a1.3,1.3,0,1,1,1.3,1.4A1.3,1.3,0,0,1,514.38,91.53Z" transform="translate(-151.09 -73.91)"/><line class="cls-1" x1="298.44" y1="108.37" x2="281.63" y2="151.88"/><circle class="cls-1" cx="414.5" cy="91.81" r="18"/><path class="cls-2" d="M560.82,170.69c4.54-4,7-6.36,7-8.59,0-1.53-.93-2.6-2.9-2.6a4.61,4.61,0,0,0-3.21,1.59l-1-1a6,6,0,0,1,4.43-2c2.69,0,4.37,1.58,4.37,4s-2.52,5-6.16,8.31c.84-.06,1.7-.1,2.5-.1h4.39v1.49h-9.43Z" transform="translate(-151.09 -73.91)"/><circle class="cls-1" cx="384.5" cy="168.81" r="18"/><path class="cls-2" d="M530.47,247.14l.86-1.15a5.31,5.31,0,0,0,3.78,1.53,3.1,3.1,0,0,0,3.38-3c0-1.85-1.3-2.92-3.28-2.92a5,5,0,0,0-2.73.8l-.92-.59.44-6.45h7.58v1.51h-6.05l-.36,3.95a5.84,5.84,0,0,1,2.48-.54c2.56,0,4.6,1.3,4.6,4.2s-2.39,4.53-5,4.53A6.7,6.7,0,0,1,530.47,247.14Z" transform="translate(-151.09 -73.91)"/><circle class="cls-1" cx="439.5" cy="168.81" r="18"/><path class="cls-2" d="M585.91,242.52c0-5.37,2.68-7.45,5.6-7.45a5.32,5.32,0,0,1,3.74,1.43l-1,1.09a3.93,3.93,0,0,0-2.66-1.07c-2.19,0-4.08,1.53-4.08,6,0,3.3,1.26,5.09,3.49,5.09a2.78,2.78,0,0,0,2.81-2.94,2.55,2.55,0,0,0-2.83-2.84,4.73,4.73,0,0,0-3.51,1.89l-.06-1.36a5.64,5.64,0,0,1,3.88-1.83,3.81,3.81,0,0,1,4.18,4.14A4.32,4.32,0,0,1,591,249C588.11,249,585.91,246.83,585.91,242.52Z" transform="translate(-151.09 -73.91)"/><circle class="cls-1" cx="357.74" cy="234.48" r="18"/><path class="cls-2" d="M511.71,302.51H504V301h9.7v1.07c-3.55,4.05-4.41,7.08-4.62,12.32h-1.82A17.86,17.86,0,0,1,511.71,302.51Z" transform="translate(-151.09 -73.91)"/><line class="cls-1" x1="407.44" y1="108.37" x2="390.63" y2="151.88"/><line class="cls-1" x1="421.73" y1="108.37" x2="433.37" y2="151.88"/><line class="cls-1" x1="350.32" y1="29.46" x2="312.5" y2="75.22"/><line class="cls-1" x1="287.5" y1="182.22" x2="343.45" y2="223.54"/><line class="cls-1" x1="339.74" y1="184.25" x2="350.32" y2="218.09"/><line class="cls-1" x1="375.74" y1="184.25" x2="366.5" y2="218.09"/><path class="cls-2" d="M455.26,354.26h.08c1.46.11,2.2.3,2.2.59v.25h-.77a6.53,6.53,0,0,0-.67.17c-.73-.24-1.1-.44-1.1-.59v-.16C455,354.43,455.09,354.35,455.26,354.26Zm7.17-4.31c1.29.37,1.93.65,1.93.85v.25a2.46,2.46,0,0,0-.84,2.2l.26.17,2.19-1.61h.08c.12,0,.18.07.18.17v.08c0,.4-.71,1.08-2.11,2v.08c2.27,1.41,3.59,2.74,4,4v.08c0,.12-.08.17-.25.17l-4.22-3.71h-.09v.08a5.61,5.61,0,0,1,.42,1,.59.59,0,0,0-.5.59q-.09,1.17-.25,6.24l.08.51c-.07.28-.16.42-.25.42h-.17a1.08,1.08,0,0,1-.59-.84c0-.59.05-2.42.17-5.49h-.17q-1.83,2.28-2.19,2.28c-.23-.08-.35-.17-.35-.25v-.17a13.73,13.73,0,0,1,2-3.12v-.17h-.08c-.51.17-1.27.36-2.28.59a1.59,1.59,0,0,0-.76-.34h-.34a7.12,7.12,0,0,0-1.69,2.87,1.71,1.71,0,0,1-.84.34l-.17-.26v-.17c0-.37.85-1.46,2.53-3.28a6.91,6.91,0,0,1,2.37-.51c1.41-.51,2.11-.93,2.11-1.27s.14-1.27.25-2.79c-.07,0-.3-.22-.67-.66v-.18C462.18,350,462.26,350,462.43,350Zm-6.41.59h.33c.9.53,1.4.95,1.52,1.27l-.17.09h-.84c-.73-.44-1.1-.78-1.1-1S455.93,350.54,456,350.54Zm7.92-4.13c.26,0,.49.2.68.59-.67,1.47-1.23,2.2-1.69,2.2a.67.67,0,0,1-.16-.42h-.26l-.76.92a6.27,6.27,0,0,1-.84,1.94h-.09c-.17,0-.25-.26-.25-.68v-.5c.3-1.4.64-2.11,1-2.11h.33a4.8,4.8,0,0,1,.76.08c.3-.08.58-.42.84-1l-.17-.08a5,5,0,0,1-3.2.76H460a1,1,0,0,0-.5.17,5.38,5.38,0,0,1,.33,1.61v1.85c0,.08-.08.17-.25.25a2,2,0,0,1-.34-.42v-.17a6.46,6.46,0,0,0-1.43-4.13V347c0-.08.08-.17.25-.25s.67.28,1.1.84A38.46,38.46,0,0,1,463.94,346.41Z" transform="translate(-151.09 -73.91)"/><path class="cls-2" d="M479.1,348.52l.16.26v.16c0,.3-1.35.8-4.05,1.52a7.3,7.3,0,0,0-.25,2.11c.86-.13,1.36-.3,1.52-.51a8.16,8.16,0,0,1-.26-1.34l.17-.09h.17c.2,0,.43.42.67,1.27h.09l.84-.26v-.75c0-.42.09-.65.26-.68h.33c.14,0,.26.37.35,1.1a5.47,5.47,0,0,1,1.26-.34c.11,0,.17.08.17.17v.17a4.47,4.47,0,0,1-1.36,1c.06,1.18.09,2,.09,2.45l-.25.17c-.22-.4-.36-.59-.42-.59l-1.44,1.93a.55.55,0,0,1-.59-.42,2.68,2.68,0,0,0,.25-1c0-1.13-.11-1.69-.33-1.69-1.07.2-1.6.34-1.6.42a.68.68,0,0,0-.09.35c0,.57-.06,1.84-.17,3.79h.08q2.52-1,5.83-2.53h.08c.13,0,.21.14.25.42a19.18,19.18,0,0,0-2,3.38,16.69,16.69,0,0,0,3.45,1.69l.09.16v.26a.71.71,0,0,1-.59.42q-.84,0-3.54-1.86a3.3,3.3,0,0,1-1.77,1.44c-.4-.1-.59-.22-.59-.34v-.34c0-.08.08-.17.25-.25l.17.08a8.67,8.67,0,0,0,1.18-1.18V359c-.5-.62-.8-.93-.93-.93a7.08,7.08,0,0,1-1.44.25,1.47,1.47,0,0,0-.5-.09l-.09.17c0,1.75-.08,3.13-.08,4.14v.17c0,.39-.14.59-.42.59a.55.55,0,0,1-.42-.59v-.59q0-1.23.84-11.39c-.05,0-.08,0-.08-.09a3.77,3.77,0,0,1-1.36.17h-.08a.54.54,0,0,1-.58-.34v-.16c0-.13,1-.39,2.95-.77A21.8,21.8,0,0,1,479.1,348.52Zm-4.22-1.85c1.8.74,2.69,1.21,2.69,1.43s-.23.25-.58.25c-1.64-.3-2.46-.78-2.46-1.43C474.53,346.78,474.65,346.7,474.88,346.67Zm2.53,6.33c0,.69.08,1.06.08,1.09h.08c.57-.47.85-.78.85-.93,0-.33-.1-.5-.17-.5C477.69,352.8,477.41,352.91,477.41,353Zm.16,4.72c0,.08.17.25.51.5h.08a4.34,4.34,0,0,0,1-1.43A6.67,6.67,0,0,0,477.57,357.72Z" transform="translate(-151.09 -73.91)"/><path class="cls-2" d="M489.85,348.93h.25a.57.57,0,0,1,.34.59,8.29,8.29,0,0,0-1.35,2.2,8.32,8.32,0,0,0,.68,2.7c1.12,0,1.68-.23,1.68-.68a14.44,14.44,0,0,0,.09-1.6v-1.35a.57.57,0,0,1,.33-.59H492c.08,0,.19.15.34.42v3.12H493a11.14,11.14,0,0,0,1.6-.42c.11,0,.17.07.17.17v.17a2.06,2.06,0,0,1-1.34,1V355c.16,2.36.25,4,.25,4.81h.25a13.87,13.87,0,0,0,3.2-2.7,7,7,0,0,0,1-1.95,4.67,4.67,0,0,1-1.43-.75.08.08,0,0,0,.09-.09c1.69.15,2.53.35,2.53.6v.17a11.44,11.44,0,0,1-2.28,3.54c-1.92,1.57-3.13,2.36-3.62,2.36-.29-.09-.43-.23-.43-.42.11-1.05.17-1.73.17-2a24.15,24.15,0,0,0-.51-3.62h-.08c-.15,0-.35,1-.59,3.12a5.1,5.1,0,0,1-.67,1.43.7.7,0,0,1-.43-.59l.43-3.54c-.12,0-.17-.06-.17-.18-1,.1-1.52.24-1.52.43s0,.17-.09.17a.58.58,0,0,1,.09.25c0,.12,0,.17-.09.17l.09.59v2.87c0,.79-.12,1.18-.34,1.18h-.34c-.17-.05-.25-.22-.25-.5v-2.28a28.76,28.76,0,0,0-.26-5.41h-.08a5.9,5.9,0,0,0-.76.77h-.25c-.08,0-.17-.09-.25-.26v-.25A26.6,26.6,0,0,1,489.85,348.93Zm4.13.43h.34c1.29,1.16,1.94,2,1.94,2.53a.08.08,0,0,1,.09.09v.07a.15.15,0,0,1-.17.17c-1.58-1.53-2.36-2.45-2.36-2.78Z" transform="translate(-151.09 -73.91)"/><path class="cls-2" d="M507.44,348.72h.18c.24,0,.41.48.5,1.44h.42c.34,0,.51.12.51.25v.26c-.07.17-.47.45-1.19.84l-.5,1.27.17.07a12.17,12.17,0,0,0,2.78-.75l.08.17q0,.8-1.68,1.26v.09a9.14,9.14,0,0,1,.59,3.54v2.95h.34q1.32,0,4.47-3.2l-1.26-3.21.16-.08a19.15,19.15,0,0,1,2.28,3.45v.09a20.43,20.43,0,0,1-3.54,3.12,5.58,5.58,0,0,1-2.53.93c-.3,0-.58-.28-.85-.84l.26-2.95c-.17-2-.4-3-.68-3q-.94,0-2,4.72l-.26.17h-.08a.57.57,0,0,1-.59-.33v-.26l1-4.05v-.17h-.08c-1.71.17-2.69.26-2.95.26l-.26-.34c0-.51.7-.76,2.11-.76,1.07-.13,1.6-.47,1.6-1l.09-.6c-1.3-.36-2-.67-2-.92.16-1.52.39-2.28.67-2.28h.09a.85.85,0,0,1,.5.76,3,3,0,0,0-.16.75v.43a.57.57,0,0,1,.25.08c.79,0,1.18-.45,1.18-1.35C507.22,349,507.36,348.72,507.44,348.72Z" transform="translate(-151.09 -73.91)"/><path class="cls-2" d="M521.44,349.19c.56,0,.84.48.84,1.43v.09c0,.47,0,1.18-.08,2.11.06,0,.08,0,.08.08.85-.19,1.27-.36,1.27-.5v-.93q.09-2.19.51-2.19h.25c.2,0,.34.36.42,1.09-.05.89-.08,1.43-.08,1.61h.08a3.15,3.15,0,0,0,1.26-.59h.18c.16,0,.25.25.25.66a2.79,2.79,0,0,1-1.69,1.36v1.94h.09a6,6,0,0,1,1.09-.17c.09,0,.17.09.26.25q0,.63-1.44,1.35v1.52h.09l1.52-.25a19.52,19.52,0,0,1,3.45,1.77v.43c0,.11-.06.16-.17.16h-.33a7.5,7.5,0,0,1-2.79-1.35h-.16a21.77,21.77,0,0,0-2.37,1,25,25,0,0,0-2.62.68.07.07,0,0,1-.08-.08l-.42.08h-.16c-.57,0-.85-.25-.85-.76a7.93,7.93,0,0,1,2.78-.76c.56-.24.84-.41.84-.5v-1.44c0-.13-.39-.27-1.18-.42l-.08-.17v-.51c.06-.17.23-.25.51-.25h.67c.1,0,.18-.14.26-.42a4.14,4.14,0,0,1-.09-.76v-.09c0-.05,0-.08.09-.08-.06-.45-.15-.67-.26-.67-1.12,0-1.68.33-1.68,1-.19.56-.47.84-.85.84s-.42-.12-.42-.25a26.42,26.42,0,0,0,.76-6.16A.9.9,0,0,0,521.44,349.19Z" transform="translate(-151.09 -73.91)"/><path class="cls-2" d="M537.43,349.79a6.35,6.35,0,0,0,1.93.67l1.78-.25.16.25v.08c0,.09-.3.32-.92.68a32.44,32.44,0,0,1,4,4h.09c1.11-1.29,1.84-1.94,2.2-1.94l.08.17v.25a7.93,7.93,0,0,0-1.69,2.37c1.3,1.95,1.94,3.49,1.94,4.64v.16c0,.09-.11.2-.33.35h-.18c-.18,0-.52-.85-1-2.54a5.31,5.31,0,0,0-1.1-1.77h-.16c-1.29,2.25-2.1,3.37-2.45,3.37l-.08-.16v-.09c0-.63.7-1.93,2.11-3.88v-.08a19.69,19.69,0,0,0-4.56-4.56c-1.18.17-1.77.42-1.77.76-.23,1.66-.34,2.68-.34,3h.08a26.49,26.49,0,0,0,4.14-1.69.44.44,0,0,1,.42.5q-1.09,2.91-2.11,6.16l-.34.26H539a10.92,10.92,0,0,1-1.78-3.12l.18-.09,1.6,2h.09c0-.14.56-1.72,1.68-4.72h-.08A13.14,13.14,0,0,1,537,356.2l-.6,6.75-.25.17h-.09c-.08,0-.19-.11-.33-.34v-.34a66.47,66.47,0,0,1,1-10.21.69.69,0,0,0-.25-.08,5.18,5.18,0,0,0-.85.08c-.95-.09-1.43-.26-1.43-.5v-.17l.17-.25.42.08c1.41,0,2.11-.14,2.11-.43Q537,349.79,537.43,349.79Zm.24.93v.33c.09,0,.17-.08.26-.25v-.26h-.08Q537.67,350.57,537.67,350.72Zm5.07-3.89h.51a5.29,5.29,0,0,1,2.19,2.62v.08l-.17.09c-.27,0-1-.68-2.28-2-.07,0-.22-.14-.42-.42V347C542.59,346.89,542.64,346.83,542.74,346.83Z" transform="translate(-151.09 -73.91)"/><path class="cls-2" d="M554.06,349.49A5,5,0,0,1,555,351c0,.09-.23.34-.68.75v1.36a1.32,1.32,0,0,0,.18.67V354a2.68,2.68,0,0,1,1.6.93.15.15,0,0,1-.17.17h-.51c-.07,0-.38-.06-.92-.17v1.18c0,.57,0,1.27.08,2.11,0,.45-.14.68-.26.68h-.08c-.24,0-.44-1.18-.58-3.55-.8,1-1.36,1.53-1.69,1.53l-.09-.17a10.73,10.73,0,0,1,1.69-2.88v-1.09l-.09-.59a10.77,10.77,0,0,1-2.28.67c-.25-.11-.4-.22-.42-.33v-.09a6.65,6.65,0,0,1,1.86-.68c.55-.21.83-.37.84-.5v-.93Q553.46,349.49,554.06,349.49Zm6.91.84h.17c.19,0,.33.34.42,1v.77h.17l.25-.18c.12,0,.17.08.17.18s-.17.26-.5.59v5.56a.76.76,0,0,1,0,.68v.16a2,2,0,0,1,.42,1c-.09.23-.17.34-.25.34h-.26a13.51,13.51,0,0,0-2.53-2.7v-.09l.09-.17a8,8,0,0,0,1.77.85v-.09c-.06-2-.08-3.57-.08-4.72l-.09-.42a15.4,15.4,0,0,0-2.7,1l-.17.59.59.51.59-.09c.73.06,1.1.17,1.1.34s-.54.33-1.61.5a2.4,2.4,0,0,0-1.09-.42c-.3.5-.5.75-.6.77h-.24a7.27,7.27,0,0,0,.33-1.27V355c-.67-.26-1-.59-1-1v-.09c0-.11.07-.16.17-.16a4.43,4.43,0,0,1,1,.51h.25a9.62,9.62,0,0,0,.34-1.36v-.16l-1.69.67-.17-.25V353c0-.23.71-.57,2.11-1,.2,0,.37.23.51.68a.63.63,0,0,0-.09.33v.17h.17a14.94,14.94,0,0,0,2.29-.76l-.09-.84v-.76C560.75,350.5,560.84,350.33,561,350.33Z" transform="translate(-151.09 -73.91)"/><path class="cls-2" d="M249.51,348.59a2,2,0,0,1,1,1.78v.25c-.11,3-.17,4.64-.17,5v2.19c0,.49,0,1,.08,1.52-.09,1-.21,1.45-.35,1.45h-.31c-.7-.68-1.19-1-1.47-1a19.35,19.35,0,0,1-2.94.93h-.25c-.07,0-.16-.1-.28-.29v-.32a9.66,9.66,0,0,1,2.46-1q0-.15.33-.15v-.16c-.07-.22-.26-.32-.57-.32h-.77c-.06,0-.09,0-.09-.1v-.5c0-.07,0-.1.09-.1h.34c1,.05,1.45.34,1.45.84.73.08,1.1.36,1.1.84h.15a.21.21,0,0,0,.24-.23v-2.65a5.16,5.16,0,0,0-2.17-1.13q-.3,0-.51.69c.63.39.94.74.94,1.07,0,.06-.06.09-.17.09l-1.16-.35a1.11,1.11,0,0,1-.48.61h-.4c-.35,0-.52-.15-.52-.45.29,0,.69-.71,1.2-2.14a10.13,10.13,0,0,0-2-.78v-.11a18.92,18.92,0,0,1,.69-3.06l-.32-.21c-.62,0-.93.15-.93.32,0,.4.06,1.16.17,2.28h-.1a29.76,29.76,0,0,1,.18,3.86v1l.08.5a7.07,7.07,0,0,0-.16,1.28,3.82,3.82,0,0,1,.08.74,1,1,0,0,1-.45.53h-.15s-.17-.12-.35-.37c0-.82,0-2,.08-3.42l.09-.19-.09-.18a57.94,57.94,0,0,0-.5-7.88l.11-.05h.13a1.07,1.07,0,0,1,.54.84A46.62,46.62,0,0,0,249.51,348.59Zm-3.95,4h.28a6.65,6.65,0,0,1,2.08-1.44h.15a1,1,0,0,1,.45.94l-.87,2.61h.17a4.43,4.43,0,0,0,1.77.67.64.64,0,0,1,.09-.3c0-.12,0-.17-.08-.17l.16-2.38c0-.1,0-.15-.07-.15l.07-.35v-1.69c0-.33-.11-.52-.33-.58q-2.88.75-3,.75A3.58,3.58,0,0,0,245.56,352.55Zm0,1v.36l1,.15h.22a5.87,5.87,0,0,0,.76-1.58v-.21C247.13,352.28,246.48,352.71,245.57,353.56Z" transform="translate(-151.09 -73.91)"/><path class="cls-2" d="M262.32,351a2.15,2.15,0,0,1,1.75,1v.3a.14.14,0,0,1-.16.15h-.3a1.47,1.47,0,0,0-1.06-.68h-.16c-.29,0-.62.23-1,.68a.48.48,0,0,1,.08.23c-.38,0-.66,1.32-.83,3.95a3.22,3.22,0,0,0,.68,2.13h.22a7.29,7.29,0,0,0,1.68-2.51h-.38l-.46.08c-.3-.12-.45-.22-.45-.31v-.15q0-.3,3-.69l.16.23v.31c-.06.22-.37.4-.91.53v1.6a.83.83,0,0,1,.23.52l-.54.39a.59.59,0,0,1-.61-.39l.08-.37v-.23h-.08a3.41,3.41,0,0,1-2.05,1.83h-.14c-.31,0-.69-.69-1.15-2.06,0-.05,0-.07.08-.07l-.08-.39c0-3.34.59-5.32,1.75-5.91A1.16,1.16,0,0,1,262.32,351Z" transform="translate(-151.09 -73.91)"/><path class="cls-2" d="M722.63,348.77c.16,0,.31.23.42.59s-.79.77-2.36,1.35c-.92.42-2.07.9-3.47,1.43,0,.06,0,.09-.07.09a32.21,32.21,0,0,1,.16,3.8,26.81,26.81,0,0,1-1.1,5.82c-.33.39-.53.58-.59.58h-.16c-.13,0-.22-.14-.26-.42a45.87,45.87,0,0,0,1.18-6.91c0-1.86-.25-2.79-.76-2.79h-.08a.58.58,0,0,0-.25.09,1.48,1.48,0,0,1-1.26-.68v-.17c0-.18.9-.41,2.69-.67a24,24,0,0,0,5.57-2.11Zm-6-1.27a4.72,4.72,0,0,1,2.69,1.52v.26H719a4.54,4.54,0,0,1-2.53-1.27v-.34C716.49,347.56,716.54,347.5,716.64,347.5Z" transform="translate(-151.09 -73.91)"/><path class="cls-2" d="M736.1,348.52l.16.26v.16c0,.3-1.35.8-4,1.52a7.3,7.3,0,0,0-.25,2.11c.86-.13,1.36-.3,1.52-.51a8.16,8.16,0,0,1-.26-1.34l.17-.09h.17c.2,0,.43.42.67,1.27h.09l.84-.26v-.75c0-.42.09-.65.26-.68h.33c.14,0,.26.37.35,1.1a5.47,5.47,0,0,1,1.26-.34c.11,0,.17.08.17.17v.17a4.47,4.47,0,0,1-1.36,1c.06,1.18.09,2,.09,2.45l-.25.17c-.22-.4-.36-.59-.42-.59l-1.44,1.93a.55.55,0,0,1-.59-.42,2.68,2.68,0,0,0,.25-1c0-1.13-.11-1.69-.33-1.69-1.07.2-1.6.34-1.6.42a.68.68,0,0,0-.09.35c0,.57-.06,1.84-.17,3.79h.08q2.52-1,5.83-2.53h.08c.13,0,.21.14.25.42a19.18,19.18,0,0,0-2,3.38,16.69,16.69,0,0,0,3.45,1.69l.09.16v.26a.71.71,0,0,1-.59.42q-.84,0-3.54-1.86a3.3,3.3,0,0,1-1.77,1.44c-.4-.1-.59-.22-.59-.34v-.34c0-.08.08-.17.25-.25l.17.08a8.67,8.67,0,0,0,1.18-1.18V359c-.5-.62-.8-.93-.93-.93a7.08,7.08,0,0,1-1.44.25,1.47,1.47,0,0,0-.5-.09l-.09.17c0,1.75-.07,3.13-.07,4.14v.17c0,.39-.15.59-.43.59a.55.55,0,0,1-.42-.59v-.59q0-1.23.85-11.39a.08.08,0,0,1-.09-.09,3.77,3.77,0,0,1-1.36.17h-.08a.54.54,0,0,1-.58-.34v-.16c0-.13,1-.39,2.95-.77A21.8,21.8,0,0,1,736.1,348.52Zm-4.22-1.85c1.8.74,2.69,1.21,2.69,1.43s-.23.25-.58.25c-1.64-.3-2.46-.78-2.46-1.43C731.53,346.78,731.65,346.7,731.88,346.67Zm2.53,6.33c.05.69.08,1.06.08,1.09h.08c.57-.47.85-.78.85-.93,0-.33-.1-.5-.17-.5C734.69,352.8,734.41,352.91,734.41,353Zm.16,4.72c0,.08.17.25.51.5h.08a4.34,4.34,0,0,0,1-1.43A6.67,6.67,0,0,0,734.57,357.72Z" transform="translate(-151.09 -73.91)"/><path class="cls-2" d="M746.85,348.93h.25a.57.57,0,0,1,.34.59,8.29,8.29,0,0,0-1.35,2.2,8.32,8.32,0,0,0,.68,2.7c1.12,0,1.68-.23,1.68-.68a14.44,14.44,0,0,0,.09-1.6v-1.35a.56.56,0,0,1,.34-.59H749c.08,0,.19.15.34.42v3.12H750a11.14,11.14,0,0,0,1.6-.42c.11,0,.17.07.17.17v.17a2.05,2.05,0,0,1-1.35,1V355c.17,2.36.26,4,.26,4.81h.25a13.87,13.87,0,0,0,3.2-2.7,7.42,7.42,0,0,0,1-1.95,4.65,4.65,0,0,1-1.44-.75.08.08,0,0,0,.09-.09c1.69.15,2.53.35,2.53.6v.17a11.58,11.58,0,0,1-2.27,3.54q-2.89,2.36-3.64,2.36-.42-.13-.42-.42c.11-1.05.17-1.73.17-2a24.15,24.15,0,0,0-.51-3.62h-.08c-.15,0-.35,1-.59,3.12a5.1,5.1,0,0,1-.67,1.43.7.7,0,0,1-.43-.59l.43-3.54c-.12,0-.17-.06-.17-.18-1,.1-1.52.24-1.52.43s0,.17-.09.17a.58.58,0,0,1,.09.25c0,.12,0,.17-.09.17l.09.59v2.87c0,.79-.12,1.18-.34,1.18h-.34c-.17-.05-.25-.22-.25-.5v-2.28a28.76,28.76,0,0,0-.26-5.41h-.08a5.9,5.9,0,0,0-.76.77h-.25c-.08,0-.17-.09-.25-.26v-.25A26.6,26.6,0,0,1,746.85,348.93Zm4.13.43h.34c1.29,1.16,1.94,2,1.94,2.53a.08.08,0,0,1,.09.09v.07a.15.15,0,0,1-.17.17c-1.57-1.53-2.36-2.45-2.36-2.78Z" transform="translate(-151.09 -73.91)"/><path class="cls-2" d="M764.44,348.72h.18c.24,0,.41.48.5,1.44h.42c.34,0,.51.12.51.25v.26c-.07.17-.47.45-1.19.84l-.5,1.27.17.07a12.3,12.3,0,0,0,2.78-.75l.08.17q0,.8-1.68,1.26v.09a9.14,9.14,0,0,1,.59,3.54v2.95h.34q1.32,0,4.47-3.2l-1.26-3.21.16-.08a19.15,19.15,0,0,1,2.28,3.45v.09a20.83,20.83,0,0,1-3.54,3.12,5.57,5.57,0,0,1-2.54.93c-.29,0-.58-.28-.84-.84l.26-2.95c-.17-2-.4-3-.68-3q-.94,0-2,4.72l-.26.17h-.08a.57.57,0,0,1-.59-.33v-.26l1-4.05v-.17h-.08c-1.71.17-2.69.26-3,.26l-.25-.34c0-.51.7-.76,2.11-.76,1.07-.13,1.6-.47,1.6-1l.09-.6c-1.3-.36-2-.67-2-.92.16-1.52.39-2.28.67-2.28h.09a.85.85,0,0,1,.5.76,3,3,0,0,0-.16.75v.43a.57.57,0,0,1,.25.08c.78,0,1.18-.45,1.18-1.35C764.22,349,764.36,348.72,764.44,348.72Z" transform="translate(-151.09 -73.91)"/><path class="cls-2" d="M778.44,349.19c.56,0,.85.48.85,1.43v.09c0,.47,0,1.18-.09,2.11.06,0,.09,0,.09.08.84-.19,1.26-.36,1.26-.5v-.93q.09-2.19.51-2.19h.25c.2,0,.34.36.42,1.09-.05.89-.08,1.43-.08,1.61h.08a3.15,3.15,0,0,0,1.26-.59h.18c.16,0,.25.25.25.66a2.79,2.79,0,0,1-1.69,1.36v1.94h.09a6,6,0,0,1,1.09-.17c.09,0,.17.09.26.25q0,.63-1.44,1.35v1.52h.09l1.52-.25a19.52,19.52,0,0,1,3.45,1.77v.43c0,.11-.06.16-.17.16h-.33a7.5,7.5,0,0,1-2.79-1.35h-.16a21.77,21.77,0,0,0-2.37,1,25,25,0,0,0-2.62.68.07.07,0,0,1-.08-.08l-.42.08h-.16c-.57,0-.85-.25-.85-.76a7.93,7.93,0,0,1,2.78-.76c.56-.24.84-.41.84-.5v-1.44q0-.19-1.17-.42l-.09-.17v-.51c.06-.17.23-.25.51-.25h.67c.1,0,.18-.14.26-.42a4.14,4.14,0,0,1-.09-.76v-.09c0-.05,0-.08.09-.08-.06-.45-.15-.67-.26-.67-1.12,0-1.68.33-1.68,1-.19.56-.47.84-.85.84s-.42-.12-.42-.25a26.42,26.42,0,0,0,.76-6.16A1.1,1.1,0,0,0,778.44,349.19Z" transform="translate(-151.09 -73.91)"/><path class="cls-2" d="M794.43,349.79a6.35,6.35,0,0,0,1.93.67l1.78-.25.16.25v.08c0,.09-.3.32-.92.68a32.44,32.44,0,0,1,4,4h.09c1.11-1.29,1.84-1.94,2.2-1.94l.08.17v.25a7.93,7.93,0,0,0-1.69,2.37c1.3,1.95,1.94,3.49,1.94,4.64v.16c0,.09-.11.2-.33.35h-.18c-.18,0-.52-.85-1-2.54a5.31,5.31,0,0,0-1.1-1.77h-.16c-1.29,2.25-2.1,3.37-2.45,3.37l-.08-.16v-.09c0-.63.7-1.93,2.11-3.88v-.08a19.69,19.69,0,0,0-4.56-4.56c-1.18.17-1.77.42-1.77.76-.22,1.66-.34,2.68-.34,3h.08a26.49,26.49,0,0,0,4.14-1.69.44.44,0,0,1,.42.5q-1.09,2.91-2.1,6.16l-.35.26H796a10.92,10.92,0,0,1-1.78-3.12l.18-.09,1.6,2h.09c0-.14.56-1.72,1.68-4.72h-.09a13,13,0,0,1-3.7,1.52l-.6,6.75-.25.17h-.09c-.08,0-.19-.11-.33-.34v-.34a66.47,66.47,0,0,1,1-10.21.76.76,0,0,0-.25-.08,5.18,5.18,0,0,0-.85.08c-.95-.09-1.43-.26-1.43-.5v-.17l.17-.25.42.08c1.4,0,2.11-.14,2.11-.43Q794,349.79,794.43,349.79Zm.24.93v.33c.09,0,.17-.08.26-.25v-.26h-.08Q794.67,350.57,794.67,350.72Zm5.07-3.89h.51a5.29,5.29,0,0,1,2.19,2.62v.08l-.17.09c-.27,0-1-.68-2.28-2q-.11,0-.42-.42V347C799.59,346.89,799.64,346.83,799.74,346.83Z" transform="translate(-151.09 -73.91)"/><path class="cls-2" d="M811.06,349.49A5,5,0,0,1,812,351c0,.09-.23.34-.68.75v1.36a1.32,1.32,0,0,0,.18.67V354a2.68,2.68,0,0,1,1.6.93.15.15,0,0,1-.17.17h-.51c-.07,0-.38-.06-.92-.17v1.18c0,.57,0,1.27.08,2.11,0,.45-.14.68-.26.68h-.08c-.24,0-.44-1.18-.59-3.55q-1.18,1.53-1.68,1.53l-.09-.17a10.73,10.73,0,0,1,1.69-2.88v-1.09l-.09-.59a10.77,10.77,0,0,1-2.28.67q-.37-.17-.42-.33v-.09a6.65,6.65,0,0,1,1.86-.68c.55-.21.83-.37.84-.5v-.93Q810.46,349.49,811.06,349.49Zm6.91.84h.17c.19,0,.33.34.42,1v.77h.17l.25-.18c.12,0,.17.08.17.18s-.17.26-.5.59v5.56a.76.76,0,0,1,0,.68v.16a2,2,0,0,1,.42,1c-.09.23-.17.34-.25.34h-.26a13.51,13.51,0,0,0-2.53-2.7v-.09l.09-.17a8,8,0,0,0,1.77.85v-.09c-.06-2-.08-3.57-.08-4.72l-.09-.42a15.82,15.82,0,0,0-2.7,1l-.17.59.59.51.59-.09c.73.06,1.1.17,1.1.34s-.54.33-1.61.5a2.4,2.4,0,0,0-1.09-.42c-.3.5-.5.75-.6.77h-.24a7.27,7.27,0,0,0,.33-1.27V355c-.67-.26-1-.59-1-1v-.09c0-.11.07-.16.17-.16a4.43,4.43,0,0,1,1,.51h.25a9.62,9.62,0,0,0,.34-1.36v-.16l-1.69.67-.17-.25V353c0-.23.71-.57,2.11-1,.2,0,.37.23.51.68a.62.62,0,0,0-.08.33v.17h.16a14.94,14.94,0,0,0,2.29-.76l-.09-.84v-.76C817.75,350.5,817.84,350.33,818,350.33Z" transform="translate(-151.09 -73.91)"/></svg>