<svg id="图层_1" data-name="图层 1" xmlns="http://www.w3.org/2000/svg" viewBox="0 0 562.67 227.01"><defs><style>.cls-1{fill:none;stroke:#3ea69f;stroke-miterlimit:10;}.cls-2{fill:#3ea69f;}</style></defs><circle class="cls-1" cx="68.5" cy="56.21" r="18"/><path class="cls-2" d="M305.78,98.92c0-4.49,1.83-6.91,4.81-6.91s4.81,2.42,4.81,6.91-1.83,7-4.81,7S305.78,103.37,305.78,98.92Zm8,0c0-3.84-1.32-5.5-3.19-5.5s-3.19,1.66-3.19,5.5,1.32,5.58,3.19,5.58S313.78,102.76,313.78,98.92Zm-4.49-.15a1.3,1.3,0,1,1,2.6,0,1.3,1.3,0,1,1-2.6,0Z" transform="translate(-242.09 -43.45)"/><circle class="cls-1" cx="68.5" cy="156.21" r="18"/><path class="cls-2" d="M305.49,204l.88-1.13a5.41,5.41,0,0,0,3.84,1.57c1.83,0,3.19-.94,3.19-2.43s-1.34-2.67-4.85-2.67V198c3.17,0,4.39-1.1,4.39-2.5s-1.11-2.1-2.73-2.1a5.07,5.07,0,0,0-3.29,1.34l-.93-1.09a6.46,6.46,0,0,1,4.28-1.68c2.52,0,4.43,1.24,4.43,3.4,0,1.62-1.19,2.65-2.85,3.19v.09c1.78.38,3.32,1.55,3.32,3.4,0,2.37-2.19,3.82-4.85,3.82A6.54,6.54,0,0,1,305.49,204Z" transform="translate(-242.09 -43.45)"/><circle class="cls-1" cx="118.5" cy="106.21" r="18"/><path class="cls-2" d="M355.82,154.63c4.54-4,7-6.36,7-8.59,0-1.53-.93-2.6-2.9-2.6a4.61,4.61,0,0,0-3.21,1.59l-1-1a6,6,0,0,1,4.43-2c2.69,0,4.37,1.58,4.37,4s-2.52,5-6.16,8.31c.84-.06,1.7-.1,2.5-.1h4.39v1.49h-9.43Z" transform="translate(-242.09 -43.45)"/><circle class="cls-1" cx="18.5" cy="106.21" r="18"/><path class="cls-2" d="M256.33,154.21h3.86v-9.83h-3v-1.13a9.71,9.71,0,0,0,3.44-1h1.3v12h3.49v1.45h-9.09Z" transform="translate(-242.09 -43.45)"/><line class="cls-1" x1="36" y1="106.71" x2="100" y2="106.71"/><line class="cls-1" x1="68.5" y1="74.21" x2="68.5" y2="138.21"/><line class="cls-1" x1="55.16" y1="68.29" x2="30.58" y2="92.87"/><line class="cls-1" x1="30.58" y1="119.55" x2="55.16" y2="144.13"/><line class="cls-1" x1="81.84" y1="144.13" x2="106.42" y2="119.55"/><line class="cls-1" x1="106.42" y1="92.87" x2="81.84" y2="68.29"/><path class="cls-2" d="M303.28,244.86c0-3.82,2.18-6.12,5.24-6.12a4.37,4.37,0,0,1,3.26,1.44l-.87.95a3.08,3.08,0,0,0-2.39-1.06c-2.22,0-3.66,1.82-3.66,4.76s1.32,4.82,3.62,4.82a3,3,0,0,0,2-.68v-3.08h-2.34v-1.25h3.74v5a5,5,0,0,1-3.53,1.37C305.42,251,303.28,248.71,303.28,244.86Z" transform="translate(-242.09 -43.45)"/><path class="cls-2" d="M316.27,253h5.42v1h-5.42Zm2.22-4.53H316.6v-.76a4.13,4.13,0,0,0,2.11-.74h1v7h-1.17Z" transform="translate(-242.09 -43.45)"/><circle class="cls-1" cx="383.99" cy="18.5" r="18"/><path class="cls-2" d="M621.27,61.21c0-4.49,1.83-6.91,4.81-6.91s4.81,2.42,4.81,6.91-1.83,7-4.81,7S621.27,65.66,621.27,61.21Zm8,0c0-3.84-1.32-5.5-3.19-5.5s-3.19,1.66-3.19,5.5,1.32,5.58,3.19,5.58S629.27,65.05,629.27,61.21Zm-4.49-.15a1.3,1.3,0,1,1,2.6,0,1.3,1.3,0,1,1-2.6,0Z" transform="translate(-242.09 -43.45)"/><circle class="cls-1" cx="383.99" cy="95.5" r="18"/><path class="cls-2" d="M621.82,143.5h3.86v-9.83h-3v-1.13a9.71,9.71,0,0,0,3.44-1h1.3V143.5h3.49V145h-9.09Z" transform="translate(-242.09 -43.45)"/><circle class="cls-1" cx="383.99" cy="160.5" r="18"/><path class="cls-2" d="M621.31,208.92c4.54-4,7-6.36,7-8.59,0-1.53-.93-2.6-2.9-2.6a4.61,4.61,0,0,0-3.21,1.59l-1-1a6,6,0,0,1,4.43-2c2.69,0,4.36,1.58,4.36,3.95,0,2.52-2.51,5-6.15,8.31.84-.06,1.7-.1,2.5-.1h4.39V210h-9.43Z" transform="translate(-242.09 -43.45)"/><path class="cls-2" d="M618.77,261.15c0-3.82,2.18-6.12,5.24-6.12a4.37,4.37,0,0,1,3.26,1.44l-.87.95a3.08,3.08,0,0,0-2.39-1.06c-2.22,0-3.66,1.82-3.66,4.76s1.32,4.82,3.62,4.82a3,3,0,0,0,2-.68v-3.08h-2.34v-1.25h3.74v5a5,5,0,0,1-3.53,1.37C620.91,267.27,618.77,265,618.77,261.15Z" transform="translate(-242.09 -43.45)"/><path class="cls-2" d="M631.17,269.09l.76-.59a2.35,2.35,0,0,0,2,1c.86,0,1.58-.45,1.58-1.24s-.75-1.24-2.35-1.24v-.74c1.42,0,2.08-.56,2.08-1.28s-.57-1.1-1.44-1.1a2.2,2.2,0,0,0-1.62.85l-.68-.61a3.06,3.06,0,0,1,2.46-1.17c1.32,0,2.44.72,2.44,1.89,0,.84-.47,1.36-1.41,1.72a1.81,1.81,0,0,1,1.68,1.73c0,1.3-1.21,2.11-2.67,2.11A3.32,3.32,0,0,1,631.17,269.09Z" transform="translate(-242.09 -43.45)"/><line class="cls-1" x1="384.49" y1="113" x2="384.49" y2="132.96"/><path class="cls-2" d="M626.58,182.45a30.1,30.1,0,0,0-4.76-8.55l4.76,1.72,4.75-1.72A30.31,30.31,0,0,0,626.58,182.45Z" transform="translate(-242.09 -43.45)"/><path class="cls-1" d="M612.17,73.38c-17.78,14-14.89,33.21-8.15,43.1" transform="translate(-242.09 -43.45)"/><path class="cls-2" d="M608.08,121a30.06,30.06,0,0,0-9.22-3.28l4.71-1.85,2.44-4.43A30.27,30.27,0,0,0,608.08,121Z" transform="translate(-242.09 -43.45)"/><path class="cls-1" d="M640.79,129c17.78-14,14.89-33.21,8.16-43.11" transform="translate(-242.09 -43.45)"/><path class="cls-2" d="M644.89,81.38a30.53,30.53,0,0,0,9.21,3.28l-4.71,1.84L647,90.93A30.21,30.21,0,0,0,644.89,81.38Z" transform="translate(-242.09 -43.45)"/><path class="cls-2" d="M457.27,126.21c0-4.49,1.83-6.91,4.81-6.91s4.81,2.42,4.81,6.91-1.83,7-4.81,7S457.27,130.66,457.27,126.21Zm8,0c0-3.84-1.32-5.5-3.19-5.5s-3.19,1.66-3.19,5.5,1.32,5.58,3.19,5.58S465.27,130.05,465.27,126.21Zm-4.49-.15a1.3,1.3,0,1,1,2.6,0,1.3,1.3,0,1,1-2.6,0Z" transform="translate(-242.09 -43.45)"/><path class="cls-2" d="M477.82,131.5h3.86v-9.83h-3v-1.13a9.71,9.71,0,0,0,3.44-1h1.3v12h3.49V133h-9.09Z" transform="translate(-242.09 -43.45)"/><path class="cls-2" d="M497.82,131.5h3.86v-9.83h-3v-1.13a9.71,9.71,0,0,0,3.44-1h1.3v12h3.49V133h-9.09Z" transform="translate(-242.09 -43.45)"/><path class="cls-2" d="M517.82,131.5h3.86v-9.83h-3v-1.13a9.71,9.71,0,0,0,3.44-1h1.3v12h3.49V133h-9.09Z" transform="translate(-242.09 -43.45)"/><path class="cls-2" d="M457.27,99.21c0-4.49,1.83-6.91,4.81-6.91s4.81,2.42,4.81,6.91-1.83,7-4.81,7S457.27,103.66,457.27,99.21Zm8,0c0-3.84-1.32-5.5-3.19-5.5s-3.19,1.66-3.19,5.5,1.32,5.58,3.19,5.58S465.27,103.05,465.27,99.21Zm-4.49-.15a1.3,1.3,0,1,1,2.6,0,1.3,1.3,0,1,1-2.6,0Z" transform="translate(-242.09 -43.45)"/><path class="cls-2" d="M477.82,104.5h3.86V94.67h-3V93.54a9.71,9.71,0,0,0,3.44-1h1.3v12h3.49V106h-9.09Z" transform="translate(-242.09 -43.45)"/><path class="cls-2" d="M497.31,104.92c4.54-4,7-6.36,7-8.59,0-1.53-.93-2.6-2.9-2.6a4.61,4.61,0,0,0-3.21,1.59l-1-1a6,6,0,0,1,4.43-2c2.69,0,4.36,1.58,4.36,4s-2.51,5-6.15,8.31c.84-.06,1.7-.1,2.5-.1h4.39V106h-9.43Z" transform="translate(-242.09 -43.45)"/><path class="cls-2" d="M517,104.31l.88-1.13a5.41,5.41,0,0,0,3.84,1.57c1.83,0,3.19-.94,3.19-2.43s-1.34-2.67-4.85-2.67V98.33c3.17,0,4.39-1.1,4.39-2.5s-1.11-2.1-2.73-2.1a5.12,5.12,0,0,0-3.3,1.34L517.48,94a6.46,6.46,0,0,1,4.28-1.68c2.52,0,4.43,1.24,4.43,3.4,0,1.62-1.19,2.65-2.85,3.19V99c1.78.38,3.32,1.55,3.32,3.4,0,2.37-2.19,3.82-4.85,3.82A6.54,6.54,0,0,1,517,104.31Z" transform="translate(-242.09 -43.45)"/><path class="cls-2" d="M457.82,151.5h3.86v-9.83h-3v-1.13a9.71,9.71,0,0,0,3.44-1h1.3V151.5h3.49V153h-9.09Z" transform="translate(-242.09 -43.45)"/><path class="cls-2" d="M477.27,146.21c0-4.49,1.83-6.91,4.81-6.91s4.81,2.42,4.81,6.91-1.83,7-4.81,7S477.27,150.66,477.27,146.21Zm8,0c0-3.84-1.32-5.5-3.19-5.5s-3.19,1.66-3.19,5.5,1.32,5.58,3.19,5.58S485.27,150.05,485.27,146.21Zm-4.49-.15a1.3,1.3,0,1,1,2.6,0,1.3,1.3,0,1,1-2.6,0Z" transform="translate(-242.09 -43.45)"/><path class="cls-2" d="M497.82,151.5h3.86v-9.83h-3v-1.13a9.71,9.71,0,0,0,3.44-1h1.3V151.5h3.49V153h-9.09Z" transform="translate(-242.09 -43.45)"/><path class="cls-2" d="M517.82,151.5h3.86v-9.83h-3v-1.13a9.71,9.71,0,0,0,3.44-1h1.3V151.5h3.49V153h-9.09Z" transform="translate(-242.09 -43.45)"/><path class="cls-2" d="M457.82,171.5h3.86v-9.83h-3v-1.13a9.71,9.71,0,0,0,3.44-1h1.3V171.5h3.49V173h-9.09Z" transform="translate(-242.09 -43.45)"/><path class="cls-2" d="M477.82,171.5h3.86v-9.83h-3v-1.13a9.71,9.71,0,0,0,3.44-1h1.3V171.5h3.49V173h-9.09Z" transform="translate(-242.09 -43.45)"/><path class="cls-2" d="M497.27,166.21c0-4.49,1.83-6.91,4.81-6.91s4.81,2.42,4.81,6.91-1.83,7-4.81,7S497.27,170.66,497.27,166.21Zm8,0c0-3.84-1.32-5.5-3.19-5.5s-3.19,1.66-3.19,5.5,1.32,5.58,3.19,5.58S505.27,170.05,505.27,166.21Zm-4.49-.15a1.3,1.3,0,1,1,2.6,0,1.3,1.3,0,1,1-2.6,0Z" transform="translate(-242.09 -43.45)"/><path class="cls-2" d="M517.82,171.5h3.86v-9.83h-3v-1.13a9.71,9.71,0,0,0,3.44-1h1.3V171.5h3.49V173h-9.09Z" transform="translate(-242.09 -43.45)"/><path class="cls-2" d="M457.82,191.5h3.86v-9.83h-3v-1.13a9.71,9.71,0,0,0,3.44-1h1.3V191.5h3.49V193h-9.09Z" transform="translate(-242.09 -43.45)"/><path class="cls-2" d="M477.82,191.5h3.86v-9.83h-3v-1.13a9.71,9.71,0,0,0,3.44-1h1.3V191.5h3.49V193h-9.09Z" transform="translate(-242.09 -43.45)"/><path class="cls-2" d="M497.82,191.5h3.86v-9.83h-3v-1.13a9.71,9.71,0,0,0,3.44-1h1.3V191.5h3.49V193h-9.09Z" transform="translate(-242.09 -43.45)"/><path class="cls-2" d="M517.27,186.21c0-4.49,1.83-6.91,4.81-6.91s4.81,2.42,4.81,6.91-1.83,7-4.81,7S517.27,190.66,517.27,186.21Zm8,0c0-3.84-1.32-5.5-3.19-5.5s-3.19,1.66-3.19,5.5,1.32,5.58,3.19,5.58S525.27,190.05,525.27,186.21Zm-4.49-.15a1.3,1.3,0,1,1,2.6,0,1.3,1.3,0,1,1-2.6,0Z" transform="translate(-242.09 -43.45)"/><path class="cls-2" d="M435.73,113.93h15.21v2.2h-12.8v81.6h12.8v2.2H435.73Z" transform="translate(-242.09 -43.45)"/><path class="cls-2" d="M532.53,197.73h12.81v-81.6H532.53v-2.2h15.21v86H532.53Z" transform="translate(-242.09 -43.45)"/><path class="cls-2" d="M415.27,126.21c0-4.49,1.83-6.91,4.81-6.91s4.81,2.42,4.81,6.91-1.83,7-4.81,7S415.27,130.66,415.27,126.21Zm8,0c0-3.84-1.32-5.5-3.19-5.5s-3.19,1.66-3.19,5.5,1.32,5.58,3.19,5.58S423.27,130.05,423.27,126.21Zm-4.49-.15a1.3,1.3,0,1,1,2.6,0,1.3,1.3,0,1,1-2.6,0Z" transform="translate(-242.09 -43.45)"/><path class="cls-2" d="M415.82,151.5h3.86v-9.83h-3v-1.13a9.71,9.71,0,0,0,3.44-1h1.3V151.5h3.49V153h-9.09Z" transform="translate(-242.09 -43.45)"/><path class="cls-2" d="M415.31,171.92c4.54-4,7-6.36,7-8.59,0-1.53-.93-2.6-2.9-2.6a4.61,4.61,0,0,0-3.21,1.59l-1-1a6,6,0,0,1,4.43-2c2.69,0,4.36,1.58,4.36,3.95,0,2.52-2.51,5-6.15,8.31.84-.06,1.7-.1,2.5-.1h4.39V173h-9.43Z" transform="translate(-242.09 -43.45)"/><path class="cls-2" d="M415,191.31l.88-1.13a5.41,5.41,0,0,0,3.84,1.57c1.83,0,3.19-.94,3.19-2.43s-1.34-2.67-4.85-2.67v-1.32c3.17,0,4.39-1.1,4.39-2.5s-1.11-2.1-2.73-2.1a5.12,5.12,0,0,0-3.3,1.34l-.92-1.09a6.46,6.46,0,0,1,4.28-1.68c2.52,0,4.43,1.24,4.43,3.4,0,1.62-1.19,2.65-2.85,3.19V186c1.78.38,3.32,1.55,3.32,3.4,0,2.37-2.19,3.82-4.85,3.82A6.54,6.54,0,0,1,415,191.31Z" transform="translate(-242.09 -43.45)"/><path class="cls-2" d="M734.27,135.21c0-4.49,1.83-6.91,4.81-6.91s4.81,2.42,4.81,6.91-1.83,7-4.81,7S734.27,139.66,734.27,135.21Zm8,0c0-3.84-1.32-5.5-3.19-5.5s-3.19,1.66-3.19,5.5,1.32,5.58,3.19,5.58S742.27,139.05,742.27,135.21Zm-4.49-.15a1.3,1.3,0,1,1,2.6,0,1.3,1.3,0,1,1-2.6,0Z" transform="translate(-242.09 -43.45)"/><path class="cls-2" d="M754.82,140.5h3.86v-9.83h-3v-1.13a9.71,9.71,0,0,0,3.44-1h1.3V140.5h3.49V142h-9.09Z" transform="translate(-242.09 -43.45)"/><path class="cls-2" d="M774.27,135.21c0-4.49,1.83-6.91,4.81-6.91s4.81,2.42,4.81,6.91-1.83,7-4.81,7S774.27,139.66,774.27,135.21Zm8,0c0-3.84-1.32-5.5-3.19-5.5s-3.19,1.66-3.19,5.5,1.32,5.58,3.19,5.58S782.27,139.05,782.27,135.21Zm-4.49-.15a1.3,1.3,0,1,1,2.6,0,1.3,1.3,0,1,1-2.6,0Z" transform="translate(-242.09 -43.45)"/><path class="cls-2" d="M734.27,108.21c0-4.49,1.83-6.91,4.81-6.91s4.81,2.42,4.81,6.91-1.83,7-4.81,7S734.27,112.66,734.27,108.21Zm8,0c0-3.84-1.32-5.5-3.19-5.5s-3.19,1.66-3.19,5.5,1.32,5.58,3.19,5.58S742.27,112.05,742.27,108.21Zm-4.49-.15a1.3,1.3,0,1,1,2.6,0,1.3,1.3,0,1,1-2.6,0Z" transform="translate(-242.09 -43.45)"/><path class="cls-2" d="M754.82,113.5h3.86v-9.83h-3v-1.13a9.71,9.71,0,0,0,3.44-1h1.3v12h3.49V115h-9.09Z" transform="translate(-242.09 -43.45)"/><path class="cls-2" d="M774.31,113.92c4.54-4,7-6.36,7-8.59,0-1.53-.93-2.6-2.9-2.6a4.61,4.61,0,0,0-3.21,1.59l-1-1a6,6,0,0,1,4.43-2c2.69,0,4.36,1.58,4.36,4s-2.51,5-6.15,8.31c.84-.06,1.7-.1,2.5-.1h4.39V115h-9.43Z" transform="translate(-242.09 -43.45)"/><path class="cls-2" d="M734.82,160.5h3.86v-9.83h-3v-1.13a9.71,9.71,0,0,0,3.44-1h1.3V160.5h3.49V162h-9.09Z" transform="translate(-242.09 -43.45)"/><path class="cls-2" d="M754.27,155.21c0-4.49,1.83-6.91,4.81-6.91s4.81,2.42,4.81,6.91-1.83,7-4.81,7S754.27,159.66,754.27,155.21Zm8,0c0-3.84-1.32-5.5-3.19-5.5s-3.19,1.66-3.19,5.5,1.32,5.58,3.19,5.58S762.27,159.05,762.27,155.21Zm-4.49-.15a1.3,1.3,0,1,1,2.6,0,1.3,1.3,0,1,1-2.6,0Z" transform="translate(-242.09 -43.45)"/><path class="cls-2" d="M774.82,160.5h3.86v-9.83h-3v-1.13a9.71,9.71,0,0,0,3.44-1h1.3V160.5h3.49V162h-9.09Z" transform="translate(-242.09 -43.45)"/><path class="cls-2" d="M734.82,180.5h3.86v-9.83h-3v-1.13a9.71,9.71,0,0,0,3.44-1h1.3V180.5h3.49V182h-9.09Z" transform="translate(-242.09 -43.45)"/><path class="cls-2" d="M754.27,175.21c0-4.49,1.83-6.91,4.81-6.91s4.81,2.42,4.81,6.91-1.83,7-4.81,7S754.27,179.66,754.27,175.21Zm8,0c0-3.84-1.32-5.5-3.19-5.5s-3.19,1.66-3.19,5.5,1.32,5.58,3.19,5.58S762.27,179.05,762.27,175.21Zm-4.49-.15a1.3,1.3,0,1,1,2.6,0,1.3,1.3,0,1,1-2.6,0Z" transform="translate(-242.09 -43.45)"/><path class="cls-2" d="M774.27,175.21c0-4.49,1.83-6.91,4.81-6.91s4.81,2.42,4.81,6.91-1.83,7-4.81,7S774.27,179.66,774.27,175.21Zm8,0c0-3.84-1.32-5.5-3.19-5.5s-3.19,1.66-3.19,5.5,1.32,5.58,3.19,5.58S782.27,179.05,782.27,175.21Zm-4.49-.15a1.3,1.3,0,1,1,2.6,0,1.3,1.3,0,1,1-2.6,0Z" transform="translate(-242.09 -43.45)"/><path class="cls-2" d="M713.71,124.75h10.95v1.59h-9.22v58.75h9.22v1.59H713.71Z" transform="translate(-242.09 -43.45)"/><path class="cls-2" d="M793.81,185.09H803V126.34h-9.22v-1.59h11v61.93h-11Z" transform="translate(-242.09 -43.45)"/><path class="cls-2" d="M692.27,135.21c0-4.49,1.83-6.91,4.81-6.91s4.81,2.42,4.81,6.91-1.83,7-4.81,7S692.27,139.66,692.27,135.21Zm8,0c0-3.84-1.32-5.5-3.19-5.5s-3.19,1.66-3.19,5.5,1.32,5.58,3.19,5.58S700.27,139.05,700.27,135.21Zm-4.49-.15a1.3,1.3,0,1,1,2.6,0,1.3,1.3,0,1,1-2.6,0Z" transform="translate(-242.09 -43.45)"/><path class="cls-2" d="M692.82,160.5h3.86v-9.83h-3v-1.13a9.71,9.71,0,0,0,3.44-1h1.3V160.5h3.49V162h-9.09Z" transform="translate(-242.09 -43.45)"/><path class="cls-2" d="M692.31,180.92c4.54-4,7-6.36,7-8.59,0-1.53-.93-2.6-2.9-2.6a4.61,4.61,0,0,0-3.21,1.59l-1-1a6,6,0,0,1,4.43-2c2.69,0,4.36,1.58,4.36,3.95,0,2.52-2.51,5-6.15,8.31.84-.06,1.7-.1,2.5-.1h4.39V182h-9.43Z" transform="translate(-242.09 -43.45)"/></svg>