<svg id="图层_1" data-name="图层 1" xmlns="http://www.w3.org/2000/svg" viewBox="0 0 448.71 43.31"><defs><style>.cls-1{fill:none;}.cls-1,.cls-2{stroke:#3ea69f;stroke-miterlimit:10;}.cls-2{fill:#fff;}.cls-3{fill:#3ea69f;}</style></defs><rect class="cls-1" x="0.5" y="0.5" width="447.71" height="42"/><line class="cls-2" x1="135.5" y1="1" x2="135.5" y2="43"/><line class="cls-2" x1="301.21" y1="1.31" x2="301.21" y2="43.31"/><line class="cls-2" x1="212.21" y1="1.31" x2="212.21" y2="43.31"/><path class="cls-3" d="M435.46,204v-8.68h-3.1v-1.21H437v10a1.58,1.58,0,0,0,1.72,1.81,3.93,3.93,0,0,0,1.64-.4l.38,1.12a5.35,5.35,0,0,1-2.34.52C436.49,207.17,435.46,206.09,435.46,204Z" transform="translate(-418.29 -178.69)"/><path class="cls-3" d="M443.06,202.56a4.4,4.4,0,0,1,4.46-4.58,3.77,3.77,0,0,1,4,4.11,7,7,0,0,1-.07.9h-7.4v-1.15h6.51l-.37.41c0-2.07-1-3.09-2.63-3.09a3.08,3.08,0,0,0-3,3.4A3.18,3.18,0,0,0,448,206a4.72,4.72,0,0,0,2.67-.83l.54,1a6,6,0,0,1-3.39,1A4.43,4.43,0,0,1,443.06,202.56Z" transform="translate(-418.29 -178.69)"/><path class="cls-3" d="M454.49,198.29l2.53-.09h5.1v1.21h-7.63Zm2.5-.83a3.2,3.2,0,0,1,3.53-3.54,6.55,6.55,0,0,1,2.52.5l-.34,1.12a4.7,4.7,0,0,0-2-.42c-1.56,0-2.19.88-2.19,2.29V207H457Z" transform="translate(-418.29 -178.69)"/><path class="cls-3" d="M467.14,203.55v-4.14h-2.48v-1.12l2.53-.09.2-2.81h1.25v2.81h4.28v1.21h-4.28v4.16c0,1.56.52,2.37,2.21,2.37a5.85,5.85,0,0,0,2.09-.39l.32,1.1a7.8,7.8,0,0,1-2.73.52C468,207.17,467.14,205.71,467.14,203.55Z" transform="translate(-418.29 -178.69)"/><path class="cls-3" d="M475.31,208.19H484v1.28h-8.64Z" transform="translate(-418.29 -178.69)"/><path class="cls-3" d="M486.47,202.59c0-2.93,2.23-4.61,4.88-4.61a4.47,4.47,0,0,1,3.19,1.28l-.74,1a3.62,3.62,0,0,0-2.39-1,3.35,3.35,0,1,0,0,6.7,4.17,4.17,0,0,0,2.7-1.1l.67,1a5.25,5.25,0,0,1-3.48,1.37C488.52,207.17,486.47,205.49,486.47,202.59Z" transform="translate(-418.29 -178.69)"/><path class="cls-3" d="M497.51,194.13H499v3.49l-.09,2.08h0a4.39,4.39,0,0,1,3.26-1.72c2.07,0,3,1.23,3,3.53V207h-1.5v-5.24c0-1.65-.57-2.43-2-2.43-1,0-1.74.52-2.75,1.57V207h-1.49Z" transform="translate(-418.29 -178.69)"/><path class="cls-3" d="M512.3,199.41h-4V198.2h5.55V207h-1.5Zm-.59-4.2a1.19,1.19,0,0,1,2.37,0,1.19,1.19,0,0,1-2.37,0Z" transform="translate(-418.29 -178.69)"/><path class="cls-3" d="M521.86,204v-8.68h-3.1v-1.21h4.59v10a1.59,1.59,0,0,0,1.73,1.81,3.93,3.93,0,0,0,1.64-.4l.38,1.12a5.35,5.35,0,0,1-2.34.52C522.89,207.17,521.86,206.09,521.86,204Z" transform="translate(-418.29 -178.69)"/><path class="cls-3" d="M529.31,202.59c0-2.84,1.89-4.61,4-4.61a3.75,3.75,0,0,1,2.63,1.12h0l-.07-1.6v-3.37h1.49V207h-1.22L536,205.8h0a4.23,4.23,0,0,1-2.87,1.37C530.82,207.17,529.31,205.51,529.31,202.59Zm6.56,2v-4.36a3.3,3.3,0,0,0-2.29-1c-1.51,0-2.74,1.33-2.74,3.33s1,3.33,2.58,3.33A3.31,3.31,0,0,0,535.87,204.61Z" transform="translate(-418.29 -178.69)"/><path class="cls-3" d="M738.64,198.2h1.24l.15,2.07h0A4.6,4.6,0,0,1,744,198a3.69,3.69,0,0,1,1.73.37l-.34,1.27a4.56,4.56,0,0,0-1.62-.28c-1.32,0-2.56.66-3.6,2.5V207h-1.5Z" transform="translate(-418.29 -178.69)"/><path class="cls-3" d="M752.5,199.41h-4V198.2H754V207h-1.5Zm-.59-4.2a1.19,1.19,0,1,1,1.19,1.15A1.12,1.12,0,0,1,751.91,195.21Z" transform="translate(-418.29 -178.69)"/><path class="cls-3" d="M758.93,208.55a2.41,2.41,0,0,1,1.44-1.94v-.07a1.58,1.58,0,0,1-.9-1.44,2.14,2.14,0,0,1,1-1.64v-.07a2.81,2.81,0,0,1-1.08-2.27,3.22,3.22,0,0,1,3.44-3.14,3.65,3.65,0,0,1,1.3.22h3.62v1.21h-2.27a2.66,2.66,0,0,1,.74,1.76c0,1.87-1.5,3-3.39,3a3.75,3.75,0,0,1-1.48-.33,1.21,1.21,0,0,0-.68,1c0,.69.67,1,1.82,1h2c2.25,0,3.33.58,3.33,2,0,1.64-1.89,3.07-4.86,3.07C760.4,211,758.93,210.1,758.93,208.55Zm7.43-.39c0-.83-.66-1.06-2-1.06h-1.71a4.9,4.9,0,0,1-1.34-.15c-.83.45-1.11,1-1.11,1.46,0,.92,1,1.49,2.86,1.49C765.1,209.9,766.36,209.06,766.36,208.16Zm-1.47-7a2,2,0,1,0-2,2.07A2,2,0,0,0,764.89,201.12Z" transform="translate(-418.29 -178.69)"/><path class="cls-3" d="M770.11,194.13h1.49v3.49l-.09,2.08h0a4.39,4.39,0,0,1,3.26-1.72c2.07,0,3,1.23,3,3.53V207h-1.5v-5.24c0-1.65-.57-2.43-2-2.43-1.05,0-1.75.52-2.76,1.57V207h-1.49Z" transform="translate(-418.29 -178.69)"/><path class="cls-3" d="M782.94,203.55v-4.14h-2.48v-1.12l2.53-.09.2-2.81h1.24v2.81h4.29v1.21h-4.29v4.16c0,1.56.53,2.37,2.22,2.37a5.85,5.85,0,0,0,2.09-.39l.32,1.1a7.8,7.8,0,0,1-2.73.52C783.77,207.17,782.94,205.71,782.94,203.55Z" transform="translate(-418.29 -178.69)"/><path class="cls-3" d="M791.11,208.19h8.64v1.28h-8.64Z" transform="translate(-418.29 -178.69)"/><path class="cls-3" d="M802.27,202.59c0-2.93,2.23-4.61,4.88-4.61a4.47,4.47,0,0,1,3.19,1.28l-.74,1a3.62,3.62,0,0,0-2.39-1,3.35,3.35,0,1,0,0,6.7,4.17,4.17,0,0,0,2.7-1.1l.67,1a5.25,5.25,0,0,1-3.48,1.37C804.32,207.17,802.27,205.49,802.27,202.59Z" transform="translate(-418.29 -178.69)"/><path class="cls-3" d="M813.3,194.13h1.5v3.49l-.09,2.08h0A4.39,4.39,0,0,1,818,198c2.07,0,3,1.23,3,3.53V207h-1.5v-5.24c0-1.65-.57-2.43-2-2.43-1,0-1.74.52-2.75,1.57V207h-1.5Z" transform="translate(-418.29 -178.69)"/><path class="cls-3" d="M828.1,199.41h-4.05V198.2h5.55V207h-1.5Zm-.59-4.2a1.19,1.19,0,0,1,2.37,0,1.19,1.19,0,0,1-2.37,0Z" transform="translate(-418.29 -178.69)"/><path class="cls-3" d="M837.66,204v-8.68h-3.1v-1.21h4.59v10a1.59,1.59,0,0,0,1.73,1.81,3.93,3.93,0,0,0,1.64-.4l.38,1.12a5.35,5.35,0,0,1-2.34.52C838.69,207.17,837.66,206.09,837.66,204Z" transform="translate(-418.29 -178.69)"/><path class="cls-3" d="M845.11,202.59c0-2.84,1.89-4.61,4-4.61a3.75,3.75,0,0,1,2.63,1.12h0l-.07-1.6v-3.37h1.49V207h-1.23l-.12-1.15h-.06a4.19,4.19,0,0,1-2.86,1.37C846.62,207.17,845.11,205.51,845.11,202.59Zm6.56,2v-4.36a3.3,3.3,0,0,0-2.29-1c-1.51,0-2.74,1.33-2.74,3.33s1,3.33,2.58,3.33A3.31,3.31,0,0,0,851.67,204.61Z" transform="translate(-418.29 -178.69)"/><path class="cls-3" d="M571.11,202.59c0-2.84,1.89-4.61,4-4.61a3.75,3.75,0,0,1,2.63,1.12h0l-.07-1.6v-3.37h1.49V207h-1.22l-.13-1.15h0a4.21,4.21,0,0,1-2.87,1.37C572.62,207.17,571.11,205.51,571.11,202.59Zm6.56,2v-4.36a3.28,3.28,0,0,0-2.29-1c-1.51,0-2.74,1.33-2.74,3.33s1,3.33,2.58,3.33A3.31,3.31,0,0,0,577.67,204.61Z" transform="translate(-418.29 -178.69)"/><path class="cls-3" d="M582.27,204.68c0-2,1.84-2.91,6.36-3.27a2.08,2.08,0,0,0-2.32-2.2,6.18,6.18,0,0,0-3.07,1l-.59-1a7.65,7.65,0,0,1,3.91-1.27,3.26,3.26,0,0,1,3.56,3.61V207h-1.24l-.13-1.19h0a5.84,5.84,0,0,1-3.44,1.41C583.62,207.17,582.27,206.25,582.27,204.68Zm6.36,0V202.4c-3.75.28-4.88,1-4.88,2.18,0,1,.9,1.38,1.91,1.38A4.81,4.81,0,0,0,588.63,204.67Z" transform="translate(-418.29 -178.69)"/><path class="cls-3" d="M595.34,203.55v-4.14h-2.48v-1.12l2.54-.09.19-2.81h1.25v2.81h4.28v1.21h-4.28v4.16c0,1.56.52,2.37,2.21,2.37a5.85,5.85,0,0,0,2.09-.39l.32,1.1a7.8,7.8,0,0,1-2.73.52C596.17,207.17,595.34,205.71,595.34,203.55Z" transform="translate(-418.29 -178.69)"/><path class="cls-3" d="M603.87,204.68c0-2,1.84-2.91,6.36-3.27a2.08,2.08,0,0,0-2.32-2.2,6.15,6.15,0,0,0-3.07,1l-.59-1a7.65,7.65,0,0,1,3.91-1.27,3.26,3.26,0,0,1,3.56,3.61V207h-1.24l-.13-1.19h-.05a5.87,5.87,0,0,1-3.44,1.41C605.22,207.17,603.87,206.25,603.87,204.68Zm6.36,0V202.4c-3.75.28-4.88,1-4.88,2.18,0,1,.9,1.38,1.91,1.38A4.81,4.81,0,0,0,610.23,204.67Z" transform="translate(-418.29 -178.69)"/><path class="cls-3" d="M648.93,198.2h1.53l2,5c.34.89.67,1.75,1,2.6h.07c.31-.85.6-1.71,1-2.6l2-5h1.44L654.3,207h-1.68Z" transform="translate(-418.29 -178.69)"/><path class="cls-3" d="M660.27,204.68c0-2,1.84-2.91,6.36-3.27a2.08,2.08,0,0,0-2.32-2.2,6.15,6.15,0,0,0-3.07,1l-.59-1a7.65,7.65,0,0,1,3.91-1.27,3.26,3.26,0,0,1,3.56,3.61V207h-1.24l-.13-1.19h0a5.84,5.84,0,0,1-3.44,1.41C661.62,207.17,660.27,206.25,660.27,204.68Zm6.36,0V202.4c-3.75.28-4.88,1-4.88,2.18,0,1,.9,1.38,1.91,1.38A4.81,4.81,0,0,0,666.63,204.67Z" transform="translate(-418.29 -178.69)"/><path class="cls-3" d="M674.06,204v-8.68H671v-1.21h4.6v10a1.58,1.58,0,0,0,1.72,1.81,3.93,3.93,0,0,0,1.64-.4l.38,1.12a5.35,5.35,0,0,1-2.34.52C675.09,207.17,674.06,206.09,674.06,204Z" transform="translate(-418.29 -178.69)"/><path class="cls-3" d="M681.82,203.64V198.2h1.49v5.24c0,1.64.58,2.43,2,2.43,1,0,1.75-.47,2.72-1.6V198.2h1.49V207H688.3l-.13-1.53h-.07a4.25,4.25,0,0,1-3.26,1.75C682.77,207.17,681.82,205.94,681.82,203.64Z" transform="translate(-418.29 -178.69)"/><path class="cls-3" d="M692.46,202.56a4.4,4.4,0,0,1,4.46-4.58,3.77,3.77,0,0,1,4,4.11,7,7,0,0,1-.07.9h-7.4v-1.15H700l-.37.41c0-2.07-1-3.09-2.63-3.09a3.08,3.08,0,0,0-3,3.4,3.18,3.18,0,0,0,3.42,3.42,4.72,4.72,0,0,0,2.67-.83l.54,1a6,6,0,0,1-3.39,1A4.42,4.42,0,0,1,692.46,202.56Z" transform="translate(-418.29 -178.69)"/></svg>