<svg xmlns="http://www.w3.org/2000/svg" viewBox="0 0 672.42 305.03"><defs><style>.a{fill:#3ea69f;}</style></defs><path class="a" d="M181.73,110.84H186c2.79,0,4.83,1,4.83,3.88s-2,4.08-4.83,4.08h-2.52v5.81h-1.78Zm4.05,6.53c2.14,0,3.32-.88,3.32-2.65s-1.18-2.45-3.32-2.45h-2.27v5.1Zm1.28,0,4.2,7.22h-2l-3.59-6.3Z" transform="translate(-178.07 -110.84)"/><path class="a" d="M195.21,124.21c0-2.75,1.32-4.32,3.34-4.32s3.34,1.57,3.34,4.32-1.33,4.37-3.34,4.37S195.21,127,195.21,124.21Zm5.35,0c0-2.18-.82-3.23-2-3.23s-2,1-2,3.23.82,3.3,2,3.3S200.56,126.42,200.56,124.21Z" transform="translate(-178.07 -110.84)"/><path class="a" d="M178.07,148.75h5.82v1h-4.43v16.09h4.43v1h-5.82Z" transform="translate(-178.07 -110.84)"/><path class="a" d="M187.48,162.58c4.54-4,7-6.36,7-8.58,0-1.54-.92-2.61-2.89-2.61a4.66,4.66,0,0,0-3.22,1.6l-1-1a5.94,5.94,0,0,1,4.43-2c2.68,0,4.36,1.57,4.36,3.94,0,2.52-2.52,5-6.15,8.32.84-.07,1.7-.11,2.5-.11h4.39v1.49h-9.43Z" transform="translate(-178.07 -110.84)"/><path class="a" d="M200.17,157.42c0-5.38,2.68-7.45,5.6-7.45a5.31,5.31,0,0,1,3.74,1.42l-1,1.1a3.91,3.91,0,0,0-2.66-1.08c-2.19,0-4.08,1.54-4.08,6,0,3.3,1.26,5.08,3.49,5.08a2.78,2.78,0,0,0,2.81-2.94,2.54,2.54,0,0,0-2.83-2.83,4.69,4.69,0,0,0-3.51,1.89l-.06-1.37a5.68,5.68,0,0,1,3.88-1.83,3.81,3.81,0,0,1,4.18,4.14,4.33,4.33,0,0,1-4.47,4.31C202.37,163.87,200.17,161.72,200.17,157.42Z" transform="translate(-178.07 -110.84)"/><path class="a" d="M245.12,162l.87-1.16a5.32,5.32,0,0,0,3.78,1.54,3.12,3.12,0,0,0,3.38-3c0-1.85-1.31-2.92-3.28-2.92a5.06,5.06,0,0,0-2.73.8l-.92-.59.44-6.44h7.58v1.51h-6.05l-.36,4a5.7,5.7,0,0,1,2.48-.55c2.56,0,4.6,1.3,4.6,4.2s-2.39,4.54-5,4.54A6.76,6.76,0,0,1,245.12,162Z" transform="translate(-178.07 -110.84)"/><path class="a" d="M296.85,162l.88-1.14a5.41,5.41,0,0,0,3.84,1.58c1.83,0,3.19-.95,3.19-2.44s-1.34-2.67-4.85-2.67V156c3.17,0,4.39-1.09,4.39-2.5s-1.11-2.1-2.73-2.1a5.08,5.08,0,0,0-3.3,1.35l-.92-1.09a6.46,6.46,0,0,1,4.28-1.68c2.52,0,4.43,1.23,4.43,3.4,0,1.61-1.19,2.64-2.85,3.19v.08c1.78.38,3.32,1.56,3.32,3.4,0,2.38-2.19,3.83-4.85,3.83A6.58,6.58,0,0,1,296.85,162Z" transform="translate(-178.07 -110.84)"/><path class="a" d="M317.42,151.73h-7.7v-1.51h9.7v1.07c-3.55,4.05-4.41,7.07-4.62,12.32H313A17.91,17.91,0,0,1,317.42,151.73Z" transform="translate(-178.07 -110.84)"/><path class="a" d="M362,162.16h3.86v-9.82h-3V151.2a9.73,9.73,0,0,0,3.44-1h1.3v11.94h3.49v1.45H362Z" transform="translate(-178.07 -110.84)"/><path class="a" d="M178.07,184.75h5.82v1h-4.43v16.09h4.43v1h-5.82Z" transform="translate(-178.07 -110.84)"/><path class="a" d="M188,198.16h3.86v-9.82h-3V187.2a9.73,9.73,0,0,0,3.44-1h1.3v11.94h3.49v1.45H188Z" transform="translate(-178.07 -110.84)"/><path class="a" d="M200.59,198.16h3.86v-9.82h-3V187.2a9.73,9.73,0,0,0,3.44-1h1.3v11.94h3.49v1.45h-9.09Z" transform="translate(-178.07 -110.84)"/><path class="a" d="M245.12,198l.87-1.16a5.32,5.32,0,0,0,3.78,1.54,3.12,3.12,0,0,0,3.38-3c0-1.85-1.31-2.92-3.28-2.92a5.06,5.06,0,0,0-2.73.8l-.92-.59.44-6.44h7.58v1.51h-6.05l-.36,4a5.7,5.7,0,0,1,2.48-.55c2.56,0,4.6,1.3,4.6,4.2s-2.39,4.54-5,4.54A6.76,6.76,0,0,1,245.12,198Z" transform="translate(-178.07 -110.84)"/><path class="a" d="M297.69,198.16h3.86v-9.82h-3V187.2a9.73,9.73,0,0,0,3.44-1h1.3v11.94h3.49v1.45h-9.09Z" transform="translate(-178.07 -110.84)"/><path class="a" d="M309.91,198.46l1-1.09a4,4,0,0,0,2.67,1c2.16,0,4.07-1.54,4.07-6,0-3.29-1.28-5.06-3.48-5.06a2.77,2.77,0,0,0-2.84,2.92,2.56,2.56,0,0,0,2.86,2.83,4.66,4.66,0,0,0,3.48-1.89l.07,1.37a5.56,5.56,0,0,1-3.89,1.83,3.79,3.79,0,0,1-4.15-4.14,4.31,4.31,0,0,1,4.45-4.3c2.92,0,5.14,2.14,5.14,6.44,0,5.38-2.71,7.46-5.61,7.46A5.39,5.39,0,0,1,309.91,198.46Z" transform="translate(-178.07 -110.84)"/><path class="a" d="M362,198.16h3.86v-9.82h-3V187.2a9.73,9.73,0,0,0,3.44-1h1.3v11.94h3.49v1.45H362Z" transform="translate(-178.07 -110.84)"/><path class="a" d="M184.37,220.75h5.82v1h-4.43v16.09h4.43v1h-5.82Z" transform="translate(-178.07 -110.84)"/><path class="a" d="M194.29,234.16h3.86v-9.82h-3V223.2a9.73,9.73,0,0,0,3.44-1h1.3v11.94h3.49v1.45h-9.09Z" transform="translate(-178.07 -110.84)"/><path class="a" d="M238.83,234l.86-1.16a5.31,5.31,0,0,0,3.77,1.54,3.12,3.12,0,0,0,3.39-3c0-1.85-1.31-2.92-3.28-2.92a5.06,5.06,0,0,0-2.73.8l-.92-.59.44-6.44h7.58v1.51h-6.05l-.36,4a5.7,5.7,0,0,1,2.48-.55c2.56,0,4.6,1.3,4.6,4.2s-2.39,4.54-5,4.54A6.72,6.72,0,0,1,238.83,234Z" transform="translate(-178.07 -110.84)"/><path class="a" d="M252.31,237.82h4.43V221.73h-4.43v-1h5.81V238.8h-5.81Z" transform="translate(-178.07 -110.84)"/><path class="a" d="M297.69,234.16h3.86v-9.82h-3V223.2a9.73,9.73,0,0,0,3.44-1h1.3v11.94h3.49v1.45h-9.09Z" transform="translate(-178.07 -110.84)"/><path class="a" d="M310.29,234.16h3.86v-9.82h-3V223.2a9.73,9.73,0,0,0,3.44-1h1.3v11.94h3.49v1.45h-9.09Z" transform="translate(-178.07 -110.84)"/><path class="a" d="M352.07,220.75h5.82v1h-4.43v16.09h4.43v1h-5.82Z" transform="translate(-178.07 -110.84)"/><path class="a" d="M362,234.16h3.86v-9.82h-3V223.2a9.73,9.73,0,0,0,3.44-1h1.3v11.94h3.49v1.45H362Z" transform="translate(-178.07 -110.84)"/><path class="a" d="M374.21,234.46l1-1.09a4,4,0,0,0,2.67,1c2.16,0,4.07-1.54,4.07-6,0-3.29-1.28-5.06-3.48-5.06a2.77,2.77,0,0,0-2.84,2.92,2.56,2.56,0,0,0,2.86,2.83,4.66,4.66,0,0,0,3.48-1.89l.07,1.37a5.56,5.56,0,0,1-3.89,1.83,3.79,3.79,0,0,1-4.15-4.14,4.31,4.31,0,0,1,4.45-4.3c2.92,0,5.14,2.14,5.14,6.44,0,5.38-2.71,7.46-5.6,7.46A5.4,5.4,0,0,1,374.21,234.46Z" transform="translate(-178.07 -110.84)"/><path class="a" d="M413.27,157.42c0-5.38,2.68-7.45,5.6-7.45a5.31,5.31,0,0,1,3.74,1.42l-1,1.1a3.91,3.91,0,0,0-2.66-1.08c-2.19,0-4.08,1.54-4.08,6,0,3.3,1.26,5.08,3.49,5.08a2.78,2.78,0,0,0,2.81-2.94,2.54,2.54,0,0,0-2.83-2.83,4.69,4.69,0,0,0-3.51,1.89l-.06-1.37a5.68,5.68,0,0,1,3.88-1.83,3.81,3.81,0,0,1,4.18,4.14,4.33,4.33,0,0,1-4.47,4.31C415.47,163.87,413.27,161.72,413.27,157.42Z" transform="translate(-178.07 -110.84)"/><path class="a" d="M426.29,162.16h3.86v-9.82h-3V151.2a9.73,9.73,0,0,0,3.44-1h1.3v11.94h3.49v1.45h-9.09Z" transform="translate(-178.07 -110.84)"/><path class="a" d="M471.69,162.16h3.86v-9.82h-3V151.2a9.73,9.73,0,0,0,3.44-1h1.3v11.94h3.49v1.45h-9.09Z" transform="translate(-178.07 -110.84)"/><path class="a" d="M484.29,162.16h3.86v-9.82h-3V151.2a9.73,9.73,0,0,0,3.44-1h1.3v11.94h3.49v1.45h-9.09Z" transform="translate(-178.07 -110.84)"/><path class="a" d="M528.83,162l.86-1.16a5.31,5.31,0,0,0,3.77,1.54,3.12,3.12,0,0,0,3.39-3c0-1.85-1.31-2.92-3.28-2.92a5.06,5.06,0,0,0-2.73.8l-.92-.59.44-6.44h7.58v1.51h-6.05l-.36,4a5.7,5.7,0,0,1,2.48-.55c2.56,0,4.6,1.3,4.6,4.2s-2.39,4.54-5,4.54A6.72,6.72,0,0,1,528.83,162Z" transform="translate(-178.07 -110.84)"/><path class="a" d="M541.91,162.46l1-1.09a4,4,0,0,0,2.67,1c2.16,0,4.07-1.54,4.07-6,0-3.29-1.28-5.06-3.48-5.06a2.77,2.77,0,0,0-2.84,2.92,2.56,2.56,0,0,0,2.86,2.83,4.66,4.66,0,0,0,3.48-1.89l.07,1.37a5.56,5.56,0,0,1-3.89,1.83,3.79,3.79,0,0,1-4.15-4.14,4.31,4.31,0,0,1,4.45-4.3c2.92,0,5.14,2.14,5.14,6.44,0,5.38-2.71,7.46-5.61,7.46A5.39,5.39,0,0,1,541.91,162.46Z" transform="translate(-178.07 -110.84)"/><path class="a" d="M587.69,162.16h3.86v-9.82h-3V151.2a9.73,9.73,0,0,0,3.44-1h1.3v11.94h3.49v1.45h-9.09Z" transform="translate(-178.07 -110.84)"/><path class="a" d="M599.42,162l.87-1.16a5.31,5.31,0,0,0,3.77,1.54,3.12,3.12,0,0,0,3.39-3c0-1.85-1.31-2.92-3.28-2.92a5,5,0,0,0-2.73.8l-.92-.59.44-6.44h7.58v1.51h-6l-.36,4a5.7,5.7,0,0,1,2.48-.55c2.56,0,4.6,1.3,4.6,4.2s-2.39,4.54-5,4.54A6.76,6.76,0,0,1,599.42,162Z" transform="translate(-178.07 -110.84)"/><path class="a" d="M651.38,154.4c0-.74.06-1.64.1-2.38h-.1c-.44.65-.93,1.31-1.37,2l-3.61,4.53h8.69v1.41H644.47v-1.16l6.67-8.54H653v13.39h-1.63Z" transform="translate(-178.07 -110.84)"/><path class="a" d="M657.68,160.19c0-1.85,1.42-2.9,2.87-3.57v-.08a3.77,3.77,0,0,1-2-3.13c0-2.06,1.74-3.44,4.13-3.44,2.63,0,4.16,1.49,4.16,3.57a4.21,4.21,0,0,1-2,3.19v.08c1.47.74,2.63,1.58,2.63,3.49s-1.74,3.57-4.81,3.57S657.68,162.31,657.68,160.19Zm8.06,0c0-1.84-1.87-2.33-4.2-3.1-1.3.69-2.29,1.55-2.29,2.89s1.32,2.54,3.38,2.54S665.74,161.62,665.74,160.23Zm-.44-6.61a2.39,2.39,0,0,0-2.69-2.35,2.22,2.22,0,0,0-2.5,2.14c0,1.59,1.53,2.27,3.53,2.9A3.41,3.41,0,0,0,665.3,153.62Z" transform="translate(-178.07 -110.84)"/><path class="a" d="M407.39,198.16h3.86v-9.82h-3V187.2a9.73,9.73,0,0,0,3.44-1H413v11.94h3.49v1.45h-9.09Z" transform="translate(-178.07 -110.84)"/><path class="a" d="M419.12,198l.87-1.16a5.32,5.32,0,0,0,3.78,1.54,3.12,3.12,0,0,0,3.38-3c0-1.85-1.31-2.92-3.28-2.92a5.06,5.06,0,0,0-2.73.8l-.92-.59.44-6.44h7.58v1.51h-6.05l-.36,4a5.7,5.7,0,0,1,2.48-.55c2.56,0,4.6,1.3,4.6,4.2s-2.39,4.54-5,4.54A6.76,6.76,0,0,1,419.12,198Z" transform="translate(-178.07 -110.84)"/><path class="a" d="M432.61,201.82H437V185.73h-4.43v-1h5.81V202.8h-5.81Z" transform="translate(-178.07 -110.84)"/><path class="a" d="M471.18,198.58c4.54-4,7-6.36,7-8.58,0-1.54-.93-2.61-2.9-2.61a4.66,4.66,0,0,0-3.22,1.6l-1-1a5.94,5.94,0,0,1,4.43-2c2.69,0,4.37,1.57,4.37,3.94,0,2.52-2.52,5-6.16,8.32.84-.07,1.7-.11,2.5-.11h4.39v1.49h-9.43Z" transform="translate(-178.07 -110.84)"/><path class="a" d="M483.87,193.42c0-5.38,2.68-7.45,5.6-7.45a5.31,5.31,0,0,1,3.74,1.42l-1,1.1a3.91,3.91,0,0,0-2.66-1.08c-2.19,0-4.08,1.54-4.08,6,0,3.3,1.26,5.08,3.49,5.08a2.78,2.78,0,0,0,2.81-2.94,2.54,2.54,0,0,0-2.83-2.83,4.69,4.69,0,0,0-3.51,1.89l-.06-1.37a5.68,5.68,0,0,1,3.88-1.83,3.81,3.81,0,0,1,4.18,4.14,4.33,4.33,0,0,1-4.47,4.31C486.07,199.87,483.87,197.72,483.87,193.42Z" transform="translate(-178.07 -110.84)"/><path class="a" d="M526.07,184.75h5.82v1h-4.43v16.09h4.43v1h-5.82Z" transform="translate(-178.07 -110.84)"/><path class="a" d="M535.12,198l.87-1.16a5.32,5.32,0,0,0,3.78,1.54,3.12,3.12,0,0,0,3.38-3c0-1.85-1.31-2.92-3.28-2.92a5.06,5.06,0,0,0-2.73.8l-.92-.59.44-6.44h7.58v1.51h-6l-.36,4a5.7,5.7,0,0,1,2.48-.55c2.56,0,4.6,1.3,4.6,4.2s-2.39,4.54-5,4.54A6.76,6.76,0,0,1,535.12,198Z" transform="translate(-178.07 -110.84)"/><path class="a" d="M548.21,198.46l1-1.09a4,4,0,0,0,2.67,1c2.16,0,4.07-1.54,4.07-6,0-3.29-1.28-5.06-3.48-5.06a2.77,2.77,0,0,0-2.84,2.92,2.56,2.56,0,0,0,2.86,2.83,4.66,4.66,0,0,0,3.48-1.89l.07,1.37a5.56,5.56,0,0,1-3.89,1.83,3.79,3.79,0,0,1-4.15-4.14,4.31,4.31,0,0,1,4.45-4.3c2.92,0,5.14,2.14,5.14,6.44,0,5.38-2.71,7.46-5.6,7.46A5.4,5.4,0,0,1,548.21,198.46Z" transform="translate(-178.07 -110.84)"/><path class="a" d="M587.27,193.42c0-5.38,2.68-7.45,5.6-7.45a5.31,5.31,0,0,1,3.74,1.42l-1,1.1a3.91,3.91,0,0,0-2.66-1.08c-2.19,0-4.08,1.54-4.08,6,0,3.3,1.26,5.08,3.49,5.08a2.78,2.78,0,0,0,2.81-2.94,2.54,2.54,0,0,0-2.83-2.83,4.69,4.69,0,0,0-3.51,1.89l-.06-1.37a5.68,5.68,0,0,1,3.88-1.83,3.81,3.81,0,0,1,4.18,4.14,4.33,4.33,0,0,1-4.47,4.31C589.47,199.87,587.27,197.72,587.27,193.42Z" transform="translate(-178.07 -110.84)"/><path class="a" d="M600.29,198.16h3.86v-9.82h-3V187.2a9.73,9.73,0,0,0,3.44-1h1.3v11.94h3.49v1.45h-9.09Z" transform="translate(-178.07 -110.84)"/><path class="a" d="M651.38,190.4c0-.74.06-1.64.1-2.38h-.1c-.44.65-.93,1.31-1.37,2l-3.61,4.53h8.69v1.41H644.47v-1.16l6.67-8.54H653v13.39h-1.63Z" transform="translate(-178.07 -110.84)"/><path class="a" d="M657.68,196.19c0-1.85,1.42-2.9,2.87-3.57v-.08a3.77,3.77,0,0,1-2-3.13c0-2.06,1.74-3.44,4.13-3.44,2.63,0,4.16,1.49,4.16,3.57a4.21,4.21,0,0,1-2,3.19v.08c1.47.74,2.63,1.58,2.63,3.49s-1.74,3.57-4.81,3.57S657.68,198.31,657.68,196.19Zm8.06,0c0-1.84-1.87-2.33-4.2-3.1-1.3.69-2.29,1.55-2.29,2.89s1.32,2.54,3.38,2.54S665.74,197.62,665.74,196.23Zm-.44-6.61a2.39,2.39,0,0,0-2.69-2.35,2.22,2.22,0,0,0-2.5,2.14c0,1.59,1.53,2.27,3.53,2.9A3.41,3.41,0,0,0,665.3,189.62Z" transform="translate(-178.07 -110.84)"/><path class="a" d="M471.18,234.58c4.54-4,7-6.36,7-8.58,0-1.54-.93-2.61-2.9-2.61a4.66,4.66,0,0,0-3.22,1.6l-1-1a5.94,5.94,0,0,1,4.43-2c2.69,0,4.37,1.57,4.37,3.94,0,2.52-2.52,5-6.16,8.32.84-.07,1.7-.11,2.5-.11h4.39v1.49h-9.43Z" transform="translate(-178.07 -110.84)"/><path class="a" d="M483.87,229.42c0-5.38,2.68-7.45,5.6-7.45a5.31,5.31,0,0,1,3.74,1.42l-1,1.1a3.91,3.91,0,0,0-2.66-1.08c-2.19,0-4.08,1.54-4.08,6,0,3.3,1.26,5.08,3.49,5.08a2.78,2.78,0,0,0,2.81-2.94,2.54,2.54,0,0,0-2.83-2.83,4.69,4.69,0,0,0-3.51,1.89l-.06-1.37a5.68,5.68,0,0,1,3.88-1.83,3.81,3.81,0,0,1,4.18,4.14,4.33,4.33,0,0,1-4.47,4.31C486.07,235.87,483.87,233.72,483.87,229.42Z" transform="translate(-178.07 -110.84)"/><path class="a" d="M526.07,220.75h5.82v1h-4.43v16.09h4.43v1h-5.82Z" transform="translate(-178.07 -110.84)"/><path class="a" d="M535.12,234l.87-1.16a5.32,5.32,0,0,0,3.78,1.54,3.12,3.12,0,0,0,3.38-3c0-1.85-1.31-2.92-3.28-2.92a5.06,5.06,0,0,0-2.73.8l-.92-.59.44-6.44h7.58v1.51h-6l-.36,4a5.7,5.7,0,0,1,2.48-.55c2.56,0,4.6,1.3,4.6,4.2s-2.39,4.54-5,4.54A6.76,6.76,0,0,1,535.12,234Z" transform="translate(-178.07 -110.84)"/><path class="a" d="M548.21,234.46l1-1.09a4,4,0,0,0,2.67,1c2.16,0,4.07-1.54,4.07-6,0-3.29-1.28-5.06-3.48-5.06a2.77,2.77,0,0,0-2.84,2.92,2.56,2.56,0,0,0,2.86,2.83,4.66,4.66,0,0,0,3.48-1.89l.07,1.37a5.56,5.56,0,0,1-3.89,1.83,3.79,3.79,0,0,1-4.15-4.14,4.31,4.31,0,0,1,4.45-4.3c2.92,0,5.14,2.14,5.14,6.44,0,5.38-2.71,7.46-5.6,7.46A5.4,5.4,0,0,1,548.21,234.46Z" transform="translate(-178.07 -110.84)"/><path class="a" d="M587.27,229.42c0-5.38,2.68-7.45,5.6-7.45a5.31,5.31,0,0,1,3.74,1.42l-1,1.1a3.91,3.91,0,0,0-2.66-1.08c-2.19,0-4.08,1.54-4.08,6,0,3.3,1.26,5.08,3.49,5.08a2.78,2.78,0,0,0,2.81-2.94,2.54,2.54,0,0,0-2.83-2.83,4.69,4.69,0,0,0-3.51,1.89l-.06-1.37a5.68,5.68,0,0,1,3.88-1.83,3.81,3.81,0,0,1,4.18,4.14,4.33,4.33,0,0,1-4.47,4.31C589.47,235.87,587.27,233.72,587.27,229.42Z" transform="translate(-178.07 -110.84)"/><path class="a" d="M600.29,234.16h3.86v-9.82h-3V223.2a9.73,9.73,0,0,0,3.44-1h1.3v11.94h3.49v1.45h-9.09Z" transform="translate(-178.07 -110.84)"/><path class="a" d="M651.38,226.4c0-.74.06-1.64.1-2.38h-.1c-.44.65-.93,1.31-1.37,2l-3.61,4.53h8.69v1.41H644.47v-1.16l6.67-8.54H653v13.39h-1.63Z" transform="translate(-178.07 -110.84)"/><path class="a" d="M657.68,232.19c0-1.85,1.42-2.9,2.87-3.57v-.08a3.77,3.77,0,0,1-2-3.13c0-2.06,1.74-3.44,4.13-3.44,2.63,0,4.16,1.49,4.16,3.57a4.21,4.21,0,0,1-2,3.19v.08c1.47.74,2.63,1.58,2.63,3.49s-1.74,3.57-4.81,3.57S657.68,234.31,657.68,232.19Zm8.06,0c0-1.84-1.87-2.33-4.2-3.1-1.3.69-2.29,1.55-2.29,2.89s1.32,2.54,3.38,2.54S665.74,233.62,665.74,232.23Zm-.44-6.61a2.39,2.39,0,0,0-2.69-2.35,2.22,2.22,0,0,0-2.5,2.14c0,1.59,1.53,2.27,3.53,2.9A3.41,3.41,0,0,0,665.3,225.62Z" transform="translate(-178.07 -110.84)"/><path class="a" d="M407.39,234.16h3.86v-9.82h-3V223.2a9.73,9.73,0,0,0,3.44-1H413v11.94h3.49v1.45h-9.09Z" transform="translate(-178.07 -110.84)"/><path class="a" d="M419.12,234l.87-1.16a5.32,5.32,0,0,0,3.78,1.54,3.12,3.12,0,0,0,3.38-3c0-1.85-1.31-2.92-3.28-2.92a5.06,5.06,0,0,0-2.73.8l-.92-.59.44-6.44h7.58v1.51h-6.05l-.36,4a5.7,5.7,0,0,1,2.48-.55c2.56,0,4.6,1.3,4.6,4.2s-2.39,4.54-5,4.54A6.76,6.76,0,0,1,419.12,234Z" transform="translate(-178.07 -110.84)"/><path class="a" d="M432.61,237.82H437V221.73h-4.43v-1h5.81V238.8h-5.81Z" transform="translate(-178.07 -110.84)"/><path class="a" d="M697.39,162.16h3.86v-9.82h-3V151.2a9.73,9.73,0,0,0,3.44-1H703v11.94h3.49v1.45h-9.09Z" transform="translate(-178.07 -110.84)"/><path class="a" d="M709.61,162.46l1-1.09a4,4,0,0,0,2.67,1c2.16,0,4.07-1.54,4.07-6,0-3.29-1.28-5.06-3.48-5.06a2.77,2.77,0,0,0-2.84,2.92,2.56,2.56,0,0,0,2.86,2.83,4.66,4.66,0,0,0,3.48-1.89l.07,1.37a5.56,5.56,0,0,1-3.89,1.83,3.79,3.79,0,0,1-4.15-4.14,4.31,4.31,0,0,1,4.45-4.3c2.92,0,5.14,2.14,5.14,6.44,0,5.38-2.71,7.46-5.6,7.46A5.4,5.4,0,0,1,709.61,162.46Z" transform="translate(-178.07 -110.84)"/><path class="a" d="M722.61,165.82H727V149.73h-4.43v-1h5.81V166.8h-5.81Z" transform="translate(-178.07 -110.84)"/><path class="a" d="M696.55,198l.88-1.14a5.41,5.41,0,0,0,3.84,1.58c1.83,0,3.19-.95,3.19-2.44s-1.34-2.67-4.85-2.67V192c3.17,0,4.39-1.09,4.39-2.5s-1.11-2.1-2.73-2.1a5.08,5.08,0,0,0-3.3,1.35l-.92-1.09a6.46,6.46,0,0,1,4.28-1.68c2.52,0,4.43,1.23,4.43,3.4,0,1.61-1.19,2.64-2.85,3.19v.08c1.78.38,3.32,1.56,3.32,3.4,0,2.38-2.19,3.83-4.85,3.83A6.58,6.58,0,0,1,696.55,198Z" transform="translate(-178.07 -110.84)"/><path class="a" d="M717.12,187.73h-7.7v-1.51h9.7v1.07c-3.55,4.05-4.41,7.07-4.62,12.32h-1.83A17.91,17.91,0,0,1,717.12,187.73Z" transform="translate(-178.07 -110.84)"/><path class="a" d="M722.61,201.82H727V185.73h-4.43v-1h5.81V202.8h-5.81Z" transform="translate(-178.07 -110.84)"/><path class="a" d="M696.55,234l.88-1.14a5.41,5.41,0,0,0,3.84,1.58c1.83,0,3.19-.95,3.19-2.44s-1.34-2.67-4.85-2.67V228c3.17,0,4.39-1.09,4.39-2.5s-1.11-2.1-2.73-2.1a5.08,5.08,0,0,0-3.3,1.35l-.92-1.09a6.46,6.46,0,0,1,4.28-1.68c2.52,0,4.43,1.23,4.43,3.4,0,1.61-1.19,2.64-2.85,3.19v.08c1.78.38,3.32,1.56,3.32,3.4,0,2.38-2.19,3.83-4.85,3.83A6.58,6.58,0,0,1,696.55,234Z" transform="translate(-178.07 -110.84)"/><path class="a" d="M717.12,223.73h-7.7v-1.51h9.7v1.07c-3.55,4.05-4.41,7.07-4.62,12.32h-1.83A17.91,17.91,0,0,1,717.12,223.73Z" transform="translate(-178.07 -110.84)"/><path class="a" d="M722.61,237.82H727V221.73h-4.43v-1h5.81V238.8h-5.81Z" transform="translate(-178.07 -110.84)"/><path class="a" d="M767.44,156.87c0-4.49,1.83-6.9,4.81-6.9s4.81,2.41,4.81,6.9-1.83,7-4.81,7S767.44,161.32,767.44,156.87Zm8,0c0-3.84-1.32-5.5-3.19-5.5s-3.19,1.66-3.19,5.5,1.32,5.59,3.19,5.59S775.44,160.72,775.44,156.87Zm-4.49-.14a1.3,1.3,0,1,1,1.3,1.4A1.3,1.3,0,0,1,771,156.73Z" transform="translate(-178.07 -110.84)"/><path class="a" d="M767.44,192.87c0-4.49,1.83-6.9,4.81-6.9s4.81,2.41,4.81,6.9-1.83,7-4.81,7S767.44,197.32,767.44,192.87Zm8,0c0-3.84-1.32-5.5-3.19-5.5s-3.19,1.66-3.19,5.5,1.32,5.59,3.19,5.59S775.44,196.72,775.44,192.87Zm-4.49-.14a1.3,1.3,0,1,1,1.3,1.4A1.3,1.3,0,0,1,771,192.73Z" transform="translate(-178.07 -110.84)"/><path class="a" d="M767.44,228.87c0-4.49,1.83-6.9,4.81-6.9s4.81,2.41,4.81,6.9-1.83,7-4.81,7S767.44,233.32,767.44,228.87Zm8,0c0-3.84-1.32-5.5-3.19-5.5s-3.19,1.66-3.19,5.5,1.32,5.59,3.19,5.59S775.44,232.72,775.44,228.87Zm-4.49-.14a1.3,1.3,0,1,1,1.3,1.4A1.3,1.3,0,0,1,771,228.73Z" transform="translate(-178.07 -110.84)"/><path class="a" d="M825.61,162.46l1-1.09a4,4,0,0,0,2.67,1c2.16,0,4.07-1.54,4.07-6,0-3.29-1.28-5.06-3.48-5.06a2.77,2.77,0,0,0-2.84,2.92,2.56,2.56,0,0,0,2.86,2.83,4.66,4.66,0,0,0,3.48-1.89l.07,1.37a5.56,5.56,0,0,1-3.89,1.83,3.79,3.79,0,0,1-4.15-4.14,4.31,4.31,0,0,1,4.45-4.3c2.92,0,5.14,2.14,5.14,6.44,0,5.38-2.71,7.46-5.6,7.46A5.4,5.4,0,0,1,825.61,162.46Z" transform="translate(-178.07 -110.84)"/><path class="a" d="M831.68,190.4c0-.74.06-1.64.1-2.38h-.1c-.45.65-.93,1.31-1.37,2l-3.61,4.53h8.69v1.41H824.77v-1.16l6.68-8.54h1.86v13.39h-1.63Z" transform="translate(-178.07 -110.84)"/><path class="a" d="M826,234.16h3.86v-9.82h-3V223.2a9.73,9.73,0,0,0,3.44-1h1.3v11.94h3.49v1.45H826Z" transform="translate(-178.07 -110.84)"/><path class="a" d="M188,270.16h3.86v-9.82h-3V259.2a9.73,9.73,0,0,0,3.44-1h1.3v11.94h3.49v1.45H188Z" transform="translate(-178.07 -110.84)"/><path class="a" d="M245.12,270l.87-1.16a5.32,5.32,0,0,0,3.78,1.54,3.12,3.12,0,0,0,3.38-3.05c0-1.85-1.31-2.92-3.28-2.92a5.06,5.06,0,0,0-2.73.8l-.92-.59.44-6.44h7.58v1.51h-6.05l-.36,3.95a5.7,5.7,0,0,1,2.48-.55c2.56,0,4.6,1.3,4.6,4.2s-2.39,4.54-5,4.54A6.76,6.76,0,0,1,245.12,270Z" transform="translate(-178.07 -110.84)"/><path class="a" d="M297.69,270.16h3.86v-9.82h-3V259.2a9.73,9.73,0,0,0,3.44-1h1.3v11.94h3.49v1.45h-9.09Z" transform="translate(-178.07 -110.84)"/><path class="a" d="M310.29,270.16h3.86v-9.82h-3V259.2a9.73,9.73,0,0,0,3.44-1h1.3v11.94h3.49v1.45h-9.09Z" transform="translate(-178.07 -110.84)"/><path class="a" d="M352.07,256.75h5.82v1h-4.43v16.09h4.43v1h-5.82Z" transform="translate(-178.07 -110.84)"/><path class="a" d="M362,270.16h3.86v-9.82h-3V259.2a9.73,9.73,0,0,0,3.44-1h1.3v11.94h3.49v1.45H362Z" transform="translate(-178.07 -110.84)"/><path class="a" d="M374.21,270.46l1-1.09a4,4,0,0,0,2.67,1.05c2.16,0,4.07-1.54,4.07-6,0-3.29-1.28-5.06-3.48-5.06a2.77,2.77,0,0,0-2.84,2.92,2.56,2.56,0,0,0,2.86,2.83,4.66,4.66,0,0,0,3.48-1.89l.07,1.37a5.56,5.56,0,0,1-3.89,1.83,3.79,3.79,0,0,1-4.15-4.14,4.31,4.31,0,0,1,4.45-4.3c2.92,0,5.14,2.14,5.14,6.44,0,5.38-2.71,7.46-5.6,7.46A5.4,5.4,0,0,1,374.21,270.46Z" transform="translate(-178.07 -110.84)"/><path class="a" d="M471.18,270.58c4.54-4,7-6.36,7-8.58,0-1.54-.93-2.61-2.9-2.61a4.66,4.66,0,0,0-3.22,1.6l-1-1a5.94,5.94,0,0,1,4.43-2c2.69,0,4.37,1.57,4.37,3.94s-2.52,5-6.16,8.32c.84-.07,1.7-.11,2.5-.11h4.39v1.49h-9.43Z" transform="translate(-178.07 -110.84)"/><path class="a" d="M483.87,265.42c0-5.38,2.68-7.45,5.6-7.45a5.31,5.31,0,0,1,3.74,1.42l-1,1.1a3.91,3.91,0,0,0-2.66-1.08c-2.19,0-4.08,1.54-4.08,6,0,3.3,1.26,5.08,3.49,5.08a2.78,2.78,0,0,0,2.81-2.94,2.54,2.54,0,0,0-2.83-2.83,4.69,4.69,0,0,0-3.51,1.89l-.06-1.37a5.68,5.68,0,0,1,3.88-1.83,3.81,3.81,0,0,1,4.18,4.14,4.33,4.33,0,0,1-4.47,4.31C486.07,271.87,483.87,269.72,483.87,265.42Z" transform="translate(-178.07 -110.84)"/><path class="a" d="M526.07,256.75h5.82v1h-4.43v16.09h4.43v1h-5.82Z" transform="translate(-178.07 -110.84)"/><path class="a" d="M535.12,270l.87-1.16a5.32,5.32,0,0,0,3.78,1.54,3.12,3.12,0,0,0,3.38-3.05c0-1.85-1.31-2.92-3.28-2.92a5.06,5.06,0,0,0-2.73.8l-.92-.59.44-6.44h7.58v1.51h-6l-.36,3.95a5.7,5.7,0,0,1,2.48-.55c2.56,0,4.6,1.3,4.6,4.2s-2.39,4.54-5,4.54A6.76,6.76,0,0,1,535.12,270Z" transform="translate(-178.07 -110.84)"/><path class="a" d="M548.21,270.46l1-1.09a4,4,0,0,0,2.67,1.05c2.16,0,4.07-1.54,4.07-6,0-3.29-1.28-5.06-3.48-5.06a2.77,2.77,0,0,0-2.84,2.92,2.56,2.56,0,0,0,2.86,2.83,4.66,4.66,0,0,0,3.48-1.89l.07,1.37a5.56,5.56,0,0,1-3.89,1.83,3.79,3.79,0,0,1-4.15-4.14,4.31,4.31,0,0,1,4.45-4.3c2.92,0,5.14,2.14,5.14,6.44,0,5.38-2.71,7.46-5.6,7.46A5.4,5.4,0,0,1,548.21,270.46Z" transform="translate(-178.07 -110.84)"/><path class="a" d="M587.27,265.42c0-5.38,2.68-7.45,5.6-7.45a5.31,5.31,0,0,1,3.74,1.42l-1,1.1a3.91,3.91,0,0,0-2.66-1.08c-2.19,0-4.08,1.54-4.08,6,0,3.3,1.26,5.08,3.49,5.08a2.78,2.78,0,0,0,2.81-2.94,2.54,2.54,0,0,0-2.83-2.83,4.69,4.69,0,0,0-3.51,1.89l-.06-1.37a5.68,5.68,0,0,1,3.88-1.83,3.81,3.81,0,0,1,4.18,4.14,4.33,4.33,0,0,1-4.47,4.31C589.47,271.87,587.27,269.72,587.27,265.42Z" transform="translate(-178.07 -110.84)"/><path class="a" d="M600.29,270.16h3.86v-9.82h-3V259.2a9.73,9.73,0,0,0,3.44-1h1.3v11.94h3.49v1.45h-9.09Z" transform="translate(-178.07 -110.84)"/><path class="a" d="M651.38,262.4c0-.74.06-1.64.1-2.38h-.1c-.44.65-.93,1.31-1.37,2l-3.61,4.53h8.69v1.41H644.47v-1.16l6.67-8.54H653v13.39h-1.63Z" transform="translate(-178.07 -110.84)"/><path class="a" d="M657.68,268.19c0-1.85,1.42-2.9,2.87-3.57v-.08a3.77,3.77,0,0,1-2-3.13c0-2.06,1.74-3.44,4.13-3.44,2.63,0,4.16,1.49,4.16,3.57a4.21,4.21,0,0,1-2,3.19v.08c1.47.74,2.63,1.58,2.63,3.49s-1.74,3.57-4.81,3.57S657.68,270.31,657.68,268.19Zm8.06,0c0-1.84-1.87-2.33-4.2-3.1-1.3.69-2.29,1.55-2.29,2.89s1.32,2.54,3.38,2.54S665.74,269.62,665.74,268.23Zm-.44-6.61a2.39,2.39,0,0,0-2.69-2.35,2.22,2.22,0,0,0-2.5,2.14c0,1.59,1.53,2.27,3.53,2.9A3.41,3.41,0,0,0,665.3,261.62Z" transform="translate(-178.07 -110.84)"/><path class="a" d="M407.39,270.16h3.86v-9.82h-3V259.2a9.73,9.73,0,0,0,3.44-1H413v11.94h3.49v1.45h-9.09Z" transform="translate(-178.07 -110.84)"/><path class="a" d="M419.12,270l.87-1.16a5.32,5.32,0,0,0,3.78,1.54,3.12,3.12,0,0,0,3.38-3.05c0-1.85-1.31-2.92-3.28-2.92a5.06,5.06,0,0,0-2.73.8l-.92-.59.44-6.44h7.58v1.51h-6.05l-.36,3.95a5.7,5.7,0,0,1,2.48-.55c2.56,0,4.6,1.3,4.6,4.2s-2.39,4.54-5,4.54A6.76,6.76,0,0,1,419.12,270Z" transform="translate(-178.07 -110.84)"/><path class="a" d="M432.61,273.82H437V257.73h-4.43v-1h5.81V274.8h-5.81Z" transform="translate(-178.07 -110.84)"/><path class="a" d="M696.55,270l.88-1.14a5.41,5.41,0,0,0,3.84,1.58c1.83,0,3.19-.95,3.19-2.44s-1.34-2.67-4.85-2.67V264c3.17,0,4.39-1.09,4.39-2.5s-1.11-2.1-2.73-2.1a5.08,5.08,0,0,0-3.3,1.35l-.92-1.09a6.46,6.46,0,0,1,4.28-1.68c2.52,0,4.43,1.23,4.43,3.4,0,1.61-1.19,2.64-2.85,3.19v.08c1.78.38,3.32,1.56,3.32,3.4,0,2.38-2.19,3.83-4.85,3.83A6.58,6.58,0,0,1,696.55,270Z" transform="translate(-178.07 -110.84)"/><path class="a" d="M717.12,259.73h-7.7v-1.51h9.7v1.07c-3.55,4-4.41,7.07-4.62,12.32h-1.83A17.91,17.91,0,0,1,717.12,259.73Z" transform="translate(-178.07 -110.84)"/><path class="a" d="M722.61,273.82H727V257.73h-4.43v-1h5.81V274.8h-5.81Z" transform="translate(-178.07 -110.84)"/><path class="a" d="M767.15,270l.88-1.14a5.41,5.41,0,0,0,3.84,1.58c1.83,0,3.19-.95,3.19-2.44s-1.34-2.67-4.85-2.67V264c3.17,0,4.39-1.09,4.39-2.5s-1.11-2.1-2.73-2.1a5.08,5.08,0,0,0-3.3,1.35l-.92-1.09a6.46,6.46,0,0,1,4.28-1.68c2.52,0,4.43,1.23,4.43,3.4,0,1.61-1.19,2.64-2.85,3.19v.08c1.78.38,3.32,1.56,3.32,3.4,0,2.38-2.19,3.83-4.86,3.83A6.58,6.58,0,0,1,767.15,270Z" transform="translate(-178.07 -110.84)"/><path class="a" d="M831.68,262.4c0-.74.06-1.64.1-2.38h-.1c-.45.65-.93,1.31-1.37,2l-3.61,4.53h8.69v1.41H824.77v-1.16l6.68-8.54h1.86v13.39h-1.63Z" transform="translate(-178.07 -110.84)"/><path class="a" d="M188,306.17h3.86v-9.83h-3V295.2a9.73,9.73,0,0,0,3.44-1h1.3v11.95h3.49v1.44H188Z" transform="translate(-178.07 -110.84)"/><path class="a" d="M245.12,306l.87-1.16a5.32,5.32,0,0,0,3.78,1.54,3.12,3.12,0,0,0,3.38-3.05c0-1.85-1.31-2.92-3.28-2.92a5.06,5.06,0,0,0-2.73.8l-.92-.59.44-6.44h7.58v1.51h-6.05l-.36,3.95a5.7,5.7,0,0,1,2.48-.55c2.56,0,4.6,1.3,4.6,4.2s-2.39,4.54-5,4.54A6.76,6.76,0,0,1,245.12,306Z" transform="translate(-178.07 -110.84)"/><path class="a" d="M297.69,306.17h3.86v-9.83h-3V295.2a9.73,9.73,0,0,0,3.44-1h1.3v11.95h3.49v1.44h-9.09Z" transform="translate(-178.07 -110.84)"/><path class="a" d="M310.29,306.17h3.86v-9.83h-3V295.2a9.73,9.73,0,0,0,3.44-1h1.3v11.95h3.49v1.44h-9.09Z" transform="translate(-178.07 -110.84)"/><path class="a" d="M355.69,306.17h3.86v-9.83h-3V295.2a9.73,9.73,0,0,0,3.44-1h1.3v11.95h3.49v1.44h-9.09Z" transform="translate(-178.07 -110.84)"/><path class="a" d="M367.42,306l.87-1.16a5.31,5.31,0,0,0,3.77,1.54,3.12,3.12,0,0,0,3.39-3.05c0-1.85-1.31-2.92-3.28-2.92a5,5,0,0,0-2.73.8l-.92-.59.44-6.44h7.58v1.51h-6.05l-.36,3.95a5.7,5.7,0,0,1,2.48-.55c2.56,0,4.6,1.3,4.6,4.2s-2.39,4.54-5,4.54A6.76,6.76,0,0,1,367.42,306Z" transform="translate(-178.07 -110.84)"/><path class="a" d="M471.18,306.58c4.54-4,7-6.36,7-8.58,0-1.54-.93-2.61-2.9-2.61a4.66,4.66,0,0,0-3.22,1.6l-1-1a5.94,5.94,0,0,1,4.43-2c2.69,0,4.37,1.57,4.37,3.94s-2.52,5-6.16,8.32c.84-.06,1.7-.11,2.5-.11h4.39v1.49h-9.43Z" transform="translate(-178.07 -110.84)"/><path class="a" d="M483.87,301.42c0-5.38,2.68-7.45,5.6-7.45a5.31,5.31,0,0,1,3.74,1.42l-1,1.1a3.91,3.91,0,0,0-2.66-1.08c-2.19,0-4.08,1.54-4.08,6,0,3.3,1.26,5.08,3.49,5.08a2.78,2.78,0,0,0,2.81-2.94,2.54,2.54,0,0,0-2.83-2.83,4.69,4.69,0,0,0-3.51,1.89l-.06-1.37a5.68,5.68,0,0,1,3.88-1.83,3.81,3.81,0,0,1,4.18,4.14,4.33,4.33,0,0,1-4.47,4.31C486.07,307.87,483.87,305.72,483.87,301.42Z" transform="translate(-178.07 -110.84)"/><path class="a" d="M526.07,292.75h5.82v1h-4.43v16.09h4.43v1h-5.82Z" transform="translate(-178.07 -110.84)"/><path class="a" d="M535.12,306l.87-1.16a5.32,5.32,0,0,0,3.78,1.54,3.12,3.12,0,0,0,3.38-3.05c0-1.85-1.31-2.92-3.28-2.92a5.06,5.06,0,0,0-2.73.8l-.92-.59.44-6.44h7.58v1.51h-6l-.36,3.95a5.7,5.7,0,0,1,2.48-.55c2.56,0,4.6,1.3,4.6,4.2s-2.39,4.54-5,4.54A6.76,6.76,0,0,1,535.12,306Z" transform="translate(-178.07 -110.84)"/><path class="a" d="M548.21,306.46l1-1.09a4,4,0,0,0,2.67,1.05c2.16,0,4.07-1.54,4.07-6,0-3.29-1.28-5.06-3.48-5.06a2.77,2.77,0,0,0-2.84,2.92,2.56,2.56,0,0,0,2.86,2.83,4.66,4.66,0,0,0,3.48-1.89l.07,1.37a5.56,5.56,0,0,1-3.89,1.83,3.79,3.79,0,0,1-4.15-4.14,4.31,4.31,0,0,1,4.45-4.3c2.92,0,5.14,2.14,5.14,6.44,0,5.38-2.71,7.46-5.6,7.46A5.4,5.4,0,0,1,548.21,306.46Z" transform="translate(-178.07 -110.84)"/><path class="a" d="M587.27,301.42c0-5.38,2.68-7.45,5.6-7.45a5.31,5.31,0,0,1,3.74,1.42l-1,1.1a3.91,3.91,0,0,0-2.66-1.08c-2.19,0-4.08,1.54-4.08,6,0,3.3,1.26,5.08,3.49,5.08a2.78,2.78,0,0,0,2.81-2.94,2.54,2.54,0,0,0-2.83-2.83,4.69,4.69,0,0,0-3.51,1.89l-.06-1.37a5.68,5.68,0,0,1,3.88-1.83,3.81,3.81,0,0,1,4.18,4.14,4.33,4.33,0,0,1-4.47,4.31C589.47,307.87,587.27,305.72,587.27,301.42Z" transform="translate(-178.07 -110.84)"/><path class="a" d="M600.29,306.17h3.86v-9.83h-3V295.2a9.73,9.73,0,0,0,3.44-1h1.3v11.95h3.49v1.44h-9.09Z" transform="translate(-178.07 -110.84)"/><path class="a" d="M651.38,298.4c0-.74.06-1.64.1-2.38h-.1c-.44.65-.93,1.31-1.37,2l-3.61,4.53h8.69v1.41H644.47v-1.16l6.67-8.54H653v13.39h-1.63Z" transform="translate(-178.07 -110.84)"/><path class="a" d="M657.68,304.19c0-1.85,1.42-2.9,2.87-3.57v-.08a3.77,3.77,0,0,1-2-3.13c0-2.06,1.74-3.44,4.13-3.44,2.63,0,4.16,1.49,4.16,3.57a4.21,4.21,0,0,1-2,3.19v.08c1.47.74,2.63,1.58,2.63,3.49s-1.74,3.57-4.81,3.57S657.68,306.31,657.68,304.19Zm8.06,0c0-1.84-1.87-2.33-4.2-3.1-1.3.69-2.29,1.55-2.29,2.89s1.32,2.54,3.38,2.54S665.74,305.62,665.74,304.23Zm-.44-6.61a2.39,2.39,0,0,0-2.69-2.35,2.22,2.22,0,0,0-2.5,2.14c0,1.59,1.53,2.27,3.53,2.9A3.41,3.41,0,0,0,665.3,297.62Z" transform="translate(-178.07 -110.84)"/><path class="a" d="M413.69,306.17h3.86v-9.83h-3V295.2a9.73,9.73,0,0,0,3.44-1h1.3v11.95h3.49v1.44h-9.09Z" transform="translate(-178.07 -110.84)"/><path class="a" d="M425.91,306.46l1-1.09a4,4,0,0,0,2.67,1.05c2.16,0,4.07-1.54,4.07-6,0-3.29-1.28-5.06-3.48-5.06a2.77,2.77,0,0,0-2.84,2.92,2.56,2.56,0,0,0,2.86,2.83,4.66,4.66,0,0,0,3.48-1.89l.07,1.37a5.56,5.56,0,0,1-3.89,1.83,3.79,3.79,0,0,1-4.15-4.14,4.31,4.31,0,0,1,4.45-4.3c2.92,0,5.14,2.14,5.14,6.44,0,5.38-2.71,7.46-5.61,7.46A5.39,5.39,0,0,1,425.91,306.46Z" transform="translate(-178.07 -110.84)"/><path class="a" d="M696.55,306l.88-1.14a5.41,5.41,0,0,0,3.84,1.58c1.83,0,3.19-.95,3.19-2.44s-1.34-2.67-4.85-2.67V300c3.17,0,4.39-1.09,4.39-2.5s-1.11-2.1-2.73-2.1a5.08,5.08,0,0,0-3.3,1.35l-.92-1.09a6.46,6.46,0,0,1,4.28-1.68c2.52,0,4.43,1.23,4.43,3.4,0,1.61-1.19,2.64-2.85,3.19v.08c1.78.38,3.32,1.56,3.32,3.4,0,2.38-2.19,3.83-4.85,3.83A6.58,6.58,0,0,1,696.55,306Z" transform="translate(-178.07 -110.84)"/><path class="a" d="M717.12,295.73h-7.7v-1.51h9.7v1.07c-3.55,4-4.41,7.07-4.62,12.32h-1.83A17.91,17.91,0,0,1,717.12,295.73Z" transform="translate(-178.07 -110.84)"/><path class="a" d="M722.61,309.82H727V293.73h-4.43v-1h5.81V310.8h-5.81Z" transform="translate(-178.07 -110.84)"/><path class="a" d="M767.57,301.42c0-5.38,2.68-7.45,5.6-7.45a5.31,5.31,0,0,1,3.74,1.42l-1,1.1a3.89,3.89,0,0,0-2.66-1.08c-2.19,0-4.08,1.54-4.08,6,0,3.3,1.26,5.08,3.49,5.08a2.78,2.78,0,0,0,2.81-2.94,2.54,2.54,0,0,0-2.83-2.83,4.69,4.69,0,0,0-3.51,1.89l-.06-1.37a5.68,5.68,0,0,1,3.88-1.83,3.81,3.81,0,0,1,4.18,4.14,4.33,4.33,0,0,1-4.47,4.31C769.77,307.87,767.57,305.72,767.57,301.42Z" transform="translate(-178.07 -110.84)"/><path class="a" d="M825.61,306.46l1-1.09a4,4,0,0,0,2.67,1.05c2.16,0,4.07-1.54,4.07-6,0-3.29-1.28-5.06-3.48-5.06a2.77,2.77,0,0,0-2.84,2.92,2.56,2.56,0,0,0,2.86,2.83,4.66,4.66,0,0,0,3.48-1.89l.07,1.37a5.56,5.56,0,0,1-3.89,1.83,3.79,3.79,0,0,1-4.15-4.14,4.31,4.31,0,0,1,4.45-4.3c2.92,0,5.14,2.14,5.14,6.44,0,5.38-2.71,7.46-5.6,7.46A5.4,5.4,0,0,1,825.61,306.46Z" transform="translate(-178.07 -110.84)"/><path class="a" d="M188,342.17h3.86v-9.83h-3v-1.13a9.71,9.71,0,0,0,3.44-1h1.3v11.95h3.49v1.44H188Z" transform="translate(-178.07 -110.84)"/><path class="a" d="M245.12,342l.87-1.16a5.32,5.32,0,0,0,3.78,1.54,3.12,3.12,0,0,0,3.38-3.05c0-1.85-1.31-2.92-3.28-2.92a5.06,5.06,0,0,0-2.73.8l-.92-.59.44-6.44h7.58v1.51h-6.05l-.36,3.95a5.7,5.7,0,0,1,2.48-.55c2.56,0,4.6,1.3,4.6,4.2s-2.39,4.54-5,4.54A6.76,6.76,0,0,1,245.12,342Z" transform="translate(-178.07 -110.84)"/><path class="a" d="M297.69,342.17h3.86v-9.83h-3v-1.13a9.71,9.71,0,0,0,3.44-1h1.3v11.95h3.49v1.44h-9.09Z" transform="translate(-178.07 -110.84)"/><path class="a" d="M310.29,342.17h3.86v-9.83h-3v-1.13a9.71,9.71,0,0,0,3.44-1h1.3v11.95h3.49v1.44h-9.09Z" transform="translate(-178.07 -110.84)"/><path class="a" d="M355.69,342.17h3.86v-9.83h-3v-1.13a9.71,9.71,0,0,0,3.44-1h1.3v11.95h3.49v1.44h-9.09Z" transform="translate(-178.07 -110.84)"/><path class="a" d="M367.42,342l.87-1.16a5.31,5.31,0,0,0,3.77,1.54,3.12,3.12,0,0,0,3.39-3.05c0-1.85-1.31-2.92-3.28-2.92a5,5,0,0,0-2.73.8l-.92-.59.44-6.44h7.58v1.51h-6.05l-.36,3.95a5.7,5.7,0,0,1,2.48-.55c2.56,0,4.6,1.3,4.6,4.2s-2.39,4.54-5,4.54A6.76,6.76,0,0,1,367.42,342Z" transform="translate(-178.07 -110.84)"/><path class="a" d="M471.18,342.58c4.54-4,7-6.36,7-8.58,0-1.54-.93-2.61-2.9-2.61a4.66,4.66,0,0,0-3.22,1.6l-1-1a6,6,0,0,1,4.43-2c2.69,0,4.37,1.57,4.37,3.94s-2.52,5-6.16,8.32c.84-.06,1.7-.11,2.5-.11h4.39v1.49h-9.43Z" transform="translate(-178.07 -110.84)"/><path class="a" d="M483.87,337.42c0-5.38,2.68-7.45,5.6-7.45a5.36,5.36,0,0,1,3.74,1.42l-1,1.1a3.9,3.9,0,0,0-2.66-1.07c-2.19,0-4.08,1.53-4.08,6,0,3.3,1.26,5.08,3.49,5.08a2.78,2.78,0,0,0,2.81-2.94,2.54,2.54,0,0,0-2.83-2.83,4.69,4.69,0,0,0-3.51,1.89l-.06-1.37a5.68,5.68,0,0,1,3.88-1.83,3.81,3.81,0,0,1,4.18,4.14,4.33,4.33,0,0,1-4.47,4.31C486.07,343.87,483.87,341.72,483.87,337.42Z" transform="translate(-178.07 -110.84)"/><path class="a" d="M526.07,328.75h5.82v1h-4.43v16.08h4.43v1h-5.82Z" transform="translate(-178.07 -110.84)"/><path class="a" d="M541.68,334.4c0-.74.06-1.64.1-2.38h-.1c-.45.65-.93,1.31-1.37,2l-3.61,4.53h8.69v1.41H534.77v-1.16l6.68-8.54h1.86v13.39h-1.63Z" transform="translate(-178.07 -110.84)"/><path class="a" d="M548,340.19c0-1.85,1.42-2.9,2.87-3.57v-.08a3.77,3.77,0,0,1-2-3.13c0-2.06,1.74-3.44,4.13-3.44,2.63,0,4.16,1.49,4.16,3.57a4.21,4.21,0,0,1-2,3.19v.08c1.47.74,2.63,1.58,2.63,3.49s-1.74,3.57-4.81,3.57S548,342.31,548,340.19Zm8.06,0c0-1.84-1.87-2.33-4.2-3.1-1.3.69-2.29,1.55-2.29,2.89s1.32,2.54,3.38,2.54S556,341.62,556,340.23Zm-.44-6.61a2.39,2.39,0,0,0-2.69-2.35,2.22,2.22,0,0,0-2.5,2.14c0,1.59,1.54,2.27,3.53,2.9A3.41,3.41,0,0,0,555.6,333.62Z" transform="translate(-178.07 -110.84)"/><path class="a" d="M580.55,342l.88-1.14a5.41,5.41,0,0,0,3.84,1.58c1.83,0,3.19-.95,3.19-2.44s-1.34-2.67-4.85-2.67V336c3.17,0,4.39-1.09,4.39-2.5s-1.11-2.1-2.73-2.1a5.08,5.08,0,0,0-3.3,1.35l-.92-1.09a6.46,6.46,0,0,1,4.28-1.68c2.52,0,4.43,1.24,4.43,3.4,0,1.61-1.19,2.64-2.85,3.19v.08c1.78.38,3.32,1.56,3.32,3.4,0,2.38-2.19,3.83-4.85,3.83A6.58,6.58,0,0,1,580.55,342Z" transform="translate(-178.07 -110.84)"/><path class="a" d="M601.12,331.73h-7.7v-1.51h9.7v1.07c-3.55,4-4.41,7.07-4.62,12.32h-1.83A17.91,17.91,0,0,1,601.12,331.73Z" transform="translate(-178.07 -110.84)"/><path class="a" d="M606.61,345.82H611V329.74h-4.43v-1h5.81V346.8h-5.81Z" transform="translate(-178.07 -110.84)"/><path class="a" d="M644.83,342l.86-1.16a5.31,5.31,0,0,0,3.77,1.54,3.12,3.12,0,0,0,3.39-3.05c0-1.85-1.31-2.92-3.28-2.92a5.06,5.06,0,0,0-2.73.8l-.92-.59.44-6.44h7.58v1.51h-6.05l-.36,3.95a5.7,5.7,0,0,1,2.48-.55c2.56,0,4.6,1.3,4.6,4.2s-2.39,4.54-5,4.54A6.72,6.72,0,0,1,644.83,342Z" transform="translate(-178.07 -110.84)"/><path class="a" d="M657.91,342.46l1-1.09a4,4,0,0,0,2.67,1.05c2.16,0,4.07-1.54,4.07-6,0-3.29-1.28-5.06-3.48-5.06a2.77,2.77,0,0,0-2.84,2.92,2.56,2.56,0,0,0,2.86,2.83,4.66,4.66,0,0,0,3.48-1.89l.07,1.37a5.56,5.56,0,0,1-3.89,1.83,3.79,3.79,0,0,1-4.15-4.14,4.31,4.31,0,0,1,4.45-4.3c2.92,0,5.14,2.14,5.14,6.44,0,5.38-2.71,7.46-5.61,7.46A5.39,5.39,0,0,1,657.91,342.46Z" transform="translate(-178.07 -110.84)"/><path class="a" d="M413.69,342.17h3.86v-9.83h-3v-1.13a9.71,9.71,0,0,0,3.44-1h1.3v11.95h3.49v1.44h-9.09Z" transform="translate(-178.07 -110.84)"/><path class="a" d="M425.91,342.46l1-1.09a4,4,0,0,0,2.67,1.05c2.16,0,4.07-1.54,4.07-6,0-3.29-1.28-5.06-3.48-5.06a2.77,2.77,0,0,0-2.84,2.92,2.56,2.56,0,0,0,2.86,2.83,4.66,4.66,0,0,0,3.48-1.89l.07,1.37a5.56,5.56,0,0,1-3.89,1.83,3.79,3.79,0,0,1-4.15-4.14,4.31,4.31,0,0,1,4.45-4.3c2.92,0,5.14,2.14,5.14,6.44,0,5.38-2.71,7.46-5.61,7.46A5.39,5.39,0,0,1,425.91,342.46Z" transform="translate(-178.07 -110.84)"/><path class="a" d="M693.77,328.75h5.82v1h-4.43v16.08h4.43v1h-5.82Z" transform="translate(-178.07 -110.84)"/><path class="a" d="M703.27,337.42c0-5.38,2.68-7.45,5.6-7.45a5.36,5.36,0,0,1,3.74,1.42l-1,1.1a3.9,3.9,0,0,0-2.66-1.07c-2.19,0-4.08,1.53-4.08,6,0,3.3,1.26,5.08,3.49,5.08a2.78,2.78,0,0,0,2.81-2.94,2.54,2.54,0,0,0-2.83-2.83,4.69,4.69,0,0,0-3.51,1.89l-.06-1.37a5.68,5.68,0,0,1,3.88-1.83,3.81,3.81,0,0,1,4.18,4.14,4.33,4.33,0,0,1-4.47,4.31C705.47,343.87,703.27,341.72,703.27,337.42Z" transform="translate(-178.07 -110.84)"/><path class="a" d="M716.29,342.17h3.86v-9.83h-3v-1.13a9.71,9.71,0,0,0,3.44-1h1.3v11.95h3.49v1.44h-9.09Z" transform="translate(-178.07 -110.84)"/><path class="a" d="M728.91,345.82h4.43V329.74h-4.43v-1h5.81V346.8h-5.81Z" transform="translate(-178.07 -110.84)"/><path class="a" d="M767.57,337.42c0-5.38,2.68-7.45,5.6-7.45a5.36,5.36,0,0,1,3.74,1.42l-1,1.1a3.88,3.88,0,0,0-2.66-1.07c-2.19,0-4.08,1.53-4.08,6,0,3.3,1.26,5.08,3.49,5.08a2.78,2.78,0,0,0,2.81-2.94,2.54,2.54,0,0,0-2.83-2.83,4.69,4.69,0,0,0-3.51,1.89l-.06-1.37a5.68,5.68,0,0,1,3.88-1.83,3.81,3.81,0,0,1,4.18,4.14,4.33,4.33,0,0,1-4.47,4.31C769.77,343.87,767.57,341.72,767.57,337.42Z" transform="translate(-178.07 -110.84)"/><path class="a" d="M833.12,331.73h-7.7v-1.51h9.7v1.07c-3.55,4-4.41,7.07-4.62,12.32h-1.83A17.91,17.91,0,0,1,833.12,331.73Z" transform="translate(-178.07 -110.84)"/><path class="a" d="M188,378.17h3.86v-9.83h-3v-1.13a9.71,9.71,0,0,0,3.44-1h1.3v11.95h3.49v1.44H188Z" transform="translate(-178.07 -110.84)"/><path class="a" d="M245.12,378l.87-1.16a5.32,5.32,0,0,0,3.78,1.54,3.12,3.12,0,0,0,3.38-3.05c0-1.85-1.31-2.92-3.28-2.92a5.06,5.06,0,0,0-2.73.8l-.92-.59.44-6.44h7.58v1.51h-6.05l-.36,3.95a5.7,5.7,0,0,1,2.48-.55c2.56,0,4.6,1.3,4.6,4.2s-2.39,4.54-5,4.54A6.76,6.76,0,0,1,245.12,378Z" transform="translate(-178.07 -110.84)"/><path class="a" d="M297.69,378.17h3.86v-9.83h-3v-1.13a9.71,9.71,0,0,0,3.44-1h1.3v11.95h3.49v1.44h-9.09Z" transform="translate(-178.07 -110.84)"/><path class="a" d="M310.29,378.17h3.86v-9.83h-3v-1.13a9.71,9.71,0,0,0,3.44-1h1.3v11.95h3.49v1.44h-9.09Z" transform="translate(-178.07 -110.84)"/><path class="a" d="M355.69,378.17h3.86v-9.83h-3v-1.13a9.71,9.71,0,0,0,3.44-1h1.3v11.95h3.49v1.44h-9.09Z" transform="translate(-178.07 -110.84)"/><path class="a" d="M367.42,378l.87-1.16a5.31,5.31,0,0,0,3.77,1.54,3.12,3.12,0,0,0,3.39-3.05c0-1.85-1.31-2.92-3.28-2.92a5,5,0,0,0-2.73.8l-.92-.59.44-6.44h7.58v1.51h-6.05l-.36,3.95a5.7,5.7,0,0,1,2.48-.55c2.56,0,4.6,1.3,4.6,4.2s-2.39,4.54-5,4.54A6.76,6.76,0,0,1,367.42,378Z" transform="translate(-178.07 -110.84)"/><path class="a" d="M471.18,378.58c4.54-4,7-6.36,7-8.58,0-1.54-.93-2.61-2.9-2.61a4.66,4.66,0,0,0-3.22,1.6l-1-1a6,6,0,0,1,4.43-2c2.69,0,4.37,1.57,4.37,3.94s-2.52,5-6.16,8.32c.84-.06,1.7-.11,2.5-.11h4.39v1.49h-9.43Z" transform="translate(-178.07 -110.84)"/><path class="a" d="M483.87,373.42c0-5.38,2.68-7.45,5.6-7.45a5.36,5.36,0,0,1,3.74,1.42l-1,1.1a3.9,3.9,0,0,0-2.66-1.07c-2.19,0-4.08,1.53-4.08,6,0,3.3,1.26,5.08,3.49,5.08a2.78,2.78,0,0,0,2.81-2.94,2.54,2.54,0,0,0-2.83-2.83,4.69,4.69,0,0,0-3.51,1.89l-.06-1.37a5.68,5.68,0,0,1,3.88-1.83,3.81,3.81,0,0,1,4.18,4.14,4.33,4.33,0,0,1-4.47,4.31C486.07,379.87,483.87,377.72,483.87,373.42Z" transform="translate(-178.07 -110.84)"/><path class="a" d="M528.85,378l.88-1.14a5.41,5.41,0,0,0,3.84,1.58c1.83,0,3.19-.95,3.19-2.44s-1.34-2.67-4.85-2.67V372c3.17,0,4.39-1.09,4.39-2.5s-1.11-2.1-2.73-2.1a5.08,5.08,0,0,0-3.3,1.35l-.92-1.09a6.46,6.46,0,0,1,4.28-1.68c2.52,0,4.43,1.24,4.43,3.4,0,1.61-1.19,2.64-2.85,3.19v.08c1.78.38,3.32,1.56,3.32,3.4,0,2.38-2.19,3.83-4.85,3.83A6.58,6.58,0,0,1,528.85,378Z" transform="translate(-178.07 -110.84)"/><path class="a" d="M549.42,367.73h-7.7v-1.51h9.7v1.07c-3.55,4-4.41,7.07-4.62,12.32H545A17.91,17.91,0,0,1,549.42,367.73Z" transform="translate(-178.07 -110.84)"/><path class="a" d="M593.38,370.4c0-.74.06-1.64.1-2.38h-.1c-.44.65-.93,1.31-1.37,2l-3.61,4.53h8.69v1.41H586.47v-1.16l6.67-8.54H595v13.39h-1.63Z" transform="translate(-178.07 -110.84)"/><path class="a" d="M599.68,376.19c0-1.85,1.42-2.9,2.87-3.57v-.08a3.77,3.77,0,0,1-2-3.13c0-2.06,1.74-3.44,4.13-3.44,2.63,0,4.16,1.49,4.16,3.57a4.21,4.21,0,0,1-2,3.19v.08c1.47.74,2.63,1.58,2.63,3.49s-1.74,3.57-4.81,3.57S599.68,378.31,599.68,376.19Zm8.06,0c0-1.84-1.87-2.33-4.2-3.1-1.3.69-2.29,1.55-2.29,2.89s1.32,2.54,3.38,2.54S607.74,377.62,607.74,376.23Zm-.44-6.61a2.39,2.39,0,0,0-2.69-2.35,2.22,2.22,0,0,0-2.5,2.14c0,1.59,1.53,2.27,3.53,2.9A3.41,3.41,0,0,0,607.3,369.62Z" transform="translate(-178.07 -110.84)"/><path class="a" d="M644.83,378l.86-1.16a5.31,5.31,0,0,0,3.77,1.54,3.12,3.12,0,0,0,3.39-3.05c0-1.85-1.31-2.92-3.28-2.92a5.06,5.06,0,0,0-2.73.8l-.92-.59.44-6.44h7.58v1.51h-6.05l-.36,3.95a5.7,5.7,0,0,1,2.48-.55c2.56,0,4.6,1.3,4.6,4.2s-2.39,4.54-5,4.54A6.72,6.72,0,0,1,644.83,378Z" transform="translate(-178.07 -110.84)"/><path class="a" d="M657.91,378.46l1-1.09a4,4,0,0,0,2.67,1.05c2.16,0,4.07-1.54,4.07-6,0-3.29-1.28-5.06-3.48-5.06a2.77,2.77,0,0,0-2.84,2.92,2.56,2.56,0,0,0,2.86,2.83,4.66,4.66,0,0,0,3.48-1.89l.07,1.37a5.56,5.56,0,0,1-3.89,1.83,3.79,3.79,0,0,1-4.15-4.14,4.31,4.31,0,0,1,4.45-4.3c2.92,0,5.14,2.14,5.14,6.44,0,5.38-2.71,7.46-5.61,7.46A5.39,5.39,0,0,1,657.91,378.46Z" transform="translate(-178.07 -110.84)"/><path class="a" d="M413.69,378.17h3.86v-9.83h-3v-1.13a9.71,9.71,0,0,0,3.44-1h1.3v11.95h3.49v1.44h-9.09Z" transform="translate(-178.07 -110.84)"/><path class="a" d="M425.91,378.46l1-1.09a4,4,0,0,0,2.67,1.05c2.16,0,4.07-1.54,4.07-6,0-3.29-1.28-5.06-3.48-5.06a2.77,2.77,0,0,0-2.84,2.92,2.56,2.56,0,0,0,2.86,2.83,4.66,4.66,0,0,0,3.48-1.89l.07,1.37a5.56,5.56,0,0,1-3.89,1.83,3.79,3.79,0,0,1-4.15-4.14,4.31,4.31,0,0,1,4.45-4.3c2.92,0,5.14,2.14,5.14,6.44,0,5.38-2.71,7.46-5.61,7.46A5.39,5.39,0,0,1,425.91,378.46Z" transform="translate(-178.07 -110.84)"/><path class="a" d="M693.77,364.75h5.82v1h-4.43v16.08h4.43v1h-5.82Z" transform="translate(-178.07 -110.84)"/><path class="a" d="M703.27,373.42c0-5.38,2.68-7.45,5.6-7.45a5.36,5.36,0,0,1,3.74,1.42l-1,1.1a3.9,3.9,0,0,0-2.66-1.07c-2.19,0-4.08,1.53-4.08,6,0,3.3,1.26,5.08,3.49,5.08a2.78,2.78,0,0,0,2.81-2.94,2.54,2.54,0,0,0-2.83-2.83,4.69,4.69,0,0,0-3.51,1.89l-.06-1.37a5.68,5.68,0,0,1,3.88-1.83,3.81,3.81,0,0,1,4.18,4.14,4.33,4.33,0,0,1-4.47,4.31C705.47,379.87,703.27,377.72,703.27,373.42Z" transform="translate(-178.07 -110.84)"/><path class="a" d="M716.29,378.17h3.86v-9.83h-3v-1.13a9.71,9.71,0,0,0,3.44-1h1.3v11.95h3.49v1.44h-9.09Z" transform="translate(-178.07 -110.84)"/><path class="a" d="M728.91,381.82h4.43V365.74h-4.43v-1h5.81V382.8h-5.81Z" transform="translate(-178.07 -110.84)"/><path class="a" d="M767.61,378.46l1-1.09a4,4,0,0,0,2.67,1.05c2.16,0,4.07-1.54,4.07-6,0-3.29-1.28-5.06-3.48-5.06a2.77,2.77,0,0,0-2.84,2.92,2.56,2.56,0,0,0,2.86,2.83,4.66,4.66,0,0,0,3.48-1.89l.07,1.37a5.56,5.56,0,0,1-3.89,1.83,3.79,3.79,0,0,1-4.15-4.14,4.31,4.31,0,0,1,4.45-4.3c2.92,0,5.14,2.14,5.14,6.44,0,5.38-2.71,7.46-5.6,7.46A5.4,5.4,0,0,1,767.61,378.46Z" transform="translate(-178.07 -110.84)"/><path class="a" d="M825.61,378.46l1-1.09a4,4,0,0,0,2.67,1.05c2.16,0,4.07-1.54,4.07-6,0-3.29-1.28-5.06-3.48-5.06a2.77,2.77,0,0,0-2.84,2.92,2.56,2.56,0,0,0,2.86,2.83,4.66,4.66,0,0,0,3.48-1.89l.07,1.37a5.56,5.56,0,0,1-3.89,1.83,3.79,3.79,0,0,1-4.15-4.14,4.31,4.31,0,0,1,4.45-4.3c2.92,0,5.14,2.14,5.14,6.44,0,5.38-2.71,7.46-5.6,7.46A5.4,5.4,0,0,1,825.61,378.46Z" transform="translate(-178.07 -110.84)"/><path class="a" d="M188,414.17h3.86v-9.83h-3v-1.13a9.71,9.71,0,0,0,3.44-1h1.3v11.95h3.49v1.44H188Z" transform="translate(-178.07 -110.84)"/><path class="a" d="M245.12,414l.87-1.16a5.32,5.32,0,0,0,3.78,1.54,3.12,3.12,0,0,0,3.38-3.05c0-1.85-1.31-2.92-3.28-2.92a5.06,5.06,0,0,0-2.73.8l-.92-.59.44-6.44h7.58v1.51h-6.05l-.36,3.95a5.7,5.7,0,0,1,2.48-.55c2.56,0,4.6,1.3,4.6,4.2s-2.39,4.54-5,4.54A6.76,6.76,0,0,1,245.12,414Z" transform="translate(-178.07 -110.84)"/><path class="a" d="M297.69,414.17h3.86v-9.83h-3v-1.13a9.71,9.71,0,0,0,3.44-1h1.3v11.95h3.49v1.44h-9.09Z" transform="translate(-178.07 -110.84)"/><path class="a" d="M310.29,414.17h3.86v-9.83h-3v-1.13a9.71,9.71,0,0,0,3.44-1h1.3v11.95h3.49v1.44h-9.09Z" transform="translate(-178.07 -110.84)"/><path class="a" d="M355.69,414.17h3.86v-9.83h-3v-1.13a9.71,9.71,0,0,0,3.44-1h1.3v11.95h3.49v1.44h-9.09Z" transform="translate(-178.07 -110.84)"/><path class="a" d="M367.42,414l.87-1.16a5.31,5.31,0,0,0,3.77,1.54,3.12,3.12,0,0,0,3.39-3.05c0-1.85-1.31-2.92-3.28-2.92a5,5,0,0,0-2.73.8l-.92-.59.44-6.44h7.58v1.51h-6.05l-.36,3.95a5.7,5.7,0,0,1,2.48-.55c2.56,0,4.6,1.3,4.6,4.2s-2.39,4.54-5,4.54A6.76,6.76,0,0,1,367.42,414Z" transform="translate(-178.07 -110.84)"/><path class="a" d="M471.18,414.58c4.54-4,7-6.36,7-8.58,0-1.54-.93-2.61-2.9-2.61a4.66,4.66,0,0,0-3.22,1.6l-1-1a6,6,0,0,1,4.43-2c2.69,0,4.37,1.57,4.37,3.94s-2.52,5-6.16,8.32c.84-.06,1.7-.11,2.5-.11h4.39v1.49h-9.43Z" transform="translate(-178.07 -110.84)"/><path class="a" d="M483.87,409.42c0-5.38,2.68-7.45,5.6-7.45a5.36,5.36,0,0,1,3.74,1.42l-1,1.1a3.9,3.9,0,0,0-2.66-1.07c-2.19,0-4.08,1.53-4.08,6,0,3.3,1.26,5.08,3.49,5.08a2.78,2.78,0,0,0,2.81-2.94,2.54,2.54,0,0,0-2.83-2.83,4.69,4.69,0,0,0-3.51,1.89l-.06-1.37a5.68,5.68,0,0,1,3.88-1.83,3.81,3.81,0,0,1,4.18,4.14,4.33,4.33,0,0,1-4.47,4.31C486.07,415.87,483.87,413.72,483.87,409.42Z" transform="translate(-178.07 -110.84)"/><path class="a" d="M528.85,414l.88-1.14a5.41,5.41,0,0,0,3.84,1.58c1.83,0,3.19-.95,3.19-2.44s-1.34-2.67-4.85-2.67V408c3.17,0,4.39-1.09,4.39-2.5s-1.11-2.1-2.73-2.1a5.08,5.08,0,0,0-3.3,1.35l-.92-1.09a6.46,6.46,0,0,1,4.28-1.68c2.52,0,4.43,1.24,4.43,3.4,0,1.61-1.19,2.64-2.85,3.19v.08c1.78.38,3.32,1.56,3.32,3.4,0,2.38-2.19,3.83-4.85,3.83A6.58,6.58,0,0,1,528.85,414Z" transform="translate(-178.07 -110.84)"/><path class="a" d="M549.42,403.73h-7.7v-1.51h9.7v1.07c-3.55,4-4.41,7.07-4.62,12.32H545A17.91,17.91,0,0,1,549.42,403.73Z" transform="translate(-178.07 -110.84)"/><path class="a" d="M593.38,406.4c0-.74.06-1.64.1-2.38h-.1c-.44.65-.93,1.31-1.37,2l-3.61,4.53h8.69v1.41H586.47v-1.16l6.67-8.54H595v13.39h-1.63Z" transform="translate(-178.07 -110.84)"/><path class="a" d="M599.68,412.19c0-1.85,1.42-2.9,2.87-3.57v-.08a3.77,3.77,0,0,1-2-3.13c0-2.06,1.74-3.44,4.13-3.44,2.63,0,4.16,1.49,4.16,3.57a4.21,4.21,0,0,1-2,3.19v.08c1.47.74,2.63,1.58,2.63,3.49s-1.74,3.57-4.81,3.57S599.68,414.31,599.68,412.19Zm8.06,0c0-1.84-1.87-2.33-4.2-3.1-1.3.69-2.29,1.55-2.29,2.89s1.32,2.54,3.38,2.54S607.74,413.62,607.74,412.23Zm-.44-6.61a2.39,2.39,0,0,0-2.69-2.35,2.22,2.22,0,0,0-2.5,2.14c0,1.59,1.53,2.27,3.53,2.9A3.41,3.41,0,0,0,607.3,405.62Z" transform="translate(-178.07 -110.84)"/><path class="a" d="M644.83,414l.86-1.16a5.31,5.31,0,0,0,3.77,1.54,3.12,3.12,0,0,0,3.39-3.05c0-1.85-1.31-2.92-3.28-2.92a5.06,5.06,0,0,0-2.73.8l-.92-.59.44-6.44h7.58v1.51h-6.05l-.36,3.95a5.7,5.7,0,0,1,2.48-.55c2.56,0,4.6,1.3,4.6,4.2s-2.39,4.54-5,4.54A6.72,6.72,0,0,1,644.83,414Z" transform="translate(-178.07 -110.84)"/><path class="a" d="M657.91,414.46l1-1.09a4,4,0,0,0,2.67,1.05c2.16,0,4.07-1.54,4.07-6,0-3.29-1.28-5.06-3.48-5.06a2.77,2.77,0,0,0-2.84,2.92,2.56,2.56,0,0,0,2.86,2.83,4.66,4.66,0,0,0,3.48-1.89l.07,1.37a5.56,5.56,0,0,1-3.89,1.83,3.79,3.79,0,0,1-4.15-4.14,4.31,4.31,0,0,1,4.45-4.3c2.92,0,5.14,2.14,5.14,6.44,0,5.38-2.71,7.46-5.61,7.46A5.39,5.39,0,0,1,657.91,414.46Z" transform="translate(-178.07 -110.84)"/><path class="a" d="M413.69,414.17h3.86v-9.83h-3v-1.13a9.71,9.71,0,0,0,3.44-1h1.3v11.95h3.49v1.44h-9.09Z" transform="translate(-178.07 -110.84)"/><path class="a" d="M425.91,414.46l1-1.09a4,4,0,0,0,2.67,1.05c2.16,0,4.07-1.54,4.07-6,0-3.29-1.28-5.06-3.48-5.06a2.77,2.77,0,0,0-2.84,2.92,2.56,2.56,0,0,0,2.86,2.83,4.66,4.66,0,0,0,3.48-1.89l.07,1.37a5.56,5.56,0,0,1-3.89,1.83,3.79,3.79,0,0,1-4.15-4.14,4.31,4.31,0,0,1,4.45-4.3c2.92,0,5.14,2.14,5.14,6.44,0,5.38-2.71,7.46-5.61,7.46A5.39,5.39,0,0,1,425.91,414.46Z" transform="translate(-178.07 -110.84)"/><path class="a" d="M703.27,409.42c0-5.38,2.68-7.45,5.6-7.45a5.36,5.36,0,0,1,3.74,1.42l-1,1.1a3.9,3.9,0,0,0-2.66-1.07c-2.19,0-4.08,1.53-4.08,6,0,3.3,1.26,5.08,3.49,5.08a2.78,2.78,0,0,0,2.81-2.94,2.54,2.54,0,0,0-2.83-2.83,4.69,4.69,0,0,0-3.51,1.89l-.06-1.37a5.68,5.68,0,0,1,3.88-1.83,3.81,3.81,0,0,1,4.18,4.14,4.33,4.33,0,0,1-4.47,4.31C705.47,415.87,703.27,413.72,703.27,409.42Z" transform="translate(-178.07 -110.84)"/><path class="a" d="M716.29,414.17h3.86v-9.83h-3v-1.13a9.71,9.71,0,0,0,3.44-1h1.3v11.95h3.49v1.44h-9.09Z" transform="translate(-178.07 -110.84)"/><path class="a" d="M239.73,110.84H244c2.79,0,4.83,1,4.83,3.88s-2,4.08-4.83,4.08h-2.52v5.81h-1.78Zm4.05,6.53c2.14,0,3.32-.88,3.32-2.65s-1.18-2.45-3.32-2.45h-2.27v5.1Zm1.28,0,4.2,7.22h-2l-3.59-6.3Z" transform="translate(-178.07 -110.84)"/><path class="a" d="M253.92,127.17h6.32v1.16h-6.32Zm2.59-5.29H254.3V121a4.94,4.94,0,0,0,2.46-.86h1.11v8.19h-1.36Z" transform="translate(-178.07 -110.84)"/><path class="a" d="M297.73,110.84H302c2.79,0,4.83,1,4.83,3.88s-2,4.08-4.83,4.08h-2.52v5.81h-1.78Zm4,6.53c2.14,0,3.32-.88,3.32-2.65s-1.18-2.45-3.32-2.45h-2.27v5.1Zm1.28,0,4.2,7.22h-2l-3.59-6.3Z" transform="translate(-178.07 -110.84)"/><path class="a" d="M311.57,127.55c2.81-2.39,4.3-3.57,4.3-4.81a1.62,1.62,0,0,0-1.78-1.7,2.53,2.53,0,0,0-2,1.18l-.8-.74a3.6,3.6,0,0,1,3-1.59c1.74,0,2.93.92,2.93,2.67,0,1.57-1.47,2.75-3.46,4.61h3.86v1.16h-6Z" transform="translate(-178.07 -110.84)"/><path class="a" d="M355.73,110.84H360c2.79,0,4.83,1,4.83,3.88s-2,4.08-4.83,4.08h-2.52v5.81h-1.78Zm4,6.53c2.14,0,3.32-.88,3.32-2.65s-1.18-2.45-3.32-2.45h-2.27v5.1Zm1.28,0,4.2,7.22h-2l-3.59-6.3Z" transform="translate(-178.07 -110.84)"/><path class="a" d="M369.23,127l.88-.7a2.74,2.74,0,0,0,2.29,1.22c1,0,1.85-.52,1.85-1.45s-.88-1.45-2.75-1.45v-.86c1.66,0,2.43-.65,2.43-1.49s-.67-1.28-1.68-1.28a2.58,2.58,0,0,0-1.89,1l-.79-.72a3.56,3.56,0,0,1,2.87-1.36c1.54,0,2.84.84,2.84,2.2,0,1-.55,1.6-1.64,2a2.09,2.09,0,0,1,1.95,2c0,1.52-1.4,2.46-3.11,2.46A3.87,3.87,0,0,1,369.23,127Z" transform="translate(-178.07 -110.84)"/><path class="a" d="M413.73,110.84H418c2.79,0,4.83,1,4.83,3.88s-2,4.08-4.83,4.08h-2.52v5.81h-1.78Zm4,6.53c2.14,0,3.32-.88,3.32-2.65s-1.18-2.45-3.32-2.45h-2.27v5.1Zm1.28,0,4.2,7.22h-2l-3.59-6.3Z" transform="translate(-178.07 -110.84)"/><path class="a" d="M427.36,125.45l3.21-5.56,1,.55-2.75,4.74H434v1h-6.59Zm4.15-2.71h1.22v5.59h-1.22Z" transform="translate(-178.07 -110.84)"/><path class="a" d="M471.73,110.84H476c2.79,0,4.83,1,4.83,3.88s-2,4.08-4.83,4.08h-2.52v5.81h-1.78Zm4,6.53c2.14,0,3.32-.88,3.32-2.65s-1.18-2.45-3.32-2.45h-2.27v5.1Zm1.28,0,4.2,7.22h-2l-3.59-6.3Z" transform="translate(-178.07 -110.84)"/><path class="a" d="M485.23,127l.88-.7a2.69,2.69,0,0,0,2.33,1.22,1.78,1.78,0,0,0,1.89-1.8,1.81,1.81,0,0,0-2-1.79,2.48,2.48,0,0,0-1.66.65l-.67-.46.39-4h4.9v1.2h-3.8l-.21,2a3.58,3.58,0,0,1,1.51-.31,2.67,2.67,0,0,1,2.9,2.75,2.88,2.88,0,0,1-3.15,2.81A3.86,3.86,0,0,1,485.23,127Z" transform="translate(-178.07 -110.84)"/><path class="a" d="M529.73,110.84H534c2.79,0,4.83,1,4.83,3.88s-2,4.08-4.83,4.08h-2.52v5.81h-1.78Zm4,6.53c2.14,0,3.32-.88,3.32-2.65s-1.18-2.45-3.32-2.45h-2.27v5.1Zm1.28,0,4.2,7.22h-2l-3.59-6.3Z" transform="translate(-178.07 -110.84)"/><path class="a" d="M543.42,124.47c0-3.11,1.64-4.58,3.78-4.58a3.56,3.56,0,0,1,2.22.65l-.56.94a2.69,2.69,0,0,0-1.62-.5c-1.45,0-2.56,1.16-2.56,3.61,0,1.93.88,2.92,2.12,2.92a1.61,1.61,0,0,0,1.68-1.68,1.59,1.59,0,0,0-1.76-1.66,2.64,2.64,0,0,0-2.12,1l-.05-1a3.25,3.25,0,0,1,2.42-1,2.5,2.5,0,0,1,2.77,2.62,2.79,2.79,0,0,1-2.92,2.77C544.74,128.58,543.42,127,543.42,124.47Z" transform="translate(-178.07 -110.84)"/><path class="a" d="M587.73,110.84H592c2.79,0,4.83,1,4.83,3.88s-2,4.08-4.83,4.08h-2.52v5.81h-1.78Zm4,6.53c2.14,0,3.32-.88,3.32-2.65s-1.18-2.45-3.32-2.45h-2.27v5.1Zm1.28,0,4.2,7.22h-2l-3.59-6.3Z" transform="translate(-178.07 -110.84)"/><path class="a" d="M606.16,121.32h-4.64v-1.18h6.16v.76a11.74,11.74,0,0,0-2.82,7.43h-1.42A12,12,0,0,1,606.16,121.32Z" transform="translate(-178.07 -110.84)"/><path class="a" d="M645.73,110.84H650c2.79,0,4.83,1,4.83,3.88s-2,4.08-4.83,4.08h-2.52v5.81h-1.78Zm4,6.53c2.14,0,3.32-.88,3.32-2.65s-1.18-2.45-3.32-2.45h-2.27v5.1Zm1.28,0,4.2,7.22h-2l-3.59-6.3Z" transform="translate(-178.07 -110.84)"/><path class="a" d="M659.42,126.33a2.56,2.56,0,0,1,1.76-2.3v-.09c-.92-.52-1.42-1-1.42-1.89,0-1.28,1.09-2.16,2.77-2.16s2.81.84,2.81,2.16a2.22,2.22,0,0,1-1.45,2v.08c1.18.52,1.72,1.15,1.72,2.18,0,1.3-1.17,2.29-3.08,2.29S659.42,127.57,659.42,126.33Zm4.93-.1c0-1-1.11-1.26-2.33-1.74-.94.48-1.32,1.05-1.32,1.74s.59,1.39,1.83,1.39S664.35,127,664.35,126.23Zm-.27-4.12c0-.73-.59-1.19-1.57-1.19s-1.49.5-1.49,1.17.81,1.2,2,1.58C663.85,123.1,664.08,122.66,664.08,122.11Z" transform="translate(-178.07 -110.84)"/><path class="a" d="M703.73,110.84H708c2.79,0,4.83,1,4.83,3.88s-2,4.08-4.83,4.08h-2.52v5.81h-1.78Zm4,6.53c2.14,0,3.32-.88,3.32-2.65s-1.18-2.45-3.32-2.45h-2.27v5.1Zm1.28,0,4.2,7.22h-2l-3.59-6.3Z" transform="translate(-178.07 -110.84)"/><path class="a" d="M717.63,128l.55-.94a2.87,2.87,0,0,0,1.63.5c1.45,0,2.54-1.15,2.54-3.61,0-1.93-.86-2.92-2.1-2.92a1.67,1.67,0,1,0,.09,3.34,2.67,2.67,0,0,0,2.12-1l0,1a3.21,3.21,0,0,1-2.42,1,2.51,2.51,0,0,1-2.77-2.61,2.82,2.82,0,0,1,2.94-2.79c2.08,0,3.4,1.55,3.4,4.14,0,3.08-1.65,4.55-3.77,4.55A3.61,3.61,0,0,1,717.63,128Z" transform="translate(-178.07 -110.84)"/><path class="a" d="M758.9,122.33v-6.75h-2.41v-.94h3.57v7.77a1.23,1.23,0,0,0,1.34,1.4,3.11,3.11,0,0,0,1.28-.3l.29.87a4.22,4.22,0,0,1-1.82.4C759.69,124.78,758.9,123.94,758.9,122.33Z" transform="translate(-178.07 -110.84)"/><path class="a" d="M764.8,121.2a3.42,3.42,0,0,1,3.48-3.56,2.92,2.92,0,0,1,3.1,3.19,4.49,4.49,0,0,1,0,.7h-5.76v-.89h5.07l-.29.32c0-1.61-.8-2.41-2.05-2.41A2.4,2.4,0,0,0,766,121.2a2.47,2.47,0,0,0,2.66,2.66,3.71,3.71,0,0,0,2.07-.65l.42.76a4.64,4.64,0,0,1-2.63.81A3.45,3.45,0,0,1,764.8,121.2Z" transform="translate(-178.07 -110.84)"/><path class="a" d="M773.69,117.88l2-.07h4v.93h-5.94Zm1.95-.65a2.49,2.49,0,0,1,2.74-2.76,5.2,5.2,0,0,1,2,.39l-.27.87a3.67,3.67,0,0,0-1.58-.32c-1.22,0-1.71.69-1.71,1.78v7.42h-1.15Z" transform="translate(-178.07 -110.84)"/><path class="a" d="M783.53,122v-3.23H781.6v-.86l2-.07.15-2.19h1v2.19H788v.93H784.7V122c0,1.22.4,1.85,1.72,1.85a4.49,4.49,0,0,0,1.62-.31l.26.86a6.08,6.08,0,0,1-2.13.4C784.18,124.78,783.53,123.65,783.53,122Z" transform="translate(-178.07 -110.84)"/><path class="a" d="M811.28,117.81h1l.11,1.61h0a3.58,3.58,0,0,1,3-1.78,2.86,2.86,0,0,1,1.34.28l-.27,1a3.44,3.44,0,0,0-1.26-.22,3.19,3.19,0,0,0-2.8,2v4h-1.16Z" transform="translate(-178.07 -110.84)"/><path class="a" d="M822.06,118.74h-3.15v-.93h4.31v6.8h-1.16Zm-.46-3.26a.93.93,0,1,1,.92.9A.87.87,0,0,1,821.6,115.48Z" transform="translate(-178.07 -110.84)"/><path class="a" d="M827.06,125.86a1.87,1.87,0,0,1,1.12-1.51v-.06a1.22,1.22,0,0,1-.7-1.12,1.65,1.65,0,0,1,.81-1.27v-.06a2.18,2.18,0,0,1-.84-1.77,2.49,2.49,0,0,1,2.67-2.43,2.57,2.57,0,0,1,1,.17H834v.93h-1.77a2.08,2.08,0,0,1,.58,1.38,2.39,2.39,0,0,1-2.64,2.34,2.85,2.85,0,0,1-1.14-.26,1,1,0,0,0-.54.79c0,.53.52.78,1.42.78h1.53c1.75,0,2.59.45,2.59,1.6s-1.47,2.38-3.78,2.38C828.21,127.75,827.06,127.06,827.06,125.86Zm5.78-.31c0-.64-.52-.82-1.55-.82H830a3.58,3.58,0,0,1-1-.12c-.64.35-.87.75-.87,1.14,0,.71.77,1.16,2.23,1.16S832.84,126.25,832.84,125.55Zm-1.15-5.48a1.57,1.57,0,1,0-1.57,1.62A1.53,1.53,0,0,0,831.69,120.07Z" transform="translate(-178.07 -110.84)"/><path class="a" d="M835.75,114.64h1.16v2.72l-.07,1.61h0a3.38,3.38,0,0,1,2.53-1.33c1.61,0,2.35,1,2.35,2.74v4.23h-1.16v-4.07c0-1.29-.45-1.89-1.55-1.89-.82,0-1.36.4-2.15,1.21v4.75h-1.16Z" transform="translate(-178.07 -110.84)"/><path class="a" d="M845.73,122v-3.23H843.8v-.86l2-.07.15-2.19h1v2.19h3.33v.93H846.9V122c0,1.22.4,1.85,1.72,1.85a4.49,4.49,0,0,0,1.62-.31l.26.86a6.08,6.08,0,0,1-2.13.4C846.38,124.78,845.73,123.65,845.73,122Z" transform="translate(-178.07 -110.84)"/></svg>