<svg id="图层_1" data-name="图层 1" xmlns="http://www.w3.org/2000/svg" viewBox="0 0 737 137"><defs><style>.cls-1{fill:none;}.cls-1,.cls-2{stroke:#3ea69f;stroke-miterlimit:10;}.cls-2{fill:#fff;}</style></defs><circle class="cls-1" cx="18.5" cy="18.5" r="18"/><circle class="cls-1" cx="118.5" cy="18.5" r="18"/><circle class="cls-1" cx="118.5" cy="118.5" r="18"/><circle class="cls-1" cx="18.5" cy="118.5" r="18"/><line class="cls-2" x1="36.5" y1="18.5" x2="100.5" y2="18.5"/><line class="cls-2" x1="118.5" y1="36.5" x2="118.5" y2="100.5"/><line class="cls-2" x1="36.5" y1="118.5" x2="100.5" y2="118.5"/><circle class="cls-1" cx="618.5" cy="18.5" r="18"/><circle class="cls-1" cx="718.5" cy="18.5" r="18"/><circle class="cls-1" cx="718.5" cy="118.5" r="18"/><circle class="cls-1" cx="618.5" cy="118.5" r="18"/><line class="cls-2" x1="636.5" y1="18.5" x2="700.5" y2="18.5"/><line class="cls-2" x1="718.5" y1="36.5" x2="718.5" y2="100.5"/><line class="cls-2" x1="636.5" y1="118.5" x2="700.5" y2="118.5"/><line class="cls-2" x1="18.5" y1="100.5" x2="18.5" y2="36.5"/><circle class="cls-1" cx="218.5" cy="18.5" r="18"/><circle class="cls-1" cx="318.5" cy="18.5" r="18"/><circle class="cls-1" cx="318.5" cy="118.5" r="18"/><circle class="cls-1" cx="218.5" cy="118.5" r="18"/><line class="cls-2" x1="236.5" y1="18.5" x2="300.5" y2="18.5"/><line class="cls-2" x1="318.5" y1="36.5" x2="318.5" y2="100.5"/><line class="cls-2" x1="218.5" y1="100.5" x2="218.5" y2="36.5"/><line class="cls-2" x1="31.46" y1="30.98" x2="106.02" y2="105.55"/><line class="cls-2" x1="31.46" y1="105.55" x2="105.78" y2="31.23"/><circle class="cls-1" cx="418.5" cy="18.5" r="18"/><circle class="cls-1" cx="518.5" cy="18.5" r="18"/><circle class="cls-1" cx="518.5" cy="118.5" r="18"/><circle class="cls-1" cx="418.5" cy="118.5" r="18"/><line class="cls-2" x1="436.5" y1="118.5" x2="500.5" y2="118.5"/><line class="cls-2" x1="418.5" y1="100.5" x2="418.5" y2="36.5"/><line class="cls-2" x1="431.46" y1="105.55" x2="505.78" y2="31.23"/></svg>