<svg id="图层_1" data-name="图层 1" xmlns="http://www.w3.org/2000/svg" viewBox="0 0 1003.39 181.44"><defs><style>.cls-1{fill:none;}.cls-1,.cls-3{stroke:#3ea69f;stroke-miterlimit:10;}.cls-2,.cls-3{fill:#3ea69f;}</style></defs><rect class="cls-1" x="123.88" y="0.5" width="88.47" height="32.96"/><line class="cls-1" x1="179.98" y1="0.5" x2="179.98" y2="33.46"/><path class="cls-2" d="M283.7,311.6h4V301.43h-3.11v-1.17a10.2,10.2,0,0,0,3.56-1h1.35V311.6h3.61v1.5H283.7Z" transform="translate(-136.83 -289.5)"/><rect class="cls-1" x="431.53" y="0.5" width="128.36" height="32.96"/><line class="cls-1" x1="487.63" y1="0.5" x2="487.63" y2="33.46"/><path class="cls-2" d="M590.48,311.4l.91-1.17a5.59,5.59,0,0,0,4,1.63c1.89,0,3.3-1,3.3-2.52s-1.39-2.76-5-2.76v-1.37c3.28,0,4.54-1.13,4.54-2.59s-1.15-2.17-2.82-2.17a5.23,5.23,0,0,0-3.41,1.39l-1-1.13a6.71,6.71,0,0,1,4.43-1.74c2.61,0,4.59,1.29,4.59,3.53,0,1.67-1.24,2.73-3,3.3v.08c1.85.4,3.43,1.61,3.43,3.52,0,2.46-2.26,4-5,4A6.79,6.79,0,0,1,590.48,311.4Z" transform="translate(-136.83 -289.5)"/><path class="cls-2" d="M636.6,299.1h2.54l3.6,7.64,1.23,2.91H644c-.1-1.4-.33-3.12-.33-4.64V299.1H646v13.6h-2.54l-3.6-7.65-1.24-2.9h0c.1,1.45.33,3.09.33,4.6v5.95H636.6Z" transform="translate(-136.83 -289.5)"/><path class="cls-2" d="M649,307.51V299.1h2.44v8.59c0,2.21.9,3.16,2.35,3.16s2.4-1,2.4-3.16V299.1h2.33v8.41c0,3.72-1.74,5.44-4.73,5.44S649,311.23,649,307.51Z" transform="translate(-136.83 -289.5)"/><path class="cls-2" d="M662.54,299.1h2.4v11.57h6.39v2h-8.79Z" transform="translate(-136.83 -289.5)"/><path class="cls-2" d="M675,299.1h2.4v11.57h6.39v2H675Z" transform="translate(-136.83 -289.5)"/><rect class="cls-1" x="276.88" y="0.5" width="88.47" height="32.96"/><line class="cls-1" x1="332.98" y1="0.5" x2="332.98" y2="33.46"/><path class="cls-2" d="M436.18,312c4.69-4.15,7.26-6.58,7.26-8.88,0-1.59-1-2.7-3-2.7a4.78,4.78,0,0,0-3.33,1.65l-1-1a6.18,6.18,0,0,1,4.58-2.11c2.79,0,4.52,1.63,4.52,4.09,0,2.61-2.6,5.19-6.36,8.6.87-.06,1.76-.1,2.58-.1h4.54v1.54h-9.75Z" transform="translate(-136.83 -289.5)"/><rect class="cls-3" x="23.17" y="0.5" width="34.18" height="32.96"/><path class="cls-2" d="M137.13,306.12c0-4.65,1.9-7.15,5-7.15s5,2.5,5,7.15-1.89,7.24-5,7.24S137.13,310.73,137.13,306.12Zm8.28,0c0-4-1.37-5.69-3.3-5.69s-3.3,1.72-3.3,5.69,1.37,5.78,3.3,5.78S145.41,310.1,145.41,306.12Zm-4.65-.15a1.35,1.35,0,1,1,2.7,0,1.35,1.35,0,1,1-2.7,0Z" transform="translate(-136.83 -289.5)"/><line class="cls-1" x1="40" y1="17.85" x2="99.88" y2="17.85"/><path class="cls-2" d="M242.75,307.35a30.1,30.1,0,0,0-8.55,4.76l1.72-4.76-1.72-4.75A30.31,30.31,0,0,0,242.75,307.35Z" transform="translate(-136.83 -289.5)"/><line class="cls-1" x1="348" y1="17.85" x2="407.88" y2="17.85"/><path class="cls-2" d="M550.75,307.35a30.1,30.1,0,0,0-8.55,4.76l1.72-4.76-1.72-4.75A30.31,30.31,0,0,0,550.75,307.35Z" transform="translate(-136.83 -289.5)"/><line class="cls-1" x1="195" y1="17.85" x2="254.88" y2="17.85"/><path class="cls-2" d="M397.75,307.35a30.1,30.1,0,0,0-8.55,4.76l1.72-4.76-1.72-4.75A30.31,30.31,0,0,0,397.75,307.35Z" transform="translate(-136.83 -289.5)"/><rect class="cls-1" x="123.88" y="38.5" width="88.47" height="32.96"/><line class="cls-1" x1="179.98" y1="38.5" x2="179.98" y2="71.46"/><path class="cls-2" d="M283.13,344.12c0-4.65,1.9-7.15,5-7.15s5,2.5,5,7.15-1.89,7.24-5,7.24S283.13,348.73,283.13,344.12Zm8.28,0c0-4-1.37-5.69-3.3-5.69s-3.3,1.72-3.3,5.69,1.37,5.78,3.3,5.78S291.41,348.1,291.41,344.12Zm-4.65-.15a1.35,1.35,0,1,1,2.7,0,1.35,1.35,0,1,1-2.7,0Z" transform="translate(-136.83 -289.5)"/><rect class="cls-1" x="431.53" y="38.5" width="128.36" height="32.96"/><line class="cls-1" x1="487.63" y1="38.5" x2="487.63" y2="71.46"/><path class="cls-2" d="M590.48,349.4l.91-1.17a5.59,5.59,0,0,0,4,1.63c1.89,0,3.3-1,3.3-2.52s-1.39-2.76-5-2.76v-1.37c3.28,0,4.54-1.13,4.54-2.59s-1.15-2.17-2.82-2.17a5.23,5.23,0,0,0-3.41,1.39l-1-1.13a6.71,6.71,0,0,1,4.43-1.74c2.61,0,4.59,1.29,4.59,3.53,0,1.67-1.24,2.73-3,3.3v.08c1.85.4,3.43,1.61,3.43,3.52,0,2.46-2.26,4-5,4A6.79,6.79,0,0,1,590.48,349.4Z" transform="translate(-136.83 -289.5)"/><path class="cls-2" d="M636.6,337.1h2.54l3.6,7.64,1.23,2.91H644c-.1-1.4-.33-3.12-.33-4.64V337.1H646v13.6h-2.54l-3.6-7.65-1.24-2.9h0c.1,1.45.33,3.09.33,4.6v5.95H636.6Z" transform="translate(-136.83 -289.5)"/><path class="cls-2" d="M649,345.51V337.1h2.44v8.59c0,2.21.9,3.16,2.35,3.16s2.4-1,2.4-3.16V337.1h2.33v8.41c0,3.72-1.74,5.44-4.73,5.44S649,349.23,649,345.51Z" transform="translate(-136.83 -289.5)"/><path class="cls-2" d="M662.54,337.1h2.4v11.57h6.39v2h-8.79Z" transform="translate(-136.83 -289.5)"/><path class="cls-2" d="M675,337.1h2.4v11.57h6.39v2H675Z" transform="translate(-136.83 -289.5)"/><rect class="cls-1" x="276.88" y="38.5" width="88.47" height="32.96"/><line class="cls-1" x1="332.98" y1="38.5" x2="332.98" y2="71.46"/><path class="cls-2" d="M436.18,350c4.69-4.15,7.26-6.58,7.26-8.88,0-1.59-1-2.7-3-2.7a4.78,4.78,0,0,0-3.33,1.65l-1-1a6.18,6.18,0,0,1,4.58-2.11c2.79,0,4.52,1.63,4.52,4.09,0,2.61-2.6,5.19-6.36,8.6.87-.06,1.76-.1,2.58-.1h4.54v1.54h-9.75Z" transform="translate(-136.83 -289.5)"/><rect class="cls-3" x="23.17" y="38.5" width="34.18" height="32.96"/><path class="cls-2" d="M137.7,349.6h4V339.43h-3.11v-1.17a10.2,10.2,0,0,0,3.56-1h1.35V349.6h3.61v1.5H137.7Z" transform="translate(-136.83 -289.5)"/><line class="cls-1" x1="40" y1="55.85" x2="99.88" y2="55.85"/><path class="cls-2" d="M242.75,345.35a30.1,30.1,0,0,0-8.55,4.76l1.72-4.76-1.72-4.75A30.31,30.31,0,0,0,242.75,345.35Z" transform="translate(-136.83 -289.5)"/><line class="cls-1" x1="348" y1="55.85" x2="407.88" y2="55.85"/><path class="cls-2" d="M550.75,345.35a30.1,30.1,0,0,0-8.55,4.76l1.72-4.76-1.72-4.75A30.31,30.31,0,0,0,550.75,345.35Z" transform="translate(-136.83 -289.5)"/><line class="cls-1" x1="195" y1="55.85" x2="254.88" y2="55.85"/><path class="cls-2" d="M397.75,345.35a30.1,30.1,0,0,0-8.55,4.76l1.72-4.76-1.72-4.75A30.31,30.31,0,0,0,397.75,345.35Z" transform="translate(-136.83 -289.5)"/><rect class="cls-1" x="123.88" y="76.5" width="88.47" height="32.96"/><line class="cls-1" x1="179.98" y1="76.5" x2="179.98" y2="109.46"/><path class="cls-2" d="M283.13,382.12c0-4.65,1.9-7.15,5-7.15s5,2.5,5,7.15-1.89,7.24-5,7.24S283.13,386.73,283.13,382.12Zm8.28,0c0-4-1.37-5.69-3.3-5.69s-3.3,1.72-3.3,5.69,1.37,5.78,3.3,5.78S291.41,386.1,291.41,382.12Zm-4.65-.15a1.35,1.35,0,1,1,2.7,0,1.35,1.35,0,1,1-2.7,0Z" transform="translate(-136.83 -289.5)"/><rect class="cls-1" x="431.53" y="76.5" width="128.36" height="32.96"/><line class="cls-1" x1="487.63" y1="76.5" x2="487.63" y2="109.46"/><path class="cls-2" d="M590.48,387.4l.91-1.17a5.59,5.59,0,0,0,4,1.63c1.89,0,3.3-1,3.3-2.52s-1.39-2.76-5-2.76v-1.37c3.28,0,4.54-1.13,4.54-2.59s-1.15-2.17-2.82-2.17a5.23,5.23,0,0,0-3.41,1.39l-1-1.13a6.71,6.71,0,0,1,4.43-1.74c2.61,0,4.59,1.29,4.59,3.53,0,1.67-1.24,2.73-3,3.3v.08c1.85.4,3.43,1.61,3.43,3.52,0,2.46-2.26,4-5,4A6.79,6.79,0,0,1,590.48,387.4Z" transform="translate(-136.83 -289.5)"/><path class="cls-2" d="M636.6,375.1h2.54l3.6,7.64,1.23,2.91H644c-.1-1.4-.33-3.12-.33-4.64V375.1H646v13.6h-2.54l-3.6-7.65-1.24-2.9h0c.1,1.45.33,3.09.33,4.6v5.95H636.6Z" transform="translate(-136.83 -289.5)"/><path class="cls-2" d="M649,383.51V375.1h2.44v8.59c0,2.21.9,3.16,2.35,3.16s2.4-1,2.4-3.16V375.1h2.33v8.41c0,3.72-1.74,5.44-4.73,5.44S649,387.23,649,383.51Z" transform="translate(-136.83 -289.5)"/><path class="cls-2" d="M662.54,375.1h2.4v11.57h6.39v2h-8.79Z" transform="translate(-136.83 -289.5)"/><path class="cls-2" d="M675,375.1h2.4v11.57h6.39v2H675Z" transform="translate(-136.83 -289.5)"/><rect class="cls-1" x="276.88" y="76.5" width="88.47" height="32.96"/><line class="cls-1" x1="332.98" y1="76.5" x2="332.98" y2="109.46"/><path class="cls-2" d="M436.7,387.6h4V377.43h-3.11v-1.17a10.2,10.2,0,0,0,3.56-1h1.35V387.6h3.61v1.5H436.7Z" transform="translate(-136.83 -289.5)"/><rect class="cls-3" x="23.17" y="76.5" width="34.18" height="32.96"/><path class="cls-2" d="M137.18,388c4.69-4.15,7.26-6.58,7.26-8.88,0-1.59-1-2.7-3-2.7a4.78,4.78,0,0,0-3.33,1.65l-1-1a6.18,6.18,0,0,1,4.58-2.11c2.79,0,4.52,1.63,4.52,4.09,0,2.61-2.6,5.19-6.36,8.6.87-.06,1.76-.1,2.58-.1h4.54v1.54h-9.75Z" transform="translate(-136.83 -289.5)"/><line class="cls-1" x1="40" y1="93.85" x2="99.88" y2="93.85"/><path class="cls-2" d="M242.75,383.35a30.1,30.1,0,0,0-8.55,4.76l1.72-4.76-1.72-4.75A30.31,30.31,0,0,0,242.75,383.35Z" transform="translate(-136.83 -289.5)"/><line class="cls-1" x1="348" y1="93.85" x2="407.88" y2="93.85"/><path class="cls-2" d="M550.75,383.35a30.1,30.1,0,0,0-8.55,4.76l1.72-4.76-1.72-4.75A30.31,30.31,0,0,0,550.75,383.35Z" transform="translate(-136.83 -289.5)"/><line class="cls-1" x1="195" y1="93.85" x2="254.88" y2="93.85"/><path class="cls-2" d="M397.75,383.35a30.1,30.1,0,0,0-8.55,4.76l1.72-4.76-1.72-4.75A30.31,30.31,0,0,0,397.75,383.35Z" transform="translate(-136.83 -289.5)"/><rect class="cls-1" x="123.88" y="114.5" width="88.47" height="32.96"/><line class="cls-1" x1="179.98" y1="114.5" x2="179.98" y2="147.46"/><path class="cls-2" d="M283.13,420.12c0-4.65,1.9-7.15,5-7.15s5,2.5,5,7.15-1.89,7.24-5,7.24S283.13,424.73,283.13,420.12Zm8.28,0c0-4-1.37-5.69-3.3-5.69s-3.3,1.72-3.3,5.69,1.37,5.78,3.3,5.78S291.41,424.1,291.41,420.12Zm-4.65-.15a1.35,1.35,0,1,1,2.7,0,1.35,1.35,0,1,1-2.7,0Z" transform="translate(-136.83 -289.5)"/><rect class="cls-1" x="431.53" y="114.5" width="128.36" height="32.96"/><line class="cls-1" x1="487.63" y1="114.5" x2="487.63" y2="147.46"/><path class="cls-2" d="M590.48,425.4l.91-1.17a5.59,5.59,0,0,0,4,1.63c1.89,0,3.3-1,3.3-2.52s-1.39-2.76-5-2.76v-1.37c3.28,0,4.54-1.13,4.54-2.59s-1.15-2.17-2.82-2.17a5.23,5.23,0,0,0-3.41,1.39l-1-1.13a6.71,6.71,0,0,1,4.43-1.74c2.61,0,4.59,1.29,4.59,3.53,0,1.67-1.24,2.73-3,3.3v.08c1.85.4,3.43,1.61,3.43,3.52,0,2.46-2.26,4-5,4A6.79,6.79,0,0,1,590.48,425.4Z" transform="translate(-136.83 -289.5)"/><path class="cls-2" d="M636.6,413.1h2.54l3.6,7.64,1.23,2.91H644c-.1-1.4-.33-3.12-.33-4.64V413.1H646v13.6h-2.54l-3.6-7.65-1.24-2.9h0c.1,1.45.33,3.09.33,4.6v5.95H636.6Z" transform="translate(-136.83 -289.5)"/><path class="cls-2" d="M649,421.51V413.1h2.44v8.59c0,2.21.9,3.16,2.35,3.16s2.4-1,2.4-3.16V413.1h2.33v8.41c0,3.72-1.74,5.44-4.73,5.44S649,425.23,649,421.51Z" transform="translate(-136.83 -289.5)"/><path class="cls-2" d="M662.54,413.1h2.4v11.57h6.39v2h-8.79Z" transform="translate(-136.83 -289.5)"/><path class="cls-2" d="M675,413.1h2.4v11.57h6.39v2H675Z" transform="translate(-136.83 -289.5)"/><rect class="cls-1" x="276.88" y="114.5" width="88.47" height="32.96"/><line class="cls-1" x1="332.98" y1="114.5" x2="332.98" y2="147.46"/><path class="cls-2" d="M436.7,425.6h4V415.43h-3.11v-1.17a10.2,10.2,0,0,0,3.56-1h1.35V425.6h3.61v1.5H436.7Z" transform="translate(-136.83 -289.5)"/><rect class="cls-3" x="23.17" y="114.5" width="34.18" height="32.96"/><path class="cls-2" d="M136.83,425.4l.91-1.17a5.63,5.63,0,0,0,4,1.63c1.89,0,3.3-1,3.3-2.52s-1.39-2.76-5-2.76v-1.37c3.28,0,4.54-1.13,4.54-2.59s-1.15-2.17-2.82-2.17a5.26,5.26,0,0,0-3.41,1.39l-1-1.13a6.71,6.71,0,0,1,4.43-1.74c2.61,0,4.59,1.29,4.59,3.53,0,1.67-1.24,2.73-3,3.3v.08c1.85.4,3.44,1.61,3.44,3.52,0,2.46-2.26,4-5,4A6.81,6.81,0,0,1,136.83,425.4Z" transform="translate(-136.83 -289.5)"/><line class="cls-1" x1="40" y1="131.85" x2="99.88" y2="131.85"/><path class="cls-2" d="M242.75,421.35a30.1,30.1,0,0,0-8.55,4.76l1.72-4.76-1.72-4.75A30.31,30.31,0,0,0,242.75,421.35Z" transform="translate(-136.83 -289.5)"/><line class="cls-1" x1="348" y1="131.85" x2="407.88" y2="131.85"/><path class="cls-2" d="M550.75,421.35a30.1,30.1,0,0,0-8.55,4.76l1.72-4.76-1.72-4.75A30.31,30.31,0,0,0,550.75,421.35Z" transform="translate(-136.83 -289.5)"/><line class="cls-1" x1="195" y1="131.85" x2="254.88" y2="131.85"/><path class="cls-2" d="M397.75,421.35a30.1,30.1,0,0,0-8.55,4.76l1.72-4.76-1.72-4.75A30.31,30.31,0,0,0,397.75,421.35Z" transform="translate(-136.83 -289.5)"/><path class="cls-2" d="M429.23,460c0-4.6,2.63-7.39,6.32-7.39a5.22,5.22,0,0,1,3.93,1.74l-1,1.15a3.72,3.72,0,0,0-2.89-1.28c-2.67,0-4.41,2.2-4.41,5.74s1.58,5.82,4.37,5.82a3.56,3.56,0,0,0,2.45-.82v-3.72h-2.82v-1.5h4.52v6a6,6,0,0,1-4.26,1.65C431.81,467.36,429.23,464.62,429.23,460Z" transform="translate(-136.83 -289.5)"/><path class="cls-2" d="M444.91,469.75h6.54v1.19h-6.54Zm2.68-5.48H445.3v-.91a5.07,5.07,0,0,0,2.55-.89H449v8.47h-1.41Z" transform="translate(-136.83 -289.5)"/><rect class="cls-1" x="721.53" y="0.5" width="128.36" height="32.96"/><line class="cls-1" x1="777.63" y1="0.5" x2="777.63" y2="33.46"/><path class="cls-2" d="M881.35,311.6h4V301.43h-3.1v-1.17a10.2,10.2,0,0,0,3.56-1h1.35V311.6h3.61v1.5h-9.41Z" transform="translate(-136.83 -289.5)"/><path class="cls-2" d="M926.6,299.1h2.54l3.6,7.64,1.23,2.91H934c-.1-1.4-.33-3.12-.33-4.64V299.1H936v13.6h-2.54l-3.6-7.65-1.24-2.9h0c.1,1.45.33,3.09.33,4.6v5.95H926.6Z" transform="translate(-136.83 -289.5)"/><path class="cls-2" d="M939,307.51V299.1h2.44v8.59c0,2.21.9,3.16,2.35,3.16s2.4-1,2.4-3.16V299.1h2.33v8.41c0,3.72-1.74,5.44-4.73,5.44S939,311.23,939,307.51Z" transform="translate(-136.83 -289.5)"/><path class="cls-2" d="M952.54,299.1h2.4v11.57h6.39v2h-8.79Z" transform="translate(-136.83 -289.5)"/><path class="cls-2" d="M965,299.1h2.4v11.57h6.39v2H965Z" transform="translate(-136.83 -289.5)"/><rect class="cls-3" x="621.17" y="0.5" width="34.18" height="32.96"/><path class="cls-2" d="M735.13,306.12c0-4.65,1.9-7.15,5-7.15s5,2.5,5,7.15-1.89,7.24-5,7.24S735.13,310.73,735.13,306.12Zm8.28,0c0-4-1.37-5.69-3.3-5.69s-3.3,1.72-3.3,5.69,1.37,5.78,3.3,5.78S743.41,310.1,743.41,306.12Zm-4.65-.15a1.35,1.35,0,1,1,2.7,0,1.35,1.35,0,1,1-2.7,0Z" transform="translate(-136.83 -289.5)"/><line class="cls-1" x1="638" y1="17.85" x2="697.88" y2="17.85"/><path class="cls-2" d="M840.75,307.35a30.1,30.1,0,0,0-8.55,4.76l1.72-4.76-1.72-4.75A30.31,30.31,0,0,0,840.75,307.35Z" transform="translate(-136.83 -289.5)"/><rect class="cls-1" x="721.88" y="38.5" width="88.47" height="32.96"/><line class="cls-1" x1="777.98" y1="38.5" x2="777.98" y2="71.46"/><path class="cls-2" d="M881.13,344.12c0-4.65,1.9-7.15,5-7.15s5,2.5,5,7.15-1.89,7.24-5,7.24S881.13,348.73,881.13,344.12Zm8.28,0c0-4-1.37-5.69-3.3-5.69s-3.3,1.72-3.3,5.69,1.37,5.78,3.3,5.78S889.41,348.1,889.41,344.12Zm-4.65-.15a1.35,1.35,0,1,1,2.7,0,1.35,1.35,0,1,1-2.7,0Z" transform="translate(-136.83 -289.5)"/><rect class="cls-1" x="874.53" y="38.5" width="128.36" height="32.96"/><line class="cls-1" x1="930.63" y1="38.5" x2="930.63" y2="71.46"/><path class="cls-2" d="M1033.83,350c4.69-4.15,7.25-6.58,7.25-8.88,0-1.59-.95-2.7-3-2.7a4.78,4.78,0,0,0-3.32,1.65l-1-1a6.18,6.18,0,0,1,4.58-2.11c2.78,0,4.52,1.63,4.52,4.09,0,2.61-2.61,5.19-6.36,8.6.86-.06,1.75-.1,2.58-.1h4.54v1.54h-9.75Z" transform="translate(-136.83 -289.5)"/><path class="cls-2" d="M1079.6,337.1h2.54l3.6,7.64,1.23,2.91h.06c-.1-1.4-.33-3.12-.33-4.64V337.1H1089v13.6h-2.54l-3.6-7.65-1.24-2.9h-.05c.1,1.45.33,3.09.33,4.6v5.95h-2.31Z" transform="translate(-136.83 -289.5)"/><path class="cls-2" d="M1092,345.51V337.1h2.44v8.59c0,2.21.9,3.16,2.35,3.16s2.4-1,2.4-3.16V337.1h2.33v8.41c0,3.72-1.74,5.44-4.73,5.44S1092,349.23,1092,345.51Z" transform="translate(-136.83 -289.5)"/><path class="cls-2" d="M1105.54,337.1h2.4v11.57h6.39v2h-8.79Z" transform="translate(-136.83 -289.5)"/><path class="cls-2" d="M1118,337.1h2.4v11.57h6.39v2H1118Z" transform="translate(-136.83 -289.5)"/><rect class="cls-3" x="621.17" y="38.5" width="34.18" height="32.96"/><path class="cls-2" d="M735.7,349.6h4V339.43h-3.11v-1.17a10.2,10.2,0,0,0,3.56-1h1.35V349.6h3.61v1.5H735.7Z" transform="translate(-136.83 -289.5)"/><line class="cls-1" x1="638" y1="55.85" x2="697.88" y2="55.85"/><path class="cls-2" d="M840.75,345.35a30.1,30.1,0,0,0-8.55,4.76l1.72-4.76-1.72-4.75A30.31,30.31,0,0,0,840.75,345.35Z" transform="translate(-136.83 -289.5)"/><line class="cls-1" x1="793" y1="55.85" x2="852.88" y2="55.85"/><path class="cls-2" d="M995.75,345.35a30.1,30.1,0,0,0-8.55,4.76l1.72-4.76-1.72-4.75A30.31,30.31,0,0,0,995.75,345.35Z" transform="translate(-136.83 -289.5)"/><path class="cls-2" d="M775.6,375.1h2.54l3.6,7.64,1.23,2.91H783c-.1-1.4-.33-3.12-.33-4.64V375.1H785v13.6h-2.54l-3.6-7.65-1.24-2.9h0c.1,1.45.33,3.09.33,4.6v5.95H775.6ZM788,383.51V375.1h2.44v8.59c0,2.21.9,3.16,2.35,3.16s2.4-1,2.4-3.16V375.1h2.33v8.41c0,3.72-1.74,5.44-4.73,5.44S788,387.23,788,383.51Zm13.51-8.41h2.4v11.57h6.39v2h-8.79Zm12.49,0h2.4v11.57h6.39v2H814Zm27-9.1H758v33h83Z" transform="translate(-136.83 -289.5)"/><path class="cls-2" d="M735.18,388c4.69-4.15,7.26-6.58,7.26-8.88,0-1.59-1-2.7-3-2.7a4.78,4.78,0,0,0-3.33,1.65l-1-1a6.18,6.18,0,0,1,4.58-2.11c2.79,0,4.52,1.63,4.52,4.09,0,2.61-2.6,5.19-6.36,8.6.87-.06,1.76-.1,2.58-.1h4.54v1.54h-9.75Z" transform="translate(-136.83 -289.5)"/><path class="cls-2" d="M910.23,420c0-4.6,2.63-7.39,6.32-7.39a5.22,5.22,0,0,1,3.93,1.74l-1,1.15a3.72,3.72,0,0,0-2.89-1.28c-2.67,0-4.41,2.2-4.41,5.74s1.58,5.82,4.37,5.82a3.56,3.56,0,0,0,2.45-.82v-3.72h-2.82v-1.5h4.52v6a6,6,0,0,1-4.26,1.65C912.81,427.36,910.23,424.62,910.23,420Z" transform="translate(-136.83 -289.5)"/><path class="cls-2" d="M925.2,429.55l.91-.71a2.83,2.83,0,0,0,2.37,1.26c1,0,1.91-.55,1.91-1.5s-.91-1.5-2.85-1.5v-.89c1.72,0,2.52-.68,2.52-1.54s-.69-1.33-1.74-1.33a2.65,2.65,0,0,0-2,1l-.83-.74a3.72,3.72,0,0,1,3-1.41c1.59,0,2.93.87,2.93,2.28,0,1-.56,1.65-1.69,2.09a2.16,2.16,0,0,1,2,2.08c0,1.57-1.46,2.55-3.22,2.55A4,4,0,0,1,925.2,429.55Z" transform="translate(-136.83 -289.5)"/></svg>