<svg id="图层_1" data-name="图层 1" xmlns="http://www.w3.org/2000/svg" viewBox="0 0 252.16 139.7"><defs><style>.cls-1{fill:none;}.cls-1,.cls-3{stroke:#3ea69f;stroke-miterlimit:10;}.cls-2,.cls-3{fill:#3ea69f;}</style></defs><rect class="cls-1" x="123.29" y="0.5" width="128.36" height="32.96"/><line class="cls-1" x1="179.39" y1="0.5" x2="179.39" y2="33.46"/><path class="cls-2" d="M573.28,149.85h4V139.68h-3.11v-1.17a10.34,10.34,0,0,0,3.57-1h1.34v12.36h3.61v1.5h-9.41Z" transform="translate(-427 -127.75)"/><path class="cls-2" d="M618.53,137.35h2.54l3.6,7.64,1.24,2.91H626c-.1-1.39-.32-3.12-.32-4.64v-5.91h2.3V151H625.4l-3.6-7.65-1.23-2.9h-.06c.1,1.45.33,3.09.33,4.6V151h-2.31Z" transform="translate(-427 -127.75)"/><path class="cls-2" d="M631,145.76v-8.41h2.43v8.59c0,2.21.91,3.16,2.36,3.16s2.39-.95,2.39-3.16v-8.59h2.34v8.41c0,3.72-1.75,5.44-4.73,5.44S631,149.48,631,145.76Z" transform="translate(-427 -127.75)"/><path class="cls-2" d="M644.47,137.35h2.41v11.57h6.38v2h-8.79Z" transform="translate(-427 -127.75)"/><path class="cls-2" d="M657,137.35h2.41v11.57h6.38v2H657Z" transform="translate(-427 -127.75)"/><rect class="cls-3" x="22.93" y="0.5" width="34.18" height="32.96"/><path class="cls-2" d="M427.07,144.37c0-4.65,1.89-7.14,5-7.14s5,2.49,5,7.14-1.89,7.24-5,7.24S427.07,149,427.07,144.37Zm8.28,0c0-4-1.37-5.69-3.31-5.69s-3.3,1.72-3.3,5.69,1.37,5.78,3.3,5.78S435.35,148.35,435.35,144.37Zm-4.65-.15a1.35,1.35,0,1,1,2.69,0,1.35,1.35,0,1,1-2.69,0Z" transform="translate(-427 -127.75)"/><line class="cls-1" x1="39.76" y1="17.85" x2="99.64" y2="17.85"/><path class="cls-2" d="M532.68,145.6a29.91,29.91,0,0,0-8.54,4.76l1.72-4.76-1.72-4.75A30.12,30.12,0,0,0,532.68,145.6Z" transform="translate(-427 -127.75)"/><rect class="cls-1" x="123.29" y="38.5" width="128.36" height="32.96"/><line class="cls-1" x1="179.39" y1="38.5" x2="179.39" y2="71.46"/><path class="cls-2" d="M572.72,182.37c0-4.65,1.89-7.14,5-7.14s5,2.49,5,7.14-1.89,7.24-5,7.24S572.72,187,572.72,182.37Zm8.28,0c0-4-1.37-5.69-3.31-5.69s-3.3,1.72-3.3,5.69,1.37,5.78,3.3,5.78S581,186.35,581,182.37Zm-4.66-.15a1.35,1.35,0,1,1,1.35,1.46A1.37,1.37,0,0,1,576.34,182.22Z" transform="translate(-427 -127.75)"/><path class="cls-2" d="M538.81,256.22c0-4.6,2.63-7.39,6.32-7.39a5.22,5.22,0,0,1,3.93,1.74l-1,1.15a3.72,3.72,0,0,0-2.89-1.28c-2.67,0-4.41,2.2-4.41,5.74s1.59,5.82,4.37,5.82a3.55,3.55,0,0,0,2.45-.82v-3.72h-2.82V256h4.52v6a6,6,0,0,1-4.26,1.65C541.39,263.61,538.81,260.87,538.81,256.22Z" transform="translate(-427 -127.75)"/><path class="cls-2" d="M553.78,265.8l.91-.71a2.83,2.83,0,0,0,2.37,1.26c1,0,1.91-.55,1.91-1.5s-.91-1.5-2.85-1.5v-.89c1.72,0,2.53-.68,2.53-1.54s-.7-1.33-1.74-1.33a2.65,2.65,0,0,0-2,1l-.82-.74a3.69,3.69,0,0,1,3-1.41c1.59,0,2.94.87,2.94,2.28,0,1-.57,1.65-1.7,2.09a2.16,2.16,0,0,1,2,2.08c0,1.57-1.45,2.55-3.21,2.55A4,4,0,0,1,553.78,265.8Z" transform="translate(-427 -127.75)"/><path class="cls-2" d="M618.53,175.35h2.54l3.6,7.64,1.24,2.91H626c-.1-1.39-.32-3.12-.32-4.64v-5.91h2.3V189H625.4l-3.6-7.65-1.23-2.9h-.06c.1,1.45.33,3.09.33,4.6V189h-2.31Z" transform="translate(-427 -127.75)"/><path class="cls-2" d="M631,183.76v-8.41h2.43v8.59c0,2.21.91,3.16,2.36,3.16s2.39-.95,2.39-3.16v-8.59h2.34v8.41c0,3.72-1.75,5.44-4.73,5.44S631,187.48,631,183.76Z" transform="translate(-427 -127.75)"/><path class="cls-2" d="M644.47,175.35h2.41v11.57h6.38v2h-8.79Z" transform="translate(-427 -127.75)"/><path class="cls-2" d="M657,175.35h2.41v11.57h6.38v2H657Z" transform="translate(-427 -127.75)"/><rect class="cls-3" x="22.93" y="38.5" width="34.18" height="32.96"/><path class="cls-2" d="M427.63,187.85h4V177.68h-3.11v-1.17a10.27,10.27,0,0,0,3.57-1h1.35v12.36H437v1.5h-9.41Z" transform="translate(-427 -127.75)"/><line class="cls-1" x1="39.76" y1="55.85" x2="99.64" y2="55.85"/><path class="cls-2" d="M532.68,183.6a29.91,29.91,0,0,0-8.54,4.76l1.72-4.76-1.72-4.75A30.12,30.12,0,0,0,532.68,183.6Z" transform="translate(-427 -127.75)"/><rect class="cls-1" x="123.29" y="76.5" width="128.36" height="32.96"/><line class="cls-1" x1="179.39" y1="76.5" x2="179.39" y2="109.46"/><path class="cls-2" d="M573.28,225.85h4V215.68h-3.11v-1.17a10.34,10.34,0,0,0,3.57-1h1.34v12.36h3.61v1.5h-9.41Z" transform="translate(-427 -127.75)"/><path class="cls-2" d="M618.53,213.35h2.54l3.6,7.64,1.24,2.91H626c-.1-1.4-.32-3.12-.32-4.64v-5.91h2.3V227H625.4l-3.6-7.65-1.23-2.9h-.06c.1,1.45.33,3.09.33,4.6V227h-2.31Z" transform="translate(-427 -127.75)"/><path class="cls-2" d="M631,221.76v-8.41h2.43v8.59c0,2.21.91,3.16,2.36,3.16s2.39-.95,2.39-3.16v-8.59h2.34v8.41c0,3.72-1.75,5.44-4.73,5.44S631,225.48,631,221.76Z" transform="translate(-427 -127.75)"/><path class="cls-2" d="M644.47,213.35h2.41v11.57h6.38v2h-8.79Z" transform="translate(-427 -127.75)"/><path class="cls-2" d="M657,213.35h2.41v11.57h6.38v2H657Z" transform="translate(-427 -127.75)"/><rect class="cls-3" x="22.93" y="76.5" width="34.18" height="32.96"/><path class="cls-2" d="M427.11,226.28c4.7-4.15,7.26-6.58,7.26-8.88,0-1.59-1-2.7-3-2.7a4.78,4.78,0,0,0-3.32,1.65l-1.05-1a6.19,6.19,0,0,1,4.59-2.11c2.78,0,4.52,1.63,4.52,4.09s-2.61,5.19-6.37,8.6c.87-.06,1.76-.1,2.59-.1h4.54v1.54h-9.76Z" transform="translate(-427 -127.75)"/><line class="cls-1" x1="39.76" y1="93.85" x2="99.64" y2="93.85"/><path class="cls-2" d="M532.68,221.6a29.91,29.91,0,0,0-8.54,4.76l1.72-4.76-1.72-4.75A30.12,30.12,0,0,0,532.68,221.6Z" transform="translate(-427 -127.75)"/></svg>