<svg id="图层_1" data-name="图层 1" xmlns="http://www.w3.org/2000/svg" viewBox="0 0 648 200.84"><defs><style>.cls-1,.cls-3{fill:none;stroke:#3ea69f;stroke-miterlimit:10;}.cls-2,.cls-4{fill:#3ea69f;}.cls-3{stroke-opacity:0.2;}.cls-4{opacity:0.2;}</style></defs><circle class="cls-1" cx="48.5" cy="105.34" r="18"/><path class="cls-2" d="M264.53,193.9h3.86v-9.83h-3v-1.13a9.71,9.71,0,0,0,3.44-1h1.3v12h3.49v1.45h-9.09Z" transform="translate(-226.59 -84.01)"/><path class="cls-2" d="M276.27,193.77l.86-1.15a5.31,5.31,0,0,0,3.78,1.53,3.11,3.11,0,0,0,3.38-3c0-1.85-1.31-2.92-3.28-2.92a5.05,5.05,0,0,0-2.73.79l-.92-.58.44-6.45h7.58v1.51h-6.05l-.36,3.95a5.7,5.7,0,0,1,2.48-.55c2.56,0,4.6,1.31,4.6,4.2s-2.39,4.54-4.95,4.54A6.68,6.68,0,0,1,276.27,193.77Z" transform="translate(-226.59 -84.01)"/><circle class="cls-1" cx="18.5" cy="182.34" r="18"/><path class="cls-2" d="M234.53,270.9h3.86v-9.83h-3v-1.13a9.71,9.71,0,0,0,3.44-1h1.3V270.9h3.49v1.45h-9.09Z" transform="translate(-226.59 -84.01)"/><path class="cls-2" d="M252.82,263.13c0-.74.06-1.64.1-2.37h-.1c-.44.65-.93,1.3-1.37,1.95l-3.61,4.54h8.69v1.4H245.91V267.5l6.68-8.55h1.86v13.4h-1.63Z" transform="translate(-226.59 -84.01)"/><circle class="cls-1" cx="73.5" cy="182.34" r="18"/><path class="cls-2" d="M289.53,270.9h3.86v-9.83h-3v-1.13a9.71,9.71,0,0,0,3.44-1h1.3V270.9h3.49v1.45h-9.09Z" transform="translate(-226.59 -84.01)"/><path class="cls-2" d="M301.58,265.61c0-4.5,1.83-6.91,4.81-6.91s4.81,2.41,4.81,6.91-1.83,7-4.81,7S301.58,270.06,301.58,265.61Zm8,0c0-3.85-1.32-5.5-3.19-5.5s-3.19,1.65-3.19,5.5,1.32,5.58,3.19,5.58S309.58,269.45,309.58,265.61Zm-4.49-.15a1.3,1.3,0,1,1,1.3,1.41A1.31,1.31,0,0,1,305.09,265.46Z" transform="translate(-226.59 -84.01)"/><circle class="cls-1" cx="107.59" cy="32.03" r="18"/><path class="cls-2" d="M323.11,121c4.54-4,7-6.36,7-8.59,0-1.53-.93-2.6-2.9-2.6a4.58,4.58,0,0,0-3.21,1.6l-1-1a6,6,0,0,1,4.43-2c2.69,0,4.37,1.58,4.37,4s-2.52,5-6.16,8.31c.84-.06,1.7-.1,2.5-.1h4.39V122h-9.43Z" transform="translate(-226.59 -84.01)"/><path class="cls-2" d="M335.67,115.3c0-4.49,1.83-6.91,4.81-6.91s4.81,2.42,4.81,6.91-1.83,7-4.81,7S335.67,119.75,335.67,115.3Zm8,0c0-3.84-1.32-5.5-3.19-5.5s-3.19,1.66-3.19,5.5,1.32,5.59,3.19,5.59S343.67,119.14,343.67,115.3Zm-4.49-.15a1.3,1.3,0,1,1,1.3,1.41A1.3,1.3,0,0,1,339.18,115.15Z" transform="translate(-226.59 -84.01)"/><line class="cls-1" x1="41.44" y1="121.9" x2="24.63" y2="165.41"/><line class="cls-1" x1="55.73" y1="121.9" x2="67.37" y2="165.41"/><circle class="cls-1" cx="157.5" cy="105.34" r="18"/><path class="cls-2" d="M379.32,194.32c4.54-4,7-6.36,7-8.59,0-1.53-.93-2.6-2.9-2.6a4.61,4.61,0,0,0-3.21,1.59l-1-1a6,6,0,0,1,4.43-2c2.69,0,4.37,1.57,4.37,4s-2.52,5-6.16,8.31c.84-.06,1.7-.1,2.5-.1h4.39v1.49h-9.43Z" transform="translate(-226.59 -84.01)"/><line class="cls-1" x1="93.32" y1="42.99" x2="55.5" y2="88.75"/><line class="cls-1" x1="121.86" y1="42.99" x2="150.5" y2="88.75"/><circle class="cls-1" cx="520.5" cy="105.34" r="18"/><path class="cls-2" d="M736.53,193.9h3.86v-9.83h-3v-1.13a9.71,9.71,0,0,0,3.44-1h1.3v12h3.49v1.45h-9.09Z" transform="translate(-226.59 -84.01)"/><path class="cls-2" d="M754.82,186.13c0-.74.06-1.64.1-2.37h-.1c-.44.65-.93,1.3-1.37,2l-3.61,4.53h8.69v1.41H747.91V190.5l6.68-8.55h1.87v13.4h-1.64Z" transform="translate(-226.59 -84.01)"/><path class="cls-2" d="M735.09,266.35a18,18,0,1,1-18-18A18,18,0,0,1,735.09,266.35Zm-28.56,6h9.09V270.9h-3.49V259h-1.3a9.71,9.71,0,0,1-3.44,1v1.13h3v9.83h-3.86Zm16.86.25c3,0,4.81-2.54,4.81-7s-1.83-6.91-4.81-6.91-4.81,2.41-4.81,6.91S720.41,272.6,723.39,272.6Zm0-1.41c-1.87,0-3.19-1.74-3.19-5.58s1.32-5.5,3.19-5.5,3.19,1.65,3.19,5.5S725.26,271.19,723.39,271.19Zm0-4.32a1.4,1.4,0,1,0-1.3-1.41A1.31,1.31,0,0,0,723.39,266.87Z" transform="translate(-226.59 -84.01)"/><circle class="cls-1" cx="579.59" cy="32.03" r="18"/><path class="cls-2" d="M795.62,120.59h3.86v-9.82h-3v-1.14a9.73,9.73,0,0,0,3.44-1h1.3v11.94h3.49V122h-9.09Z" transform="translate(-226.59 -84.01)"/><path class="cls-2" d="M807.36,120.47l.86-1.16a5.31,5.31,0,0,0,3.78,1.53,3.1,3.1,0,0,0,3.38-3c0-1.85-1.3-2.92-3.28-2.92a5,5,0,0,0-2.73.8l-.92-.59.44-6.44h7.58v1.51h-6.05l-.36,3.94a5.84,5.84,0,0,1,2.48-.54c2.56,0,4.6,1.3,4.6,4.2s-2.39,4.53-4.95,4.53A6.72,6.72,0,0,1,807.36,120.47Z" transform="translate(-226.59 -84.01)"/><line class="cls-1" x1="513.44" y1="121.9" x2="496.63" y2="165.41"/><circle class="cls-1" cx="629.5" cy="105.34" r="18"/><path class="cls-2" d="M851.32,194.32c4.54-4,7-6.36,7-8.59,0-1.53-.93-2.6-2.9-2.6a4.61,4.61,0,0,0-3.21,1.59l-1-1a6,6,0,0,1,4.43-2c2.69,0,4.37,1.57,4.37,4s-2.52,5-6.16,8.31c.84-.06,1.7-.1,2.5-.1h4.39v1.49h-9.43Z" transform="translate(-226.59 -84.01)"/><line class="cls-1" x1="565.32" y1="42.99" x2="527.5" y2="88.75"/><line class="cls-1" x1="593.86" y1="42.99" x2="622.5" y2="88.75"/><circle class="cls-1" cx="284.5" cy="105.34" r="18"/><path class="cls-2" d="M500.53,193.9h3.86v-9.83h-3v-1.13a9.71,9.71,0,0,0,3.44-1h1.3v12h3.49v1.45h-9.09Z" transform="translate(-226.59 -84.01)"/><path class="cls-2" d="M512.27,193.77l.86-1.15a5.31,5.31,0,0,0,3.78,1.53,3.11,3.11,0,0,0,3.38-3c0-1.85-1.31-2.92-3.28-2.92a5.05,5.05,0,0,0-2.73.79l-.92-.58.44-6.45h7.58v1.51h-6l-.36,3.95a5.7,5.7,0,0,1,2.48-.55c2.56,0,4.6,1.31,4.6,4.2s-2.39,4.54-4.95,4.54A6.68,6.68,0,0,1,512.27,193.77Z" transform="translate(-226.59 -84.01)"/><circle class="cls-1" cx="254.5" cy="182.34" r="18"/><path class="cls-2" d="M470.53,270.9h3.86v-9.83h-3v-1.13a9.71,9.71,0,0,0,3.44-1h1.3V270.9h3.49v1.45h-9.09Z" transform="translate(-226.59 -84.01)"/><path class="cls-2" d="M488.82,263.13c0-.74.06-1.64.1-2.37h-.1c-.44.65-.93,1.3-1.37,1.95l-3.61,4.54h8.69v1.4H481.91V267.5l6.68-8.55h1.86v13.4h-1.63Z" transform="translate(-226.59 -84.01)"/><circle class="cls-3" cx="309.5" cy="182.34" r="18"/><path class="cls-4" d="M525.53,270.9h3.86v-9.83h-3v-1.13a9.71,9.71,0,0,0,3.44-1h1.3V270.9h3.49v1.45h-9.09Z" transform="translate(-226.59 -84.01)"/><path class="cls-4" d="M537.58,265.61c0-4.5,1.83-6.91,4.81-6.91s4.81,2.41,4.81,6.91-1.83,7-4.81,7S537.58,270.06,537.58,265.61Zm8,0c0-3.85-1.32-5.5-3.19-5.5s-3.19,1.65-3.19,5.5,1.32,5.58,3.19,5.58S545.58,269.45,545.58,265.61Zm-4.49-.15a1.3,1.3,0,1,1,1.3,1.41A1.31,1.31,0,0,1,541.09,265.46Z" transform="translate(-226.59 -84.01)"/><path class="cls-2" d="M588.18,116a18,18,0,1,1-18-18A18,18,0,0,1,588.18,116Zm-28.56,6h9.09v-1.45h-3.49V108.65h-1.3a9.73,9.73,0,0,1-3.44,1v1.14h3v9.82h-3.86Zm16.86.25c3,0,4.81-2.54,4.81-7s-1.83-6.91-4.81-6.91-4.81,2.42-4.81,6.91S573.5,122.29,576.48,122.29Zm0-1.4c-1.87,0-3.19-1.75-3.19-5.59s1.32-5.5,3.19-5.5,3.19,1.66,3.19,5.5S578.35,120.89,576.48,120.89Zm0-4.33a1.4,1.4,0,1,0-1.3-1.41A1.31,1.31,0,0,0,576.48,116.56Z" transform="translate(-226.59 -84.01)"/><line class="cls-1" x1="277.44" y1="121.9" x2="260.63" y2="165.41"/><line class="cls-3" x1="291.73" y1="121.9" x2="303.37" y2="165.41"/><circle class="cls-1" cx="393.5" cy="105.34" r="18"/><path class="cls-2" d="M615.32,194.32c4.54-4,7-6.36,7-8.59,0-1.53-.93-2.6-2.9-2.6a4.61,4.61,0,0,0-3.21,1.59l-1-1a6,6,0,0,1,4.43-2c2.69,0,4.37,1.57,4.37,4s-2.52,5-6.16,8.31c.84-.06,1.7-.1,2.5-.1h4.39v1.49h-9.43Z" transform="translate(-226.59 -84.01)"/><line class="cls-1" x1="329.32" y1="42.99" x2="291.5" y2="88.75"/><line class="cls-1" x1="357.86" y1="42.99" x2="386.5" y2="88.75"/><line class="cls-1" x1="179.41" y1="49.99" x2="254.37" y2="49.99"/><path class="cls-2" d="M487,134a30.1,30.1,0,0,0-8.55,4.76l1.72-4.76-1.72-4.75A30.31,30.31,0,0,0,487,134Z" transform="translate(-226.59 -84.01)"/><path class="cls-2" d="M397.51,85.48h.3c.26.09.39.39.39.89v.69l1.86-.59h.11q.15,0,.39.39v4.92c0,.14.09.21.2.21.79-.19,1.18-.35,1.18-.5V86.37c0-.13.09-.2.2-.2h.29a2.33,2.33,0,0,1,.49.49,5.49,5.49,0,0,1,1.38-.19h.59c.59,0,.89,1.28.89,3.83,0,.47.42.7,1.28.7l.1.2a5.47,5.47,0,0,1-1.38.49c.06,1.68.23,3.94.49,6.79-.1.26-.2.4-.3.4h-.39a9.62,9.62,0,0,1-1.37-1.69V97l1,.3a44.33,44.33,0,0,1-.3-4.82v-.6c0-.13-.1-.19-.29-.19a14,14,0,0,1-1.78.69v4.13c0,.09-.1.19-.3.29h-.19q-.25,0-.39-.78V92.76a2.62,2.62,0,0,0-1.38.6c.13,2.23.23,3.51.29,3.83a1,1,0,0,1-.49.6h-.19c-.82-.7-1.24-1.26-1.29-1.67l.2-.1.49.29h.3l-.09-1V93.75a.18.18,0,0,0-.21-.2,3.61,3.61,0,0,1-1.37.5c0,2.29-.23,3.44-.69,3.44h-.19q-.15,0-.3-.3.09-1.65.09-2.55v-.19a13.34,13.34,0,0,1-1.67.28c-.72-.08-1.08-.24-1.08-.49s.62-.35,1.87-.49c.65-.25,1-.44,1-.59V86.08Q397.27,85.48,397.51,85.48Zm1.18,2.17h-.49V93c1.05-.28,1.58-.58,1.58-.89V87.56l-.11-.21A1.89,1.89,0,0,1,398.69,87.65Zm4.82-.2H403c-.13,0-.2.09-.2.2V91.2h.2c1.18-.18,1.77-.34,1.77-.5-.06-2.23-.16-3.35-.3-3.35Zm4.23,1.67h.2c.29,0,.49.6.59,1.78v1.58a.87.87,0,0,1-.39.78h-.2c-.28,0-.45-.56-.49-1.67V89.42C407.45,89.33,407.55,89.23,407.74,89.12Zm2-5.11c.46,0,.72.55.79,1.67-.26,3.51-.39,6.37-.39,8.56a41.77,41.77,0,0,0,.29,5.52c0,.21-.23.44-.69.68-.46,0-1-.65-1.57-2l.2-.1.79.5h.09V97.3a18.92,18.92,0,0,0-.09-2.36q.09-1.11.19-9.75h.1a2.47,2.47,0,0,1-.2-1Z" transform="translate(-226.59 -84.01)"/><path class="cls-2" d="M414.83,84.5a16.73,16.73,0,0,0,2.76.19,1.42,1.42,0,0,1,.68,1.29A14.26,14.26,0,0,1,417,88.05v.09c1.25-.13,1.88-.32,1.88-.58.09-1.78.38-2.67.88-2.67h.69c.13,0,.19.09.19.2l-.09.89c2.36.28,3.54.65,3.54,1.08a1.12,1.12,0,0,1,.49.89v.19c0,.41-.29.74-.88,1a12.93,12.93,0,0,0-.3,2h.1a4.8,4.8,0,0,1,1.08-.29V91c-.79.83-1.18,1.39-1.18,1.67v1c0,.09.46.22,1.39.39,1.7,1.6,2.55,2.55,2.55,2.86,0,.13-.07.19-.2.19q-.76,0-3.44-2.65h-.2c-.06,1-.1,1.7-.1,2.16v2.66c0,.09-.1.19-.3.29-.91,0-1.76-.88-2.55-2.65.06,0,.09,0,.09-.11.16,0,.52.33,1.09,1l.49.3a.1.1,0,0,1,.1-.11c.07-1.4.1-2.45.1-3.14V93.75l-.2-.29C420.7,94,420,94.65,420,95.33c-.28,1.64-.57,2.46-.89,2.46s-.68-.17-.68-.49a19.55,19.55,0,0,0,.68-2.57v-.28a1.56,1.56,0,0,1-.49-.79c2.11-.71,3.33-1.3,3.64-1.78v-1c0-.13-.1-.2-.29-.2a7.47,7.47,0,0,1-1.78.39c-1-.17-1.57-.4-1.57-.68V90.3c0-.09.1-.18.3-.28h.78q4.23-.83,4.23-1.88V88c-.24-.53-1.49-.79-3.74-.79q-.47,0-.69,1.77a9.59,9.59,0,0,0-2.35,3.34c-.6.53-.9.93-.9,1.19v5q0,1.47-.39,1.47h-.1a1.38,1.38,0,0,1-.78-1c.13-1.55.2-2.79.2-3.74V89.81c0-2.49.19-3.73.58-3.73h.1q.1,0,.69.69c.1,0,.27-.2.49-.6v-.39h-.68c-1.08,0-1.7-.2-1.87-.59V84.8C414.44,84.69,414.57,84.6,414.83,84.5ZM416,89.91a3.71,3.71,0,0,1,.3.79h.29a6.72,6.72,0,0,0,.69-1.28l-.19-.1h-.3A.84.84,0,0,0,416,89.91Z" transform="translate(-226.59 -84.01)"/><path class="cls-2" d="M436.09,85.83c.28,0,.47.36.59,1.08l-1.38,2.37v.19l1.38-.29h.2a1,1,0,0,1,.58.88,16,16,0,0,1-1.08,2.37H437c.13,0,.2.08.2.19v.88a3.72,3.72,0,0,1-2.76,1.19c-.42,0-.68-.29-.79-.89a14.7,14.7,0,0,1,1.87-2.55v-.11h-.19a6.27,6.27,0,0,0-.79.2h-.59c-.78-.11-1.18-.27-1.18-.49v-.1c0-.32.79-1.51,2.36-3.54Q435.64,85.83,436.09,85.83Zm1.58,8.76h.09v.1a7.08,7.08,0,0,1-1.38,2c-.63,1.51-1.19,2.26-1.67,2.26h-.4c-.11,0-.24-.2-.39-.59S435.17,96.72,437.67,94.59Zm3.44-9.84h.58c.13,0,.2.08.2.19q-.09,1.29-.09,2.07h.09c.1,0,.76-.2,2-.59,0,.91-.62,1.53-1.87,1.87a1.93,1.93,0,0,0-.49,1.08v1.77h.19l1.68-.68c.13,0,.2.08.2.19-.58,1.12-1.07,1.71-1.48,1.78a13.25,13.25,0,0,1-2,.79h-.79a.85.85,0,0,1-.6-.79c1.18-.41,1.78-.7,1.78-.9V89.07l-1.29.11c-.45-.09-.68-.22-.68-.39v-.21c0-.29.55-.55,1.67-.78.21,0,.41-1,.59-2.86Zm4.62,8.47a.66.66,0,0,1,.2.39q0,.8-2.66,4c.09,0,.26.16.5.49v.49q0,.42-3.06,1.08-.81,0-2.06-5.51c.1-.27.19-.4.29-.4h.2c.25,0,.48.49.69,1.48A41,41,0,0,1,445.73,93.22Zm-5.6,3.24c.3,1.45.56,2.17.78,2.17h.1q3-2.75,3.05-3.55V95H444a24.79,24.79,0,0,1-3.74,1.28Z" transform="translate(-226.59 -84.01)"/><path class="cls-2" d="M452.33,97.05h.2q.71,0,2.46,2.07v.1c0,.13-.19.26-.49.39q-2.37-1.22-2.37-2.16v-.19C452.15,97.12,452.22,97.05,452.33,97.05Zm3.84-12.2c.2,0,.43.43.69,1.28v.49h.3a1.77,1.77,0,0,1,1-.29c.25,0,.51.19.79.59,0,.37-.52.6-1.58.69h-.49l.3,2.65a.76.76,0,0,0-.1.39l3.64-1c.46.5.69.83.69,1a29.38,29.38,0,0,1-3.25,3.75v.1a7,7,0,0,1,1.28-.2h.29q.14,0,.6.78v.1a7.32,7.32,0,0,1-2.47.69,5.21,5.21,0,0,1-1,.6,5.76,5.76,0,0,1,.6,1.86v.11c0,.12-.07.19-.21.19a4.15,4.15,0,0,1-1.37-2.07c-.86,0-1.29-.17-1.29-.49a37.6,37.6,0,0,1-1.56-6.3c.09-.26.19-.39.28-.39h.3c.34,0,.67.72,1,2.16a.1.1,0,0,1,.11.1,13.32,13.32,0,0,1,1.77-.59,19,19,0,0,1-.7-5.22v-.68ZM454.89,93c.34,1.64.6,2.46.79,2.46a33.15,33.15,0,0,0,3.94-4.13v-.1q-3.15,1.17-4.63,1.58Zm4.73,3h.19c.1,0,.2.13.3.4q0,1.5-.69,1.86h-.1c-.21,0-.37-.36-.49-1.07A1.57,1.57,0,0,1,459.62,96.07Zm3.44-.29a1.37,1.37,0,0,1,.39,1q-1.18,2.4-2.16,2.46l-.1-.2v-.2C461.71,96.79,462.34,95.78,463.06,95.78Z" transform="translate(-226.59 -84.01)"/><path class="cls-2" d="M474.05,96.56h-.16a.81.81,0,0,1-.57-.74c1.11-1.22,2.05-2.33,2.8-3.32a4.93,4.93,0,0,0,1.14-1.93c0-.37-.58-.64-1.74-.82l-1.15.16c-.23,0-.39-.24-.48-.73,0-.26.38-.42,1.14-.5,1.8,0,2.84.61,3.12,1.81v.08l-.08.16.08.17a5.47,5.47,0,0,1-.89,1.64q-.22,0-.51.57a23.31,23.31,0,0,0-1.64,2l2.55-.72c.38,0,.57.1.57.31l.08.41-.32.41h-.08a.63.63,0,0,1-.34-.08A23,23,0,0,1,474.05,96.56Z" transform="translate(-226.59 -84.01)"/><path class="cls-2" d="M480.33,96.39c-.4,0-.89-.49-1.48-1.47a4.82,4.82,0,0,1-.23-1.31,8.25,8.25,0,0,1,1.06-4.35l.57-.41h.34a4.71,4.71,0,0,1,2.7,1.23l.09.41v.16a12.41,12.41,0,0,1-.82,3.94,3.68,3.68,0,0,1-1.4,1.56A3.5,3.5,0,0,1,480.33,96.39Zm-.08-1.14c.78,0,1.41-.82,1.9-2.45l.32-1.66-.09-.16a.6.6,0,0,0,.09-.33,3,3,0,0,0-1.72-.49h-.08a3.53,3.53,0,0,0-.91,2.54l-.17.1.09.15v1Q479.91,95.25,480.25,95.25Z" transform="translate(-226.59 -84.01)"/><path class="cls-2" d="M497.83,84.65a2.11,2.11,0,0,1,.5,1l-2.17,2.85a1.19,1.19,0,0,0-.19.59v.11a.66.66,0,0,0,.39.68,24.43,24.43,0,0,0,5.71-1.47h.3c.15,0,.25.16.29.49q-1,1.35-4.72,2.06h-.3v.2a7.11,7.11,0,0,1,1.18,3h.1l4.24-1.39h.49a.61.61,0,0,1,.69.69q0,.78-2.36,4c-.23.86-.62,1.28-1.19,1.28h-.39c-.17-.13-.26-.19-.3-.19h-.19c-.07.39-.17.58-.3.58h-.3c-.31,0-.89-2-1.76-6-.11,0-.28-.62-.49-1.87l-.21-.1h-.09a.61.61,0,0,0-.69.69q-.4,8-1.09,8h-.49c-.05,0-.14-.1-.3-.29.6-5.12.9-8.31.9-9.55h-.3l-1.18.1c0-.07,0-.1-.1-.1q0-.59,3.74-4.72C497.3,84.85,497.49,84.65,497.83,84.65Zm1.39,11.13.58,2.46c.89,0,2.1-1.51,3.65-4.53-.06,0-.1,0-.1-.09Q499.23,95,499.22,95.78Z" transform="translate(-226.59 -84.01)"/><path class="cls-2" d="M373.81,108.47h.3q.15,0,.3.39-.3,3.77-.49,9.16c.06,1.32.09,2.24.09,2.75l.19.11a7.25,7.25,0,0,0,.5-1.68c.1,0,.43-.4,1-1.18h.1a2.19,2.19,0,0,1-.29.79.09.09,0,0,1,.1.1c3-1.16,4.61-1.81,4.82-2,.07-.68.1-1.2.1-1.58v-.19a4,4,0,0,1-1.18-.9,8,8,0,0,1-2.07,2.27H377c-.13,0-.19-.07-.19-.2l1.77-2.65v-.1c-1.05,0-1.58-.21-1.58-.5v-.19c0-.26.46-.39,1.39-.39l.88.09a7.27,7.27,0,0,0,1.08-1.86h-.1l-3.44,1.56h-.11l-.28-.38v-.2a5.56,5.56,0,0,1,1.18-2.76h.19c.13,0,.2.09.2.2v.19a10.14,10.14,0,0,1-.5,1.78,8.68,8.68,0,0,1,3.55-1.38h.09c.11,0,.24.13.4.39v.49a8.36,8.36,0,0,1-1.08,2.27c.46.16.68.29.68.39s-.52.21-1.27.3a.77.77,0,0,1-.2.4l1-.11c.66,0,1,.5,1,1.48,0,.1,0,.55-.1,1.37l1.38-.09.1.2a7.52,7.52,0,0,1-1.58,1c-.06.67-.09,1.2-.09,1.58v2.26c0,.76.1,2.21.29,4.33-.1.26-.19.39-.29.39h-.4a9.86,9.86,0,0,1-1.48-2.36c.07,0,.11,0,.11-.1a3.39,3.39,0,0,1,.88.69c0-.06,0-.09.1-.09a37.5,37.5,0,0,1-.3-3.75,12.45,12.45,0,0,0,.1-1.77v-.88h-.1a28.14,28.14,0,0,1-5.11,2,15.2,15.2,0,0,0-.69,4.72,1.22,1.22,0,0,1-.6.2c-.41,0-.71-2.33-.88-7v-1.78h-.1a8.3,8.3,0,0,1-2.16,2.07h-.5a.17.17,0,0,1-.19-.19v-.3c1.52-1.44,2.5-2.16,2.95-2.16v-1.48l.09-1c-.06,0-.09,0-.09-.11a10.47,10.47,0,0,1-1.87.2q-.69-.14-.69-.39v-.3c.09-.26.38-.39.88-.39h.3q.49,0,1.47.09C373.22,109.75,373.48,108.47,373.81,108.47Zm5,11.62q.69.22.69.39c0,.41-1,.74-3.15,1-.2-.21-.3-.37-.3-.49C376.08,120.45,377,120.16,378.84,120.09Z" transform="translate(-226.59 -84.01)"/><path class="cls-2" d="M391.69,111c.28,0,.48.36.59,1.08l-1.38,2.37v.19l1.38-.29h.2a1,1,0,0,1,.58.88,16,16,0,0,1-1.08,2.37h.59c.14,0,.2.08.2.19v.88a3.71,3.71,0,0,1-2.75,1.19c-.43,0-.69-.29-.79-.89a14.27,14.27,0,0,1,1.86-2.55v-.11h-.19a6.77,6.77,0,0,0-.79.2h-.59c-.78-.11-1.18-.27-1.18-.49V116c0-.33.79-1.52,2.36-3.55Q391.24,111,391.69,111Zm1.58,8.76h.09v.1a7.08,7.08,0,0,1-1.38,2c-.63,1.51-1.19,2.26-1.67,2.26h-.4c-.11,0-.24-.2-.39-.59C389.52,123.16,390.77,121.92,393.27,119.79Zm3.44-9.84h.59c.13,0,.19.08.19.19q-.09,1.29-.09,2.07h.09c.1,0,.76-.2,2-.59,0,.91-.62,1.53-1.87,1.87a1.93,1.93,0,0,0-.49,1.08v1.77h.2l1.67-.68c.13,0,.2.08.2.19-.58,1.12-1.07,1.71-1.47,1.78a13.7,13.7,0,0,1-2,.79h-.79a.84.84,0,0,1-.6-.79c1.18-.41,1.78-.7,1.78-.9v-2.46l-1.29.11c-.45-.09-.68-.22-.68-.39v-.21c0-.29.55-.55,1.67-.78.21,0,.41-1,.59-2.86Zm4.63,8.47a.63.63,0,0,1,.19.39c0,.53-.88,1.88-2.66,4,.09,0,.26.16.5.49v.49q0,.42-3.06,1.08-.81,0-2.06-5.51c.1-.27.19-.4.29-.4h.2c.26,0,.48.49.69,1.48A40.6,40.6,0,0,1,401.34,118.42Zm-5.61,3.24c.3,1.45.56,2.17.78,2.17h.1c2-1.83,3.05-3,3.05-3.55v-.1h-.1a24.79,24.79,0,0,1-3.74,1.28Z" transform="translate(-226.59 -84.01)"/><path class="cls-2" d="M407.93,122.25h.2q.71,0,2.46,2.07v.1c0,.13-.19.26-.49.39q-2.37-1.22-2.37-2.16v-.19C407.75,122.32,407.82,122.25,407.93,122.25Zm3.84-12.2c.2,0,.43.43.69,1.28v.49h.3a1.77,1.77,0,0,1,1-.29c.25,0,.51.19.79.59,0,.37-.52.6-1.58.69h-.49l.3,2.65a.76.76,0,0,0-.1.39l3.64-1c.46.5.69.83.69,1a29.38,29.38,0,0,1-3.25,3.75v.1a7,7,0,0,1,1.28-.2h.29q.13,0,.6.78v.1a7.31,7.31,0,0,1-2.46.69,6.07,6.07,0,0,1-1,.6,5.76,5.76,0,0,1,.6,1.86v.11c0,.13-.07.19-.21.19a4.22,4.22,0,0,1-1.37-2.07c-.86,0-1.29-.17-1.29-.49a37.6,37.6,0,0,1-1.56-6.3c.09-.26.19-.39.28-.39h.3c.34,0,.67.72,1,2.16a.1.1,0,0,1,.11.1,13.32,13.32,0,0,1,1.77-.59,19,19,0,0,1-.7-5.22v-.68Zm-1.28,8.17c.34,1.64.6,2.46.79,2.46a33.15,33.15,0,0,0,3.94-4.13v-.1q-3.15,1.17-4.63,1.58Zm4.73,3h.19c.1,0,.2.13.3.4q0,1.5-.69,1.86h-.1c-.21,0-.37-.36-.49-1.07A1.57,1.57,0,0,1,415.22,121.27Zm3.44-.29a1.37,1.37,0,0,1,.39,1q-1.19,2.4-2.16,2.46l-.1-.2V124C417.31,122,417.94,121,418.66,121Z" transform="translate(-226.59 -84.01)"/><path class="cls-2" d="M430.09,122.5h-.66a2.86,2.86,0,0,1-.49-1.08c.17,0,.26-.25.26-.66v-1.13l.07-.5-.07-.16.07-.33a.88.88,0,0,0-.07-.33c.1-1,.15-2.42.15-4.1v-.33a.91.91,0,0,1,.42-.73H430c.06,0,.2.16.42.49l-.09.57q-.09,6.06-.09,8C430.14,122.17,430.09,122.28,430.09,122.5Z" transform="translate(-226.59 -84.01)"/><path class="cls-2" d="M432.47,121.59c-.41,0-.9-.49-1.48-1.47a4.52,4.52,0,0,1-.24-1.31,8.34,8.34,0,0,1,1.06-4.35l.57-.41h.34a4.77,4.77,0,0,1,2.71,1.23l.08.41v.16a12.09,12.09,0,0,1-.82,3.94,2.68,2.68,0,0,1-2.22,1.8Zm-.09-1.14c.78,0,1.42-.82,1.9-2.45l.33-1.66-.09-.16a.6.6,0,0,0,.09-.33,3,3,0,0,0-1.72-.49h-.09a3.57,3.57,0,0,0-.91,2.54l-.16.1.08.15v1Q432,120.45,432.38,120.45Z" transform="translate(-226.59 -84.01)"/><path class="cls-2" d="M450.9,111.52l.3.4v.19a27.08,27.08,0,0,1-1.58,3.15,3.11,3.11,0,0,0-.09.68h.19a7.08,7.08,0,0,1,1.58-1.47c.39.16.59.39.59.7s-.49.63-1.48,1.37l-.09.19,2,1.88c0,.11-.17.21-.5.29a29.42,29.42,0,0,1-2.56-1.67,12.29,12.29,0,0,0-.19,1.38q.09,2.23.09,4.23v.4c0,.09-.1.19-.29.29h-.1c-.53-.2-.79-1.28-.79-3.25v-1.67a.18.18,0,0,0-.2-.2,8.22,8.22,0,0,0-1.08,1.77h-.49a.85.85,0,0,1-.5-.69,37.69,37.69,0,0,0,3.36-6h-.11a20.63,20.63,0,0,1-2.46.5q-1.86,0-1.86-1l.29-.19h.29a3,3,0,0,1,.79.1,13.24,13.24,0,0,0,4.73-1.38ZM447,109.65c1.51.15,2.26.58,2.26,1.28-1.71-.23-2.56-.49-2.56-.79V110Q446.67,109.8,447,109.65Zm7,.1h.19a1,1,0,0,1,.6.88v5.61c0,.51.72.94,2.16,1.28.39.22.59.38.59.5v.1c0,.19-.13.29-.39.29l-2.27-.29-.09.69v5.5c0,.6-.17.89-.49.89s-.61-.75-.7-2.26a50.37,50.37,0,0,0,.2-5.52V110C453.78,109.82,453.85,109.75,454,109.75Z" transform="translate(-226.59 -84.01)"/><path class="cls-2" d="M466.69,109.61h.3c.19.08.39.37.59.88,0,.42-.66,1.53-2,3.35a3.23,3.23,0,0,1,.79,1.67v2.76a.71.71,0,0,1-.11.39l.11.2a31.58,31.58,0,0,0-.39,4.43c.13,1,.19,1.64.19,1.87l-.19.1h-.11q-.94,0-1.08-1.68l.49-7.08q-.09-1.38-.39-1.38h-.1c-.55.9-1,1.36-1.27,1.38q-.6-.21-.6-.39v-.4q0-.63,3.25-5.31C466.37,109.87,466.54,109.61,466.69,109.61Zm7.09,3.74h.1c.13,0,.2.09.2.2,0,.8-.89,1.52-2.66,2.16-.27.2-.4.33-.4.4v1.37a.8.8,0,0,1-.09.39l.09.21c0,1-.11,1.47-.19,1.47a1,1,0,0,1,.1.5c.54,0,.87-.56,1-1.69a12.74,12.74,0,0,1,1.27-3h.11a1,1,0,0,1,.59.58V116a11.08,11.08,0,0,1-1.19,3.54h.1a7.94,7.94,0,0,0,2-.4c.86.09,1.29.26,1.29.5a.76.76,0,0,0-.11.29.74.74,0,0,1,.11.3,1.21,1.21,0,0,1-.3.2h-.69c-.07,0-.1,0-.1-.11a13.35,13.35,0,0,0-4.63,1.69.76.76,0,0,1-.29-.11A7.53,7.53,0,0,1,469,122h-.7c-.09,0-.18-.1-.28-.3v-.4c0-.16.55-.39,1.67-.69V116.4l-.69.1a2,2,0,0,1-1.58-.88v-.3q0-.15.3-.3h1.07c1.06,0,1.58-.39,1.58-1.18l.2-.1H471c.09,0,.19.2.3.59A22.09,22.09,0,0,1,473.78,113.35Zm-4.73-3.55q3.56,1,3.55,2.76v.2c0,.09-.1.19-.3.29a4.66,4.66,0,0,0-2.65-1.86c-.6-.39-.9-.62-.9-.7v-.39C468.75,110,468.85,109.91,469.05,109.8Z" transform="translate(-226.59 -84.01)"/><path class="cls-2" d="M491.4,110.39h.1a.82.82,0,0,1,.59.79c-.5,3.8-1.13,5.71-1.87,5.71q-.17.36-1.08.69v.68h.09c.58,0,2.22-.78,4.92-2.36a1.07,1.07,0,0,1,.5-.1h.1c.13,0,.19.09.19.2v.4c-.78.87-1.54,1.79-2.26,2.74v.11c1.51,1.42,2.26,2.4,2.26,3v.1c-.13.26-.3.39-.49.39a13.65,13.65,0,0,1-2.07-2.16l-.39-.3q-3.09,4.2-3.45,4.24h-.38a.66.66,0,0,1-.4-.69v-1c0-1.68.06-3.19.19-4.53h-.09a.85.85,0,0,0-.4.1,5.5,5.5,0,0,0-.88-.1h-.69c-.13,0-.2.09-.2.2v1.18c0,2.23-.19,3.35-.59,3.35s-.49-.79-.49-2.37v-2.55h-.11a13.05,13.05,0,0,1-1.67,1.77h-.39c-.13,0-.19-.07-.19-.2v-.39a20.1,20.1,0,0,1,2.36-3.06V115h-.11a14.58,14.58,0,0,1-3,.69h-.2c-.09,0-.19-.1-.29-.29v-.2c0-.26,1.18-.66,3.53-1.18l.11-.2v-.39a3.28,3.28,0,0,0-.11-.89,4.9,4.9,0,0,0,.11-1l-.11-.59c0-.18.17-.34.5-.49.28,0,.55.66.79,2a3.18,3.18,0,0,0,1.38,1v.1a2.87,2.87,0,0,1-1.48,1v2.66c0,.21.53.35,1.57.4h.11a.67.67,0,0,0,.68-.4V115.8h-.59c-.1,0-.19-.13-.29-.39s.33-.46,1-.89c0-1,.23-1.48.58-1.48s.46.27.49.4v.78l1-.09c0,.06,0,.09.1.09a11.31,11.31,0,0,0,.58-2.65h-.09a9.52,9.52,0,0,1-3.15,1.38H487c-.09,0-.19-.1-.29-.3v-.29c0-.16.68-.39,2-.69C490.29,110.94,491.2,110.52,491.4,110.39Zm-5.71,2.46v.79q.72,0,.78-.3a2.62,2.62,0,0,1-.68-.49Zm3.24,6.4v.1c0,.5-.06,1.68-.19,3.54h.1a27.36,27.36,0,0,0,2.66-3C491.5,119.61,490.64,119.38,488.93,119.25Zm.21-2.36a1.79,1.79,0,0,0,1-.4c.07-.83.1-1.32.1-1.48H490a.9.9,0,0,0-.79.89Zm2.26,1.57c0,.16.32.33,1,.49h.1a9.17,9.17,0,0,1,1.18-1.48v-.09h-.09A11.85,11.85,0,0,1,491.4,118.46Z" transform="translate(-226.59 -84.01)"/><path class="cls-2" d="M503.17,111c.28,0,.48.36.59,1.08l-1.38,2.37v.19l1.38-.29h.2a1,1,0,0,1,.58.88,16,16,0,0,1-1.08,2.37h.59c.14,0,.2.08.2.19v.88a3.71,3.71,0,0,1-2.75,1.19c-.43,0-.69-.29-.79-.89a14.27,14.27,0,0,1,1.86-2.55v-.11h-.19a6.77,6.77,0,0,0-.79.2H501c-.78-.11-1.18-.27-1.18-.49V116c0-.33.79-1.52,2.36-3.55Q502.72,111,503.17,111Zm1.58,8.76h.09v.1a7.08,7.08,0,0,1-1.38,2c-.63,1.51-1.19,2.26-1.67,2.26h-.4c-.11,0-.24-.2-.39-.59S502.25,121.92,504.75,119.79Zm3.44-9.84h.59c.13,0,.19.08.19.19q-.09,1.29-.09,2.07H509c.1,0,.76-.2,2-.59,0,.91-.62,1.53-1.87,1.87a2,2,0,0,0-.49,1.08v1.77h.2l1.67-.68c.13,0,.2.08.2.19-.58,1.12-1.07,1.71-1.47,1.78a13.7,13.7,0,0,1-2,.79h-.79a.84.84,0,0,1-.6-.79c1.19-.41,1.78-.7,1.78-.9v-2.46l-1.29.11c-.45-.09-.68-.22-.68-.39v-.21c0-.29.56-.55,1.67-.78.21,0,.41-1,.59-2.86Zm4.63,8.47a.63.63,0,0,1,.19.39c0,.53-.88,1.88-2.66,4,.09,0,.26.16.5.49v.49q0,.42-3.06,1.08-.81,0-2.06-5.51c.1-.27.19-.4.29-.4h.2c.26,0,.48.49.69,1.48A40.6,40.6,0,0,1,512.82,118.42Zm-5.61,3.24c.3,1.45.56,2.17.78,2.17h.1c2-1.83,3.05-3,3.05-3.55v-.1H511a24.79,24.79,0,0,1-3.74,1.28Z" transform="translate(-226.59 -84.01)"/><path class="cls-2" d="M519.41,122.25h.2c.47,0,1.29.69,2.47,2.07v.1c0,.13-.2.26-.5.39q-2.37-1.22-2.37-2.16v-.19C519.23,122.32,519.3,122.25,519.41,122.25Zm3.84-12.2c.2,0,.43.43.69,1.28v.49h.3a1.77,1.77,0,0,1,1-.29c.25,0,.51.19.79.59,0,.37-.52.6-1.58.69h-.49l.3,2.65a.76.76,0,0,0-.1.39l3.64-1c.46.5.69.83.69,1a29.38,29.38,0,0,1-3.25,3.75v.1a7,7,0,0,1,1.28-.2h.29q.13,0,.6.78v.1a7.31,7.31,0,0,1-2.46.69,5.55,5.55,0,0,1-1,.6,5.76,5.76,0,0,1,.6,1.86v.11c0,.13-.07.19-.21.19a4.22,4.22,0,0,1-1.37-2.07c-.86,0-1.28-.17-1.28-.49a36.11,36.11,0,0,1-1.57-6.3c.09-.26.19-.39.28-.39h.3q.51,0,1,2.16a.09.09,0,0,1,.1.1,13.32,13.32,0,0,1,1.77-.59,19,19,0,0,1-.7-5.22v-.68ZM522,118.22c.34,1.64.6,2.46.79,2.46a33.15,33.15,0,0,0,3.94-4.13v-.1q-3.15,1.17-4.62,1.58Zm4.73,3h.19c.1,0,.2.13.3.4q0,1.5-.69,1.86h-.1c-.21,0-.37-.36-.49-1.07A1.57,1.57,0,0,1,526.7,121.27Zm3.45-.29a1.4,1.4,0,0,1,.38,1q-1.18,2.4-2.16,2.46l-.1-.2V124C528.79,122,529.42,121,530.15,121Z" transform="translate(-226.59 -84.01)"/><line class="cls-1" x1="417.41" y1="50.49" x2="492.37" y2="50.49"/><path class="cls-2" d="M725,134.5a30.1,30.1,0,0,0-8.55,4.76l1.72-4.76-1.72-4.75A30.31,30.31,0,0,0,725,134.5Z" transform="translate(-226.59 -84.01)"/><path class="cls-2" d="M657.88,110.63h.39c.05,0,.25.2.59.6,1.31-.16,2-.25,2.17-.3.41.13.64.29.68.49v.39c0,.2-1.05.46-3.14.79l-.11.19v.9l2.27-.21c.65.26,1,.66,1,1.19v.78c-.77,2.82-1.33,4.23-1.67,4.23h-.19l-.49-.49a1.7,1.7,0,0,0-1,1.39v.09l.09.19a1.62,1.62,0,0,1,.79-.19h.6c.13,0,.19.1.19.3a3.58,3.58,0,0,1-1.47,1.28.71.71,0,0,0-.11.39v.1c.9-.07,1.46-.1,1.67-.1,1.06.13,1.62.19,1.69.19l.68-.09.1.2v.29c-.12.59-.25.88-.39.88a7.23,7.23,0,0,0-1.87-.39,11.74,11.74,0,0,0-3.16.89,11.07,11.07,0,0,1-2,.19,1,1,0,0,1-.58-.49v-.09q0-.56,2.55-.9a1.21,1.21,0,0,0,.21-.28v-.3l-.9-.49c-.06,0-.09,0-.09-.1V122a.92.92,0,0,1,.88-.49v-.88c0-.15-.42-.31-1.28-.5,0-.06,0-.1-.09-.1s-.2.09-.2.2v1.08a.18.18,0,0,1-.2.2c-.59,0-.88-.69-.88-2.07-.13-1.12-.26-3-.4-5.51.1-.27.2-.4.3-.4h.19c.21.06.44.42.7,1.09,1.37-.17,2.06-.46,2.06-.88v-.11c0-.45-.17-.71-.49-.79a37.25,37.25,0,0,1-4.43.3h-.3a1,1,0,0,1-.88-.59v-.29q0-.45,5.61-.7A2.94,2.94,0,0,0,657.88,110.63Zm.49-2h.2q.15,0,.39.39v.3c0,.22-1,.64-3.05,1.28-.94,0-1.5-.2-1.68-.59v-.39c0-.13.09-.2.2-.2h.5A15.31,15.31,0,0,0,658.37,108.66Zm-3,7.49v.39c1.37-.14,2.06-.34,2.06-.6v-.39h-.09C656.07,115.72,655.42,115.92,655.42,116.15Zm.19.88a2.45,2.45,0,0,0-.19,1c.06.95.09,1.48.09,1.58h.1a11.33,11.33,0,0,1,1.67-.69.71.71,0,0,0,.11-.39v-1l-.11-.19-.49.09h-.3A1.6,1.6,0,0,1,655.61,117Zm2.85,1.37h.2c.53,0,.93-.39,1.19-1.18,0-.13-.07-.19-.21-.19h-.28C658.76,117,658.46,117.49,658.46,118.4Zm.2-2.46c0,.22.52.38,1.58.49a4.54,4.54,0,0,0,.59-1.76v-.1c-1.45.23-2.17.52-2.17.88Z" transform="translate(-226.59 -84.01)"/><path class="cls-2" d="M671,106.59h.4c1.45.64,2.17,1.36,2.17,2.16v.2h.19a2.2,2.2,0,0,1,1.18-.59q.15,0,.3.3a6.63,6.63,0,0,1-2.76,2.26,6.57,6.57,0,0,1-.39,1.58.81.81,0,0,1,.09.29c.35,0,.61-.55.79-1.67a1.19,1.19,0,0,1,1-.59l.19.3V111a1.37,1.37,0,0,1-.49.88v.21h.79s.15.09.3.28-.13.73-.39,1.88h.09a7,7,0,0,0,1-.3l.11.2a3.19,3.19,0,0,0-1.18,2.86c-.14,3.14-.37,4.72-.7,4.72h-.29a13.88,13.88,0,0,1-2.56-2c-.17.13-.26.2-.3.2h-.3c-.14,0-.24-.16-.28-.49a14.81,14.81,0,0,0,.78-1.88h-1c-.1,0-.23-.19-.39-.58,0-.33.72-.63,2.17-.89a6.61,6.61,0,0,1,1.77-.79v-1.67a11.56,11.56,0,0,1-2.95.79h-.11c-.09,0-.18-.1-.28-.3v-.3a5.15,5.15,0,0,1,1.27-.88v-1.48l-.09-.19-.79.19c-.73-.05-1.09-.27-1.09-.68a9.15,9.15,0,0,1,2.76-1.09c0-.1.4-.26,1.18-.49v-.1a4,4,0,0,0-2.17-1.47,1.19,1.19,0,0,1-.29-.7v-.09C670.72,106.79,670.82,106.69,671,106.59Zm.11,12.69a2.63,2.63,0,0,0,1.67.79H673a23.21,23.21,0,0,0,.2-2.95v-.39l-.1-.19C672.74,116.55,672.08,117.47,671.12,119.28Zm6.39-10.42h.3c.13,0,.2.08.2.19v.3a6.16,6.16,0,0,0-1.48,1.77,1.88,1.88,0,0,1,1.18,1.77l.1.59h.09a29.56,29.56,0,0,1,3.36-1.37h.19c.13,0,.2.08.2.19s-.46.57-1.38,1.28a.82.82,0,0,1,.1.29q-.69,13-1.38,13h-.19l-.11-.69v-.29c0-1.2,0-2.87.11-5a.81.81,0,0,0,.09-.29c0-.07,0-.1-.09-.1l.09-.49V118.3c0-.38,0-.9.1-1.57,0-.07,0-.1-.1-.1l.3-2.16a.74.74,0,0,0-.3-.11,1.73,1.73,0,0,0-1.28,1.78q-.61,5.11-1.08,5.11h-.4q-.15,0-.39-.39v-.1a5.35,5.35,0,0,1,.2-1.76,4.38,4.38,0,0,1-1.18-2.18l.19-.09c.39,0,.82.3,1.28.88a6,6,0,0,0,.3-2.16c-.1,0-.24-.13-.4-.39v-.59c0-.09.2-.25.59-.5l-.1-.19.1-.49c-.11-.53-.24-.79-.38-.79l-.9.19c-.32-.08-.49-.18-.49-.3v-.09c0-.68.63-1.76,1.88-3.25Z" transform="translate(-226.59 -84.01)"/><path class="cls-2" d="M696,108.12a2.09,2.09,0,0,1,.39.69l1-.1h1.08q.17,0,.39.39v.6l-.28,1.47a.67.67,0,0,0,.38.2v.09l-.59.79v.49c.4,0,.59.07.59.2a5.43,5.43,0,0,0-1.08,1.77h-.2q-.39-.13-.39-.3c-.59.25-.89.58-.89,1v.7l-.09,1a.08.08,0,0,1,.09.09,18.48,18.48,0,0,1,2-.29h.3c.13,0,.19.08.19.2s-.78.58-2.36,1.27a.88.88,0,0,0-.1.4v.49a16.52,16.52,0,0,0,2.46-.79v.2a5.27,5.27,0,0,1-2.25,1.77c-.12,0-.19.17-.21.5v1.57l-.09.5a11.45,11.45,0,0,0,3.74,1.76V125c-.1.25-.2.38-.3.38q-4.17,0-8.66-5.41h-.19a28.63,28.63,0,0,0-1.58,3.15l-.2.1h-.3c-.06,0-.19-.13-.39-.4q.08-2.46.39-2.46h.11l.49.1a6.33,6.33,0,0,0,.79-1.37,12.18,12.18,0,0,1-2.37-1.58v-.3a.79.79,0,0,0,.3-.09,9.18,9.18,0,0,1,2.46,1.37,25.93,25.93,0,0,0,2.07-3v-.1a13.72,13.72,0,0,1-2.27.7h-.1c-.1,0-.19-.1-.3-.3v-.1a16.69,16.69,0,0,1,2-3.84v-.3c-1.28-.47-1.94-.8-2-1q.06-.6.3-.6h.2c1.57.5,2.36.93,2.36,1.29v.4a19.13,19.13,0,0,1-1.28,3l1.38-.3a.84.84,0,0,1,.79.49v.39a18.33,18.33,0,0,1-2.36,3.75v.1a56.08,56.08,0,0,0,4.62,3.83h.1v-.1c-.17-1.37-.4-2.06-.69-2.06s-.39-.1-.39-.3v-.19l.59-.6v-1.18h-.1a1.16,1.16,0,0,1-.6.2c-.65-.08-1-.21-1-.39v-.1a5.77,5.77,0,0,1,1.68-.79V115.5a7.36,7.36,0,0,0-.79.2h-.4q-.15,0-.39-.39v-.11c1.06-.55,1.58-1,1.58-1.37v-.89c-1,.13-1.49.2-1.58.2-.33,0-.49-.14-.49-.29v-.2c0-.19.7-.45,2-.79l.1-.49v-1.48h-.7a.66.66,0,0,1-.68-.4v-.09c0-.25.42-.41,1.28-.49C695.66,108.38,695.82,108.12,696,108.12Zm.3,3.55c.92,0,1.37-.27,1.37-.79a5.12,5.12,0,0,0,.4-1.48l-.2-.1-1.57.59Zm0,1.18v.88c.72,0,1.08-.43,1.08-1.28h-.1C696.6,112.53,696.27,112.66,696.27,112.85Z" transform="translate(-226.59 -84.01)"/><path class="cls-2" d="M708.43,112.74h.3c.15,0,.25.17.3.49-.07,1.15-.11,2.07-.11,2.76H709l1.67-.29.1.19v.21c0,.24-.63.57-1.88,1l-.09,1v2.47h.09l1.58-1.78c.13,0,.2.09.2.2a12,12,0,0,1-3.55,5.41h-.49q-.17,0-.39-.39v-.2a3.07,3.07,0,0,0,1.47-2.75v-.1c-.07-2.27-.1-3.45-.1-3.55l-.49.1h-.39a.84.84,0,0,1-.79-.59v-.1a1,1,0,0,1,1-.49h.6c.15,0,.28-1,.39-2.86C708.15,113,708.31,112.74,708.43,112.74ZM713,109.1c.17,0,.3.27.39.79a2.87,2.87,0,0,0-1,.88v.11l.59-.11q1.45,0,3.45,2.37a2.16,2.16,0,0,1,1-.4h.2c.13,0,.19.09.19.2v.2a7.89,7.89,0,0,1-2.26,1.67,7.27,7.27,0,0,0-.1,1.08.86.86,0,0,1,.1.3l1.19-.09.28.39v.1c-.07.25-.6.61-1.57,1.07v.5h.2a2.43,2.43,0,0,0,1-.39c.3.12.47.25.49.39,0,.43-.55.89-1.67,1.38v1.76h1.48c1.06,0,1.68.37,1.87,1.09q-.15.39-.3.39h-.2a1.57,1.57,0,0,0-.88-.39H717a31.7,31.7,0,0,0-4.22.88c0-.13-.07-.19-.21-.19h-.09c-.08,0-.27.36-.59,1.09l-.2.09h-.19a.91.91,0,0,1-.5-.88c.06-3.93.1-6.36.1-7.28a4.89,4.89,0,0,0-.89-3.36c0-1.06.79-2.24,2.36-3.53A.77.77,0,0,1,713,109.1Zm-1,2.17-.6,1a10.85,10.85,0,0,1,.69,4V120a.8.8,0,0,1-.09.39c0,.07,0,.11.09.11l-.09.68v1c0,.09.1.19.3.29a9.34,9.34,0,0,1,2.06-.89c0-.13,0-.19-.1-.19l.1-1v-.49c-.79,0-1.18-.26-1.18-.79,0-.11.39-.3,1.18-.58a.88.88,0,0,0,.1-.4V118c0-.13-.07-.19-.2-.19h-.78a.84.84,0,0,1-.79-.5V117c0-.18.55-.31,1.67-.39l.1-.21v-1h-.1l-1.29.1a1.34,1.34,0,0,1-.38-.88,4.14,4.14,0,0,1,1.67-.6l.59-1.17v-.11a8.88,8.88,0,0,0-2.56-1.07C712.37,111.56,712.24,111.43,712,111.27Z" transform="translate(-226.59 -84.01)"/></svg>