<svg id="图层_1" data-name="图层 1" xmlns="http://www.w3.org/2000/svg" viewBox="0 0 815 187"><defs><style>.cls-1{fill:none;stroke:#3ea69f;stroke-miterlimit:10;}.cls-2{fill:#3ea69f;}</style></defs><circle class="cls-1" cx="429.5" cy="18.5" r="18"/><path class="cls-2" d="M596.24,166.05h3.86v-9.82h-3v-1.14a9.5,9.5,0,0,0,3.44-1h1.3v12h3.49v1.45h-9.09Z" transform="translate(-171 -143)"/><circle class="cls-1" cx="386.5" cy="92.5" r="18"/><path class="cls-2" d="M552.73,240.47c4.54-4,7-6.36,7-8.59,0-1.53-.93-2.6-2.9-2.6a4.58,4.58,0,0,0-3.21,1.6l-1-1a6,6,0,0,1,4.43-2c2.69,0,4.37,1.58,4.37,4s-2.52,5-6.16,8.31c.84-.06,1.7-.1,2.5-.1h4.39v1.49h-9.43Z" transform="translate(-171 -143)"/><circle class="cls-1" cx="472.5" cy="92.5" r="18"/><path class="cls-2" d="M638.4,239.86l.88-1.13a5.41,5.41,0,0,0,3.84,1.57c1.83,0,3.19-.94,3.19-2.43s-1.34-2.67-4.85-2.67v-1.32c3.17,0,4.39-1.09,4.39-2.5s-1.11-2.1-2.73-2.1a5.12,5.12,0,0,0-3.3,1.34l-.92-1.09a6.51,6.51,0,0,1,4.28-1.68c2.52,0,4.43,1.24,4.43,3.4,0,1.62-1.19,2.65-2.85,3.2v.08c1.78.38,3.32,1.55,3.32,3.4,0,2.37-2.19,3.82-4.85,3.82A6.54,6.54,0,0,1,638.4,239.86Z" transform="translate(-171 -143)"/><line class="cls-1" x1="420" y1="33" x2="393" y2="76"/><line class="cls-1" x1="440" y1="34" x2="466" y2="76"/><circle class="cls-1" cx="18.5" cy="18.5" r="18"/><path class="cls-2" d="M185.24,166.05h3.86v-9.82h-3v-1.14a9.5,9.5,0,0,0,3.44-1h1.3v12h3.49v1.45h-9.09Z" transform="translate(-171 -143)"/><circle class="cls-1" cx="61.5" cy="92.5" r="18"/><path class="cls-2" d="M227.73,240.47c4.54-4,7-6.36,7-8.59,0-1.53-.93-2.6-2.9-2.6a4.58,4.58,0,0,0-3.21,1.6l-1-1a6,6,0,0,1,4.43-2c2.69,0,4.37,1.58,4.37,4s-2.52,5-6.16,8.31c.84-.06,1.7-.1,2.5-.1h4.39v1.49h-9.43Z" transform="translate(-171 -143)"/><line class="cls-1" x1="29" y1="34" x2="55" y2="76"/><circle class="cls-1" cx="102.5" cy="166.5" r="18"/><path class="cls-2" d="M268.4,313.86l.88-1.13a5.41,5.41,0,0,0,3.84,1.57c1.83,0,3.19-.94,3.19-2.43s-1.34-2.67-4.85-2.67v-1.32c3.17,0,4.39-1.09,4.39-2.5s-1.11-2.1-2.73-2.1a5.12,5.12,0,0,0-3.3,1.34l-.92-1.09a6.51,6.51,0,0,1,4.28-1.68c2.52,0,4.43,1.24,4.43,3.4,0,1.62-1.19,2.65-2.85,3.2v.08c1.78.38,3.32,1.55,3.32,3.4,0,2.37-2.19,3.82-4.85,3.82A6.54,6.54,0,0,1,268.4,313.86Z" transform="translate(-171 -143)"/><line class="cls-1" x1="70" y1="108" x2="96" y2="150"/><circle class="cls-1" cx="614.5" cy="18.5" r="18"/><path class="cls-2" d="M781.24,166.05h3.86v-9.82h-3v-1.14a9.5,9.5,0,0,0,3.44-1h1.3v12h3.49v1.45h-9.09Z" transform="translate(-171 -143)"/><circle class="cls-1" cx="571.5" cy="92.5" r="18"/><path class="cls-2" d="M737.73,240.47c4.54-4,7-6.36,7-8.59,0-1.53-.93-2.6-2.9-2.6a4.58,4.58,0,0,0-3.21,1.6l-1-1a6,6,0,0,1,4.43-2c2.69,0,4.37,1.58,4.37,4s-2.52,5-6.16,8.31c.84-.06,1.7-.1,2.5-.1h4.39v1.49h-9.43Z" transform="translate(-171 -143)"/><line class="cls-1" x1="605" y1="33" x2="578" y2="76"/><circle class="cls-1" cx="610.5" cy="168.5" r="18"/><path class="cls-2" d="M776.4,315.86l.88-1.13a5.41,5.41,0,0,0,3.84,1.57c1.83,0,3.19-.94,3.19-2.43s-1.34-2.67-4.85-2.67v-1.32c3.17,0,4.39-1.09,4.39-2.5s-1.11-2.1-2.73-2.1a5.12,5.12,0,0,0-3.3,1.34l-.92-1.09a6.51,6.51,0,0,1,4.28-1.68c2.52,0,4.43,1.24,4.43,3.4,0,1.62-1.19,2.65-2.85,3.2v.08c1.78.38,3.32,1.55,3.32,3.4,0,2.37-2.19,3.82-4.85,3.82A6.54,6.54,0,0,1,776.4,315.86Z" transform="translate(-171 -143)"/><line class="cls-1" x1="578" y1="110" x2="604" y2="152"/><circle class="cls-1" cx="796.5" cy="18.5" r="18"/><path class="cls-2" d="M963.24,166.05h3.86v-9.82h-3v-1.14a9.5,9.5,0,0,0,3.44-1h1.3v12h3.49v1.45h-9.09Z" transform="translate(-171 -143)"/><circle class="cls-1" cx="753.5" cy="92.5" r="18"/><path class="cls-2" d="M919.73,240.47c4.54-4,7-6.36,7-8.59,0-1.53-.93-2.6-2.9-2.6a4.58,4.58,0,0,0-3.21,1.6l-1-1a6,6,0,0,1,4.43-2c2.69,0,4.37,1.58,4.37,4s-2.52,5-6.16,8.31c.84-.06,1.7-.1,2.5-.1h4.39v1.49h-9.43Z" transform="translate(-171 -143)"/><line class="cls-1" x1="787" y1="33" x2="760" y2="76"/><circle class="cls-1" cx="222.5" cy="18.5" r="18"/><path class="cls-2" d="M389.24,166.05h3.86v-9.82h-3v-1.14a9.5,9.5,0,0,0,3.44-1h1.3v12h3.49v1.45h-9.09Z" transform="translate(-171 -143)"/><circle class="cls-1" cx="224.5" cy="168.5" r="18"/><path class="cls-2" d="M390.4,315.86l.88-1.13a5.41,5.41,0,0,0,3.84,1.57c1.83,0,3.19-.94,3.19-2.43s-1.34-2.67-4.85-2.67v-1.32c3.17,0,4.39-1.09,4.39-2.5s-1.11-2.1-2.73-2.1a5.12,5.12,0,0,0-3.3,1.34l-.92-1.09a6.51,6.51,0,0,1,4.28-1.68c2.52,0,4.43,1.24,4.43,3.4,0,1.62-1.19,2.65-2.85,3.2v.08c1.78.38,3.32,1.55,3.32,3.4,0,2.37-2.19,3.82-4.85,3.82A6.54,6.54,0,0,1,390.4,315.86Z" transform="translate(-171 -143)"/><circle class="cls-1" cx="265.5" cy="92.5" r="18"/><path class="cls-2" d="M431.73,240.47c4.54-4,7-6.36,7-8.59,0-1.53-.93-2.6-2.9-2.6a4.58,4.58,0,0,0-3.21,1.6l-1-1a6,6,0,0,1,4.43-2c2.69,0,4.37,1.58,4.37,4s-2.52,5-6.16,8.31c.84-.06,1.7-.1,2.5-.1h4.39v1.49h-9.43Z" transform="translate(-171 -143)"/><line class="cls-1" x1="258" y1="109" x2="231" y2="152"/><circle class="cls-1" cx="711.5" cy="167.5" r="18"/><path class="cls-2" d="M877.4,314.86l.88-1.13a5.41,5.41,0,0,0,3.84,1.57c1.83,0,3.19-.94,3.19-2.43s-1.34-2.67-4.85-2.67v-1.32c3.17,0,4.39-1.09,4.39-2.5s-1.11-2.1-2.73-2.1a5.07,5.07,0,0,0-3.29,1.34l-.93-1.09a6.51,6.51,0,0,1,4.28-1.68c2.52,0,4.43,1.24,4.43,3.4,0,1.62-1.19,2.65-2.85,3.2v.08c1.78.38,3.32,1.55,3.32,3.4,0,2.37-2.19,3.82-4.85,3.82A6.54,6.54,0,0,1,877.4,314.86Z" transform="translate(-171 -143)"/><line class="cls-1" x1="745" y1="108" x2="718" y2="151"/><line class="cls-1" x1="233" y1="34" x2="259" y2="76"/></svg>