<svg id="图层_1" data-name="图层 1" xmlns="http://www.w3.org/2000/svg" viewBox="0 0 749.19 112.96"><defs><style>.cls-1{fill:none;stroke:#3ea69f;stroke-miterlimit:10;}.cls-2{fill:#3ea69f;}</style></defs><rect class="cls-1" x="62.18" y="0.5" width="198.51" height="32.96"/><line class="cls-1" x1="126.39" y1="0.5" x2="126.39" y2="33.46"/><line class="cls-1" x1="197.39" y1="0.5" x2="197.39" y2="33.46"/><path class="cls-2" d="M382.89,165l.76-1a4.64,4.64,0,0,0,3.29,1.35c1.57,0,2.74-.81,2.74-2.09s-1.15-2.29-4.16-2.29v-1.13c2.72,0,3.76-.94,3.76-2.14s-.95-1.8-2.34-1.8a4.29,4.29,0,0,0-2.82,1.15l-.8-.94a5.58,5.58,0,0,1,3.68-1.44c2.16,0,3.8,1.06,3.8,2.92,0,1.38-1,2.27-2.45,2.74v.07c1.53.32,2.84,1.33,2.84,2.91,0,2-1.87,3.28-4.16,3.28A5.62,5.62,0,0,1,382.89,165Z" transform="translate(-294.31 -143.21)"/><path class="cls-2" d="M445.61,165.15h3.32v-8.42h-2.58v-1a8.43,8.43,0,0,0,2.95-.84h1.12v10.24h3v1.25h-7.8Z" transform="translate(-294.31 -143.21)"/><path class="cls-2" d="M461.29,158.49c0-.63.06-1.4.09-2h-.09c-.38.55-.79,1.11-1.17,1.67L457,162h7.46v1.21h-9.11v-1l5.72-7.33h1.61V166.4h-1.41Z" transform="translate(-294.31 -143.21)"/><rect class="cls-1" x="306.18" y="0.5" width="198.51" height="32.96"/><line class="cls-1" x1="370.39" y1="0.5" x2="370.39" y2="33.46"/><line class="cls-1" x1="441.39" y1="0.5" x2="441.39" y2="33.46"/><path class="cls-2" d="M627.18,165.51c3.89-3.44,6-5.45,6-7.36,0-1.32-.79-2.23-2.48-2.23a4,4,0,0,0-2.76,1.36l-.86-.84a5.1,5.1,0,0,1,3.8-1.75c2.3,0,3.74,1.35,3.74,3.39s-2.16,4.3-5.27,7.13c.72-.06,1.46-.09,2.14-.09h3.76v1.28h-8.08Z" transform="translate(-294.31 -143.21)"/><path class="cls-2" d="M697.09,163.46c0-1.58,1.22-2.48,2.47-3.06v-.07a3.23,3.23,0,0,1-1.75-2.69c0-1.76,1.49-2.95,3.55-2.95,2.25,0,3.56,1.28,3.56,3.06a3.62,3.62,0,0,1-1.74,2.74v.07c1.26.63,2.25,1.35,2.25,3s-1.5,3.06-4.13,3.06S697.09,165.28,697.09,163.46Zm6.91,0c0-1.59-1.6-2-3.6-2.67-1.11.6-2,1.33-2,2.49s1.13,2.17,2.9,2.17S704,164.68,704,163.5Zm-.37-5.68a2,2,0,0,0-2.31-2,1.9,1.9,0,0,0-2.14,1.83c0,1.37,1.31,2,3,2.49A2.93,2.93,0,0,0,703.63,157.82Z" transform="translate(-294.31 -143.21)"/><rect class="cls-1" x="550.18" y="0.5" width="198.51" height="32.96"/><line class="cls-1" x1="614.39" y1="0.5" x2="614.39" y2="33.46"/><line class="cls-1" x1="685.39" y1="0.5" x2="685.39" y2="33.46"/><path class="cls-2" d="M990.34,154.58H992l3.78,7.42,1.13,2.45h0c-.05-1.17-.2-2.5-.2-3.74v-6.13h1.44V166.4h-1.65L992.75,159l-1.13-2.45h0c.06,1.2.2,2.46.2,3.69v6.18h-1.44Z" transform="translate(-294.31 -143.21)"/><path class="cls-2" d="M1001.09,161.93v-7.35h1.53V162c0,2.43,1.06,3.31,2.46,3.31s2.51-.88,2.51-3.31v-7.39h1.46v7.35c0,3.38-1.66,4.68-4,4.68S1001.09,165.31,1001.09,161.93Z" transform="translate(-294.31 -143.21)"/><path class="cls-2" d="M1012.88,154.58h1.49v10.54h5.84v1.28h-7.33Z" transform="translate(-294.31 -143.21)"/><path class="cls-2" d="M1023.68,154.58h1.49v10.54H1031v1.28h-7.33Z" transform="translate(-294.31 -143.21)"/><path class="cls-2" d="M871.61,165.15h3.32v-8.42h-2.58v-1a8.43,8.43,0,0,0,2.95-.84h1.12v10.24h3v1.25h-7.8Z" transform="translate(-294.31 -143.21)"/><path class="cls-2" d="M939.14,160.62c0-3.86,1.57-5.93,4.13-5.93s4.12,2.07,4.12,5.93-1.57,6-4.12,6S939.14,164.43,939.14,160.62Zm6.86,0c0-3.3-1.13-4.72-2.73-4.72s-2.74,1.42-2.74,4.72,1.14,4.78,2.74,4.78S946,163.91,946,160.62Zm-3.85-.13a1.12,1.12,0,1,1,1.12,1.21A1.12,1.12,0,0,1,942.15,160.49Z" transform="translate(-294.31 -143.21)"/><rect class="cls-1" x="62.18" y="79.5" width="198.51" height="32.96"/><line class="cls-1" x1="126.39" y1="79.5" x2="126.39" y2="112.46"/><line class="cls-1" x1="197.39" y1="79.5" x2="197.39" y2="112.46"/><path class="cls-2" d="M383.09,242.46c0-1.58,1.22-2.48,2.47-3.06v-.07a3.23,3.23,0,0,1-1.75-2.69c0-1.76,1.49-2.95,3.55-2.95,2.25,0,3.56,1.28,3.56,3.06a3.62,3.62,0,0,1-1.74,2.74v.07c1.26.63,2.25,1.35,2.25,3s-1.5,3.06-4.13,3.06S383.09,244.28,383.09,242.46Zm6.91,0c0-1.59-1.6-2-3.6-2.67-1.11.6-2,1.33-2,2.49s1.13,2.17,2.9,2.17S390,243.68,390,242.5Zm-.37-5.68a2,2,0,0,0-2.31-2,1.9,1.9,0,0,0-2.14,1.83c0,1.37,1.31,2,3,2.49A2.91,2.91,0,0,0,389.63,236.82Z" transform="translate(-294.31 -143.21)"/><path class="cls-2" d="M445.61,244.15h3.32v-8.42h-2.58v-1a8.43,8.43,0,0,0,2.95-.84h1.12v10.24h3v1.24h-7.8Z" transform="translate(-294.31 -143.21)"/><path class="cls-2" d="M461.29,237.49c0-.63.06-1.4.09-2h-.09c-.38.55-.79,1.11-1.17,1.67L457,241h7.46v1.21h-9.11v-1l5.72-7.33h1.61v11.48h-1.41Z" transform="translate(-294.31 -143.21)"/><rect class="cls-1" x="306.18" y="79.5" width="198.51" height="32.96"/><line class="cls-1" x1="370.39" y1="79.5" x2="370.39" y2="112.46"/><line class="cls-1" x1="441.39" y1="79.5" x2="441.39" y2="112.46"/><path class="cls-2" d="M623.4,238.89h7.74V240H623.4Z" transform="translate(-294.31 -143.21)"/><path class="cls-2" d="M633.69,244l.76-1a4.64,4.64,0,0,0,3.29,1.35c1.57,0,2.74-.81,2.74-2.09s-1.15-2.29-4.16-2.29v-1.13c2.72,0,3.76-.94,3.76-2.14s-1-1.8-2.34-1.8a4.29,4.29,0,0,0-2.82,1.15l-.8-.94a5.58,5.58,0,0,1,3.68-1.44c2.16,0,3.8,1.06,3.8,2.92,0,1.38-1,2.27-2.45,2.74v.07c1.53.32,2.84,1.33,2.84,2.91,0,2-1.87,3.28-4.16,3.28A5.62,5.62,0,0,1,633.69,244Z" transform="translate(-294.31 -143.21)"/><path class="cls-2" d="M689.61,244.15h3.32v-8.42h-2.58v-1a8.43,8.43,0,0,0,2.95-.84h1.12v10.24h3v1.24h-7.8Z" transform="translate(-294.31 -143.21)"/><path class="cls-2" d="M699.94,239.62c0-3.86,1.57-5.93,4.13-5.93s4.12,2.07,4.12,5.93-1.57,6-4.12,6S699.94,243.43,699.94,239.62Zm6.86,0c0-3.3-1.13-4.72-2.73-4.72s-2.74,1.42-2.74,4.72,1.13,4.78,2.74,4.78S706.8,242.91,706.8,239.62Zm-3.85-.13a1.12,1.12,0,1,1,1.12,1.21A1.12,1.12,0,0,1,703,239.49Z" transform="translate(-294.31 -143.21)"/><rect class="cls-1" x="550.18" y="79.5" width="198.51" height="32.96"/><line class="cls-1" x1="614.39" y1="79.5" x2="614.39" y2="112.46"/><line class="cls-1" x1="685.39" y1="79.5" x2="685.39" y2="112.46"/><path class="cls-2" d="M990.34,233.58H992l3.78,7.42,1.13,2.45h0c-.05-1.17-.2-2.5-.2-3.74v-6.13h1.44v11.81h-1.65L992.75,238l-1.13-2.45h0c.06,1.2.2,2.46.2,3.69v6.17h-1.44Z" transform="translate(-294.31 -143.21)"/><path class="cls-2" d="M1001.09,240.93v-7.35h1.53V241c0,2.43,1.06,3.31,2.46,3.31s2.51-.88,2.51-3.31v-7.39h1.46v7.35c0,3.38-1.66,4.68-4,4.68S1001.09,244.31,1001.09,240.93Z" transform="translate(-294.31 -143.21)"/><path class="cls-2" d="M1012.88,233.58h1.49v10.54h5.84v1.27h-7.33Z" transform="translate(-294.31 -143.21)"/><path class="cls-2" d="M1023.68,233.58h1.49v10.54H1031v1.27h-7.33Z" transform="translate(-294.31 -143.21)"/><path class="cls-2" d="M866.61,244.15h3.32v-8.42h-2.58v-1a8.43,8.43,0,0,0,2.95-.84h1.12v10.24h3v1.24h-7.8Z" transform="translate(-294.31 -143.21)"/><path class="cls-2" d="M876.94,239.62c0-3.86,1.57-5.93,4.13-5.93s4.12,2.07,4.12,5.93-1.57,6-4.12,6S876.94,243.43,876.94,239.62Zm6.86,0c0-3.3-1.13-4.72-2.73-4.72s-2.74,1.42-2.74,4.72,1.13,4.78,2.74,4.78S883.8,242.91,883.8,239.62Zm-3.85-.13a1.12,1.12,0,1,1,1.12,1.21A1.12,1.12,0,0,1,880,239.49Z" transform="translate(-294.31 -143.21)"/><path class="cls-2" d="M939.25,240.08c0-4.61,2.31-6.39,4.81-6.39a4.52,4.52,0,0,1,3.2,1.23l-.82.93a3.41,3.41,0,0,0-2.29-.92c-1.87,0-3.49,1.32-3.49,5.15,0,2.83,1.08,4.36,3,4.36a2.38,2.38,0,0,0,2.41-2.52,2.18,2.18,0,0,0-2.43-2.43,4,4,0,0,0-3,1.62l0-1.17a4.87,4.87,0,0,1,3.33-1.57,3.27,3.27,0,0,1,3.58,3.55,3.7,3.7,0,0,1-3.83,3.69C941.14,245.61,939.25,243.77,939.25,240.08Z" transform="translate(-294.31 -143.21)"/><line class="cls-1" x1="230.69" y1="16.79" x2="281.66" y2="16.79"/><path class="cls-2" d="M582,160a30.1,30.1,0,0,0-8.55,4.76l1.72-4.76-1.72-4.75A30.31,30.31,0,0,0,582,160Z" transform="translate(-294.31 -143.21)"/><line class="cls-1" x1="19.69" y1="17.29" x2="42.66" y2="17.29"/><path class="cls-2" d="M343,160.5a30.1,30.1,0,0,0-8.55,4.76l1.72-4.76-1.72-4.75A30.31,30.31,0,0,0,343,160.5Z" transform="translate(-294.31 -143.21)"/><line class="cls-1" x1="19.69" y1="96.29" x2="42.66" y2="96.29"/><path class="cls-2" d="M343,239.5a30.1,30.1,0,0,0-8.55,4.76l1.72-4.76-1.72-4.75A30.31,30.31,0,0,0,343,239.5Z" transform="translate(-294.31 -143.21)"/><line class="cls-1" x1="476.69" y1="16.29" x2="527.66" y2="16.29"/><path class="cls-2" d="M828,159.5a30.1,30.1,0,0,0-8.55,4.76l1.72-4.76-1.72-4.75A30.31,30.31,0,0,0,828,159.5Z" transform="translate(-294.31 -143.21)"/><line class="cls-1" x1="476.69" y1="96.29" x2="527.66" y2="96.29"/><path class="cls-2" d="M828,239.5a30.1,30.1,0,0,0-8.55,4.76l1.72-4.76-1.72-4.75A30.31,30.31,0,0,0,828,239.5Z" transform="translate(-294.31 -143.21)"/><line class="cls-1" x1="230.69" y1="96.29" x2="281.66" y2="96.29"/><path class="cls-2" d="M582,239.5a30.1,30.1,0,0,0-8.55,4.76l1.72-4.76-1.72-4.75A30.31,30.31,0,0,0,582,239.5Z" transform="translate(-294.31 -143.21)"/><path class="cls-2" d="M294.31,164.13c0-2,1.83-2.92,6.35-3.28a2.08,2.08,0,0,0-2.32-2.2,6.05,6.05,0,0,0-3.06,1l-.6-1a7.64,7.64,0,0,1,3.91-1.26,3.25,3.25,0,0,1,3.57,3.6v5.37h-1.25l-.12-1.19h-.06a5.9,5.9,0,0,1-3.44,1.4C295.66,166.61,294.31,165.69,294.31,164.13Zm6.35,0v-2.27c-3.74.29-4.88,1-4.88,2.18,0,1,.9,1.38,1.91,1.38A4.75,4.75,0,0,0,300.66,164.11Z" transform="translate(-294.31 -143.21)"/><path class="cls-2" d="M295.93,244.42h-.06l-.14,1h-1.19V232.58H296v3.49l-.07,1.69H296a4.3,4.3,0,0,1,2.93-1.33c2.36,0,3.64,1.74,3.64,4.45,0,3-1.87,4.73-3.94,4.73A4.3,4.3,0,0,1,295.93,244.42Zm5.13-3.53c0-1.92-.72-3.2-2.47-3.2A3.71,3.71,0,0,0,296,239v4.35a3.66,3.66,0,0,0,2.36,1C299.91,244.35,301.06,243.05,301.06,240.89Z" transform="translate(-294.31 -143.21)"/></svg>