<svg id="图层_1" data-name="图层 1" xmlns="http://www.w3.org/2000/svg" viewBox="0 0 685.71 33.96"><defs><style>.cls-1{fill:none;stroke:#3ea69f;stroke-miterlimit:10;}.cls-2{fill:#3ea69f;}</style></defs><rect class="cls-1" x="98.91" y="0.5" width="88.47" height="32.96"/><line class="cls-1" x1="155.01" y1="0.5" x2="155.01" y2="33.46"/><path class="cls-2" d="M110.45,22.42h-.07l-.17,1.17h-1.44V8.12h1.81v4.22l-.09,2h.07a5.19,5.19,0,0,1,3.54-1.61c2.84,0,4.39,2.11,4.39,5.37,0,3.61-2.26,5.71-4.76,5.71A5.23,5.23,0,0,1,110.45,22.42Zm6.19-4.26c0-2.32-.87-3.87-3-3.87a4.44,4.44,0,0,0-3.08,1.57v5.26a4.34,4.34,0,0,0,2.85,1.21C115.22,22.33,116.64,20.77,116.64,18.16Z"/><path class="cls-2" d="M121.53,20.86c0-2.37,2.22-3.52,7.67-4a2.5,2.5,0,0,0-2.35-2.66,2.26,2.26,0,0,0-.45,0,7.35,7.35,0,0,0-3.7,1.26L122,14.25a9.2,9.2,0,0,1,4.71-1.52c2.89,0,4.3,1.72,4.3,4.35v6.47h-1.5l-.15-1.43h-.06a7.15,7.15,0,0,1-4.15,1.69C123.16,23.85,121.53,22.75,121.53,20.86Zm7.67,0V18.1c-4.52.34-5.89,1.24-5.89,2.63,0,1.19,1.09,1.67,2.3,1.67a5.75,5.75,0,0,0,3.61-1.57Z"/><path class="cls-2" d="M137.3,19.49v-5h-3V13.14l3.07-.11.24-3.39h1.5V13h5.17v1.46h-5.17v5c0,1.89.63,2.87,2.67,2.87a7,7,0,0,0,2.52-.48l.39,1.32a9.08,9.08,0,0,1-3.3.63C138.3,23.85,137.3,22.09,137.3,19.49Z"/><rect class="cls-1" x="251.56" y="0.5" width="88.47" height="32.96"/><line class="cls-1" x1="307.66" y1="0.5" x2="307.66" y2="33.46"/><path class="cls-2" d="M261.14,18.34c0-3.55,2.69-5.57,5.89-5.57a5.35,5.35,0,0,1,3.84,1.55L270,15.47a4.38,4.38,0,0,0-2.89-1.2,3.89,3.89,0,0,0-4.1,3.65,2.94,2.94,0,0,0,0,.42,3.83,3.83,0,0,0,3.65,4,2.81,2.81,0,0,0,.41,0A5,5,0,0,0,270.31,21l.8,1.17a6.26,6.26,0,0,1-4.19,1.65C263.62,23.85,261.14,21.83,261.14,18.34Z"/><path class="cls-2" d="M274.22,20.86c0-2.37,2.21-3.52,7.67-4a2.5,2.5,0,0,0-2.35-2.66,2.36,2.36,0,0,0-.46,0,7.38,7.38,0,0,0-3.69,1.26l-.72-1.22a9.36,9.36,0,0,1,4.72-1.52c2.89,0,4.3,1.72,4.3,4.35v6.47h-1.5L282,22.12H282a7.06,7.06,0,0,1-4.15,1.69C275.81,23.85,274.22,22.75,274.22,20.86Zm7.67,0V18.1c-4.52.34-5.89,1.24-5.89,2.63,0,1.19,1.08,1.67,2.3,1.67a5.78,5.78,0,0,0,3.55-1.57Z"/><path class="cls-2" d="M290,19.49v-5h-3V13.14L290,13l.24-3.39h1.49V13h5.18v1.46h-5.18v5c0,1.89.63,2.87,2.68,2.87a7,7,0,0,0,2.52-.48l.39,1.32a9.3,9.3,0,0,1-3.3.63C291,23.85,290,22.09,290,19.49Z"/><rect class="cls-1" x="404.21" y="0.5" width="88.47" height="32.96"/><line class="cls-1" x1="460.31" y1="0.5" x2="460.31" y2="33.46"/><path class="cls-2" d="M413.59,22.2l.83-1.19A7.53,7.53,0,0,0,419,22.44c1.79,0,2.66-.74,2.66-1.63s-.42-1.37-3.29-1.95-4.12-1.5-4.12-3.09,1.5-3,4.39-3a7.87,7.87,0,0,1,4.25,1.35L422,15.27a6.21,6.21,0,0,0-3.54-1.11c-1.78,0-2.43.72-2.43,1.53s.91,1.3,3.08,1.76c3.5.76,4.35,1.62,4.35,3.25s-1.67,3.15-4.69,3.15A9.3,9.3,0,0,1,413.59,22.2Z"/><path class="cls-2" d="M426.83,20.86c0-2.37,2.21-3.52,7.67-4a2.5,2.5,0,0,0-2.35-2.66,2.36,2.36,0,0,0-.46,0A7.29,7.29,0,0,0,428,15.47l-.72-1.22A9.36,9.36,0,0,1,432,12.73c2.89,0,4.3,1.72,4.3,4.35v6.47h-1.5l-.15-1.43h-.07a7.06,7.06,0,0,1-4.15,1.69C428.46,23.85,426.83,22.75,426.83,20.86Zm7.67,0V18.1c-4.52.34-5.89,1.24-5.89,2.63,0,1.19,1.08,1.67,2.3,1.67a5.77,5.77,0,0,0,3.59-1.57Z"/><path class="cls-2" d="M442.6,19.49v-5h-3V13.14l3.07-.11.23-3.39h1.5V13h5.18v1.46H444.4v5c0,1.89.63,2.87,2.68,2.87a7,7,0,0,0,2.52-.48l.39,1.32a9.18,9.18,0,0,1-3.31.63C443.6,23.85,442.6,22.09,442.6,19.49Z"/><rect class="cls-1" x="556.85" y="0.5" width="128.36" height="32.96"/><line class="cls-1" x1="612.95" y1="0.5" x2="612.95" y2="33.46"/><path class="cls-2" d="M565.78,13h1.85l2.44,6c.41,1.06.8,2.11,1.17,3.13h.09c.36-1,.71-2.07,1.15-3.13l2.43-6h1.74l-4.43,10.59h-2Z"/><path class="cls-2" d="M579.47,20.86c0-2.37,2.22-3.52,7.67-4a2.52,2.52,0,0,0-2.8-2.65,7.29,7.29,0,0,0-3.69,1.26l-.72-1.22a9.29,9.29,0,0,1,4.71-1.52c2.89,0,4.31,1.72,4.31,4.35v6.47h-1.5l-.15-1.43h-.08a7.06,7.06,0,0,1-4.15,1.69C581.1,23.85,579.47,22.75,579.47,20.86Zm7.67,0V18.1c-4.52.34-5.88,1.24-5.88,2.63,0,1.19,1.08,1.67,2.3,1.67a5.72,5.72,0,0,0,3.58-1.57Z"/><path class="cls-2" d="M595.22,19.49v-5h-3V13.14l3.06-.11.24-3.39H597V13h5.2v1.46h-5.17v5c0,1.89.63,2.87,2.67,2.87a7,7,0,0,0,2.52-.48l.4,1.32a9.18,9.18,0,0,1-3.31.63C596.22,23.85,595.22,22.09,595.22,19.49Z"/><path class="cls-2" d="M625.09,9.59h2.55l3.59,7.65,1.24,2.9h.06c-.1-1.39-.33-3.11-.33-4.63V9.59h2.3V23.2H632l-3.6-7.65-1.23-2.9h-.06c.1,1.45.33,3.09.33,4.6V23.2h-2.31Z"/><path class="cls-2" d="M637.53,18V9.58H640v8.6c0,2.2.91,3.15,2.36,3.15s2.39-1,2.39-3.15V9.58h2.34V18c0,3.71-1.75,5.44-4.73,5.44S637.53,21.72,637.53,18Z"/><path class="cls-2" d="M651,9.59h2.41V21.16h6.38v2H651Z"/><path class="cls-2" d="M663.52,9.59h2.41V21.16h6.38v2h-8.79Z"/><line class="cls-1" x1="170.03" y1="17.85" x2="229.91" y2="17.85"/><path class="cls-2" d="M236,17.85a30.13,30.13,0,0,0-8.55,4.75l1.72-4.75-1.72-4.76A30.16,30.16,0,0,0,236,17.85Z"/><line class="cls-1" x1="47.22" y1="17.85" x2="77.26" y2="17.85"/><path class="cls-2" d="M83.3,17.85a30.13,30.13,0,0,0-8.55,4.75l1.72-4.75-1.72-4.76A30.16,30.16,0,0,0,83.3,17.85Z"/><line class="cls-1" x1="322.68" y1="17.85" x2="382.56" y2="17.85"/><path class="cls-2" d="M388.6,17.85a30.13,30.13,0,0,0-8.55,4.75l1.72-4.75-1.72-4.76A30.16,30.16,0,0,0,388.6,17.85Z"/><line class="cls-1" x1="475.33" y1="17.85" x2="535.21" y2="17.85"/><path class="cls-2" d="M541.22,17.85a30.07,30.07,0,0,0-8.54,4.75l1.72-4.75-1.72-4.76A30.1,30.1,0,0,0,541.22,17.85Z"/><path class="cls-2" d="M0,13H1.48l.15,1.35H1.7a5.64,5.64,0,0,1,3.65-1.61c2.84,0,4.37,2.11,4.37,5.39,0,3.59-2.26,5.69-4.81,5.69a5,5,0,0,1-3.15-1.36h0l.09,2V28H0Zm7.87,5.13c0-2.32-.87-3.87-3-3.87a4.44,4.44,0,0,0-3.08,1.57v5.26a4.33,4.33,0,0,0,2.8,1.21c1.89,0,3.28-1.53,3.28-4.14Z"/><path class="cls-2" d="M15.49,19.49v-5h-3V13.14L15.55,13l.24-3.39h1.5V13h5.17v1.46H17.29v5c0,1.89.63,2.87,2.67,2.87a7,7,0,0,0,2.52-.48l.39,1.32a9.08,9.08,0,0,1-3.3.63C16.49,23.85,15.49,22.09,15.49,19.49Z"/><path class="cls-2" d="M27.22,13h1.49l.18,2.5h0a5.6,5.6,0,0,1,4.72-2.76,4.29,4.29,0,0,1,2.08.44l-.41,1.54a5.48,5.48,0,0,0-2-.35c-1.58,0-3.08.81-4.34,3v6.17H27.22Z"/></svg>