<svg id="图层_1" data-name="图层 1" xmlns="http://www.w3.org/2000/svg" viewBox="0 0 627.52 157.2"><defs><style>.cls-1{fill:none;stroke:#3ea69f;stroke-miterlimit:10;}.cls-2{fill:#3ea69f;}</style></defs><rect class="cls-1" x="0.5" y="123.74" width="180.52" height="32.96"/><line class="cls-1" x1="56.71" y1="123.74" x2="56.71" y2="156.7"/><line class="cls-1" x1="123.71" y1="123.74" x2="123.71" y2="156.7"/><line class="cls-1" x1="156.52" y1="147.53" x2="207.48" y2="147.53"/><path class="cls-2" d="M569,245.5a30.1,30.1,0,0,0-8.55,4.76l1.72-4.76-1.72-4.75A30.31,30.31,0,0,0,569,245.5Z" transform="translate(-355.48 -97.97)"/><line class="cls-1" x1="152.52" y1="25.53" x2="203.48" y2="25.53"/><path class="cls-2" d="M565,123.5a30.1,30.1,0,0,0-8.55,4.76l1.72-4.76-1.72-4.75A30.31,30.31,0,0,0,565,123.5Z" transform="translate(-355.48 -97.97)"/><line class="cls-1" x1="251.52" y1="134.53" x2="200.55" y2="134.53"/><path class="cls-2" d="M550,232.5a30.1,30.1,0,0,0,8.55-4.76l-1.72,4.76,1.72,4.75A30.31,30.31,0,0,0,550,232.5Z" transform="translate(-355.48 -97.97)"/><rect class="cls-1" x="223.5" y="123.74" width="180.52" height="32.96"/><line class="cls-1" x1="279.71" y1="123.74" x2="279.71" y2="156.7"/><line class="cls-1" x1="346.71" y1="123.74" x2="346.71" y2="156.7"/><line class="cls-1" x1="379.52" y1="147.53" x2="430.48" y2="147.53"/><path class="cls-2" d="M792,245.5a30.1,30.1,0,0,0-8.55,4.76l1.72-4.76-1.72-4.75A30.31,30.31,0,0,0,792,245.5Z" transform="translate(-355.48 -97.97)"/><line class="cls-1" x1="474.52" y1="134.53" x2="423.55" y2="134.53"/><path class="cls-2" d="M773,232.5a30.1,30.1,0,0,0,8.55-4.76l-1.72,4.76,1.72,4.75A30.31,30.31,0,0,0,773,232.5Z" transform="translate(-355.48 -97.97)"/><rect class="cls-1" x="446.5" y="123.74" width="180.52" height="32.96"/><line class="cls-1" x1="502.71" y1="123.74" x2="502.71" y2="156.7"/><line class="cls-1" x1="569.71" y1="123.74" x2="569.71" y2="156.7"/><rect class="cls-1" x="223.5" y="21.74" width="180.52" height="32.96"/><line class="cls-1" x1="279.71" y1="21.74" x2="279.71" y2="54.7"/><line class="cls-1" x1="346.71" y1="21.74" x2="346.71" y2="54.7"/><path class="cls-2" d="M452.38,114.93h.2a1.27,1.27,0,0,1,.59,1,29.44,29.44,0,0,1-.29,3h.1a12.45,12.45,0,0,0,3.44-1.57l.1.2V118c0,.77-1.09,1.56-3.25,2.36v.2c3.07,2.89,4.62,4.47,4.63,4.73v.39c-.12.58-.25.88-.4.88h-.09a9.88,9.88,0,0,0-2.37-2.75l-2.66-2.27c-1.47,3.66-2.46,5.73-2.95,6.21a1.76,1.76,0,0,1-1.09.39h-.09a.67.67,0,0,1-.69-.39v-.21c.65-.31,1.41-1.45,2.26-3.44a16.7,16.7,0,0,1,1.19-2.75v-.4a10.69,10.69,0,0,1-1.58.19h-1.09q-2.16-.12-2.16-.78a1.1,1.1,0,0,1,.4-.59l1,.1h2.07v-.1c-1.32-1-2-1.78-2-2.27v-.09c0-.09.1-.19.29-.3.48.07,1.24.89,2.27,2.47l.49.09c.86,0,1.28-1.18,1.28-3.54C452.14,115.32,452.27,114.93,452.38,114.93Zm-3.34-.59a6.22,6.22,0,0,1,1.87,1.47v.11a.18.18,0,0,1-.2.19h-.19a6.42,6.42,0,0,1-1.88-1.18v-.3C448.64,114.47,448.77,114.37,449,114.34Z" transform="translate(-355.48 -97.97)"/><path class="cls-2" d="M467.25,114.83c.28,0,.48.36.6,1.07l-1.39,2.37v.2l1.39-.3H468a1,1,0,0,1,.59.88,15,15,0,0,1-1.08,2.37h.58c.14,0,.21.09.21.2v.88a3.79,3.79,0,0,1-2.76,1.19c-.42,0-.69-.3-.79-.89a13.53,13.53,0,0,1,1.87-2.56v-.1h-.2a6.09,6.09,0,0,0-.79.19h-.58c-.79-.1-1.18-.27-1.18-.49v-.09c0-.33.79-1.51,2.36-3.55C466.62,115.29,467,114.83,467.25,114.83Zm1.58,8.75h.09v.11a7.07,7.07,0,0,1-1.37,2c-.64,1.5-1.19,2.25-1.67,2.25h-.4c-.11,0-.24-.19-.39-.58Q465.09,126.78,468.83,123.58Zm3.45-9.84h.58c.13,0,.2.09.2.2-.07.85-.1,1.54-.1,2.07h.1a19.82,19.82,0,0,0,2-.6c0,.91-.62,1.54-1.86,1.88a1.87,1.87,0,0,0-.49,1.08v1.77h.19l1.67-.69c.14,0,.21.09.21.2-.58,1.11-1.08,1.7-1.48,1.77a11,11,0,0,1-2,.79h-.79a.84.84,0,0,1-.59-.79c1.18-.4,1.77-.7,1.77-.89v-2.46l-1.28.1q-.69-.14-.69-.39v-.2c0-.29.56-.55,1.67-.78.22,0,.41-1,.6-2.86Zm4.62,8.47a.72.72,0,0,1,.2.39q0,.8-2.66,4c.09,0,.25.16.49.49v.49c0,.29-1,.64-3.05,1.08q-.81,0-2.06-5.5c.09-.27.19-.4.28-.4h.21q.38,0,.69,1.47A43.64,43.64,0,0,1,476.9,122.21Zm-5.61,3.24c.31,1.45.57,2.17.78,2.17h.1q3.06-2.73,3.06-3.54V124h-.1a24.74,24.74,0,0,1-3.75,1.29Z" transform="translate(-355.48 -97.97)"/><path class="cls-2" d="M483.49,126.05h.21q.69,0,2.46,2.07v.1c0,.13-.2.26-.49.39-1.58-.81-2.37-1.54-2.37-2.16v-.2C483.32,126.11,483.39,126.05,483.49,126.05Zm3.85-12.21q.3,0,.69,1.29v.49h.29a1.89,1.89,0,0,1,1-.3c.24,0,.51.2.79.6,0,.36-.53.59-1.58.68H488l.29,2.66a.81.81,0,0,0-.1.39l3.64-1c.47.5.7.83.7,1a29.89,29.89,0,0,1-3.25,3.74v.1a6.6,6.6,0,0,1,1.28-.19h.29c.09,0,.28.26.59.78v.1a7.61,7.61,0,0,1-2.46.69,7.13,7.13,0,0,1-1,.59,6,6,0,0,1,.59,1.87v.1c0,.13-.07.19-.2.19a4.23,4.23,0,0,1-1.38-2.07c-.85,0-1.28-.16-1.28-.49a36.89,36.89,0,0,1-1.57-6.29c.1-.26.19-.39.29-.39h.3c.34,0,.67.72,1,2.16.07,0,.1,0,.1.09a11.86,11.86,0,0,1,1.78-.58,18.66,18.66,0,0,1-.7-5.22v-.69ZM486.06,122c.33,1.64.6,2.46.79,2.46a33.89,33.89,0,0,0,3.94-4.14v-.1c-2.1.79-3.64,1.31-4.63,1.58Zm4.73,3H491c.1,0,.19.13.3.4,0,1-.23,1.63-.69,1.87h-.1c-.21,0-.38-.36-.49-1.08A1.59,1.59,0,0,1,490.79,125.06Zm3.44-.29a1.41,1.41,0,0,1,.39,1q-1.19,2.4-2.16,2.46l-.11-.21v-.19C492.88,125.79,493.51,124.77,494.23,124.77Z" transform="translate(-355.48 -97.97)"/><path class="cls-2" d="M583.24,107.93V99.25h-3.1v-1.2h4.59v10a1.58,1.58,0,0,0,1.73,1.8,4,4,0,0,0,1.64-.4l.38,1.12a5.35,5.35,0,0,1-2.34.52C584.26,111.08,583.24,110,583.24,107.93Z" transform="translate(-355.48 -97.97)"/><path class="cls-2" d="M594,107.93V99.25h-3.1v-1.2h4.59v10a1.58,1.58,0,0,0,1.73,1.8,4,4,0,0,0,1.64-.4l.38,1.12a5.35,5.35,0,0,1-2.34.52C595.06,111.08,594,110,594,107.93Z" transform="translate(-355.48 -97.97)"/><path class="cls-2" d="M606.08,103.32H602v-1.2h5.54v8.75h-1.49Zm-.6-4.19a1.19,1.19,0,0,1,2.38,0,1.19,1.19,0,0,1-2.38,0Z" transform="translate(-355.48 -97.97)"/><path class="cls-2" d="M612.88,102.12h1.23l.12,1.47h.07a4.56,4.56,0,0,1,3.3-1.69c2.07,0,3,1.22,3,3.53v5.44h-1.49v-5.24c0-1.66-.58-2.43-2-2.43-1,0-1.75.52-2.75,1.56v6.11h-1.5Z" transform="translate(-355.48 -97.97)"/><path class="cls-2" d="M623.9,98.05h1.49v8.66h.07l4.7-4.59h1.71l-6.48,6.37v2.38H623.9Zm3.36,8.17.9-1,4.18,5.62h-1.65Z" transform="translate(-355.48 -97.97)"/><path class="cls-2" d="M652.48,103.32h-4.05v-1.2H654v8.75h-1.49Zm-.6-4.19a1.19,1.19,0,0,1,2.38,0,1.19,1.19,0,0,1-2.38,0Z" transform="translate(-355.48 -97.97)"/><path class="cls-2" d="M661.32,107.46v-4.14h-2.49v-1.11l2.54-.09.2-2.81h1.24v2.81h4.29v1.2h-4.29v4.16c0,1.57.52,2.38,2.22,2.38a5.58,5.58,0,0,0,2.08-.4l.33,1.1a7.6,7.6,0,0,1-2.74.52C662.14,111.08,661.32,109.62,661.32,107.46Z" transform="translate(-355.48 -97.97)"/><path class="cls-2" d="M669.63,106.47a4.4,4.4,0,0,1,4.47-4.57,3.76,3.76,0,0,1,4,4.1,5.71,5.71,0,0,1-.07.91h-7.4v-1.16h6.52l-.38.42c0-2.07-1-3.1-2.63-3.1a3.08,3.08,0,0,0-3,3.4,3.17,3.17,0,0,0,3.42,3.42,4.78,4.78,0,0,0,2.66-.82l.54,1a6,6,0,0,1-3.38,1A4.43,4.43,0,0,1,669.63,106.47Z" transform="translate(-355.48 -97.97)"/><path class="cls-2" d="M680.25,102.12h1.19l.13,1.15h0a2.17,2.17,0,0,1,2-1.37c.86,0,1.4.5,1.66,1.51.5-.93,1-1.51,2-1.51,1.22,0,1.94.95,1.94,2.7v6.27h-1.47v-6.16c0-1-.29-1.53-.94-1.53s-.94.45-1.4,1.35v6.34h-1.37v-6.16c0-1-.25-1.53-.9-1.53s-1,.45-1.44,1.35v6.34h-1.48Z" transform="translate(-355.48 -97.97)"/><path class="cls-2" d="M707.42,102.12h1.24l.14,2.07h0a4.61,4.61,0,0,1,3.91-2.29,3.68,3.68,0,0,1,1.73.36l-.35,1.28a4.32,4.32,0,0,0-1.62-.29c-1.31,0-2.55.67-3.6,2.5v5.12h-1.49Z" transform="translate(-355.48 -97.97)"/><path class="cls-2" d="M720,107.93V99.25h-3.1v-1.2h4.59v10a1.58,1.58,0,0,0,1.73,1.8,4,4,0,0,0,1.64-.4l.38,1.12a5.35,5.35,0,0,1-2.34.52C721.06,111.08,720,110,720,107.93Z" transform="translate(-355.48 -97.97)"/><path class="cls-2" d="M732.08,103.32H728v-1.2h5.54v8.75h-1.49Zm-.6-4.19a1.19,1.19,0,0,1,2.38,0,1.19,1.19,0,0,1-2.38,0Z" transform="translate(-355.48 -97.97)"/><path class="cls-2" d="M738.88,102.12h1.23l.12,1.47h.07a4.56,4.56,0,0,1,3.3-1.69c2.07,0,3,1.22,3,3.53v5.44h-1.49v-5.24c0-1.66-.58-2.43-2-2.43-1,0-1.75.52-2.75,1.56v6.11h-1.5Z" transform="translate(-355.48 -97.97)"/><path class="cls-2" d="M749.9,98.05h1.49v8.66h.07l4.7-4.59h1.71l-6.48,6.37v2.38H749.9Zm3.36,8.17.9-1,4.18,5.62h-1.65Z" transform="translate(-355.48 -97.97)"/><polyline class="cls-1" points="27.52 140.03 27.52 43.02 203.48 43.02"/><path class="cls-2" d="M565,141a30.1,30.1,0,0,0-8.55,4.76l1.72-4.76-1.72-4.75A30.31,30.31,0,0,0,565,141Z" transform="translate(-355.48 -97.97)"/><polyline class="cls-1" points="600.02 140.53 600.02 38.52 427.05 38.52"/><path class="cls-2" d="M776.5,136.5a30.1,30.1,0,0,0,8.55-4.76l-1.72,4.76,1.72,4.75A30.31,30.31,0,0,0,776.5,136.5Z" transform="translate(-355.48 -97.97)"/><polyline class="cls-1" points="252.02 38.52 252.02 72.53 537.02 72.53 537.02 103.49"/><path class="cls-2" d="M892.5,207.5a30.1,30.1,0,0,0-4.76-8.55l4.76,1.72,4.75-1.72A30.31,30.31,0,0,0,892.5,207.5Z" transform="translate(-355.48 -97.97)"/><polyline class="cls-1" points="376.02 38.52 376.02 91.53 91.02 91.53 91.02 103.49"/><path class="cls-2" d="M446.5,207.5a30.1,30.1,0,0,0-4.76-8.55l4.76,1.72,4.75-1.72A30.31,30.31,0,0,0,446.5,207.5Z" transform="translate(-355.48 -97.97)"/></svg>