<svg id="图层_1" data-name="图层 1" xmlns="http://www.w3.org/2000/svg" viewBox="0 0 827 948.89"><defs><style>.cls-1{fill:none;}.cls-1,.cls-3{stroke:#3ea69f;stroke-miterlimit:10;}.cls-2{fill:#3ea69f;}.cls-3{fill:#fff;}</style></defs><circle class="cls-1" cx="394.5" cy="18.5" r="18"/><path class="cls-2" d="M574.69,95.76c0-4.49,1.83-6.91,4.81-6.91s4.81,2.42,4.81,6.91-1.83,7-4.81,7S574.69,100.21,574.69,95.76Zm8,0c0-3.84-1.32-5.5-3.19-5.5s-3.19,1.66-3.19,5.5,1.32,5.59,3.19,5.59S582.69,99.6,582.69,95.76Zm-4.49-.15A1.3,1.3,0,1,1,579.5,97,1.3,1.3,0,0,1,578.2,95.61Z" transform="translate(-185 -78)"/><circle class="cls-1" cx="317.5" cy="127.5" r="18"/><path class="cls-2" d="M497.38,209.93l.86-1.16A5.31,5.31,0,0,0,502,210.3a3.11,3.11,0,0,0,3.38-3c0-1.85-1.31-2.92-3.28-2.92a5,5,0,0,0-2.73.8l-.92-.59.44-6.45h7.58v1.52h-6.05l-.36,3.94a5.84,5.84,0,0,1,2.48-.54c2.56,0,4.6,1.3,4.6,4.2s-2.39,4.53-5,4.53A6.72,6.72,0,0,1,497.38,209.93Z" transform="translate(-185 -78)"/><circle class="cls-1" cx="369.5" cy="203.5" r="18"/><path class="cls-2" d="M555.93,278.28c0-.73.06-1.63.1-2.37h-.1c-.44.65-.93,1.3-1.37,1.95L551,282.4h8.69v1.4H549v-1.15l6.68-8.55h1.86v13.4h-1.63Z" transform="translate(-185 -78)"/><circle class="cls-1" cx="423.5" cy="127.5" r="18"/><path class="cls-2" d="M603.82,205.31c0-5.38,2.68-7.46,5.6-7.46a5.32,5.32,0,0,1,3.74,1.43l-1,1.09a3.93,3.93,0,0,0-2.66-1.07c-2.19,0-4.07,1.53-4.07,6,0,3.29,1.25,5.08,3.48,5.08a2.78,2.78,0,0,0,2.81-2.94,2.55,2.55,0,0,0-2.83-2.84,4.73,4.73,0,0,0-3.51,1.89l-.06-1.36a5.68,5.68,0,0,1,3.88-1.83,3.81,3.81,0,0,1,4.18,4.14,4.32,4.32,0,0,1-4.47,4.3C606,211.75,603.82,209.61,603.82,205.31Z" transform="translate(-185 -78)"/><circle class="cls-1" cx="467.5" cy="60.5" r="18"/><path class="cls-2" d="M648.24,143.05h3.86v-9.82h-3v-1.14a9.5,9.5,0,0,0,3.44-1h1.3v12h3.49v1.45h-9.09Z" transform="translate(-185 -78)"/><circle class="cls-1" cx="512.5" cy="127.5" r="18"/><path class="cls-2" d="M692.73,210.47c4.54-4,7-6.36,7-8.59,0-1.53-.93-2.6-2.9-2.6a4.58,4.58,0,0,0-3.21,1.6l-1-1a6,6,0,0,1,4.43-2c2.69,0,4.37,1.58,4.37,4s-2.52,5-6.16,8.31c.84-.06,1.7-.1,2.5-.1h4.39v1.49h-9.43Z" transform="translate(-185 -78)"/><circle class="cls-1" cx="449.5" cy="225.5" r="18"/><path class="cls-2" d="M629.4,307.86l.88-1.13a5.41,5.41,0,0,0,3.84,1.57c1.83,0,3.19-.94,3.19-2.43s-1.34-2.67-4.85-2.67v-1.32c3.17,0,4.39-1.09,4.39-2.5s-1.11-2.1-2.73-2.1a5.07,5.07,0,0,0-3.29,1.34l-.93-1.09a6.51,6.51,0,0,1,4.28-1.68c2.52,0,4.43,1.24,4.43,3.4,0,1.62-1.19,2.65-2.85,3.2v.08c1.78.38,3.32,1.55,3.32,3.4,0,2.37-2.19,3.82-4.85,3.82A6.54,6.54,0,0,1,629.4,307.86Z" transform="translate(-185 -78)"/><line class="cls-3" x1="410.19" y1="27.32" x2="451.51" y2="52.24"/><line class="cls-3" x1="477.58" y1="75.41" x2="502.18" y2="112.76"/><line class="cls-3" x1="428.79" y1="144.71" x2="444.08" y2="208.33"/><line class="cls-3" x1="502.18" y1="142.24" x2="459.73" y2="210.69"/><line class="cls-3" x1="412.5" y1="141.74" x2="380.78" y2="189.48"/><line class="cls-3" x1="328.5" y1="141.74" x2="359.57" y2="188.49"/><line class="cls-3" x1="386.47" y1="209.5" x2="431.95" y2="221.5"/><line class="cls-3" x1="326.18" y1="111.73" x2="382.07" y2="31.52"/><line class="cls-3" x1="457.42" y1="75.41" x2="433.82" y2="112.76"/><path class="cls-2" d="M616.86,111.15c2.59-2.29,4-3.64,4-4.91,0-.87-.53-1.49-1.66-1.49a2.61,2.61,0,0,0-1.83.92l-.58-.57a3.43,3.43,0,0,1,2.53-1.16,2.22,2.22,0,0,1,2.49,2.25c0,1.44-1.44,2.87-3.51,4.75.48,0,1-.06,1.43-.06h2.5v.85h-5.38Z" transform="translate(-185 -78)"/><path class="cls-2" d="M624,109.78a2.33,2.33,0,0,1,1.64-2v0a2.14,2.14,0,0,1-1.16-1.78,2.09,2.09,0,0,1,2.36-2c1.5,0,2.38.85,2.38,2a2.39,2.39,0,0,1-1.17,1.82v0c.84.42,1.5.9,1.5,2s-1,2-2.74,2S624,111,624,109.78Zm4.6,0c0-1-1.06-1.33-2.39-1.77-.75.39-1.31.89-1.31,1.65s.75,1.45,1.93,1.45S628.6,110.59,628.6,109.8Zm-.25-3.78a1.36,1.36,0,0,0-1.53-1.34,1.27,1.27,0,0,0-1.43,1.23c0,.91.88,1.29,2,1.65A2,2,0,0,0,628.35,106Z" transform="translate(-185 -78)"/><path class="cls-2" d="M681.15,170.91h2.2v-5.62h-1.71v-.64a5.46,5.46,0,0,0,2-.57h.74v6.83h2v.82h-5.19Z" transform="translate(-185 -78)"/><path class="cls-2" d="M688.11,168.2c0-3.07,1.53-4.26,3.2-4.26a3.06,3.06,0,0,1,2.13.81l-.55.63a2.24,2.24,0,0,0-1.52-.61c-1.25,0-2.33.87-2.33,3.43,0,1.88.72,2.9,2,2.9a1.59,1.59,0,0,0,1.61-1.68A1.46,1.46,0,0,0,691,167.8a2.68,2.68,0,0,0-2,1.08l0-.78a3.23,3.23,0,0,1,2.22-1,2.17,2.17,0,0,1,2.39,2.36,2.47,2.47,0,0,1-2.56,2.46C689.37,171.88,688.11,170.65,688.11,168.2Z" transform="translate(-185 -78)"/><path class="cls-2" d="M522.15,145.91h2.2v-5.62h-1.71v-.64a5.46,5.46,0,0,0,2-.57h.74v6.83h2v.82h-5.19Z" transform="translate(-185 -78)"/><path class="cls-2" d="M529,142.88c0-2.56,1-3.94,2.74-3.94s2.75,1.38,2.75,3.94-1,4-2.75,4S529,145.43,529,142.88Zm4.56,0c0-2.19-.75-3.14-1.82-3.14s-1.82.95-1.82,3.14.75,3.19,1.82,3.19S533.6,145.08,533.6,142.88ZM531,142.8a.75.75,0,1,1,.74.8A.74.74,0,0,1,531,142.8Z" transform="translate(-185 -78)"/><path class="cls-2" d="M514.86,254.15c2.59-2.29,4-3.64,4-4.91,0-.87-.53-1.49-1.66-1.49a2.61,2.61,0,0,0-1.83.92l-.58-.57a3.43,3.43,0,0,1,2.53-1.16,2.22,2.22,0,0,1,2.49,2.25c0,1.44-1.43,2.87-3.51,4.75.48,0,1-.06,1.43-.06h2.5v.85h-5.38Z" transform="translate(-185 -78)"/><path class="cls-2" d="M521.86,253.83l.49-.66a3,3,0,0,0,2.16.88,1.78,1.78,0,0,0,1.93-1.74,1.66,1.66,0,0,0-1.87-1.67,2.85,2.85,0,0,0-1.56.46l-.53-.34.25-3.68h4.33V248h-3.45l-.21,2.25a3.33,3.33,0,0,1,1.42-.31,2.32,2.32,0,0,1,2.62,2.4,2.63,2.63,0,0,1-2.83,2.59A3.81,3.81,0,0,1,521.86,253.83Z" transform="translate(-185 -78)"/><path class="cls-2" d="M566.86,240.15c2.59-2.29,4-3.64,4-4.91,0-.87-.53-1.49-1.66-1.49a2.61,2.61,0,0,0-1.83.92l-.58-.57a3.43,3.43,0,0,1,2.53-1.16,2.22,2.22,0,0,1,2.49,2.25c0,1.44-1.43,2.87-3.51,4.75.48,0,1-.06,1.43-.06h2.5v.85h-5.38Z" transform="translate(-185 -78)"/><path class="cls-2" d="M577.6,235.47c0-.42,0-.94.06-1.36h-.06c-.25.38-.53.75-.78,1.12l-2.07,2.59h5v.8h-6.07V238l3.82-4.88h1.06v7.65h-.93Z" transform="translate(-185 -78)"/><path class="cls-2" d="M586.86,304.15c2.59-2.29,4-3.64,4-4.91,0-.87-.53-1.49-1.66-1.49a2.61,2.61,0,0,0-1.83.92l-.58-.57a3.43,3.43,0,0,1,2.53-1.16,2.22,2.22,0,0,1,2.49,2.25c0,1.44-1.43,2.87-3.51,4.75.48,0,1-.06,1.43-.06h2.5v.85h-5.38Z" transform="translate(-185 -78)"/><path class="cls-2" d="M594.06,304.15c2.59-2.29,4-3.64,4-4.91,0-.87-.52-1.49-1.65-1.49a2.65,2.65,0,0,0-1.84.92l-.57-.57a3.42,3.42,0,0,1,2.53-1.16,2.23,2.23,0,0,1,2.49,2.25c0,1.44-1.44,2.87-3.51,4.75.48,0,1-.06,1.43-.06h2.5v.85h-5.38Z" transform="translate(-185 -78)"/><path class="cls-2" d="M626.15,253.91h2.2v-5.62h-1.71v-.64a5.46,5.46,0,0,0,2-.57h.74v6.83h2v.82h-5.19Z" transform="translate(-185 -78)"/><path class="cls-2" d="M633,252.78a2.33,2.33,0,0,1,1.64-2v-.05a2.14,2.14,0,0,1-1.16-1.78,2.09,2.09,0,0,1,2.36-2c1.5,0,2.38.85,2.38,2a2.39,2.39,0,0,1-1.17,1.82v0c.84.42,1.5.9,1.5,2s-1,2-2.74,2S633,254,633,252.78Zm4.6,0c0-1.05-1.06-1.33-2.39-1.77-.75.39-1.31.89-1.31,1.65s.75,1.45,1.93,1.45S637.6,253.59,637.6,252.8Zm-.25-3.78a1.36,1.36,0,0,0-1.53-1.34,1.27,1.27,0,0,0-1.43,1.23c0,.91.88,1.29,2,1.65A2,2,0,0,0,637.35,249Z" transform="translate(-185 -78)"/><path class="cls-2" d="M670.15,262.91h2.2v-5.62h-1.71v-.64a5.46,5.46,0,0,0,2-.57h.74v6.83h2v.82h-5.19Z" transform="translate(-185 -78)"/><path class="cls-2" d="M677.06,263.15c2.59-2.29,4-3.64,4-4.91,0-.87-.52-1.49-1.65-1.49a2.65,2.65,0,0,0-1.84.92l-.57-.57a3.43,3.43,0,0,1,2.53-1.16,2.23,2.23,0,0,1,2.49,2.25c0,1.44-1.44,2.87-3.51,4.75.48,0,1-.06,1.43-.06h2.5v.85h-5.38Z" transform="translate(-185 -78)"/><path class="cls-2" d="M613.15,170.91h2.2v-5.62h-1.71v-.64a5.46,5.46,0,0,0,2-.57h.74v6.83h2v.82h-5.19Z" transform="translate(-185 -78)"/><path class="cls-2" d="M623.6,166.47c0-.42,0-.94.06-1.36h-.06c-.25.38-.53.75-.78,1.12l-2.07,2.59h5v.8h-6.07V169l3.81-4.88h1.07v7.65h-.93Z" transform="translate(-185 -78)"/><circle class="cls-1" cx="687.5" cy="681.5" r="18"/><path class="cls-2" d="M867.69,758.76c0-4.49,1.83-6.91,4.81-6.91s4.81,2.42,4.81,6.91-1.83,7-4.81,7S867.69,763.21,867.69,758.76Zm8,0c0-3.84-1.32-5.5-3.19-5.5s-3.19,1.66-3.19,5.5,1.32,5.59,3.19,5.59S875.69,762.6,875.69,758.76Zm-4.49-.15a1.3,1.3,0,1,1,1.3,1.41A1.3,1.3,0,0,1,871.2,758.61Z" transform="translate(-185 -78)"/><circle class="cls-1" cx="610.5" cy="790.5" r="18"/><path class="cls-2" d="M790.38,872.93l.86-1.16A5.31,5.31,0,0,0,795,873.3a3.11,3.11,0,0,0,3.38-3c0-1.85-1.31-2.92-3.28-2.92a5,5,0,0,0-2.73.8l-.92-.59.44-6.45h7.58v1.52h-6l-.36,3.94a5.84,5.84,0,0,1,2.48-.54c2.56,0,4.6,1.3,4.6,4.2s-2.39,4.53-4.95,4.53A6.72,6.72,0,0,1,790.38,872.93Z" transform="translate(-185 -78)"/><circle class="cls-1" cx="662.5" cy="866.5" r="18"/><path class="cls-2" d="M848.93,941.28c0-.73.06-1.64.1-2.37h-.1c-.44.65-.93,1.3-1.37,2L844,945.4h8.69v1.4H842v-1.15l6.68-8.55h1.86v13.4h-1.63Z" transform="translate(-185 -78)"/><circle class="cls-1" cx="716.5" cy="790.5" r="18"/><path class="cls-2" d="M896.82,868.31c0-5.38,2.68-7.46,5.6-7.46a5.32,5.32,0,0,1,3.74,1.43l-1,1.09a3.93,3.93,0,0,0-2.66-1.07c-2.19,0-4.07,1.53-4.07,6,0,3.29,1.25,5.08,3.48,5.08a2.78,2.78,0,0,0,2.81-2.94,2.55,2.55,0,0,0-2.83-2.84,4.73,4.73,0,0,0-3.51,1.89l-.06-1.36a5.68,5.68,0,0,1,3.88-1.83,3.81,3.81,0,0,1,4.18,4.14,4.32,4.32,0,0,1-4.47,4.3C899,874.75,896.82,872.61,896.82,868.31Z" transform="translate(-185 -78)"/><circle class="cls-1" cx="760.5" cy="723.5" r="18"/><path class="cls-2" d="M941.24,806.05h3.86v-9.83h-3v-1.13a9.5,9.5,0,0,0,3.44-1h1.3v11.95h3.49v1.45h-9.09Z" transform="translate(-185 -78)"/><circle class="cls-1" cx="805.5" cy="790.5" r="18"/><path class="cls-2" d="M985.73,873.47c4.54-4,7-6.36,7-8.59,0-1.53-.93-2.6-2.9-2.6a4.58,4.58,0,0,0-3.21,1.6l-1-1a6,6,0,0,1,4.43-2c2.69,0,4.37,1.58,4.37,3.95,0,2.52-2.52,5-6.16,8.31.84-.06,1.7-.1,2.5-.1h4.39v1.49h-9.43Z" transform="translate(-185 -78)"/><circle class="cls-1" cx="742.5" cy="888.5" r="18"/><path class="cls-2" d="M922.4,970.86l.88-1.13a5.41,5.41,0,0,0,3.84,1.57c1.83,0,3.19-.94,3.19-2.43s-1.34-2.67-4.85-2.67v-1.32c3.17,0,4.39-1.09,4.39-2.5s-1.11-2.1-2.73-2.1a5.12,5.12,0,0,0-3.3,1.34l-.92-1.09a6.51,6.51,0,0,1,4.28-1.68c2.52,0,4.43,1.24,4.43,3.4,0,1.62-1.19,2.65-2.85,3.2v.08c1.78.38,3.32,1.55,3.32,3.4,0,2.37-2.19,3.82-4.85,3.82A6.54,6.54,0,0,1,922.4,970.86Z" transform="translate(-185 -78)"/><line class="cls-3" x1="770.58" y1="738.41" x2="795.18" y2="775.76"/><line class="cls-3" x1="795.18" y1="805.24" x2="752.73" y2="873.69"/><line class="cls-3" x1="621.5" y1="804.74" x2="652.57" y2="851.49"/><line class="cls-3" x1="679.47" y1="872.5" x2="724.95" y2="884.5"/><line class="cls-3" x1="619.18" y1="774.73" x2="675.07" y2="694.52"/><line class="cls-3" x1="750.42" y1="738.41" x2="726.82" y2="775.76"/><path class="cls-2" d="M974.15,833.91h2.2v-5.62h-1.71v-.64a5.46,5.46,0,0,0,2-.57h.74v6.83h2v.82h-5.19Z" transform="translate(-185 -78)"/><path class="cls-2" d="M981.11,831.2c0-3.08,1.53-4.26,3.2-4.26a3.06,3.06,0,0,1,2.13.81l-.55.63a2.24,2.24,0,0,0-1.52-.61c-1.25,0-2.33.87-2.33,3.43,0,1.88.72,2.9,2,2.9a1.59,1.59,0,0,0,1.61-1.68A1.46,1.46,0,0,0,984,830.8a2.68,2.68,0,0,0-2,1.08l0-.78a3.23,3.23,0,0,1,2.22-1,2.17,2.17,0,0,1,2.39,2.36,2.47,2.47,0,0,1-2.56,2.46C982.37,834.88,981.11,833.65,981.11,831.2Z" transform="translate(-185 -78)"/><path class="cls-2" d="M815.15,808.91h2.2v-5.62h-1.71v-.64a5.46,5.46,0,0,0,2-.57h.74v6.83h2v.82h-5.19Z" transform="translate(-185 -78)"/><path class="cls-2" d="M822,805.88c0-2.56,1-3.94,2.74-3.94s2.75,1.38,2.75,3.94-1,4-2.75,4S822,808.43,822,805.88Zm4.56,0c0-2.19-.75-3.14-1.82-3.14s-1.82,1-1.82,3.14.75,3.19,1.82,3.19S826.6,808.08,826.6,805.88ZM824,805.8a.75.75,0,1,1,.74.8A.74.74,0,0,1,824,805.8Z" transform="translate(-185 -78)"/><path class="cls-2" d="M848.89,1013.65q.39.15.42.33v.33a19.5,19.5,0,0,1-4.89,2.2.08.08,0,0,1-.09.09l.09.17v.25c0,.28,0,.7-.09,1.27l.18.08h.58a9.59,9.59,0,0,0-.25-1.6c0-.16.14-.3.42-.43.51,0,.76.87.76,2.62l-.08.5v.94l.08.16a1.9,1.9,0,0,1,1-.42,4.92,4.92,0,0,1-1,1.1c.4,3,.6,4.8.6,5.31l-.43.34h-.42c-.23,0-.45-.62-.68-1.85l.34-.18a21.27,21.27,0,0,1-.17-2.78c-.06,0-.09,0-.09-.08-.45.35-1.3,1.09-2.53,2.19h-.17q-.33-.17-.33-.42a6,6,0,0,1,1-1.19v-.67l.26-5.06h-.09a19.93,19.93,0,0,1-2.19.42.75.75,0,0,1-.68-.42v-.17c0-.22.62-.42,1.86-.59A62.5,62.5,0,0,0,848.89,1013.65Zm-5.48-4.73c.25,0,.42.36.5,1.1h.17a10,10,0,0,1,3-.85h.08c.35,0,.58.25.67.76-.85,2.82-1.38,4.28-1.6,4.38a.64.64,0,0,1-.34.09c0-.08-.08-.17-.25-.25a6,6,0,0,0-1.77,1.35h-.34a.73.73,0,0,1-.43-.68v-.51c-.16-2.3-.24-3.82-.24-4.55v-.25A.52.52,0,0,1,843.41,1008.92Zm.59,2.78c0,.11.07.17.16.17l1.36-.09c.22.06.33.18.33.34.11,0,.31-.56.59-1.68v-.09a23.12,23.12,0,0,1-2.44.68Zm.08,1.27a5.75,5.75,0,0,0,.25.92c.9-.13,1.35-.29,1.35-.5a5.49,5.49,0,0,1,.17-.84h-.17A3.62,3.62,0,0,1,844.08,1013Zm.93,7.5c0,.08-.31.34-.93.77v.59h.08c.62-.38,1-.63,1-.77v-.42C845.17,1020.53,845.12,1020.47,845,1020.47Zm-.85-1v.59l.85-.08h.08V1019H845C844.44,1019.25,844.16,1019.39,844.16,1019.46Zm6.42-2.86c.39,0,.59.17.59.5-1.13,2.32-1.69,3.53-1.69,3.63a7.62,7.62,0,0,1,1.85,1.69v.25a.55.55,0,0,1-.58.34c-.94-1.07-1.56-1.6-1.86-1.6-.52.78-1,1.17-1.43,1.17q-.39-.15-.42-.33V1022l1.26-1.27a3.37,3.37,0,0,0-1.26-1.18l-.51.08h-.09c-.08,0-.16-.08-.25-.25v-.25a31.38,31.38,0,0,1,4.3-2.53Zm-2.53,2.44v.17c0,.07.22.3.67.68h.17a9,9,0,0,0,.76-1.69h-.08C848.68,1018.72,848.17,1019,848.05,1019Z" transform="translate(-185 -78)"/><path class="cls-2" d="M856.06,1015.19h.25a2.3,2.3,0,0,1,.51,1.61v1.1c0,1.91-.2,2.87-.59,2.87H856a.59.59,0,0,1-.33-.59c.11-1.16.17-1.95.17-2.37v-2.36C855.81,1015.37,855.89,1015.28,856.06,1015.19Zm4.39-3.71a5.1,5.1,0,0,1,1.52,4.14v.93q0,2.55-.42,7.5c-.19.17-.33.26-.43.26a13.79,13.79,0,0,1-2.36-3,2.83,2.83,0,0,0-.25-.75h.08a22.11,22.11,0,0,1,1.86,1.94h.17l.33-6.5a15.28,15.28,0,0,0-.67-4.47Zm3.8,3.63c.58,0,1.76,1.16,3.54,3.46a.58.58,0,0,1-.34.6,17.49,17.49,0,0,1-3.37-3.55,2.43,2.43,0,0,1-.09-.34Z" transform="translate(-185 -78)"/><path class="cls-2" d="M875.67,1011.74h.17a.71.71,0,0,1,.51.68,25.74,25.74,0,0,1-1.52,2.44,4.65,4.65,0,0,1,.75,2.2v.07q-.11,5.91-.59,5.91h-.16a.54.54,0,0,1-.59-.42,29.65,29.65,0,0,0,.59-4.64v-1.43c-.11-.62-.3-.93-.59-.93-1,1.33-1.65,2-1.86,2l-.43.08-.24-.33v-.17A38.7,38.7,0,0,1,875.67,1011.74Zm1.69-.26q.63.62,1.6,4.64.43,0,1.77-1.26H881c-.38,1.52-.8,2.27-1.27,2.27a1.74,1.74,0,0,0-.42.68l.84,5h.17a20.63,20.63,0,0,0,2.7-3.62l.26-.26.07.17q-1.74,5.05-2.61,5.06c0,.11-.05.17-.16.17-.74,0-1.1-.26-1.1-.76a44.64,44.64,0,0,0-1-5.32h-.09a13.6,13.6,0,0,1-1.78.51q-.75,0-.75-.42c0-.2.83-.74,2.36-1.61v-.16c-.39-1.8-.79-3.35-1.18-4.64C877.13,1011.65,877.24,1011.51,877.36,1011.48Zm2.86.94h.26a12.67,12.67,0,0,1,1.26,1.93c0,.12,0,.18-.16.18h-.09a17.92,17.92,0,0,1-1.43-1.69v-.26C880.07,1012.47,880.13,1012.42,880.22,1012.42Z" transform="translate(-185 -78)"/><path class="cls-2" d="M891.19,1011h.17a.72.72,0,0,1,.42.6q0,1.2-2.44,4v.08h.25c.57,0,.85.42.85,1.27q-.23,5.47-.6,5.48h-.33c-.13,0-.22-.14-.26-.42.23-2.49.34-4.18.34-5.06v-.34c0-.11-.08-.17-.25-.17a14.08,14.08,0,0,0-2.11.93l-.17-.26V1017q3.95-4.2,4.05-5.4c-.12-.14-.17-.22-.17-.25v-.09C890.94,1011.15,891,1011.06,891.19,1011Zm3.12-.75.26.51c0,.09-.28.88-.85,2.35a6.49,6.49,0,0,1,1.27-.16h1.43q3.21.42,3.21.84v.26c0,.08-.09.16-.25.25a11.82,11.82,0,0,1-1.86-.34h-.17v.09a2.52,2.52,0,0,1,.34,1.43v.42q0,8.62-1.35,9.7l-.08-.16v-.09a61.45,61.45,0,0,0,.58-8.19V1015c0-.4-.25-.59-.75-.59v-.34c0-.11.08-.17.25-.17v-.17h-.42c-.06,0-.09,0-.09-.08l-.16.08h-1.1l-.17.09a9.85,9.85,0,0,1,.17,1.94c0,.83,0,2-.09,3.38a10.44,10.44,0,0,1,.09,1.51c-.11.26-.22.4-.34.42h-.08c-.26,0-.43-.56-.51-1.69.06-.73.08-1.32.08-1.77v-3.71h-.08c-.44,0-.81.42-1.09,1.26-.47.68-.75,1-.85,1h-.17a.15.15,0,0,1-.17-.17c0-.47.73-2,2.2-4.64C893.74,1010.61,894,1010.22,894.31,1010.22Z" transform="translate(-185 -78)"/><path class="cls-2" d="M905.78,1012.12c.57,0,.85.47.85,1.43v.09c0,.47,0,1.17-.09,2.11.06,0,.09,0,.09.08q1.26-.29,1.26-.51v-.93c.06-1.46.23-2.18.51-2.18h.25q.3,0,.42,1.08c-.05.9-.08,1.44-.08,1.61h.08a3,3,0,0,0,1.27-.59h.17c.17,0,.25.26.25.67a2.76,2.76,0,0,1-1.69,1.36v1.94h.09a5.91,5.91,0,0,1,1.1-.17c.08,0,.16.08.25.25q0,.61-1.44,1.35v1.52h.09l1.52-.25a19.52,19.52,0,0,1,3.45,1.77v.42c0,.12,0,.17-.17.17h-.33a7.42,7.42,0,0,1-2.78-1.35h-.17a22.65,22.65,0,0,0-2.37,1,23,23,0,0,0-2.61.67c-.06,0-.08,0-.08-.07l-.43.07H905c-.57,0-.85-.25-.85-.75a8.06,8.06,0,0,1,2.78-.77c.56-.24.84-.4.84-.5v-1.43q0-.19-1.17-.42l-.09-.18v-.5c.06-.17.23-.25.51-.25h.67c.1,0,.18-.14.26-.42a4.14,4.14,0,0,1-.09-.76v-.09a.08.08,0,0,1,.09-.09c-.06-.44-.14-.66-.26-.66-1.12,0-1.68.33-1.68,1-.19.56-.47.84-.85.84s-.42-.13-.42-.25a26,26,0,0,0,.76-6.17A.76.76,0,0,0,905.78,1012.12Z" transform="translate(-185 -78)"/><path class="cls-2" d="M921.77,1012.71a6.19,6.19,0,0,0,1.93.68l1.78-.25.17.25v.08c0,.09-.31.31-.93.68a32.41,32.41,0,0,1,4,4.05h.08c1.11-1.3,1.84-1.94,2.2-1.94l.08.16v.26a8.33,8.33,0,0,0-1.69,2.36c1.3,2,1.94,3.5,1.94,4.64v.17c0,.09-.11.2-.33.34h-.17c-.19,0-.53-.84-1-2.53a5.54,5.54,0,0,0-1.1-1.77h-.17c-1.28,2.25-2.1,3.37-2.44,3.37l-.09-.17V1023c0-.64.7-1.93,2.11-3.88V1019a19.41,19.41,0,0,0-4.56-4.55c-1.18.17-1.77.42-1.77.76-.22,1.66-.33,2.67-.33,3h.07a27.07,27.07,0,0,0,4.14-1.69.44.44,0,0,1,.43.5c-.74,1.93-1.44,4-2.11,6.16l-.35.26h-.33a10.92,10.92,0,0,1-1.78-3.12l.18-.09,1.6,2h.09q0-.23,1.68-4.72h-.08a13.48,13.48,0,0,1-3.71,1.52l-.6,6.75-.25.17h-.08c-.09,0-.2-.12-.34-.34v-.34a66.36,66.36,0,0,1,1-10.21.69.69,0,0,0-.25-.08,5.18,5.18,0,0,0-.85.08c-1-.1-1.43-.26-1.43-.5v-.17l.17-.26.42.08c1.41,0,2.11-.14,2.11-.42C921.34,1013.11,921.51,1012.71,921.77,1012.71Zm.25.94v.33c.08,0,.16-.09.25-.26v-.25h-.08C922.07,1013.49,922,1013.55,922,1013.65Zm5.06-3.89h.51a5.26,5.26,0,0,1,2.2,2.62v.08l-.18.09c-.27,0-1-.68-2.28-2q-.11,0-.42-.42v-.17C926.93,1009.82,927,1009.76,927.08,1009.76Z" transform="translate(-185 -78)"/><path class="cls-2" d="M938.4,1012.42a4.84,4.84,0,0,1,.92,1.52c0,.08-.22.34-.68.75V1016a1.33,1.33,0,0,0,.18.68v.25a2.66,2.66,0,0,1,1.6.93.15.15,0,0,1-.17.17h-.51c-.07,0-.37-.06-.92-.17v1.18c0,.57,0,1.27.08,2.11,0,.45-.14.67-.26.67h-.07c-.25,0-.45-1.18-.59-3.54-.8,1-1.36,1.52-1.69,1.52l-.09-.16a10.41,10.41,0,0,1,1.69-2.88v-1.1l-.09-.59a11.29,11.29,0,0,1-2.27.68c-.26-.11-.4-.22-.43-.33v-.09a6.65,6.65,0,0,1,1.86-.68c.55-.21.83-.38.84-.5v-.93Q937.8,1012.42,938.4,1012.42Zm6.92.84h.16c.19,0,.33.34.42,1v.77h.17l.26-.18a.17.17,0,0,1,.16.18c0,.07-.16.26-.5.58v5.57a.74.74,0,0,0,.08.34.73.73,0,0,0-.08.33v.17a2,2,0,0,1,.42,1c-.08.22-.17.33-.25.33h-.26a13.52,13.52,0,0,0-2.53-2.69v-.09l.09-.17a9.67,9.67,0,0,0,1.77.85v-.09c-.05-2-.08-3.57-.08-4.72l-.09-.43a16.77,16.77,0,0,0-2.7,1l-.16.58.59.51.58-.08c.74,0,1.1.17,1.1.34s-.53.33-1.61.5a2.4,2.4,0,0,0-1.09-.42c-.3.5-.5.75-.59.76h-.25a7.52,7.52,0,0,0,.33-1.26v-.09c-.67-.26-1-.6-1-1v-.09c0-.11.08-.17.17-.17a4.43,4.43,0,0,1,1,.51h.26a10.51,10.51,0,0,0,.33-1.35v-.17l-1.69.68-.16-.26V1016c0-.23.7-.57,2.11-1,.19,0,.36.22.51.67a.64.64,0,0,0-.09.34v.16h.16a15.54,15.54,0,0,0,2.29-.75l-.09-.84v-.76C945.1,1013.43,945.18,1013.26,945.32,1013.26Z" transform="translate(-185 -78)"/><path class="cls-2" d="M604.79,348.52a2,2,0,0,1,1,1.77v.26c-.11,3-.16,4.64-.16,5v2.2c0,.49,0,1,.07,1.52-.09,1-.21,1.45-.35,1.45h-.3c-.71-.68-1.2-1-1.48-1a18.62,18.62,0,0,1-2.94.93h-.25c-.07,0-.16-.09-.27-.29V360a9.46,9.46,0,0,1,2.45-1q0-.15.33-.15v-.17c-.07-.21-.26-.31-.57-.31h-.76a.09.09,0,0,1-.1-.1v-.5c0-.07,0-.11.1-.11h.33c1,.06,1.45.34,1.45.85.73.08,1.1.36,1.1.84h.16a.21.21,0,0,0,.24-.24v-2.64a5.32,5.32,0,0,0-2.18-1.14c-.2,0-.37.24-.51.7.63.39.94.74.94,1.06,0,.07,0,.1-.17.1l-1.15-.35a1,1,0,0,1-.49.6h-.4c-.35,0-.52-.15-.52-.44.29,0,.7-.72,1.21-2.14a10.67,10.67,0,0,0-2-.78V354a18.61,18.61,0,0,1,.68-3.07l-.32-.21q-.93.07-.93.33c0,.4.06,1.16.17,2.28h-.1a27.94,27.94,0,0,1,.19,3.87v1l.08.49a6.11,6.11,0,0,0-.17,1.29,4,4,0,0,1,.09.73,1,1,0,0,1-.46.54h-.15c-.05,0-.17-.13-.35-.38,0-.82,0-2,.08-3.42l.1-.18-.1-.19a59.63,59.63,0,0,0-.49-7.87l.1-.05h.13a1.07,1.07,0,0,1,.54.84A47,47,0,0,0,604.79,348.52Zm-4,4h.28A6.59,6.59,0,0,1,603.2,351h.14a1,1,0,0,1,.45.93l-.87,2.61h.17a4.47,4.47,0,0,0,1.78.68A.65.65,0,0,1,605,355c0-.11,0-.16-.08-.16l.16-2.39c0-.1,0-.15-.07-.15l.07-.35v-1.68c0-.33-.11-.53-.32-.58q-2.9.75-3,.75A3.5,3.5,0,0,0,600.83,352.47Zm0,1v.37l1,.14H602a5.74,5.74,0,0,0,.75-1.58v-.2C602.4,352.21,601.75,352.64,600.84,353.48Z" transform="translate(-185 -78)"/><circle class="cls-1" cx="98.5" cy="356.5" r="18"/><path class="cls-2" d="M278.69,433.76c0-4.49,1.83-6.91,4.81-6.91s4.81,2.42,4.81,6.91-1.83,7-4.81,7S278.69,438.21,278.69,433.76Zm8,0c0-3.84-1.32-5.5-3.19-5.5s-3.19,1.66-3.19,5.5,1.32,5.59,3.19,5.59S286.69,437.6,286.69,433.76Zm-4.49-.15a1.3,1.3,0,1,1,1.3,1.41A1.3,1.3,0,0,1,282.2,433.61Z" transform="translate(-185 -78)"/><circle class="cls-1" cx="21.5" cy="465.5" r="18"/><path class="cls-2" d="M201.38,547.93l.86-1.16A5.31,5.31,0,0,0,206,548.3a3.11,3.11,0,0,0,3.38-3c0-1.85-1.31-2.92-3.28-2.92a5,5,0,0,0-2.73.8l-.92-.59.44-6.45h7.58v1.52h-6.05l-.36,3.94a5.84,5.84,0,0,1,2.48-.54c2.56,0,4.6,1.3,4.6,4.2s-2.39,4.53-4.95,4.53A6.72,6.72,0,0,1,201.38,547.93Z" transform="translate(-185 -78)"/><circle class="cls-1" cx="73.5" cy="541.5" r="18"/><path class="cls-2" d="M259.93,616.28c0-.73.06-1.64.1-2.37h-.1c-.44.65-.93,1.3-1.37,2L255,620.4h8.69v1.4H253v-1.15l6.68-8.55h1.86v13.4h-1.63Z" transform="translate(-185 -78)"/><circle class="cls-1" cx="127.5" cy="465.5" r="18"/><path class="cls-2" d="M307.82,543.31c0-5.38,2.68-7.46,5.6-7.46a5.32,5.32,0,0,1,3.74,1.43l-1,1.09a3.93,3.93,0,0,0-2.66-1.07c-2.19,0-4.08,1.53-4.08,6,0,3.29,1.26,5.08,3.49,5.08a2.78,2.78,0,0,0,2.81-2.94,2.55,2.55,0,0,0-2.83-2.84,4.73,4.73,0,0,0-3.51,1.89l-.06-1.36a5.68,5.68,0,0,1,3.88-1.83,3.81,3.81,0,0,1,4.18,4.14,4.32,4.32,0,0,1-4.47,4.3C310,549.75,307.82,547.61,307.82,543.31Z" transform="translate(-185 -78)"/><circle class="cls-1" cx="171.5" cy="398.5" r="18"/><path class="cls-2" d="M352.24,481.05h3.86v-9.82h-3v-1.14a9.5,9.5,0,0,0,3.44-1h1.3v11.95h3.49v1.45h-9.09Z" transform="translate(-185 -78)"/><circle class="cls-1" cx="216.5" cy="465.5" r="18"/><path class="cls-2" d="M396.73,548.47c4.54-4,7-6.36,7-8.59,0-1.53-.93-2.6-2.9-2.6a4.58,4.58,0,0,0-3.21,1.6l-1-1a6,6,0,0,1,4.43-2c2.69,0,4.37,1.58,4.37,3.95,0,2.52-2.52,5-6.16,8.31.84-.06,1.7-.1,2.5-.1h4.39v1.49h-9.43Z" transform="translate(-185 -78)"/><circle class="cls-1" cx="153.5" cy="563.5" r="18"/><path class="cls-2" d="M333.4,645.86l.88-1.13a5.41,5.41,0,0,0,3.84,1.57c1.83,0,3.19-.94,3.19-2.43s-1.34-2.67-4.85-2.67v-1.32c3.17,0,4.39-1.09,4.39-2.5s-1.11-2.1-2.73-2.1a5.12,5.12,0,0,0-3.3,1.34l-.92-1.09a6.51,6.51,0,0,1,4.28-1.68c2.52,0,4.43,1.24,4.43,3.4,0,1.62-1.19,2.65-2.85,3.2v.08c1.78.38,3.32,1.55,3.32,3.4,0,2.37-2.19,3.82-4.85,3.82A6.54,6.54,0,0,1,333.4,645.86Z" transform="translate(-185 -78)"/><line class="cls-3" x1="30.18" y1="449.73" x2="86.07" y2="369.52"/><path class="cls-2" d="M226.15,483.91h2.2v-5.62h-1.71v-.64a5.46,5.46,0,0,0,2-.57h.74v6.83h2v.82h-5.19Z" transform="translate(-185 -78)"/><path class="cls-2" d="M233,480.88c0-2.56,1-3.94,2.74-3.94s2.75,1.38,2.75,3.94-1.05,4-2.75,4S233,483.43,233,480.88Zm4.56,0c0-2.19-.75-3.14-1.82-3.14s-1.82.95-1.82,3.14.75,3.19,1.82,3.19S237.6,483.08,237.6,480.88ZM235,480.8a.75.75,0,1,1,.74.8A.74.74,0,0,1,235,480.8Z" transform="translate(-185 -78)"/><path class="cls-2" d="M303.11,697.24h-.56a2.45,2.45,0,0,1-.43-.92c.15,0,.22-.21.22-.56v-1l.07-.42-.07-.14.07-.28a.51.51,0,0,0-.07-.28c.09-.91.14-2.08.14-3.52v-.28a.78.78,0,0,1,.36-.63h.2s.17.14.36.42l-.07.49c-.05,3.46-.08,5.74-.08,6.82C303.16,697,303.11,697.05,303.11,697.24Z" transform="translate(-185 -78)"/><circle class="cls-1" cx="389.5" cy="680.5" r="18"/><path class="cls-2" d="M569.69,757.76c0-4.49,1.83-6.91,4.81-6.91s4.81,2.42,4.81,6.91-1.83,7-4.81,7S569.69,762.21,569.69,757.76Zm8,0c0-3.84-1.32-5.5-3.19-5.5s-3.19,1.66-3.19,5.5,1.32,5.59,3.19,5.59S577.69,761.6,577.69,757.76Zm-4.49-.15a1.3,1.3,0,1,1,1.3,1.41A1.3,1.3,0,0,1,573.2,757.61Z" transform="translate(-185 -78)"/><circle class="cls-1" cx="312.5" cy="789.5" r="18"/><path class="cls-2" d="M492.38,871.93l.86-1.16A5.31,5.31,0,0,0,497,872.3a3.11,3.11,0,0,0,3.38-3c0-1.85-1.31-2.92-3.28-2.92a5,5,0,0,0-2.73.8l-.92-.59.44-6.45h7.58v1.52h-6.05l-.36,3.94a5.84,5.84,0,0,1,2.48-.54c2.56,0,4.6,1.3,4.6,4.2s-2.39,4.53-5,4.53A6.72,6.72,0,0,1,492.38,871.93Z" transform="translate(-185 -78)"/><circle class="cls-1" cx="364.5" cy="865.5" r="18"/><path class="cls-2" d="M550.93,940.28c0-.73.06-1.64.1-2.37h-.1c-.44.65-.93,1.3-1.37,2L546,944.4h8.69v1.4H544v-1.15l6.68-8.55h1.86v13.4h-1.63Z" transform="translate(-185 -78)"/><circle class="cls-1" cx="418.5" cy="789.5" r="18"/><path class="cls-2" d="M598.82,867.31c0-5.38,2.68-7.46,5.6-7.46a5.32,5.32,0,0,1,3.74,1.43l-1,1.09a3.93,3.93,0,0,0-2.66-1.07c-2.19,0-4.08,1.53-4.08,6,0,3.29,1.26,5.08,3.49,5.08a2.78,2.78,0,0,0,2.81-2.94,2.55,2.55,0,0,0-2.83-2.84,4.73,4.73,0,0,0-3.51,1.89l-.06-1.36a5.68,5.68,0,0,1,3.88-1.83,3.81,3.81,0,0,1,4.18,4.14,4.32,4.32,0,0,1-4.47,4.3C601,873.75,598.82,871.61,598.82,867.31Z" transform="translate(-185 -78)"/><circle class="cls-1" cx="462.5" cy="722.5" r="18"/><path class="cls-2" d="M643.24,805.05h3.86v-9.83h-3v-1.13a9.5,9.5,0,0,0,3.44-1h1.3v11.95h3.49v1.45h-9.09Z" transform="translate(-185 -78)"/><circle class="cls-1" cx="507.5" cy="789.5" r="18"/><path class="cls-2" d="M687.73,872.47c4.54-4,7-6.36,7-8.59,0-1.53-.93-2.6-2.9-2.6a4.58,4.58,0,0,0-3.21,1.6l-1-1a6,6,0,0,1,4.43-2c2.69,0,4.37,1.58,4.37,3.95,0,2.52-2.52,5-6.16,8.31.84-.06,1.7-.1,2.5-.1h4.39v1.49h-9.43Z" transform="translate(-185 -78)"/><circle class="cls-1" cx="444.5" cy="887.5" r="18"/><path class="cls-2" d="M624.4,969.86l.88-1.13a5.41,5.41,0,0,0,3.84,1.57c1.83,0,3.19-.94,3.19-2.43s-1.34-2.67-4.85-2.67v-1.32c3.17,0,4.39-1.09,4.39-2.5s-1.11-2.1-2.73-2.1a5.07,5.07,0,0,0-3.29,1.34l-.93-1.09a6.51,6.51,0,0,1,4.28-1.68c2.52,0,4.43,1.24,4.43,3.4,0,1.62-1.19,2.65-2.85,3.2v.08c1.78.38,3.32,1.55,3.32,3.4,0,2.37-2.19,3.82-4.85,3.82A6.54,6.54,0,0,1,624.4,969.86Z" transform="translate(-185 -78)"/><line class="cls-3" x1="472.58" y1="737.41" x2="497.18" y2="774.76"/><line class="cls-3" x1="497.18" y1="804.24" x2="454.73" y2="872.69"/><line class="cls-3" x1="381.47" y1="871.5" x2="426.95" y2="883.5"/><line class="cls-3" x1="321.18" y1="773.73" x2="377.07" y2="693.52"/><line class="cls-3" x1="452.42" y1="737.41" x2="428.82" y2="774.76"/><path class="cls-2" d="M676.15,832.91h2.2v-5.62h-1.71v-.64a5.46,5.46,0,0,0,2-.57h.74v6.83h2v.82h-5.19Z" transform="translate(-185 -78)"/><path class="cls-2" d="M683.11,830.2c0-3.08,1.53-4.26,3.2-4.26a3.06,3.06,0,0,1,2.13.81l-.55.63a2.24,2.24,0,0,0-1.52-.61c-1.25,0-2.33.87-2.33,3.43,0,1.88.72,2.9,2,2.9a1.59,1.59,0,0,0,1.61-1.68A1.46,1.46,0,0,0,686,829.8a2.68,2.68,0,0,0-2,1.08l0-.78a3.23,3.23,0,0,1,2.22-1,2.17,2.17,0,0,1,2.39,2.36,2.47,2.47,0,0,1-2.56,2.46C684.37,833.88,683.11,832.65,683.11,830.2Z" transform="translate(-185 -78)"/><path class="cls-2" d="M517.15,807.91h2.2v-5.62h-1.71v-.64a5.46,5.46,0,0,0,2-.57h.74v6.83h2v.82h-5.19Z" transform="translate(-185 -78)"/><path class="cls-2" d="M524,804.88c0-2.56,1-3.94,2.74-3.94s2.75,1.38,2.75,3.94-1,4-2.75,4S524,807.43,524,804.88Zm4.56,0c0-2.19-.75-3.14-1.82-3.14s-1.82,1-1.82,3.14.75,3.19,1.82,3.19S528.6,807.08,528.6,804.88ZM526,804.8a.75.75,0,1,1,.74.8A.74.74,0,0,1,526,804.8Z" transform="translate(-185 -78)"/><path class="cls-2" d="M581.86,966.15c2.59-2.29,4-3.64,4-4.91,0-.87-.53-1.49-1.66-1.49a2.61,2.61,0,0,0-1.83.92l-.58-.57a3.43,3.43,0,0,1,2.53-1.16,2.22,2.22,0,0,1,2.49,2.25c0,1.44-1.43,2.87-3.51,4.75.48,0,1-.06,1.43-.06h2.5v.85h-5.38Z" transform="translate(-185 -78)"/><path class="cls-2" d="M589.06,966.15c2.59-2.29,4-3.64,4-4.91,0-.87-.52-1.49-1.65-1.49a2.65,2.65,0,0,0-1.84.92l-.57-.57a3.42,3.42,0,0,1,2.53-1.16,2.23,2.23,0,0,1,2.49,2.25c0,1.44-1.44,2.87-3.51,4.75.48,0,1-.06,1.43-.06h2.5v.85h-5.38Z" transform="translate(-185 -78)"/><path class="cls-2" d="M665.15,924.91h2.2v-5.62h-1.71v-.64a5.46,5.46,0,0,0,2-.57h.74v6.83h2v.82h-5.19Z" transform="translate(-185 -78)"/><path class="cls-2" d="M672.06,925.15c2.59-2.29,4-3.64,4-4.91,0-.87-.52-1.49-1.65-1.49a2.65,2.65,0,0,0-1.84.92l-.57-.57a3.43,3.43,0,0,1,2.53-1.16,2.23,2.23,0,0,1,2.49,2.25c0,1.44-1.44,2.87-3.51,4.75.48,0,1-.06,1.43-.06h2.5v.85h-5.38Z" transform="translate(-185 -78)"/><path class="cls-2" d="M608.15,832.91h2.2v-5.62h-1.71v-.64a5.46,5.46,0,0,0,2-.57h.74v6.83h2v.82h-5.19Z" transform="translate(-185 -78)"/><path class="cls-2" d="M618.6,828.47c0-.42,0-.94.06-1.36h-.06c-.25.38-.53.75-.78,1.12l-2.07,2.59h5v.8h-6.07V831l3.81-4.88h1.07v7.65h-.93Z" transform="translate(-185 -78)"/><path class="cls-2" d="M594.24,1022h-.08a1.14,1.14,0,0,1-1-.71c0-.47.14-.7.28-.7h.13a2.32,2.32,0,0,1,.43.43H594c.55,0,1.35-.71,2.39-2.12a3.2,3.2,0,0,0,.49-1.12v-.7h-.06a.88.88,0,0,1-.43-.07c-1.5.12-2.25.29-2.25.49a.59.59,0,0,0-.2.07.78.78,0,0,1-.63-.77v-.08a7.93,7.93,0,0,0,.42-2.52.75.75,0,0,0-.35-.56.58.58,0,0,1-.07-.28c0-.09.18-.2.56-.36,0-.37.16-.56.49-.56l.49.49h.07c.23,0,.58,0,1.06-.07l.34.57v.07q0,.4-1.62.63v.07l-.27,1.89.42-.07a4.59,4.59,0,0,1,2.32.36,2.65,2.65,0,0,1,.57,1.12,7.36,7.36,0,0,1-.92,2.25,7,7,0,0,1-1.12,1.4A3.41,3.41,0,0,1,594.24,1022Z" transform="translate(-185 -78)"/><circle class="cls-1" cx="95.5" cy="680.5" r="18"/><path class="cls-2" d="M275.69,757.76c0-4.49,1.83-6.91,4.81-6.91s4.81,2.42,4.81,6.91-1.83,7-4.81,7S275.69,762.21,275.69,757.76Zm8,0c0-3.84-1.32-5.5-3.19-5.5s-3.19,1.66-3.19,5.5,1.32,5.59,3.19,5.59S283.69,761.6,283.69,757.76Zm-4.49-.15a1.3,1.3,0,1,1,1.3,1.41A1.3,1.3,0,0,1,279.2,757.61Z" transform="translate(-185 -78)"/><circle class="cls-1" cx="18.5" cy="789.5" r="18"/><path class="cls-2" d="M198.38,871.93l.86-1.16A5.31,5.31,0,0,0,203,872.3a3.11,3.11,0,0,0,3.38-3c0-1.85-1.31-2.92-3.28-2.92a5,5,0,0,0-2.73.8l-.92-.59.44-6.45h7.58v1.52h-6.05l-.36,3.94a5.84,5.84,0,0,1,2.48-.54c2.56,0,4.6,1.3,4.6,4.2s-2.39,4.53-4.95,4.53A6.72,6.72,0,0,1,198.38,871.93Z" transform="translate(-185 -78)"/><circle class="cls-1" cx="70.5" cy="865.5" r="18"/><path class="cls-2" d="M256.93,940.28c0-.73.06-1.64.1-2.37h-.1c-.44.65-.93,1.3-1.37,2L252,944.4h8.69v1.4H250v-1.15l6.68-8.55h1.86v13.4h-1.63Z" transform="translate(-185 -78)"/><circle class="cls-1" cx="124.5" cy="789.5" r="18"/><path class="cls-2" d="M304.82,867.31c0-5.38,2.68-7.46,5.6-7.46a5.32,5.32,0,0,1,3.74,1.43l-1,1.09a3.93,3.93,0,0,0-2.66-1.07c-2.19,0-4.08,1.53-4.08,6,0,3.29,1.26,5.08,3.49,5.08a2.78,2.78,0,0,0,2.81-2.94,2.55,2.55,0,0,0-2.83-2.84,4.73,4.73,0,0,0-3.51,1.89l-.06-1.36a5.68,5.68,0,0,1,3.88-1.83,3.81,3.81,0,0,1,4.18,4.14,4.32,4.32,0,0,1-4.47,4.3C307,873.75,304.82,871.61,304.82,867.31Z" transform="translate(-185 -78)"/><circle class="cls-1" cx="168.5" cy="722.5" r="18"/><path class="cls-2" d="M349.24,805.05h3.86v-9.83h-3v-1.13a9.5,9.5,0,0,0,3.44-1h1.3v11.95h3.49v1.45h-9.09Z" transform="translate(-185 -78)"/><circle class="cls-1" cx="213.5" cy="789.5" r="18"/><path class="cls-2" d="M393.73,872.47c4.54-4,7-6.36,7-8.59,0-1.53-.93-2.6-2.9-2.6a4.58,4.58,0,0,0-3.21,1.6l-1-1a6,6,0,0,1,4.43-2c2.69,0,4.37,1.58,4.37,3.95,0,2.52-2.52,5-6.16,8.31.84-.06,1.7-.1,2.5-.1h4.39v1.49h-9.43Z" transform="translate(-185 -78)"/><circle class="cls-1" cx="150.5" cy="887.5" r="18"/><path class="cls-2" d="M330.4,969.86l.88-1.13a5.41,5.41,0,0,0,3.84,1.57c1.83,0,3.19-.94,3.19-2.43s-1.34-2.67-4.85-2.67v-1.32c3.17,0,4.39-1.09,4.39-2.5s-1.11-2.1-2.73-2.1a5.12,5.12,0,0,0-3.3,1.34l-.92-1.09a6.51,6.51,0,0,1,4.28-1.68c2.52,0,4.43,1.24,4.43,3.4,0,1.62-1.19,2.65-2.85,3.2v.08c1.78.38,3.32,1.55,3.32,3.4,0,2.37-2.19,3.82-4.85,3.82A6.54,6.54,0,0,1,330.4,969.86Z" transform="translate(-185 -78)"/><line class="cls-3" x1="178.58" y1="737.41" x2="203.18" y2="774.76"/><line class="cls-3" x1="203.18" y1="804.24" x2="160.73" y2="872.69"/><line class="cls-3" x1="27.18" y1="773.73" x2="83.07" y2="693.52"/><line class="cls-3" x1="158.42" y1="737.41" x2="134.82" y2="774.76"/><path class="cls-2" d="M382.15,832.91h2.2v-5.62h-1.71v-.64a5.46,5.46,0,0,0,2-.57h.74v6.83h2v.82h-5.19Z" transform="translate(-185 -78)"/><path class="cls-2" d="M389.11,830.2c0-3.08,1.53-4.26,3.2-4.26a3.06,3.06,0,0,1,2.13.81l-.55.63a2.26,2.26,0,0,0-1.52-.61c-1.25,0-2.33.87-2.33,3.43,0,1.88.72,2.9,2,2.9a1.59,1.59,0,0,0,1.61-1.68A1.46,1.46,0,0,0,392,829.8a2.68,2.68,0,0,0-2,1.08l0-.78a3.23,3.23,0,0,1,2.22-1,2.17,2.17,0,0,1,2.39,2.36,2.47,2.47,0,0,1-2.56,2.46C390.37,833.88,389.11,832.65,389.11,830.2Z" transform="translate(-185 -78)"/><path class="cls-2" d="M223.15,807.91h2.2v-5.62h-1.71v-.64a5.46,5.46,0,0,0,2-.57h.74v6.83h2v.82h-5.19Z" transform="translate(-185 -78)"/><path class="cls-2" d="M230,804.88c0-2.56,1-3.94,2.74-3.94s2.75,1.38,2.75,3.94-1.05,4-2.75,4S230,807.43,230,804.88Zm4.56,0c0-2.19-.75-3.14-1.82-3.14s-1.82,1-1.82,3.14.75,3.19,1.82,3.19S234.6,807.08,234.6,804.88ZM232,804.8a.75.75,0,1,1,.74.8A.74.74,0,0,1,232,804.8Z" transform="translate(-185 -78)"/><path class="cls-2" d="M371.15,924.91h2.2v-5.62h-1.71v-.64a5.46,5.46,0,0,0,2-.57h.74v6.83h2v.82h-5.19Z" transform="translate(-185 -78)"/><path class="cls-2" d="M378.06,925.15c2.59-2.29,4-3.64,4-4.91,0-.87-.52-1.49-1.65-1.49a2.65,2.65,0,0,0-1.84.92l-.57-.57a3.42,3.42,0,0,1,2.53-1.16,2.23,2.23,0,0,1,2.49,2.25c0,1.44-1.44,2.87-3.51,4.75.48,0,1-.06,1.43-.06h2.5v.85h-5.38Z" transform="translate(-185 -78)"/><path class="cls-2" d="M314.15,832.91h2.2v-5.62h-1.71v-.64a5.46,5.46,0,0,0,2-.57h.74v6.83h2v.82h-5.19Z" transform="translate(-185 -78)"/><path class="cls-2" d="M324.6,828.47c0-.42,0-.94.06-1.36h-.06c-.25.38-.53.75-.78,1.12l-2.07,2.59h5v.8h-6.07V831l3.82-4.88h1.06v7.65h-.93Z" transform="translate(-185 -78)"/><path class="cls-2" d="M302.49,1021.31l-.27-.07a.55.55,0,0,1-.21.07c-.26-.37-.42-.56-.49-.56a20.06,20.06,0,0,0,.14-2.32.46.46,0,0,1-.07-.21l-.36.07h-.57c-.84,0-1.33-.24-1.47-.7a.07.07,0,0,1-.07-.07,23.49,23.49,0,0,1,1.83-2.47,3,3,0,0,1,1.4-1.89h.07c.17,0,.36.16.56.49v.63c0,.46,0,1.33-.14,2.6h.07a3.75,3.75,0,0,0,1.35-.49.55.55,0,0,1,.21.07l.42-.07a.8.8,0,0,1,.56.49v.14a.61.61,0,0,1-.56.43v-.15h-.22l-.9.36q-1.2,0-1.2,1.89a2.74,2.74,0,0,0,.14.71,1.47,1.47,0,0,1-.22.63Zm-1.68-4.15.85-.07h.2l.08-.35v-.84a.51.51,0,0,1,.07-.28.53.53,0,0,1-.07-.28l.07-.14h-.07a3.51,3.51,0,0,0-.92,1.61.39.39,0,0,0-.29.28C300.79,1017.09,300.81,1017.12,300.81,1017.16Z" transform="translate(-185 -78)"/><circle class="cls-1" cx="392.5" cy="356.5" r="18"/><path class="cls-2" d="M572.69,433.76c0-4.49,1.83-6.91,4.81-6.91s4.81,2.42,4.81,6.91-1.83,7-4.81,7S572.69,438.21,572.69,433.76Zm8,0c0-3.84-1.32-5.5-3.19-5.5s-3.19,1.66-3.19,5.5,1.32,5.59,3.19,5.59S580.69,437.6,580.69,433.76Zm-4.49-.15a1.3,1.3,0,1,1,1.3,1.41A1.3,1.3,0,0,1,576.2,433.61Z" transform="translate(-185 -78)"/><circle class="cls-1" cx="315.5" cy="465.5" r="18"/><path class="cls-2" d="M495.38,547.93l.86-1.16A5.31,5.31,0,0,0,500,548.3a3.11,3.11,0,0,0,3.38-3c0-1.85-1.31-2.92-3.28-2.92a5,5,0,0,0-2.73.8l-.92-.59.44-6.45h7.58v1.52h-6.05l-.36,3.94a5.84,5.84,0,0,1,2.48-.54c2.56,0,4.6,1.3,4.6,4.2s-2.39,4.53-5,4.53A6.72,6.72,0,0,1,495.38,547.93Z" transform="translate(-185 -78)"/><circle class="cls-1" cx="367.5" cy="541.5" r="18"/><path class="cls-2" d="M553.93,616.28c0-.73.06-1.64.1-2.37h-.1c-.44.65-.93,1.3-1.37,2L549,620.4h8.69v1.4H547v-1.15l6.68-8.55h1.86v13.4h-1.63Z" transform="translate(-185 -78)"/><circle class="cls-1" cx="421.5" cy="465.5" r="18"/><path class="cls-2" d="M601.82,543.31c0-5.38,2.68-7.46,5.6-7.46a5.32,5.32,0,0,1,3.74,1.43l-1,1.09a3.93,3.93,0,0,0-2.66-1.07c-2.19,0-4.07,1.53-4.07,6,0,3.29,1.25,5.08,3.48,5.08a2.78,2.78,0,0,0,2.81-2.94,2.55,2.55,0,0,0-2.83-2.84,4.73,4.73,0,0,0-3.51,1.89l-.06-1.36a5.68,5.68,0,0,1,3.88-1.83,3.81,3.81,0,0,1,4.18,4.14,4.32,4.32,0,0,1-4.47,4.3C604,549.75,601.82,547.61,601.82,543.31Z" transform="translate(-185 -78)"/><circle class="cls-1" cx="465.5" cy="398.5" r="18"/><path class="cls-2" d="M646.24,481.05h3.86v-9.82h-3v-1.14a9.5,9.5,0,0,0,3.44-1h1.3v11.95h3.49v1.45h-9.09Z" transform="translate(-185 -78)"/><circle class="cls-1" cx="510.5" cy="465.5" r="18"/><path class="cls-2" d="M690.73,548.47c4.54-4,7-6.36,7-8.59,0-1.53-.93-2.6-2.9-2.6a4.58,4.58,0,0,0-3.21,1.6l-1-1a6,6,0,0,1,4.43-2c2.69,0,4.37,1.58,4.37,3.95,0,2.52-2.52,5-6.16,8.31.84-.06,1.7-.1,2.5-.1h4.39v1.49h-9.43Z" transform="translate(-185 -78)"/><circle class="cls-1" cx="447.5" cy="563.5" r="18"/><path class="cls-2" d="M627.4,645.86l.88-1.13a5.41,5.41,0,0,0,3.84,1.57c1.83,0,3.19-.94,3.19-2.43s-1.34-2.67-4.85-2.67v-1.32c3.17,0,4.39-1.09,4.39-2.5s-1.11-2.1-2.73-2.1a5.07,5.07,0,0,0-3.29,1.34l-.93-1.09a6.51,6.51,0,0,1,4.28-1.68c2.52,0,4.43,1.24,4.43,3.4,0,1.62-1.19,2.65-2.85,3.2v.08c1.78.38,3.32,1.55,3.32,3.4,0,2.37-2.19,3.82-4.85,3.82A6.54,6.54,0,0,1,627.4,645.86Z" transform="translate(-185 -78)"/><line class="cls-3" x1="500.18" y1="480.24" x2="457.73" y2="548.69"/><line class="cls-3" x1="324.18" y1="449.73" x2="380.07" y2="369.52"/><path class="cls-2" d="M520.15,483.91h2.2v-5.62h-1.71v-.64a5.46,5.46,0,0,0,2-.57h.74v6.83h2v.82h-5.19Z" transform="translate(-185 -78)"/><path class="cls-2" d="M527,480.88c0-2.56,1-3.94,2.74-3.94s2.75,1.38,2.75,3.94-1,4-2.75,4S527,483.43,527,480.88Zm4.56,0c0-2.19-.75-3.14-1.82-3.14s-1.82.95-1.82,3.14.75,3.19,1.82,3.19S531.6,483.08,531.6,480.88ZM529,480.8a.75.75,0,1,1,.74.8A.74.74,0,0,1,529,480.8Z" transform="translate(-185 -78)"/><path class="cls-2" d="M668.15,600.91h2.2v-5.62h-1.71v-.64a5.46,5.46,0,0,0,2-.57h.74v6.83h2v.82h-5.19Z" transform="translate(-185 -78)"/><path class="cls-2" d="M675.06,601.15c2.59-2.29,4-3.64,4-4.91,0-.87-.52-1.49-1.65-1.49a2.65,2.65,0,0,0-1.84.92l-.57-.57a3.43,3.43,0,0,1,2.53-1.16,2.23,2.23,0,0,1,2.49,2.25c0,1.44-1.44,2.87-3.51,4.75.48,0,1-.06,1.43-.06h2.5v.85h-5.38Z" transform="translate(-185 -78)"/><path class="cls-2" d="M583.73,696.61h-.13a.69.69,0,0,1-.49-.63q1.42-1.58,2.4-2.85a4.23,4.23,0,0,0,1-1.65c0-.32-.49-.55-1.48-.71l-1,.14c-.2,0-.33-.21-.41-.63,0-.22.32-.36,1-.42,1.55,0,2.44.52,2.68,1.55v.07l-.07.14.07.14a4.59,4.59,0,0,1-.77,1.4c-.12,0-.26.17-.43.5a17,17,0,0,0-1.4,1.75l2.17-.62c.33,0,.5.09.5.27l.07.35-.28.36H587a.69.69,0,0,1-.29-.07A20.38,20.38,0,0,1,583.73,696.61Z" transform="translate(-185 -78)"/><circle class="cls-1" cx="690.5" cy="356.5" r="18"/><path class="cls-2" d="M870.69,433.76c0-4.49,1.83-6.91,4.81-6.91s4.81,2.42,4.81,6.91-1.83,7-4.81,7S870.69,438.21,870.69,433.76Zm8,0c0-3.84-1.32-5.5-3.19-5.5s-3.19,1.66-3.19,5.5,1.32,5.59,3.19,5.59S878.69,437.6,878.69,433.76Zm-4.49-.15a1.3,1.3,0,1,1,1.3,1.41A1.3,1.3,0,0,1,874.2,433.61Z" transform="translate(-185 -78)"/><circle class="cls-1" cx="613.5" cy="465.5" r="18"/><path class="cls-2" d="M793.38,547.93l.86-1.16A5.31,5.31,0,0,0,798,548.3a3.11,3.11,0,0,0,3.38-3c0-1.85-1.31-2.92-3.28-2.92a5,5,0,0,0-2.73.8l-.92-.59.44-6.45h7.58v1.52h-6l-.36,3.94a5.84,5.84,0,0,1,2.48-.54c2.56,0,4.6,1.3,4.6,4.2s-2.39,4.53-4.95,4.53A6.72,6.72,0,0,1,793.38,547.93Z" transform="translate(-185 -78)"/><circle class="cls-1" cx="665.5" cy="541.5" r="18"/><path class="cls-2" d="M851.93,616.28c0-.73.06-1.64.1-2.37h-.1c-.44.65-.93,1.3-1.37,2L847,620.4h8.69v1.4H845v-1.15l6.68-8.55h1.86v13.4h-1.63Z" transform="translate(-185 -78)"/><circle class="cls-1" cx="719.5" cy="465.5" r="18"/><path class="cls-2" d="M899.82,543.31c0-5.38,2.68-7.46,5.6-7.46a5.32,5.32,0,0,1,3.74,1.43l-1,1.09a3.93,3.93,0,0,0-2.66-1.07c-2.19,0-4.07,1.53-4.07,6,0,3.29,1.25,5.08,3.48,5.08a2.78,2.78,0,0,0,2.81-2.94,2.55,2.55,0,0,0-2.83-2.84,4.73,4.73,0,0,0-3.51,1.89l-.06-1.36a5.68,5.68,0,0,1,3.88-1.83,3.81,3.81,0,0,1,4.18,4.14,4.32,4.32,0,0,1-4.47,4.3C902,549.75,899.82,547.61,899.82,543.31Z" transform="translate(-185 -78)"/><circle class="cls-1" cx="763.5" cy="398.5" r="18"/><path class="cls-2" d="M944.24,481.05h3.86v-9.82h-3v-1.14a9.5,9.5,0,0,0,3.44-1h1.3v11.95h3.49v1.45h-9.09Z" transform="translate(-185 -78)"/><circle class="cls-1" cx="808.5" cy="465.5" r="18"/><path class="cls-2" d="M988.73,548.47c4.54-4,7-6.36,7-8.59,0-1.53-.93-2.6-2.9-2.6a4.58,4.58,0,0,0-3.21,1.6l-1-1a6,6,0,0,1,4.43-2c2.69,0,4.37,1.58,4.37,3.95,0,2.52-2.52,5-6.16,8.31.84-.06,1.7-.1,2.5-.1h4.39v1.49h-9.43Z" transform="translate(-185 -78)"/><circle class="cls-1" cx="745.5" cy="563.5" r="18"/><path class="cls-2" d="M925.4,645.86l.88-1.13a5.41,5.41,0,0,0,3.84,1.57c1.83,0,3.19-.94,3.19-2.43s-1.34-2.67-4.85-2.67v-1.32c3.17,0,4.39-1.09,4.39-2.5s-1.11-2.1-2.73-2.1a5.12,5.12,0,0,0-3.3,1.34l-.92-1.09a6.51,6.51,0,0,1,4.28-1.68c2.52,0,4.43,1.24,4.43,3.4,0,1.62-1.19,2.65-2.85,3.2v.08c1.78.38,3.32,1.55,3.32,3.4,0,2.37-2.19,3.82-4.85,3.82A6.54,6.54,0,0,1,925.4,645.86Z" transform="translate(-185 -78)"/><line class="cls-3" x1="798.18" y1="480.24" x2="755.73" y2="548.69"/><line class="cls-3" x1="622.18" y1="449.73" x2="678.07" y2="369.52"/><line class="cls-3" x1="753.42" y1="413.41" x2="729.82" y2="450.76"/><path class="cls-2" d="M818.15,483.91h2.2v-5.62h-1.71v-.64a5.46,5.46,0,0,0,2-.57h.74v6.83h2v.82h-5.19Z" transform="translate(-185 -78)"/><path class="cls-2" d="M825,480.88c0-2.56,1-3.94,2.74-3.94s2.75,1.38,2.75,3.94-1,4-2.75,4S825,483.43,825,480.88Zm4.56,0c0-2.19-.75-3.14-1.82-3.14s-1.82.95-1.82,3.14.75,3.19,1.82,3.19S829.6,483.08,829.6,480.88ZM827,480.8a.75.75,0,1,1,.74.8A.74.74,0,0,1,827,480.8Z" transform="translate(-185 -78)"/><path class="cls-2" d="M966.15,600.91h2.2v-5.62h-1.71v-.64a5.46,5.46,0,0,0,2-.57h.74v6.83h2v.82h-5.19Z" transform="translate(-185 -78)"/><path class="cls-2" d="M973.06,601.15c2.59-2.29,4-3.64,4-4.91,0-.87-.52-1.49-1.65-1.49a2.65,2.65,0,0,0-1.84.92l-.57-.57a3.43,3.43,0,0,1,2.53-1.16,2.23,2.23,0,0,1,2.49,2.25c0,1.44-1.44,2.87-3.51,4.75.48,0,1-.06,1.43-.06h2.5v.85h-5.38Z" transform="translate(-185 -78)"/><path class="cls-2" d="M909.15,508.91h2.2v-5.62h-1.71v-.64a5.46,5.46,0,0,0,2-.57h.74v6.83h2v.82h-5.19Z" transform="translate(-185 -78)"/><path class="cls-2" d="M919.6,504.47c0-.42,0-.94.06-1.36h-.06c-.25.38-.53.75-.78,1.12l-2.07,2.59h5v.8h-6.07V507l3.81-4.88h1.07v7.65h-.93Z" transform="translate(-185 -78)"/><path class="cls-2" d="M896.15,698.54h-.28a1.37,1.37,0,0,1-.77-.42,2.31,2.31,0,0,1,.49-.63h.07c.05,0,.08,0,.08.07a5.5,5.5,0,0,0,1.54-1.27c.22,0,.52-.47.91-1.4a.68.68,0,0,0,.07-.35v-.08c-.08-.65-.41-1-1-1a5.86,5.86,0,0,0-2.46.84,2.14,2.14,0,0,0-.56-.28l-.14-.49a9.78,9.78,0,0,1,1.47-1c1.13-1.13,1.69-2.07,1.69-2.82a1.48,1.48,0,0,0-.77-.84.53.53,0,0,1-.22-.07,4.23,4.23,0,0,0-1.26.63H895c-.36,0-.57-.09-.63-.28v-.35c0-.32.61-.62,1.82-.91h.07c.94.34,1.41.66,1.41,1a1.22,1.22,0,0,1,.43.84,4,4,0,0,1-1.2,2.68v.07h.35c.53,0,1.09.44,1.69,1.33a2.94,2.94,0,0,1,.14.63v.43a3.7,3.7,0,0,1-.85,1.9A8.82,8.82,0,0,1,896.15,698.54Z" transform="translate(-185 -78)"/><path class="cls-2" d="M807.86,917.15c2.59-2.29,4-3.64,4-4.91,0-.87-.53-1.49-1.66-1.49a2.61,2.61,0,0,0-1.83.92l-.58-.57a3.43,3.43,0,0,1,2.53-1.16,2.22,2.22,0,0,1,2.49,2.25c0,1.44-1.44,2.87-3.51,4.75.48,0,1-.06,1.43-.06h2.5v.85h-5.38Z" transform="translate(-185 -78)"/><path class="cls-2" d="M814.86,916.83l.49-.66a3,3,0,0,0,2.16.88,1.78,1.78,0,0,0,1.93-1.74,1.66,1.66,0,0,0-1.87-1.67,2.85,2.85,0,0,0-1.56.46l-.53-.34.25-3.68h4.33V911h-3.45l-.21,2.25a3.33,3.33,0,0,1,1.42-.31,2.32,2.32,0,0,1,2.62,2.4,2.63,2.63,0,0,1-2.83,2.59A3.81,3.81,0,0,1,814.86,916.83Z" transform="translate(-185 -78)"/><path class="cls-2" d="M879.86,967.15c2.59-2.29,4-3.64,4-4.91,0-.87-.53-1.49-1.66-1.49a2.61,2.61,0,0,0-1.83.92l-.58-.57a3.43,3.43,0,0,1,2.53-1.16,2.22,2.22,0,0,1,2.49,2.25c0,1.44-1.44,2.87-3.51,4.75.48,0,1-.06,1.43-.06h2.5v.85h-5.38Z" transform="translate(-185 -78)"/><path class="cls-2" d="M887.06,967.15c2.59-2.29,4-3.64,4-4.91,0-.87-.52-1.49-1.65-1.49a2.65,2.65,0,0,0-1.84.92l-.57-.57a3.43,3.43,0,0,1,2.53-1.16,2.23,2.23,0,0,1,2.49,2.25c0,1.44-1.44,2.87-3.51,4.75.48,0,1-.06,1.43-.06h2.5v.85h-5.38Z" transform="translate(-185 -78)"/><path class="cls-2" d="M963.15,925.91h2.2v-5.62h-1.71v-.64a5.46,5.46,0,0,0,2-.57h.74v6.83h2v.82h-5.19Z" transform="translate(-185 -78)"/><path class="cls-2" d="M970.06,926.15c2.59-2.29,4-3.64,4-4.91,0-.87-.52-1.49-1.65-1.49a2.65,2.65,0,0,0-1.84.92l-.57-.57a3.43,3.43,0,0,1,2.53-1.16,2.23,2.23,0,0,1,2.49,2.25c0,1.44-1.44,2.87-3.51,4.75.48,0,1-.06,1.43-.06h2.5v.85h-5.38Z" transform="translate(-185 -78)"/><path class="cls-2" d="M906.15,833.91h2.2v-5.62h-1.71v-.64a5.46,5.46,0,0,0,2-.57h.74v6.83h2v.82h-5.19Z" transform="translate(-185 -78)"/><path class="cls-2" d="M916.6,829.47c0-.42,0-.94.06-1.36h-.06c-.25.38-.53.75-.78,1.12l-2.07,2.59h5v.8h-6.07V832l3.81-4.88h1.07v7.65h-.93Z" transform="translate(-185 -78)"/></svg>