<svg id="图层_1" data-name="图层 1" xmlns="http://www.w3.org/2000/svg" viewBox="0 0 685 116.78"><defs><style>.cls-1,.cls-4{fill:none;}.cls-1,.cls-2,.cls-4{stroke:#3ea69f;stroke-miterlimit:10;}.cls-2{fill:#fff;}.cls-3{fill:#3ea69f;}.cls-4{stroke-dasharray:6 6;}</style></defs><rect class="cls-1" x="0.5" y="24.97" width="684" height="42"/><line class="cls-2" x1="292.79" y1="25.47" x2="292.79" y2="67.47"/><line class="cls-2" x1="157.5" y1="25.78" x2="157.5" y2="67.78"/><line class="cls-2" x1="368.79" y1="25.47" x2="368.79" y2="67.47"/><line class="cls-2" x1="519.5" y1="25.78" x2="519.5" y2="67.78"/><path class="cls-3" d="M424.46,163v-8.68h-3.1v-1.21H426v10a1.58,1.58,0,0,0,1.72,1.8,3.93,3.93,0,0,0,1.64-.4l.38,1.12a5.35,5.35,0,0,1-2.34.52C425.49,166.17,424.46,165.09,424.46,163Z" transform="translate(-250 -151.22)"/><path class="cls-3" d="M432.06,161.56a4.39,4.39,0,0,1,4.46-4.57,3.76,3.76,0,0,1,4,4.1,7,7,0,0,1-.07.9h-7.4v-1.15h6.51l-.37.41c0-2.07-1-3.09-2.63-3.09a3.08,3.08,0,0,0-3,3.4A3.18,3.18,0,0,0,437,165a4.72,4.72,0,0,0,2.67-.83l.54,1a6,6,0,0,1-3.39,1A4.42,4.42,0,0,1,432.06,161.56Z" transform="translate(-250 -151.22)"/><path class="cls-3" d="M443.49,157.29l2.53-.09h5.1v1.21h-7.63Zm2.5-.83a3.2,3.2,0,0,1,3.53-3.54,6.55,6.55,0,0,1,2.52.5l-.34,1.12a4.7,4.7,0,0,0-2-.42c-1.56,0-2.19.88-2.19,2.29V166H446Z" transform="translate(-250 -151.22)"/><path class="cls-3" d="M456.14,162.55v-4.14h-2.48v-1.12l2.53-.09.2-2.81h1.25v2.81h4.28v1.21h-4.28v4.16c0,1.56.52,2.37,2.21,2.37a5.85,5.85,0,0,0,2.09-.39l.32,1.1a7.8,7.8,0,0,1-2.73.52C457,166.17,456.14,164.71,456.14,162.55Z" transform="translate(-250 -151.22)"/><path class="cls-3" d="M464.31,167.19H473v1.28h-8.64Z" transform="translate(-250 -151.22)"/><path class="cls-3" d="M475.47,161.59c0-2.93,2.23-4.6,4.88-4.6a4.46,4.46,0,0,1,3.19,1.27l-.74,1a3.62,3.62,0,0,0-2.39-1,3.35,3.35,0,1,0,0,6.7,4.17,4.17,0,0,0,2.7-1.1l.67,1a5.25,5.25,0,0,1-3.48,1.37C477.52,166.17,475.47,164.49,475.47,161.59Z" transform="translate(-250 -151.22)"/><path class="cls-3" d="M486.51,153.13H488v3.5l-.09,2.07h0a4.38,4.38,0,0,1,3.26-1.71c2.07,0,3,1.22,3,3.52V166h-1.5v-5.24c0-1.65-.57-2.43-2-2.43-1,0-1.74.52-2.75,1.57V166h-1.49Z" transform="translate(-250 -151.22)"/><path class="cls-3" d="M501.3,158.41h-4.05V157.2h5.55V166h-1.5Zm-.59-4.2a1.19,1.19,0,0,1,2.37,0,1.19,1.19,0,0,1-2.37,0Z" transform="translate(-250 -151.22)"/><path class="cls-3" d="M510.86,163v-8.68h-3.1v-1.21h4.59v10a1.58,1.58,0,0,0,1.73,1.8,3.93,3.93,0,0,0,1.64-.4l.38,1.12a5.35,5.35,0,0,1-2.34.52C511.89,166.17,510.86,165.09,510.86,163Z" transform="translate(-250 -151.22)"/><path class="cls-3" d="M518.31,161.59c0-2.84,1.89-4.6,4-4.6a3.74,3.74,0,0,1,2.63,1.11h0l-.07-1.6v-3.37h1.49V166h-1.22L525,164.8H525a4.19,4.19,0,0,1-2.86,1.37C519.82,166.17,518.31,164.51,518.31,161.59Zm6.56,2v-4.36a3.3,3.3,0,0,0-2.29-1c-1.51,0-2.74,1.33-2.74,3.33s1,3.33,2.58,3.33A3.31,3.31,0,0,0,524.87,163.61Z" transform="translate(-250 -151.22)"/><path class="cls-3" d="M638.64,156.2h1.25l.14,2.07h0A4.59,4.59,0,0,1,644,156a3.68,3.68,0,0,1,1.73.36l-.34,1.27a4.56,4.56,0,0,0-1.62-.28c-1.32,0-2.56.66-3.6,2.5V165h-1.5Z" transform="translate(-250 -151.22)"/><path class="cls-3" d="M652.5,157.41h-4V156.2H654V165h-1.5Zm-.59-4.2a1.19,1.19,0,1,1,1.19,1.15A1.12,1.12,0,0,1,651.91,153.21Z" transform="translate(-250 -151.22)"/><path class="cls-3" d="M658.93,166.55a2.41,2.41,0,0,1,1.44-1.94v-.07a1.58,1.58,0,0,1-.9-1.44,2.14,2.14,0,0,1,1-1.64v-.07a2.81,2.81,0,0,1-1.08-2.27,3.21,3.21,0,0,1,3.44-3.13,3.65,3.65,0,0,1,1.3.21h3.62v1.21h-2.27a2.66,2.66,0,0,1,.74,1.76c0,1.87-1.5,3-3.39,3a3.75,3.75,0,0,1-1.48-.33,1.22,1.22,0,0,0-.68,1c0,.69.67,1,1.82,1h2c2.25,0,3.33.58,3.33,2,0,1.64-1.89,3.07-4.86,3.07C660.4,169,658.93,168.1,658.93,166.55Zm7.43-.39c0-.83-.66-1.06-2-1.06h-1.71a4.9,4.9,0,0,1-1.34-.15c-.83.45-1.11,1-1.11,1.46,0,.92,1,1.49,2.86,1.49C665.1,167.9,666.36,167.06,666.36,166.16Zm-1.47-7a2,2,0,1,0-2,2.07A2,2,0,0,0,664.89,159.12Z" transform="translate(-250 -151.22)"/><path class="cls-3" d="M670.11,152.13h1.49v3.5l-.09,2.07h0a4.38,4.38,0,0,1,3.26-1.71c2.07,0,3,1.22,3,3.52V165h-1.5v-5.24c0-1.65-.57-2.43-2-2.43-1.05,0-1.75.52-2.76,1.57V165h-1.49Z" transform="translate(-250 -151.22)"/><path class="cls-3" d="M682.94,161.55v-4.14h-2.48v-1.12l2.53-.09.2-2.81h1.24v2.81h4.29v1.21h-4.29v4.16c0,1.56.53,2.37,2.22,2.37a5.85,5.85,0,0,0,2.09-.39l.32,1.1a7.8,7.8,0,0,1-2.73.52C683.77,165.17,682.94,163.71,682.94,161.55Z" transform="translate(-250 -151.22)"/><path class="cls-3" d="M691.11,166.19h8.64v1.28h-8.64Z" transform="translate(-250 -151.22)"/><path class="cls-3" d="M702.27,160.59c0-2.93,2.23-4.6,4.88-4.6a4.46,4.46,0,0,1,3.19,1.27l-.74,1a3.63,3.63,0,0,0-2.4-1,3.35,3.35,0,1,0,0,6.7,4.17,4.17,0,0,0,2.7-1.1l.67,1a5.25,5.25,0,0,1-3.48,1.37C704.32,165.17,702.27,163.49,702.27,160.59Z" transform="translate(-250 -151.22)"/><path class="cls-3" d="M713.3,152.13h1.5v3.5l-.09,2.07h0A4.38,4.38,0,0,1,718,156c2.07,0,3,1.22,3,3.52V165h-1.5v-5.24c0-1.65-.57-2.43-2-2.43-1,0-1.74.52-2.75,1.57V165h-1.5Z" transform="translate(-250 -151.22)"/><path class="cls-3" d="M728.1,157.41h-4.05V156.2h5.55V165h-1.5Zm-.59-4.2a1.19,1.19,0,1,1,1.19,1.15A1.12,1.12,0,0,1,727.51,153.21Z" transform="translate(-250 -151.22)"/><path class="cls-3" d="M737.66,162v-8.68h-3.1v-1.21h4.59v10a1.58,1.58,0,0,0,1.73,1.8,3.93,3.93,0,0,0,1.64-.4l.38,1.12a5.35,5.35,0,0,1-2.34.52C738.69,165.17,737.66,164.09,737.66,162Z" transform="translate(-250 -151.22)"/><path class="cls-3" d="M745.11,160.59c0-2.84,1.89-4.6,4-4.6a3.74,3.74,0,0,1,2.63,1.11h0l-.07-1.6v-3.37h1.49V165h-1.23l-.12-1.15h0a4.23,4.23,0,0,1-2.87,1.37C746.62,165.17,745.11,163.51,745.11,160.59Zm6.56,2v-4.36a3.3,3.3,0,0,0-2.29-1c-1.51,0-2.74,1.33-2.74,3.33s1,3.33,2.58,3.33A3.31,3.31,0,0,0,751.67,162.61Z" transform="translate(-250 -151.22)"/><path class="cls-3" d="M560.11,160.59c0-2.84,1.89-4.6,4-4.6a3.74,3.74,0,0,1,2.63,1.11h0l-.07-1.6v-3.37h1.49V165h-1.22l-.13-1.15h0a4.21,4.21,0,0,1-2.87,1.37C561.62,165.17,560.11,163.51,560.11,160.59Zm6.56,2v-4.36a3.28,3.28,0,0,0-2.29-1c-1.51,0-2.74,1.33-2.74,3.33s1,3.33,2.58,3.33A3.31,3.31,0,0,0,566.67,162.61Z" transform="translate(-250 -151.22)"/><path class="cls-3" d="M571.27,162.68c0-2,1.84-2.91,6.36-3.27a2.08,2.08,0,0,0-2.32-2.2,6.15,6.15,0,0,0-3.07,1l-.59-1a7.64,7.64,0,0,1,3.91-1.26,3.25,3.25,0,0,1,3.56,3.6V165h-1.24l-.13-1.19h0a5.84,5.84,0,0,1-3.44,1.41C572.62,165.17,571.27,164.25,571.27,162.68Zm6.36,0V160.4c-3.75.28-4.88,1-4.88,2.18,0,1,.9,1.38,1.91,1.38A4.81,4.81,0,0,0,577.63,162.67Z" transform="translate(-250 -151.22)"/><path class="cls-3" d="M584.34,161.55v-4.14h-2.48v-1.12l2.53-.09.2-2.81h1.25v2.81h4.28v1.21h-4.28v4.16c0,1.56.52,2.37,2.21,2.37a5.85,5.85,0,0,0,2.09-.39l.32,1.1a7.8,7.8,0,0,1-2.73.52C585.17,165.17,584.34,163.71,584.34,161.55Z" transform="translate(-250 -151.22)"/><path class="cls-3" d="M592.87,162.68c0-2,1.84-2.91,6.36-3.27a2.08,2.08,0,0,0-2.32-2.2,6.15,6.15,0,0,0-3.07,1l-.59-1a7.64,7.64,0,0,1,3.91-1.26,3.25,3.25,0,0,1,3.56,3.6V165h-1.24l-.13-1.19h-.05a5.84,5.84,0,0,1-3.44,1.41C594.22,165.17,592.87,164.25,592.87,162.68Zm6.36,0V160.4c-3.75.28-4.88,1-4.88,2.18,0,1,.9,1.38,1.91,1.38A4.81,4.81,0,0,0,599.23,162.67Z" transform="translate(-250 -151.22)"/><path class="cls-3" d="M788.52,155.51h1.24l.15,2.07h0a4.63,4.63,0,0,1,3.91-2.29,3.68,3.68,0,0,1,1.73.36l-.34,1.28a4.35,4.35,0,0,0-1.62-.29c-1.32,0-2.56.67-3.6,2.5v5.12h-1.5Z" transform="translate(-250 -151.22)"/><path class="cls-3" d="M802.38,156.71h-4v-1.2h5.55v8.75h-1.5Zm-.59-4.19a1.19,1.19,0,1,1,1.19,1.15A1.12,1.12,0,0,1,801.79,152.52Z" transform="translate(-250 -151.22)"/><path class="cls-3" d="M808.81,165.86a2.41,2.41,0,0,1,1.44-1.94v-.08a1.58,1.58,0,0,1-.9-1.44,2.14,2.14,0,0,1,1-1.63v-.08a2.8,2.8,0,0,1-1.08-2.27,3.22,3.22,0,0,1,3.44-3.13,3.47,3.47,0,0,1,1.3.22h3.62v1.2H815.4a2.7,2.7,0,0,1,.73,1.77c0,1.87-1.49,3-3.38,3a3.75,3.75,0,0,1-1.48-.33,1.21,1.21,0,0,0-.68,1c0,.68.67,1,1.82,1h2c2.25,0,3.33.57,3.33,2,0,1.64-1.89,3.06-4.86,3.06C810.28,168.29,808.81,167.41,808.81,165.86Zm7.43-.4c0-.82-.66-1.06-2-1.06h-1.71a4.89,4.89,0,0,1-1.33-.14c-.83.45-1.11,1-1.11,1.46,0,.91,1,1.49,2.86,1.49C815,167.21,816.24,166.36,816.24,165.46Zm-1.47-7a2,2,0,1,0-2,2.08A2,2,0,0,0,814.77,158.42Z" transform="translate(-250 -151.22)"/><path class="cls-3" d="M820,151.44h1.5v3.49l-.09,2.07h.05a4.41,4.41,0,0,1,3.26-1.71c2.07,0,3,1.23,3,3.53v5.44h-1.5V159c0-1.66-.57-2.43-2-2.43-1,0-1.74.52-2.75,1.56v6.11H820Z" transform="translate(-250 -151.22)"/><path class="cls-3" d="M832.82,160.86v-4.15h-2.49V155.6l2.54-.09.2-2.81h1.24v2.81h4.29v1.2h-4.29v4.16c0,1.57.53,2.38,2.22,2.38a5.64,5.64,0,0,0,2.09-.4l.32,1.1a7.6,7.6,0,0,1-2.74.52C833.65,164.47,832.82,163,832.82,160.86Z" transform="translate(-250 -151.22)"/><path class="cls-3" d="M841,165.5h8.64v1.28H841Z" transform="translate(-250 -151.22)"/><path class="cls-3" d="M854.42,160.86v-4.15h-2.49V155.6l2.54-.09.2-2.81h1.24v2.81h4.29v1.2h-4.29v4.16c0,1.57.53,2.38,2.22,2.38a5.64,5.64,0,0,0,2.09-.4l.32,1.1a7.6,7.6,0,0,1-2.74.52C855.25,164.47,854.42,163,854.42,160.86Z" transform="translate(-250 -151.22)"/><path class="cls-3" d="M863.18,151.44h1.5v3.49l-.09,2.07h0a4.41,4.41,0,0,1,3.26-1.71c2.07,0,3,1.23,3,3.53v5.44h-1.5V159c0-1.66-.57-2.43-2-2.43-1,0-1.74.52-2.75,1.56v6.11h-1.5Z" transform="translate(-250 -151.22)"/><path class="cls-3" d="M874.92,155.51h1.24l.15,2.07h0a4.63,4.63,0,0,1,3.91-2.29,3.68,3.68,0,0,1,1.73.36l-.34,1.28a4.39,4.39,0,0,0-1.62-.29c-1.32,0-2.56.67-3.6,2.5v5.12h-1.5Z" transform="translate(-250 -151.22)"/><path class="cls-3" d="M884.33,159.87a4.41,4.41,0,0,1,4.47-4.58,3.77,3.77,0,0,1,4,4.11,5.56,5.56,0,0,1-.08.9h-7.4v-1.16h6.52l-.38.42c0-2.07-1-3.1-2.63-3.1a3.09,3.09,0,0,0-3,3.41,3.18,3.18,0,0,0,3.42,3.42,4.82,4.82,0,0,0,2.67-.83l.54,1a6,6,0,0,1-3.39,1A4.43,4.43,0,0,1,884.33,159.87Z" transform="translate(-250 -151.22)"/><path class="cls-3" d="M895.35,162c0-2,1.84-2.92,6.36-3.28a2.08,2.08,0,0,0-2.33-2.19,6.14,6.14,0,0,0-3.06,1l-.59-1a7.7,7.7,0,0,1,3.9-1.26,3.25,3.25,0,0,1,3.57,3.6v5.37H902l-.13-1.19h-.05a5.88,5.88,0,0,1-3.44,1.4C896.7,164.47,895.35,163.56,895.35,162Zm6.36,0V159.7c-3.75.29-4.88,1-4.88,2.18,0,1,.9,1.39,1.9,1.39A4.79,4.79,0,0,0,901.71,162Z" transform="translate(-250 -151.22)"/><path class="cls-3" d="M905.79,159.9c0-2.84,1.89-4.61,4-4.61a3.77,3.77,0,0,1,2.63,1.12h0l-.08-1.6v-3.37h1.5v12.82h-1.23l-.12-1.15h-.06a4.22,4.22,0,0,1-2.86,1.36C907.3,164.47,905.79,162.82,905.79,159.9Zm6.55,2v-4.36a3.23,3.23,0,0,0-2.28-1c-1.52,0-2.74,1.33-2.74,3.33s1,3.33,2.57,3.33A3.3,3.3,0,0,0,912.34,161.92Z" transform="translate(-250 -151.22)"/><path class="cls-3" d="M267.74,161.32v-8.67h-3.1v-1.21h4.59v10a1.58,1.58,0,0,0,1.73,1.8,3.91,3.91,0,0,0,1.64-.39L273,164a5.35,5.35,0,0,1-2.34.52C268.77,164.47,267.74,163.39,267.74,161.32Z" transform="translate(-250 -151.22)"/><path class="cls-3" d="M275.33,159.87a4.41,4.41,0,0,1,4.47-4.58,3.77,3.77,0,0,1,4,4.11,7.17,7.17,0,0,1-.07.9h-7.4v-1.16h6.51l-.37.42c0-2.07-1-3.1-2.63-3.1a3.09,3.09,0,0,0-3,3.41,3.18,3.18,0,0,0,3.42,3.42,4.8,4.8,0,0,0,2.67-.83l.54,1a6,6,0,0,1-3.39,1A4.43,4.43,0,0,1,275.33,159.87Z" transform="translate(-250 -151.22)"/><path class="cls-3" d="M286.77,155.6l2.53-.09h5.1v1.2h-7.63Zm2.5-.83a3.2,3.2,0,0,1,3.53-3.55,6.38,6.38,0,0,1,2.52.51l-.34,1.11a4.84,4.84,0,0,0-2-.41c-1.57,0-2.2.88-2.2,2.29v9.54h-1.47Z" transform="translate(-250 -151.22)"/><path class="cls-3" d="M299.42,160.86v-4.15h-2.49V155.6l2.54-.09.2-2.81h1.24v2.81h4.29v1.2h-4.29v4.16c0,1.57.53,2.38,2.22,2.38a5.64,5.64,0,0,0,2.09-.4l.32,1.1a7.6,7.6,0,0,1-2.74.52C300.25,164.47,299.42,163,299.42,160.86Z" transform="translate(-250 -151.22)"/><path class="cls-3" d="M307.59,165.5h8.64v1.28h-8.64Z" transform="translate(-250 -151.22)"/><path class="cls-3" d="M321,160.86v-4.15h-2.48V155.6l2.53-.09.2-2.81h1.24v2.81h4.29v1.2h-4.29v4.16c0,1.57.53,2.38,2.22,2.38a5.64,5.64,0,0,0,2.09-.4l.32,1.1a7.6,7.6,0,0,1-2.74.52C321.85,164.47,321,163,321,160.86Z" transform="translate(-250 -151.22)"/><path class="cls-3" d="M329.79,151.44h1.49v3.49l-.09,2.07h.05a4.41,4.41,0,0,1,3.26-1.71c2.07,0,3,1.23,3,3.53v5.44H336V159c0-1.66-.57-2.43-2-2.43-1,0-1.74.52-2.75,1.56v6.11h-1.49Z" transform="translate(-250 -151.22)"/><path class="cls-3" d="M341.52,155.51h1.24l.15,2.07h0a4.63,4.63,0,0,1,3.91-2.29,3.68,3.68,0,0,1,1.73.36l-.34,1.28a4.39,4.39,0,0,0-1.62-.29c-1.32,0-2.56.67-3.6,2.5v5.12h-1.5Z" transform="translate(-250 -151.22)"/><path class="cls-3" d="M350.93,159.87a4.41,4.41,0,0,1,4.47-4.58,3.77,3.77,0,0,1,4,4.11,7.17,7.17,0,0,1-.07.9h-7.41v-1.16h6.52l-.38.42c0-2.07-1-3.1-2.62-3.1a3.09,3.09,0,0,0-3,3.41,3.18,3.18,0,0,0,3.42,3.42,4.82,4.82,0,0,0,2.67-.83l.54,1a6,6,0,0,1-3.39,1A4.43,4.43,0,0,1,350.93,159.87Z" transform="translate(-250 -151.22)"/><path class="cls-3" d="M362,162c0-2,1.84-2.92,6.36-3.28a2.08,2.08,0,0,0-2.33-2.19,6.14,6.14,0,0,0-3.06,1l-.59-1a7.74,7.74,0,0,1,3.91-1.26,3.25,3.25,0,0,1,3.56,3.6v5.37h-1.24l-.13-1.19h-.05a5.88,5.88,0,0,1-3.44,1.4C363.3,164.47,362,163.56,362,162Zm6.36,0V159.7c-3.75.29-4.88,1-4.88,2.18,0,1,.9,1.39,1.9,1.39A4.77,4.77,0,0,0,368.31,162Z" transform="translate(-250 -151.22)"/><path class="cls-3" d="M372.39,159.9c0-2.84,1.89-4.61,4-4.61a3.75,3.75,0,0,1,2.63,1.12h0l-.08-1.6v-3.37h1.5v12.82h-1.23l-.12-1.15H379a4.22,4.22,0,0,1-2.86,1.36C373.9,164.47,372.39,162.82,372.39,159.9Zm6.55,2v-4.36a3.23,3.23,0,0,0-2.28-1c-1.52,0-2.74,1.33-2.74,3.33s1,3.33,2.58,3.33A3.29,3.29,0,0,0,378.94,161.92Z" transform="translate(-250 -151.22)"/><path class="cls-3" d="M310.82,200.86v-4.15h-2.49V195.6l2.54-.09.2-2.81h1.24v2.81h4.29v1.2h-4.29v4.16c0,1.57.53,2.38,2.22,2.38a5.64,5.64,0,0,0,2.09-.4l.32,1.1a7.6,7.6,0,0,1-2.74.52C311.65,204.47,310.82,203,310.82,200.86Z" transform="translate(-250 -151.22)"/><path class="cls-3" d="M320.52,195.51h1.24l.15,2.07h0a4.63,4.63,0,0,1,3.91-2.29,3.68,3.68,0,0,1,1.73.36l-.34,1.28a4.39,4.39,0,0,0-1.62-.29c-1.32,0-2.56.67-3.6,2.5v5.12h-1.5Z" transform="translate(-250 -151.22)"/><path class="cls-3" d="M330.1,201v-5.44h1.49v5.24c0,1.64.58,2.43,2,2.43,1,0,1.74-.47,2.72-1.6v-6.07h1.49v8.75h-1.24l-.13-1.53h-.07a4.27,4.27,0,0,1-3.26,1.74C331.05,204.47,330.1,203.25,330.1,201Z" transform="translate(-250 -151.22)"/><path class="cls-3" d="M340.73,199.87a4.41,4.41,0,0,1,4.47-4.58,3.77,3.77,0,0,1,4,4.11,5.56,5.56,0,0,1-.08.9h-7.4v-1.16h6.52l-.38.42c0-2.07-1-3.1-2.62-3.1a3.09,3.09,0,0,0-3,3.41,3.18,3.18,0,0,0,3.42,3.42,4.82,4.82,0,0,0,2.67-.83l.54,1a6,6,0,0,1-3.39,1A4.43,4.43,0,0,1,340.73,199.87Z" transform="translate(-250 -151.22)"/><path class="cls-3" d="M825.57,195.6l2.53-.09h5.1v1.2h-7.63Zm2.5-.83a3.2,3.2,0,0,1,3.53-3.55,6.38,6.38,0,0,1,2.52.51l-.34,1.11a4.84,4.84,0,0,0-2-.41c-1.57,0-2.2.88-2.2,2.29v9.54h-1.47Z" transform="translate(-250 -151.22)"/><path class="cls-3" d="M836,202c0-2,1.84-2.92,6.36-3.28a2.08,2.08,0,0,0-2.33-2.19,6.14,6.14,0,0,0-3.06,1l-.59-1a7.74,7.74,0,0,1,3.91-1.26,3.25,3.25,0,0,1,3.56,3.6v5.37h-1.24l-.13-1.19h0a5.88,5.88,0,0,1-3.44,1.4C837.3,204.47,836,203.56,836,202Zm6.36,0V199.7c-3.75.29-4.88,1-4.88,2.18,0,1,.9,1.39,1.91,1.39A4.77,4.77,0,0,0,842.31,202Z" transform="translate(-250 -151.22)"/><path class="cls-3" d="M849.74,201.32v-8.67h-3.1v-1.21h4.59v10a1.58,1.58,0,0,0,1.73,1.8,3.91,3.91,0,0,0,1.64-.39L855,204a5.35,5.35,0,0,1-2.34.52C850.77,204.47,849.74,203.39,849.74,201.32Z" transform="translate(-250 -151.22)"/><path class="cls-3" d="M857.39,203.11l.68-1a6.25,6.25,0,0,0,3.8,1.18c1.48,0,2.2-.61,2.2-1.35s-.34-1.13-2.72-1.62-3.42-1.24-3.42-2.55,1.24-2.49,3.64-2.49a6.48,6.48,0,0,1,3.52,1.12l-.71,1a5.18,5.18,0,0,0-2.94-.92c-1.48,0-2,.6-2,1.26s.76,1.08,2.56,1.46c2.9.63,3.6,1.35,3.6,2.7s-1.39,2.61-3.89,2.61A7.74,7.74,0,0,1,857.39,203.11Z" transform="translate(-250 -151.22)"/><path class="cls-3" d="M868.13,199.87a4.41,4.41,0,0,1,4.47-4.58,3.77,3.77,0,0,1,4,4.11,7.17,7.17,0,0,1-.07.9h-7.41v-1.16h6.52l-.38.42c0-2.07-1-3.1-2.62-3.1a3.09,3.09,0,0,0-3,3.41,3.18,3.18,0,0,0,3.42,3.42,4.82,4.82,0,0,0,2.67-.83l.54,1a6,6,0,0,1-3.39,1A4.43,4.43,0,0,1,868.13,199.87Z" transform="translate(-250 -151.22)"/><line class="cls-1" x1="317" y1="46.28" x2="345" y2="46.28"/><polyline class="cls-4" points="222.5 46.28 222.5 116.28 302.5 116.28 302.5 87.31"/><path class="cls-3" d="M552.5,232.5a30.1,30.1,0,0,0,4.76,8.55l-4.76-1.72-4.75,1.72A30.31,30.31,0,0,0,552.5,232.5Z" transform="translate(-250 -151.22)"/><polyline class="cls-1" points="448.5 46.28 448.5 116.28 368.5 116.28 368.5 87.31"/><path class="cls-3" d="M618.5,232.5a30.1,30.1,0,0,0,4.76,8.55l-4.76-1.72-4.75,1.72A30.31,30.31,0,0,0,618.5,232.5Z" transform="translate(-250 -151.22)"/></svg>